<?xml version="1.0" encoding="UTF-8"?>
<!DOCTYPE svg  PUBLIC '-//W3C//DTD SVG 1.1//EN'  'http://www.w3.org/Graphics/SVG/1.1/DTD/svg11.dtd'>
<svg width="1925.3pt" height="1013.3pt" version="1.1" viewBox="0 0 1925.3 1013.3" xmlns="http://www.w3.org/2000/svg" xmlns:xlink="http://www.w3.org/1999/xlink">
<metadata>
<rdf:RDF xmlns:cc="http://creativecommons.org/ns#" xmlns:dc="http://purl.org/dc/elements/1.1/" xmlns:rdf="http://www.w3.org/1999/02/22-rdf-syntax-ns#">
<cc:Work>
<dc:type rdf:resource="http://purl.org/dc/dcmitype/StillImage"/>
<dc:date>2021-02-09T20:39:39.913489</dc:date>
<dc:format>image/svg+xml</dc:format>
<dc:creator>
<cc:Agent>
<dc:title>Matplotlib v3.3.3, https://matplotlib.org/</dc:title>
</cc:Agent>
</dc:creator>
</cc:Work>
</rdf:RDF>
</metadata>
<defs>
<style type="text/css">*{stroke-linecap:butt;stroke-linejoin:round;}</style>
</defs>
<path d="m0 1013.3h1925.3v-1013.3h-1925.3z" fill="#fff"/>
<g fill="none" stroke="#000">
<path d="m532.04 46.061-428.57 371.3" clip-path="url(#a)"/>
<path d="m532.04 46.061-370.19 739.91" clip-path="url(#a)"/>
<path d="m532.04 46.061-283.09 371.3" clip-path="url(#a)"/>
<path d="m532.04 46.061-66.083 739.91" clip-path="url(#a)"/>
<path d="m532.04 46.061 71.578 185.89" clip-path="url(#a)"/>
<path d="m532.04 46.061 463.29 739.91" clip-path="url(#a)"/>
<path d="m532.04 46.061 719.7 185.89" clip-path="url(#a)"/>
<path d="m532.04 46.061-106.63 739.91" clip-path="url(#a)"/>
<path d="m103.47 417.36-15.956 368.61" clip-path="url(#a)"/>
<path d="m103.47 417.36-9.1983 368.61" clip-path="url(#a)"/>
<path d="m103.47 417.36-0.18772 368.61" clip-path="url(#a)"/>
<path d="m103.47 417.36 25.342 184.79" clip-path="url(#a)"/>
<path d="m161.85 785.97v181.3" clip-path="url(#a)"/>
<path d="m248.95 417.36-66.828 368.61" clip-path="url(#a)"/>
<path d="m248.95 417.36-44.302 368.61" clip-path="url(#a)"/>
<path d="m248.95 417.36 8.2597 184.79" clip-path="url(#a)"/>
<path d="m248.95 417.36 102.87 184.79" clip-path="url(#a)"/>
<path d="m465.96 785.97v181.3" clip-path="url(#a)"/>
<path d="m603.62 231.95-94.861 554.03" clip-path="url(#a)"/>
<path d="m603.62 231.95-49.808 554.03" clip-path="url(#a)"/>
<path d="m603.62 231.95-2.5029 554.03" clip-path="url(#a)"/>
<path d="m603.62 231.95 147.17 185.42" clip-path="url(#a)"/>
<path d="m995.33 785.97v181.3" clip-path="url(#a)"/>
<path d="m1251.7 231.95-191.08 554.03" clip-path="url(#a)"/>
<path d="m1251.7 231.95-123.5 554.03" clip-path="url(#a)"/>
<path d="m1251.7 231.95-53.672 554.03" clip-path="url(#a)"/>
<path d="m1251.7 231.95 368.26 185.42" clip-path="url(#a)"/>
<path d="m1060.7 785.97v181.3" clip-path="url(#a)"/>
<path d="m1128.2 785.97v181.3" clip-path="url(#a)"/>
<path d="m1198.1 785.97v181.3" clip-path="url(#a)"/>
<path d="m1620 417.36-274.76 184.79" clip-path="url(#a)"/>
<path d="m1620 417.36-120.08 368.61" clip-path="url(#a)"/>
<path d="m1620 417.36 44.365 368.61" clip-path="url(#a)"/>
<path d="m1620 417.36 2.6907 184.79" clip-path="url(#a)"/>
<path d="m1620 417.36 129.96 368.61" clip-path="url(#a)"/>
<path d="m1620 417.36 217.82 368.61" clip-path="url(#a)"/>
<path d="m1345.2 602.15-75.088 183.82" clip-path="url(#a)"/>
<path d="m1345.2 602.15-0.75088 183.82" clip-path="url(#a)"/>
<path d="m1345.2 602.15 75.839 183.82" clip-path="url(#a)"/>
<path d="m1499.9 785.97v181.3" clip-path="url(#a)"/>
<path d="m1664.4 785.97v181.3" clip-path="url(#a)"/>
<path d="m1622.7 602.15 41.674 183.82" clip-path="url(#a)" stroke-dasharray="3.7,1.6"/>
<path d="m1622.7 602.15-41.674 183.82" clip-path="url(#a)"/>
<path d="m1750 785.97v181.3" clip-path="url(#a)"/>
<path d="m1581 785.97v181.3" clip-path="url(#a)"/>
<path d="m1270.2 785.97v181.3" clip-path="url(#a)"/>
<path d="m1344.5 785.97v181.3" clip-path="url(#a)"/>
<path d="m1421.1 785.97v181.3" clip-path="url(#a)"/>
<path d="m508.76 785.97v181.3" clip-path="url(#a)"/>
<path d="m553.81 785.97v181.3" clip-path="url(#a)"/>
<path d="m601.12 785.97v181.3" clip-path="url(#a)"/>
<path d="m750.79 417.36-100.12 368.61" clip-path="url(#a)"/>
<path d="m750.79 417.36-21.275 184.79" clip-path="url(#a)"/>
<path d="m750.79 417.36 121.39 184.79" clip-path="url(#a)"/>
<path d="m650.68 785.97v181.3" clip-path="url(#a)"/>
<path d="m729.52 602.15-27.032 183.82" clip-path="url(#a)"/>
<path d="m729.52 602.15 27.032 183.82" clip-path="url(#a)"/>
<path d="m872.19 602.15-59.32 183.82" clip-path="url(#a)"/>
<path d="m872.19 602.15-0.75088 183.82" clip-path="url(#a)"/>
<path d="m872.19 602.15 60.07 183.82" clip-path="url(#a)"/>
<path d="m812.87 785.97v181.3" clip-path="url(#a)"/>
<path d="m871.43 785.97v181.3" clip-path="url(#a)"/>
<path d="m932.26 785.97v181.3" clip-path="url(#a)"/>
<path d="m702.49 785.97v181.3" clip-path="url(#a)"/>
<path d="m756.55 785.97v181.3" clip-path="url(#a)"/>
<path d="m182.13 785.97v181.3" clip-path="url(#a)"/>
<path d="m204.65 785.97v181.3" clip-path="url(#a)"/>
<path d="m257.21 602.15-27.783 183.82" clip-path="url(#a)"/>
<path d="m257.21 602.15-0.75088 183.82" clip-path="url(#a)"/>
<path d="m257.21 602.15 28.533 183.82" clip-path="url(#a)"/>
<path d="m351.83 602.15-34.541 183.82" clip-path="url(#a)"/>
<path d="m351.83 602.15-0.75088 183.82" clip-path="url(#a)"/>
<path d="m351.83 602.15 35.291 183.82" clip-path="url(#a)"/>
<path d="m317.28 785.97v181.3" clip-path="url(#a)"/>
<path d="m351.07 785.97v181.3" clip-path="url(#a)"/>
<path d="m387.12 785.97v181.3" clip-path="url(#a)"/>
<path d="m229.43 785.97v181.3" clip-path="url(#a)"/>
<path d="m256.46 785.97v181.3" clip-path="url(#a)"/>
<path d="m285.75 785.97v181.3" clip-path="url(#a)"/>
<path d="m87.515 785.97v181.3" clip-path="url(#a)"/>
<path d="m94.273 785.97v181.3" clip-path="url(#a)"/>
<path d="m103.28 785.97v181.3" clip-path="url(#a)"/>
<path d="m128.81 602.15-14.267 183.82" clip-path="url(#a)"/>
<path d="m128.81 602.15-0.75088 183.82" clip-path="url(#a)"/>
<path d="m128.81 602.15 15.018 183.82" clip-path="url(#a)"/>
<path d="m114.55 785.97v181.3" clip-path="url(#a)"/>
<path d="m128.06 785.97v181.3" clip-path="url(#a)"/>
<path d="m143.83 785.97v181.3" clip-path="url(#a)"/>
<path d="m425.41 785.97v181.3" clip-path="url(#a)"/>
<path d="m1837.8 785.97v181.3" clip-path="url(#a)"/>
</g>
<path d="m319.59 238.42 4.5471-3.9395q1.8139-1.5715 0.24239-3.3854l-5.0698-5.8518q-1.5715-1.8139-3.3854-0.24239l-4.5471 3.9395q-1.8139 1.5715-0.24239 3.3854l5.0698 5.8518q1.5715 1.8139 3.3854 0.24239z" clip-path="url(#a)" fill="#fff" stroke="#fff"/>
<g clip-path="url(#a)">
<g transform="translate(316.93 235.35) rotate(-40.905) scale(.08 -.08)">
<defs>
<path id="ah" d="m9.8125 72.906h9.8594v-29.891h35.844v29.891h9.8594v-72.906h-9.8594v34.719h-35.844v-34.719h-9.8594z"/>
</defs>
<use xlink:href="#ah"/>
</g>
</g>
<path d="m351.56 420.82 1.9945-3.9864q1.0739-2.1464-1.0725-3.2202l-6.9242-3.4643q-2.1464-1.0739-3.2202 1.0725l-1.9945 3.9864q-1.0739 2.1464 1.0725 3.2202l6.9242 3.4643q2.1464 1.0739 3.2202-1.0725z" clip-path="url(#a)" fill="#fff" stroke="#fff"/>
<g clip-path="url(#a)">
<g transform="translate(347.92 419) rotate(-63.42) scale(.08 -.08)">
<defs>
<path id="ak" d="m9.8125 72.906h9.8594v-64.609h35.5v-8.2969h-45.359z"/>
</defs>
<use xlink:href="#ak"/>
</g>
</g>
<path d="m393.66 237.91 3.6477-4.7843q1.4551-1.9086-0.45343-3.3637l-6.1571-4.6943q-1.9086-1.4551-3.3637 0.45343l-3.6477 4.7843q-1.4551 1.9086 0.45343 3.3637l6.1571 4.6943q1.9086 1.4551 3.3637-0.45343z" clip-path="url(#a)" fill="#fff" stroke="#fff"/>
<g clip-path="url(#a)">
<g transform="translate(390.43 235.44) rotate(-52.677) scale(.08 -.08)">
<use xlink:href="#ah"/>
</g>
</g>
<path d="m505.05 418.79 0.39653-4.4398q0.2135-2.3905-2.177-2.604l-7.7118-0.68876q-2.3905-0.2135-2.604 2.177l-0.39653 4.4398q-0.2135 2.3905 2.177 2.604l7.7118 0.68876q2.3905 0.2135 2.604-2.177z" clip-path="url(#a)" fill="#fff" stroke="#fff"/>
<g clip-path="url(#a)">
<g transform="translate(501 418.43) rotate(-84.896) scale(.08 -.08)">
<use xlink:href="#ak"/>
</g>
</g>
<path d="m560.9 138.45 2.1619 5.6144q0.86243 2.2397 3.1021 1.3773l7.2253-2.7822q2.2397-0.86243 1.3773-3.1021l-2.1619-5.6144q-0.86243-2.2397-3.1021-1.3773l-7.2253 2.7822q-2.2397 0.86243-1.3773 3.1021z" clip-path="url(#a)" fill="#fff" stroke="#fff"/>
<g clip-path="url(#a)">
<g transform="translate(564.69 136.99) rotate(68.94) scale(.08 -.08)">
<use xlink:href="#ah"/>
</g>
</g>
<path d="m757.19 417.46 2.3656 3.778q1.2737 2.0342 3.3078 0.76049l6.5623-4.1089q2.0342-1.2737 0.76049-3.3078l-2.3656-3.778q-1.2737-2.0342-3.3078-0.76049l-6.5623 4.1089q-2.0342 1.2737-0.76049 3.3078z" clip-path="url(#a)" fill="#fff" stroke="#fff"/>
<g clip-path="url(#a)">
<g transform="translate(760.63 415.3) rotate(57.948) scale(.08 -.08)">
<use xlink:href="#ak"/>
</g>
</g>
<path d="m887.41 144.32 5.8251 1.5045q2.3237 0.60018 2.9239-1.7236l1.9362-7.4965q0.60018-2.3237-1.7236-2.9239l-5.8251-1.5045q-2.3237-0.60018-2.9239 1.7236l-1.9362 7.4965q-0.60018 2.3237 1.7236 2.9239z" clip-path="url(#a)" fill="#fff" stroke="#fff"/>
<g clip-path="url(#a)">
<g transform="translate(888.43 140.39) rotate(14.482) scale(.08 -.08)">
<use xlink:href="#ah"/>
</g>
</g>
<path d="m484.52 419.81 0.83516-5.7951q0.34234-2.3755-2.0331-2.7178l-7.6633-1.1044q-2.3755-0.34234-2.7178 2.0331l-0.83516 5.7951q-0.34234 2.3755 2.0331 2.7178l7.6633 1.1044q2.3755 0.34234 2.7178-2.0331z" clip-path="url(#a)" fill="#fff" stroke="#fff"/>
<g clip-path="url(#a)">
<g transform="translate(480.49 419.23) rotate(-81.799) scale(.08 -.08)">
<defs>
<path id="an" d="m8.6875 72.906h9.9219v-44.297q0-11.719 4.2344-16.875 4.25-5.1406 13.781-5.1406 9.4688 0 13.719 5.1406 4.25 5.1562 4.25 16.875v44.297h9.9062v-45.516q0-14.25-7.0625-21.531-7.0469-7.2812-20.812-7.2812-13.828 0-20.891 7.2812-7.0469 7.2812-7.0469 21.531z"/>
</defs>
<use xlink:href="#an"/>
</g>
</g>
<path d="m101.64 604.67 0.23667-5.4674q0.10379-2.3978-2.294-2.5015l-7.7353-0.33484q-2.3978-0.10379-2.5015 2.294l-0.23667 5.4674q-0.10379 2.3978 2.294 2.5015l7.7353 0.33484q2.3978 0.10379 2.5015-2.294z" clip-path="url(#a)" fill="#fff" stroke="#fff"/>
<g clip-path="url(#a)">
<g transform="translate(97.58 604.5) rotate(-87.521) scale(.08 -.08)">
<defs>
<path id="q" d="m34.188 63.188-13.391-36.281h26.812zm-5.5781 9.7188h11.188l27.781-72.906h-10.25l-6.6406 18.703h-32.859l-6.6406-18.703h-10.406z"/>
</defs>
<use xlink:href="#q"/>
</g>
</g>
<path d="m105.08 604.36 0.1267-5.0772q0.059871-2.3993-2.3394-2.4591l-7.7401-0.19315q-2.3993-0.059871-2.4591 2.3394l-0.1267 5.0772q-0.059871 2.3993 2.3394 2.4591l7.7401 0.19315q2.3993 0.059871 2.4591-2.3394z" clip-path="url(#a)" fill="#fff" stroke="#fff"/>
<g clip-path="url(#a)">
<g transform="translate(101.02 604.26) rotate(-88.571) scale(.08 -.08)">
<defs>
<path id="ao" d="m53.516 70.516v-9.625q-5.6094 2.6875-10.594 4-4.9844 1.3281-9.625 1.3281-8.0469 0-12.422-3.125t-4.375-8.8906q0-4.8438 2.9062-7.3125 2.9062-2.4531 11.016-3.9688l5.9531-1.2188q11.031-2.1094 16.281-7.4062t5.25-14.172q0-10.609-7.1094-16.078-7.0938-5.4688-20.812-5.4688-5.1719 0-11.016 1.1719-5.8281 1.1719-12.078 3.4688v10.156q6-3.3594 11.766-5.0781 5.7656-1.7031 11.328-1.7031 8.4375 0 13.031 3.3125 4.5938 3.3281 4.5938 9.4844 0 5.3594-3.2969 8.3906t-10.812 4.5469l-6.0156 1.1719q-11.031 2.1875-15.969 6.875-4.9219 4.6875-4.9219 13.047 0 9.6719 6.8125 15.234t18.766 5.5625q5.1406 0 10.453-0.9375 5.3281-0.92188 10.891-2.7656z"/>
</defs>
<use xlink:href="#ao"/>
</g>
</g>
<path d="m109.65 604.11 0.002489-4.8862q0.001222-2.4-2.3988-2.4012l-7.7425-0.003943q-2.4-0.001222-2.4012 2.3988l-0.002488 4.8862q-0.001222 2.4 2.3988 2.4012l7.7425 0.003943q2.4 0.001222 2.4012-2.3988z" clip-path="url(#a)" fill="#fff" stroke="#fff"/>
<g clip-path="url(#a)">
<g transform="translate(105.58 604.11) rotate(-89.971) scale(.08 -.08)">
<defs>
<path id="l" d="m-0.29688 72.906h61.672v-8.3125h-25.875v-64.594h-9.9062v64.594h-25.891z"/>
</defs>
<use xlink:href="#l"/>
</g>
</g>
<path d="m109.56 507.9 0.74355 5.4218q0.32609 2.3777 2.7038 2.0517l7.6707-1.052q2.3777-0.32609 2.0517-2.7038l-0.74355-5.4218q-0.32609-2.3777-2.7038-2.0517l-7.6707 1.052q-2.3777 0.32609-2.0517 2.7038z" clip-path="url(#a)" fill="#fff" stroke="#fff"/>
<g clip-path="url(#a)">
<g transform="translate(113.58 507.34) rotate(82.191) scale(.08 -.08)">
<use xlink:href="#q"/>
</g>
</g>
<path d="m155.58 859.72v33.808q0 2.4 2.4 2.4h7.7425q2.4 0 2.4-2.4v-33.808q0-2.4-2.4-2.4h-7.7425q-2.4 0-2.4 2.4z" clip-path="url(#a)" fill="#fff" stroke="#fff"/>
<g clip-path="url(#a)">
<g transform="translate(159.64 859.72) rotate(90) scale(.08 -.08)">
<defs>
<path id="e" d="m56.203 29.594v-4.3906h-41.312q0.59375-9.2812 5.5938-14.141t13.938-4.8594q5.1719 0 10.031 1.2656t9.6562 3.8125v-8.5q-4.8438-2.0469-9.9219-3.125t-10.297-1.0781q-13.094 0-20.734 7.6094-7.6406 7.625-7.6406 20.625 0 13.422 7.25 21.297 7.25 7.8906 19.562 7.8906 11.031 0 17.453-7.1094 6.4219-7.0938 6.4219-19.297zm-8.9844 2.6406q-0.09375 7.3594-4.125 11.75-4.0312 4.4062-10.672 4.4062-7.5156 0-12.031-4.25t-5.2031-11.969z"/>
<path id="i" d="m41.109 46.297q-1.5156 0.875-3.2969 1.2812-1.7812 0.42188-3.9219 0.42188-7.625 0-11.703-4.9531t-4.0781-14.234v-28.812h-9.0312v54.688h9.0312v-8.5q2.8438 4.9844 7.375 7.3906 4.5469 2.4219 11.047 2.4219 0.92188 0 2.0469-0.125 1.125-0.10938 2.4844-0.35938z"/>
<path id="j" d="m52 44.188q3.375 6.0625 8.0625 8.9375t11.031 2.875q8.5469 0 13.188-5.9844 4.6406-5.9688 4.6406-17v-33.016h-9.0312v32.719q0 7.8594-2.7969 11.656-2.7812 3.8125-8.4844 3.8125-6.9844 0-11.047-4.6406-4.0469-4.625-4.0469-12.641v-30.906h-9.0312v32.719q0 7.9062-2.7812 11.688t-8.5938 3.7812q-6.8906 0-10.953-4.6562-4.0469-4.6562-4.0469-12.625v-30.906h-9.0312v54.688h9.0312v-8.5q3.0781 5.0312 7.375 7.4219t10.203 2.3906q5.9688 0 10.141-3.0312 4.1719-3.0156 6.1719-8.7812z"/>
<path id="h" d="m9.4219 54.688h8.9844v-54.688h-8.9844zm0 21.297h8.9844v-11.391h-8.9844z"/>
<path id="g" d="m54.891 33.016v-33.016h-8.9844v32.719q0 7.7656-3.0312 11.609-3.0312 3.8594-9.0781 3.8594-7.2812 0-11.484-4.6406-4.2031-4.625-4.2031-12.641v-30.906h-9.0312v54.688h9.0312v-8.5q3.2344 4.9375 7.5938 7.375 4.375 2.4375 10.094 2.4375 9.4219 0 14.25-5.8281 4.8438-5.8281 4.8438-17.156z"/>
<path id="f" d="m34.281 27.484q-10.891 0-15.094-2.4844t-4.2031-8.5q0-4.7812 3.1562-7.5938 3.1562-2.7969 8.5625-2.7969 7.4844 0 12 5.2969t4.5156 14.078v2zm17.922 3.7188v-31.203h-8.9844v8.2969q-3.0781-4.9688-7.6719-7.3438t-11.234-2.375q-8.3906 0-13.359 4.7188-4.9531 4.7188-4.9531 12.625 0 9.2188 6.1719 13.906 6.1875 4.6875 18.438 4.6875h12.609v0.89062q0 6.2031-4.0781 9.5938t-11.453 3.3906q-4.6875 0-9.1406-1.125-4.4375-1.125-8.5312-3.375v8.3125q4.9219 1.9062 9.5625 2.8438 4.6406 0.95312 9.0312 0.95312 11.875 0 17.734-6.1562 5.8594-6.1406 5.8594-18.641z"/>
<path id="k" d="m9.4219 75.984h8.9844v-75.984h-8.9844z"/>
</defs>
<use xlink:href="#l"/>
<use x="44.083984" xlink:href="#e"/>
<use x="105.607422" xlink:href="#i"/>
<use x="144.970703" xlink:href="#j"/>
<use x="242.382812" xlink:href="#h"/>
<use x="270.166016" xlink:href="#g"/>
<use x="333.544922" xlink:href="#f"/>
<use x="394.824219" xlink:href="#k"/>
</g>
</g>
<path d="m221.22 605.48 0.97624-5.3847q0.42814-2.3615-1.9334-2.7896l-7.6183-1.3812q-2.3615-0.42814-2.7896 1.9334l-0.97624 5.3847q-0.42814 2.3615 1.9334 2.7896l7.6183 1.3812q2.3615 0.42814 2.7896-1.9334z" clip-path="url(#a)" fill="#fff" stroke="#fff"/>
<g clip-path="url(#a)">
<g transform="translate(217.22 604.75) rotate(-79.724) scale(.08 -.08)">
<use xlink:href="#q"/>
</g>
</g>
<path d="m232.76 604.7 0.54906-4.5684q0.28639-2.3829-2.0965-2.6692l-7.6872-0.9239q-2.3829-0.28639-2.6692 2.0965l-0.54906 4.5684q-0.28639 2.3829 2.0965 2.6692l7.6872 0.9239q2.3829 0.28639 2.6692-2.0965z" clip-path="url(#a)" fill="#fff" stroke="#fff"/>
<g clip-path="url(#a)">
<g transform="translate(228.72 604.21) rotate(-83.147) scale(.08 -.08)">
<defs>
<path id="s" d="m9.8125 72.906h41.891v-8.3125h-32.031v-21.484h28.906v-8.2969h-28.906v-34.812h-9.8594z"/>
</defs>
<use xlink:href="#s"/>
</g>
</g>
<path d="m246.71 507.63 0.2154 4.8189q0.10717 2.3976 2.5048 2.2904l7.7348-0.34573q2.3976-0.10717 2.2904-2.5048l-0.2154-4.8189q-0.10717-2.3976-2.5048-2.2904l-7.7348 0.34573q-2.3976 0.10717-2.2904 2.5048z" clip-path="url(#a)" fill="#fff" stroke="#fff"/>
<g clip-path="url(#a)">
<g transform="translate(250.77 507.44) rotate(87.441) scale(.08 -.08)">
<defs>
<path id="y" d="m19.672 64.797v-27.391h12.406q6.8906 0 10.641 3.5625 3.7656 3.5625 3.7656 10.156 0 6.5469-3.7656 10.109-3.75 3.5625-10.641 3.5625zm-9.8594 8.1094h22.266q12.266 0 18.531-5.5469 6.2812-5.5469 6.2812-16.234 0-10.797-6.2812-16.312-6.2656-5.5156-18.531-5.5156h-12.406v-29.297h-9.8594z"/>
</defs>
<use xlink:href="#y"/>
</g>
</g>
<path d="m293.58 510.41 2.6619 4.7815q1.1674 2.097 3.2643 0.92959l6.7649-3.766q2.097-1.1674 0.92959-3.2643l-2.6619-4.7815q-1.1674-2.097-3.2643-0.92959l-6.7649 3.766q-2.097 1.1674-0.92959 3.2643z" clip-path="url(#a)" fill="#fff" stroke="#fff"/>
<g clip-path="url(#a)">
<g transform="translate(297.13 508.44) rotate(60.895) scale(.08 -.08)">
<use xlink:href="#q"/>
</g>
</g>
<path d="m459.69 859.72v33.808q0 2.4 2.4 2.4h7.7425q2.4 0 2.4-2.4v-33.808q0-2.4-2.4-2.4h-7.7425q-2.4 0-2.4 2.4z" clip-path="url(#a)" fill="#fff" stroke="#fff"/>
<g clip-path="url(#a)">
<g transform="translate(463.75 859.72) rotate(90) scale(.08 -.08)">
<use xlink:href="#l"/>
<use x="44.083984" xlink:href="#e"/>
<use x="105.607422" xlink:href="#i"/>
<use x="144.970703" xlink:href="#j"/>
<use x="242.382812" xlink:href="#h"/>
<use x="270.166016" xlink:href="#g"/>
<use x="333.544922" xlink:href="#f"/>
<use x="394.824219" xlink:href="#k"/>
</g>
</g>
<path d="m561.91 512.71 0.92357-5.394q0.40504-2.3656-1.9605-2.7706l-7.6314-1.3067q-2.3656-0.40504-2.7706 1.9605l-0.92357 5.394q-0.40504 2.3656 1.9605 2.7706l7.6314 1.3067q2.3656 0.40504 2.7706-1.9605z" clip-path="url(#a)" fill="#fff" stroke="#fff"/>
<g clip-path="url(#a)">
<g transform="translate(557.9 512.03) rotate(-80.284) scale(.08 -.08)">
<use xlink:href="#q"/>
</g>
</g>
<path d="m584.76 511.81 0.412-4.5828q0.2149-2.3904-2.1755-2.6053l-7.7114-0.69328q-2.3904-0.2149-2.6053 2.1755l-0.412 4.5828q-0.2149 2.3904 2.1755 2.6053l7.7114 0.69328q2.3904 0.2149 2.6053-2.1755z" clip-path="url(#a)" fill="#fff" stroke="#fff"/>
<g clip-path="url(#a)">
<g transform="translate(580.71 511.45) rotate(-84.863) scale(.08 -.08)">
<use xlink:href="#s"/>
</g>
</g>
<path d="m608.63 511.4 0.021792-4.8237q0.010843-2.4-2.3891-2.4108l-7.7424-0.034978q-2.4-0.010843-2.4108 2.3891l-0.021792 4.8237q-0.010842 2.4 2.3891 2.4108l7.7424 0.034979q2.4 0.010842 2.4108-2.3891z" clip-path="url(#a)" fill="#fff" stroke="#fff"/>
<g clip-path="url(#a)">
<g transform="translate(604.57 511.38) rotate(-89.741) scale(.08 -.08)">
<use xlink:href="#y"/>
</g>
</g>
<path d="m670.59 326.41 3.4023 4.2864q1.4921 1.8798 3.3719 0.38772l6.0643-4.8135q1.8798-1.4921 0.38772-3.3719l-3.4023-4.2864q-1.4921-1.8798-3.3719-0.38772l-6.0643 4.8135q-1.8798 1.4921-0.38772 3.3719z" clip-path="url(#a)" fill="#fff" stroke="#fff"/>
<g clip-path="url(#a)">
<g transform="translate(673.78 323.88) rotate(51.559) scale(.08 -.08)">
<use xlink:href="#q"/>
</g>
</g>
<path d="m989.06 859.72v33.808q0 2.4 2.4 2.4h7.7425q2.4 0 2.4-2.4v-33.808q0-2.4-2.4-2.4h-7.7425q-2.4 0-2.4 2.4z" clip-path="url(#a)" fill="#fff" stroke="#fff"/>
<g clip-path="url(#a)">
<g transform="translate(993.12 859.72) rotate(90) scale(.08 -.08)">
<use xlink:href="#l"/>
<use x="44.083984" xlink:href="#e"/>
<use x="105.607422" xlink:href="#i"/>
<use x="144.970703" xlink:href="#j"/>
<use x="242.382812" xlink:href="#h"/>
<use x="270.166016" xlink:href="#g"/>
<use x="333.544922" xlink:href="#f"/>
<use x="394.824219" xlink:href="#k"/>
</g>
</g>
<path d="m1161.2 513.59 1.7843-5.1734q0.78252-2.2688-1.4863-3.0514l-7.3194-2.5245q-2.2688-0.78252-3.0514 1.4863l-1.7843 5.1734q-0.78252 2.2688 1.4863 3.0514l7.3194 2.5245q2.2688 0.78252 3.0514-1.4863z" clip-path="url(#a)" fill="#fff" stroke="#fff"/>
<g clip-path="url(#a)">
<g transform="translate(1157.4 512.27) rotate(-70.971) scale(.08 -.08)">
<use xlink:href="#q"/>
</g>
</g>
<path d="m1195.6 512.57 1.0011-4.491q0.52219-2.3425-1.8203-2.8647l-7.557-1.6846q-2.3425-0.52219-2.8647 1.8203l-1.0011 4.491q-0.52219 2.3425 1.8203 2.8647l7.557 1.6846q2.3425 0.52219 2.8647-1.8203z" clip-path="url(#a)" fill="#fff" stroke="#fff"/>
<g clip-path="url(#a)">
<g transform="translate(1191.6 511.68) rotate(-77.433) scale(.08 -.08)">
<use xlink:href="#s"/>
</g>
</g>
<path d="m1230.9 511.96 0.46513-4.8013q0.23142-2.3888-2.1574-2.6202l-7.7064-0.74657q-2.3888-0.23142-2.6202 2.1574l-0.46513 4.8013q-0.23142 2.3888 2.1574 2.6202l7.7064 0.74657q2.3888 0.23142 2.6202-2.1574z" clip-path="url(#a)" fill="#fff" stroke="#fff"/>
<g clip-path="url(#a)">
<g transform="translate(1226.9 511.57) rotate(-84.467) scale(.08 -.08)">
<use xlink:href="#y"/>
</g>
</g>
<path d="m1430.6 329.02 4.8879 2.461q2.1436 1.0793 3.2229-1.0643l3.4819-6.9154q1.0793-2.1436-1.0643-3.2229l-4.8879-2.461q-2.1436-1.0793-3.2229 1.0643l-3.4819 6.9154q-1.0793 2.1436 1.0643 3.2229z" clip-path="url(#a)" fill="#fff" stroke="#fff"/>
<g clip-path="url(#a)">
<g transform="translate(1432.4 325.39) rotate(26.725) scale(.08 -.08)">
<use xlink:href="#q"/>
</g>
</g>
<path d="m1054.4 859.72v33.808q0 2.4 2.4 2.4h7.7425q2.4 0 2.4-2.4v-33.808q0-2.4-2.4-2.4h-7.7425q-2.4 0-2.4 2.4z" clip-path="url(#a)" fill="#fff" stroke="#fff"/>
<g clip-path="url(#a)">
<g transform="translate(1058.4 859.72) rotate(90) scale(.08 -.08)">
<use xlink:href="#l"/>
<use x="44.083984" xlink:href="#e"/>
<use x="105.607422" xlink:href="#i"/>
<use x="144.970703" xlink:href="#j"/>
<use x="242.382812" xlink:href="#h"/>
<use x="270.166016" xlink:href="#g"/>
<use x="333.544922" xlink:href="#f"/>
<use x="394.824219" xlink:href="#k"/>
</g>
</g>
<path d="m1122 859.72v33.808q0 2.4 2.4 2.4h7.7425q2.4 0 2.4-2.4v-33.808q0-2.4-2.4-2.4h-7.7425q-2.4 0-2.4 2.4z" clip-path="url(#a)" fill="#fff" stroke="#fff"/>
<g clip-path="url(#a)">
<g transform="translate(1126 859.72) rotate(90) scale(.08 -.08)">
<use xlink:href="#l"/>
<use x="44.083984" xlink:href="#e"/>
<use x="105.607422" xlink:href="#i"/>
<use x="144.970703" xlink:href="#j"/>
<use x="242.382812" xlink:href="#h"/>
<use x="270.166016" xlink:href="#g"/>
<use x="333.544922" xlink:href="#f"/>
<use x="394.824219" xlink:href="#k"/>
</g>
</g>
<path d="m1191.8 859.72v33.808q0 2.4 2.4 2.4h7.7425q2.4 0 2.4-2.4v-33.808q0-2.4-2.4-2.4h-7.7425q-2.4 0-2.4 2.4z" clip-path="url(#a)" fill="#fff" stroke="#fff"/>
<g clip-path="url(#a)">
<g transform="translate(1195.9 859.72) rotate(90) scale(.08 -.08)">
<use xlink:href="#l"/>
<use x="44.083984" xlink:href="#e"/>
<use x="105.607422" xlink:href="#i"/>
<use x="144.970703" xlink:href="#j"/>
<use x="242.382812" xlink:href="#h"/>
<use x="270.166016" xlink:href="#g"/>
<use x="333.544922" xlink:href="#f"/>
<use x="394.824219" xlink:href="#k"/>
</g>
</g>
<path d="m1483.5 516.72 5.2256-3.5144q1.9915-1.3394 0.65214-3.3309l-4.3209-6.4247q-1.3394-1.9915-3.3309-0.65214l-5.2256 3.5144q-1.9915 1.3394-0.65214 3.3309l4.3209 6.4247q1.3394 1.9915 3.3309 0.65214z" clip-path="url(#a)" fill="#fff" stroke="#fff"/>
<g clip-path="url(#a)">
<g transform="translate(1481.2 513.34) rotate(-33.922) scale(.08 -.08)">
<defs>
<path id="aj" d="m39.406 66.219q-10.75 0-17.078-8.0156-6.3125-8-6.3125-21.828 0-13.766 6.3125-21.781 6.3281-8 17.078-8 10.734 0 17.016 8 6.2812 8.0156 6.2812 21.781 0 13.828-6.2812 21.828-6.2812 8.0156-17.016 8.0156zm13.812-64.906 13-14.203h-11.922l-10.797 11.672q-1.6094-0.09375-2.4688-0.14062-0.84375-0.0625-1.625-0.0625-15.375 0-24.594 10.281-9.2031 10.281-9.2031 27.516 0 17.281 9.2031 27.562 9.2188 10.281 24.594 10.281 15.328 0 24.5-10.281 9.1875-10.281 9.1875-27.562 0-12.688-5.1094-21.734-5.0938-9.0312-14.766-13.328z"/>
</defs>
<use xlink:href="#aj"/>
</g>
</g>
<path d="m1565.1 606.25 1.7218-5.2854q0.74338-2.282-1.5386-3.0253l-7.3617-2.3982q-2.282-0.74337-3.0253 1.5386l-1.7218 5.2854q-0.74337 2.282 1.5386 3.0253l7.3617 2.3982q2.282 0.74337 3.0253-1.5386z" clip-path="url(#a)" fill="#fff" stroke="#fff"/>
<g clip-path="url(#a)">
<g transform="translate(1561.2 604.99) rotate(-71.956) scale(.08 -.08)">
<defs>
<path id="af" d="m44.391 34.188q3.1719-1.0781 6.1719-4.5938t6.0312-9.6719l10.016-19.922h-10.609l-9.3125 18.703q-3.625 7.3281-7.0156 9.7188t-9.25 2.3906h-10.75v-30.812h-9.8594v72.906h22.266q12.5 0 18.656-5.2344 6.1562-5.2188 6.1562-15.766 0-6.8906-3.2031-11.438-3.2031-4.5312-9.2969-6.2812zm-24.719 30.609v-25.875h12.406q7.125 0 10.766 3.2969t3.6406 9.6875-3.6406 9.6406-10.766 3.25z"/>
</defs>
<use xlink:href="#af"/>
</g>
</g>
<path d="m1635.6 599.64 0.66752 5.5462q0.28678 2.3828 2.6696 2.096l7.687-0.92518q2.3828-0.28678 2.096-2.6696l-0.66752-5.5462q-0.28678-2.3828-2.6696-2.096l-7.687 0.92518q-2.3828 0.28678-2.096 2.6696z" clip-path="url(#a)" fill="#fff" stroke="#fff"/>
<g clip-path="url(#a)">
<g transform="translate(1639.7 599.16) rotate(83.137) scale(.08 -.08)">
<defs>
<path id="w" d="m64.406 67.281v-10.391q-4.9844 4.6406-10.625 6.9219-5.6406 2.2969-11.984 2.2969-12.5 0-19.141-7.6406t-6.6406-22.094q0-14.406 6.6406-22.047t19.141-7.6406q6.3438 0 11.984 2.2969t10.625 6.9375v-10.312q-5.1719-3.5156-10.969-5.2812-5.7812-1.75-12.219-1.75-16.562 0-26.094 10.125-9.5156 10.141-9.5156 27.672 0 17.578 9.5156 27.703 9.5312 10.141 26.094 10.141 6.5312 0 12.312-1.7344 5.7969-1.7344 10.875-5.2031z"/>
</defs>
<use xlink:href="#w"/>
</g>
</g>
<path d="m1615 507.32 0.073597 5.0545q0.034942 2.3997 2.4347 2.3648l7.7417-0.11272q2.3997-0.034943 2.3648-2.4347l-0.073598-5.0545q-0.034942-2.3997-2.4347-2.3648l-7.7417 0.11273q-2.3997 0.034942-2.3648 2.4347z" clip-path="url(#a)" fill="#fff" stroke="#fff"/>
<g clip-path="url(#a)">
<g transform="translate(1619.1 507.26) rotate(89.166) scale(.08 -.08)">
<defs>
<path id="ap" d="m9.8125 72.906h46.094v-8.3125h-36.234v-21.578h34.719v-8.2969h-34.719v-26.422h37.109v-8.2969h-46.969z"/>
</defs>
<use xlink:href="#ap"/>
</g>
</g>
<path d="m1678.2 601.37 1.6809 4.7674q0.79804 2.2634 3.0615 1.4654l7.3019-2.5745q2.2634-0.79804 1.4654-3.0615l-1.6809-4.7674q-0.79804-2.2634-3.0615-1.4654l-7.3019 2.5745q-2.2634 0.79804-1.4654 3.0615z" clip-path="url(#a)" fill="#fff" stroke="#fff"/>
<g clip-path="url(#a)">
<g transform="translate(1682.1 600.02) rotate(70.578) scale(.08 -.08)">
<use xlink:href="#ap"/>
</g>
</g>
<path d="m1722 602.34 2.9786 5.0407q1.221 2.0662 3.2872 0.84525l6.6657-3.9389q2.0662-1.221 0.84525-3.2872l-2.9786-5.0407q-1.221-2.0662-3.2872-0.84525l-6.6657 3.9389q-2.0662 1.221-0.84525 3.2872z" clip-path="url(#a)" fill="#fff" stroke="#fff"/>
<g clip-path="url(#a)">
<g transform="translate(1725.5 600.27) rotate(59.42) scale(.08 -.08)">
<use xlink:href="#an"/>
</g>
</g>
<path d="m1312.6 698.56 1.74-4.2596q0.90756-2.2218-1.3142-3.1293l-7.1676-2.9278q-2.2218-0.90756-3.1293 1.3142l-1.74 4.2596q-0.90756 2.2218 1.3142 3.1293l7.1676 2.9278q2.2218 0.90756 3.1293-1.3142z" clip-path="url(#a)" fill="#fff" stroke="#fff"/>
<g clip-path="url(#a)">
<g transform="translate(1308.9 697.02) rotate(-67.781) scale(.08 -.08)">
<use xlink:href="#s"/>
</g>
</g>
<path d="m1351.1 697.23 0.025723-6.2974q0.009804-2.4-2.3902-2.4098l-7.7424-0.031626q-2.4-0.009804-2.4098 2.3902l-0.025724 6.2974q-0.009803 2.4 2.3902 2.4098l7.7424 0.031627q2.4 0.009803 2.4098-2.3902z" clip-path="url(#a)" fill="#fff" stroke="#fff"/>
<g clip-path="url(#a)">
<g transform="translate(1347.1 697.22) rotate(-89.766) scale(.08 -.08)">
<use xlink:href="#aj"/>
</g>
</g>
<path d="m1376.3 693.87 2.1305 5.164q0.91532 2.2186 3.1339 1.3033l7.1573-2.9529q2.2186-0.91532 1.3033-3.1339l-2.1305-5.164q-0.91532-2.2186-3.1339-1.3033l-7.1573 2.9529q-2.2186 0.91532-1.3033 3.1339z" clip-path="url(#a)" fill="#fff" stroke="#fff"/>
<g clip-path="url(#a)">
<g transform="translate(1380.1 692.32) rotate(67.581) scale(.08 -.08)">
<use xlink:href="#w"/>
</g>
</g>
<path d="m1493.7 859.72v33.808q0 2.4 2.4 2.4h7.7425q2.4 0 2.4-2.4v-33.808q0-2.4-2.4-2.4h-7.7425q-2.4 0-2.4 2.4z" clip-path="url(#a)" fill="#fff" stroke="#fff"/>
<g clip-path="url(#a)">
<g transform="translate(1497.7 859.72) rotate(90) scale(.08 -.08)">
<use xlink:href="#l"/>
<use x="44.083984" xlink:href="#e"/>
<use x="105.607422" xlink:href="#i"/>
<use x="144.970703" xlink:href="#j"/>
<use x="242.382812" xlink:href="#h"/>
<use x="270.166016" xlink:href="#g"/>
<use x="333.544922" xlink:href="#f"/>
<use x="394.824219" xlink:href="#k"/>
</g>
</g>
<path d="m1658.1 859.72v33.808q0 2.4 2.4 2.4h7.7425q2.4 0 2.4-2.4v-33.808q0-2.4-2.4-2.4h-7.7425q-2.4 0-2.4 2.4z" clip-path="url(#a)" fill="#fff" stroke="#fff"/>
<g clip-path="url(#a)">
<g transform="translate(1662.2 859.72) rotate(90) scale(.08 -.08)">
<use xlink:href="#l"/>
<use x="44.083984" xlink:href="#e"/>
<use x="105.607422" xlink:href="#i"/>
<use x="144.970703" xlink:href="#j"/>
<use x="242.382812" xlink:href="#h"/>
<use x="270.166016" xlink:href="#g"/>
<use x="333.544922" xlink:href="#f"/>
<use x="394.824219" xlink:href="#k"/>
</g>
</g>
<path d="m1636.8 692.78 1.2099 5.3371q0.53063 2.3406 2.8712 1.81l7.5509-1.7118q2.3406-0.53063 1.81-2.8712l-1.2099-5.3371q-0.53063-2.3406-2.8712-1.81l-7.5509 1.7118q-2.3406 0.53063-1.81 2.8712z" clip-path="url(#a)" fill="#fff" stroke="#fff"/>
<g clip-path="url(#a)">
<g transform="translate(1640.8 691.88) rotate(77.227) scale(.08 -.08)">
<use xlink:href="#q"/>
</g>
</g>
<path d="m1606.6 701.93 2.9287-12.918q0.53063-2.3406-1.81-2.8712l-7.802-1.7688q-2.3406-0.53063-2.8712 1.81l-2.9287 12.918q-0.53063 2.3406 1.81 2.8712l7.802 1.7688q2.3406 0.53063 2.8712-1.81z" clip-path="url(#a)" fill="#fff" stroke="#fff"/>
<g clip-path="url(#a)">
<g transform="translate(1602.5 700.99) rotate(-77.227) scale(.08 -.08)">
<defs>
<path id="aq" d="m21 76.422v-100h-8.2969v100z"/>
</defs>
<use xlink:href="#ao"/>
<use x="63.476562" xlink:href="#aq"/>
<use x="97.167969" xlink:href="#q"/>
</g>
</g>
<path d="m1743.7 859.72v33.808q0 2.4 2.4 2.4h7.7425q2.4 0 2.4-2.4v-33.808q0-2.4-2.4-2.4h-7.7425q-2.4 0-2.4 2.4z" clip-path="url(#a)" fill="#fff" stroke="#fff"/>
<g clip-path="url(#a)">
<g transform="translate(1747.8 859.72) rotate(90) scale(.08 -.08)">
<use xlink:href="#l"/>
<use x="44.083984" xlink:href="#e"/>
<use x="105.607422" xlink:href="#i"/>
<use x="144.970703" xlink:href="#j"/>
<use x="242.382812" xlink:href="#h"/>
<use x="270.166016" xlink:href="#g"/>
<use x="333.544922" xlink:href="#f"/>
<use x="394.824219" xlink:href="#k"/>
</g>
</g>
<path d="m1574.7 859.72v33.808q0 2.4 2.4 2.4h7.7425q2.4 0 2.4-2.4v-33.808q0-2.4-2.4-2.4h-7.7425q-2.4 0-2.4 2.4z" clip-path="url(#a)" fill="#fff" stroke="#fff"/>
<g clip-path="url(#a)">
<g transform="translate(1578.8 859.72) rotate(90) scale(.08 -.08)">
<use xlink:href="#l"/>
<use x="44.083984" xlink:href="#e"/>
<use x="105.607422" xlink:href="#i"/>
<use x="144.970703" xlink:href="#j"/>
<use x="242.382812" xlink:href="#h"/>
<use x="270.166016" xlink:href="#g"/>
<use x="333.544922" xlink:href="#f"/>
<use x="394.824219" xlink:href="#k"/>
</g>
</g>
<path d="m1263.9 859.72v33.808q0 2.4 2.4 2.4h7.7425q2.4 0 2.4-2.4v-33.808q0-2.4-2.4-2.4h-7.7425q-2.4 0-2.4 2.4z" clip-path="url(#a)" fill="#fff" stroke="#fff"/>
<g clip-path="url(#a)">
<g transform="translate(1267.9 859.72) rotate(90) scale(.08 -.08)">
<use xlink:href="#l"/>
<use x="44.083984" xlink:href="#e"/>
<use x="105.607422" xlink:href="#i"/>
<use x="144.970703" xlink:href="#j"/>
<use x="242.382812" xlink:href="#h"/>
<use x="270.166016" xlink:href="#g"/>
<use x="333.544922" xlink:href="#f"/>
<use x="394.824219" xlink:href="#k"/>
</g>
</g>
<path d="m1338.2 859.72v33.808q0 2.4 2.4 2.4h7.7425q2.4 0 2.4-2.4v-33.808q0-2.4-2.4-2.4h-7.7425q-2.4 0-2.4 2.4z" clip-path="url(#a)" fill="#fff" stroke="#fff"/>
<g clip-path="url(#a)">
<g transform="translate(1342.3 859.72) rotate(90) scale(.08 -.08)">
<use xlink:href="#l"/>
<use x="44.083984" xlink:href="#e"/>
<use x="105.607422" xlink:href="#i"/>
<use x="144.970703" xlink:href="#j"/>
<use x="242.382812" xlink:href="#h"/>
<use x="270.166016" xlink:href="#g"/>
<use x="333.544922" xlink:href="#f"/>
<use x="394.824219" xlink:href="#k"/>
</g>
</g>
<path d="m1414.8 859.72v33.808q0 2.4 2.4 2.4h7.7425q2.4 0 2.4-2.4v-33.808q0-2.4-2.4-2.4h-7.7425q-2.4 0-2.4 2.4z" clip-path="url(#a)" fill="#fff" stroke="#fff"/>
<g clip-path="url(#a)">
<g transform="translate(1418.9 859.72) rotate(90) scale(.08 -.08)">
<use xlink:href="#l"/>
<use x="44.083984" xlink:href="#e"/>
<use x="105.607422" xlink:href="#i"/>
<use x="144.970703" xlink:href="#j"/>
<use x="242.382812" xlink:href="#h"/>
<use x="270.166016" xlink:href="#g"/>
<use x="333.544922" xlink:href="#f"/>
<use x="394.824219" xlink:href="#k"/>
</g>
</g>
<path d="m502.49 859.72v33.808q0 2.4 2.4 2.4h7.7425q2.4 0 2.4-2.4v-33.808q0-2.4-2.4-2.4h-7.7425q-2.4 0-2.4 2.4z" clip-path="url(#a)" fill="#fff" stroke="#fff"/>
<g clip-path="url(#a)">
<g transform="translate(506.55 859.72) rotate(90) scale(.08 -.08)">
<use xlink:href="#l"/>
<use x="44.083984" xlink:href="#e"/>
<use x="105.607422" xlink:href="#i"/>
<use x="144.970703" xlink:href="#j"/>
<use x="242.382812" xlink:href="#h"/>
<use x="270.166016" xlink:href="#g"/>
<use x="333.544922" xlink:href="#f"/>
<use x="394.824219" xlink:href="#k"/>
</g>
</g>
<path d="m547.54 859.72v33.808q0 2.4 2.4 2.4h7.7425q2.4 0 2.4-2.4v-33.808q0-2.4-2.4-2.4h-7.7425q-2.4 0-2.4 2.4z" clip-path="url(#a)" fill="#fff" stroke="#fff"/>
<g clip-path="url(#a)">
<g transform="translate(551.6 859.72) rotate(90) scale(.08 -.08)">
<use xlink:href="#l"/>
<use x="44.083984" xlink:href="#e"/>
<use x="105.607422" xlink:href="#i"/>
<use x="144.970703" xlink:href="#j"/>
<use x="242.382812" xlink:href="#h"/>
<use x="270.166016" xlink:href="#g"/>
<use x="333.544922" xlink:href="#f"/>
<use x="394.824219" xlink:href="#k"/>
</g>
</g>
<path d="m594.85 859.72v33.808q0 2.4 2.4 2.4h7.7425q2.4 0 2.4-2.4v-33.808q0-2.4-2.4-2.4h-7.7425q-2.4 0-2.4 2.4z" clip-path="url(#a)" fill="#fff" stroke="#fff"/>
<g clip-path="url(#a)">
<g transform="translate(598.91 859.72) rotate(90) scale(.08 -.08)">
<use xlink:href="#l"/>
<use x="44.083984" xlink:href="#e"/>
<use x="105.607422" xlink:href="#i"/>
<use x="144.970703" xlink:href="#j"/>
<use x="242.382812" xlink:href="#h"/>
<use x="270.166016" xlink:href="#g"/>
<use x="333.544922" xlink:href="#f"/>
<use x="394.824219" xlink:href="#k"/>
</g>
</g>
<path d="m706.06 605.99 1.457-5.3644q0.62907-2.3161-1.687-2.9452l-7.4718-2.0294q-2.3161-0.62907-2.9452 1.687l-1.457 5.3644q-0.62907 2.3161 1.687 2.9452l7.4718 2.0294q2.3161 0.62907 2.9452-1.687z" clip-path="url(#a)" fill="#fff" stroke="#fff"/>
<g clip-path="url(#a)">
<g transform="translate(702.14 604.93) rotate(-74.805) scale(.08 -.08)">
<use xlink:href="#af"/>
</g>
</g>
<path d="m746.11 512.87 0.55172-4.7921q0.2745-2.3842-2.1097-2.6588l-7.6917-0.88556q-2.3842-0.2745-2.6588 2.1097l-0.55172 4.7921q-0.2745 2.3842 2.1097 2.6588l7.6917 0.88556q2.3842 0.2745 2.6588-2.1097z" clip-path="url(#a)" fill="#fff" stroke="#fff"/>
<g clip-path="url(#a)">
<g transform="translate(742.07 512.4) rotate(-83.432) scale(.08 -.08)">
<use xlink:href="#y"/>
</g>
</g>
<path d="m804.75 510.91 3.0047 4.5738q1.3177 2.0059 3.3236 0.68816l6.4711-4.2511q2.0059-1.3177 0.68816-3.3236l-3.0047-4.5738q-1.3177-2.0059-3.3236-0.68816l-6.4711 4.2511q-2.0059 1.3177-0.68816 3.3236z" clip-path="url(#a)" fill="#fff" stroke="#fff"/>
<g clip-path="url(#a)">
<g transform="translate(808.14 508.68) rotate(56.698) scale(.08 -.08)">
<use xlink:href="#q"/>
</g>
</g>
<path d="m644.4 859.72v33.808q0 2.4 2.4 2.4h7.7425q2.4 0 2.4-2.4v-33.808q0-2.4-2.4-2.4h-7.7425q-2.4 0-2.4 2.4z" clip-path="url(#a)" fill="#fff" stroke="#fff"/>
<g clip-path="url(#a)">
<g transform="translate(648.47 859.72) rotate(90) scale(.08 -.08)">
<use xlink:href="#l"/>
<use x="44.083984" xlink:href="#e"/>
<use x="105.607422" xlink:href="#i"/>
<use x="144.970703" xlink:href="#j"/>
<use x="242.382812" xlink:href="#h"/>
<use x="270.166016" xlink:href="#g"/>
<use x="333.544922" xlink:href="#f"/>
<use x="394.824219" xlink:href="#k"/>
</g>
</g>
<path d="m721.87 697.25 0.66943-4.5523q0.34917-2.3745-2.0253-2.7236l-7.6601-1.1264q-2.3745-0.34917-2.7236 2.0253l-0.66943 4.5523q-0.34917 2.3745 2.0253 2.7236l7.6601 1.1264q2.3745 0.34917 2.7236-2.0253z" clip-path="url(#a)" fill="#fff" stroke="#fff"/>
<g clip-path="url(#a)">
<g transform="translate(717.85 696.66) rotate(-81.634) scale(.08 -.08)">
<use xlink:href="#s"/>
</g>
</g>
<path d="m736.42 692.21 0.81273 5.5268q0.34917 2.3745 2.7236 2.0253l7.6601-1.1264q2.3745-0.34917 2.0253-2.7236l-0.81273-5.5268q-0.34917-2.3745-2.7236-2.0253l-7.6601 1.1264q-2.3745 0.34917-2.0253 2.7236z" clip-path="url(#a)" fill="#fff" stroke="#fff"/>
<g clip-path="url(#a)">
<g transform="translate(740.44 691.62) rotate(81.634) scale(.08 -.08)">
<use xlink:href="#w"/>
</g>
</g>
<path d="m847.64 698.63 1.7071-5.2901q0.73705-2.284-1.547-3.0211l-7.3683-2.3778q-2.284-0.73705-3.0211 1.547l-1.7071 5.2901q-0.73705 2.284 1.547 3.0211l7.3683 2.3778q2.284 0.73705 3.0211-1.547z" clip-path="url(#a)" fill="#fff" stroke="#fff"/>
<g clip-path="url(#a)">
<g transform="translate(843.77 697.38) rotate(-72.115) scale(.08 -.08)">
<use xlink:href="#af"/>
</g>
</g>
<path d="m878.07 696.39 0.018795-4.6012q0.009803-2.4-2.3902-2.4098l-7.7424-0.031626q-2.4-0.009804-2.4098 2.3902l-0.018795 4.6012q-0.009804 2.4 2.3902 2.4098l7.7424 0.031627q2.4 0.009803 2.4098-2.3902z" clip-path="url(#a)" fill="#fff" stroke="#fff"/>
<g clip-path="url(#a)">
<g transform="translate(874.01 696.37) rotate(-89.766) scale(.08 -.08)">
<use xlink:href="#s"/>
</g>
</g>
<path d="m894.12 689.87 4.0353 12.349q0.74549 2.2813 3.0268 1.5358l7.6043-2.485q2.2813-0.74549 1.5358-3.0268l-4.0353-12.349q-0.74549-2.2813-3.0268-1.5358l-7.6043 2.485q-2.2813 0.74549-1.5358 3.0268z" clip-path="url(#a)" fill="#fff" stroke="#fff"/>
<g clip-path="url(#a)">
<g transform="translate(898.19 688.54) rotate(71.903) scale(.08 -.08)">
<use xlink:href="#y"/>
<use x="60.302734" xlink:href="#aq"/>
<use x="93.994141" xlink:href="#q"/>
</g>
</g>
<path d="m806.59 859.72v33.808q0 2.4 2.4 2.4h7.7425q2.4 0 2.4-2.4v-33.808q0-2.4-2.4-2.4h-7.7425q-2.4 0-2.4 2.4z" clip-path="url(#a)" fill="#fff" stroke="#fff"/>
<g clip-path="url(#a)">
<g transform="translate(810.66 859.72) rotate(90) scale(.08 -.08)">
<use xlink:href="#l"/>
<use x="44.083984" xlink:href="#e"/>
<use x="105.607422" xlink:href="#i"/>
<use x="144.970703" xlink:href="#j"/>
<use x="242.382812" xlink:href="#h"/>
<use x="270.166016" xlink:href="#g"/>
<use x="333.544922" xlink:href="#f"/>
<use x="394.824219" xlink:href="#k"/>
</g>
</g>
<path d="m865.16 859.72v33.808q0 2.4 2.4 2.4h7.7425q2.4 0 2.4-2.4v-33.808q0-2.4-2.4-2.4h-7.7425q-2.4 0-2.4 2.4z" clip-path="url(#a)" fill="#fff" stroke="#fff"/>
<g clip-path="url(#a)">
<g transform="translate(869.23 859.72) rotate(90) scale(.08 -.08)">
<use xlink:href="#l"/>
<use x="44.083984" xlink:href="#e"/>
<use x="105.607422" xlink:href="#i"/>
<use x="144.970703" xlink:href="#j"/>
<use x="242.382812" xlink:href="#h"/>
<use x="270.166016" xlink:href="#g"/>
<use x="333.544922" xlink:href="#f"/>
<use x="394.824219" xlink:href="#k"/>
</g>
</g>
<path d="m925.98 859.72v33.808q0 2.4 2.4 2.4h7.7425q2.4 0 2.4-2.4v-33.808q0-2.4-2.4-2.4h-7.7425q-2.4 0-2.4 2.4z" clip-path="url(#a)" fill="#fff" stroke="#fff"/>
<g clip-path="url(#a)">
<g transform="translate(930.05 859.72) rotate(90) scale(.08 -.08)">
<use xlink:href="#l"/>
<use x="44.083984" xlink:href="#e"/>
<use x="105.607422" xlink:href="#i"/>
<use x="144.970703" xlink:href="#j"/>
<use x="242.382812" xlink:href="#h"/>
<use x="270.166016" xlink:href="#g"/>
<use x="333.544922" xlink:href="#f"/>
<use x="394.824219" xlink:href="#k"/>
</g>
</g>
<path d="m696.22 859.72v33.808q0 2.4 2.4 2.4h7.7425q2.4 0 2.4-2.4v-33.808q0-2.4-2.4-2.4h-7.7425q-2.4 0-2.4 2.4z" clip-path="url(#a)" fill="#fff" stroke="#fff"/>
<g clip-path="url(#a)">
<g transform="translate(700.28 859.72) rotate(90) scale(.08 -.08)">
<use xlink:href="#l"/>
<use x="44.083984" xlink:href="#e"/>
<use x="105.607422" xlink:href="#i"/>
<use x="144.970703" xlink:href="#j"/>
<use x="242.382812" xlink:href="#h"/>
<use x="270.166016" xlink:href="#g"/>
<use x="333.544922" xlink:href="#f"/>
<use x="394.824219" xlink:href="#k"/>
</g>
</g>
<path d="m750.28 859.72v33.808q0 2.4 2.4 2.4h7.7425q2.4 0 2.4-2.4v-33.808q0-2.4-2.4-2.4h-7.7425q-2.4 0-2.4 2.4z" clip-path="url(#a)" fill="#fff" stroke="#fff"/>
<g clip-path="url(#a)">
<g transform="translate(754.34 859.72) rotate(90) scale(.08 -.08)">
<use xlink:href="#l"/>
<use x="44.083984" xlink:href="#e"/>
<use x="105.607422" xlink:href="#i"/>
<use x="144.970703" xlink:href="#j"/>
<use x="242.382812" xlink:href="#h"/>
<use x="270.166016" xlink:href="#g"/>
<use x="333.544922" xlink:href="#f"/>
<use x="394.824219" xlink:href="#k"/>
</g>
</g>
<path d="m175.85 859.72v33.808q0 2.4 2.4 2.4h7.7425q2.4 0 2.4-2.4v-33.808q0-2.4-2.4-2.4h-7.7425q-2.4 0-2.4 2.4z" clip-path="url(#a)" fill="#fff" stroke="#fff"/>
<g clip-path="url(#a)">
<g transform="translate(179.92 859.72) rotate(90) scale(.08 -.08)">
<use xlink:href="#l"/>
<use x="44.083984" xlink:href="#e"/>
<use x="105.607422" xlink:href="#i"/>
<use x="144.970703" xlink:href="#j"/>
<use x="242.382812" xlink:href="#h"/>
<use x="270.166016" xlink:href="#g"/>
<use x="333.544922" xlink:href="#f"/>
<use x="394.824219" xlink:href="#k"/>
</g>
</g>
<path d="m198.38 859.72v33.808q0 2.4 2.4 2.4h7.7425q2.4 0 2.4-2.4v-33.808q0-2.4-2.4-2.4h-7.7425q-2.4 0-2.4 2.4z" clip-path="url(#a)" fill="#fff" stroke="#fff"/>
<g clip-path="url(#a)">
<g transform="translate(202.45 859.72) rotate(90) scale(.08 -.08)">
<use xlink:href="#l"/>
<use x="44.083984" xlink:href="#e"/>
<use x="105.607422" xlink:href="#i"/>
<use x="144.970703" xlink:href="#j"/>
<use x="242.382812" xlink:href="#h"/>
<use x="270.166016" xlink:href="#g"/>
<use x="333.544922" xlink:href="#f"/>
<use x="394.824219" xlink:href="#k"/>
</g>
</g>
<path d="m249.18 697.27 0.68761-4.5496q0.35866-2.373-2.0144-2.7317l-7.6556-1.157q-2.373-0.35866-2.7317 2.0144l-0.68761 4.5496q-0.35866 2.373 2.0144 2.7317l7.6556 1.157q2.373 0.35866 2.7317-2.0144z" clip-path="url(#a)" fill="#fff" stroke="#fff"/>
<g clip-path="url(#a)">
<g transform="translate(245.16 696.67) rotate(-81.405) scale(.08 -.08)">
<use xlink:href="#s"/>
</g>
</g>
<path d="m263.1 696.39 0.018795-4.6012q0.009803-2.4-2.3902-2.4098l-7.7424-0.031626q-2.4-0.009804-2.4098 2.3902l-0.018795 4.6012q-0.009804 2.4 2.3902 2.4098l7.7424 0.031627q2.4 0.009803 2.4098-2.3902z" clip-path="url(#a)" fill="#fff" stroke="#fff"/>
<g clip-path="url(#a)">
<g transform="translate(259.04 696.37) rotate(-89.766) scale(.08 -.08)">
<use xlink:href="#s"/>
</g>
</g>
<path d="m264.86 692.26 0.85685 5.5201q0.36813 2.3716 2.7397 2.0035l7.6509-1.1876q2.3716-0.36813 2.0035-2.7397l-0.85685-5.5201q-0.36813-2.3716-2.7397-2.0035l-7.6509 1.1876q-2.3716 0.36813-2.0035 2.7397z" clip-path="url(#a)" fill="#fff" stroke="#fff"/>
<g clip-path="url(#a)">
<g transform="translate(268.87 691.64) rotate(81.177) scale(.08 -.08)">
<use xlink:href="#w"/>
</g>
</g>
<path d="m340.21 697.95 1.0265-5.4631q0.44321-2.3587-1.9155-2.8019l-7.6093-1.4298q-2.3587-0.44321-2.8019 1.9155l-1.0265 5.4631q-0.44321 2.3587 1.9155 2.8019l7.6093 1.4298q2.3587 0.44321 2.8019-1.9155z" clip-path="url(#a)" fill="#fff" stroke="#fff"/>
<g clip-path="url(#a)">
<g transform="translate(336.21 697.2) rotate(-79.358) scale(.08 -.08)">
<use xlink:href="#af"/>
</g>
</g>
<path d="m357.71 696.39 0.018795-4.6012q0.009803-2.4-2.3902-2.4098l-7.7424-0.031626q-2.4-0.009804-2.4098 2.3902l-0.018795 4.6012q-0.009803 2.4 2.3902 2.4098l7.7424 0.031627q2.4 0.009803 2.4098-2.3902z" clip-path="url(#a)" fill="#fff" stroke="#fff"/>
<g clip-path="url(#a)">
<g transform="translate(353.65 696.37) rotate(-89.766) scale(.08 -.08)">
<use xlink:href="#s"/>
</g>
</g>
<path d="m362.79 692.5 1.0532 5.4861q0.4525 2.357 2.8095 1.9045l7.6036-1.4598q2.357-0.4525 1.9045-2.8095l-1.0532-5.4861q-0.4525-2.357-2.8095-1.9045l-7.6036 1.4598q-2.357 0.4525-1.9045 2.8095z" clip-path="url(#a)" fill="#fff" stroke="#fff"/>
<g clip-path="url(#a)">
<g transform="translate(366.78 691.73) rotate(79.132) scale(.08 -.08)">
<use xlink:href="#w"/>
</g>
</g>
<path d="m311.01 859.72v33.808q0 2.4 2.4 2.4h7.7425q2.4 0 2.4-2.4v-33.808q0-2.4-2.4-2.4h-7.7425q-2.4 0-2.4 2.4z" clip-path="url(#a)" fill="#fff" stroke="#fff"/>
<g clip-path="url(#a)">
<g transform="translate(315.08 859.72) rotate(90) scale(.08 -.08)">
<use xlink:href="#l"/>
<use x="44.083984" xlink:href="#e"/>
<use x="105.607422" xlink:href="#i"/>
<use x="144.970703" xlink:href="#j"/>
<use x="242.382812" xlink:href="#h"/>
<use x="270.166016" xlink:href="#g"/>
<use x="333.544922" xlink:href="#f"/>
<use x="394.824219" xlink:href="#k"/>
</g>
</g>
<path d="m344.8 859.72v33.808q0 2.4 2.4 2.4h7.7425q2.4 0 2.4-2.4v-33.808q0-2.4-2.4-2.4h-7.7425q-2.4 0-2.4 2.4z" clip-path="url(#a)" fill="#fff" stroke="#fff"/>
<g clip-path="url(#a)">
<g transform="translate(348.87 859.72) rotate(90) scale(.08 -.08)">
<use xlink:href="#l"/>
<use x="44.083984" xlink:href="#e"/>
<use x="105.607422" xlink:href="#i"/>
<use x="144.970703" xlink:href="#j"/>
<use x="242.382812" xlink:href="#h"/>
<use x="270.166016" xlink:href="#g"/>
<use x="333.544922" xlink:href="#f"/>
<use x="394.824219" xlink:href="#k"/>
</g>
</g>
<path d="m380.85 859.72v33.808q0 2.4 2.4 2.4h7.7425q2.4 0 2.4-2.4v-33.808q0-2.4-2.4-2.4h-7.7425q-2.4 0-2.4 2.4z" clip-path="url(#a)" fill="#fff" stroke="#fff"/>
<g clip-path="url(#a)">
<g transform="translate(384.91 859.72) rotate(90) scale(.08 -.08)">
<use xlink:href="#l"/>
<use x="44.083984" xlink:href="#e"/>
<use x="105.607422" xlink:href="#i"/>
<use x="144.970703" xlink:href="#j"/>
<use x="242.382812" xlink:href="#h"/>
<use x="270.166016" xlink:href="#g"/>
<use x="333.544922" xlink:href="#f"/>
<use x="394.824219" xlink:href="#k"/>
</g>
</g>
<path d="m223.16 859.72v33.808q0 2.4 2.4 2.4h7.7425q2.4 0 2.4-2.4v-33.808q0-2.4-2.4-2.4h-7.7425q-2.4 0-2.4 2.4z" clip-path="url(#a)" fill="#fff" stroke="#fff"/>
<g clip-path="url(#a)">
<g transform="translate(227.22 859.72) rotate(90) scale(.08 -.08)">
<use xlink:href="#l"/>
<use x="44.083984" xlink:href="#e"/>
<use x="105.607422" xlink:href="#i"/>
<use x="144.970703" xlink:href="#j"/>
<use x="242.382812" xlink:href="#h"/>
<use x="270.166016" xlink:href="#g"/>
<use x="333.544922" xlink:href="#f"/>
<use x="394.824219" xlink:href="#k"/>
</g>
</g>
<path d="m250.19 859.72v33.808q0 2.4 2.4 2.4h7.7425q2.4 0 2.4-2.4v-33.808q0-2.4-2.4-2.4h-7.7425q-2.4 0-2.4 2.4z" clip-path="url(#a)" fill="#fff" stroke="#fff"/>
<g clip-path="url(#a)">
<g transform="translate(254.26 859.72) rotate(90) scale(.08 -.08)">
<use xlink:href="#l"/>
<use x="44.083984" xlink:href="#e"/>
<use x="105.607422" xlink:href="#i"/>
<use x="144.970703" xlink:href="#j"/>
<use x="242.382812" xlink:href="#h"/>
<use x="270.166016" xlink:href="#g"/>
<use x="333.544922" xlink:href="#f"/>
<use x="394.824219" xlink:href="#k"/>
</g>
</g>
<path d="m279.48 859.72v33.808q0 2.4 2.4 2.4h7.7425q2.4 0 2.4-2.4v-33.808q0-2.4-2.4-2.4h-7.7425q-2.4 0-2.4 2.4z" clip-path="url(#a)" fill="#fff" stroke="#fff"/>
<g clip-path="url(#a)">
<g transform="translate(283.54 859.72) rotate(90) scale(.08 -.08)">
<use xlink:href="#l"/>
<use x="44.083984" xlink:href="#e"/>
<use x="105.607422" xlink:href="#i"/>
<use x="144.970703" xlink:href="#j"/>
<use x="242.382812" xlink:href="#h"/>
<use x="270.166016" xlink:href="#g"/>
<use x="333.544922" xlink:href="#f"/>
<use x="394.824219" xlink:href="#k"/>
</g>
</g>
<path d="m81.244 859.72v33.808q0 2.4 2.4 2.4h7.7425q2.4 0 2.4-2.4v-33.808q0-2.4-2.4-2.4h-7.7425q-2.4 0-2.4 2.4z" clip-path="url(#a)" fill="#fff" stroke="#fff"/>
<g clip-path="url(#a)">
<g transform="translate(85.308 859.72) rotate(90) scale(.08 -.08)">
<use xlink:href="#l"/>
<use x="44.083984" xlink:href="#e"/>
<use x="105.607422" xlink:href="#i"/>
<use x="144.970703" xlink:href="#j"/>
<use x="242.382812" xlink:href="#h"/>
<use x="270.166016" xlink:href="#g"/>
<use x="333.544922" xlink:href="#f"/>
<use x="394.824219" xlink:href="#k"/>
</g>
</g>
<path d="m88.002 859.72v33.808q0 2.4 2.4 2.4h7.7425q2.4 0 2.4-2.4v-33.808q0-2.4-2.4-2.4h-7.7425q-2.4 0-2.4 2.4z" clip-path="url(#a)" fill="#fff" stroke="#fff"/>
<g clip-path="url(#a)">
<g transform="translate(92.066 859.72) rotate(90) scale(.08 -.08)">
<use xlink:href="#l"/>
<use x="44.083984" xlink:href="#e"/>
<use x="105.607422" xlink:href="#i"/>
<use x="144.970703" xlink:href="#j"/>
<use x="242.382812" xlink:href="#h"/>
<use x="270.166016" xlink:href="#g"/>
<use x="333.544922" xlink:href="#f"/>
<use x="394.824219" xlink:href="#k"/>
</g>
</g>
<path d="m97.012 859.72v33.808q0 2.4 2.4 2.4h7.7425q2.4 0 2.4-2.4v-33.808q0-2.4-2.4-2.4h-7.7425q-2.4 0-2.4 2.4z" clip-path="url(#a)" fill="#fff" stroke="#fff"/>
<g clip-path="url(#a)">
<g transform="translate(101.08 859.72) rotate(90) scale(.08 -.08)">
<use xlink:href="#l"/>
<use x="44.083984" xlink:href="#e"/>
<use x="105.607422" xlink:href="#i"/>
<use x="144.970703" xlink:href="#j"/>
<use x="242.382812" xlink:href="#h"/>
<use x="270.166016" xlink:href="#g"/>
<use x="333.544922" xlink:href="#f"/>
<use x="394.824219" xlink:href="#k"/>
</g>
</g>
<path d="m127.75 696.84 0.35604-4.5875q0.18571-2.3928-2.2071-2.5785l-7.7193-0.5991q-2.3928-0.18571-2.5785 2.2071l-0.35604 4.5875q-0.18571 2.3928 2.2071 2.5785l7.7193 0.5991q2.3928 0.18571 2.5785-2.2071z" clip-path="url(#a)" fill="#fff" stroke="#fff"/>
<g clip-path="url(#a)">
<g transform="translate(123.7 696.52) rotate(-85.562) scale(.08 -.08)">
<use xlink:href="#s"/>
</g>
</g>
<path d="m134.7 697.23 0.025724-6.2974q0.009803-2.4-2.3902-2.4098l-7.7424-0.031626q-2.4-0.009804-2.4098 2.3902l-0.025724 6.2974q-0.009804 2.4 2.3902 2.4098l7.7424 0.031627q2.4 0.009803 2.4098-2.3902z" clip-path="url(#a)" fill="#fff" stroke="#fff"/>
<g clip-path="url(#a)">
<g transform="translate(130.63 697.22) rotate(-89.766) scale(.08 -.08)">
<use xlink:href="#aj"/>
</g>
</g>
<path d="m129.84 691.79 0.45486 5.5677q0.19542 2.392 2.5874 2.1966l7.7168-0.63043q2.392-0.19542 2.1966-2.5874l-0.45486-5.5677q-0.19542-2.392-2.5874-2.1966l-7.7168 0.63043q-2.392 0.19542-2.1966 2.5875z" clip-path="url(#a)" fill="#fff" stroke="#fff"/>
<g clip-path="url(#a)">
<g transform="translate(133.89 691.46) rotate(85.33) scale(.08 -.08)">
<use xlink:href="#w"/>
</g>
</g>
<path d="m108.28 859.72v33.808q0 2.4 2.4 2.4h7.7425q2.4 0 2.4-2.4v-33.808q0-2.4-2.4-2.4h-7.7425q-2.4 0-2.4 2.4z" clip-path="url(#a)" fill="#fff" stroke="#fff"/>
<g clip-path="url(#a)">
<g transform="translate(112.34 859.72) rotate(90) scale(.08 -.08)">
<use xlink:href="#l"/>
<use x="44.083984" xlink:href="#e"/>
<use x="105.607422" xlink:href="#i"/>
<use x="144.970703" xlink:href="#j"/>
<use x="242.382812" xlink:href="#h"/>
<use x="270.166016" xlink:href="#g"/>
<use x="333.544922" xlink:href="#f"/>
<use x="394.824219" xlink:href="#k"/>
</g>
</g>
<path d="m121.79 859.72v33.808q0 2.4 2.4 2.4h7.7425q2.4 0 2.4-2.4v-33.808q0-2.4-2.4-2.4h-7.7425q-2.4 0-2.4 2.4z" clip-path="url(#a)" fill="#fff" stroke="#fff"/>
<g clip-path="url(#a)">
<g transform="translate(125.86 859.72) rotate(90) scale(.08 -.08)">
<use xlink:href="#l"/>
<use x="44.083984" xlink:href="#e"/>
<use x="105.607422" xlink:href="#i"/>
<use x="144.970703" xlink:href="#j"/>
<use x="242.382812" xlink:href="#h"/>
<use x="270.166016" xlink:href="#g"/>
<use x="333.544922" xlink:href="#f"/>
<use x="394.824219" xlink:href="#k"/>
</g>
</g>
<path d="m137.56 859.72v33.808q0 2.4 2.4 2.4h7.7425q2.4 0 2.4-2.4v-33.808q0-2.4-2.4-2.4h-7.7425q-2.4 0-2.4 2.4z" clip-path="url(#a)" fill="#fff" stroke="#fff"/>
<g clip-path="url(#a)">
<g transform="translate(141.62 859.72) rotate(90) scale(.08 -.08)">
<use xlink:href="#l"/>
<use x="44.083984" xlink:href="#e"/>
<use x="105.607422" xlink:href="#i"/>
<use x="144.970703" xlink:href="#j"/>
<use x="242.382812" xlink:href="#h"/>
<use x="270.166016" xlink:href="#g"/>
<use x="333.544922" xlink:href="#f"/>
<use x="394.824219" xlink:href="#k"/>
</g>
</g>
<path d="m419.14 859.72v33.808q0 2.4 2.4 2.4h7.7425q2.4 0 2.4-2.4v-33.808q0-2.4-2.4-2.4h-7.7425q-2.4 0-2.4 2.4z" clip-path="url(#a)" fill="#fff" stroke="#fff"/>
<g clip-path="url(#a)">
<g transform="translate(423.2 859.72) rotate(90) scale(.08 -.08)">
<use xlink:href="#l"/>
<use x="44.083984" xlink:href="#e"/>
<use x="105.607422" xlink:href="#i"/>
<use x="144.970703" xlink:href="#j"/>
<use x="242.382812" xlink:href="#h"/>
<use x="270.166016" xlink:href="#g"/>
<use x="333.544922" xlink:href="#f"/>
<use x="394.824219" xlink:href="#k"/>
</g>
</g>
<path d="m1831.5 859.72v33.808q0 2.4 2.4 2.4h7.7425q2.4 0 2.4-2.4v-33.808q0-2.4-2.4-2.4h-7.7425q-2.4 0-2.4 2.4z" clip-path="url(#a)" fill="#fff" stroke="#fff"/>
<g clip-path="url(#a)">
<g transform="translate(1835.6 859.72) rotate(90) scale(.08 -.08)">
<use xlink:href="#l"/>
<use x="44.083984" xlink:href="#e"/>
<use x="105.607422" xlink:href="#i"/>
<use x="144.970703" xlink:href="#j"/>
<use x="242.382812" xlink:href="#h"/>
<use x="270.166016" xlink:href="#g"/>
<use x="333.544922" xlink:href="#f"/>
<use x="394.824219" xlink:href="#k"/>
</g>
</g>
<defs>
<path id="b" d="m0 8.6603c2.2967 0 4.4997-0.9125 6.1237-2.5365 1.624-1.624 2.5365-3.827 2.5365-6.1237s-0.9125-4.4997-2.5365-6.1237c-1.624-1.624-3.827-2.5365-6.1237-2.5365s-4.4997 0.9125-6.1237 2.5365c-1.624 1.624-2.5365 3.827-2.5365 6.1237s0.9125 4.4997 2.5365 6.1237c1.624 1.624 3.827 2.5365 6.1237 2.5365z"/>
</defs>
<g clip-path="url(#a)" fill="#ffffff" stroke="#ffffff">
<use x="87.515152" y="967.272727" xlink:href="#b"/>
<use x="94.273078" y="967.272727" xlink:href="#b"/>
<use x="103.283647" y="967.272727" xlink:href="#b"/>
<use x="114.546859" y="967.272727" xlink:href="#b"/>
<use x="128.062712" y="967.272727" xlink:href="#b"/>
<use x="143.831208" y="967.272727" xlink:href="#b"/>
<use x="161.852346" y="967.272727" xlink:href="#b"/>
<use x="182.126126" y="967.272727" xlink:href="#b"/>
<use x="204.652549" y="967.272727" xlink:href="#b"/>
<use x="229.431613" y="967.272727" xlink:href="#b"/>
<use x="256.46332" y="967.272727" xlink:href="#b"/>
<use x="285.74767" y="967.272727" xlink:href="#b"/>
<use x="317.284661" y="967.272727" xlink:href="#b"/>
<use x="351.074295" y="967.272727" xlink:href="#b"/>
<use x="387.116571" y="967.272727" xlink:href="#b"/>
<use x="425.411489" y="967.272727" xlink:href="#b"/>
<use x="465.95905" y="967.272727" xlink:href="#b"/>
<use x="508.759253" y="967.272727" xlink:href="#b"/>
<use x="553.812098" y="967.272727" xlink:href="#b"/>
<use x="601.117585" y="967.272727" xlink:href="#b"/>
<use x="650.675715" y="967.272727" xlink:href="#b"/>
<use x="702.486486" y="967.272727" xlink:href="#b"/>
<use x="756.549901" y="967.272727" xlink:href="#b"/>
<use x="812.865957" y="967.272727" xlink:href="#b"/>
<use x="871.434655" y="967.272727" xlink:href="#b"/>
<use x="932.255996" y="967.272727" xlink:href="#b"/>
<use x="995.329979" y="967.272727" xlink:href="#b"/>
<use x="1060.656605" y="967.272727" xlink:href="#b"/>
<use x="1128.235872" y="967.272727" xlink:href="#b"/>
<use x="1198.067782" y="967.272727" xlink:href="#b"/>
<use x="1270.152334" y="967.272727" xlink:href="#b"/>
<use x="1344.489528" y="967.272727" xlink:href="#b"/>
<use x="1421.079365" y="967.272727" xlink:href="#b"/>
<use x="1499.921844" y="967.272727" xlink:href="#b"/>
<use x="1581.016965" y="967.272727" xlink:href="#b"/>
<use x="1664.364728" y="967.272727" xlink:href="#b"/>
<use x="1749.965134" y="967.272727" xlink:href="#b"/>
<use x="1837.818182" y="967.272727" xlink:href="#b"/>
<use x="532.042422" y="46.060606" xlink:href="#b"/>
<use x="103.471367" y="417.361728" xlink:href="#b"/>
<use x="161.852346" y="785.971836" xlink:href="#b"/>
<use x="248.954513" y="417.361728" xlink:href="#b"/>
<use x="465.95905" y="785.971836" xlink:href="#b"/>
<use x="603.620521" y="231.945697" xlink:href="#b"/>
<use x="995.329979" y="785.971836" xlink:href="#b"/>
<use x="1251.740112" y="231.945697" xlink:href="#b"/>
<use x="1060.656605" y="785.971836" xlink:href="#b"/>
<use x="1128.235872" y="785.971836" xlink:href="#b"/>
<use x="1198.067782" y="785.971836" xlink:href="#b"/>
<use x="1620.000191" y="417.361728" xlink:href="#b"/>
<use x="1345.240409" y="602.14885" xlink:href="#b"/>
<use x="1499.921844" y="785.971836" xlink:href="#b"/>
<use x="1664.364728" y="785.971836" xlink:href="#b"/>
<use x="1622.690847" y="602.14885" xlink:href="#b"/>
<use x="1749.965134" y="785.971836" xlink:href="#b"/>
<use x="1581.016965" y="785.971836" xlink:href="#b"/>
<use x="1270.152334" y="785.971836" xlink:href="#b"/>
<use x="1344.489528" y="785.971836" xlink:href="#b"/>
<use x="1421.079365" y="785.971836" xlink:href="#b"/>
<use x="508.759253" y="785.971836" xlink:href="#b"/>
<use x="553.812098" y="785.971836" xlink:href="#b"/>
<use x="601.117585" y="785.971836" xlink:href="#b"/>
<use x="750.793148" y="417.361728" xlink:href="#b"/>
<use x="650.675715" y="785.971836" xlink:href="#b"/>
<use x="729.518194" y="602.14885" xlink:href="#b"/>
<use x="872.185536" y="602.14885" xlink:href="#b"/>
<use x="812.865957" y="785.971836" xlink:href="#b"/>
<use x="871.434655" y="785.971836" xlink:href="#b"/>
<use x="932.255996" y="785.971836" xlink:href="#b"/>
<use x="702.486486" y="785.971836" xlink:href="#b"/>
<use x="756.549901" y="785.971836" xlink:href="#b"/>
<use x="182.126126" y="785.971836" xlink:href="#b"/>
<use x="204.652549" y="785.971836" xlink:href="#b"/>
<use x="257.214201" y="602.14885" xlink:href="#b"/>
<use x="351.825176" y="602.14885" xlink:href="#b"/>
<use x="317.284661" y="785.971836" xlink:href="#b"/>
<use x="351.074295" y="785.971836" xlink:href="#b"/>
<use x="387.116571" y="785.971836" xlink:href="#b"/>
<use x="229.431613" y="785.971836" xlink:href="#b"/>
<use x="256.46332" y="785.971836" xlink:href="#b"/>
<use x="285.74767" y="785.971836" xlink:href="#b"/>
<use x="87.515152" y="785.971836" xlink:href="#b"/>
<use x="94.273078" y="785.971836" xlink:href="#b"/>
<use x="103.283647" y="785.971836" xlink:href="#b"/>
<use x="128.813593" y="602.14885" xlink:href="#b"/>
<use x="114.546859" y="785.971836" xlink:href="#b"/>
<use x="128.062712" y="785.971836" xlink:href="#b"/>
<use x="143.831208" y="785.971836" xlink:href="#b"/>
<use x="425.411489" y="785.971836" xlink:href="#b"/>
<use x="1837.818182" y="785.971836" xlink:href="#b"/>
</g>
<g clip-path="url(#a)">
<g transform="translate(84.08 970.03) scale(.1 -.1)">
<defs>
<path id="ag" d="m9.8125 72.906h9.8594v-72.906h-9.8594z"/>
<path id="p" d="m18.312 70.219v-15.531h18.5v-6.9844h-18.5v-29.688q0-6.6875 1.8281-8.5938t7.4531-1.9062h9.2188v-7.5156h-9.2188q-10.406 0-14.359 3.875-3.9531 3.8906-3.9531 14.141v29.688h-6.5938v6.9844h6.5938v15.531z"/>
</defs>
<use xlink:href="#ag"/>
<use x="29.492188" xlink:href="#p"/>
</g>
</g>
<g clip-path="url(#a)">
<g transform="translate(84.515 970.03) scale(.1 -.1)">
<defs>
<path id="ai" d="m4.2031 54.688h8.9844l11.234-42.672 11.172 42.672h10.594l11.234-42.672 11.188 42.672h8.9844l-14.312-54.688h-10.594l-11.766 44.828-11.812-44.828h-10.609z"/>
<path id="v" d="m44.281 53.078v-8.5q-3.7969 1.9531-7.9062 2.9219-4.0938 0.98438-8.5 0.98438-6.6875 0-10.031-2.0469t-3.3438-6.1562q0-3.125 2.3906-4.9062t9.625-3.3906l3.0781-0.6875q9.5625-2.0469 13.594-5.7812t4.0312-10.422q0-7.625-6.0312-12.078-6.0312-4.4375-16.578-4.4375-4.3906 0-9.1562 0.85938t-10.031 2.5625v9.2812q4.9844-2.5938 9.8125-3.8906 4.8281-1.2812 9.5781-1.2812 6.3438 0 9.75 2.1719 3.4219 2.1719 3.4219 6.125 0 3.6562-2.4688 5.6094-2.4531 1.9531-10.812 3.7656l-3.125 0.73438q-8.3438 1.75-12.062 5.3906-3.7031 3.6406-3.7031 9.9844 0 7.7188 5.4688 11.906 5.4688 4.2031 15.531 4.2031 4.9688 0 9.3594-0.73438 4.4062-0.71875 8.1094-2.1875z"/>
</defs>
<use xlink:href="#ai"/>
<use x="81.787109" xlink:href="#f"/>
<use x="143.066406" xlink:href="#v"/>
</g>
</g>
<g clip-path="url(#a)">
<g transform="translate(92.966 970.03) scale(.1 -.1)">
<defs>
<path id="x" d="m30.609 48.391q-7.2188 0-11.422-5.6406t-4.2031-15.453 4.1719-15.453q4.1875-5.6406 11.453-5.6406 7.1875 0 11.375 5.6562 4.2031 5.6719 4.2031 15.438 0 9.7188-4.2031 15.406-4.1875 5.6875-11.375 5.6875zm0 7.6094q11.719 0 18.406-7.625 6.7031-7.6094 6.7031-21.078 0-13.422-6.7031-21.078-6.6875-7.6406-18.406-7.6406-11.766 0-18.438 7.6406-6.6562 7.6562-6.6562 21.078 0 13.469 6.6562 21.078 6.6719 7.625 18.438 7.625z"/>
</defs>
<use xlink:href="#g"/>
<use x="63.378906" xlink:href="#x"/>
<use x="124.560547" xlink:href="#ai"/>
</g>
</g>
<g clip-path="url(#a)">
<g transform="translate(106.34 970.03) scale(.1 -.1)">
<defs>
<path id="r" d="m54.891 33.016v-33.016h-8.9844v32.719q0 7.7656-3.0312 11.609-3.0312 3.8594-9.0781 3.8594-7.2812 0-11.484-4.6406-4.2031-4.625-4.2031-12.641v-30.906h-9.0312v75.984h9.0312v-29.797q3.2344 4.9375 7.5938 7.375 4.375 2.4375 10.094 2.4375 9.4219 0 14.25-5.8281 4.8438-5.8281 4.8438-17.156z"/>
</defs>
<use xlink:href="#p"/>
<use x="39.208984" xlink:href="#r"/>
<use x="102.587891" xlink:href="#e"/>
</g>
</g>
<g clip-path="url(#a)">
<g transform="translate(112.13 970.03) scale(.1 -.1)">
<defs>
<path id="ar" d="m45.406 27.984q0 9.7656-4.0312 15.125-4.0156 5.375-11.297 5.375-7.2188 0-11.25-5.375-4.0312-5.3594-4.0312-15.125 0-9.7188 4.0312-15.094t11.25-5.375q7.2812 0 11.297 5.375 4.0312 5.375 4.0312 15.094zm8.9844-21.203q0-13.953-6.2031-20.766-6.1875-6.8125-18.984-6.8125-4.7344 0-8.9375 0.70312t-8.1562 2.1719v8.7344q3.9531-2.1406 7.8125-3.1562 3.8594-1.0312 7.8594-1.0312 8.8438 0 13.234 4.6094t4.3906 13.938v4.4531q-2.7812-4.8438-7.125-7.2344t-10.406-2.3906q-10.047 0-16.203 7.6562-6.1562 7.6719-6.1562 20.328 0 12.688 6.1562 20.344 6.1562 7.6719 16.203 7.6719 6.0625 0 10.406-2.3906t7.125-7.2188v8.2969h8.9844z"/>
</defs>
<use xlink:href="#e"/>
<use x="61.523438" xlink:href="#h"/>
<use x="89.306641" xlink:href="#ar"/>
<use x="152.783203" xlink:href="#r"/>
<use x="216.162109" xlink:href="#p"/>
<use x="255.371094" xlink:href="#r"/>
</g>
</g>
<g clip-path="url(#a)">
<g transform="translate(134.63 970.03) scale(.1 -.1)">
<defs>
<path id="u" d="m45.406 46.391v29.594h8.9844v-75.984h-8.9844v8.2031q-2.8281-4.875-7.1562-7.25-4.3125-2.375-10.375-2.375-9.9062 0-16.141 7.9062-6.2188 7.9219-6.2188 20.812t6.2188 20.797q6.2344 7.9062 16.141 7.9062 6.0625 0 10.375-2.375 4.3281-2.3594 7.1562-7.2344zm-30.609-19.094q0-9.9062 4.0781-15.547t11.203-5.6406 11.219 5.6406q4.1094 5.6406 4.1094 15.547t-4.1094 15.547q-4.0938 5.6406-11.219 5.6406t-11.203-5.6406-4.0781-15.547z"/>
<path id="ad" d="m32.172-5.0781q-3.7969-9.7656-7.4219-12.734-3.6094-2.9844-9.6562-2.9844h-7.1875v7.5156h5.2812q3.7031 0 5.75 1.7656 2.0625 1.75 4.5469 8.2969l1.6094 4.0938-22.109 53.812h9.5156l17.094-42.766 17.094 42.766h9.5156z"/>
</defs>
<use xlink:href="#u"/>
<use x="63.476562" xlink:href="#f"/>
<use x="124.755859" xlink:href="#ad"/>
</g>
</g>
<g clip-path="url(#a)">
<g transform="translate(148.86 970.03) scale(.1 -.1)">
<defs>
<path id="ae" d="m48.781 52.594v-8.4062q-3.8125 2.1094-7.6406 3.1562t-7.7344 1.0469q-8.75 0-13.594-5.5469-4.8281-5.5312-4.8281-15.547t4.8281-15.562q4.8438-5.5312 13.594-5.5312 3.9062 0 7.7344 1.0469t7.6406 3.1562v-8.3125q-3.7656-1.75-7.7969-2.625-4.0156-0.89062-8.5625-0.89062-12.359 0-19.641 7.7656-7.2656 7.7656-7.2656 20.953 0 13.375 7.3438 21.031 7.3594 7.6719 20.156 7.6719 4.1406 0 8.0938-0.85938 3.9531-0.84375 7.6719-2.5469z"/>
</defs>
<use xlink:href="#v"/>
<use x="52.099609" xlink:href="#h"/>
<use x="79.882812" xlink:href="#g"/>
<use x="143.261719" xlink:href="#ae"/>
<use x="198.242188" xlink:href="#e"/>
</g>
</g>
<g clip-path="url(#a)">
<g transform="translate(180.65 970.03) scale(.1 -.1)">
<use xlink:href="#ag"/>
</g>
</g>
<g clip-path="url(#a)">
<g transform="translate(195.25 970.03) scale(.1 -.1)">
<use xlink:href="#r"/>
<use x="63.378906" xlink:href="#f"/>
<use x="124.658203" xlink:href="#u"/>
</g>
</g>
<g clip-path="url(#a)">
<g transform="translate(220.02 970.03) scale(.1 -.1)">
<use xlink:href="#r"/>
<use x="63.378906" xlink:href="#f"/>
<use x="124.658203" xlink:href="#u"/>
</g>
</g>
<g clip-path="url(#a)">
<g transform="translate(248.63 970.03) scale(.1 -.1)">
<use xlink:href="#j"/>
<use x="97.412109" xlink:href="#ad"/>
</g>
</g>
<g clip-path="url(#a)">
<g transform="translate(264.42 970.03) scale(.1 -.1)">
<use xlink:href="#f"/>
<use x="61.279297" xlink:href="#ae"/>
<use x="116.259766" xlink:href="#ae"/>
<use x="171.240234" xlink:href="#h"/>
<use x="199.023438" xlink:href="#u"/>
<use x="262.5" xlink:href="#e"/>
<use x="324.023438" xlink:href="#g"/>
<use x="387.402344" xlink:href="#p"/>
</g>
</g>
<g clip-path="url(#a)">
<g transform="translate(312.73 970.03) scale(.1 -.1)">
<use xlink:href="#h"/>
<use x="27.783203" xlink:href="#g"/>
</g>
</g>
<g clip-path="url(#a)">
<g transform="translate(342.87 970.03) scale(.1 -.1)">
<use xlink:href="#p"/>
<use x="39.208984" xlink:href="#r"/>
<use x="102.587891" xlink:href="#e"/>
</g>
</g>
<g clip-path="url(#a)">
<g transform="translate(371.17 970.03) scale(.1 -.1)">
<use xlink:href="#u"/>
<use x="63.476562" xlink:href="#e"/>
<use x="125" xlink:href="#v"/>
<use x="177.099609" xlink:href="#e"/>
<use x="238.623047" xlink:href="#i"/>
<use x="279.736328" xlink:href="#p"/>
</g>
</g>
<g clip-path="url(#a)">
<g transform="translate(423.82 970.03) scale(.1 -.1)">
<defs>
<path id="at" d="m11.719 12.406h10.297v-8.4062l-8-15.625h-6.2969l4 15.625z"/>
</defs>
<use xlink:href="#at"/>
</g>
</g>
<g clip-path="url(#a)">
<g transform="translate(456.55 970.03) scale(.1 -.1)">
<use xlink:href="#f"/>
<use x="61.279297" xlink:href="#g"/>
<use x="124.658203" xlink:href="#u"/>
</g>
</g>
<g clip-path="url(#a)">
<g transform="translate(507.28 970.03) scale(.1 -.1)">
<use xlink:href="#ag"/>
</g>
</g>
<g clip-path="url(#a)">
<g transform="translate(544.41 970.03) scale(.1 -.1)">
<use xlink:href="#r"/>
<use x="63.378906" xlink:href="#f"/>
<use x="124.658203" xlink:href="#u"/>
</g>
</g>
<g clip-path="url(#a)">
<g transform="translate(581.28 970.03) scale(.1 -.1)">
<use xlink:href="#k"/>
<use x="27.783203" xlink:href="#h"/>
<use x="55.566406" xlink:href="#v"/>
<use x="107.666016" xlink:href="#p"/>
<use x="146.875" xlink:href="#e"/>
<use x="208.398438" xlink:href="#g"/>
<use x="271.777344" xlink:href="#e"/>
<use x="333.300781" xlink:href="#u"/>
</g>
</g>
<g clip-path="url(#a)">
<g transform="translate(645.66 970.03) scale(.1 -.1)">
<use xlink:href="#p"/>
<use x="39.208984" xlink:href="#x"/>
</g>
</g>
<g clip-path="url(#a)">
<g transform="translate(694.28 970.03) scale(.1 -.1)">
<use xlink:href="#p"/>
<use x="39.208984" xlink:href="#r"/>
<use x="102.587891" xlink:href="#e"/>
</g>
</g>
<g clip-path="url(#a)">
<g transform="translate(743.91 970.03) scale(.1 -.1)">
<use xlink:href="#v"/>
<use x="52.099609" xlink:href="#p"/>
<use x="91.308594" xlink:href="#x"/>
<use x="152.490234" xlink:href="#i"/>
<use x="193.603516" xlink:href="#ad"/>
</g>
</g>
<g clip-path="url(#a)">
<g transform="translate(808.05 970.03) scale(.1 -.1)">
<defs>
<path id="as" d="m37.109 75.984v-7.4844h-8.5938q-4.8281 0-6.7188-1.9531-1.875-1.9531-1.875-7.0312v-4.8281h14.797v-6.9844h-14.797v-47.703h-9.0312v47.703h-8.5938v6.9844h8.5938v3.8125q0 9.125 4.25 13.297 4.25 4.1875 13.469 4.1875z"/>
</defs>
<use xlink:href="#x"/>
<use x="61.181641" xlink:href="#as"/>
</g>
</g>
<g clip-path="url(#a)">
<g transform="translate(863.23 970.03) scale(.1 -.1)">
<use xlink:href="#p"/>
<use x="39.208984" xlink:href="#r"/>
<use x="102.587891" xlink:href="#e"/>
</g>
</g>
<g clip-path="url(#a)">
<g transform="translate(908.26 970.03) scale(.1 -.1)">
<use xlink:href="#j"/>
<use x="97.412109" xlink:href="#e"/>
<use x="158.935547" xlink:href="#i"/>
<use x="197.798828" xlink:href="#ae"/>
<use x="252.779297" xlink:href="#r"/>
<use x="316.158203" xlink:href="#f"/>
<use x="377.4375" xlink:href="#g"/>
<use x="440.816406" xlink:href="#p"/>
</g>
</g>
<g clip-path="url(#a)">
<g transform="translate(989.66 970.03) scale(.1 -.1)">
<use xlink:href="#f"/>
<use x="61.279297" xlink:href="#v"/>
</g>
</g>
<g clip-path="url(#a)">
<g transform="translate(1059.2 970.03) scale(.1 -.1)">
<use xlink:href="#ag"/>
</g>
</g>
<g clip-path="url(#a)">
<g transform="translate(1118.5 970.03) scale(.1 -.1)">
<use xlink:href="#ai"/>
<use x="81.787109" xlink:href="#f"/>
<use x="143.066406" xlink:href="#v"/>
</g>
</g>
<g clip-path="url(#a)">
<g transform="translate(1177.7 970.03) scale(.1 -.1)">
<defs>
<path id="av" d="m9.0781 75.984h9.0312v-44.875l26.812 23.578h11.469l-29-25.578 30.234-29.109h-11.719l-27.797 26.703v-26.703h-9.0312z"/>
</defs>
<use xlink:href="#u"/>
<use x="63.476562" xlink:href="#i"/>
<use x="104.589844" xlink:href="#h"/>
<use x="132.373047" xlink:href="#g"/>
<use x="195.751953" xlink:href="#av"/>
<use x="253.662109" xlink:href="#h"/>
<use x="281.445312" xlink:href="#g"/>
<use x="344.824219" xlink:href="#ar"/>
</g>
</g>
<g clip-path="url(#a)">
<g transform="translate(1261.9 970.03) scale(.1 -.1)">
<use xlink:href="#p"/>
<use x="39.208984" xlink:href="#r"/>
<use x="102.587891" xlink:href="#e"/>
</g>
</g>
<g clip-path="url(#a)">
<g transform="translate(1335.5 970.03) scale(.1 -.1)">
<use xlink:href="#k"/>
<use x="27.783203" xlink:href="#f"/>
<use x="89.0625" xlink:href="#v"/>
<use x="141.162109" xlink:href="#p"/>
</g>
</g>
<g clip-path="url(#a)">
<g transform="translate(1409.7 970.03) scale(.1 -.1)">
<defs>
<path id="am" d="m18.109 8.2031v-29h-9.0312v75.484h9.0312v-8.2969q2.8438 4.875 7.1562 7.2344 4.3281 2.375 10.328 2.375 9.9688 0 16.188-7.9062 6.2344-7.9062 6.2344-20.797t-6.2344-20.812q-6.2188-7.9062-16.188-7.9062-6 0-10.328 2.375-4.3125 2.375-7.1562 7.25zm30.578 19.094q0 9.9062-4.0781 15.547t-11.203 5.6406q-7.1406 0-11.219-5.6406t-4.0781-15.547 4.0781-15.547 11.219-5.6406q7.125 0 11.203 5.6406t4.0781 15.547z"/>
</defs>
<use xlink:href="#u"/>
<use x="63.476562" xlink:href="#i"/>
<use x="102.339844" xlink:href="#x"/>
<use x="163.521484" xlink:href="#am"/>
</g>
</g>
<g clip-path="url(#a)">
<g transform="translate(1495.1 970.03) scale(.1 -.1)">
<use xlink:href="#x"/>
<use x="61.181641" xlink:href="#as"/>
</g>
</g>
<g clip-path="url(#a)">
<g transform="translate(1573.2 970.03) scale(.1 -.1)">
<use xlink:href="#j"/>
<use x="97.412109" xlink:href="#ad"/>
</g>
</g>
<g clip-path="url(#a)">
<g transform="translate(1650.1 970.03) scale(.1 -.1)">
<use xlink:href="#ai"/>
<use x="81.787109" xlink:href="#f"/>
<use x="143.066406" xlink:href="#p"/>
<use x="182.275391" xlink:href="#e"/>
<use x="243.798828" xlink:href="#i"/>
</g>
</g>
<g clip-path="url(#a)">
<g transform="translate(1733.5 970.03) scale(.1 -.1)">
<defs>
<path id="au" d="m8.5 21.578v33.109h8.9844v-32.766q0-7.7656 3.0156-11.656 3.0312-3.875 9.0938-3.875 7.2656 0 11.484 4.6406 4.2344 4.6406 4.2344 12.656v31h8.9844v-54.688h-8.9844v8.4062q-3.2656-4.9844-7.5938-7.4062-4.3125-2.4219-10.031-2.4219-9.4219 0-14.312 5.8594-4.875 5.8594-4.875 17.141z"/>
</defs>
<use xlink:href="#v"/>
<use x="52.099609" xlink:href="#au"/>
<use x="115.478516" xlink:href="#am"/>
<use x="178.955078" xlink:href="#am"/>
<use x="242.431641" xlink:href="#k"/>
<use x="270.214844" xlink:href="#ad"/>
</g>
</g>
<g clip-path="url(#a)">
<g transform="translate(1836.2 970.03) scale(.1 -.1)">
<defs>
<path id="d" d="m10.688 12.406h10.312v-12.406h-10.312z"/>
</defs>
<use xlink:href="#d"/>
</g>
</g>
<g clip-path="url(#a)">
<g transform="translate(524.09 48.82) scale(.1 -.1)">
<defs>
<path id="c" d="m12.406 8.2969h16.109v55.625l-17.531-3.5156v8.9844l17.438 3.5156h9.8594v-64.609h16.109v-8.2969h-41.984z"/>
</defs>
<use xlink:href="#c"/>
<use x="63.623047" xlink:href="#d"/>
<use x="95.410156" xlink:href="#c"/>
</g>
</g>
<g clip-path="url(#a)">
<g transform="translate(95.52 420.12) scale(.1 -.1)">
<defs>
<path id="o" d="m19.188 8.2969h34.422v-8.2969h-46.281v8.2969q5.6094 5.8125 15.297 15.594 9.7031 9.7969 12.188 12.641 4.7344 5.3125 6.6094 9 1.8906 3.6875 1.8906 7.25 0 5.8125-4.0781 9.4688-4.0781 3.6719-10.625 3.6719-4.6406 0-9.7969-1.6094-5.1406-1.6094-11-4.8906v9.9688q5.9531 2.3906 11.125 3.6094 5.1875 1.2188 9.4844 1.2188 11.328 0 18.062-5.6719 6.7344-5.6562 6.7344-15.125 0-4.5-1.6875-8.5312-1.6719-4.0156-6.125-9.4844-1.2188-1.4219-7.7656-8.1875-6.5312-6.7656-18.453-18.922z"/>
</defs>
<use xlink:href="#c"/>
<use x="63.623047" xlink:href="#d"/>
<use x="95.410156" xlink:href="#o"/>
</g>
</g>
<g clip-path="url(#a)">
<g transform="translate(153.9 788.73) scale(.1 -.1)">
<defs>
<path id="n" d="m40.578 39.312q7.0781-1.5156 11.047-6.3125 3.9844-4.7812 3.9844-11.812 0-10.781-7.4219-16.703-7.4219-5.9062-21.094-5.9062-4.5781 0-9.4375 0.90625t-10.031 2.7188v9.5156q4.0938-2.3906 8.9688-3.6094 4.8906-1.2188 10.219-1.2188 9.2656 0 14.125 3.6562t4.8594 10.641q0 6.4531-4.5156 10.078-4.5156 3.6406-12.562 3.6406h-8.5v8.1094h8.8906q7.2656 0 11.125 2.9062t3.8594 8.375q0 5.6094-3.9844 8.6094-3.9688 3.0156-11.391 3.0156-4.0625 0-8.7031-0.89062-4.6406-0.875-10.203-2.7188v8.7812q5.625 1.5625 10.531 2.3438t9.25 0.78125q11.234 0 17.766-5.1094 6.5469-5.0938 6.5469-13.781 0-6.0625-3.4688-10.234t-9.8594-5.7812z"/>
</defs>
<use xlink:href="#c"/>
<use x="63.623047" xlink:href="#d"/>
<use x="95.410156" xlink:href="#n"/>
</g>
</g>
<g clip-path="url(#a)">
<g transform="translate(241 420.12) scale(.1 -.1)">
<defs>
<path id="m" d="m37.797 64.312-24.906-38.922h24.906zm-2.5938 8.5938h12.406v-47.516h10.406v-8.2031h-10.406v-17.188h-9.8125v17.188h-32.906v9.5156z"/>
</defs>
<use xlink:href="#c"/>
<use x="63.623047" xlink:href="#d"/>
<use x="95.410156" xlink:href="#m"/>
</g>
</g>
<g clip-path="url(#a)">
<g transform="translate(458.01 788.73) scale(.1 -.1)">
<defs>
<path id="t" d="m10.797 72.906h38.719v-8.3125h-29.688v-17.859q2.1406 0.73438 4.2812 1.0938 2.1562 0.35938 4.3125 0.35938 12.203 0 19.328-6.6875 7.1406-6.6875 7.1406-18.109 0-11.766-7.3281-18.297-7.3281-6.5156-20.656-6.5156-4.5938 0-9.3594 0.78125-4.75 0.78125-9.8281 2.3438v9.9219q4.3906-2.3906 9.0781-3.5625t9.9062-1.1719q8.4531 0 13.375 4.4375 4.9375 4.4375 4.9375 12.062 0 7.6094-4.9375 12.047-4.9219 4.4531-13.375 4.4531-3.9531 0-7.8906-0.875-3.9219-0.875-8.0156-2.7344z"/>
</defs>
<use xlink:href="#c"/>
<use x="63.623047" xlink:href="#d"/>
<use x="95.410156" xlink:href="#t"/>
</g>
</g>
<g clip-path="url(#a)">
<g transform="translate(595.67 234.71) scale(.1 -.1)">
<defs>
<path id="ab" d="m33.016 40.375q-6.6406 0-10.531-4.5469-3.875-4.5312-3.875-12.438 0-7.8594 3.875-12.438 3.8906-4.5625 10.531-4.5625t10.516 4.5625q3.875 4.5781 3.875 12.438 0 7.9062-3.875 12.438-3.875 4.5469-10.516 4.5469zm19.578 30.922v-8.9844q-3.7188 1.75-7.5 2.6719-3.7812 0.9375-7.5 0.9375-9.7656 0-14.922-6.5938-5.1406-6.5938-5.875-19.922 2.875 4.25 7.2188 6.5156 4.3594 2.2656 9.5781 2.2656 10.984 0 17.359-6.6719 6.375-6.6562 6.375-18.125 0-11.234-6.6406-18.031-6.6406-6.7812-17.672-6.7812-12.656 0-19.344 9.6875-6.6875 9.7031-6.6875 28.109 0 17.281 8.2031 27.562t22.016 10.281q3.7188 0 7.5-0.73438t7.8906-2.1875z"/>
</defs>
<use xlink:href="#c"/>
<use x="63.623047" xlink:href="#d"/>
<use x="95.410156" xlink:href="#ab"/>
</g>
</g>
<g clip-path="url(#a)">
<g transform="translate(987.38 788.73) scale(.1 -.1)">
<defs>
<path id="aa" d="m8.2031 72.906h46.875v-4.2031l-26.469-68.703h-10.297l24.906 64.594h-35.016z"/>
</defs>
<use xlink:href="#c"/>
<use x="63.623047" xlink:href="#d"/>
<use x="95.410156" xlink:href="#aa"/>
</g>
</g>
<g clip-path="url(#a)">
<g transform="translate(1243.8 234.71) scale(.1 -.1)">
<defs>
<path id="z" d="m31.781 34.625q-7.0312 0-11.062-3.7656-4.0156-3.7656-4.0156-10.344 0-6.5938 4.0156-10.359 4.0312-3.7656 11.062-3.7656t11.078 3.7812q4.0625 3.7969 4.0625 10.344 0 6.5781-4.0312 10.344-4.0156 3.7656-11.109 3.7656zm-9.8594 4.1875q-6.3438 1.5625-9.8906 5.9062-3.5312 4.3594-3.5312 10.609 0 8.7344 6.2188 13.812 6.2344 5.0781 17.062 5.0781 10.891 0 17.094-5.0781t6.2031-13.812q0-6.25-3.5469-10.609-3.5312-4.3438-9.8281-5.9062 7.125-1.6562 11.094-6.5 3.9844-4.8281 3.9844-11.797 0-10.609-6.4688-16.281-6.4688-5.6562-18.531-5.6562-12.047 0-18.531 5.6562-6.4688 5.6719-6.4688 16.281 0 6.9688 4 11.797 4.0156 4.8438 11.141 6.5zm-3.6094 15.578q0-5.6562 3.5312-8.8281 3.5469-3.1719 9.9375-3.1719 6.3594 0 9.9375 3.1719 3.5938 3.1719 3.5938 8.8281 0 5.6719-3.5938 8.8438-3.5781 3.1719-9.9375 3.1719-6.3906 0-9.9375-3.1719-3.5312-3.1719-3.5312-8.8438z"/>
</defs>
<use xlink:href="#c"/>
<use x="63.623047" xlink:href="#d"/>
<use x="95.410156" xlink:href="#z"/>
</g>
</g>
<g clip-path="url(#a)">
<g transform="translate(1049.5 788.73) scale(.1 -.1)">
<defs>
<path id="ac" d="m31.781 66.406q-7.6094 0-11.453-7.5-3.8281-7.4844-3.8281-22.531 0-14.984 3.8281-22.484 3.8438-7.5 11.453-7.5 7.6719 0 11.5 7.5 3.8438 7.5 3.8438 22.484 0 15.047-3.8438 22.531-3.8281 7.5-11.5 7.5zm0 7.8125q12.266 0 18.734-9.7031 6.4688-9.6875 6.4688-28.141 0-18.406-6.4688-28.109-6.4688-9.6875-18.734-9.6875-12.25 0-18.719 9.6875-6.4688 9.7031-6.4688 28.109 0 18.453 6.4688 28.141 6.4688 9.7031 18.719 9.7031z"/>
</defs>
<use xlink:href="#c"/>
<use x="63.623047" xlink:href="#d"/>
<use x="95.410156" xlink:href="#c"/>
<use x="159.033203" xlink:href="#ac"/>
</g>
</g>
<g clip-path="url(#a)">
<g transform="translate(1117.1 788.73) scale(.1 -.1)">
<use xlink:href="#c"/>
<use x="63.623047" xlink:href="#d"/>
<use x="95.410156" xlink:href="#c"/>
<use x="159.033203" xlink:href="#c"/>
</g>
</g>
<g clip-path="url(#a)">
<g transform="translate(1186.9 788.73) scale(.1 -.1)">
<use xlink:href="#c"/>
<use x="63.623047" xlink:href="#d"/>
<use x="95.410156" xlink:href="#c"/>
<use x="159.033203" xlink:href="#o"/>
</g>
</g>
<g clip-path="url(#a)">
<g transform="translate(1608.9 420.12) scale(.1 -.1)">
<use xlink:href="#c"/>
<use x="63.623047" xlink:href="#d"/>
<use x="95.410156" xlink:href="#c"/>
<use x="159.033203" xlink:href="#n"/>
</g>
</g>
<g clip-path="url(#a)">
<g transform="translate(1334.1 604.91) scale(.1 -.1)">
<use xlink:href="#c"/>
<use x="63.623047" xlink:href="#d"/>
<use x="95.410156" xlink:href="#c"/>
<use x="159.033203" xlink:href="#m"/>
</g>
</g>
<g clip-path="url(#a)">
<g transform="translate(1488.8 788.73) scale(.1 -.1)">
<use xlink:href="#c"/>
<use x="63.623047" xlink:href="#d"/>
<use x="95.410156" xlink:href="#c"/>
<use x="159.033203" xlink:href="#t"/>
</g>
</g>
<g clip-path="url(#a)">
<g transform="translate(1653.2 788.73) scale(.1 -.1)">
<use xlink:href="#c"/>
<use x="63.623047" xlink:href="#d"/>
<use x="95.410156" xlink:href="#c"/>
<use x="159.033203" xlink:href="#ab"/>
</g>
</g>
<g clip-path="url(#a)">
<g transform="translate(1611.6 604.91) scale(.1 -.1)">
<use xlink:href="#c"/>
<use x="63.623047" xlink:href="#d"/>
<use x="95.410156" xlink:href="#c"/>
<use x="159.033203" xlink:href="#aa"/>
</g>
</g>
<g clip-path="url(#a)">
<g transform="translate(1738.8 788.73) scale(.1 -.1)">
<use xlink:href="#c"/>
<use x="63.623047" xlink:href="#d"/>
<use x="95.410156" xlink:href="#c"/>
<use x="159.033203" xlink:href="#z"/>
</g>
</g>
<g clip-path="url(#a)">
<g transform="translate(1569.9 788.73) scale(.1 -.1)">
<use xlink:href="#c"/>
<use x="63.623047" xlink:href="#d"/>
<use x="95.410156" xlink:href="#o"/>
<use x="159.033203" xlink:href="#ac"/>
</g>
</g>
<g clip-path="url(#a)">
<g transform="translate(1259 788.73) scale(.1 -.1)">
<use xlink:href="#c"/>
<use x="63.623047" xlink:href="#d"/>
<use x="95.410156" xlink:href="#o"/>
<use x="159.033203" xlink:href="#c"/>
</g>
</g>
<g clip-path="url(#a)">
<g transform="translate(1333.4 788.73) scale(.1 -.1)">
<use xlink:href="#c"/>
<use x="63.623047" xlink:href="#d"/>
<use x="95.410156" xlink:href="#o"/>
<use x="159.033203" xlink:href="#o"/>
</g>
</g>
<g clip-path="url(#a)">
<g transform="translate(1409.9 788.73) scale(.1 -.1)">
<use xlink:href="#c"/>
<use x="63.623047" xlink:href="#d"/>
<use x="95.410156" xlink:href="#o"/>
<use x="159.033203" xlink:href="#n"/>
</g>
</g>
<g clip-path="url(#a)">
<g transform="translate(497.63 788.73) scale(.1 -.1)">
<use xlink:href="#c"/>
<use x="63.623047" xlink:href="#d"/>
<use x="95.410156" xlink:href="#o"/>
<use x="159.033203" xlink:href="#m"/>
</g>
</g>
<g clip-path="url(#a)">
<g transform="translate(542.68 788.73) scale(.1 -.1)">
<use xlink:href="#c"/>
<use x="63.623047" xlink:href="#d"/>
<use x="95.410156" xlink:href="#o"/>
<use x="159.033203" xlink:href="#t"/>
</g>
</g>
<g clip-path="url(#a)">
<g transform="translate(589.98 788.73) scale(.1 -.1)">
<use xlink:href="#c"/>
<use x="63.623047" xlink:href="#d"/>
<use x="95.410156" xlink:href="#o"/>
<use x="159.033203" xlink:href="#ab"/>
</g>
</g>
<g clip-path="url(#a)">
<g transform="translate(739.66 420.12) scale(.1 -.1)">
<use xlink:href="#c"/>
<use x="63.623047" xlink:href="#d"/>
<use x="95.410156" xlink:href="#o"/>
<use x="159.033203" xlink:href="#aa"/>
</g>
</g>
<g clip-path="url(#a)">
<g transform="translate(639.54 788.73) scale(.1 -.1)">
<use xlink:href="#c"/>
<use x="63.623047" xlink:href="#d"/>
<use x="95.410156" xlink:href="#o"/>
<use x="159.033203" xlink:href="#z"/>
</g>
</g>
<g clip-path="url(#a)">
<g transform="translate(718.39 604.91) scale(.1 -.1)">
<defs>
<path id="al" d="m10.984 1.5156v8.9844q3.7188-1.7656 7.5156-2.6875 3.8125-0.92188 7.4844-0.92188 9.7656 0 14.906 6.5625 5.1562 6.5625 5.8906 19.953-2.8281-4.2031-7.1875-6.4531-4.3438-2.25-9.6094-2.25-10.938 0-17.312 6.6094-6.375 6.625-6.375 18.109 0 11.219 6.6406 18 6.6406 6.7969 17.672 6.7969 12.656 0 19.312-9.7031 6.6719-9.6875 6.6719-28.141 0-17.234-8.1875-27.516-8.1719-10.281-21.984-10.281-3.7188 0-7.5312 0.73438-3.7969 0.73438-7.9062 2.2031zm19.625 30.906q6.6406 0 10.516 4.5312 3.8906 4.5469 3.8906 12.469 0 7.8594-3.8906 12.422-3.875 4.5625-10.516 4.5625t-10.516-4.5625-3.875-12.422q0-7.9219 3.875-12.469 3.875-4.5312 10.516-4.5312z"/>
</defs>
<use xlink:href="#c"/>
<use x="63.623047" xlink:href="#d"/>
<use x="95.410156" xlink:href="#o"/>
<use x="159.033203" xlink:href="#al"/>
</g>
</g>
<g clip-path="url(#a)">
<g transform="translate(861.05 604.91) scale(.1 -.1)">
<use xlink:href="#c"/>
<use x="63.623047" xlink:href="#d"/>
<use x="95.410156" xlink:href="#n"/>
<use x="159.033203" xlink:href="#ac"/>
</g>
</g>
<g clip-path="url(#a)">
<g transform="translate(801.73 788.73) scale(.1 -.1)">
<use xlink:href="#c"/>
<use x="63.623047" xlink:href="#d"/>
<use x="95.410156" xlink:href="#n"/>
<use x="159.033203" xlink:href="#c"/>
</g>
</g>
<g clip-path="url(#a)">
<g transform="translate(860.3 788.73) scale(.1 -.1)">
<use xlink:href="#c"/>
<use x="63.623047" xlink:href="#d"/>
<use x="95.410156" xlink:href="#n"/>
<use x="159.033203" xlink:href="#o"/>
</g>
</g>
<g clip-path="url(#a)">
<g transform="translate(921.12 788.73) scale(.1 -.1)">
<use xlink:href="#c"/>
<use x="63.623047" xlink:href="#d"/>
<use x="95.410156" xlink:href="#n"/>
<use x="159.033203" xlink:href="#n"/>
</g>
</g>
<g clip-path="url(#a)">
<g transform="translate(691.35 788.73) scale(.1 -.1)">
<use xlink:href="#c"/>
<use x="63.623047" xlink:href="#d"/>
<use x="95.410156" xlink:href="#n"/>
<use x="159.033203" xlink:href="#m"/>
</g>
</g>
<g clip-path="url(#a)">
<g transform="translate(745.42 788.73) scale(.1 -.1)">
<use xlink:href="#c"/>
<use x="63.623047" xlink:href="#d"/>
<use x="95.410156" xlink:href="#n"/>
<use x="159.033203" xlink:href="#t"/>
</g>
</g>
<g clip-path="url(#a)">
<g transform="translate(170.99 788.73) scale(.1 -.1)">
<use xlink:href="#c"/>
<use x="63.623047" xlink:href="#d"/>
<use x="95.410156" xlink:href="#n"/>
<use x="159.033203" xlink:href="#ab"/>
</g>
</g>
<g clip-path="url(#a)">
<g transform="translate(193.52 788.73) scale(.1 -.1)">
<use xlink:href="#c"/>
<use x="63.623047" xlink:href="#d"/>
<use x="95.410156" xlink:href="#n"/>
<use x="159.033203" xlink:href="#aa"/>
</g>
</g>
<g clip-path="url(#a)">
<g transform="translate(246.08 604.91) scale(.1 -.1)">
<use xlink:href="#c"/>
<use x="63.623047" xlink:href="#d"/>
<use x="95.410156" xlink:href="#n"/>
<use x="159.033203" xlink:href="#z"/>
</g>
</g>
<g clip-path="url(#a)">
<g transform="translate(340.69 604.91) scale(.1 -.1)">
<use xlink:href="#c"/>
<use x="63.623047" xlink:href="#d"/>
<use x="95.410156" xlink:href="#n"/>
<use x="159.033203" xlink:href="#al"/>
</g>
</g>
<g clip-path="url(#a)">
<g transform="translate(306.15 788.73) scale(.1 -.1)">
<use xlink:href="#c"/>
<use x="63.623047" xlink:href="#d"/>
<use x="95.410156" xlink:href="#m"/>
<use x="159.033203" xlink:href="#ac"/>
</g>
</g>
<g clip-path="url(#a)">
<g transform="translate(339.94 788.73) scale(.1 -.1)">
<use xlink:href="#c"/>
<use x="63.623047" xlink:href="#d"/>
<use x="95.410156" xlink:href="#m"/>
<use x="159.033203" xlink:href="#c"/>
</g>
</g>
<g clip-path="url(#a)">
<g transform="translate(375.98 788.73) scale(.1 -.1)">
<use xlink:href="#c"/>
<use x="63.623047" xlink:href="#d"/>
<use x="95.410156" xlink:href="#m"/>
<use x="159.033203" xlink:href="#o"/>
</g>
</g>
<g clip-path="url(#a)">
<g transform="translate(218.3 788.73) scale(.1 -.1)">
<use xlink:href="#c"/>
<use x="63.623047" xlink:href="#d"/>
<use x="95.410156" xlink:href="#m"/>
<use x="159.033203" xlink:href="#n"/>
</g>
</g>
<g clip-path="url(#a)">
<g transform="translate(245.33 788.73) scale(.1 -.1)">
<use xlink:href="#c"/>
<use x="63.623047" xlink:href="#d"/>
<use x="95.410156" xlink:href="#m"/>
<use x="159.033203" xlink:href="#m"/>
</g>
</g>
<g clip-path="url(#a)">
<g transform="translate(274.61 788.73) scale(.1 -.1)">
<use xlink:href="#c"/>
<use x="63.623047" xlink:href="#d"/>
<use x="95.410156" xlink:href="#m"/>
<use x="159.033203" xlink:href="#t"/>
</g>
</g>
<g clip-path="url(#a)">
<g transform="translate(76.382 788.73) scale(.1 -.1)">
<use xlink:href="#c"/>
<use x="63.623047" xlink:href="#d"/>
<use x="95.410156" xlink:href="#m"/>
<use x="159.033203" xlink:href="#ab"/>
</g>
</g>
<g clip-path="url(#a)">
<g transform="translate(83.14 788.73) scale(.1 -.1)">
<use xlink:href="#c"/>
<use x="63.623047" xlink:href="#d"/>
<use x="95.410156" xlink:href="#m"/>
<use x="159.033203" xlink:href="#aa"/>
</g>
</g>
<g clip-path="url(#a)">
<g transform="translate(92.151 788.73) scale(.1 -.1)">
<use xlink:href="#c"/>
<use x="63.623047" xlink:href="#d"/>
<use x="95.410156" xlink:href="#m"/>
<use x="159.033203" xlink:href="#z"/>
</g>
</g>
<g clip-path="url(#a)">
<g transform="translate(117.68 604.91) scale(.1 -.1)">
<use xlink:href="#c"/>
<use x="63.623047" xlink:href="#d"/>
<use x="95.410156" xlink:href="#m"/>
<use x="159.033203" xlink:href="#al"/>
</g>
</g>
<g clip-path="url(#a)">
<g transform="translate(103.41 788.73) scale(.1 -.1)">
<use xlink:href="#c"/>
<use x="63.623047" xlink:href="#d"/>
<use x="95.410156" xlink:href="#t"/>
<use x="159.033203" xlink:href="#ac"/>
</g>
</g>
<g clip-path="url(#a)">
<g transform="translate(116.93 788.73) scale(.1 -.1)">
<use xlink:href="#c"/>
<use x="63.623047" xlink:href="#d"/>
<use x="95.410156" xlink:href="#t"/>
<use x="159.033203" xlink:href="#c"/>
</g>
</g>
<g clip-path="url(#a)">
<g transform="translate(132.7 788.73) scale(.1 -.1)">
<use xlink:href="#c"/>
<use x="63.623047" xlink:href="#d"/>
<use x="95.410156" xlink:href="#t"/>
<use x="159.033203" xlink:href="#o"/>
</g>
</g>
<g clip-path="url(#a)">
<g transform="translate(414.28 788.73) scale(.1 -.1)">
<use xlink:href="#c"/>
<use x="63.623047" xlink:href="#d"/>
<use x="95.410156" xlink:href="#t"/>
<use x="159.033203" xlink:href="#n"/>
</g>
</g>
<g clip-path="url(#a)">
<g transform="translate(1826.7 788.73) scale(.1 -.1)">
<use xlink:href="#c"/>
<use x="63.623047" xlink:href="#d"/>
<use x="95.410156" xlink:href="#t"/>
<use x="159.033203" xlink:href="#m"/>
</g>
</g>
<defs>
<clipPath id="a">
<rect width="1925.3" height="1013.3"/>
</clipPath>
</defs>
</svg>
