<?xml version="1.0" encoding="UTF-8"?>
<!DOCTYPE svg  PUBLIC '-//W3C//DTD SVG 1.1//EN'  'http://www.w3.org/Graphics/SVG/1.1/DTD/svg11.dtd'>
<svg width="1469.3pt" height="773.33pt" version="1.1" viewBox="0 0 1469.3 773.33" xmlns="http://www.w3.org/2000/svg" xmlns:xlink="http://www.w3.org/1999/xlink">
<metadata>
<rdf:RDF xmlns:cc="http://creativecommons.org/ns#" xmlns:dc="http://purl.org/dc/elements/1.1/" xmlns:rdf="http://www.w3.org/1999/02/22-rdf-syntax-ns#">
<cc:Work>
<dc:type rdf:resource="http://purl.org/dc/dcmitype/StillImage"/>
<dc:date>2021-02-11T07:45:50.226451</dc:date>
<dc:format>image/svg+xml</dc:format>
<dc:creator>
<cc:Agent>
<dc:title>Matplotlib v3.3.3, https://matplotlib.org/</dc:title>
</cc:Agent>
</dc:creator>
</cc:Work>
</rdf:RDF>
</metadata>
<defs>
<style type="text/css">*{stroke-linecap:butt;stroke-linejoin:round;}</style>
</defs>
<path d="m0 773.33h1469.3v-773.33h-1469.3z" fill="#fff"/>
<g fill="none" stroke="#000">
<path d="m419.86 35.152-353.07 587.94" clip-path="url(#a)"/>
<path d="m419.86 35.152 436.14 118.24" clip-path="url(#a)"/>
<path d="m419.86 35.152-301.03 587.94" clip-path="url(#a)"/>
<path d="m419.86 35.152-27.448 236.24" clip-path="url(#a)"/>
<path d="m419.86 35.152 245.41 587.94" clip-path="url(#a)"/>
<path d="m66.788 623.09v115.09" clip-path="url(#a)"/>
<path d="m856 153.39-768.01 469.7" clip-path="url(#a)"/>
<path d="m856 153.39-54.356 118" clip-path="url(#a)"/>
<path d="m856 153.39 105.63 469.7" clip-path="url(#a)"/>
<path d="m856 153.39 255.97 469.7" clip-path="url(#a)"/>
<path d="m856 153.39 460.77 353.01" clip-path="url(#a)"/>
<path d="m118.83 623.09v115.09" clip-path="url(#a)"/>
<path d="m392.41 271.39-253.35 351.7" clip-path="url(#a)"/>
<path d="m392.41 271.39-188.29 235.01" clip-path="url(#a)"/>
<path d="m392.41 271.39-22.046 117.7" clip-path="url(#a)"/>
<path d="m392.41 271.39 463.68 351.7" clip-path="url(#a)" stroke-dasharray="3.7,1.6"/>
<path d="m139.07 623.09v115.09" clip-path="url(#a)"/>
<path d="m204.12 506.4-41.923 116.69" clip-path="url(#a)"/>
<path d="m204.12 506.4-15.902 116.69" clip-path="url(#a)"/>
<path d="m204.12 506.4 13.011 116.69" clip-path="url(#a)"/>
<path d="m204.12 506.4 44.814 116.69" clip-path="url(#a)"/>
<path d="m370.37 389.09-86.738 234" clip-path="url(#a)"/>
<path d="m370.37 389.09 86.738 117.3" clip-path="url(#a)"/>
<path d="m283.63 623.09v115.09" clip-path="url(#a)"/>
<path d="m457.11 506.4-135.89 116.69" clip-path="url(#a)"/>
<path d="m457.11 506.4-52.043 116.69" clip-path="url(#a)"/>
<path d="m457.11 506.4-5.7825 116.69" clip-path="url(#a)"/>
<path d="m457.11 506.4 95.411 116.69" clip-path="url(#a)"/>
<path d="m457.11 506.4 150.35 116.69" clip-path="url(#a)"/>
<path d="m457.11 506.4-95.411 116.69" clip-path="url(#a)"/>
<path d="m457.11 506.4 43.369 116.69" clip-path="url(#a)"/>
<path d="m321.22 623.09v115.09" clip-path="url(#a)"/>
<path d="m405.06 623.09v115.09" clip-path="url(#a)"/>
<path d="m451.32 623.09v115.09" clip-path="url(#a)"/>
<path d="m552.52 623.09v115.09" clip-path="url(#a)"/>
<path d="m607.45 623.09v115.09" clip-path="url(#a)"/>
<path d="m162.2 623.09v115.09" clip-path="url(#a)"/>
<path d="m188.22 623.09v115.09" clip-path="url(#a)"/>
<path d="m217.13 623.09v115.09" clip-path="url(#a)"/>
<path d="m248.94 623.09v115.09" clip-path="url(#a)"/>
<path d="m87.99 623.09-12.529 115.09" clip-path="url(#a)"/>
<path d="m87.99 623.09-0.96375 115.09" clip-path="url(#a)"/>
<path d="m87.99 623.09 13.493 115.09" clip-path="url(#a)"/>
<path d="m801.65 271.39-75.654 351.7" clip-path="url(#a)"/>
<path d="m801.65 271.39 21.203 117.7" clip-path="url(#a)"/>
<path d="m801.65 271.39 54.452 235.01" clip-path="url(#a)"/>
<path d="m961.63 623.09-36.141 115.09" clip-path="url(#a)"/>
<path d="m961.63 623.09 36.141 115.09" clip-path="url(#a)"/>
<path d="m1112 623.09-39.032 115.09" clip-path="url(#a)"/>
<path d="m1112 623.09 39.032 115.09" clip-path="url(#a)"/>
<path d="m1316.8 506.4-84.81 116.69" clip-path="url(#a)"/>
<path d="m1316.8 506.4-0.96375 116.69" clip-path="url(#a)"/>
<path d="m1316.8 506.4 85.774 116.69" clip-path="url(#a)"/>
<path d="m1232 623.09v115.09" clip-path="url(#a)"/>
<path d="m1315.8 623.09v115.09" clip-path="url(#a)"/>
<path d="m725.99 623.09v115.09" clip-path="url(#a)"/>
<path d="m822.85 389.09 33.249 117.3" clip-path="url(#a)" stroke-dasharray="3.7,1.6"/>
<path d="m822.85 389.09-33.249 234" clip-path="url(#a)"/>
<path d="m856.1 506.4v116.69" clip-path="url(#a)"/>
<path d="m856.1 623.09v115.09" clip-path="url(#a)"/>
<path d="m789.6 623.09v115.09" clip-path="url(#a)"/>
<path d="m361.7 623.09v115.09" clip-path="url(#a)"/>
<path d="m500.48 623.09v115.09" clip-path="url(#a)"/>
<path d="m665.28 623.09v115.09" clip-path="url(#a)"/>
<path d="m1402.5 623.09v115.09" clip-path="url(#a)"/>
</g>
<path d="m247.55 334.26 2.2949-3.8214q1.2356-2.0575-0.82191-3.2931l-6.6376-3.9861q-2.0575-1.2356-3.2931 0.82191l-2.2949 3.8214q-1.2356 2.0575 0.82191 3.2931l6.6376 3.9861q2.0575 1.2356 3.2931-0.82191z" clip-path="url(#a)" fill="#fff" stroke="#fff"/>
<g clip-path="url(#a)">
<g transform="translate(244.07 332.17) rotate(-59.014) scale(.08 -.08)">
<defs>
<path id="am" d="m9.8125 72.906h9.8594v-64.609h35.5v-8.2969h-45.359z"/>
</defs>
<use xlink:href="#am"/>
</g>
</g>
<path d="m633.39 99.537 5.8066 1.5742q2.3164 0.62798 2.9444-1.6884l2.0259-7.4728q0.62798-2.3164-1.6884-2.9444l-5.8066-1.5742q-2.3164-0.62798-2.9444 1.6884l-2.0259 7.4728q-0.62798 2.3164 1.6884 2.9444z" clip-path="url(#a)" fill="#fff" stroke="#fff"/>
<g clip-path="url(#a)">
<g transform="translate(634.45 95.614) rotate(15.168) scale(.08 -.08)">
<defs>
<path id="an" d="m9.8125 72.906h9.8594v-29.891h35.844v29.891h9.8594v-72.906h-9.8594v34.719h-35.844v-34.719h-9.8594z"/>
</defs>
<use xlink:href="#an"/>
</g>
</g>
<path d="m273.91 333.96 2.0315-3.9677q1.0938-2.1363-1.0425-3.2301l-6.8917-3.5286q-2.1363-1.0938-3.2301 1.0425l-2.0315 3.9677q-1.0938 2.1363 1.0425 3.2301l6.8917 3.5286q2.1363 1.0938 3.2301-1.0425z" clip-path="url(#a)" fill="#fff" stroke="#fff"/>
<g clip-path="url(#a)">
<g transform="translate(270.3 332.11) rotate(-62.887) scale(.08 -.08)">
<use xlink:href="#am"/>
</g>
</g>
<path d="m412.02 156.98 0.69433-5.976q0.27698-2.384-2.107-2.6609l-7.6908-0.89355q-2.384-0.27698-2.6609 2.107l-0.69433 5.976q-0.27698 2.384 2.107 2.6609l7.6908 0.89355q2.384 0.27698 2.6609-2.107z" clip-path="url(#a)" fill="#fff" stroke="#fff"/>
<g clip-path="url(#a)">
<g transform="translate(407.98 156.51) rotate(-83.373) scale(.08 -.08)">
<use xlink:href="#an"/>
</g>
</g>
<path d="m535.65 328.84 2.2554 5.4032q0.92449 2.2148 3.1393 1.2903l7.145-2.9824q2.2148-0.92449 1.2903-3.1393l-2.2554-5.4032q-0.92449-2.2148-3.1393-1.2903l-7.145 2.9824q-2.2148 0.92449-1.2903 3.1393z" clip-path="url(#a)" fill="#fff" stroke="#fff"/>
<g clip-path="url(#a)">
<g transform="translate(539.4 327.27) rotate(67.344) scale(.08 -.08)">
<defs>
<path id="u" d="m8.6875 72.906h9.9219v-44.297q0-11.719 4.2344-16.875 4.25-5.1406 13.781-5.1406 9.4688 0 13.719 5.1406 4.25 5.1562 4.25 16.875v44.297h9.9062v-45.516q0-14.25-7.0625-21.531-7.0469-7.2812-20.812-7.2812-13.828 0-20.891 7.2812-7.0469 7.2812-7.0469 21.531z"/>
</defs>
<use xlink:href="#u"/>
</g>
</g>
<path d="m60.517 663.73v33.808q0 2.4 2.4 2.4h7.7425q2.4 0 2.4-2.4v-33.808q0-2.4-2.4-2.4h-7.7425q-2.4 0-2.4 2.4z" clip-path="url(#a)" fill="#fff" stroke="#fff"/>
<g clip-path="url(#a)">
<g transform="translate(64.58 663.73) rotate(90) scale(.08 -.08)">
<defs>
<path id="k" d="m-0.29688 72.906h61.672v-8.3125h-25.875v-64.594h-9.9062v64.594h-25.891z"/>
<path id="f" d="m56.203 29.594v-4.3906h-41.312q0.59375-9.2812 5.5938-14.141t13.938-4.8594q5.1719 0 10.031 1.2656t9.6562 3.8125v-8.5q-4.8438-2.0469-9.9219-3.125t-10.297-1.0781q-13.094 0-20.734 7.6094-7.6406 7.625-7.6406 20.625 0 13.422 7.25 21.297 7.25 7.8906 19.562 7.8906 11.031 0 17.453-7.1094 6.4219-7.0938 6.4219-19.297zm-8.9844 2.6406q-0.09375 7.3594-4.125 11.75-4.0312 4.4062-10.672 4.4062-7.5156 0-12.031-4.25t-5.2031-11.969z"/>
<path id="h" d="m41.109 46.297q-1.5156 0.875-3.2969 1.2812-1.7812 0.42188-3.9219 0.42188-7.625 0-11.703-4.9531t-4.0781-14.234v-28.812h-9.0312v54.688h9.0312v-8.5q2.8438 4.9844 7.375 7.3906 4.5469 2.4219 11.047 2.4219 0.92188 0 2.0469-0.125 1.125-0.10938 2.4844-0.35938z"/>
<path id="l" d="m52 44.188q3.375 6.0625 8.0625 8.9375t11.031 2.875q8.5469 0 13.188-5.9844 4.6406-5.9688 4.6406-17v-33.016h-9.0312v32.719q0 7.8594-2.7969 11.656-2.7812 3.8125-8.4844 3.8125-6.9844 0-11.047-4.6406-4.0469-4.625-4.0469-12.641v-30.906h-9.0312v32.719q0 7.9062-2.7812 11.688t-8.5938 3.7812q-6.8906 0-10.953-4.6562-4.0469-4.6562-4.0469-12.625v-30.906h-9.0312v54.688h9.0312v-8.5q3.0781 5.0312 7.375 7.4219t10.203 2.3906q5.9688 0 10.141-3.0312 4.1719-3.0156 6.1719-8.7812z"/>
<path id="j" d="m9.4219 54.688h8.9844v-54.688h-8.9844zm0 21.297h8.9844v-11.391h-8.9844z"/>
<path id="e" d="m54.891 33.016v-33.016h-8.9844v32.719q0 7.7656-3.0312 11.609-3.0312 3.8594-9.0781 3.8594-7.2812 0-11.484-4.6406-4.2031-4.625-4.2031-12.641v-30.906h-9.0312v54.688h9.0312v-8.5q3.2344 4.9375 7.5938 7.375 4.375 2.4375 10.094 2.4375 9.4219 0 14.25-5.8281 4.8438-5.8281 4.8438-17.156z"/>
<path id="d" d="m34.281 27.484q-10.891 0-15.094-2.4844t-4.2031-8.5q0-4.7812 3.1562-7.5938 3.1562-2.7969 8.5625-2.7969 7.4844 0 12 5.2969t4.5156 14.078v2zm17.922 3.7188v-31.203h-8.9844v8.2969q-3.0781-4.9688-7.6719-7.3438t-11.234-2.375q-8.3906 0-13.359 4.7188-4.9531 4.7188-4.9531 12.625 0 9.2188 6.1719 13.906 6.1875 4.6875 18.438 4.6875h12.609v0.89062q0 6.2031-4.0781 9.5938t-11.453 3.3906q-4.6875 0-9.1406-1.125-4.4375-1.125-8.5312-3.375v8.3125q4.9219 1.9062 9.5625 2.8438 4.6406 0.95312 9.0312 0.95312 11.875 0 17.734-6.1562 5.8594-6.1406 5.8594-18.641z"/>
<path id="i" d="m9.4219 75.984h8.9844v-75.984h-8.9844z"/>
</defs>
<use xlink:href="#k"/>
<use x="44.083984" xlink:href="#f"/>
<use x="105.607422" xlink:href="#h"/>
<use x="144.970703" xlink:href="#l"/>
<use x="242.382812" xlink:href="#j"/>
<use x="270.166016" xlink:href="#e"/>
<use x="333.544922" xlink:href="#d"/>
<use x="394.824219" xlink:href="#i"/>
</g>
</g>
<path d="m472.62 395.21 5.2882-3.2341q2.0474-1.2522 0.79527-3.2996l-4.0396-6.6052q-1.2522-2.0474-3.2996-0.79527l-5.2882 3.2341q-2.0474 1.2522-0.79527 3.2996l4.0396 6.6052q1.2522 2.0474 3.2996 0.79527z" clip-path="url(#a)" fill="#fff" stroke="#fff"/>
<g clip-path="url(#a)">
<g transform="translate(470.5 391.74) rotate(-31.449) scale(.08 -.08)">
<defs>
<path id="at" d="m59.516 10.406v19.578h-16.109v8.1094h25.875v-31.312q-5.7031-4.0469-12.594-6.125-6.875-2.0781-14.688-2.0781-17.094 0-26.75 9.9844-9.6406 10-9.6406 27.812 0 17.875 9.6406 27.859 9.6562 9.9844 26.75 9.9844 7.125 0 13.547-1.7656 6.4219-1.75 11.844-5.1719v-10.5q-5.4688 4.6406-11.625 6.9844t-12.938 2.3438q-13.391 0-20.109-7.4688-6.7031-7.4688-6.7031-22.266 0-14.75 6.7031-22.219 6.7188-7.4688 20.109-7.4688 5.2188 0 9.3125 0.90625 4.1094 0.90625 7.375 2.8125z"/>
</defs>
<use xlink:href="#at"/>
</g>
</g>
<path d="m833.38 217.5 2.2896-4.9705q1.0041-2.1799-1.1757-3.184l-7.0323-3.2393q-2.1799-1.0041-3.184 1.1757l-2.2896 4.9705q-1.0041 2.1798 1.1757 3.184l7.0323 3.2393q2.1799 1.0041 3.184-1.1757z" clip-path="url(#a)" fill="#fff" stroke="#fff"/>
<g clip-path="url(#a)">
<g transform="translate(829.69 215.8) rotate(-65.268) scale(.08 -.08)">
<defs>
<path id="r" d="m34.188 63.188-13.391-36.281h26.812zm-5.5781 9.7188h11.188l27.781-72.906h-10.25l-6.6406 18.703h-32.859l-6.6406-18.703h-10.406z"/>
</defs>
<use xlink:href="#r"/>
</g>
</g>
<path d="m902.16 387.23 1.0721 4.7672q0.52657 2.3415 2.8681 1.815l7.5538-1.6987q2.3415-0.52656 1.815-2.8681l-1.0721-4.7672q-0.52656-2.3415-2.8681-1.815l-7.5538 1.6987q-2.3415 0.52657-1.815 2.8681z" clip-path="url(#a)" fill="#fff" stroke="#fff"/>
<g clip-path="url(#a)">
<g transform="translate(906.13 386.34) rotate(77.326) scale(.08 -.08)">
<use xlink:href="#k"/>
</g>
</g>
<path d="m977.33 389.12 2.3083 4.2356q1.1485 2.1074 3.2558 0.95892l6.7985-3.705q2.1074-1.1485 0.95892-3.2558l-2.3083-4.2356q-1.1485-2.1074-3.2558-0.95892l-6.7985 3.705q-2.1074 1.1485-0.95892 3.2558z" clip-path="url(#a)" fill="#fff" stroke="#fff"/>
<g clip-path="url(#a)">
<g transform="translate(980.9 387.18) rotate(61.411) scale(.08 -.08)">
<defs>
<path id="ak" d="m19.672 64.797v-27.391h12.406q6.8906 0 10.641 3.5625 3.7656 3.5625 3.7656 10.156 0 6.5469-3.7656 10.109-3.75 3.5625-10.641 3.5625zm-9.8594 8.1094h22.266q12.266 0 18.531-5.5469 6.2812-5.5469 6.2812-16.234 0-10.797-6.2812-16.312-6.2656-5.5156-18.531-5.5156h-12.406v-29.297h-9.8594z"/>
</defs>
<use xlink:href="#ak"/>
</g>
</g>
<path d="m1080.4 333.21 4.3441 3.3282q1.9052 1.4596 3.3647-0.44556l4.7087-6.1461q1.4596-1.9052-0.44556-3.3647l-4.3441-3.3282q-1.9052-1.4596-3.3647 0.44556l-4.7087 6.1461q-1.4596 1.9052 0.44556 3.3647z" clip-path="url(#a)" fill="#fff" stroke="#fff"/>
<g clip-path="url(#a)">
<g transform="translate(1082.9 329.98) rotate(37.457) scale(.08 -.08)">
<use xlink:href="#r"/>
</g>
</g>
<path d="m112.56 663.73v33.808q0 2.4 2.4 2.4h7.7425q2.4 0 2.4-2.4v-33.808q0-2.4-2.4-2.4h-7.7425q-2.4 0-2.4 2.4z" clip-path="url(#a)" fill="#fff" stroke="#fff"/>
<g clip-path="url(#a)">
<g transform="translate(116.62 663.73) rotate(90) scale(.08 -.08)">
<use xlink:href="#k"/>
<use x="44.083984" xlink:href="#f"/>
<use x="105.607422" xlink:href="#h"/>
<use x="144.970703" xlink:href="#l"/>
<use x="242.382812" xlink:href="#j"/>
<use x="270.166016" xlink:href="#e"/>
<use x="333.544922" xlink:href="#d"/>
<use x="394.824219" xlink:href="#i"/>
</g>
</g>
<path d="m269.42 452.86 2.8194-3.914q1.4028-1.9474-0.54458-3.3501l-6.2823-4.5254q-1.9474-1.4028-3.3501 0.54458l-2.8194 3.914q-1.4028 1.9474 0.54458 3.3501l6.2823 4.5254q1.9474 1.4028 3.3501-0.54458z" clip-path="url(#a)" fill="#fff" stroke="#fff"/>
<g clip-path="url(#a)">
<g transform="translate(266.12 450.49) rotate(-54.233) scale(.08 -.08)">
<use xlink:href="#ak"/>
</g>
</g>
<path d="m301.64 394.72 3.0553-3.8132q1.5007-1.873-0.37231-3.3736l-6.0423-4.8412q-1.873-1.5007-3.3736 0.37231l-3.0553 3.8132q-1.5007 1.873 0.37231 3.3736l6.0423 4.8412q1.873 1.5007 3.3736-0.37231z" clip-path="url(#a)" fill="#fff" stroke="#fff"/>
<g clip-path="url(#a)">
<g transform="translate(298.46 392.18) rotate(-51.298) scale(.08 -.08)">
<use xlink:href="#k"/>
</g>
</g>
<path d="m387.05 334.09 1.0075-5.379q0.44184-2.359-1.9171-2.8008l-7.6102-1.4254q-2.359-0.44184-2.8008 1.9171l-1.0075 5.379q-0.44184 2.359 1.9171 2.8008l7.6102 1.4254q2.359 0.44184 2.8008-1.9171z" clip-path="url(#a)" fill="#fff" stroke="#fff"/>
<g clip-path="url(#a)">
<g transform="translate(383.06 333.34) rotate(-79.391) scale(.08 -.08)">
<use xlink:href="#r"/>
</g>
</g>
<path d="m618.29 450.58 4.3602 3.3071q1.9122 1.4504 3.3625-0.46181l4.6789-6.1688q1.4504-1.9122-0.46181-3.3625l-4.3602-3.3071q-1.9122-1.4504-3.3625 0.46181l-4.6789 6.1688q-1.4504 1.9122 0.46181 3.3625z" clip-path="url(#a)" fill="#fff" stroke="#fff"/>
<g clip-path="url(#a)">
<g transform="translate(620.74 447.35) rotate(37.18) scale(.08 -.08)">
<use xlink:href="#r"/>
</g>
</g>
<path d="m132.8 663.73v33.808q0 2.4 2.4 2.4h7.7425q2.4 0 2.4-2.4v-33.808q0-2.4-2.4-2.4h-7.7425q-2.4 0-2.4 2.4z" clip-path="url(#a)" fill="#fff" stroke="#fff"/>
<g clip-path="url(#a)">
<g transform="translate(136.86 663.73) rotate(90) scale(.08 -.08)">
<use xlink:href="#k"/>
<use x="44.083984" xlink:href="#f"/>
<use x="105.607422" xlink:href="#h"/>
<use x="144.970703" xlink:href="#l"/>
<use x="242.382812" xlink:href="#j"/>
<use x="270.166016" xlink:href="#e"/>
<use x="333.544922" xlink:href="#d"/>
<use x="394.824219" xlink:href="#i"/>
</g>
</g>
<path d="m188.12 569.48 1.8794-5.2314q0.81145-2.2587-1.4472-3.0701l-7.2865-2.6178q-2.2587-0.81145-3.0701 1.4472l-1.8794 5.2314q-0.81145 2.2587 1.4472 3.0701l7.2865 2.6178q2.2587 0.81145 3.0701-1.4472z" clip-path="url(#a)" fill="#fff" stroke="#fff"/>
<g clip-path="url(#a)">
<g transform="translate(184.3 568.11) rotate(-70.239) scale(.08 -.08)">
<defs>
<path id="aj" d="m44.391 34.188q3.1719-1.0781 6.1719-4.5938t6.0312-9.6719l10.016-19.922h-10.609l-9.3125 18.703q-3.625 7.3281-7.0156 9.7188t-9.25 2.3906h-10.75v-30.812h-9.8594v72.906h22.266q12.5 0 18.656-5.2344 6.1562-5.2188 6.1562-15.766 0-6.8906-3.2031-11.438-3.2031-4.5312-9.2969-6.2812zm-24.719 30.609v-25.875h12.406q7.125 0 10.766 3.2969t3.6406 9.6875-3.6406 9.6406-10.766 3.25z"/>
</defs>
<use xlink:href="#aj"/>
</g>
</g>
<path d="m202.07 567.87 0.62128-4.5591q0.32406-2.378-2.054-2.7021l-7.6716-1.0454q-2.378-0.32406-2.7021 2.054l-0.62128 4.5591q-0.32406 2.378 2.054 2.7021l7.6716 1.0454q2.378 0.32406 2.7021-2.054z" clip-path="url(#a)" fill="#fff" stroke="#fff"/>
<g clip-path="url(#a)">
<g transform="translate(198.05 567.32) rotate(-82.24) scale(.08 -.08)">
<defs>
<path id="ab" d="m9.8125 72.906h41.891v-8.3125h-32.031v-21.484h28.906v-8.2969h-28.906v-34.812h-9.8594z"/>
</defs>
<use xlink:href="#ab"/>
</g>
</g>
<path d="m204.11 562.93 0.56014 5.0239q0.26594 2.3852 2.6512 2.1193l7.6948-0.85794q2.3852-0.26594 2.1193-2.6512l-0.56014-5.0239q-0.26594-2.3852-2.6512-2.1193l-7.6948 0.85794q-2.3852 0.26594-2.1193 2.6512z" clip-path="url(#a)" fill="#fff" stroke="#fff"/>
<g clip-path="url(#a)">
<g transform="translate(208.15 562.48) rotate(83.638) scale(.08 -.08)">
<defs>
<path id="ao" d="m9.8125 72.906h46.094v-8.3125h-36.234v-21.578h34.719v-8.2969h-34.719v-26.422h37.109v-8.2969h-46.969z"/>
</defs>
<use xlink:href="#ao"/>
</g>
</g>
<path d="m219.67 564.39 2.0027 5.2149q0.86043 2.2405 3.1009 1.38l7.2278-2.7758q2.2405-0.86043 1.38-3.1009l-2.0027-5.2149q-0.86043-2.2405-3.1009-1.38l-7.2278 2.7758q-2.2405 0.86043-1.38 3.1009z" clip-path="url(#a)" fill="#fff" stroke="#fff"/>
<g clip-path="url(#a)">
<g transform="translate(223.47 562.93) rotate(68.991) scale(.08 -.08)">
<defs>
<path id="p" d="m64.406 67.281v-10.391q-4.9844 4.6406-10.625 6.9219-5.6406 2.2969-11.984 2.2969-12.5 0-19.141-7.6406t-6.6406-22.094q0-14.406 6.6406-22.047t19.141-7.6406q6.3438 0 11.984 2.2969t10.625 6.9375v-10.312q-5.1719-3.5156-10.969-5.2812-5.7812-1.75-12.219-1.75-16.562 0-26.094 10.125-9.5156 10.141-9.5156 27.672 0 17.578 9.5156 27.703 9.5312 10.141 26.094 10.141 6.5312 0 12.312-1.7344 5.7969-1.7344 10.875-5.2031z"/>
</defs>
<use xlink:href="#p"/>
</g>
</g>
<path d="m331.91 510.88 1.932-5.2122q0.83417-2.2504-1.4162-3.0845l-7.2598-2.6911q-2.2504-0.83417-3.0845 1.4162l-1.932 5.2122q-0.83417 2.2504 1.4162 3.0845l7.2598 2.6911q2.2504 0.83417 3.0845-1.4162z" clip-path="url(#a)" fill="#fff" stroke="#fff"/>
<g clip-path="url(#a)">
<g transform="translate(328.1 509.47) rotate(-69.661) scale(.08 -.08)">
<use xlink:href="#aj"/>
</g>
</g>
<path d="m407.03 449.23 3.3213 4.4917q1.4269 1.9298 3.3567 0.50285l6.2255-4.6033q1.9298-1.4269 0.50285-3.3567l-3.3213-4.4917q-1.4269-1.9298-3.3567-0.50284l-6.2255 4.6033q-1.9298 1.4269-0.50285 3.3567z" clip-path="url(#a)" fill="#fff" stroke="#fff"/>
<g clip-path="url(#a)">
<g transform="translate(410.3 446.81) rotate(53.52) scale(.08 -.08)">
<use xlink:href="#p"/>
</g>
</g>
<path d="m277.36 663.73v33.808q0 2.4 2.4 2.4h7.7425q2.4 0 2.4-2.4v-33.808q0-2.4-2.4-2.4h-7.7425q-2.4 0-2.4 2.4z" clip-path="url(#a)" fill="#fff" stroke="#fff"/>
<g clip-path="url(#a)">
<g transform="translate(281.42 663.73) rotate(90) scale(.08 -.08)">
<use xlink:href="#k"/>
<use x="44.083984" xlink:href="#f"/>
<use x="105.607422" xlink:href="#h"/>
<use x="144.970703" xlink:href="#l"/>
<use x="242.382812" xlink:href="#j"/>
<use x="270.166016" xlink:href="#e"/>
<use x="333.544922" xlink:href="#d"/>
<use x="394.824219" xlink:href="#i"/>
</g>
</g>
<path d="m391.13 571.32 4.2381-3.6394q1.8208-1.5636 0.25722-3.3844l-5.0441-5.8739q-1.5636-1.8208-3.3844-0.25722l-4.2381 3.6394q-1.8208 1.5636-0.25722 3.3844l5.0441 5.8739q1.5636 1.8208 3.3844 0.25722z" clip-path="url(#a)" fill="#fff" stroke="#fff"/>
<g clip-path="url(#a)">
<g transform="translate(388.48 568.24) rotate(-40.654) scale(.08 -.08)">
<use xlink:href="#p"/>
</g>
</g>
<path d="m435.59 570.03 2.4378-5.466q0.97755-2.1919-1.2144-3.1694l-7.0711-3.1536q-2.1919-0.97754-3.1694 1.2144l-2.4378 5.466q-0.97754 2.1919 1.2144 3.1694l7.0711 3.1536q2.1919 0.97754 3.1694-1.2144z" clip-path="url(#a)" fill="#fff" stroke="#fff"/>
<g clip-path="url(#a)">
<g transform="translate(431.88 568.38) rotate(-65.964) scale(.08 -.08)">
<defs>
<path id="al" d="m9.8125 72.906h13.281l32.328-60.984v60.984h9.5625v-72.906h-13.281l-32.312 60.984v-60.984h-9.5781z"/>
</defs>
<use xlink:href="#al"/>
</g>
</g>
<path d="m460.34 567.84 0.27648-5.5794q0.11878-2.3971-2.2783-2.5158l-7.733-0.3832q-2.3971-0.11878-2.5158 2.2783l-0.27648 5.5794q-0.11878 2.3971 2.2783 2.5158l7.733 0.3832q2.3971 0.11878 2.5158-2.2783z" clip-path="url(#a)" fill="#fff" stroke="#fff"/>
<g clip-path="url(#a)">
<g transform="translate(456.28 567.64) rotate(-87.163) scale(.08 -.08)">
<use xlink:href="#p"/>
</g>
</g>
<path d="m498.06 566.4 3.7884 4.6334q1.5192 1.858 3.3772 0.33884l5.994-4.9009q1.858-1.5192 0.33884-3.3772l-3.7884-4.6334q-1.5192-1.858-3.3772-0.33884l-5.994 4.9009q-1.858 1.5192-0.33884 3.3772z" clip-path="url(#a)" fill="#fff" stroke="#fff"/>
<g clip-path="url(#a)">
<g transform="translate(501.21 563.83) rotate(50.729) scale(.08 -.08)">
<use xlink:href="#al"/>
</g>
</g>
<path d="m526.23 567.99 4.413 3.4252q1.8959 1.4715 3.3675-0.42438l4.7473-6.1163q1.4715-1.8959-0.42438-3.3675l-4.413-3.4252q-1.8959-1.4715-3.3675 0.42438l-4.7473 6.1163q-1.4715 1.8959 0.42438 3.3675z" clip-path="url(#a)" fill="#fff" stroke="#fff"/>
<g clip-path="url(#a)">
<g transform="translate(528.72 564.78) rotate(37.817) scale(.08 -.08)">
<use xlink:href="#p"/>
</g>
</g>
<path d="m412.4 570.98 3.7061-4.5327q1.5192-1.858-0.33884-3.3772l-5.994-4.9009q-1.858-1.5192-3.3772 0.33884l-3.7061 4.5327q-1.5192 1.858 0.33884 3.3772l5.994 4.9009q1.858 1.5192 3.3772-0.33884z" clip-path="url(#a)" fill="#fff" stroke="#fff"/>
<g clip-path="url(#a)">
<g transform="translate(409.26 568.41) rotate(-50.729) scale(.08 -.08)">
<use xlink:href="#u"/>
</g>
</g>
<path d="m471.89 564.19 2.0397 5.4882q0.83609 2.2497 3.0857 1.4136l7.2575-2.6973q2.2497-0.83609 1.4136-3.0857l-2.0397-5.4882q-0.83609-2.2497-3.0857-1.4136l-7.2575 2.6973q-2.2497 0.83609-1.4136 3.0857z" clip-path="url(#a)" fill="#fff" stroke="#fff"/>
<g clip-path="url(#a)">
<g transform="translate(475.7 562.77) rotate(69.612) scale(.08 -.08)">
<use xlink:href="#u"/>
</g>
</g>
<path d="m314.95 663.73v33.808q0 2.4 2.4 2.4h7.7425q2.4 0 2.4-2.4v-33.808q0-2.4-2.4-2.4h-7.7425q-2.4 0-2.4 2.4z" clip-path="url(#a)" fill="#fff" stroke="#fff"/>
<g clip-path="url(#a)">
<g transform="translate(319.01 663.73) rotate(90) scale(.08 -.08)">
<use xlink:href="#k"/>
<use x="44.083984" xlink:href="#f"/>
<use x="105.607422" xlink:href="#h"/>
<use x="144.970703" xlink:href="#l"/>
<use x="242.382812" xlink:href="#j"/>
<use x="270.166016" xlink:href="#e"/>
<use x="333.544922" xlink:href="#d"/>
<use x="394.824219" xlink:href="#i"/>
</g>
</g>
<path d="m398.79 663.73v33.808q0 2.4 2.4 2.4h7.7425q2.4 0 2.4-2.4v-33.808q0-2.4-2.4-2.4h-7.7425q-2.4 0-2.4 2.4z" clip-path="url(#a)" fill="#fff" stroke="#fff"/>
<g clip-path="url(#a)">
<g transform="translate(402.86 663.73) rotate(90) scale(.08 -.08)">
<use xlink:href="#k"/>
<use x="44.083984" xlink:href="#f"/>
<use x="105.607422" xlink:href="#h"/>
<use x="144.970703" xlink:href="#l"/>
<use x="242.382812" xlink:href="#j"/>
<use x="270.166016" xlink:href="#e"/>
<use x="333.544922" xlink:href="#d"/>
<use x="394.824219" xlink:href="#i"/>
</g>
</g>
<path d="m445.05 663.73v33.808q0 2.4 2.4 2.4h7.7425q2.4 0 2.4-2.4v-33.808q0-2.4-2.4-2.4h-7.7425q-2.4 0-2.4 2.4z" clip-path="url(#a)" fill="#fff" stroke="#fff"/>
<g clip-path="url(#a)">
<g transform="translate(449.12 663.73) rotate(90) scale(.08 -.08)">
<use xlink:href="#k"/>
<use x="44.083984" xlink:href="#f"/>
<use x="105.607422" xlink:href="#h"/>
<use x="144.970703" xlink:href="#l"/>
<use x="242.382812" xlink:href="#j"/>
<use x="270.166016" xlink:href="#e"/>
<use x="333.544922" xlink:href="#d"/>
<use x="394.824219" xlink:href="#i"/>
</g>
</g>
<path d="m546.25 663.73v33.808q0 2.4 2.4 2.4h7.7425q2.4 0 2.4-2.4v-33.808q0-2.4-2.4-2.4h-7.7425q-2.4 0-2.4 2.4z" clip-path="url(#a)" fill="#fff" stroke="#fff"/>
<g clip-path="url(#a)">
<g transform="translate(550.31 663.73) rotate(90) scale(.08 -.08)">
<use xlink:href="#k"/>
<use x="44.083984" xlink:href="#f"/>
<use x="105.607422" xlink:href="#h"/>
<use x="144.970703" xlink:href="#l"/>
<use x="242.382812" xlink:href="#j"/>
<use x="270.166016" xlink:href="#e"/>
<use x="333.544922" xlink:href="#d"/>
<use x="394.824219" xlink:href="#i"/>
</g>
</g>
<path d="m601.18 663.73v33.808q0 2.4 2.4 2.4h7.7425q2.4 0 2.4-2.4v-33.808q0-2.4-2.4-2.4h-7.7425q-2.4 0-2.4 2.4z" clip-path="url(#a)" fill="#fff" stroke="#fff"/>
<g clip-path="url(#a)">
<g transform="translate(605.24 663.73) rotate(90) scale(.08 -.08)">
<use xlink:href="#k"/>
<use x="44.083984" xlink:href="#f"/>
<use x="105.607422" xlink:href="#h"/>
<use x="144.970703" xlink:href="#l"/>
<use x="242.382812" xlink:href="#j"/>
<use x="270.166016" xlink:href="#e"/>
<use x="333.544922" xlink:href="#d"/>
<use x="394.824219" xlink:href="#i"/>
</g>
</g>
<path d="m155.93 663.73v33.808q0 2.4 2.4 2.4h7.7425q2.4 0 2.4-2.4v-33.808q0-2.4-2.4-2.4h-7.7425q-2.4 0-2.4 2.4z" clip-path="url(#a)" fill="#fff" stroke="#fff"/>
<g clip-path="url(#a)">
<g transform="translate(159.99 663.73) rotate(90) scale(.08 -.08)">
<use xlink:href="#k"/>
<use x="44.083984" xlink:href="#f"/>
<use x="105.607422" xlink:href="#h"/>
<use x="144.970703" xlink:href="#l"/>
<use x="242.382812" xlink:href="#j"/>
<use x="270.166016" xlink:href="#e"/>
<use x="333.544922" xlink:href="#d"/>
<use x="394.824219" xlink:href="#i"/>
</g>
</g>
<path d="m181.95 663.73v33.808q0 2.4 2.4 2.4h7.7425q2.4 0 2.4-2.4v-33.808q0-2.4-2.4-2.4h-7.7425q-2.4 0-2.4 2.4z" clip-path="url(#a)" fill="#fff" stroke="#fff"/>
<g clip-path="url(#a)">
<g transform="translate(186.01 663.73) rotate(90) scale(.08 -.08)">
<use xlink:href="#k"/>
<use x="44.083984" xlink:href="#f"/>
<use x="105.607422" xlink:href="#h"/>
<use x="144.970703" xlink:href="#l"/>
<use x="242.382812" xlink:href="#j"/>
<use x="270.166016" xlink:href="#e"/>
<use x="333.544922" xlink:href="#d"/>
<use x="394.824219" xlink:href="#i"/>
</g>
</g>
<path d="m210.86 663.73v33.808q0 2.4 2.4 2.4h7.7425q2.4 0 2.4-2.4v-33.808q0-2.4-2.4-2.4h-7.7425q-2.4 0-2.4 2.4z" clip-path="url(#a)" fill="#fff" stroke="#fff"/>
<g clip-path="url(#a)">
<g transform="translate(214.93 663.73) rotate(90) scale(.08 -.08)">
<use xlink:href="#k"/>
<use x="44.083984" xlink:href="#f"/>
<use x="105.607422" xlink:href="#h"/>
<use x="144.970703" xlink:href="#l"/>
<use x="242.382812" xlink:href="#j"/>
<use x="270.166016" xlink:href="#e"/>
<use x="333.544922" xlink:href="#d"/>
<use x="394.824219" xlink:href="#i"/>
</g>
</g>
<path d="m242.67 663.73v33.808q0 2.4 2.4 2.4h7.7425q2.4 0 2.4-2.4v-33.808q0-2.4-2.4-2.4h-7.7425q-2.4 0-2.4 2.4z" clip-path="url(#a)" fill="#fff" stroke="#fff"/>
<g clip-path="url(#a)">
<g transform="translate(246.73 663.73) rotate(90) scale(.08 -.08)">
<use xlink:href="#k"/>
<use x="44.083984" xlink:href="#f"/>
<use x="105.607422" xlink:href="#h"/>
<use x="144.970703" xlink:href="#l"/>
<use x="242.382812" xlink:href="#j"/>
<use x="270.166016" xlink:href="#e"/>
<use x="333.544922" xlink:href="#d"/>
<use x="394.824219" xlink:href="#i"/>
</g>
</g>
<path d="m86.131 698.12 3.6587-33.609q0.25973-2.3859-2.1262-2.6456l-7.697-0.8379q-2.3859-0.25973-2.6456 2.1262l-3.6587 33.609q-0.25973 2.3859 2.1262 2.6456l7.697 0.83789q2.3859 0.25973 2.6456-2.1262z" clip-path="url(#a)" fill="#fff" stroke="#fff"/>
<g clip-path="url(#a)">
<g transform="translate(82.091 697.68) rotate(-83.787) scale(.08 -.08)">
<use xlink:href="#k"/>
<use x="44.083984" xlink:href="#f"/>
<use x="105.607422" xlink:href="#h"/>
<use x="144.970703" xlink:href="#l"/>
<use x="242.382812" xlink:href="#j"/>
<use x="270.166016" xlink:href="#e"/>
<use x="333.544922" xlink:href="#d"/>
<use x="394.824219" xlink:href="#i"/>
</g>
</g>
<path d="m93.638 697.59 0.28309-33.806q0.020096-2.3999-2.3798-2.42l-7.7422-0.064832q-2.3999-0.020097-2.42 2.3798l-0.28309 33.806q-0.020096 2.3999 2.3798 2.42l7.7422 0.064832q2.3999 0.020097 2.42-2.3798z" clip-path="url(#a)" fill="#fff" stroke="#fff"/>
<g clip-path="url(#a)">
<g transform="translate(89.574 697.56) rotate(-89.52) scale(.08 -.08)">
<use xlink:href="#k"/>
<use x="44.083984" xlink:href="#f"/>
<use x="105.607422" xlink:href="#h"/>
<use x="144.970703" xlink:href="#l"/>
<use x="242.382812" xlink:href="#j"/>
<use x="270.166016" xlink:href="#e"/>
<use x="333.544922" xlink:href="#d"/>
<use x="394.824219" xlink:href="#i"/>
</g>
</g>
<path d="m86.54 664.58 3.9364 33.578q0.27945 2.3837 2.6631 2.1042l7.6898-0.9015q2.3837-0.27945 2.1042-2.6631l-3.9364-33.578q-0.27945-2.3837-2.6631-2.1042l-7.6898 0.90151q-2.3837 0.27945-2.1042 2.6631z" clip-path="url(#a)" fill="#fff" stroke="#fff"/>
<g clip-path="url(#a)">
<g transform="translate(90.576 664.1) rotate(83.314) scale(.08 -.08)">
<use xlink:href="#k"/>
<use x="44.083984" xlink:href="#f"/>
<use x="105.607422" xlink:href="#h"/>
<use x="144.970703" xlink:href="#l"/>
<use x="242.382812" xlink:href="#j"/>
<use x="270.166016" xlink:href="#e"/>
<use x="333.544922" xlink:href="#d"/>
<use x="394.824219" xlink:href="#i"/>
</g>
</g>
<path d="m769.47 450.81 0.96764-4.4984q0.50472-2.3463-1.8416-2.851l-7.5694-1.6283q-2.3463-0.50472-2.851 1.8416l-0.96764 4.4984q-0.50472 2.3463 1.8416 2.851l7.5694 1.6282q2.3463 0.50472 2.851-1.8416z" clip-path="url(#a)" fill="#fff" stroke="#fff"/>
<g clip-path="url(#a)">
<g transform="translate(765.49 449.95) rotate(-77.86) scale(.08 -.08)">
<use xlink:href="#ab"/>
</g>
</g>
<path d="m805.63 328.87 0.89616 4.9749q0.42548 2.362 2.7875 1.9365l7.6199-1.3726q2.362-0.42548 1.9365-2.7875l-0.89616-4.9749q-0.42548-2.362-2.7875-1.9365l-7.6199 1.3726q-2.362 0.42548-1.9365 2.7875z" clip-path="url(#a)" fill="#fff" stroke="#fff"/>
<g clip-path="url(#a)">
<g transform="translate(809.63 328.15) rotate(79.789) scale(.08 -.08)">
<use xlink:href="#ao"/>
</g>
</g>
<path d="m822.13 387.59 1.2609 5.4421q0.54174 2.3381 2.8798 1.7963l7.5427-1.7477q2.3381-0.54174 1.7963-2.8798l-1.2609-5.4421q-0.54174-2.3381-2.8798-1.7963l-7.5427 1.7477q-2.3381 0.54174-1.7963 2.8798z" clip-path="url(#a)" fill="#fff" stroke="#fff"/>
<g clip-path="url(#a)">
<g transform="translate(826.09 386.67) rotate(76.955) scale(.08 -.08)">
<use xlink:href="#p"/>
</g>
</g>
<path d="m944.48 698.64 10.129-32.255q0.71903-2.2898-1.5707-3.0088l-7.3869-2.3196q-2.2898-0.71903-3.0088 1.5707l-10.129 32.255q-0.71903 2.2898 1.5707 3.0088l7.3869 2.3196q2.2898 0.71903 3.0088-1.5707z" clip-path="url(#a)" fill="#fff" stroke="#fff"/>
<g clip-path="url(#a)">
<g transform="translate(940.6 697.42) rotate(-72.567) scale(.08 -.08)">
<use xlink:href="#k"/>
<use x="44.083984" xlink:href="#f"/>
<use x="105.607422" xlink:href="#h"/>
<use x="144.970703" xlink:href="#l"/>
<use x="242.382812" xlink:href="#j"/>
<use x="270.166016" xlink:href="#e"/>
<use x="333.544922" xlink:href="#d"/>
<use x="394.824219" xlink:href="#i"/>
</g>
</g>
<path d="m968.65 666.39 10.129 32.255q0.71902 2.2898 3.0088 1.5707l7.3869-2.3196q2.2898-0.71903 1.5707-3.0088l-10.129-32.255q-0.71903-2.2898-3.0088-1.5707l-7.3869 2.3196q-2.2898 0.71903-1.5707 3.0088z" clip-path="url(#a)" fill="#fff" stroke="#fff"/>
<g clip-path="url(#a)">
<g transform="translate(972.53 665.17) rotate(72.567) scale(.08 -.08)">
<use xlink:href="#k"/>
<use x="44.083984" xlink:href="#f"/>
<use x="105.607422" xlink:href="#h"/>
<use x="144.970703" xlink:href="#l"/>
<use x="242.382812" xlink:href="#j"/>
<use x="270.166016" xlink:href="#e"/>
<use x="333.544922" xlink:href="#d"/>
<use x="394.824219" xlink:href="#i"/>
</g>
</g>
<path d="m1093 698.66 10.858-32.016q0.77081-2.2728-1.502-3.0437l-7.3323-2.4867q-2.2728-0.77081-3.0437 1.502l-10.858 32.016q-0.77081 2.2728 1.502 3.0437l7.3323 2.4867q2.2728 0.77081 3.0437-1.502z" clip-path="url(#a)" fill="#fff" stroke="#fff"/>
<g clip-path="url(#a)">
<g transform="translate(1089.1 697.35) rotate(-71.266) scale(.08 -.08)">
<use xlink:href="#k"/>
<use x="44.083984" xlink:href="#f"/>
<use x="105.607422" xlink:href="#h"/>
<use x="144.970703" xlink:href="#l"/>
<use x="242.382812" xlink:href="#j"/>
<use x="270.166016" xlink:href="#e"/>
<use x="333.544922" xlink:href="#d"/>
<use x="394.824219" xlink:href="#i"/>
</g>
</g>
<path d="m1120.1 666.64 10.858 32.016q0.77081 2.2728 3.0437 1.502l7.3323-2.4867q2.2728-0.77081 1.502-3.0437l-10.858-32.016q-0.77081-2.2728-3.0437-1.502l-7.3323 2.4867q-2.2728 0.77081-1.502 3.0437z" clip-path="url(#a)" fill="#fff" stroke="#fff"/>
<g clip-path="url(#a)">
<g transform="translate(1124 665.34) rotate(71.266) scale(.08 -.08)">
<use xlink:href="#k"/>
<use x="44.083984" xlink:href="#f"/>
<use x="105.607422" xlink:href="#h"/>
<use x="144.970703" xlink:href="#l"/>
<use x="242.382812" xlink:href="#j"/>
<use x="270.166016" xlink:href="#e"/>
<use x="333.544922" xlink:href="#d"/>
<use x="394.824219" xlink:href="#i"/>
</g>
</g>
<path d="m1278.1 570.29 2.7051-3.7221q1.411-1.9414-0.53042-3.3524l-6.2631-4.5519q-1.9414-1.411-3.3524 0.53042l-2.7051 3.7221q-1.411 1.9414 0.53042 3.3524l6.2631 4.5519q1.9414 1.411 3.3524-0.53042z" clip-path="url(#a)" fill="#fff" stroke="#fff"/>
<g clip-path="url(#a)">
<g transform="translate(1274.8 567.9) rotate(-53.991) scale(.08 -.08)">
<use xlink:href="#ab"/>
</g>
</g>
<path d="m1322.5 567.59 0.046135-5.5861q0.019821-2.3999-2.3801-2.4197l-7.7422-0.063943q-2.3999-0.01982-2.4197 2.3801l-0.046135 5.5861q-0.019821 2.3999 2.3801 2.4197l7.7422 0.063943q2.3999 0.01982 2.4197-2.3801z" clip-path="url(#a)" fill="#fff" stroke="#fff"/>
<g clip-path="url(#a)">
<g transform="translate(1318.5 567.56) rotate(-89.527) scale(.08 -.08)">
<use xlink:href="#p"/>
</g>
</g>
<path d="m1352.9 566.1 3.4677 4.7176q1.4214 1.9338 3.3552 0.51237l6.2385-4.5856q1.9338-1.4214 0.51237-3.3552l-3.4677-4.7176q-1.4214-1.9338-3.3552-0.51237l-6.2385 4.5856q-1.9338 1.4214-0.51237 3.3552z" clip-path="url(#a)" fill="#fff" stroke="#fff"/>
<g clip-path="url(#a)">
<g transform="translate(1356.1 563.69) rotate(53.682) scale(.08 -.08)">
<use xlink:href="#u"/>
</g>
</g>
<path d="m1225.7 663.73v33.808q0 2.4 2.4 2.4h7.7425q2.4 0 2.4-2.4v-33.808q0-2.4-2.4-2.4h-7.7425q-2.4 0-2.4 2.4z" clip-path="url(#a)" fill="#fff" stroke="#fff"/>
<g clip-path="url(#a)">
<g transform="translate(1229.8 663.73) rotate(90) scale(.08 -.08)">
<use xlink:href="#k"/>
<use x="44.083984" xlink:href="#f"/>
<use x="105.607422" xlink:href="#h"/>
<use x="144.970703" xlink:href="#l"/>
<use x="242.382812" xlink:href="#j"/>
<use x="270.166016" xlink:href="#e"/>
<use x="333.544922" xlink:href="#d"/>
<use x="394.824219" xlink:href="#i"/>
</g>
</g>
<path d="m1309.5 663.73v33.808q0 2.4 2.4 2.4h7.7425q2.4 0 2.4-2.4v-33.808q0-2.4-2.4-2.4h-7.7425q-2.4 0-2.4 2.4z" clip-path="url(#a)" fill="#fff" stroke="#fff"/>
<g clip-path="url(#a)">
<g transform="translate(1313.6 663.73) rotate(90) scale(.08 -.08)">
<use xlink:href="#k"/>
<use x="44.083984" xlink:href="#f"/>
<use x="105.607422" xlink:href="#h"/>
<use x="144.970703" xlink:href="#l"/>
<use x="242.382812" xlink:href="#j"/>
<use x="270.166016" xlink:href="#e"/>
<use x="333.544922" xlink:href="#d"/>
<use x="394.824219" xlink:href="#i"/>
</g>
</g>
<path d="m719.72 663.73v33.808q0 2.4 2.4 2.4h7.7425q2.4 0 2.4-2.4v-33.808q0-2.4-2.4-2.4h-7.7425q-2.4 0-2.4 2.4z" clip-path="url(#a)" fill="#fff" stroke="#fff"/>
<g clip-path="url(#a)">
<g transform="translate(723.79 663.73) rotate(90) scale(.08 -.08)">
<use xlink:href="#k"/>
<use x="44.083984" xlink:href="#f"/>
<use x="105.607422" xlink:href="#h"/>
<use x="144.970703" xlink:href="#l"/>
<use x="242.382812" xlink:href="#j"/>
<use x="270.166016" xlink:href="#e"/>
<use x="333.544922" xlink:href="#d"/>
<use x="394.824219" xlink:href="#i"/>
</g>
</g>
<path d="m832.69 446.82 1.4924 5.2651q0.65449 2.309 2.9635 1.6545l7.449-2.1114q2.309-0.65449 1.6545-2.9635l-1.4924-5.2651q-0.65449-2.309-2.9635-1.6545l-7.449 2.1114q-2.309 0.65449-1.6545 2.9635z" clip-path="url(#a)" fill="#fff" stroke="#fff"/>
<g clip-path="url(#a)">
<g transform="translate(836.6 445.72) rotate(74.175) scale(.08 -.08)">
<use xlink:href="#r"/>
</g>
</g>
<path d="m812.08 509.49 0.71448-5.0282q0.33763-2.3761-2.0385-2.7138l-7.6655-1.0892q-2.3761-0.33763-2.7138 2.0385l-0.71448 5.0282q-0.33763 2.3761 2.0385 2.7138l7.6655 1.0892q2.3761 0.33763 2.7138-2.0385z" clip-path="url(#a)" fill="#fff" stroke="#fff"/>
<g clip-path="url(#a)">
<g transform="translate(808.05 508.92) rotate(-81.913) scale(.08 -.08)">
<defs>
<path id="ai" d="m53.516 70.516v-9.625q-5.6094 2.6875-10.594 4-4.9844 1.3281-9.625 1.3281-8.0469 0-12.422-3.125t-4.375-8.8906q0-4.8438 2.9062-7.3125 2.9062-2.4531 11.016-3.9688l5.9531-1.2188q11.031-2.1094 16.281-7.4062t5.25-14.172q0-10.609-7.1094-16.078-7.0938-5.4688-20.812-5.4688-5.1719 0-11.016 1.1719-5.8281 1.1719-12.078 3.4688v10.156q6-3.3594 11.766-5.0781 5.7656-1.7031 11.328-1.7031 8.4375 0 13.031 3.3125 4.5938 3.3281 4.5938 9.4844 0 5.3594-3.2969 8.3906t-10.812 4.5469l-6.0156 1.1719q-11.031 2.1875-15.969 6.875-4.9219 4.6875-4.9219 13.047 0 9.6719 6.8125 15.234t18.766 5.5625q5.1406 0 10.453-0.9375 5.3281-0.92188 10.891-2.7656z"/>
</defs>
<use xlink:href="#ai"/>
</g>
</g>
<path d="m849.7 558.12v13.246q0 2.4 2.4 2.4h8q2.4 0 2.4-2.4v-13.246q0-2.4-2.4-2.4h-8q-2.4 0-2.4 2.4z" clip-path="url(#a)" fill="#fff" stroke="#fff"/>
<g clip-path="url(#a)">
<g transform="translate(853.99 558.12) rotate(90) scale(.08 -.08)">
<defs>
<path id="av" d="m21 76.422v-100h-8.2969v100z"/>
</defs>
<use xlink:href="#ai"/>
<use x="63.476562" xlink:href="#av"/>
<use x="97.167969" xlink:href="#r"/>
</g>
</g>
<path d="m849.83 663.73v33.808q0 2.4 2.4 2.4h7.7425q2.4 0 2.4-2.4v-33.808q0-2.4-2.4-2.4h-7.7425q-2.4 0-2.4 2.4z" clip-path="url(#a)" fill="#fff" stroke="#fff"/>
<g clip-path="url(#a)">
<g transform="translate(853.89 663.73) rotate(90) scale(.08 -.08)">
<use xlink:href="#k"/>
<use x="44.083984" xlink:href="#f"/>
<use x="105.607422" xlink:href="#h"/>
<use x="144.970703" xlink:href="#l"/>
<use x="242.382812" xlink:href="#j"/>
<use x="270.166016" xlink:href="#e"/>
<use x="333.544922" xlink:href="#d"/>
<use x="394.824219" xlink:href="#i"/>
</g>
</g>
<path d="m783.33 663.73v33.808q0 2.4 2.4 2.4h7.7425q2.4 0 2.4-2.4v-33.808q0-2.4-2.4-2.4h-7.7425q-2.4 0-2.4 2.4z" clip-path="url(#a)" fill="#fff" stroke="#fff"/>
<g clip-path="url(#a)">
<g transform="translate(787.39 663.73) rotate(90) scale(.08 -.08)">
<use xlink:href="#k"/>
<use x="44.083984" xlink:href="#f"/>
<use x="105.607422" xlink:href="#h"/>
<use x="144.970703" xlink:href="#l"/>
<use x="242.382812" xlink:href="#j"/>
<use x="270.166016" xlink:href="#e"/>
<use x="333.544922" xlink:href="#d"/>
<use x="394.824219" xlink:href="#i"/>
</g>
</g>
<path d="m355.42 663.73v33.808q0 2.4 2.4 2.4h7.7425q2.4 0 2.4-2.4v-33.808q0-2.4-2.4-2.4h-7.7425q-2.4 0-2.4 2.4z" clip-path="url(#a)" fill="#fff" stroke="#fff"/>
<g clip-path="url(#a)">
<g transform="translate(359.49 663.73) rotate(90) scale(.08 -.08)">
<use xlink:href="#k"/>
<use x="44.083984" xlink:href="#f"/>
<use x="105.607422" xlink:href="#h"/>
<use x="144.970703" xlink:href="#l"/>
<use x="242.382812" xlink:href="#j"/>
<use x="270.166016" xlink:href="#e"/>
<use x="333.544922" xlink:href="#d"/>
<use x="394.824219" xlink:href="#i"/>
</g>
</g>
<path d="m494.2 663.73v33.808q0 2.4 2.4 2.4h7.7425q2.4 0 2.4-2.4v-33.808q0-2.4-2.4-2.4h-7.7425q-2.4 0-2.4 2.4z" clip-path="url(#a)" fill="#fff" stroke="#fff"/>
<g clip-path="url(#a)">
<g transform="translate(498.27 663.73) rotate(90) scale(.08 -.08)">
<use xlink:href="#k"/>
<use x="44.083984" xlink:href="#f"/>
<use x="105.607422" xlink:href="#h"/>
<use x="144.970703" xlink:href="#l"/>
<use x="242.382812" xlink:href="#j"/>
<use x="270.166016" xlink:href="#e"/>
<use x="333.544922" xlink:href="#d"/>
<use x="394.824219" xlink:href="#i"/>
</g>
</g>
<path d="m659.01 663.73v33.808q0 2.4 2.4 2.4h7.7425q2.4 0 2.4-2.4v-33.808q0-2.4-2.4-2.4h-7.7425q-2.4 0-2.4 2.4z" clip-path="url(#a)" fill="#fff" stroke="#fff"/>
<g clip-path="url(#a)">
<g transform="translate(663.07 663.73) rotate(90) scale(.08 -.08)">
<use xlink:href="#k"/>
<use x="44.083984" xlink:href="#f"/>
<use x="105.607422" xlink:href="#h"/>
<use x="144.970703" xlink:href="#l"/>
<use x="242.382812" xlink:href="#j"/>
<use x="270.166016" xlink:href="#e"/>
<use x="333.544922" xlink:href="#d"/>
<use x="394.824219" xlink:href="#i"/>
</g>
</g>
<path d="m1396.3 663.73v33.808q0 2.4 2.4 2.4h7.7425q2.4 0 2.4-2.4v-33.808q0-2.4-2.4-2.4h-7.7425q-2.4 0-2.4 2.4z" clip-path="url(#a)" fill="#fff" stroke="#fff"/>
<g clip-path="url(#a)">
<g transform="translate(1400.3 663.73) rotate(90) scale(.08 -.08)">
<use xlink:href="#k"/>
<use x="44.083984" xlink:href="#f"/>
<use x="105.607422" xlink:href="#h"/>
<use x="144.970703" xlink:href="#l"/>
<use x="242.382812" xlink:href="#j"/>
<use x="270.166016" xlink:href="#e"/>
<use x="333.544922" xlink:href="#d"/>
<use x="394.824219" xlink:href="#i"/>
</g>
</g>
<defs>
<path id="b" d="m0 8.6603c2.2967 0 4.4997-0.9125 6.1237-2.5365 1.624-1.624 2.5365-3.827 2.5365-6.1237s-0.9125-4.4997-2.5365-6.1237c-1.624-1.624-3.827-2.5365-6.1237-2.5365s-4.4997 0.9125-6.1237 2.5365c-1.624 1.624-2.5365 3.827-2.5365 6.1237s0.9125 4.4997 2.5365 6.1237c1.624 1.624 3.827 2.5365 6.1237 2.5365z"/>
</defs>
<g clip-path="url(#a)" fill="#ffffff" stroke="#ffffff">
<use x="66.787879" y="738.181818" xlink:href="#b"/>
<use x="75.461629" y="738.181818" xlink:href="#b"/>
<use x="87.02663" y="738.181818" xlink:href="#b"/>
<use x="101.482881" y="738.181818" xlink:href="#b"/>
<use x="118.830382" y="738.181818" xlink:href="#b"/>
<use x="139.069133" y="738.181818" xlink:href="#b"/>
<use x="162.199134" y="738.181818" xlink:href="#b"/>
<use x="188.220386" y="738.181818" xlink:href="#b"/>
<use x="217.132887" y="738.181818" xlink:href="#b"/>
<use x="248.936639" y="738.181818" xlink:href="#b"/>
<use x="283.631641" y="738.181818" xlink:href="#b"/>
<use x="321.217893" y="738.181818" xlink:href="#b"/>
<use x="361.695396" y="738.181818" xlink:href="#b"/>
<use x="405.064148" y="738.181818" xlink:href="#b"/>
<use x="451.324151" y="738.181818" xlink:href="#b"/>
<use x="500.475403" y="738.181818" xlink:href="#b"/>
<use x="552.517906" y="738.181818" xlink:href="#b"/>
<use x="607.451659" y="738.181818" xlink:href="#b"/>
<use x="665.276663" y="738.181818" xlink:href="#b"/>
<use x="725.992916" y="738.181818" xlink:href="#b"/>
<use x="789.60042" y="738.181818" xlink:href="#b"/>
<use x="856.099174" y="738.181818" xlink:href="#b"/>
<use x="925.489177" y="738.181818" xlink:href="#b"/>
<use x="997.770432" y="738.181818" xlink:href="#b"/>
<use x="1072.942936" y="738.181818" xlink:href="#b"/>
<use x="1151.00669" y="738.181818" xlink:href="#b"/>
<use x="1231.961695" y="738.181818" xlink:href="#b"/>
<use x="1315.80795" y="738.181818" xlink:href="#b"/>
<use x="1402.545455" y="738.181818" xlink:href="#b"/>
<use x="419.86253" y="35.151515" xlink:href="#b"/>
<use x="66.787879" y="623.09084" xlink:href="#b"/>
<use x="856.002799" y="153.390406" xlink:href="#b"/>
<use x="118.830382" y="623.09084" xlink:href="#b"/>
<use x="392.414929" y="271.391464" xlink:href="#b"/>
<use x="139.069133" y="623.09084" xlink:href="#b"/>
<use x="204.122262" y="506.398819" xlink:href="#b"/>
<use x="370.369146" y="389.094759" xlink:href="#b"/>
<use x="283.631641" y="623.09084" xlink:href="#b"/>
<use x="457.106651" y="506.398819" xlink:href="#b"/>
<use x="321.217893" y="623.09084" xlink:href="#b"/>
<use x="405.064148" y="623.09084" xlink:href="#b"/>
<use x="451.324151" y="623.09084" xlink:href="#b"/>
<use x="552.517906" y="623.09084" xlink:href="#b"/>
<use x="607.451659" y="623.09084" xlink:href="#b"/>
<use x="162.199134" y="623.09084" xlink:href="#b"/>
<use x="188.220386" y="623.09084" xlink:href="#b"/>
<use x="217.132887" y="623.09084" xlink:href="#b"/>
<use x="248.936639" y="623.09084" xlink:href="#b"/>
<use x="87.99038" y="623.09084" xlink:href="#b"/>
<use x="801.647295" y="271.391464" xlink:href="#b"/>
<use x="961.629805" y="623.09084" xlink:href="#b"/>
<use x="1111.974813" y="623.09084" xlink:href="#b"/>
<use x="1316.7717" y="506.398819" xlink:href="#b"/>
<use x="1231.961695" y="623.09084" xlink:href="#b"/>
<use x="1315.80795" y="623.09084" xlink:href="#b"/>
<use x="725.992916" y="623.09084" xlink:href="#b"/>
<use x="822.849797" y="389.094759" xlink:href="#b"/>
<use x="856.099174" y="506.398819" xlink:href="#b"/>
<use x="856.099174" y="623.09084" xlink:href="#b"/>
<use x="789.60042" y="623.09084" xlink:href="#b"/>
<use x="361.695396" y="623.09084" xlink:href="#b"/>
<use x="500.475403" y="623.09084" xlink:href="#b"/>
<use x="665.276663" y="623.09084" xlink:href="#b"/>
<use x="1402.545455" y="623.09084" xlink:href="#b"/>
</g>
<g clip-path="url(#a)">
<g transform="translate(58.229 740.94) scale(.1 -.1)">
<defs>
<path id="au" d="m19.672 34.812v-26.703h15.828q7.9531 0 11.781 3.2969 3.8438 3.2969 3.8438 10.078 0 6.8438-3.8438 10.078-3.8281 3.25-11.781 3.25zm0 29.984v-21.969h14.609q7.2188 0 10.75 2.7031 3.5469 2.7188 3.5469 8.2812 0 5.5156-3.5469 8.25-3.5312 2.7344-10.75 2.7344zm-9.8594 8.1094h25.203q11.281 0 17.375-4.6875 6.1094-4.6875 6.1094-13.328 0-6.7031-3.125-10.656t-9.1875-4.9219q7.2812-1.5625 11.312-6.5312 4.0312-4.9531 4.0312-12.375 0-9.7656-6.6406-15.094-6.6406-5.3125-18.906-5.3125h-26.172z"/>
<path id="ag" d="m8.5 21.578v33.109h8.9844v-32.766q0-7.7656 3.0156-11.656 3.0312-3.875 9.0938-3.875 7.2656 0 11.484 4.6406 4.2344 4.6406 4.2344 12.656v31h8.9844v-54.688h-8.9844v8.4062q-3.2656-4.9844-7.5938-7.4062-4.3125-2.4219-10.031-2.4219-9.4219 0-14.312 5.8594-4.875 5.8594-4.875 17.141z"/>
<path id="o" d="m18.312 70.219v-15.531h18.5v-6.9844h-18.5v-29.688q0-6.6875 1.8281-8.5938t7.4531-1.9062h9.2188v-7.5156h-9.2188q-10.406 0-14.359 3.875-3.9531 3.8906-3.9531 14.141v29.688h-6.5938v6.9844h6.5938v15.531z"/>
</defs>
<use xlink:href="#au"/>
<use x="68.603516" xlink:href="#ag"/>
<use x="131.982422" xlink:href="#o"/>
</g>
</g>
<g clip-path="url(#a)">
<g transform="translate(72.112 740.94) scale(.1 -.1)">
<use xlink:href="#j"/>
<use x="27.783203" xlink:href="#o"/>
</g>
</g>
<g clip-path="url(#a)">
<g transform="translate(61.949 740.94) scale(.1 -.1)">
<defs>
<path id="s" d="m54.891 33.016v-33.016h-8.9844v32.719q0 7.7656-3.0312 11.609-3.0312 3.8594-9.0781 3.8594-7.2812 0-11.484-4.6406-4.2031-4.625-4.2031-12.641v-30.906h-9.0312v75.984h9.0312v-29.797q3.2344 4.9375 7.5938 7.375 4.375 2.4375 10.094 2.4375 9.4219 0 14.25-5.8281 4.8438-5.8281 4.8438-17.156z"/>
<path id="z" d="m18.109 8.2031v-29h-9.0312v75.484h9.0312v-8.2969q2.8438 4.875 7.1562 7.2344 4.3281 2.375 10.328 2.375 9.9688 0 16.188-7.9062 6.2344-7.9062 6.2344-20.797t-6.2344-20.812q-6.2188-7.9062-16.188-7.9062-6 0-10.328 2.375-4.3125 2.375-7.1562 7.25zm30.578 19.094q0 9.9062-4.0781 15.547t-11.203 5.6406q-7.1406 0-11.219-5.6406t-4.0781-15.547 4.0781-15.547 11.219-5.6406q7.125 0 11.203 5.6406t4.0781 15.547z"/>
<path id="t" d="m45.406 46.391v29.594h8.9844v-75.984h-8.9844v8.2031q-2.8281-4.875-7.1562-7.25-4.3125-2.375-10.375-2.375-9.9062 0-16.141 7.9062-6.2188 7.9219-6.2188 20.812t6.2188 20.797q6.2344 7.9062 16.141 7.9062 6.0625 0 10.375-2.375 4.3281-2.3594 7.1562-7.2344zm-30.609-19.094q0-9.9062 4.0781-15.547t11.203-5.6406 11.219 5.6406q4.1094 5.6406 4.1094 15.547t-4.1094 15.547q-4.0938 5.6406-11.219 5.6406t-11.203-5.6406-4.0781-15.547z"/>
</defs>
<use xlink:href="#s"/>
<use x="63.378906" xlink:href="#d"/>
<use x="124.658203" xlink:href="#z"/>
<use x="188.134766" xlink:href="#z"/>
<use x="251.611328" xlink:href="#f"/>
<use x="313.134766" xlink:href="#e"/>
<use x="376.513672" xlink:href="#f"/>
<use x="438.037109" xlink:href="#t"/>
</g>
</g>
<g clip-path="url(#a)">
<g transform="translate(91.33 740.94) scale(.1 -.1)">
<use xlink:href="#o"/>
<use x="39.208984" xlink:href="#s"/>
<use x="102.587891" xlink:href="#d"/>
<use x="163.867188" xlink:href="#o"/>
</g>
</g>
<g clip-path="url(#a)">
<g transform="translate(107 740.94) scale(.1 -.1)">
<defs>
<path id="as" d="m37.109 75.984v-7.4844h-8.5938q-4.8281 0-6.7188-1.9531-1.875-1.9531-1.875-7.0312v-4.8281h14.797v-6.9844h-14.797v-47.703h-9.0312v47.703h-8.5938v6.9844h8.5938v3.8125q0 9.125 4.25 13.297 4.25 4.1875 13.469 4.1875z"/>
</defs>
<use xlink:href="#d"/>
<use x="61.279297" xlink:href="#as"/>
<use x="94.734375" xlink:href="#o"/>
<use x="133.943359" xlink:href="#f"/>
<use x="195.466797" xlink:href="#h"/>
</g>
</g>
<g clip-path="url(#a)">
<g transform="translate(119.9 740.94) scale(.1 -.1)">
<defs>
<path id="aq" d="m4.2031 54.688h8.9844l11.234-42.672 11.172 42.672h10.594l11.234-42.672 11.188 42.672h8.9844l-14.312-54.688h-10.594l-11.766 44.828-11.812-44.828h-10.609z"/>
<path id="ar" d="m9.0781 75.984h9.0312v-44.875l26.812 23.578h11.469l-29-25.578 30.234-29.109h-11.719l-27.797 26.703v-26.703h-9.0312z"/>
<path id="ah" d="m45.406 27.984q0 9.7656-4.0312 15.125-4.0156 5.375-11.297 5.375-7.2188 0-11.25-5.375-4.0312-5.3594-4.0312-15.125 0-9.7188 4.0312-15.094t11.25-5.375q7.2812 0 11.297 5.375 4.0312 5.375 4.0312 15.094zm8.9844-21.203q0-13.953-6.2031-20.766-6.1875-6.8125-18.984-6.8125-4.7344 0-8.9375 0.70312t-8.1562 2.1719v8.7344q3.9531-2.1406 7.8125-3.1562 3.8594-1.0312 7.8594-1.0312 8.8438 0 13.234 4.6094t4.3906 13.938v4.4531q-2.7812-4.8438-7.125-7.2344t-10.406-2.3906q-10.047 0-16.203 7.6562-6.1562 7.6719-6.1562 20.328 0 12.688 6.1562 20.344 6.1562 7.6719 16.203 7.6719 6.0625 0 10.406-2.3906t7.125-7.2188v8.2969h8.9844z"/>
</defs>
<use xlink:href="#aq"/>
<use x="81.787109" xlink:href="#d"/>
<use x="143.066406" xlink:href="#i"/>
<use x="170.849609" xlink:href="#ar"/>
<use x="228.759766" xlink:href="#j"/>
<use x="256.542969" xlink:href="#e"/>
<use x="319.921875" xlink:href="#ah"/>
</g>
</g>
<g clip-path="url(#a)">
<g transform="translate(155.32 740.94) scale(.1 -.1)">
<defs>
<path id="q" d="m30.609 48.391q-7.2188 0-11.422-5.6406t-4.2031-15.453 4.1719-15.453q4.1875-5.6406 11.453-5.6406 7.1875 0 11.375 5.6562 4.2031 5.6719 4.2031 15.438 0 9.7188-4.2031 15.406-4.1875 5.6875-11.375 5.6875zm0 7.6094q11.719 0 18.406-7.625 6.7031-7.6094 6.7031-21.078 0-13.422-6.7031-21.078-6.6875-7.6406-18.406-7.6406-11.766 0-18.438 7.6406-6.6562 7.6562-6.6562 21.078 0 13.469 6.6562 21.078 6.6719 7.625 18.438 7.625z"/>
</defs>
<use xlink:href="#as"/>
<use x="35.205078" xlink:href="#q"/>
<use x="96.386719" xlink:href="#h"/>
</g>
</g>
<g clip-path="url(#a)">
<g transform="translate(185.16 740.94) scale(.1 -.1)">
<use xlink:href="#d"/>
</g>
</g>
<g clip-path="url(#a)">
<g transform="translate(206.34 740.94) scale(.1 -.1)">
<use xlink:href="#i"/>
<use x="27.783203" xlink:href="#q"/>
<use x="88.964844" xlink:href="#e"/>
<use x="152.34375" xlink:href="#ah"/>
</g>
</g>
<g clip-path="url(#a)">
<g transform="translate(237.64 740.94) scale(.1 -.1)">
<use xlink:href="#o"/>
<use x="39.208984" xlink:href="#j"/>
<use x="66.992188" xlink:href="#l"/>
<use x="164.404297" xlink:href="#f"/>
</g>
</g>
<g clip-path="url(#a)">
<g transform="translate(263.99 740.94) scale(.1 -.1)">
<use xlink:href="#o"/>
<use x="39.208984" xlink:href="#s"/>
<use x="102.587891" xlink:href="#h"/>
<use x="141.451172" xlink:href="#q"/>
<use x="202.632812" xlink:href="#ag"/>
<use x="266.011719" xlink:href="#ah"/>
<use x="329.488281" xlink:href="#s"/>
</g>
</g>
<g clip-path="url(#a)">
<g transform="translate(309.21 740.94) scale(.1 -.1)">
<defs>
<path id="y" d="m44.281 53.078v-8.5q-3.7969 1.9531-7.9062 2.9219-4.0938 0.98438-8.5 0.98438-6.6875 0-10.031-2.0469t-3.3438-6.1562q0-3.125 2.3906-4.9062t9.625-3.3906l3.0781-0.6875q9.5625-2.0469 13.594-5.7812t4.0312-10.422q0-7.625-6.0312-12.078-6.0312-4.4375-16.578-4.4375-4.3906 0-9.1562 0.85938t-10.031 2.5625v9.2812q4.9844-2.5938 9.8125-3.8906 4.8281-1.2812 9.5781-1.2812 6.3438 0 9.75 2.1719 3.4219 2.1719 3.4219 6.125 0 3.6562-2.4688 5.6094-2.4531 1.9531-10.812 3.7656l-3.125 0.73438q-8.3438 1.75-12.062 5.3906-3.7031 3.6406-3.7031 9.9844 0 7.7188 5.4688 11.906 5.4688 4.2031 15.531 4.2031 4.9688 0 9.3594-0.73438 4.4062-0.71875 8.1094-2.1875z"/>
</defs>
<use xlink:href="#y"/>
<use x="52.099609" xlink:href="#d"/>
<use x="113.378906" xlink:href="#e"/>
<use x="176.757812" xlink:href="#t"/>
</g>
</g>
<g clip-path="url(#a)">
<g transform="translate(360.11 740.94) scale(.1 -.1)">
<defs>
<path id="af" d="m11.719 12.406h10.297v-8.4062l-8-15.625h-6.2969l4 15.625z"/>
</defs>
<use xlink:href="#af"/>
</g>
</g>
<g clip-path="url(#a)">
<g transform="translate(395.66 740.94) scale(.1 -.1)">
<use xlink:href="#d"/>
<use x="61.279297" xlink:href="#e"/>
<use x="124.658203" xlink:href="#t"/>
</g>
</g>
<g clip-path="url(#a)">
<g transform="translate(438.07 740.94) scale(.1 -.1)">
<defs>
<path id="aa" d="m48.781 52.594v-8.4062q-3.8125 2.1094-7.6406 3.1562t-7.7344 1.0469q-8.75 0-13.594-5.5469-4.8281-5.5312-4.8281-15.547t4.8281-15.562q4.8438-5.5312 13.594-5.5312 3.9062 0 7.7344 1.0469t7.6406 3.1562v-8.3125q-3.7656-1.75-7.7969-2.625-4.0156-0.89062-8.5625-0.89062-12.359 0-19.641 7.7656-7.2656 7.7656-7.2656 20.953 0 13.375 7.3438 21.031 7.3594 7.6719 20.156 7.6719 4.1406 0 8.0938-0.85938 3.9531-0.84375 7.6719-2.5469z"/>
</defs>
<use xlink:href="#h"/>
<use x="38.863281" xlink:href="#q"/>
<use x="100.044922" xlink:href="#aa"/>
<use x="155.025391" xlink:href="#ar"/>
<use x="212.935547" xlink:href="#y"/>
</g>
</g>
<g clip-path="url(#a)">
<g transform="translate(498.89 740.94) scale(.1 -.1)">
<use xlink:href="#af"/>
</g>
</g>
<g clip-path="url(#a)">
<g transform="translate(543.11 740.94) scale(.1 -.1)">
<use xlink:href="#d"/>
<use x="61.279297" xlink:href="#e"/>
<use x="124.658203" xlink:href="#t"/>
</g>
</g>
<g clip-path="url(#a)">
<g transform="translate(594.53 740.94) scale(.1 -.1)">
<use xlink:href="#y"/>
<use x="52.099609" xlink:href="#e"/>
<use x="115.478516" xlink:href="#q"/>
<use x="176.660156" xlink:href="#aq"/>
</g>
</g>
<g clip-path="url(#a)">
<g transform="translate(663.69 740.94) scale(.1 -.1)">
<use xlink:href="#af"/>
</g>
</g>
<g clip-path="url(#a)">
<g transform="translate(717.79 740.94) scale(.1 -.1)">
<use xlink:href="#o"/>
<use x="39.208984" xlink:href="#s"/>
<use x="102.587891" xlink:href="#f"/>
</g>
</g>
<g clip-path="url(#a)">
<g transform="translate(778.44 740.94) scale(.1 -.1)">
<use xlink:href="#i"/>
<use x="27.783203" xlink:href="#j"/>
<use x="55.566406" xlink:href="#o"/>
<use x="94.775391" xlink:href="#o"/>
<use x="133.984375" xlink:href="#i"/>
<use x="161.767578" xlink:href="#f"/>
</g>
</g>
<g clip-path="url(#a)">
<g transform="translate(840.49 740.94) scale(.1 -.1)">
<use xlink:href="#z"/>
<use x="63.476562" xlink:href="#h"/>
<use x="104.589844" xlink:href="#j"/>
<use x="132.373047" xlink:href="#e"/>
<use x="195.751953" xlink:href="#aa"/>
<use x="250.732422" xlink:href="#f"/>
</g>
</g>
<g clip-path="url(#a)">
<g transform="translate(920.46 740.94) scale(.1 -.1)">
<use xlink:href="#d"/>
<use x="61.279297" xlink:href="#o"/>
</g>
</g>
<g clip-path="url(#a)">
<g transform="translate(988.75 740.94) scale(.1 -.1)">
<use xlink:href="#i"/>
<use x="27.783203" xlink:href="#d"/>
<use x="89.0625" xlink:href="#y"/>
<use x="141.162109" xlink:href="#o"/>
</g>
</g>
<g clip-path="url(#a)">
<g transform="translate(1059.2 740.94) scale(.1 -.1)">
<use xlink:href="#aa"/>
<use x="54.980469" xlink:href="#d"/>
<use x="116.259766" xlink:href="#l"/>
<use x="213.671875" xlink:href="#f"/>
</g>
</g>
<g clip-path="url(#a)">
<g transform="translate(1138.4 740.94) scale(.1 -.1)">
<use xlink:href="#ag"/>
<use x="63.378906" xlink:href="#z"/>
<use x="126.855469" xlink:href="#q"/>
<use x="188.037109" xlink:href="#e"/>
</g>
</g>
<g clip-path="url(#a)">
<g transform="translate(1228.9 740.94) scale(.1 -.1)">
<use xlink:href="#d"/>
</g>
</g>
<g clip-path="url(#a)">
<g transform="translate(1304.6 740.94) scale(.1 -.1)">
<use xlink:href="#h"/>
<use x="38.863281" xlink:href="#q"/>
<use x="100.044922" xlink:href="#d"/>
<use x="161.324219" xlink:href="#t"/>
</g>
</g>
<g clip-path="url(#a)">
<g transform="translate(1401 740.94) scale(.1 -.1)">
<defs>
<path id="g" d="m10.688 12.406h10.312v-12.406h-10.312z"/>
</defs>
<use xlink:href="#g"/>
</g>
</g>
<g clip-path="url(#a)">
<g transform="translate(411.91 37.911) scale(.1 -.1)">
<defs>
<path id="c" d="m12.406 8.2969h16.109v55.625l-17.531-3.5156v8.9844l17.438 3.5156h9.8594v-64.609h16.109v-8.2969h-41.984z"/>
</defs>
<use xlink:href="#c"/>
<use x="63.623047" xlink:href="#g"/>
<use x="95.410156" xlink:href="#c"/>
</g>
</g>
<g clip-path="url(#a)">
<g transform="translate(58.836 625.85) scale(.1 -.1)">
<defs>
<path id="m" d="m19.188 8.2969h34.422v-8.2969h-46.281v8.2969q5.6094 5.8125 15.297 15.594 9.7031 9.7969 12.188 12.641 4.7344 5.3125 6.6094 9 1.8906 3.6875 1.8906 7.25 0 5.8125-4.0781 9.4688-4.0781 3.6719-10.625 3.6719-4.6406 0-9.7969-1.6094-5.1406-1.6094-11-4.8906v9.9688q5.9531 2.3906 11.125 3.6094 5.1875 1.2188 9.4844 1.2188 11.328 0 18.062-5.6719 6.7344-5.6562 6.7344-15.125 0-4.5-1.6875-8.5312-1.6719-4.0156-6.125-9.4844-1.2188-1.4219-7.7656-8.1875-6.5312-6.7656-18.453-18.922z"/>
</defs>
<use xlink:href="#c"/>
<use x="63.623047" xlink:href="#g"/>
<use x="95.410156" xlink:href="#m"/>
</g>
</g>
<g clip-path="url(#a)">
<g transform="translate(848.05 156.15) scale(.1 -.1)">
<defs>
<path id="n" d="m40.578 39.312q7.0781-1.5156 11.047-6.3125 3.9844-4.7812 3.9844-11.812 0-10.781-7.4219-16.703-7.4219-5.9062-21.094-5.9062-4.5781 0-9.4375 0.90625t-10.031 2.7188v9.5156q4.0938-2.3906 8.9688-3.6094 4.8906-1.2188 10.219-1.2188 9.2656 0 14.125 3.6562t4.8594 10.641q0 6.4531-4.5156 10.078-4.5156 3.6406-12.562 3.6406h-8.5v8.1094h8.8906q7.2656 0 11.125 2.9062t3.8594 8.375q0 5.6094-3.9844 8.6094-3.9688 3.0156-11.391 3.0156-4.0625 0-8.7031-0.89062-4.6406-0.875-10.203-2.7188v8.7812q5.625 1.5625 10.531 2.3438t9.25 0.78125q11.234 0 17.766-5.1094 6.5469-5.0938 6.5469-13.781 0-6.0625-3.4688-10.234t-9.8594-5.7812z"/>
</defs>
<use xlink:href="#c"/>
<use x="63.623047" xlink:href="#g"/>
<use x="95.410156" xlink:href="#n"/>
</g>
</g>
<g clip-path="url(#a)">
<g transform="translate(110.88 625.85) scale(.1 -.1)">
<defs>
<path id="x" d="m37.797 64.312-24.906-38.922h24.906zm-2.5938 8.5938h12.406v-47.516h10.406v-8.2031h-10.406v-17.188h-9.8125v17.188h-32.906v9.5156z"/>
</defs>
<use xlink:href="#c"/>
<use x="63.623047" xlink:href="#g"/>
<use x="95.410156" xlink:href="#x"/>
</g>
</g>
<g clip-path="url(#a)">
<g transform="translate(384.46 274.15) scale(.1 -.1)">
<defs>
<path id="w" d="m10.797 72.906h38.719v-8.3125h-29.688v-17.859q2.1406 0.73438 4.2812 1.0938 2.1562 0.35938 4.3125 0.35938 12.203 0 19.328-6.6875 7.1406-6.6875 7.1406-18.109 0-11.766-7.3281-18.297-7.3281-6.5156-20.656-6.5156-4.5938 0-9.3594 0.78125-4.75 0.78125-9.8281 2.3438v9.9219q4.3906-2.3906 9.0781-3.5625t9.9062-1.1719q8.4531 0 13.375 4.4375 4.9375 4.4375 4.9375 12.062 0 7.6094-4.9375 12.047-4.9219 4.4531-13.375 4.4531-3.9531 0-7.8906-0.875-3.9219-0.875-8.0156-2.7344z"/>
</defs>
<use xlink:href="#c"/>
<use x="63.623047" xlink:href="#g"/>
<use x="95.410156" xlink:href="#w"/>
</g>
</g>
<g clip-path="url(#a)">
<g transform="translate(131.12 625.85) scale(.1 -.1)">
<defs>
<path id="ad" d="m8.2031 72.906h46.875v-4.2031l-26.469-68.703h-10.297l24.906 64.594h-35.016z"/>
</defs>
<use xlink:href="#c"/>
<use x="63.623047" xlink:href="#g"/>
<use x="95.410156" xlink:href="#ad"/>
</g>
</g>
<g clip-path="url(#a)">
<g transform="translate(196.17 509.16) scale(.1 -.1)">
<defs>
<path id="ac" d="m31.781 34.625q-7.0312 0-11.062-3.7656-4.0156-3.7656-4.0156-10.344 0-6.5938 4.0156-10.359 4.0312-3.7656 11.062-3.7656t11.078 3.7812q4.0625 3.7969 4.0625 10.344 0 6.5781-4.0312 10.344-4.0156 3.7656-11.109 3.7656zm-9.8594 4.1875q-6.3438 1.5625-9.8906 5.9062-3.5312 4.3594-3.5312 10.609 0 8.7344 6.2188 13.812 6.2344 5.0781 17.062 5.0781 10.891 0 17.094-5.0781t6.2031-13.812q0-6.25-3.5469-10.609-3.5312-4.3438-9.8281-5.9062 7.125-1.6562 11.094-6.5 3.9844-4.8281 3.9844-11.797 0-10.609-6.4688-16.281-6.4688-5.6562-18.531-5.6562-12.047 0-18.531 5.6562-6.4688 5.6719-6.4688 16.281 0 6.9688 4 11.797 4.0156 4.8438 11.141 6.5zm-3.6094 15.578q0-5.6562 3.5312-8.8281 3.5469-3.1719 9.9375-3.1719 6.3594 0 9.9375 3.1719 3.5938 3.1719 3.5938 8.8281 0 5.6719-3.5938 8.8438-3.5781 3.1719-9.9375 3.1719-6.3906 0-9.9375-3.1719-3.5312-3.1719-3.5312-8.8438z"/>
</defs>
<use xlink:href="#c"/>
<use x="63.623047" xlink:href="#g"/>
<use x="95.410156" xlink:href="#ac"/>
</g>
</g>
<g clip-path="url(#a)">
<g transform="translate(362.42 391.85) scale(.1 -.1)">
<defs>
<path id="v" d="m10.984 1.5156v8.9844q3.7188-1.7656 7.5156-2.6875 3.8125-0.92188 7.4844-0.92188 9.7656 0 14.906 6.5625 5.1562 6.5625 5.8906 19.953-2.8281-4.2031-7.1875-6.4531-4.3438-2.25-9.6094-2.25-10.938 0-17.312 6.6094-6.375 6.625-6.375 18.109 0 11.219 6.6406 18 6.6406 6.7969 17.672 6.7969 12.656 0 19.312-9.7031 6.6719-9.6875 6.6719-28.141 0-17.234-8.1875-27.516-8.1719-10.281-21.984-10.281-3.7188 0-7.5312 0.73438-3.7969 0.73438-7.9062 2.2031zm19.625 30.906q6.6406 0 10.516 4.5312 3.8906 4.5469 3.8906 12.469 0 7.8594-3.8906 12.422-3.875 4.5625-10.516 4.5625t-10.516-4.5625-3.875-12.422q0-7.9219 3.875-12.469 3.875-4.5312 10.516-4.5312z"/>
</defs>
<use xlink:href="#c"/>
<use x="63.623047" xlink:href="#g"/>
<use x="95.410156" xlink:href="#v"/>
</g>
</g>
<g clip-path="url(#a)">
<g transform="translate(272.5 625.85) scale(.1 -.1)">
<defs>
<path id="ap" d="m31.781 66.406q-7.6094 0-11.453-7.5-3.8281-7.4844-3.8281-22.531 0-14.984 3.8281-22.484 3.8438-7.5 11.453-7.5 7.6719 0 11.5 7.5 3.8438 7.5 3.8438 22.484 0 15.047-3.8438 22.531-3.8281 7.5-11.5 7.5zm0 7.8125q12.266 0 18.734-9.7031 6.4688-9.6875 6.4688-28.141 0-18.406-6.4688-28.109-6.4688-9.6875-18.734-9.6875-12.25 0-18.719 9.6875-6.4688 9.7031-6.4688 28.109 0 18.453 6.4688 28.141 6.4688 9.7031 18.719 9.7031z"/>
</defs>
<use xlink:href="#c"/>
<use x="63.623047" xlink:href="#g"/>
<use x="95.410156" xlink:href="#c"/>
<use x="159.033203" xlink:href="#ap"/>
</g>
</g>
<g clip-path="url(#a)">
<g transform="translate(445.97 509.16) scale(.1 -.1)">
<use xlink:href="#c"/>
<use x="63.623047" xlink:href="#g"/>
<use x="95.410156" xlink:href="#c"/>
<use x="159.033203" xlink:href="#c"/>
</g>
</g>
<g clip-path="url(#a)">
<g transform="translate(310.09 625.85) scale(.1 -.1)">
<use xlink:href="#c"/>
<use x="63.623047" xlink:href="#g"/>
<use x="95.410156" xlink:href="#c"/>
<use x="159.033203" xlink:href="#m"/>
</g>
</g>
<g clip-path="url(#a)">
<g transform="translate(393.93 625.85) scale(.1 -.1)">
<use xlink:href="#c"/>
<use x="63.623047" xlink:href="#g"/>
<use x="95.410156" xlink:href="#c"/>
<use x="159.033203" xlink:href="#n"/>
</g>
</g>
<g clip-path="url(#a)">
<g transform="translate(440.19 625.85) scale(.1 -.1)">
<use xlink:href="#c"/>
<use x="63.623047" xlink:href="#g"/>
<use x="95.410156" xlink:href="#c"/>
<use x="159.033203" xlink:href="#x"/>
</g>
</g>
<g clip-path="url(#a)">
<g transform="translate(541.39 625.85) scale(.1 -.1)">
<use xlink:href="#c"/>
<use x="63.623047" xlink:href="#g"/>
<use x="95.410156" xlink:href="#c"/>
<use x="159.033203" xlink:href="#w"/>
</g>
</g>
<g clip-path="url(#a)">
<g transform="translate(596.32 625.85) scale(.1 -.1)">
<defs>
<path id="ae" d="m33.016 40.375q-6.6406 0-10.531-4.5469-3.875-4.5312-3.875-12.438 0-7.8594 3.875-12.438 3.8906-4.5625 10.531-4.5625t10.516 4.5625q3.875 4.5781 3.875 12.438 0 7.9062-3.875 12.438-3.875 4.5469-10.516 4.5469zm19.578 30.922v-8.9844q-3.7188 1.75-7.5 2.6719-3.7812 0.9375-7.5 0.9375-9.7656 0-14.922-6.5938-5.1406-6.5938-5.875-19.922 2.875 4.25 7.2188 6.5156 4.3594 2.2656 9.5781 2.2656 10.984 0 17.359-6.6719 6.375-6.6562 6.375-18.125 0-11.234-6.6406-18.031-6.6406-6.7812-17.672-6.7812-12.656 0-19.344 9.6875-6.6875 9.7031-6.6875 28.109 0 17.281 8.2031 27.562t22.016 10.281q3.7188 0 7.5-0.73438t7.8906-2.1875z"/>
</defs>
<use xlink:href="#c"/>
<use x="63.623047" xlink:href="#g"/>
<use x="95.410156" xlink:href="#c"/>
<use x="159.033203" xlink:href="#ae"/>
</g>
</g>
<g clip-path="url(#a)">
<g transform="translate(151.07 625.85) scale(.1 -.1)">
<use xlink:href="#c"/>
<use x="63.623047" xlink:href="#g"/>
<use x="95.410156" xlink:href="#c"/>
<use x="159.033203" xlink:href="#v"/>
</g>
</g>
<g clip-path="url(#a)">
<g transform="translate(177.09 625.85) scale(.1 -.1)">
<use xlink:href="#c"/>
<use x="63.623047" xlink:href="#g"/>
<use x="95.410156" xlink:href="#m"/>
<use x="159.033203" xlink:href="#ap"/>
</g>
</g>
<g clip-path="url(#a)">
<g transform="translate(206 625.85) scale(.1 -.1)">
<use xlink:href="#c"/>
<use x="63.623047" xlink:href="#g"/>
<use x="95.410156" xlink:href="#m"/>
<use x="159.033203" xlink:href="#c"/>
</g>
</g>
<g clip-path="url(#a)">
<g transform="translate(237.8 625.85) scale(.1 -.1)">
<use xlink:href="#c"/>
<use x="63.623047" xlink:href="#g"/>
<use x="95.410156" xlink:href="#m"/>
<use x="159.033203" xlink:href="#m"/>
</g>
</g>
<g clip-path="url(#a)">
<g transform="translate(76.858 625.85) scale(.1 -.1)">
<use xlink:href="#c"/>
<use x="63.623047" xlink:href="#g"/>
<use x="95.410156" xlink:href="#m"/>
<use x="159.033203" xlink:href="#n"/>
</g>
</g>
<g clip-path="url(#a)">
<g transform="translate(790.51 274.15) scale(.1 -.1)">
<use xlink:href="#c"/>
<use x="63.623047" xlink:href="#g"/>
<use x="95.410156" xlink:href="#m"/>
<use x="159.033203" xlink:href="#x"/>
</g>
</g>
<g clip-path="url(#a)">
<g transform="translate(950.5 625.85) scale(.1 -.1)">
<use xlink:href="#c"/>
<use x="63.623047" xlink:href="#g"/>
<use x="95.410156" xlink:href="#m"/>
<use x="159.033203" xlink:href="#w"/>
</g>
</g>
<g clip-path="url(#a)">
<g transform="translate(1100.8 625.85) scale(.1 -.1)">
<use xlink:href="#c"/>
<use x="63.623047" xlink:href="#g"/>
<use x="95.410156" xlink:href="#m"/>
<use x="159.033203" xlink:href="#ae"/>
</g>
</g>
<g clip-path="url(#a)">
<g transform="translate(1305.6 509.16) scale(.1 -.1)">
<use xlink:href="#c"/>
<use x="63.623047" xlink:href="#g"/>
<use x="95.410156" xlink:href="#m"/>
<use x="159.033203" xlink:href="#ad"/>
</g>
</g>
<g clip-path="url(#a)">
<g transform="translate(1220.8 625.85) scale(.1 -.1)">
<use xlink:href="#c"/>
<use x="63.623047" xlink:href="#g"/>
<use x="95.410156" xlink:href="#m"/>
<use x="159.033203" xlink:href="#ac"/>
</g>
</g>
<g clip-path="url(#a)">
<g transform="translate(1304.7 625.85) scale(.1 -.1)">
<use xlink:href="#c"/>
<use x="63.623047" xlink:href="#g"/>
<use x="95.410156" xlink:href="#m"/>
<use x="159.033203" xlink:href="#v"/>
</g>
</g>
<g clip-path="url(#a)">
<g transform="translate(714.86 625.85) scale(.1 -.1)">
<use xlink:href="#c"/>
<use x="63.623047" xlink:href="#g"/>
<use x="95.410156" xlink:href="#n"/>
<use x="159.033203" xlink:href="#c"/>
</g>
</g>
<g clip-path="url(#a)">
<g transform="translate(811.72 391.85) scale(.1 -.1)">
<use xlink:href="#c"/>
<use x="63.623047" xlink:href="#g"/>
<use x="95.410156" xlink:href="#n"/>
<use x="159.033203" xlink:href="#m"/>
</g>
</g>
<g clip-path="url(#a)">
<g transform="translate(844.97 509.16) scale(.1 -.1)">
<use xlink:href="#c"/>
<use x="63.623047" xlink:href="#g"/>
<use x="95.410156" xlink:href="#n"/>
<use x="159.033203" xlink:href="#n"/>
</g>
</g>
<g clip-path="url(#a)">
<g transform="translate(844.97 625.85) scale(.1 -.1)">
<use xlink:href="#c"/>
<use x="63.623047" xlink:href="#g"/>
<use x="95.410156" xlink:href="#n"/>
<use x="159.033203" xlink:href="#x"/>
</g>
</g>
<g clip-path="url(#a)">
<g transform="translate(778.47 625.85) scale(.1 -.1)">
<use xlink:href="#c"/>
<use x="63.623047" xlink:href="#g"/>
<use x="95.410156" xlink:href="#n"/>
<use x="159.033203" xlink:href="#w"/>
</g>
</g>
<g clip-path="url(#a)">
<g transform="translate(350.56 625.85) scale(.1 -.1)">
<use xlink:href="#c"/>
<use x="63.623047" xlink:href="#g"/>
<use x="95.410156" xlink:href="#n"/>
<use x="159.033203" xlink:href="#ae"/>
</g>
</g>
<g clip-path="url(#a)">
<g transform="translate(489.34 625.85) scale(.1 -.1)">
<use xlink:href="#c"/>
<use x="63.623047" xlink:href="#g"/>
<use x="95.410156" xlink:href="#n"/>
<use x="159.033203" xlink:href="#ad"/>
</g>
</g>
<g clip-path="url(#a)">
<g transform="translate(654.14 625.85) scale(.1 -.1)">
<use xlink:href="#c"/>
<use x="63.623047" xlink:href="#g"/>
<use x="95.410156" xlink:href="#n"/>
<use x="159.033203" xlink:href="#ac"/>
</g>
</g>
<g clip-path="url(#a)">
<g transform="translate(1391.4 625.85) scale(.1 -.1)">
<use xlink:href="#c"/>
<use x="63.623047" xlink:href="#g"/>
<use x="95.410156" xlink:href="#n"/>
<use x="159.033203" xlink:href="#v"/>
</g>
</g>
<defs>
<clipPath id="a">
<rect width="1469.3" height="773.33"/>
</clipPath>
</defs>
</svg>
