<?xml version="1.0" encoding="UTF-8"?>
<!DOCTYPE svg  PUBLIC '-//W3C//DTD SVG 1.1//EN'  'http://www.w3.org/Graphics/SVG/1.1/DTD/svg11.dtd'>
<svg width="1418.7pt" height="746.67pt" version="1.1" viewBox="0 0 1418.7 746.67" xmlns="http://www.w3.org/2000/svg" xmlns:xlink="http://www.w3.org/1999/xlink">
<metadata>
<rdf:RDF xmlns:cc="http://creativecommons.org/ns#" xmlns:dc="http://purl.org/dc/elements/1.1/" xmlns:rdf="http://www.w3.org/1999/02/22-rdf-syntax-ns#">
<cc:Work>
<dc:type rdf:resource="http://purl.org/dc/dcmitype/StillImage"/>
<dc:date>2021-02-23T10:46:16.742469</dc:date>
<dc:format>image/svg+xml</dc:format>
<dc:creator>
<cc:Agent>
<dc:title>Matplotlib v3.3.3, https://matplotlib.org/</dc:title>
</cc:Agent>
</dc:creator>
</cc:Work>
</rdf:RDF>
</metadata>
<defs>
<style type="text/css">*{stroke-linecap:butt;stroke-linejoin:round;}</style>
</defs>
<path d="m0 746.67h1418.7v-746.67h-1418.7z" fill="#fff"/>
<g fill="none" stroke="#000">
<path d="m573.43 33.939-487.55 114.16" clip-path="url(#a)"/>
<path d="m573.43 33.939-205.13 567.67" clip-path="url(#a)"/>
<path d="m573.43 33.939-47.147 228.09" clip-path="url(#a)"/>
<path d="m573.43 33.939 610.98 455" clip-path="url(#a)"/>
<path d="m573.43 33.939-246.83 567.67" clip-path="url(#a)"/>
<path d="m573.43 33.939 375.68 567.67" clip-path="url(#a)"/>
<path d="m85.881 148.1-21.396 453.5" clip-path="url(#a)"/>
<path d="m85.881 148.1-12.46 453.5" clip-path="url(#a)"/>
<path d="m85.881 148.1 33.856 113.93" clip-path="url(#a)"/>
<path d="m368.29 601.6v111.12" clip-path="url(#a)"/>
<path d="m526.28 262.03-113.31 339.57" clip-path="url(#a)"/>
<path d="m526.28 262.03-65.651 339.57" clip-path="url(#a)"/>
<path d="m526.28 262.03 11.79 339.57" clip-path="url(#a)"/>
<path d="m526.28 262.03 167.17 113.64" clip-path="url(#a)"/>
<path d="m1184.4 488.94 169.78 112.67" clip-path="url(#a)"/>
<path d="m1184.4 488.94-160.84 112.67" clip-path="url(#a)"/>
<path d="m1184.4 488.94-83.398 112.67" clip-path="url(#a)"/>
<path d="m1184.4 488.94-2.9785 112.67" clip-path="url(#a)"/>
<path d="m1184.4 488.94 80.42 112.67" clip-path="url(#a)"/>
<path d="m1184.4 488.94 166.8 112.67" clip-path="url(#a)"/>
<path d="m1023.6 601.6v111.12" clip-path="url(#a)"/>
<path d="m1101 601.6v111.12" clip-path="url(#a)"/>
<path d="m1181.4 601.6v111.12" clip-path="url(#a)"/>
<path d="m412.97 601.6v111.12" clip-path="url(#a)"/>
<path d="m460.63 601.6v111.12" clip-path="url(#a)"/>
<path d="m538.07 601.6-26.807 111.12" clip-path="url(#a)"/>
<path d="m538.07 601.6 26.807 111.12" clip-path="url(#a)"/>
<path d="m693.45 375.68-71.981 225.93" clip-path="url(#a)"/>
<path d="m693.45 375.68-12.41 225.93" clip-path="url(#a)"/>
<path d="m693.45 375.68 84.391 113.26" clip-path="url(#a)"/>
<path d="m621.47 601.6v111.12" clip-path="url(#a)"/>
<path d="m681.04 601.6v111.12" clip-path="url(#a)"/>
<path d="m777.84 488.94-96.802 112.67" clip-path="url(#a)" stroke-dasharray="3.7,1.6"/>
<path d="m777.84 488.94-34.253 112.67" clip-path="url(#a)"/>
<path d="m777.84 488.94 31.274 112.67" clip-path="url(#a)"/>
<path d="m777.84 488.94 99.78 112.67" clip-path="url(#a)"/>
<path d="m743.59 601.6v111.12" clip-path="url(#a)"/>
<path d="m809.11 601.6v111.12" clip-path="url(#a)"/>
<path d="m877.62 601.6v111.12" clip-path="url(#a)"/>
<path d="m64.485 601.6v111.12" clip-path="url(#a)"/>
<path d="m73.42 601.6v111.12" clip-path="url(#a)"/>
<path d="m119.74 262.03-34.402 339.57" clip-path="url(#a)"/>
<path d="m119.74 262.03-19.509 339.57" clip-path="url(#a)"/>
<path d="m119.74 262.03 55.549 113.64" clip-path="url(#a)"/>
<path d="m119.74 262.03-1.6382 339.57" clip-path="url(#a)"/>
<path d="m85.334 601.6v111.12" clip-path="url(#a)"/>
<path d="m100.23 601.6v111.12" clip-path="url(#a)"/>
<path d="m175.29 375.68-75.059 225.93" clip-path="url(#a)" stroke-dasharray="3.7,1.6"/>
<path d="m175.29 375.68-36.338 225.93" clip-path="url(#a)"/>
<path d="m175.29 375.68-12.51 225.93" clip-path="url(#a)"/>
<path d="m175.29 375.68 29.189 225.93" clip-path="url(#a)"/>
<path d="m175.29 375.68 94.717 113.26" clip-path="url(#a)"/>
<path d="m138.95 601.6v111.12" clip-path="url(#a)"/>
<path d="m162.78 601.6v111.12" clip-path="url(#a)"/>
<path d="m204.48 601.6-14.893 111.12" clip-path="url(#a)"/>
<path d="m204.48 601.6 14.893 111.12" clip-path="url(#a)"/>
<path d="m270 488.94-17.871 112.67" clip-path="url(#a)"/>
<path d="m270 488.94 17.871 112.67" clip-path="url(#a)"/>
<path d="m252.13 601.6v111.12" clip-path="url(#a)"/>
<path d="m287.87 601.6v111.12" clip-path="url(#a)"/>
<path d="m118.1 601.6v111.12" clip-path="url(#a)"/>
<path d="m326.59 601.6v111.12" clip-path="url(#a)"/>
<path d="m949.1 601.6v111.12" clip-path="url(#a)"/>
<path d="m1264.8 601.6v111.12" clip-path="url(#a)"/>
<path d="m1351.2 601.6v111.12" clip-path="url(#a)"/>
</g>
<path d="m328.15 97.812 5.8578-1.3716q2.3368-0.54717 1.7896-2.884l-1.7652-7.5386q-0.54717-2.3368-2.884-1.7896l-5.8578 1.3716q-2.3368 0.54717-1.7896 2.884l1.7652 7.5386q0.54717 2.3368 2.884 1.7896z" clip-path="url(#a)" fill="#fff" stroke="#fff"/>
<g clip-path="url(#a)">
<g transform="translate(327.23 93.855) rotate(-13.179) scale(.08 -.08)">
<defs>
<path id="ad" d="m9.8125 72.906h9.8594v-29.891h35.844v29.891h9.8594v-72.906h-9.8594v34.719h-35.844v-34.719h-9.8594z"/>
</defs>
<use xlink:href="#ad"/>
</g>
</g>
<path d="m476 322 1.5149-4.1922q0.81565-2.2571-1.4415-3.0728l-7.2817-2.6313q-2.2571-0.81565-3.0728 1.4415l-1.5149 4.1922q-0.81565 2.2571 1.4415 3.0728l7.2817 2.6313q2.2571 0.81565 3.0728-1.4415z" clip-path="url(#a)" fill="#fff" stroke="#fff"/>
<g clip-path="url(#a)">
<g transform="translate(472.18 320.62) rotate(-70.132) scale(.08 -.08)">
<defs>
<path id="al" d="m9.8125 72.906h9.8594v-64.609h35.5v-8.2969h-45.359z"/>
</defs>
<use xlink:href="#al"/>
</g>
</g>
<path d="m555.38 152.2 1.2178-5.8917q0.48582-2.3503-1.8645-2.8361l-7.5822-1.5673q-2.3503-0.48582-2.8361 1.8645l-1.2178 5.8917q-0.48582 2.3503 1.8645 2.8361l7.5822 1.5673q2.3503 0.48582 2.8361-1.8645z" clip-path="url(#a)" fill="#fff" stroke="#fff"/>
<g clip-path="url(#a)">
<g transform="translate(551.41 151.38) rotate(-78.321) scale(.08 -.08)">
<use xlink:href="#ad"/>
</g>
</g>
<path d="m872.76 264.67 4.8252 3.5934q1.9249 1.4335 3.3583-0.49142l4.6244-6.2098q1.4335-1.9249-0.49142-3.3583l-4.8252-3.5934q-1.9249-1.4335-3.3583 0.49142l-4.6244 6.2098q-1.4335 1.9249 0.49142 3.3583z" clip-path="url(#a)" fill="#fff" stroke="#fff"/>
<g clip-path="url(#a)">
<g transform="translate(875.19 261.41) rotate(36.675) scale(.08 -.08)">
<use xlink:href="#ad"/>
</g>
</g>
<path d="m454.59 322.96 2.3347-5.3694q0.95701-2.2009-1.2439-3.1579l-7.1003-3.0874q-2.2009-0.95701-3.1579 1.2439l-2.3347 5.3694q-0.95701 2.2009 1.2439 3.1579l7.1003 3.0874q2.2009 0.95701 3.1579-1.2439z" clip-path="url(#a)" fill="#fff" stroke="#fff"/>
<g clip-path="url(#a)">
<g transform="translate(450.87 321.34) rotate(-66.5) scale(.08 -.08)">
<defs>
<path id="u" d="m8.6875 72.906h9.9219v-44.297q0-11.719 4.2344-16.875 4.25-5.1406 13.781-5.1406 9.4688 0 13.719 5.1406 4.25 5.1562 4.25 16.875v44.297h9.9062v-45.516q0-14.25-7.0625-21.531-7.0469-7.2812-20.812-7.2812-13.828 0-20.891 7.2812-7.0469 7.2812-7.0469 21.531z"/>
</defs>
<use xlink:href="#u"/>
</g>
</g>
<path d="m754.42 318.79 3.2313 4.8826q1.3245 2.0014 3.3259 0.67689l6.4566-4.273q2.0014-1.3245 0.67689-3.3259l-3.2313-4.8826q-1.3245-2.0014-3.3259-0.67689l-6.4566 4.273q-2.0014 1.3245-0.67689 3.3259z" clip-path="url(#a)" fill="#fff" stroke="#fff"/>
<g clip-path="url(#a)">
<g transform="translate(757.81 316.55) rotate(56.504) scale(.08 -.08)">
<use xlink:href="#u"/>
</g>
</g>
<path d="m81.318 377.88 0.2579-5.4664q0.1131-2.3973-2.2842-2.5104l-7.7339-0.36487q-2.3973-0.1131-2.5104 2.2842l-0.2579 5.4664q-0.1131 2.3973 2.2842 2.5104l7.7339 0.36488q2.3973 0.1131 2.5104-2.2842z" clip-path="url(#a)" fill="#fff" stroke="#fff"/>
<g clip-path="url(#a)">
<g transform="translate(77.259 377.69) rotate(-87.299) scale(.08 -.08)">
<defs>
<path id="p" d="m34.188 63.188-13.391-36.281h26.812zm-5.5781 9.7188h11.188l27.781-72.906h-10.25l-6.6406 18.703h-32.859l-6.6406-18.703h-10.406z"/>
</defs>
<use xlink:href="#p"/>
</g>
</g>
<path d="m85.85 377.56 0.13949-5.0768q0.065915-2.3991-2.3332-2.465l-7.7396-0.21265q-2.3991-0.065916-2.465 2.3332l-0.13949 5.0768q-0.065916 2.3991 2.3332 2.465l7.7396 0.21265q2.3991 0.065916 2.465-2.3332z" clip-path="url(#a)" fill="#fff" stroke="#fff"/>
<g clip-path="url(#a)">
<g transform="translate(81.787 377.45) rotate(-88.426) scale(.08 -.08)">
<defs>
<path id="ab" d="m53.516 70.516v-9.625q-5.6094 2.6875-10.594 4-4.9844 1.3281-9.625 1.3281-8.0469 0-12.422-3.125t-4.375-8.8906q0-4.8438 2.9062-7.3125 2.9062-2.4531 11.016-3.9688l5.9531-1.2188q11.031-2.1094 16.281-7.4062t5.25-14.172q0-10.609-7.1094-16.078-7.0938-5.4688-20.812-5.4688-5.1719 0-11.016 1.1719-5.8281 1.1719-12.078 3.4688v10.156q6-3.3594 11.766-5.0781 5.7656-1.7031 11.328-1.7031 8.4375 0 13.031 3.3125 4.5938 3.3281 4.5938 9.4844 0 5.3594-3.2969 8.3906t-10.812 4.5469l-6.0156 1.1719q-11.031 2.1875-15.969 6.875-4.9219 4.6875-4.9219 13.047 0 9.6719 6.8125 15.234t18.766 5.5625q5.1406 0 10.453-0.9375 5.3281-0.92188 10.891-2.7656z"/>
</defs>
<use xlink:href="#ab"/>
</g>
</g>
<path d="m96.018 204.23 1.5588 5.2458q0.68363 2.3006 2.9842 1.6169l7.4218-2.2054q2.3006-0.68363 1.6169-2.9842l-1.5588-5.2458q-0.68363-2.3006-2.9842-1.6169l-7.4218 2.2054q-2.3006 0.68363-1.6169 2.9842z" clip-path="url(#a)" fill="#fff" stroke="#fff"/>
<g clip-path="url(#a)">
<g transform="translate(99.913 203.07) rotate(73.45) scale(.08 -.08)">
<use xlink:href="#p"/>
</g>
</g>
<path d="m362.02 640.26v33.808q0 2.4 2.4 2.4h7.7425q2.4 0 2.4-2.4v-33.808q0-2.4-2.4-2.4h-7.7425q-2.4 0-2.4 2.4z" clip-path="url(#a)" fill="#fff" stroke="#fff"/>
<g clip-path="url(#a)">
<g transform="translate(366.09 640.26) rotate(90) scale(.08 -.08)">
<defs>
<path id="j" d="m-0.29688 72.906h61.672v-8.3125h-25.875v-64.594h-9.9062v64.594h-25.891z"/>
<path id="d" d="m56.203 29.594v-4.3906h-41.312q0.59375-9.2812 5.5938-14.141t13.938-4.8594q5.1719 0 10.031 1.2656t9.6562 3.8125v-8.5q-4.8438-2.0469-9.9219-3.125t-10.297-1.0781q-13.094 0-20.734 7.6094-7.6406 7.625-7.6406 20.625 0 13.422 7.25 21.297 7.25 7.8906 19.562 7.8906 11.031 0 17.453-7.1094 6.4219-7.0938 6.4219-19.297zm-8.9844 2.6406q-0.09375 7.3594-4.125 11.75-4.0312 4.4062-10.672 4.4062-7.5156 0-12.031-4.25t-5.2031-11.969z"/>
<path id="h" d="m41.109 46.297q-1.5156 0.875-3.2969 1.2812-1.7812 0.42188-3.9219 0.42188-7.625 0-11.703-4.9531t-4.0781-14.234v-28.812h-9.0312v54.688h9.0312v-8.5q2.8438 4.9844 7.375 7.3906 4.5469 2.4219 11.047 2.4219 0.92188 0 2.0469-0.125 1.125-0.10938 2.4844-0.35938z"/>
<path id="l" d="m52 44.188q3.375 6.0625 8.0625 8.9375t11.031 2.875q8.5469 0 13.188-5.9844 4.6406-5.9688 4.6406-17v-33.016h-9.0312v32.719q0 7.8594-2.7969 11.656-2.7812 3.8125-8.4844 3.8125-6.9844 0-11.047-4.6406-4.0469-4.625-4.0469-12.641v-30.906h-9.0312v32.719q0 7.9062-2.7812 11.688t-8.5938 3.7812q-6.8906 0-10.953-4.6562-4.0469-4.6562-4.0469-12.625v-30.906h-9.0312v54.688h9.0312v-8.5q3.0781 5.0312 7.375 7.4219t10.203 2.3906q5.9688 0 10.141-3.0312 4.1719-3.0156 6.1719-8.7812z"/>
<path id="k" d="m9.4219 54.688h8.9844v-54.688h-8.9844zm0 21.297h8.9844v-11.391h-8.9844z"/>
<path id="e" d="m54.891 33.016v-33.016h-8.9844v32.719q0 7.7656-3.0312 11.609-3.0312 3.8594-9.0781 3.8594-7.2812 0-11.484-4.6406-4.2031-4.625-4.2031-12.641v-30.906h-9.0312v54.688h9.0312v-8.5q3.2344 4.9375 7.5938 7.375 4.375 2.4375 10.094 2.4375 9.4219 0 14.25-5.8281 4.8438-5.8281 4.8438-17.156z"/>
<path id="g" d="m34.281 27.484q-10.891 0-15.094-2.4844t-4.2031-8.5q0-4.7812 3.1562-7.5938 3.1562-2.7969 8.5625-2.7969 7.4844 0 12 5.2969t4.5156 14.078v2zm17.922 3.7188v-31.203h-8.9844v8.2969q-3.0781-4.9688-7.6719-7.3438t-11.234-2.375q-8.3906 0-13.359 4.7188-4.9531 4.7188-4.9531 12.625 0 9.2188 6.1719 13.906 6.1875 4.6875 18.438 4.6875h12.609v0.89062q0 6.2031-4.0781 9.5938t-11.453 3.3906q-4.6875 0-9.1406-1.125-4.4375-1.125-8.5312-3.375v8.3125q4.9219 1.9062 9.5625 2.8438 4.6406 0.95312 9.0312 0.95312 11.875 0 17.734-6.1562 5.8594-6.1406 5.8594-18.641z"/>
<path id="i" d="m9.4219 75.984h8.9844v-75.984h-8.9844z"/>
</defs>
<use xlink:href="#j"/>
<use x="44.083984" xlink:href="#d"/>
<use x="105.607422" xlink:href="#h"/>
<use x="144.970703" xlink:href="#l"/>
<use x="242.382812" xlink:href="#k"/>
<use x="270.166016" xlink:href="#e"/>
<use x="333.544922" xlink:href="#g"/>
<use x="394.824219" xlink:href="#i"/>
</g>
</g>
<path d="m474.71 436.4 1.7322-5.1911q0.75965-2.2766-1.517-3.0363l-7.3444-2.4507q-2.2766-0.75965-3.0363 1.517l-1.7322 5.1911q-0.75965 2.2766 1.517 3.0363l7.3444 2.4507q2.2766 0.75965 3.0363-1.517z" clip-path="url(#a)" fill="#fff" stroke="#fff"/>
<g clip-path="url(#a)">
<g transform="translate(470.85 435.11) rotate(-71.547) scale(.08 -.08)">
<use xlink:href="#p"/>
</g>
</g>
<path d="m499.03 436.03 1.1693-6.048q0.45557-2.3564-1.9008-2.8119l-7.6017-1.4697q-2.3564-0.45557-2.8119 1.9008l-1.1693 6.048q-0.45557 2.3564 1.9008 2.8119l7.6017 1.4697q2.3564 0.45557 2.8119-1.9008z" clip-path="url(#a)" fill="#fff" stroke="#fff"/>
<g clip-path="url(#a)">
<g transform="translate(495.04 435.26) rotate(-79.058) scale(.08 -.08)">
<defs>
<path id="ao" d="m19.672 64.797v-56.688h11.922q15.094 0 22.094 6.8281 7 6.8438 7 21.594 0 14.641-7 21.453t-22.094 6.8125zm-9.8594 8.1094h20.266q21.188 0 31.094-8.8125 9.9219-8.8125 9.9219-27.562 0-18.859-9.9688-27.703-9.9531-8.8281-31.047-8.8281h-20.266z"/>
</defs>
<use xlink:href="#ao"/>
</g>
</g>
<path d="m525.82 429.63 0.16738 4.8208q0.083278 2.3986 2.4818 2.3153l7.7378-0.26866q2.3986-0.083278 2.3153-2.4818l-0.16738-4.8208q-0.083278-2.3986-2.4818-2.3153l-7.7378 0.26866q-2.3986 0.083278-2.3153 2.4818z" clip-path="url(#a)" fill="#fff" stroke="#fff"/>
<g clip-path="url(#a)">
<g transform="translate(529.88 429.49) rotate(88.011) scale(.08 -.08)">
<defs>
<path id="ac" d="m19.672 64.797v-27.391h12.406q6.8906 0 10.641 3.5625 3.7656 3.5625 3.7656 10.156 0 6.5469-3.7656 10.109-3.75 3.5625-10.641 3.5625zm-9.8594 8.1094h22.266q12.266 0 18.531-5.5469 6.2812-5.5469 6.2812-16.234 0-10.797-6.2812-16.312-6.2656-5.5156-18.531-5.5156h-12.406v-29.297h-9.8594z"/>
</defs>
<use xlink:href="#ac"/>
</g>
</g>
<path d="m604.07 322.5 4.5257 3.0767q1.9848 1.3493 3.3341-0.6355l4.3529-6.403q1.3493-1.9848-0.6355-3.3341l-4.5257-3.0767q-1.9848-1.3493-3.3341 0.6355l-4.3529 6.403q-1.3493 1.9848 0.6355 3.3341z" clip-path="url(#a)" fill="#fff" stroke="#fff"/>
<g clip-path="url(#a)">
<g transform="translate(606.36 319.14) rotate(34.209) scale(.08 -.08)">
<use xlink:href="#p"/>
</g>
</g>
<path d="m1263.5 548.98 4.5598 3.026q1.9997 1.3271 3.3268-0.67264l4.2812-6.4512q1.3271-1.9997-0.67264-3.3268l-4.5598-3.026q-1.9997-1.3271-3.3268 0.67264l-4.2812 6.4512q-1.3271 1.9997 0.67264 3.3268z" clip-path="url(#a)" fill="#fff" stroke="#fff"/>
<g clip-path="url(#a)">
<g transform="translate(1265.8 545.6) rotate(33.569) scale(.08 -.08)">
<use xlink:href="#p"/>
</g>
</g>
<path d="m1105.3 551.98 4.4822-3.1398q1.9657-1.377 0.58873-3.3427l-4.4422-6.3414q-1.377-1.9657-3.3427-0.58873l-4.4822 3.1398q-1.9657 1.377-0.58873 3.3427l4.4422 6.3414q1.377 1.9657 3.3427 0.58873z" clip-path="url(#a)" fill="#fff" stroke="#fff"/>
<g clip-path="url(#a)">
<g transform="translate(1103 548.65) rotate(-35.011) scale(.08 -.08)">
<use xlink:href="#p"/>
</g>
</g>
<path d="m1143.8 554.6 8.1754-11.045q1.4279-1.929-0.50114-3.3569l-6.4301-4.7596q-1.929-1.4279-3.3569 0.50114l-8.1754 11.045q-1.4279 1.929 0.50114 3.3569l6.4301 4.7596q1.929 1.4279 3.3569-0.50114z" clip-path="url(#a)" fill="#fff" stroke="#fff"/>
<g clip-path="url(#a)">
<g transform="translate(1140.3 552.05) rotate(-53.491) scale(.08 -.08)">
<defs>
<path id="aw" d="m21 76.422v-100h-8.2969v100z"/>
</defs>
<use xlink:href="#ao"/>
<use x="77.001953" xlink:href="#aw"/>
<use x="110.693359" xlink:href="#j"/>
</g>
</g>
<path d="m1189.1 547.98 0.13422-5.077q0.063424-2.3992-2.3357-2.4626l-7.7398-0.20461q-2.3992-0.063425-2.4626 2.3357l-0.13422 5.077q-0.063424 2.3992 2.3357 2.4626l7.7398 0.20461q2.3992 0.063425 2.4626-2.3357z" clip-path="url(#a)" fill="#fff" stroke="#fff"/>
<g clip-path="url(#a)">
<g transform="translate(1185.1 547.87) rotate(-88.486) scale(.08 -.08)">
<use xlink:href="#ab"/>
</g>
</g>
<path d="m1217.8 546.53 3.4015 4.7656q1.3943 1.9534 3.3477 0.55912l6.3018-4.4981q1.9534-1.3943 0.55912-3.3477l-3.4015-4.7656q-1.3943-1.9534-3.3477-0.55912l-6.3018 4.4981q-1.9534 1.3943-0.55912 3.3477z" clip-path="url(#a)" fill="#fff" stroke="#fff"/>
<g clip-path="url(#a)">
<g transform="translate(1221.1 544.17) rotate(54.482) scale(.08 -.08)">
<use xlink:href="#u"/>
</g>
</g>
<path d="m1261.9 548.83 4.8518 3.2773q1.9888 1.3434 3.3322-0.6454l4.3338-6.4159q1.3434-1.9888-0.6454-3.3322l-4.8518-3.2773q-1.9888-1.3434-3.3322 0.6454l-4.3338 6.4159q-1.3434 1.9888 0.6454 3.3322z" clip-path="url(#a)" fill="#fff" stroke="#fff"/>
<g clip-path="url(#a)">
<g transform="translate(1264.1 545.46) rotate(34.038) scale(.08 -.08)">
<use xlink:href="#u"/>
</g>
</g>
<path d="m1017.3 640.26v33.808q0 2.4 2.4 2.4h7.7425q2.4 0 2.4-2.4v-33.808q0-2.4-2.4-2.4h-7.7425q-2.4 0-2.4 2.4z" clip-path="url(#a)" fill="#fff" stroke="#fff"/>
<g clip-path="url(#a)">
<g transform="translate(1021.4 640.26) rotate(90) scale(.08 -.08)">
<use xlink:href="#j"/>
<use x="44.083984" xlink:href="#d"/>
<use x="105.607422" xlink:href="#h"/>
<use x="144.970703" xlink:href="#l"/>
<use x="242.382812" xlink:href="#k"/>
<use x="270.166016" xlink:href="#e"/>
<use x="333.544922" xlink:href="#g"/>
<use x="394.824219" xlink:href="#i"/>
</g>
</g>
<path d="m1094.7 640.26v33.808q0 2.4 2.4 2.4h7.7425q2.4 0 2.4-2.4v-33.808q0-2.4-2.4-2.4h-7.7425q-2.4 0-2.4 2.4z" clip-path="url(#a)" fill="#fff" stroke="#fff"/>
<g clip-path="url(#a)">
<g transform="translate(1098.8 640.26) rotate(90) scale(.08 -.08)">
<use xlink:href="#j"/>
<use x="44.083984" xlink:href="#d"/>
<use x="105.607422" xlink:href="#h"/>
<use x="144.970703" xlink:href="#l"/>
<use x="242.382812" xlink:href="#k"/>
<use x="270.166016" xlink:href="#e"/>
<use x="333.544922" xlink:href="#g"/>
<use x="394.824219" xlink:href="#i"/>
</g>
</g>
<path d="m1175.2 640.26v33.808q0 2.4 2.4 2.4h7.7425q2.4 0 2.4-2.4v-33.808q0-2.4-2.4-2.4h-7.7425q-2.4 0-2.4 2.4z" clip-path="url(#a)" fill="#fff" stroke="#fff"/>
<g clip-path="url(#a)">
<g transform="translate(1179.2 640.26) rotate(90) scale(.08 -.08)">
<use xlink:href="#j"/>
<use x="44.083984" xlink:href="#d"/>
<use x="105.607422" xlink:href="#h"/>
<use x="144.970703" xlink:href="#l"/>
<use x="242.382812" xlink:href="#k"/>
<use x="270.166016" xlink:href="#e"/>
<use x="333.544922" xlink:href="#g"/>
<use x="394.824219" xlink:href="#i"/>
</g>
</g>
<path d="m406.7 640.26v33.808q0 2.4 2.4 2.4h7.7425q2.4 0 2.4-2.4v-33.808q0-2.4-2.4-2.4h-7.7425q-2.4 0-2.4 2.4z" clip-path="url(#a)" fill="#fff" stroke="#fff"/>
<g clip-path="url(#a)">
<g transform="translate(410.76 640.26) rotate(90) scale(.08 -.08)">
<use xlink:href="#j"/>
<use x="44.083984" xlink:href="#d"/>
<use x="105.607422" xlink:href="#h"/>
<use x="144.970703" xlink:href="#l"/>
<use x="242.382812" xlink:href="#k"/>
<use x="270.166016" xlink:href="#e"/>
<use x="333.544922" xlink:href="#g"/>
<use x="394.824219" xlink:href="#i"/>
</g>
</g>
<path d="m454.36 640.26v33.808q0 2.4 2.4 2.4h7.7425q2.4 0 2.4-2.4v-33.808q0-2.4-2.4-2.4h-7.7425q-2.4 0-2.4 2.4z" clip-path="url(#a)" fill="#fff" stroke="#fff"/>
<g clip-path="url(#a)">
<g transform="translate(458.42 640.26) rotate(90) scale(.08 -.08)">
<use xlink:href="#j"/>
<use x="44.083984" xlink:href="#d"/>
<use x="105.607422" xlink:href="#h"/>
<use x="144.970703" xlink:href="#l"/>
<use x="242.382812" xlink:href="#k"/>
<use x="270.166016" xlink:href="#e"/>
<use x="333.544922" xlink:href="#g"/>
<use x="394.824219" xlink:href="#i"/>
</g>
</g>
<path d="m526.8 675.07 7.9281-32.865q0.56282-2.3331-1.7703-2.8959l-7.5266-1.8157q-2.3331-0.56282-2.8959 1.7703l-7.9281 32.865q-0.56282 2.3331 1.7703 2.8959l7.5266 1.8157q2.3331 0.56282 2.8959-1.7703z" clip-path="url(#a)" fill="#fff" stroke="#fff"/>
<g clip-path="url(#a)">
<g transform="translate(522.85 674.12) rotate(-76.437) scale(.08 -.08)">
<use xlink:href="#j"/>
<use x="44.083984" xlink:href="#d"/>
<use x="105.607422" xlink:href="#h"/>
<use x="144.970703" xlink:href="#l"/>
<use x="242.382812" xlink:href="#k"/>
<use x="270.166016" xlink:href="#e"/>
<use x="333.544922" xlink:href="#g"/>
<use x="394.824219" xlink:href="#i"/>
</g>
</g>
<path d="m541.41 642.2 7.9281 32.865q0.56282 2.3331 2.8959 1.7703l7.5266-1.8157q2.3331-0.56282 1.7703-2.8959l-7.9281-32.865q-0.56282-2.3331-2.8959-1.7703l-7.5266 1.8157q-2.3331 0.56282-1.7703 2.8959z" clip-path="url(#a)" fill="#fff" stroke="#fff"/>
<g clip-path="url(#a)">
<g transform="translate(545.36 641.25) rotate(76.437) scale(.08 -.08)">
<use xlink:href="#j"/>
<use x="44.083984" xlink:href="#d"/>
<use x="105.607422" xlink:href="#h"/>
<use x="144.970703" xlink:href="#l"/>
<use x="242.382812" xlink:href="#k"/>
<use x="270.166016" xlink:href="#e"/>
<use x="333.544922" xlink:href="#g"/>
<use x="394.824219" xlink:href="#i"/>
</g>
</g>
<path d="m662.73 492.74 1.3968-4.3841q0.72856-2.2867-1.5582-3.0153l-7.3771-2.3504q-2.2867-0.72856-3.0153 1.5582l-1.3968 4.3841q-0.72856 2.2867 1.5582 3.0153l7.3771 2.3504q2.2867 0.72856 3.0153-1.5582z" clip-path="url(#a)" fill="#fff" stroke="#fff"/>
<g clip-path="url(#a)">
<g transform="translate(658.86 491.5) rotate(-72.328) scale(.08 -.08)">
<defs>
<path id="am" d="m9.8125 72.906h41.891v-8.3125h-32.031v-21.484h28.906v-8.2969h-28.906v-34.812h-9.8594z"/>
</defs>
<use xlink:href="#am"/>
</g>
</g>
<path d="m693.35 491.77 0.3064-5.5778q0.13164-2.3964-2.2648-2.528l-7.7308-0.42467q-2.3964-0.13164-2.528 2.2648l-0.3064 5.5778q-0.13164 2.3964 2.2648 2.528l7.7308 0.42466q2.3964 0.13164 2.528-2.2648z" clip-path="url(#a)" fill="#fff" stroke="#fff"/>
<g clip-path="url(#a)">
<g transform="translate(689.29 491.55) rotate(-86.856) scale(.08 -.08)">
<defs>
<path id="w" d="m64.406 67.281v-10.391q-4.9844 4.6406-10.625 6.9219-5.6406 2.2969-11.984 2.2969-12.5 0-19.141-7.6406t-6.6406-22.094q0-14.406 6.6406-22.047t19.141-7.6406q6.3438 0 11.984 2.2969t10.625 6.9375v-10.312q-5.1719-3.5156-10.969-5.2812-5.7812-1.75-12.219-1.75-16.562 0-26.094 10.125-9.5156 10.141-9.5156 27.672 0 17.578 9.5156 27.703 9.5312 10.141 26.094 10.141 6.5312 0 12.312-1.7344 5.7969-1.7344 10.875-5.2031z"/>
</defs>
<use xlink:href="#w"/>
</g>
</g>
<path d="m729.1 434.03 3.0203 4.0535q1.434 1.9245 3.3585 0.49052l6.2085-4.6261q1.9245-1.434 0.49052-3.3585l-3.0203-4.0535q-1.434-1.9245-3.3585-0.49052l-6.2085 4.6261q-1.9245 1.434-0.49052 3.3585z" clip-path="url(#a)" fill="#fff" stroke="#fff"/>
<g clip-path="url(#a)">
<g transform="translate(732.36 431.6) rotate(53.31) scale(.08 -.08)">
<defs>
<path id="an" d="m9.8125 72.906h46.094v-8.3125h-36.234v-21.578h34.719v-8.2969h-34.719v-26.422h37.109v-8.2969h-46.969z"/>
</defs>
<use xlink:href="#an"/>
</g>
</g>
<path d="m615.2 640.26v33.808q0 2.4 2.4 2.4h7.7425q2.4 0 2.4-2.4v-33.808q0-2.4-2.4-2.4h-7.7425q-2.4 0-2.4 2.4z" clip-path="url(#a)" fill="#fff" stroke="#fff"/>
<g clip-path="url(#a)">
<g transform="translate(619.26 640.26) rotate(90) scale(.08 -.08)">
<use xlink:href="#j"/>
<use x="44.083984" xlink:href="#d"/>
<use x="105.607422" xlink:href="#h"/>
<use x="144.970703" xlink:href="#l"/>
<use x="242.382812" xlink:href="#k"/>
<use x="270.166016" xlink:href="#e"/>
<use x="333.544922" xlink:href="#g"/>
<use x="394.824219" xlink:href="#i"/>
</g>
</g>
<path d="m674.77 640.26v33.808q0 2.4 2.4 2.4h7.7425q2.4 0 2.4-2.4v-33.808q0-2.4-2.4-2.4h-7.7425q-2.4 0-2.4 2.4z" clip-path="url(#a)" fill="#fff" stroke="#fff"/>
<g clip-path="url(#a)">
<g transform="translate(678.83 640.26) rotate(90) scale(.08 -.08)">
<use xlink:href="#j"/>
<use x="44.083984" xlink:href="#d"/>
<use x="105.607422" xlink:href="#h"/>
<use x="144.970703" xlink:href="#l"/>
<use x="242.382812" xlink:href="#k"/>
<use x="270.166016" xlink:href="#e"/>
<use x="333.544922" xlink:href="#g"/>
<use x="394.824219" xlink:href="#i"/>
</g>
</g>
<path d="m732.41 551.43 3.5663-4.1509q1.564-1.8204-0.25636-3.3844l-5.8726-5.0456q-1.8204-1.564-3.3844 0.25635l-3.5663 4.1509q-1.564 1.8204 0.25635 3.3844l5.8726 5.0456q1.8204 1.564 3.3844-0.25636z" clip-path="url(#a)" fill="#fff" stroke="#fff"/>
<g clip-path="url(#a)">
<g transform="translate(729.33 548.78) rotate(-49.332) scale(.08 -.08)">
<use xlink:href="#p"/>
</g>
</g>
<path d="m765.9 549.75 1.6169-5.3184q0.69809-2.2962-1.5981-2.9943l-7.4077-2.2521q-2.2962-0.69809-2.9943 1.5981l-1.6169 5.3184q-0.69809 2.2962 1.5981 2.9943l7.4077 2.2521q2.2962 0.69809 2.9943-1.5981z" clip-path="url(#a)" fill="#fff" stroke="#fff"/>
<g clip-path="url(#a)">
<g transform="translate(762.02 548.57) rotate(-73.09) scale(.08 -.08)">
<defs>
<path id="aj" d="m44.391 34.188q3.1719-1.0781 6.1719-4.5938t6.0312-9.6719l10.016-19.922h-10.609l-9.3125 18.703q-3.625 7.3281-7.0156 9.7188t-9.25 2.3906h-10.75v-30.812h-9.8594v72.906h22.266q12.5 0 18.656-5.2344 6.1562-5.2188 6.1562-15.766 0-6.8906-3.2031-11.438-3.2031-4.5312-9.2969-6.2812zm-24.719 30.609v-25.875h12.406q7.125 0 10.766 3.2969t3.6406 9.6875-3.6406 9.6406-10.766 3.25z"/>
</defs>
<use xlink:href="#aj"/>
</g>
</g>
<path d="m786.82 544.73 1.2307 4.4336q0.64192 2.3126 2.9545 1.6706l7.4604-2.0709q2.3126-0.64192 1.6706-2.9545l-1.2307-4.4336q-0.64192-2.3126-2.9545-1.6706l-7.4604 2.0709q-2.3126 0.64192-1.6706 2.9545z" clip-path="url(#a)" fill="#fff" stroke="#fff"/>
<g clip-path="url(#a)">
<g transform="translate(790.73 543.64) rotate(74.486) scale(.08 -.08)">
<use xlink:href="#am"/>
</g>
</g>
<path d="m821.35 547.53 3.3672 3.8021q1.5912 1.7967 3.3879 0.20552l5.7962-5.1332q1.7967-1.5912 0.20552-3.3879l-3.3672-3.8021q-1.5912-1.7967-3.3879-0.20552l-5.7962 5.1332q-1.7967 1.5912-0.20552 3.3879z" clip-path="url(#a)" fill="#fff" stroke="#fff"/>
<g clip-path="url(#a)">
<g transform="translate(824.39 544.83) rotate(48.472) scale(.08 -.08)">
<use xlink:href="#ab"/>
</g>
</g>
<path d="m737.32 640.26v33.808q0 2.4 2.4 2.4h7.7425q2.4 0 2.4-2.4v-33.808q0-2.4-2.4-2.4h-7.7425q-2.4 0-2.4 2.4z" clip-path="url(#a)" fill="#fff" stroke="#fff"/>
<g clip-path="url(#a)">
<g transform="translate(741.38 640.26) rotate(90) scale(.08 -.08)">
<use xlink:href="#j"/>
<use x="44.083984" xlink:href="#d"/>
<use x="105.607422" xlink:href="#h"/>
<use x="144.970703" xlink:href="#l"/>
<use x="242.382812" xlink:href="#k"/>
<use x="270.166016" xlink:href="#e"/>
<use x="333.544922" xlink:href="#g"/>
<use x="394.824219" xlink:href="#i"/>
</g>
</g>
<path d="m802.84 640.26v33.808q0 2.4 2.4 2.4h7.7425q2.4 0 2.4-2.4v-33.808q0-2.4-2.4-2.4h-7.7425q-2.4 0-2.4 2.4z" clip-path="url(#a)" fill="#fff" stroke="#fff"/>
<g clip-path="url(#a)">
<g transform="translate(806.91 640.26) rotate(90) scale(.08 -.08)">
<use xlink:href="#j"/>
<use x="44.083984" xlink:href="#d"/>
<use x="105.607422" xlink:href="#h"/>
<use x="144.970703" xlink:href="#l"/>
<use x="242.382812" xlink:href="#k"/>
<use x="270.166016" xlink:href="#e"/>
<use x="333.544922" xlink:href="#g"/>
<use x="394.824219" xlink:href="#i"/>
</g>
</g>
<path d="m871.35 640.26v33.808q0 2.4 2.4 2.4h7.7425q2.4 0 2.4-2.4v-33.808q0-2.4-2.4-2.4h-7.7425q-2.4 0-2.4 2.4z" clip-path="url(#a)" fill="#fff" stroke="#fff"/>
<g clip-path="url(#a)">
<g transform="translate(875.41 640.26) rotate(90) scale(.08 -.08)">
<use xlink:href="#j"/>
<use x="44.083984" xlink:href="#d"/>
<use x="105.607422" xlink:href="#h"/>
<use x="144.970703" xlink:href="#l"/>
<use x="242.382812" xlink:href="#k"/>
<use x="270.166016" xlink:href="#e"/>
<use x="333.544922" xlink:href="#g"/>
<use x="394.824219" xlink:href="#i"/>
</g>
</g>
<path d="m58.214 640.26v33.808q0 2.4 2.4 2.4h7.7425q2.4 0 2.4-2.4v-33.808q0-2.4-2.4-2.4h-7.7425q-2.4 0-2.4 2.4z" clip-path="url(#a)" fill="#fff" stroke="#fff"/>
<g clip-path="url(#a)">
<g transform="translate(62.277 640.26) rotate(90) scale(.08 -.08)">
<use xlink:href="#j"/>
<use x="44.083984" xlink:href="#d"/>
<use x="105.607422" xlink:href="#h"/>
<use x="144.970703" xlink:href="#l"/>
<use x="242.382812" xlink:href="#k"/>
<use x="270.166016" xlink:href="#e"/>
<use x="333.544922" xlink:href="#g"/>
<use x="394.824219" xlink:href="#i"/>
</g>
</g>
<path d="m67.149 640.26v33.808q0 2.4 2.4 2.4h7.7425q2.4 0 2.4-2.4v-33.808q0-2.4-2.4-2.4h-7.7425q-2.4 0-2.4 2.4z" clip-path="url(#a)" fill="#fff" stroke="#fff"/>
<g clip-path="url(#a)">
<g transform="translate(71.213 640.26) rotate(90) scale(.08 -.08)">
<use xlink:href="#j"/>
<use x="44.083984" xlink:href="#d"/>
<use x="105.607422" xlink:href="#h"/>
<use x="144.970703" xlink:href="#l"/>
<use x="242.382812" xlink:href="#k"/>
<use x="270.166016" xlink:href="#e"/>
<use x="333.544922" xlink:href="#g"/>
<use x="394.824219" xlink:href="#i"/>
</g>
</g>
<path d="m108.46 435.58 0.63475-6.2654q0.2419-2.3878-2.1459-2.6297l-7.7031-0.78039q-2.3878-0.2419-2.6297 2.1459l-0.63475 6.2654q-0.2419 2.3878 2.1459 2.6297l7.7031 0.78039q2.3878 0.2419 2.6297-2.1459z" clip-path="url(#a)" fill="#fff" stroke="#fff"/>
<g clip-path="url(#a)">
<g transform="translate(104.41 435.17) rotate(-84.215) scale(.08 -.08)">
<defs>
<path id="ak" d="m39.406 66.219q-10.75 0-17.078-8.0156-6.3125-8-6.3125-21.828 0-13.766 6.3125-21.781 6.3281-8 17.078-8 10.734 0 17.016 8 6.2812 8.0156 6.2812 21.781 0 13.828-6.2812 21.828-6.2812 8.0156-17.016 8.0156zm13.812-64.906 13-14.203h-11.922l-10.797 11.672q-1.6094-0.09375-2.4688-0.14062-0.84375-0.0625-1.625-0.0625-15.375 0-24.594 10.281-9.2031 10.281-9.2031 27.516 0 17.281 9.2031 27.562 9.2188 10.281 24.594 10.281 15.328 0 24.5-10.281 9.1875-10.281 9.1875-27.562 0-12.688-5.1094-21.734-5.0938-9.0312-14.766-13.328z"/>
</defs>
<use xlink:href="#ak"/>
</g>
</g>
<path d="m116.08 434.97 0.32042-5.5771q0.13766-2.396-2.2584-2.5337l-7.7298-0.44409q-2.396-0.13766-2.5337 2.2584l-0.32042 5.5771q-0.13766 2.396 2.2584 2.5337l7.7298 0.4441q2.396 0.13766 2.5337-2.2584z" clip-path="url(#a)" fill="#fff" stroke="#fff"/>
<g clip-path="url(#a)">
<g transform="translate(112.03 434.73) rotate(-86.712) scale(.08 -.08)">
<use xlink:href="#w"/>
</g>
</g>
<path d="m140.77 319.34 2.2199 4.5415q1.0539 2.1562 3.2101 1.1023l6.956-3.4001q2.1562-1.0539 1.1023-3.2101l-2.2199-4.5415q-1.0539-2.1562-3.2101-1.1023l-6.956 3.4001q-2.1562 1.0539-1.1023 3.2101z" clip-path="url(#a)" fill="#fff" stroke="#fff"/>
<g clip-path="url(#a)">
<g transform="translate(144.42 317.55) rotate(63.951) scale(.08 -.08)">
<use xlink:href="#an"/>
</g>
</g>
<path d="m125.17 434.78 0.028246-5.8549q0.011578-2.4-2.3884-2.4116l-7.7424-0.037352q-2.4-0.011578-2.4116 2.3884l-0.028246 5.8549q-0.011578 2.4 2.3884 2.4116l7.7424 0.037352q2.4 0.011578 2.4116-2.3884z" clip-path="url(#a)" fill="#fff" stroke="#fff"/>
<g clip-path="url(#a)">
<g transform="translate(121.11 434.76) rotate(-89.724) scale(.08 -.08)">
<use xlink:href="#u"/>
</g>
</g>
<path d="m79.063 640.26v33.808q0 2.4 2.4 2.4h7.7425q2.4 0 2.4-2.4v-33.808q0-2.4-2.4-2.4h-7.7425q-2.4 0-2.4 2.4z" clip-path="url(#a)" fill="#fff" stroke="#fff"/>
<g clip-path="url(#a)">
<g transform="translate(83.127 640.26) rotate(90) scale(.08 -.08)">
<use xlink:href="#j"/>
<use x="44.083984" xlink:href="#d"/>
<use x="105.607422" xlink:href="#h"/>
<use x="144.970703" xlink:href="#l"/>
<use x="242.382812" xlink:href="#k"/>
<use x="270.166016" xlink:href="#e"/>
<use x="333.544922" xlink:href="#g"/>
<use x="394.824219" xlink:href="#i"/>
</g>
</g>
<path d="m93.956 640.26v33.808q0 2.4 2.4 2.4h7.7425q2.4 0 2.4-2.4v-33.808q0-2.4-2.4-2.4h-7.7425q-2.4 0-2.4 2.4z" clip-path="url(#a)" fill="#fff" stroke="#fff"/>
<g clip-path="url(#a)">
<g transform="translate(98.02 640.26) rotate(90) scale(.08 -.08)">
<use xlink:href="#j"/>
<use x="44.083984" xlink:href="#d"/>
<use x="105.607422" xlink:href="#h"/>
<use x="144.970703" xlink:href="#l"/>
<use x="242.382812" xlink:href="#k"/>
<use x="270.166016" xlink:href="#e"/>
<use x="333.544922" xlink:href="#g"/>
<use x="394.824219" xlink:href="#i"/>
</g>
</g>
<path d="m142.85 493.22 1.7254-5.1934q0.75667-2.2776-1.5209-3.0343l-7.3476-2.4411q-2.2776-0.75667-3.0343 1.5209l-1.7254 5.1934q-0.75667 2.2776 1.5209 3.0343l7.3476 2.4411q2.2776 0.75667 3.0343-1.5209z" clip-path="url(#a)" fill="#fff" stroke="#fff"/>
<g clip-path="url(#a)">
<g transform="translate(138.99 491.93) rotate(-71.622) scale(.08 -.08)">
<use xlink:href="#p"/>
</g>
</g>
<path d="m162.87 492.38 0.88272-5.4882q0.38112-2.3695-1.9884-2.7507l-7.6443-1.2295q-2.3695-0.38112-2.7507 1.9884l-0.88272 5.4882q-0.38112 2.3695 1.9884 2.7507l7.6443 1.2295q2.3695 0.38112 2.7507-1.9884z" clip-path="url(#a)" fill="#fff" stroke="#fff"/>
<g clip-path="url(#a)">
<g transform="translate(158.85 491.74) rotate(-80.863) scale(.08 -.08)">
<use xlink:href="#aj"/>
</g>
</g>
<path d="m175.14 491.72 0.30255-5.4641q0.13269-2.3963-2.2636-2.529l-7.7307-0.42805q-2.3963-0.13269-2.529 2.2636l-0.30255 5.4641q-0.13269 2.3963 2.2636 2.529l7.7307 0.42805q2.3963 0.13269 2.529-2.2636z" clip-path="url(#a)" fill="#fff" stroke="#fff"/>
<g clip-path="url(#a)">
<g transform="translate(171.08 491.5) rotate(-86.831) scale(.08 -.08)">
<use xlink:href="#p"/>
</g>
</g>
<path d="m183.35 487.05 0.61808 4.784q0.30752 2.3802 2.6877 2.0727l7.6787-0.99207q2.3802-0.30752 2.0727-2.6877l-0.61808-4.784q-0.30752-2.3802-2.6877-2.0727l-7.6787 0.99207q-2.3802 0.30752-2.0727 2.6877z" clip-path="url(#a)" fill="#fff" stroke="#fff"/>
<g clip-path="url(#a)">
<g transform="translate(187.38 486.53) rotate(82.638) scale(.08 -.08)">
<use xlink:href="#ac"/>
</g>
</g>
<path d="m216.27 434.46 3.1346 3.7483q1.5396 1.8411 3.3807 0.30141l5.9393-4.967q1.8411-1.5396 0.30141-3.3807l-3.1346-3.7483q-1.5396-1.8411-3.3807-0.30141l-5.9393 4.967q-1.8411 1.5396-0.30141 3.3807z" clip-path="url(#a)" fill="#fff" stroke="#fff"/>
<g clip-path="url(#a)">
<g transform="translate(219.38 431.85) rotate(50.095) scale(.08 -.08)">
<use xlink:href="#j"/>
</g>
</g>
<path d="m132.68 640.26v33.808q0 2.4 2.4 2.4h7.7425q2.4 0 2.4-2.4v-33.808q0-2.4-2.4-2.4h-7.7425q-2.4 0-2.4 2.4z" clip-path="url(#a)" fill="#fff" stroke="#fff"/>
<g clip-path="url(#a)">
<g transform="translate(136.74 640.26) rotate(90) scale(.08 -.08)">
<use xlink:href="#j"/>
<use x="44.083984" xlink:href="#d"/>
<use x="105.607422" xlink:href="#h"/>
<use x="144.970703" xlink:href="#l"/>
<use x="242.382812" xlink:href="#k"/>
<use x="270.166016" xlink:href="#e"/>
<use x="333.544922" xlink:href="#g"/>
<use x="394.824219" xlink:href="#i"/>
</g>
</g>
<path d="m156.5 640.26v33.808q0 2.4 2.4 2.4h7.7425q2.4 0 2.4-2.4v-33.808q0-2.4-2.4-2.4h-7.7425q-2.4 0-2.4 2.4z" clip-path="url(#a)" fill="#fff" stroke="#fff"/>
<g clip-path="url(#a)">
<g transform="translate(160.57 640.26) rotate(90) scale(.08 -.08)">
<use xlink:href="#j"/>
<use x="44.083984" xlink:href="#d"/>
<use x="105.607422" xlink:href="#h"/>
<use x="144.970703" xlink:href="#l"/>
<use x="242.382812" xlink:href="#k"/>
<use x="270.166016" xlink:href="#e"/>
<use x="333.544922" xlink:href="#g"/>
<use x="394.824219" xlink:href="#i"/>
</g>
</g>
<path d="m201 674.75 4.4907-33.508q0.3188-2.3787-2.0599-2.6975l-7.6739-1.0285q-2.3787-0.3188-2.6975 2.0599l-4.4907 33.508q-0.3188 2.3787 2.0599 2.6975l7.6739 1.0285q2.3787 0.3188 2.6975-2.0599z" clip-path="url(#a)" fill="#fff" stroke="#fff"/>
<g clip-path="url(#a)">
<g transform="translate(196.97 674.21) rotate(-82.367) scale(.08 -.08)">
<use xlink:href="#j"/>
<use x="44.083984" xlink:href="#d"/>
<use x="105.607422" xlink:href="#h"/>
<use x="144.970703" xlink:href="#l"/>
<use x="242.382812" xlink:href="#k"/>
<use x="270.166016" xlink:href="#e"/>
<use x="333.544922" xlink:href="#g"/>
<use x="394.824219" xlink:href="#i"/>
</g>
</g>
<path d="m203.46 641.25 4.4907 33.508q0.3188 2.3787 2.6975 2.0599l7.6739-1.0285q2.3787-0.3188 2.0599-2.6975l-4.4907-33.508q-0.3188-2.3787-2.6975-2.0599l-7.6739 1.0285q-2.3787 0.3188-2.0599 2.6975z" clip-path="url(#a)" fill="#fff" stroke="#fff"/>
<g clip-path="url(#a)">
<g transform="translate(207.49 640.71) rotate(82.367) scale(.08 -.08)">
<use xlink:href="#j"/>
<use x="44.083984" xlink:href="#d"/>
<use x="105.607422" xlink:href="#h"/>
<use x="144.970703" xlink:href="#l"/>
<use x="242.382812" xlink:href="#k"/>
<use x="270.166016" xlink:href="#e"/>
<use x="333.544922" xlink:href="#g"/>
<use x="394.824219" xlink:href="#i"/>
</g>
</g>
<path d="m266.77 549.36 0.98656-6.2197q0.37598-2.3704-1.9944-2.7463l-7.6469-1.2129q-2.3704-0.37598-2.7463 1.9944l-0.98656 6.2197q-0.37598 2.3704 1.9944 2.7463l7.6469 1.2129q2.3704 0.37598 2.7463-1.9944z" clip-path="url(#a)" fill="#fff" stroke="#fff"/>
<g clip-path="url(#a)">
<g transform="translate(262.75 548.73) rotate(-80.987) scale(.08 -.08)">
<use xlink:href="#ak"/>
</g>
</g>
<path d="m272.31 543.49 0.87513 5.5173q0.37598 2.3704 2.7463 1.9944l7.6469-1.2129q2.3704-0.37598 1.9944-2.7463l-0.87513-5.5173q-0.37598-2.3704-2.7463-1.9944l-7.6469 1.2129q-2.3704 0.37598-1.9944 2.7463z" clip-path="url(#a)" fill="#fff" stroke="#fff"/>
<g clip-path="url(#a)">
<g transform="translate(276.32 542.86) rotate(80.987) scale(.08 -.08)">
<use xlink:href="#w"/>
</g>
</g>
<path d="m245.86 640.26v33.808q0 2.4 2.4 2.4h7.7425q2.4 0 2.4-2.4v-33.808q0-2.4-2.4-2.4h-7.7425q-2.4 0-2.4 2.4z" clip-path="url(#a)" fill="#fff" stroke="#fff"/>
<g clip-path="url(#a)">
<g transform="translate(249.92 640.26) rotate(90) scale(.08 -.08)">
<use xlink:href="#j"/>
<use x="44.083984" xlink:href="#d"/>
<use x="105.607422" xlink:href="#h"/>
<use x="144.970703" xlink:href="#l"/>
<use x="242.382812" xlink:href="#k"/>
<use x="270.166016" xlink:href="#e"/>
<use x="333.544922" xlink:href="#g"/>
<use x="394.824219" xlink:href="#i"/>
</g>
</g>
<path d="m281.6 640.26v33.808q0 2.4 2.4 2.4h7.7425q2.4 0 2.4-2.4v-33.808q0-2.4-2.4-2.4h-7.7425q-2.4 0-2.4 2.4z" clip-path="url(#a)" fill="#fff" stroke="#fff"/>
<g clip-path="url(#a)">
<g transform="translate(285.67 640.26) rotate(90) scale(.08 -.08)">
<use xlink:href="#j"/>
<use x="44.083984" xlink:href="#d"/>
<use x="105.607422" xlink:href="#h"/>
<use x="144.970703" xlink:href="#l"/>
<use x="242.382812" xlink:href="#k"/>
<use x="270.166016" xlink:href="#e"/>
<use x="333.544922" xlink:href="#g"/>
<use x="394.824219" xlink:href="#i"/>
</g>
</g>
<path d="m111.83 640.26v33.808q0 2.4 2.4 2.4h7.7425q2.4 0 2.4-2.4v-33.808q0-2.4-2.4-2.4h-7.7425q-2.4 0-2.4 2.4z" clip-path="url(#a)" fill="#fff" stroke="#fff"/>
<g clip-path="url(#a)">
<g transform="translate(115.89 640.26) rotate(90) scale(.08 -.08)">
<use xlink:href="#j"/>
<use x="44.083984" xlink:href="#d"/>
<use x="105.607422" xlink:href="#h"/>
<use x="144.970703" xlink:href="#l"/>
<use x="242.382812" xlink:href="#k"/>
<use x="270.166016" xlink:href="#e"/>
<use x="333.544922" xlink:href="#g"/>
<use x="394.824219" xlink:href="#i"/>
</g>
</g>
<path d="m320.32 640.26v33.808q0 2.4 2.4 2.4h7.7425q2.4 0 2.4-2.4v-33.808q0-2.4-2.4-2.4h-7.7425q-2.4 0-2.4 2.4z" clip-path="url(#a)" fill="#fff" stroke="#fff"/>
<g clip-path="url(#a)">
<g transform="translate(324.39 640.26) rotate(90) scale(.08 -.08)">
<use xlink:href="#j"/>
<use x="44.083984" xlink:href="#d"/>
<use x="105.607422" xlink:href="#h"/>
<use x="144.970703" xlink:href="#l"/>
<use x="242.382812" xlink:href="#k"/>
<use x="270.166016" xlink:href="#e"/>
<use x="333.544922" xlink:href="#g"/>
<use x="394.824219" xlink:href="#i"/>
</g>
</g>
<path d="m942.83 640.26v33.808q0 2.4 2.4 2.4h7.7425q2.4 0 2.4-2.4v-33.808q0-2.4-2.4-2.4h-7.7425q-2.4 0-2.4 2.4z" clip-path="url(#a)" fill="#fff" stroke="#fff"/>
<g clip-path="url(#a)">
<g transform="translate(946.9 640.26) rotate(90) scale(.08 -.08)">
<use xlink:href="#j"/>
<use x="44.083984" xlink:href="#d"/>
<use x="105.607422" xlink:href="#h"/>
<use x="144.970703" xlink:href="#l"/>
<use x="242.382812" xlink:href="#k"/>
<use x="270.166016" xlink:href="#e"/>
<use x="333.544922" xlink:href="#g"/>
<use x="394.824219" xlink:href="#i"/>
</g>
</g>
<path d="m1258.6 640.26v33.808q0 2.4 2.4 2.4h7.7425q2.4 0 2.4-2.4v-33.808q0-2.4-2.4-2.4h-7.7425q-2.4 0-2.4 2.4z" clip-path="url(#a)" fill="#fff" stroke="#fff"/>
<g clip-path="url(#a)">
<g transform="translate(1262.6 640.26) rotate(90) scale(.08 -.08)">
<use xlink:href="#j"/>
<use x="44.083984" xlink:href="#d"/>
<use x="105.607422" xlink:href="#h"/>
<use x="144.970703" xlink:href="#l"/>
<use x="242.382812" xlink:href="#k"/>
<use x="270.166016" xlink:href="#e"/>
<use x="333.544922" xlink:href="#g"/>
<use x="394.824219" xlink:href="#i"/>
</g>
</g>
<path d="m1344.9 640.26v33.808q0 2.4 2.4 2.4h7.7425q2.4 0 2.4-2.4v-33.808q0-2.4-2.4-2.4h-7.7425q-2.4 0-2.4 2.4z" clip-path="url(#a)" fill="#fff" stroke="#fff"/>
<g clip-path="url(#a)">
<g transform="translate(1349 640.26) rotate(90) scale(.08 -.08)">
<use xlink:href="#j"/>
<use x="44.083984" xlink:href="#d"/>
<use x="105.607422" xlink:href="#h"/>
<use x="144.970703" xlink:href="#l"/>
<use x="242.382812" xlink:href="#k"/>
<use x="270.166016" xlink:href="#e"/>
<use x="333.544922" xlink:href="#g"/>
<use x="394.824219" xlink:href="#i"/>
</g>
</g>
<defs>
<path id="b" d="m0 8.6603c2.2967 0 4.4997-0.9125 6.1237-2.5365 1.624-1.624 2.5365-3.827 2.5365-6.1237s-0.9125-4.4997-2.5365-6.1237c-1.624-1.624-3.827-2.5365-6.1237-2.5365s-4.4997 0.9125-6.1237 2.5365c-1.624 1.624-2.5365 3.827-2.5365 6.1237s0.9125 4.4997 2.5365 6.1237c1.624 1.624 3.827 2.5365 6.1237 2.5365z"/>
</defs>
<g clip-path="url(#a)" fill="#ffffff" stroke="#ffffff">
<use x="64.484848" y="712.727273" xlink:href="#b"/>
<use x="73.420393" y="712.727273" xlink:href="#b"/>
<use x="85.334453" y="712.727273" xlink:href="#b"/>
<use x="100.227028" y="712.727273" xlink:href="#b"/>
<use x="118.098117" y="712.727273" xlink:href="#b"/>
<use x="138.947722" y="712.727273" xlink:href="#b"/>
<use x="162.775842" y="712.727273" xlink:href="#b"/>
<use x="189.582476" y="712.727273" xlink:href="#b"/>
<use x="219.367625" y="712.727273" xlink:href="#b"/>
<use x="252.13129" y="712.727273" xlink:href="#b"/>
<use x="287.873469" y="712.727273" xlink:href="#b"/>
<use x="326.594163" y="712.727273" xlink:href="#b"/>
<use x="368.293373" y="712.727273" xlink:href="#b"/>
<use x="412.971097" y="712.727273" xlink:href="#b"/>
<use x="460.627336" y="712.727273" xlink:href="#b"/>
<use x="511.26209" y="712.727273" xlink:href="#b"/>
<use x="564.875359" y="712.727273" xlink:href="#b"/>
<use x="621.467143" y="712.727273" xlink:href="#b"/>
<use x="681.037441" y="712.727273" xlink:href="#b"/>
<use x="743.586255" y="712.727273" xlink:href="#b"/>
<use x="809.113584" y="712.727273" xlink:href="#b"/>
<use x="877.619428" y="712.727273" xlink:href="#b"/>
<use x="949.103786" y="712.727273" xlink:href="#b"/>
<use x="1023.56666" y="712.727273" xlink:href="#b"/>
<use x="1101.008048" y="712.727273" xlink:href="#b"/>
<use x="1181.427952" y="712.727273" xlink:href="#b"/>
<use x="1264.82637" y="712.727273" xlink:href="#b"/>
<use x="1351.203303" y="712.727273" xlink:href="#b"/>
<use x="1354.181818" y="601.604949" xlink:href="#b"/>
<use x="573.426179" y="33.939394" xlink:href="#b"/>
<use x="85.880514" y="148.101081" xlink:href="#b"/>
<use x="368.293373" y="601.604949" xlink:href="#b"/>
<use x="526.278769" y="262.033137" xlink:href="#b"/>
<use x="1184.406467" y="488.936791" xlink:href="#b"/>
<use x="1023.56666" y="601.604949" xlink:href="#b"/>
<use x="1101.008048" y="601.604949" xlink:href="#b"/>
<use x="1181.427952" y="601.604949" xlink:href="#b"/>
<use x="412.971097" y="601.604949" xlink:href="#b"/>
<use x="460.627336" y="601.604949" xlink:href="#b"/>
<use x="538.068724" y="601.604949" xlink:href="#b"/>
<use x="693.44792" y="375.677699" xlink:href="#b"/>
<use x="621.467143" y="601.604949" xlink:href="#b"/>
<use x="681.037441" y="601.604949" xlink:href="#b"/>
<use x="777.839177" y="488.936791" xlink:href="#b"/>
<use x="743.586255" y="601.604949" xlink:href="#b"/>
<use x="809.113584" y="601.604949" xlink:href="#b"/>
<use x="877.619428" y="601.604949" xlink:href="#b"/>
<use x="64.484848" y="601.604949" xlink:href="#b"/>
<use x="73.420393" y="601.604949" xlink:href="#b"/>
<use x="119.736301" y="262.033137" xlink:href="#b"/>
<use x="85.334453" y="601.604949" xlink:href="#b"/>
<use x="100.227028" y="601.604949" xlink:href="#b"/>
<use x="175.285604" y="375.677699" xlink:href="#b"/>
<use x="138.947722" y="601.604949" xlink:href="#b"/>
<use x="162.775842" y="601.604949" xlink:href="#b"/>
<use x="204.475051" y="601.604949" xlink:href="#b"/>
<use x="270.002379" y="488.936791" xlink:href="#b"/>
<use x="252.13129" y="601.604949" xlink:href="#b"/>
<use x="287.873469" y="601.604949" xlink:href="#b"/>
<use x="118.098117" y="601.604949" xlink:href="#b"/>
<use x="326.594163" y="601.604949" xlink:href="#b"/>
<use x="949.103786" y="601.604949" xlink:href="#b"/>
<use x="1264.82637" y="601.604949" xlink:href="#b"/>
<use x="1351.203303" y="601.604949" xlink:href="#b"/>
</g>
<g clip-path="url(#a)">
<g transform="translate(63.01 715.49) scale(.1 -.1)">
<defs>
<path id="r" d="m9.8125 72.906h9.8594v-72.906h-9.8594z"/>
</defs>
<use xlink:href="#r"/>
</g>
</g>
<g clip-path="url(#a)">
<g transform="translate(63.103 715.49) scale(.1 -.1)">
<defs>
<path id="o" d="m30.609 48.391q-7.2188 0-11.422-5.6406t-4.2031-15.453 4.1719-15.453q4.1875-5.6406 11.453-5.6406 7.1875 0 11.375 5.6562 4.2031 5.6719 4.2031 15.438 0 9.7188-4.2031 15.406-4.1875 5.6875-11.375 5.6875zm0 7.6094q11.719 0 18.406-7.625 6.7031-7.6094 6.7031-21.078 0-13.422-6.7031-21.078-6.6875-7.6406-18.406-7.6406-11.766 0-18.438 7.6406-6.6562 7.6562-6.6562 21.078 0 13.469 6.6562 21.078 6.6719 7.625 18.438 7.625z"/>
<path id="z" d="m4.2031 54.688h8.9844l11.234-42.672 11.172 42.672h10.594l11.234-42.672 11.188 42.672h8.9844l-14.312-54.688h-10.594l-11.766 44.828-11.812-44.828h-10.609z"/>
</defs>
<use xlink:href="#o"/>
<use x="61.181641" xlink:href="#z"/>
<use x="142.96875" xlink:href="#e"/>
</g>
</g>
<g clip-path="url(#a)">
<g transform="translate(72.109 715.49) scale(.1 -.1)">
<defs>
<path id="q" d="m18.312 70.219v-15.531h18.5v-6.9844h-18.5v-29.688q0-6.6875 1.8281-8.5938t7.4531-1.9062h9.2188v-7.5156h-9.2188q-10.406 0-14.359 3.875-3.9531 3.8906-3.9531 14.141v29.688h-6.5938v6.9844h6.5938v15.531z"/>
<path id="v" d="m54.891 33.016v-33.016h-8.9844v32.719q0 7.7656-3.0312 11.609-3.0312 3.8594-9.0781 3.8594-7.2812 0-11.484-4.6406-4.2031-4.625-4.2031-12.641v-30.906h-9.0312v75.984h9.0312v-29.797q3.2344 4.9375 7.5938 7.375 4.375 2.4375 10.094 2.4375 9.4219 0 14.25-5.8281 4.8438-5.8281 4.8438-17.156z"/>
</defs>
<use xlink:href="#q"/>
<use x="39.208984" xlink:href="#v"/>
<use x="102.587891" xlink:href="#h"/>
<use x="141.451172" xlink:href="#d"/>
<use x="202.974609" xlink:href="#d"/>
</g>
</g>
<g clip-path="url(#a)">
<g transform="translate(75.097 715.49) scale(.1 -.1)">
<defs>
<path id="ai" d="m2.9844 54.688h9.5156l17.094-45.891 17.094 45.891h9.5156l-20.516-54.688h-12.203z"/>
<path id="t" d="m48.781 52.594v-8.4062q-3.8125 2.1094-7.6406 3.1562t-7.7344 1.0469q-8.75 0-13.594-5.5469-4.8281-5.5312-4.8281-15.547t4.8281-15.562q4.8438-5.5312 13.594-5.5312 3.9062 0 7.7344 1.0469t7.6406 3.1562v-8.3125q-3.7656-1.75-7.7969-2.625-4.0156-0.89062-8.5625-0.89062-12.359 0-19.641 7.7656-7.2656 7.7656-7.2656 20.953 0 13.375 7.3438 21.031 7.3594 7.6719 20.156 7.6719 4.1406 0 8.0938-0.85938 3.9531-0.84375 7.6719-2.5469z"/>
<path id="aa" d="m44.281 53.078v-8.5q-3.7969 1.9531-7.9062 2.9219-4.0938 0.98438-8.5 0.98438-6.6875 0-10.031-2.0469t-3.3438-6.1562q0-3.125 2.3906-4.9062t9.625-3.3906l3.0781-0.6875q9.5625-2.0469 13.594-5.7812t4.0312-10.422q0-7.625-6.0312-12.078-6.0312-4.4375-16.578-4.4375-4.3906 0-9.1562 0.85938t-10.031 2.5625v9.2812q4.9844-2.5938 9.8125-3.8906 4.8281-1.2812 9.5781-1.2812 6.3438 0 9.75 2.1719 3.4219 2.1719 3.4219 6.125 0 3.6562-2.4688 5.6094-2.4531 1.9531-10.812 3.7656l-3.125 0.73438q-8.3438 1.75-12.062 5.3906-3.7031 3.6406-3.7031 9.9844 0 7.7188 5.4688 11.906 5.4688 4.2031 15.531 4.2031 4.9688 0 9.3594-0.73438 4.4062-0.71875 8.1094-2.1875z"/>
</defs>
<use xlink:href="#ai"/>
<use x="59.179688" xlink:href="#o"/>
<use x="120.361328" xlink:href="#i"/>
<use x="148.144531" xlink:href="#t"/>
<use x="203.125" xlink:href="#g"/>
<use x="264.404297" xlink:href="#e"/>
<use x="327.783203" xlink:href="#o"/>
<use x="388.964844" xlink:href="#d"/>
<use x="450.488281" xlink:href="#aa"/>
</g>
</g>
<g clip-path="url(#a)">
<g transform="translate(116.51 715.49) scale(.1 -.1)">
<defs>
<path id="at" d="m11.719 12.406h10.297v-8.4062l-8-15.625h-6.2969l4 15.625z"/>
</defs>
<use xlink:href="#at"/>
</g>
</g>
<g clip-path="url(#a)">
<g transform="translate(124.38 715.49) scale(.1 -.1)">
<use xlink:href="#z"/>
<use x="81.787109" xlink:href="#v"/>
<use x="145.166016" xlink:href="#k"/>
<use x="172.949219" xlink:href="#t"/>
<use x="227.929688" xlink:href="#v"/>
</g>
</g>
<g clip-path="url(#a)">
<g transform="translate(161.3 715.49) scale(.1 -.1)">
<use xlink:href="#r"/>
</g>
</g>
<g clip-path="url(#a)">
<g transform="translate(176.13 715.49) scale(.1 -.1)">
<use xlink:href="#t"/>
<use x="54.980469" xlink:href="#i"/>
<use x="82.763672" xlink:href="#d"/>
<use x="144.287109" xlink:href="#g"/>
<use x="205.566406" xlink:href="#e"/>
</g>
</g>
<g clip-path="url(#a)">
<g transform="translate(211.18 715.49) scale(.1 -.1)">
<defs>
<path id="ap" d="m8.5 21.578v33.109h8.9844v-32.766q0-7.7656 3.0156-11.656 3.0312-3.875 9.0938-3.875 7.2656 0 11.484 4.6406 4.2344 4.6406 4.2344 12.656v31h8.9844v-54.688h-8.9844v8.4062q-3.2656-4.9844-7.5938-7.4062-4.3125-2.4219-10.031-2.4219-9.4219 0-14.312 5.8594-4.875 5.8594-4.875 17.141z"/>
</defs>
<use xlink:href="#o"/>
<use x="61.181641" xlink:href="#ap"/>
<use x="124.560547" xlink:href="#q"/>
</g>
</g>
<g clip-path="url(#a)">
<g transform="translate(238 715.49) scale(.1 -.1)">
<defs>
<path id="ax" d="m32.172-5.0781q-3.7969-9.7656-7.4219-12.734-3.6094-2.9844-9.6562-2.9844h-7.1875v7.5156h5.2812q3.7031 0 5.75 1.7656 2.0625 1.75 4.5469 8.2969l1.6094 4.0938-22.109 53.812h9.5156l17.094-42.766 17.094 42.766h9.5156z"/>
</defs>
<use xlink:href="#d"/>
<use x="61.523438" xlink:href="#ai"/>
<use x="120.703125" xlink:href="#d"/>
<use x="182.226562" xlink:href="#h"/>
<use x="223.339844" xlink:href="#ax"/>
</g>
</g>
<g clip-path="url(#a)">
<g transform="translate(274.74 715.49) scale(.1 -.1)">
<defs>
<path id="aq" d="m9.0781 75.984h9.0312v-44.875l26.812 23.578h11.469l-29-25.578 30.234-29.109h-11.719l-27.797 26.703v-26.703h-9.0312z"/>
</defs>
<use xlink:href="#z"/>
<use x="81.787109" xlink:href="#d"/>
<use x="143.310547" xlink:href="#d"/>
<use x="204.833984" xlink:href="#aq"/>
</g>
</g>
<g clip-path="url(#a)">
<g transform="translate(324.64 715.49) scale(.1 -.1)">
<defs>
<path id="av" d="m31 75.875q-6.5312-11.219-9.7188-22.219-3.1719-10.984-3.1719-22.266 0-11.266 3.2031-22.328t9.6875-22.25h-7.8125q-7.3125 11.484-10.953 22.562t-3.6406 22.016q0 10.891 3.6094 21.922 3.625 11.047 10.984 22.562z"/>
</defs>
<use xlink:href="#av"/>
</g>
</g>
<g clip-path="url(#a)">
<g transform="translate(361.42 715.49) scale(.1 -.1)">
<defs>
<path id="az" d="m37.109 75.984v-7.4844h-8.5938q-4.8281 0-6.7188-1.9531-1.875-1.9531-1.875-7.0312v-4.8281h14.797v-6.9844h-14.797v-47.703h-9.0312v47.703h-8.5938v6.9844h8.5938v3.8125q0 9.125 4.25 13.297 4.25 4.1875 13.469 4.1875z"/>
</defs>
<use xlink:href="#az"/>
<use x="35.205078" xlink:href="#o"/>
<use x="96.386719" xlink:href="#h"/>
</g>
</g>
<g clip-path="url(#a)">
<g transform="translate(411.5 715.49) scale(.1 -.1)">
<use xlink:href="#r"/>
</g>
</g>
<g clip-path="url(#a)">
<g transform="translate(450.51 715.49) scale(.1 -.1)">
<use xlink:href="#g"/>
<use x="61.279297" xlink:href="#i"/>
<use x="89.0625" xlink:href="#aa"/>
<use x="141.162109" xlink:href="#o"/>
</g>
</g>
<g clip-path="url(#a)">
<g transform="translate(497.81 715.49) scale(.1 -.1)">
<use xlink:href="#t"/>
<use x="54.980469" xlink:href="#i"/>
<use x="82.763672" xlink:href="#d"/>
<use x="144.287109" xlink:href="#g"/>
<use x="205.566406" xlink:href="#e"/>
</g>
</g>
<g clip-path="url(#a)">
<g transform="translate(556.69 715.49) scale(.1 -.1)">
<use xlink:href="#o"/>
<use x="61.181641" xlink:href="#ap"/>
<use x="124.560547" xlink:href="#q"/>
</g>
</g>
<g clip-path="url(#a)">
<g transform="translate(613.26 715.49) scale(.1 -.1)">
<use xlink:href="#q"/>
<use x="39.208984" xlink:href="#v"/>
<use x="102.587891" xlink:href="#d"/>
</g>
</g>
<g clip-path="url(#a)">
<g transform="translate(671.73 715.49) scale(.1 -.1)">
<use xlink:href="#o"/>
<use x="61.181641" xlink:href="#e"/>
<use x="124.560547" xlink:href="#d"/>
</g>
</g>
<g clip-path="url(#a)">
<g transform="translate(733.43 715.49) scale(.1 -.1)">
<use xlink:href="#q"/>
<use x="39.208984" xlink:href="#v"/>
<use x="102.587891" xlink:href="#g"/>
<use x="163.867188" xlink:href="#q"/>
</g>
</g>
<g clip-path="url(#a)">
<g transform="translate(805.12 715.49) scale(.1 -.1)">
<use xlink:href="#k"/>
<use x="27.783203" xlink:href="#aa"/>
</g>
</g>
<g clip-path="url(#a)">
<g transform="translate(860.44 715.49) scale(.1 -.1)">
<defs>
<path id="ay" d="m54.891 54.688-19.781-26.609 20.797-28.078h-10.594l-15.922 21.484-15.906-21.484h-10.609l21.25 28.609-19.438 26.078h10.594l14.5-19.484 14.5 19.484z"/>
</defs>
<use xlink:href="#d"/>
<use x="59.773438" xlink:href="#ay"/>
<use x="118.953125" xlink:href="#q"/>
<use x="158.162109" xlink:href="#k"/>
<use x="185.945312" xlink:href="#e"/>
<use x="249.324219" xlink:href="#t"/>
<use x="304.304688" xlink:href="#q"/>
</g>
</g>
<g clip-path="url(#a)">
<g transform="translate(947.42 715.49) scale(.1 -.1)">
<defs>
<path id="as" d="m11.719 51.703h10.297v-12.391h-10.297zm0-39.297h10.297v-8.4062l-8-15.625h-6.2969l4 15.625z"/>
</defs>
<use xlink:href="#as"/>
</g>
</g>
<g clip-path="url(#a)">
<g transform="translate(1014.3 715.49) scale(.1 -.1)">
<use xlink:href="#o"/>
<use x="61.181641" xlink:href="#e"/>
<use x="124.560547" xlink:href="#d"/>
</g>
</g>
<g clip-path="url(#a)">
<g transform="translate(1086.7 715.49) scale(.1 -.1)">
<use xlink:href="#e"/>
<use x="63.378906" xlink:href="#d"/>
<use x="124.902344" xlink:href="#ai"/>
<use x="184.082031" xlink:href="#d"/>
<use x="245.605469" xlink:href="#h"/>
</g>
</g>
<g clip-path="url(#a)">
<g transform="translate(1165.6 715.49) scale(.1 -.1)">
<use xlink:href="#aq"/>
<use x="57.910156" xlink:href="#e"/>
<use x="121.289062" xlink:href="#o"/>
<use x="182.470703" xlink:href="#z"/>
<use x="264.257812" xlink:href="#aa"/>
</g>
</g>
<g clip-path="url(#a)">
<g transform="translate(1262.9 715.49) scale(.1 -.1)">
<defs>
<path id="au" d="m8.0156 75.875h7.8125q7.3125-11.516 10.953-22.562 3.6406-11.031 3.6406-21.922 0-10.938-3.6406-22.016t-10.953-22.562h-7.8125q6.4844 11.188 9.6875 22.25t3.2031 22.328q0 11.281-3.2031 22.266-3.2031 11-9.6875 22.219z"/>
</defs>
<use xlink:href="#au"/>
</g>
</g>
<g clip-path="url(#a)">
<g transform="translate(1349.6 715.49) scale(.1 -.1)">
<defs>
<path id="f" d="m10.688 12.406h10.312v-12.406h-10.312z"/>
</defs>
<use xlink:href="#f"/>
</g>
</g>
<g clip-path="url(#a)">
<g transform="translate(1333.1 604.36) scale(.1 -.1)">
<defs>
<path id="ar" d="m9.8125 72.906h14.703l18.594-49.609 18.703 49.609h14.703v-72.906h-9.625v64.016l-18.797-50h-9.9062l-18.797 50v-64.016h-9.5781z"/>
</defs>
<use xlink:href="#r"/>
<use x="29.492188" xlink:href="#ar"/>
<use x="115.771484" xlink:href="#ac"/>
<use x="176.074219" xlink:href="#al"/>
<use x="231.787109" xlink:href="#r"/>
<use x="261.279297" xlink:href="#w"/>
<use x="331.103516" xlink:href="#r"/>
<use x="360.595703" xlink:href="#j"/>
</g>
</g>
<g clip-path="url(#a)">
<g transform="translate(565.47 36.699) scale(.1 -.1)">
<defs>
<path id="c" d="m12.406 8.2969h16.109v55.625l-17.531-3.5156v8.9844l17.438 3.5156h9.8594v-64.609h16.109v-8.2969h-41.984z"/>
</defs>
<use xlink:href="#c"/>
<use x="63.623047" xlink:href="#f"/>
<use x="95.410156" xlink:href="#c"/>
</g>
</g>
<g clip-path="url(#a)">
<g transform="translate(77.929 150.86) scale(.1 -.1)">
<defs>
<path id="m" d="m19.188 8.2969h34.422v-8.2969h-46.281v8.2969q5.6094 5.8125 15.297 15.594 9.7031 9.7969 12.188 12.641 4.7344 5.3125 6.6094 9 1.8906 3.6875 1.8906 7.25 0 5.8125-4.0781 9.4688-4.0781 3.6719-10.625 3.6719-4.6406 0-9.7969-1.6094-5.1406-1.6094-11-4.8906v9.9688q5.9531 2.3906 11.125 3.6094 5.1875 1.2188 9.4844 1.2188 11.328 0 18.062-5.6719 6.7344-5.6562 6.7344-15.125 0-4.5-1.6875-8.5312-1.6719-4.0156-6.125-9.4844-1.2188-1.4219-7.7656-8.1875-6.5312-6.7656-18.453-18.922z"/>
</defs>
<use xlink:href="#c"/>
<use x="63.623047" xlink:href="#f"/>
<use x="95.410156" xlink:href="#m"/>
</g>
</g>
<g clip-path="url(#a)">
<g transform="translate(360.34 604.36) scale(.1 -.1)">
<defs>
<path id="n" d="m40.578 39.312q7.0781-1.5156 11.047-6.3125 3.9844-4.7812 3.9844-11.812 0-10.781-7.4219-16.703-7.4219-5.9062-21.094-5.9062-4.5781 0-9.4375 0.90625t-10.031 2.7188v9.5156q4.0938-2.3906 8.9688-3.6094 4.8906-1.2188 10.219-1.2188 9.2656 0 14.125 3.6562t4.8594 10.641q0 6.4531-4.5156 10.078-4.5156 3.6406-12.562 3.6406h-8.5v8.1094h8.8906q7.2656 0 11.125 2.9062t3.8594 8.375q0 5.6094-3.9844 8.6094-3.9688 3.0156-11.391 3.0156-4.0625 0-8.7031-0.89062-4.6406-0.875-10.203-2.7188v8.7812q5.625 1.5625 10.531 2.3438t9.25 0.78125q11.234 0 17.766-5.1094 6.5469-5.0938 6.5469-13.781 0-6.0625-3.4688-10.234t-9.8594-5.7812z"/>
</defs>
<use xlink:href="#c"/>
<use x="63.623047" xlink:href="#f"/>
<use x="95.410156" xlink:href="#n"/>
</g>
</g>
<g clip-path="url(#a)">
<g transform="translate(518.33 264.79) scale(.1 -.1)">
<defs>
<path id="s" d="m37.797 64.312-24.906-38.922h24.906zm-2.5938 8.5938h12.406v-47.516h10.406v-8.2031h-10.406v-17.188h-9.8125v17.188h-32.906v9.5156z"/>
</defs>
<use xlink:href="#c"/>
<use x="63.623047" xlink:href="#f"/>
<use x="95.410156" xlink:href="#s"/>
</g>
</g>
<g clip-path="url(#a)">
<g transform="translate(1176.5 491.7) scale(.1 -.1)">
<defs>
<path id="y" d="m10.797 72.906h38.719v-8.3125h-29.688v-17.859q2.1406 0.73438 4.2812 1.0938 2.1562 0.35938 4.3125 0.35938 12.203 0 19.328-6.6875 7.1406-6.6875 7.1406-18.109 0-11.766-7.3281-18.297-7.3281-6.5156-20.656-6.5156-4.5938 0-9.3594 0.78125-4.75 0.78125-9.8281 2.3438v9.9219q4.3906-2.3906 9.0781-3.5625t9.9062-1.1719q8.4531 0 13.375 4.4375 4.9375 4.4375 4.9375 12.062 0 7.6094-4.9375 12.047-4.9219 4.4531-13.375 4.4531-3.9531 0-7.8906-0.875-3.9219-0.875-8.0156-2.7344z"/>
</defs>
<use xlink:href="#c"/>
<use x="63.623047" xlink:href="#f"/>
<use x="95.410156" xlink:href="#y"/>
</g>
</g>
<g clip-path="url(#a)">
<g transform="translate(1015.6 604.36) scale(.1 -.1)">
<defs>
<path id="x" d="m10.984 1.5156v8.9844q3.7188-1.7656 7.5156-2.6875 3.8125-0.92188 7.4844-0.92188 9.7656 0 14.906 6.5625 5.1562 6.5625 5.8906 19.953-2.8281-4.2031-7.1875-6.4531-4.3438-2.25-9.6094-2.25-10.938 0-17.312 6.6094-6.375 6.625-6.375 18.109 0 11.219 6.6406 18 6.6406 6.7969 17.672 6.7969 12.656 0 19.312-9.7031 6.6719-9.6875 6.6719-28.141 0-17.234-8.1875-27.516-8.1719-10.281-21.984-10.281-3.7188 0-7.5312 0.73438-3.7969 0.73438-7.9062 2.2031zm19.625 30.906q6.6406 0 10.516 4.5312 3.8906 4.5469 3.8906 12.469 0 7.8594-3.8906 12.422-3.875 4.5625-10.516 4.5625t-10.516-4.5625-3.875-12.422q0-7.9219 3.875-12.469 3.875-4.5312 10.516-4.5312z"/>
</defs>
<use xlink:href="#c"/>
<use x="63.623047" xlink:href="#f"/>
<use x="95.410156" xlink:href="#x"/>
</g>
</g>
<g clip-path="url(#a)">
<g transform="translate(1089.9 604.36) scale(.1 -.1)">
<defs>
<path id="ah" d="m31.781 66.406q-7.6094 0-11.453-7.5-3.8281-7.4844-3.8281-22.531 0-14.984 3.8281-22.484 3.8438-7.5 11.453-7.5 7.6719 0 11.5 7.5 3.8438 7.5 3.8438 22.484 0 15.047-3.8438 22.531-3.8281 7.5-11.5 7.5zm0 7.8125q12.266 0 18.734-9.7031 6.4688-9.6875 6.4688-28.141 0-18.406-6.4688-28.109-6.4688-9.6875-18.734-9.6875-12.25 0-18.719 9.6875-6.4688 9.7031-6.4688 28.109 0 18.453 6.4688 28.141 6.4688 9.7031 18.719 9.7031z"/>
</defs>
<use xlink:href="#c"/>
<use x="63.623047" xlink:href="#f"/>
<use x="95.410156" xlink:href="#c"/>
<use x="159.033203" xlink:href="#ah"/>
</g>
</g>
<g clip-path="url(#a)">
<g transform="translate(1170.3 604.36) scale(.1 -.1)">
<use xlink:href="#c"/>
<use x="63.623047" xlink:href="#f"/>
<use x="95.410156" xlink:href="#c"/>
<use x="159.033203" xlink:href="#c"/>
</g>
</g>
<g clip-path="url(#a)">
<g transform="translate(401.84 604.36) scale(.1 -.1)">
<use xlink:href="#c"/>
<use x="63.623047" xlink:href="#f"/>
<use x="95.410156" xlink:href="#c"/>
<use x="159.033203" xlink:href="#s"/>
</g>
</g>
<g clip-path="url(#a)">
<g transform="translate(449.49 604.36) scale(.1 -.1)">
<use xlink:href="#c"/>
<use x="63.623047" xlink:href="#f"/>
<use x="95.410156" xlink:href="#c"/>
<use x="159.033203" xlink:href="#y"/>
</g>
</g>
<g clip-path="url(#a)">
<g transform="translate(526.94 604.36) scale(.1 -.1)">
<defs>
<path id="ag" d="m33.016 40.375q-6.6406 0-10.531-4.5469-3.875-4.5312-3.875-12.438 0-7.8594 3.875-12.438 3.8906-4.5625 10.531-4.5625t10.516 4.5625q3.875 4.5781 3.875 12.438 0 7.9062-3.875 12.438-3.875 4.5469-10.516 4.5469zm19.578 30.922v-8.9844q-3.7188 1.75-7.5 2.6719-3.7812 0.9375-7.5 0.9375-9.7656 0-14.922-6.5938-5.1406-6.5938-5.875-19.922 2.875 4.25 7.2188 6.5156 4.3594 2.2656 9.5781 2.2656 10.984 0 17.359-6.6719 6.375-6.6562 6.375-18.125 0-11.234-6.6406-18.031-6.6406-6.7812-17.672-6.7812-12.656 0-19.344 9.6875-6.6875 9.7031-6.6875 28.109 0 17.281 8.2031 27.562t22.016 10.281q3.7188 0 7.5-0.73438t7.8906-2.1875z"/>
</defs>
<use xlink:href="#c"/>
<use x="63.623047" xlink:href="#f"/>
<use x="95.410156" xlink:href="#c"/>
<use x="159.033203" xlink:href="#ag"/>
</g>
</g>
<g clip-path="url(#a)">
<g transform="translate(682.32 378.44) scale(.1 -.1)">
<defs>
<path id="af" d="m8.2031 72.906h46.875v-4.2031l-26.469-68.703h-10.297l24.906 64.594h-35.016z"/>
</defs>
<use xlink:href="#c"/>
<use x="63.623047" xlink:href="#f"/>
<use x="95.410156" xlink:href="#c"/>
<use x="159.033203" xlink:href="#af"/>
</g>
</g>
<g clip-path="url(#a)">
<g transform="translate(610.33 604.36) scale(.1 -.1)">
<defs>
<path id="ae" d="m31.781 34.625q-7.0312 0-11.062-3.7656-4.0156-3.7656-4.0156-10.344 0-6.5938 4.0156-10.359 4.0312-3.7656 11.062-3.7656t11.078 3.7812q4.0625 3.7969 4.0625 10.344 0 6.5781-4.0312 10.344-4.0156 3.7656-11.109 3.7656zm-9.8594 4.1875q-6.3438 1.5625-9.8906 5.9062-3.5312 4.3594-3.5312 10.609 0 8.7344 6.2188 13.812 6.2344 5.0781 17.062 5.0781 10.891 0 17.094-5.0781t6.2031-13.812q0-6.25-3.5469-10.609-3.5312-4.3438-9.8281-5.9062 7.125-1.6562 11.094-6.5 3.9844-4.8281 3.9844-11.797 0-10.609-6.4688-16.281-6.4688-5.6562-18.531-5.6562-12.047 0-18.531 5.6562-6.4688 5.6719-6.4688 16.281 0 6.9688 4 11.797 4.0156 4.8438 11.141 6.5zm-3.6094 15.578q0-5.6562 3.5312-8.8281 3.5469-3.1719 9.9375-3.1719 6.3594 0 9.9375 3.1719 3.5938 3.1719 3.5938 8.8281 0 5.6719-3.5938 8.8438-3.5781 3.1719-9.9375 3.1719-6.3906 0-9.9375-3.1719-3.5312-3.1719-3.5312-8.8438z"/>
</defs>
<use xlink:href="#c"/>
<use x="63.623047" xlink:href="#f"/>
<use x="95.410156" xlink:href="#c"/>
<use x="159.033203" xlink:href="#ae"/>
</g>
</g>
<g clip-path="url(#a)">
<g transform="translate(669.9 604.36) scale(.1 -.1)">
<use xlink:href="#c"/>
<use x="63.623047" xlink:href="#f"/>
<use x="95.410156" xlink:href="#c"/>
<use x="159.033203" xlink:href="#x"/>
</g>
</g>
<g clip-path="url(#a)">
<g transform="translate(766.71 491.7) scale(.1 -.1)">
<use xlink:href="#c"/>
<use x="63.623047" xlink:href="#f"/>
<use x="95.410156" xlink:href="#m"/>
<use x="159.033203" xlink:href="#ah"/>
</g>
</g>
<g clip-path="url(#a)">
<g transform="translate(732.45 604.36) scale(.1 -.1)">
<use xlink:href="#c"/>
<use x="63.623047" xlink:href="#f"/>
<use x="95.410156" xlink:href="#m"/>
<use x="159.033203" xlink:href="#c"/>
</g>
</g>
<g clip-path="url(#a)">
<g transform="translate(797.98 604.36) scale(.1 -.1)">
<use xlink:href="#c"/>
<use x="63.623047" xlink:href="#f"/>
<use x="95.410156" xlink:href="#m"/>
<use x="159.033203" xlink:href="#m"/>
</g>
</g>
<g clip-path="url(#a)">
<g transform="translate(866.49 604.36) scale(.1 -.1)">
<use xlink:href="#c"/>
<use x="63.623047" xlink:href="#f"/>
<use x="95.410156" xlink:href="#m"/>
<use x="159.033203" xlink:href="#n"/>
</g>
</g>
<g clip-path="url(#a)">
<g transform="translate(53.352 604.36) scale(.1 -.1)">
<use xlink:href="#c"/>
<use x="63.623047" xlink:href="#f"/>
<use x="95.410156" xlink:href="#m"/>
<use x="159.033203" xlink:href="#s"/>
</g>
</g>
<g clip-path="url(#a)">
<g transform="translate(62.288 604.36) scale(.1 -.1)">
<use xlink:href="#c"/>
<use x="63.623047" xlink:href="#f"/>
<use x="95.410156" xlink:href="#m"/>
<use x="159.033203" xlink:href="#y"/>
</g>
</g>
<g clip-path="url(#a)">
<g transform="translate(108.6 264.79) scale(.1 -.1)">
<use xlink:href="#c"/>
<use x="63.623047" xlink:href="#f"/>
<use x="95.410156" xlink:href="#m"/>
<use x="159.033203" xlink:href="#ag"/>
</g>
</g>
<g clip-path="url(#a)">
<g transform="translate(74.202 604.36) scale(.1 -.1)">
<use xlink:href="#c"/>
<use x="63.623047" xlink:href="#f"/>
<use x="95.410156" xlink:href="#m"/>
<use x="159.033203" xlink:href="#af"/>
</g>
</g>
<g clip-path="url(#a)">
<g transform="translate(89.094 604.36) scale(.1 -.1)">
<use xlink:href="#c"/>
<use x="63.623047" xlink:href="#f"/>
<use x="95.410156" xlink:href="#m"/>
<use x="159.033203" xlink:href="#ae"/>
</g>
</g>
<g clip-path="url(#a)">
<g transform="translate(164.15 378.44) scale(.1 -.1)">
<use xlink:href="#c"/>
<use x="63.623047" xlink:href="#f"/>
<use x="95.410156" xlink:href="#m"/>
<use x="159.033203" xlink:href="#x"/>
</g>
</g>
<g clip-path="url(#a)">
<g transform="translate(127.81 604.36) scale(.1 -.1)">
<use xlink:href="#c"/>
<use x="63.623047" xlink:href="#f"/>
<use x="95.410156" xlink:href="#n"/>
<use x="159.033203" xlink:href="#c"/>
</g>
</g>
<g clip-path="url(#a)">
<g transform="translate(151.64 604.36) scale(.1 -.1)">
<use xlink:href="#c"/>
<use x="63.623047" xlink:href="#f"/>
<use x="95.410156" xlink:href="#n"/>
<use x="159.033203" xlink:href="#m"/>
</g>
</g>
<g clip-path="url(#a)">
<g transform="translate(193.34 604.36) scale(.1 -.1)">
<use xlink:href="#c"/>
<use x="63.623047" xlink:href="#f"/>
<use x="95.410156" xlink:href="#n"/>
<use x="159.033203" xlink:href="#n"/>
</g>
</g>
<g clip-path="url(#a)">
<g transform="translate(258.87 491.7) scale(.1 -.1)">
<use xlink:href="#c"/>
<use x="63.623047" xlink:href="#f"/>
<use x="95.410156" xlink:href="#n"/>
<use x="159.033203" xlink:href="#s"/>
</g>
</g>
<g clip-path="url(#a)">
<g transform="translate(241 604.36) scale(.1 -.1)">
<use xlink:href="#c"/>
<use x="63.623047" xlink:href="#f"/>
<use x="95.410156" xlink:href="#n"/>
<use x="159.033203" xlink:href="#y"/>
</g>
</g>
<g clip-path="url(#a)">
<g transform="translate(276.74 604.36) scale(.1 -.1)">
<use xlink:href="#c"/>
<use x="63.623047" xlink:href="#f"/>
<use x="95.410156" xlink:href="#n"/>
<use x="159.033203" xlink:href="#ag"/>
</g>
</g>
<g clip-path="url(#a)">
<g transform="translate(106.97 604.36) scale(.1 -.1)">
<use xlink:href="#c"/>
<use x="63.623047" xlink:href="#f"/>
<use x="95.410156" xlink:href="#n"/>
<use x="159.033203" xlink:href="#af"/>
</g>
</g>
<g clip-path="url(#a)">
<g transform="translate(315.46 604.36) scale(.1 -.1)">
<use xlink:href="#c"/>
<use x="63.623047" xlink:href="#f"/>
<use x="95.410156" xlink:href="#n"/>
<use x="159.033203" xlink:href="#ae"/>
</g>
</g>
<g clip-path="url(#a)">
<g transform="translate(937.97 604.36) scale(.1 -.1)">
<use xlink:href="#c"/>
<use x="63.623047" xlink:href="#f"/>
<use x="95.410156" xlink:href="#n"/>
<use x="159.033203" xlink:href="#x"/>
</g>
</g>
<g clip-path="url(#a)">
<g transform="translate(1253.7 604.36) scale(.1 -.1)">
<use xlink:href="#c"/>
<use x="63.623047" xlink:href="#f"/>
<use x="95.410156" xlink:href="#s"/>
<use x="159.033203" xlink:href="#ah"/>
</g>
</g>
<g clip-path="url(#a)">
<g transform="translate(1340.1 604.36) scale(.1 -.1)">
<use xlink:href="#c"/>
<use x="63.623047" xlink:href="#f"/>
<use x="95.410156" xlink:href="#s"/>
<use x="159.033203" xlink:href="#c"/>
</g>
</g>
<defs>
<clipPath id="a">
<rect width="1418.7" height="746.67"/>
</clipPath>
</defs>
</svg>
