<?xml version="1.0" encoding="UTF-8"?>
<!DOCTYPE svg  PUBLIC '-//W3C//DTD SVG 1.1//EN'  'http://www.w3.org/Graphics/SVG/1.1/DTD/svg11.dtd'>
<svg width="1317.3pt" height="693.33pt" version="1.1" viewBox="0 0 1317.3 693.33" xmlns="http://www.w3.org/2000/svg" xmlns:xlink="http://www.w3.org/1999/xlink">
<metadata>
<rdf:RDF xmlns:cc="http://creativecommons.org/ns#" xmlns:dc="http://purl.org/dc/elements/1.1/" xmlns:rdf="http://www.w3.org/1999/02/22-rdf-syntax-ns#">
<cc:Work>
<dc:type rdf:resource="http://purl.org/dc/dcmitype/StillImage"/>
<dc:date>2021-02-23T10:46:17.270199</dc:date>
<dc:format>image/svg+xml</dc:format>
<dc:creator>
<cc:Agent>
<dc:title>Matplotlib v3.3.3, https://matplotlib.org/</dc:title>
</cc:Agent>
</dc:creator>
</cc:Work>
</rdf:RDF>
</metadata>
<defs>
<style type="text/css">*{stroke-linecap:butt;stroke-linejoin:round;}</style>
</defs>
<path d="m0 693.33h1317.3v-693.33h-1317.3z" fill="#fff"/>
<g fill="none" stroke="#000">
<path d="m620.27 31.515-272.07 181.6" clip-path="url(#a)"/>
<path d="m620.27 31.515 36.798 541.99" clip-path="url(#a)"/>
<path d="m620.27 31.515 259.15 90.875" clip-path="url(#a)"/>
<path d="m620.27 31.515-23.879 541.99" clip-path="url(#a)"/>
<path d="m348.21 213.11-230.18 90.541" clip-path="url(#a)"/>
<path d="m348.21 213.11 37.413 360.4" clip-path="url(#a)"/>
<path d="m348.21 213.11 85.316 360.4" clip-path="url(#a)"/>
<path d="m348.21 213.11 163.56 270.86" clip-path="url(#a)"/>
<path d="m348.21 213.11-48.812 360.4" clip-path="url(#a)"/>
<path d="m348.21 213.11-7.2963 360.4" clip-path="url(#a)"/>
<path d="m657.07 573.51v88.308" clip-path="url(#a)"/>
<path d="m879.42 122.39-158.48 451.12" clip-path="url(#a)"/>
<path d="m879.42 122.39-91.415 451.12" clip-path="url(#a)"/>
<path d="m879.42 122.39-21.157 451.12" clip-path="url(#a)"/>
<path d="m879.42 122.39 271.05 90.723" clip-path="url(#a)"/>
<path d="m720.94 573.51v88.308" clip-path="url(#a)"/>
<path d="m788 573.51v88.308" clip-path="url(#a)"/>
<path d="m858.26 573.51v88.308" clip-path="url(#a)"/>
<path d="m1150.5 213.11-127.74 90.541" clip-path="url(#a)"/>
<path d="m1150.5 213.11 20.758 360.4" clip-path="url(#a)"/>
<path d="m1150.5 213.11 106.98 360.4" clip-path="url(#a)"/>
<path d="m1022.7 303.65-91.016 269.86" clip-path="url(#a)"/>
<path d="m1022.7 303.65 25.548 90.312" clip-path="url(#a)"/>
<path d="m1022.7 303.65 65.467 180.32" clip-path="url(#a)"/>
<path d="m1171.2 573.51v88.308" clip-path="url(#a)"/>
<path d="m931.71 573.51v88.308" clip-path="url(#a)"/>
<path d="m1048.3 393.97 39.919 90.006" clip-path="url(#a)" stroke-dasharray="3.7,1.6"/>
<path d="m1048.3 393.97-39.919 179.54" clip-path="url(#a)"/>
<path d="m1088.2 483.97v89.537" clip-path="url(#a)"/>
<path d="m1088.2 573.51v88.308" clip-path="url(#a)"/>
<path d="m1008.4 573.51v88.308" clip-path="url(#a)"/>
<path d="m118.03 303.65-58.149 269.86" clip-path="url(#a)"/>
<path d="m118.03 303.65-48.568 269.86" clip-path="url(#a)"/>
<path d="m118.03 303.65-27.81 269.86" clip-path="url(#a)"/>
<path d="m118.03 303.65-0.66532 269.86" clip-path="url(#a)"/>
<path d="m118.03 303.65 34.464 180.32" clip-path="url(#a)"/>
<path d="m118.03 303.65 100.73 90.312" clip-path="url(#a)"/>
<path d="m385.62 573.51v88.308" clip-path="url(#a)"/>
<path d="m433.52 573.51v88.308" clip-path="url(#a)"/>
<path d="m511.76 483.97-27.145 89.537" clip-path="url(#a)"/>
<path d="m511.76 483.97 27.145 89.537" clip-path="url(#a)"/>
<path d="m484.62 573.51v88.308" clip-path="url(#a)"/>
<path d="m538.91 573.51v88.308" clip-path="url(#a)"/>
<path d="m59.879 573.51v88.308" clip-path="url(#a)"/>
<path d="m69.459 573.51v88.308" clip-path="url(#a)"/>
<path d="m90.217 573.51-7.9838 88.308" clip-path="url(#a)"/>
<path d="m90.217 573.51 7.9838 88.308" clip-path="url(#a)"/>
<path d="m117.36 573.51v88.308" clip-path="url(#a)"/>
<path d="m152.49 483.97-12.774 89.537" clip-path="url(#a)"/>
<path d="m152.49 483.97 12.774 89.537" clip-path="url(#a)"/>
<path d="m218.76 393.97-24.75 179.54" clip-path="url(#a)"/>
<path d="m218.76 393.97 24.75 90.006" clip-path="url(#a)"/>
<path d="m194.01 573.51v88.308" clip-path="url(#a)"/>
<path d="m243.51 483.97-17.564 89.537" clip-path="url(#a)"/>
<path d="m243.51 483.97 17.564 89.537" clip-path="url(#a)"/>
<path d="m225.94 573.51v88.308" clip-path="url(#a)"/>
<path d="m261.07 573.51v88.308" clip-path="url(#a)"/>
<path d="m139.72 573.51v88.308" clip-path="url(#a)"/>
<path d="m165.27 573.51v88.308" clip-path="url(#a)"/>
<path d="m299.39 573.51v88.308" clip-path="url(#a)"/>
<path d="m340.91 573.51v88.308" clip-path="url(#a)"/>
<path d="m596.39 573.51v88.308" clip-path="url(#a)"/>
<path d="m1257.5 573.51v88.308" clip-path="url(#a)"/>
</g>
<path d="m485.22 129.2 5.0039-3.34q1.9962-1.3324 0.66376-3.3286l-4.2984-6.4397q-1.3324-1.9962-3.3286-0.66376l-5.0039 3.34q-1.9962 1.3324-0.66376 3.3286l4.2984 6.4397q1.3324 1.9962 3.3286 0.66376z" clip-path="url(#a)" fill="#fff" stroke="#fff"/>
<g clip-path="url(#a)">
<g transform="translate(482.96 125.82) rotate(-33.722) scale(.08 -.08)">
<defs>
<path id="aj" d="m9.8125 72.906h9.8594v-29.891h35.844v29.891h9.8594v-72.906h-9.8594v34.719h-35.844v-34.719h-9.8594z"/>
</defs>
<use xlink:href="#aj"/>
</g>
</g>
<path d="m632.26 300.71 0.30194 4.4473q0.16257 2.3945 2.5571 2.2319l7.7247-0.52446q2.3945-0.16257 2.2319-2.5571l-0.30194-4.4473q-0.16257-2.3945-2.5571-2.2319l-7.7247 0.52446q-2.3945 0.16257-2.2319 2.5571z" clip-path="url(#a)" fill="#fff" stroke="#fff"/>
<g clip-path="url(#a)">
<g transform="translate(636.32 300.44) rotate(86.116) scale(.08 -.08)">
<defs>
<path id="ap" d="m9.8125 72.906h9.8594v-64.609h35.5v-8.2969h-45.359z"/>
</defs>
<use xlink:href="#ap"/>
</g>
</g>
<path d="m744.93 81.875 5.6773 1.9909q2.2648 0.79419 3.059-1.4706l2.5621-7.3063q0.79419-2.2648-1.4706-3.059l-5.6773-1.9909q-2.2648-0.79419-3.059 1.4706l-2.5621 7.3063q-0.79419 2.2648 1.4706 3.059z" clip-path="url(#a)" fill="#fff" stroke="#fff"/>
<g clip-path="url(#a)">
<g transform="translate(746.28 78.041) rotate(19.324) scale(.08 -.08)">
<use xlink:href="#aj"/>
</g>
</g>
<path d="m614.47 305.71 0.25771-5.8493q0.10564-2.3977-2.292-2.5033l-7.735-0.34079q-2.3977-0.10564-2.5033 2.292l-0.25771 5.8493q-0.10564 2.3977 2.292 2.5033l7.735 0.34079q2.3977 0.10564 2.5033-2.292z" clip-path="url(#a)" fill="#fff" stroke="#fff"/>
<g clip-path="url(#a)">
<g transform="translate(610.41 305.53) rotate(-87.477) scale(.08 -.08)">
<defs>
<path id="t" d="m8.6875 72.906h9.9219v-44.297q0-11.719 4.2344-16.875 4.25-5.1406 13.781-5.1406 9.4688 0 13.719 5.1406 4.25 5.1562 4.25 16.875v44.297h9.9062v-45.516q0-14.25-7.0625-21.531-7.0469-7.2812-20.812-7.2812-13.828 0-20.891 7.2812-7.0469 7.2812-7.0469 21.531z"/>
</defs>
<use xlink:href="#t"/>
</g>
</g>
<path d="m232.87 265.22 5.0927-2.0032q2.2334-0.87852 1.3549-3.1119l-2.8341-7.2051q-0.87852-2.2334-3.1119-1.3549l-5.0927 2.0032q-2.2334 0.87852-1.3549 3.112l2.8341 7.2051q0.87852 2.2334 3.112 1.3549z" clip-path="url(#a)" fill="#fff" stroke="#fff"/>
<g clip-path="url(#a)">
<g transform="translate(231.38 261.44) rotate(-21.472) scale(.08 -.08)">
<defs>
<path id="n" d="m34.188 63.188-13.391-36.281h26.812zm-5.5781 9.7188h11.188l27.781-72.906h-10.25l-6.6406 18.703h-32.859l-6.6406-18.703h-10.406z"/>
</defs>
<use xlink:href="#n"/>
</g>
</g>
<path d="m360.39 391.24 0.56507 5.4432q0.24782 2.3872 2.635 2.1394l7.7011-0.79946q2.3872-0.24782 2.1394-2.635l-0.56507-5.4432q-0.24782-2.3872-2.635-2.1394l-7.7011 0.79946q-2.3872 0.24782-2.1394 2.635z" clip-path="url(#a)" fill="#fff" stroke="#fff"/>
<g clip-path="url(#a)">
<g transform="translate(364.43 390.82) rotate(84.073) scale(.08 -.08)">
<use xlink:href="#n"/>
</g>
</g>
<path d="m384.21 392.41 1.1112 4.694q0.55287 2.3355 2.8883 1.7826l7.5343-1.7836q2.3355-0.55287 1.7826-2.8883l-1.1112-4.694q-0.55287-2.3355-2.8883-1.7826l-7.5343 1.7836q-2.3355 0.55287-1.7826 2.8883z" clip-path="url(#a)" fill="#fff" stroke="#fff"/>
<g clip-path="url(#a)">
<g transform="translate(388.16 391.47) rotate(76.682) scale(.08 -.08)">
<defs>
<path id="u" d="m19.672 64.797v-27.391h12.406q6.8906 0 10.641 3.5625 3.7656 3.5625 3.7656 10.156 0 6.5469-3.7656 10.109-3.75 3.5625-10.641 3.5625zm-9.8594 8.1094h22.266q12.266 0 18.531-5.5469 6.2812-5.5469 6.2812-16.234 0-10.797-6.2812-16.312-6.2656-5.5156-18.531-5.5156h-12.406v-29.297h-9.8594z"/>
</defs>
<use xlink:href="#u"/>
</g>
</g>
<path d="m423.2 349.44 2.8288 4.6847q1.2406 2.0545 3.2951 0.81389l6.6279-4.0022q2.0545-1.2406 0.81389-3.2951l-2.8288-4.6847q-1.2406-2.0545-3.2951-0.81389l-6.6279 4.0022q-2.0545 1.2406-0.81389 3.2951z" clip-path="url(#a)" fill="#fff" stroke="#fff"/>
<g clip-path="url(#a)">
<g transform="translate(426.68 347.34) rotate(58.874) scale(.08 -.08)">
<use xlink:href="#n"/>
</g>
</g>
<path d="m329.62 397.05 0.78583-5.802q0.32212-2.3783-2.0562-2.7004l-7.6724-1.0392q-2.3783-0.32212-2.7004 2.0562l-0.78583 5.802q-0.32212 2.3783 2.0562 2.7004l7.6724 1.0392q2.3783 0.32212 2.7004-2.0562z" clip-path="url(#a)" fill="#fff" stroke="#fff"/>
<g clip-path="url(#a)">
<g transform="translate(325.59 396.51) rotate(-82.287) scale(.08 -.08)">
<use xlink:href="#t"/>
</g>
</g>
<path d="m350.77 396.37 0.11851-5.8538q0.048579-2.3995-2.3509-2.4481l-7.7409-0.15672q-2.3995-0.048579-2.4481 2.3509l-0.11851 5.8538q-0.048579 2.3995 2.3509 2.4481l7.7409 0.15672q2.3995 0.048579 2.4481-2.3509z" clip-path="url(#a)" fill="#fff" stroke="#fff"/>
<g clip-path="url(#a)">
<g transform="translate(346.71 396.28) rotate(-88.84) scale(.08 -.08)">
<use xlink:href="#t"/>
</g>
</g>
<path d="m650.8 600.76v33.808q0 2.4 2.4 2.4h7.7425q2.4 0 2.4-2.4v-33.808q0-2.4-2.4-2.4h-7.7425q-2.4 0-2.4 2.4z" clip-path="url(#a)" fill="#fff" stroke="#fff"/>
<g clip-path="url(#a)">
<g transform="translate(654.86 600.76) rotate(90) scale(.08 -.08)">
<defs>
<path id="l" d="m-0.29688 72.906h61.672v-8.3125h-25.875v-64.594h-9.9062v64.594h-25.891z"/>
<path id="e" d="m56.203 29.594v-4.3906h-41.312q0.59375-9.2812 5.5938-14.141t13.938-4.8594q5.1719 0 10.031 1.2656t9.6562 3.8125v-8.5q-4.8438-2.0469-9.9219-3.125t-10.297-1.0781q-13.094 0-20.734 7.6094-7.6406 7.625-7.6406 20.625 0 13.422 7.25 21.297 7.25 7.8906 19.562 7.8906 11.031 0 17.453-7.1094 6.4219-7.0938 6.4219-19.297zm-8.9844 2.6406q-0.09375 7.3594-4.125 11.75-4.0312 4.4062-10.672 4.4062-7.5156 0-12.031-4.25t-5.2031-11.969z"/>
<path id="h" d="m41.109 46.297q-1.5156 0.875-3.2969 1.2812-1.7812 0.42188-3.9219 0.42188-7.625 0-11.703-4.9531t-4.0781-14.234v-28.812h-9.0312v54.688h9.0312v-8.5q2.8438 4.9844 7.375 7.3906 4.5469 2.4219 11.047 2.4219 0.92188 0 2.0469-0.125 1.125-0.10938 2.4844-0.35938z"/>
<path id="i" d="m52 44.188q3.375 6.0625 8.0625 8.9375t11.031 2.875q8.5469 0 13.188-5.9844 4.6406-5.9688 4.6406-17v-33.016h-9.0312v32.719q0 7.8594-2.7969 11.656-2.7812 3.8125-8.4844 3.8125-6.9844 0-11.047-4.6406-4.0469-4.625-4.0469-12.641v-30.906h-9.0312v32.719q0 7.9062-2.7812 11.688t-8.5938 3.7812q-6.8906 0-10.953-4.6562-4.0469-4.6562-4.0469-12.625v-30.906h-9.0312v54.688h9.0312v-8.5q3.0781 5.0312 7.375 7.4219t10.203 2.3906q5.9688 0 10.141-3.0312 4.1719-3.0156 6.1719-8.7812z"/>
<path id="g" d="m9.4219 54.688h8.9844v-54.688h-8.9844zm0 21.297h8.9844v-11.391h-8.9844z"/>
<path id="j" d="m54.891 33.016v-33.016h-8.9844v32.719q0 7.7656-3.0312 11.609-3.0312 3.8594-9.0781 3.8594-7.2812 0-11.484-4.6406-4.2031-4.625-4.2031-12.641v-30.906h-9.0312v54.688h9.0312v-8.5q3.2344 4.9375 7.5938 7.375 4.375 2.4375 10.094 2.4375 9.4219 0 14.25-5.8281 4.8438-5.8281 4.8438-17.156z"/>
<path id="f" d="m34.281 27.484q-10.891 0-15.094-2.4844t-4.2031-8.5q0-4.7812 3.1562-7.5938 3.1562-2.7969 8.5625-2.7969 7.4844 0 12 5.2969t4.5156 14.078v2zm17.922 3.7188v-31.203h-8.9844v8.2969q-3.0781-4.9688-7.6719-7.3438t-11.234-2.375q-8.3906 0-13.359 4.7188-4.9531 4.7188-4.9531 12.625 0 9.2188 6.1719 13.906 6.1875 4.6875 18.438 4.6875h12.609v0.89062q0 6.2031-4.0781 9.5938t-11.453 3.3906q-4.6875 0-9.1406-1.125-4.4375-1.125-8.5312-3.375v8.3125q4.9219 1.9062 9.5625 2.8438 4.6406 0.95312 9.0312 0.95312 11.875 0 17.734-6.1562 5.8594-6.1406 5.8594-18.641z"/>
<path id="k" d="m9.4219 75.984h8.9844v-75.984h-8.9844z"/>
</defs>
<use xlink:href="#l"/>
<use x="44.083984" xlink:href="#e"/>
<use x="105.607422" xlink:href="#h"/>
<use x="144.970703" xlink:href="#i"/>
<use x="242.382812" xlink:href="#g"/>
<use x="270.166016" xlink:href="#j"/>
<use x="333.544922" xlink:href="#f"/>
<use x="394.824219" xlink:href="#k"/>
</g>
</g>
<path d="m805.19 352.61 1.8138-5.1632q0.79547-2.2643-1.4689-3.0598l-7.3049-2.5662q-2.2643-0.79547-3.0598 1.4689l-1.8138 5.1632q-0.79547 2.2643 1.4689 3.0598l7.3049 2.5662q2.2643 0.79547 3.0598-1.4689z" clip-path="url(#a)" fill="#fff" stroke="#fff"/>
<g clip-path="url(#a)">
<g transform="translate(801.36 351.26) rotate(-70.644) scale(.08 -.08)">
<use xlink:href="#n"/>
</g>
</g>
<path d="m839.25 352.21 1.2234-6.0373q0.47665-2.3522-1.8755-2.8288l-7.5883-1.5377q-2.3522-0.47665-2.8288 1.8755l-1.2234 6.0373q-0.47665 2.3522 1.8755 2.8288l7.5883 1.5377q2.3522 0.47665 2.8288-1.8755z" clip-path="url(#a)" fill="#fff" stroke="#fff"/>
<g clip-path="url(#a)">
<g transform="translate(835.26 351.41) rotate(-78.545) scale(.08 -.08)">
<defs>
<path id="af" d="m19.672 64.797v-56.688h11.922q15.094 0 22.094 6.8281 7 6.8438 7 21.594 0 14.641-7 21.453t-22.094 6.8125zm-9.8594 8.1094h20.266q21.188 0 31.094-8.8125 9.9219-8.8125 9.9219-27.562 0-18.859-9.9688-27.703-9.9531-8.8281-31.047-8.8281h-20.266z"/>
</defs>
<use xlink:href="#af"/>
</g>
</g>
<path d="m874.99 350.65 0.22598-4.8185q0.11243-2.3974-2.2849-2.5098l-7.734-0.36272q-2.3974-0.11244-2.5098 2.2849l-0.22598 4.8185q-0.11244 2.3974 2.2849 2.5098l7.734 0.36272q2.3974 0.11244 2.5098-2.2849z" clip-path="url(#a)" fill="#fff" stroke="#fff"/>
<g clip-path="url(#a)">
<g transform="translate(870.93 350.46) rotate(-87.315) scale(.08 -.08)">
<use xlink:href="#u"/>
</g>
</g>
<path d="m1010.4 172.83 5.1895 1.737q2.2759 0.76176 3.0377-1.5141l2.4575-7.3421q0.76176-2.2759-1.5141-3.0377l-5.1895-1.737q-2.2759-0.76176-3.0377 1.5141l-2.4575 7.3421q-0.76176 2.2759 1.5141 3.0377z" clip-path="url(#a)" fill="#fff" stroke="#fff"/>
<g clip-path="url(#a)">
<g transform="translate(1011.7 168.98) rotate(18.506) scale(.08 -.08)">
<use xlink:href="#n"/>
</g>
</g>
<path d="m714.67 600.76v33.808q0 2.4 2.4 2.4h7.7425q2.4 0 2.4-2.4v-33.808q0-2.4-2.4-2.4h-7.7425q-2.4 0-2.4 2.4z" clip-path="url(#a)" fill="#fff" stroke="#fff"/>
<g clip-path="url(#a)">
<g transform="translate(718.73 600.76) rotate(90) scale(.08 -.08)">
<use xlink:href="#l"/>
<use x="44.083984" xlink:href="#e"/>
<use x="105.607422" xlink:href="#h"/>
<use x="144.970703" xlink:href="#i"/>
<use x="242.382812" xlink:href="#g"/>
<use x="270.166016" xlink:href="#j"/>
<use x="333.544922" xlink:href="#f"/>
<use x="394.824219" xlink:href="#k"/>
</g>
</g>
<path d="m781.73 600.76v33.808q0 2.4 2.4 2.4h7.7425q2.4 0 2.4-2.4v-33.808q0-2.4-2.4-2.4h-7.7425q-2.4 0-2.4 2.4z" clip-path="url(#a)" fill="#fff" stroke="#fff"/>
<g clip-path="url(#a)">
<g transform="translate(785.8 600.76) rotate(90) scale(.08 -.08)">
<use xlink:href="#l"/>
<use x="44.083984" xlink:href="#e"/>
<use x="105.607422" xlink:href="#h"/>
<use x="144.970703" xlink:href="#i"/>
<use x="242.382812" xlink:href="#g"/>
<use x="270.166016" xlink:href="#j"/>
<use x="333.544922" xlink:href="#f"/>
<use x="394.824219" xlink:href="#k"/>
</g>
</g>
<path d="m851.99 600.76v33.808q0 2.4 2.4 2.4h7.7425q2.4 0 2.4-2.4v-33.808q0-2.4-2.4-2.4h-7.7425q-2.4 0-2.4 2.4z" clip-path="url(#a)" fill="#fff" stroke="#fff"/>
<g clip-path="url(#a)">
<g transform="translate(856.06 600.76) rotate(90) scale(.08 -.08)">
<use xlink:href="#l"/>
<use x="44.083984" xlink:href="#e"/>
<use x="105.607422" xlink:href="#h"/>
<use x="144.970703" xlink:href="#i"/>
<use x="242.382812" xlink:href="#g"/>
<use x="270.166016" xlink:href="#j"/>
<use x="333.544922" xlink:href="#f"/>
<use x="394.824219" xlink:href="#k"/>
</g>
</g>
<path d="m1088 265.08 4.4647-3.1645q1.958-1.3878 0.57022-3.3459l-4.4772-6.3167q-1.3878-1.958-3.3459-0.57022l-4.4647 3.1645q-1.958 1.3878-0.57022 3.3459l4.4772 6.3167q1.3878 1.958 3.3459 0.57022z" clip-path="url(#a)" fill="#fff" stroke="#fff"/>
<g clip-path="url(#a)">
<g transform="translate(1085.6 261.77) rotate(-35.328) scale(.08 -.08)">
<use xlink:href="#n"/>
</g>
</g>
<path d="m1154.5 391.26 0.27738 4.8158q0.13801 2.396 2.534 2.258l7.7297-0.44521q2.396-0.138 2.258-2.534l-0.27738-4.8158q-0.13801-2.396-2.534-2.258l-7.7297 0.44521q-2.396 0.13801-2.258 2.534z" clip-path="url(#a)" fill="#fff" stroke="#fff"/>
<g clip-path="url(#a)">
<g transform="translate(1158.5 391.03) rotate(86.704) scale(.08 -.08)">
<use xlink:href="#u"/>
</g>
</g>
<path d="m1197.1 392.29 1.6662 5.6129q0.68298 2.3008 2.9838 1.6178l7.4224-2.2033q2.3008-0.68298 1.6178-2.9838l-1.6662-5.6129q-0.68298-2.3008-2.9838-1.6178l-7.4224 2.2033q-2.3008 0.68298-1.6178 2.9838z" clip-path="url(#a)" fill="#fff" stroke="#fff"/>
<g clip-path="url(#a)">
<g transform="translate(1201 391.13) rotate(73.466) scale(.08 -.08)">
<use xlink:href="#t"/>
</g>
</g>
<path d="m982.43 442.77 1.4705-4.3599q0.76701-2.2741-1.5071-3.0411l-7.3365-2.4744q-2.2741-0.76701-3.0411 1.5071l-1.4705 4.3599q-0.76701 2.2741 1.5071 3.0411l7.3365 2.4744q2.2741 0.76701 3.0411-1.5071z" clip-path="url(#a)" fill="#fff" stroke="#fff"/>
<g clip-path="url(#a)">
<g transform="translate(978.58 441.47) rotate(-71.362) scale(.08 -.08)">
<defs>
<path id="v" d="m9.8125 72.906h41.891v-8.3125h-32.031v-21.484h28.906v-8.2969h-28.906v-34.812h-9.8594z"/>
</defs>
<use xlink:href="#v"/>
</g>
</g>
<path d="m1028.8 348.09 1.376 4.8641q0.65329 2.3094 2.9627 1.6561l7.4501-2.1076q2.3094-0.65329 1.6561-2.9627l-1.376-4.8641q-0.65329-2.3094-2.9627-1.6561l-7.4501 2.1076q-2.3094 0.65329-1.6561 2.9627z" clip-path="url(#a)" fill="#fff" stroke="#fff"/>
<g clip-path="url(#a)">
<g transform="translate(1032.7 346.98) rotate(74.204) scale(.08 -.08)">
<defs>
<path id="ar" d="m9.8125 72.906h46.094v-8.3125h-36.234v-21.578h34.719v-8.2969h-34.719v-26.422h37.109v-8.2969h-46.969z"/>
</defs>
<use xlink:href="#ar"/>
</g>
</g>
<path d="m1048.6 393.33 1.9064 5.2509q0.81905 2.2559 3.075 1.4369l7.2777-2.6423q2.2559-0.81904 1.4369-3.075l-1.9064-5.2509q-0.81905-2.2559-3.075-1.4369l-7.2777 2.6423q-2.2559 0.81905-1.4369 3.075z" clip-path="url(#a)" fill="#fff" stroke="#fff"/>
<g clip-path="url(#a)">
<g transform="translate(1052.4 391.94) rotate(70.046) scale(.08 -.08)">
<defs>
<path id="w" d="m64.406 67.281v-10.391q-4.9844 4.6406-10.625 6.9219-5.6406 2.2969-11.984 2.2969-12.5 0-19.141-7.6406t-6.6406-22.094q0-14.406 6.6406-22.047t19.141-7.6406q6.3438 0 11.984 2.2969t10.625 6.9375v-10.312q-5.1719-3.5156-10.969-5.2812-5.7812-1.75-12.219-1.75-16.562 0-26.094 10.125-9.5156 10.141-9.5156 27.672 0 17.578 9.5156 27.703 9.5312 10.141 26.094 10.141 6.5312 0 12.312-1.7344 5.7969-1.7344 10.875-5.2031z"/>
</defs>
<use xlink:href="#w"/>
</g>
</g>
<path d="m1165 600.76v33.808q0 2.4 2.4 2.4h7.7425q2.4 0 2.4-2.4v-33.808q0-2.4-2.4-2.4h-7.7425q-2.4 0-2.4 2.4z" clip-path="url(#a)" fill="#fff" stroke="#fff"/>
<g clip-path="url(#a)">
<g transform="translate(1169 600.76) rotate(90) scale(.08 -.08)">
<use xlink:href="#l"/>
<use x="44.083984" xlink:href="#e"/>
<use x="105.607422" xlink:href="#h"/>
<use x="144.970703" xlink:href="#i"/>
<use x="242.382812" xlink:href="#g"/>
<use x="270.166016" xlink:href="#j"/>
<use x="333.544922" xlink:href="#f"/>
<use x="394.824219" xlink:href="#k"/>
</g>
</g>
<path d="m925.44 600.76v33.808q0 2.4 2.4 2.4h7.7425q2.4 0 2.4-2.4v-33.808q0-2.4-2.4-2.4h-7.7425q-2.4 0-2.4 2.4z" clip-path="url(#a)" fill="#fff" stroke="#fff"/>
<g clip-path="url(#a)">
<g transform="translate(929.51 600.76) rotate(90) scale(.08 -.08)">
<use xlink:href="#l"/>
<use x="44.083984" xlink:href="#e"/>
<use x="105.607422" xlink:href="#h"/>
<use x="144.970703" xlink:href="#i"/>
<use x="242.382812" xlink:href="#g"/>
<use x="270.166016" xlink:href="#j"/>
<use x="333.544922" xlink:href="#f"/>
<use x="394.824219" xlink:href="#k"/>
</g>
</g>
<path d="m1061.4 439.01 2.2187 5.0026q0.97303 2.1939 3.1669 1.2209l7.0776-3.139q2.1939-0.97303 1.2209-3.1669l-2.2187-5.0026q-0.97303-2.1939-3.1669-1.2209l-7.0776 3.139q-2.1939 0.97303-1.2209 3.1669z" clip-path="url(#a)" fill="#fff" stroke="#fff"/>
<g clip-path="url(#a)">
<g transform="translate(1065.1 437.36) rotate(66.082) scale(.08 -.08)">
<use xlink:href="#n"/>
</g>
</g>
<path d="m1033.9 487.58 1.1023-4.9577q0.52089-2.3428-1.8219-2.8637l-7.5579-1.6804q-2.3428-0.52089-2.8637 1.8219l-1.1023 4.9577q-0.52089 2.3428 1.8219 2.8637l7.5579 1.6804q2.3428 0.52089 2.8637-1.8219z" clip-path="url(#a)" fill="#fff" stroke="#fff"/>
<g clip-path="url(#a)">
<g transform="translate(1029.9 486.7) rotate(-77.465) scale(.08 -.08)">
<defs>
<path id="ae" d="m53.516 70.516v-9.625q-5.6094 2.6875-10.594 4-4.9844 1.3281-9.625 1.3281-8.0469 0-12.422-3.125t-4.375-8.8906q0-4.8438 2.9062-7.3125 2.9062-2.4531 11.016-3.9688l5.9531-1.2188q11.031-2.1094 16.281-7.4062t5.25-14.172q0-10.609-7.1094-16.078-7.0938-5.4688-20.812-5.4688-5.1719 0-11.016 1.1719-5.8281 1.1719-12.078 3.4688v10.156q6-3.3594 11.766-5.0781 5.7656-1.7031 11.328-1.7031 8.4375 0 13.031 3.3125 4.5938 3.3281 4.5938 9.4844 0 5.3594-3.2969 8.3906t-10.812 4.5469l-6.0156 1.1719q-11.031 2.1875-15.969 6.875-4.9219 4.6875-4.9219 13.047 0 9.6719 6.8125 15.234t18.766 5.5625q5.1406 0 10.453-0.9375 5.3281-0.92188 10.891-2.7656z"/>
</defs>
<use xlink:href="#ae"/>
</g>
</g>
<path d="m1081.8 522.12v13.246q0 2.4 2.4 2.4h8q2.4 0 2.4-2.4v-13.246q0-2.4-2.4-2.4h-8q-2.4 0-2.4 2.4z" clip-path="url(#a)" fill="#fff" stroke="#fff"/>
<g clip-path="url(#a)">
<g transform="translate(1086.1 522.12) rotate(90) scale(.08 -.08)">
<defs>
<path id="ak" d="m21 76.422v-100h-8.2969v100z"/>
</defs>
<use xlink:href="#ae"/>
<use x="63.476562" xlink:href="#ak"/>
<use x="97.167969" xlink:href="#n"/>
</g>
</g>
<path d="m1081.9 600.76v33.808q0 2.4 2.4 2.4h7.7425q2.4 0 2.4-2.4v-33.808q0-2.4-2.4-2.4h-7.7425q-2.4 0-2.4 2.4z" clip-path="url(#a)" fill="#fff" stroke="#fff"/>
<g clip-path="url(#a)">
<g transform="translate(1086 600.76) rotate(90) scale(.08 -.08)">
<use xlink:href="#l"/>
<use x="44.083984" xlink:href="#e"/>
<use x="105.607422" xlink:href="#h"/>
<use x="144.970703" xlink:href="#i"/>
<use x="242.382812" xlink:href="#g"/>
<use x="270.166016" xlink:href="#j"/>
<use x="333.544922" xlink:href="#f"/>
<use x="394.824219" xlink:href="#k"/>
</g>
</g>
<path d="m1002.1 600.76v33.808q0 2.4 2.4 2.4h7.7425q2.4 0 2.4-2.4v-33.808q0-2.4-2.4-2.4h-7.7425q-2.4 0-2.4 2.4z" clip-path="url(#a)" fill="#fff" stroke="#fff"/>
<g clip-path="url(#a)">
<g transform="translate(1006.2 600.76) rotate(90) scale(.08 -.08)">
<use xlink:href="#l"/>
<use x="44.083984" xlink:href="#e"/>
<use x="105.607422" xlink:href="#h"/>
<use x="144.970703" xlink:href="#i"/>
<use x="242.382812" xlink:href="#g"/>
<use x="270.166016" xlink:href="#j"/>
<use x="333.544922" xlink:href="#f"/>
<use x="394.824219" xlink:href="#k"/>
</g>
</g>
<path d="m94.507 442.58 1.1528-5.3497q0.50555-2.3461-1.8406-2.8517l-7.5688-1.6309q-2.3461-0.50555-2.8517 1.8406l-1.1528 5.3497q-0.50555 2.3462 1.8406 2.8517l7.5688 1.6309q2.3461 0.50555 2.8517-1.8406z" clip-path="url(#a)" fill="#fff" stroke="#fff"/>
<g clip-path="url(#a)">
<g transform="translate(90.535 441.72) rotate(-77.84) scale(.08 -.08)">
<use xlink:href="#n"/>
</g>
</g>
<path d="m99.508 441.96 0.81503-4.5285q0.42512-2.362-1.9369-2.7872l-7.6201-1.3715q-2.362-0.42512-2.7872 1.9369l-0.81503 4.5285q-0.42512 2.362 1.9369 2.7872l7.6201 1.3715q2.362 0.42512 2.7872-1.9369z" clip-path="url(#a)" fill="#fff" stroke="#fff"/>
<g clip-path="url(#a)">
<g transform="translate(95.509 441.24) rotate(-79.797) scale(.08 -.08)">
<use xlink:href="#v"/>
</g>
</g>
<path d="m110.05 442.29 0.63148-6.1275q0.24603-2.3874-2.1413-2.6334l-7.7017-0.79371q-2.3874-0.24603-2.6334 2.1413l-0.63148 6.1275q-0.24603 2.3874 2.1413 2.6334l7.7017 0.79371q2.3874 0.24603 2.6334-2.1413z" clip-path="url(#a)" fill="#fff" stroke="#fff"/>
<g clip-path="url(#a)">
<g transform="translate(106 441.87) rotate(-84.116) scale(.08 -.08)">
<use xlink:href="#af"/>
</g>
</g>
<path d="m123.96 441.68 0.015188-6.16q0.005917-2.4-2.3941-2.4059l-7.7425-0.019089q-2.4-0.005917-2.4059 2.3941l-0.015187 6.16q-0.005918 2.4 2.3941 2.4059l7.7425 0.019089q2.4 0.005917 2.4059-2.3941z" clip-path="url(#a)" fill="#fff" stroke="#fff"/>
<g clip-path="url(#a)">
<g transform="translate(119.89 441.67) rotate(-89.859) scale(.08 -.08)">
<use xlink:href="#af"/>
</g>
</g>
<path d="m128.65 392.62 0.90555 4.738q0.45055 2.3573 2.8079 1.9068l7.6048-1.4535q2.3573-0.45055 1.9068-2.8079l-0.90555-4.738q-0.45055-2.3573-2.8079-1.9068l-7.6048 1.4535q-2.3573 0.45055-1.9068 2.8079z" clip-path="url(#a)" fill="#fff" stroke="#fff"/>
<g clip-path="url(#a)">
<g transform="translate(132.64 391.86) rotate(79.18) scale(.08 -.08)">
<use xlink:href="#u"/>
</g>
</g>
<path d="m162.17 351.65 4.0746 3.6532q1.7869 1.6021 3.3891-0.1848l5.1686-5.7647q1.6021-1.7869-0.1848-3.3891l-4.0746-3.6532q-1.7869-1.6021-3.3891 0.1848l-5.1686 5.7647q-1.6021 1.7869 0.1848 3.3891z" clip-path="url(#a)" fill="#fff" stroke="#fff"/>
<g clip-path="url(#a)">
<g transform="translate(164.88 348.63) rotate(41.879) scale(.08 -.08)">
<use xlink:href="#n"/>
</g>
</g>
<path d="m379.35 600.76v33.808q0 2.4 2.4 2.4h7.7425q2.4 0 2.4-2.4v-33.808q0-2.4-2.4-2.4h-7.7425q-2.4 0-2.4 2.4z" clip-path="url(#a)" fill="#fff" stroke="#fff"/>
<g clip-path="url(#a)">
<g transform="translate(383.41 600.76) rotate(90) scale(.08 -.08)">
<use xlink:href="#l"/>
<use x="44.083984" xlink:href="#e"/>
<use x="105.607422" xlink:href="#h"/>
<use x="144.970703" xlink:href="#i"/>
<use x="242.382812" xlink:href="#g"/>
<use x="270.166016" xlink:href="#j"/>
<use x="333.544922" xlink:href="#f"/>
<use x="394.824219" xlink:href="#k"/>
</g>
</g>
<path d="m427.25 600.76v33.808q0 2.4 2.4 2.4h7.7425q2.4 0 2.4-2.4v-33.808q0-2.4-2.4-2.4h-7.7425q-2.4 0-2.4 2.4z" clip-path="url(#a)" fill="#fff" stroke="#fff"/>
<g clip-path="url(#a)">
<g transform="translate(431.31 600.76) rotate(90) scale(.08 -.08)">
<use xlink:href="#l"/>
<use x="44.083984" xlink:href="#e"/>
<use x="105.607422" xlink:href="#h"/>
<use x="144.970703" xlink:href="#i"/>
<use x="242.382812" xlink:href="#g"/>
<use x="270.166016" xlink:href="#j"/>
<use x="333.544922" xlink:href="#f"/>
<use x="394.824219" xlink:href="#k"/>
</g>
</g>
<path d="m503.39 533.22 1.6128-5.3196q0.69632-2.2968-1.6004-2.9931l-7.4095-2.2464q-2.2968-0.69632-2.9931 1.6004l-1.6128 5.3196q-0.69632 2.2968 1.6004 2.9931l7.4095 2.2464q2.2968 0.69632 2.9931-1.6004z" clip-path="url(#a)" fill="#fff" stroke="#fff"/>
<g clip-path="url(#a)">
<g transform="translate(499.5 532.04) rotate(-73.134) scale(.08 -.08)">
<defs>
<path id="ai" d="m44.391 34.188q3.1719-1.0781 6.1719-4.5938t6.0312-9.6719l10.016-19.922h-10.609l-9.3125 18.703q-3.625 7.3281-7.0156 9.7188t-9.25 2.3906h-10.75v-30.812h-9.8594v72.906h22.266q12.5 0 18.656-5.2344 6.1562-5.2188 6.1562-15.766 0-6.8906-3.2031-11.438-3.2031-4.5312-9.2969-6.2812zm-24.719 30.609v-25.875h12.406q7.125 0 10.766 3.2969t3.6406 9.6875-3.6406 9.6406-10.766 3.25z"/>
</defs>
<use xlink:href="#ai"/>
</g>
</g>
<path d="m518.52 527.89 1.6208 5.346q0.69632 2.2968 2.9931 1.6004l7.4095-2.2464q2.2968-0.69632 1.6004-2.9931l-1.6208-5.346q-0.69632-2.2968-2.9931-1.6004l-7.4095 2.2464q-2.2968 0.69632-1.6004 2.9931z" clip-path="url(#a)" fill="#fff" stroke="#fff"/>
<g clip-path="url(#a)">
<g transform="translate(522.41 526.71) rotate(73.134) scale(.08 -.08)">
<use xlink:href="#w"/>
</g>
</g>
<path d="m478.35 600.76v33.808q0 2.4 2.4 2.4h7.7425q2.4 0 2.4-2.4v-33.808q0-2.4-2.4-2.4h-7.7425q-2.4 0-2.4 2.4z" clip-path="url(#a)" fill="#fff" stroke="#fff"/>
<g clip-path="url(#a)">
<g transform="translate(482.41 600.76) rotate(90) scale(.08 -.08)">
<use xlink:href="#l"/>
<use x="44.083984" xlink:href="#e"/>
<use x="105.607422" xlink:href="#h"/>
<use x="144.970703" xlink:href="#i"/>
<use x="242.382812" xlink:href="#g"/>
<use x="270.166016" xlink:href="#j"/>
<use x="333.544922" xlink:href="#f"/>
<use x="394.824219" xlink:href="#k"/>
</g>
</g>
<path d="m532.64 600.76v33.808q0 2.4 2.4 2.4h7.7425q2.4 0 2.4-2.4v-33.808q0-2.4-2.4-2.4h-7.7425q-2.4 0-2.4 2.4z" clip-path="url(#a)" fill="#fff" stroke="#fff"/>
<g clip-path="url(#a)">
<g transform="translate(536.7 600.76) rotate(90) scale(.08 -.08)">
<use xlink:href="#l"/>
<use x="44.083984" xlink:href="#e"/>
<use x="105.607422" xlink:href="#h"/>
<use x="144.970703" xlink:href="#i"/>
<use x="242.382812" xlink:href="#g"/>
<use x="270.166016" xlink:href="#j"/>
<use x="333.544922" xlink:href="#f"/>
<use x="394.824219" xlink:href="#k"/>
</g>
</g>
<path d="m53.608 600.76v33.808q0 2.4 2.4 2.4h7.7425q2.4 0 2.4-2.4v-33.808q0-2.4-2.4-2.4h-7.7425q-2.4 0-2.4 2.4z" clip-path="url(#a)" fill="#fff" stroke="#fff"/>
<g clip-path="url(#a)">
<g transform="translate(57.671 600.76) rotate(90) scale(.08 -.08)">
<use xlink:href="#l"/>
<use x="44.083984" xlink:href="#e"/>
<use x="105.607422" xlink:href="#h"/>
<use x="144.970703" xlink:href="#i"/>
<use x="242.382812" xlink:href="#g"/>
<use x="270.166016" xlink:href="#j"/>
<use x="333.544922" xlink:href="#f"/>
<use x="394.824219" xlink:href="#k"/>
</g>
</g>
<path d="m63.188 600.76v33.808q0 2.4 2.4 2.4h7.7425q2.4 0 2.4-2.4v-33.808q0-2.4-2.4-2.4h-7.7425q-2.4 0-2.4 2.4z" clip-path="url(#a)" fill="#fff" stroke="#fff"/>
<g clip-path="url(#a)">
<g transform="translate(67.252 600.76) rotate(90) scale(.08 -.08)">
<use xlink:href="#l"/>
<use x="44.083984" xlink:href="#e"/>
<use x="105.607422" xlink:href="#h"/>
<use x="144.970703" xlink:href="#i"/>
<use x="242.382812" xlink:href="#g"/>
<use x="270.166016" xlink:href="#j"/>
<use x="333.544922" xlink:href="#f"/>
<use x="394.824219" xlink:href="#k"/>
</g>
</g>
<path d="m90.949 635.06 3.0441-33.67q0.2161-2.3903-2.1742-2.6064l-7.711-0.69715q-2.3903-0.2161-2.6064 2.1742l-3.0441 33.67q-0.2161 2.3903 2.1742 2.6064l7.711 0.69715q2.3903 0.2161 2.6064-2.1742z" clip-path="url(#a)" fill="#fff" stroke="#fff"/>
<g clip-path="url(#a)">
<g transform="translate(86.902 634.7) rotate(-84.834) scale(.08 -.08)">
<use xlink:href="#l"/>
<use x="44.083984" xlink:href="#e"/>
<use x="105.607422" xlink:href="#h"/>
<use x="144.970703" xlink:href="#i"/>
<use x="242.382812" xlink:href="#g"/>
<use x="270.166016" xlink:href="#j"/>
<use x="333.544922" xlink:href="#f"/>
<use x="394.824219" xlink:href="#k"/>
</g>
</g>
<path d="m86.441 601.39 3.0441 33.67q0.2161 2.3903 2.6064 2.1742l7.711-0.69715q2.3903-0.2161 2.1742-2.6064l-3.0441-33.67q-0.2161-2.3903-2.6064-2.1742l-7.711 0.69715q-2.3903 0.2161-2.1742 2.6064z" clip-path="url(#a)" fill="#fff" stroke="#fff"/>
<g clip-path="url(#a)">
<g transform="translate(90.489 601.03) rotate(84.834) scale(.08 -.08)">
<use xlink:href="#l"/>
<use x="44.083984" xlink:href="#e"/>
<use x="105.607422" xlink:href="#h"/>
<use x="144.970703" xlink:href="#i"/>
<use x="242.382812" xlink:href="#g"/>
<use x="270.166016" xlink:href="#j"/>
<use x="333.544922" xlink:href="#f"/>
<use x="394.824219" xlink:href="#k"/>
</g>
</g>
<path d="m111.09 600.76v33.808q0 2.4 2.4 2.4h7.7425q2.4 0 2.4-2.4v-33.808q0-2.4-2.4-2.4h-7.7425q-2.4 0-2.4 2.4z" clip-path="url(#a)" fill="#fff" stroke="#fff"/>
<g clip-path="url(#a)">
<g transform="translate(115.15 600.76) rotate(90) scale(.08 -.08)">
<use xlink:href="#l"/>
<use x="44.083984" xlink:href="#e"/>
<use x="105.607422" xlink:href="#h"/>
<use x="144.970703" xlink:href="#i"/>
<use x="242.382812" xlink:href="#g"/>
<use x="270.166016" xlink:href="#j"/>
<use x="333.544922" xlink:href="#f"/>
<use x="394.824219" xlink:href="#k"/>
</g>
</g>
<path d="m151.99 531.91 0.64988-4.5551q0.33898-2.3759-2.037-2.7149l-7.6649-1.0935q-2.3759-0.33898-2.7149 2.037l-0.64988 4.5551q-0.33898 2.3759 2.037 2.7149l7.6649 1.0935q2.3759 0.33897 2.7149-2.037z" clip-path="url(#a)" fill="#fff" stroke="#fff"/>
<g clip-path="url(#a)">
<g transform="translate(147.96 531.33) rotate(-81.88) scale(.08 -.08)">
<use xlink:href="#v"/>
</g>
</g>
<path d="m152.28 526.86 0.789 5.5302q0.33897 2.3759 2.7149 2.037l7.6649-1.0935q2.3759-0.33898 2.037-2.7149l-0.789-5.5303q-0.33897-2.3759-2.7149-2.037l-7.6649 1.0935q-2.3759 0.33898-2.037 2.7149z" clip-path="url(#a)" fill="#fff" stroke="#fff"/>
<g clip-path="url(#a)">
<g transform="translate(156.3 526.29) rotate(81.88) scale(.08 -.08)">
<use xlink:href="#w"/>
</g>
</g>
<path d="m212.22 487.35 0.75909-5.5067q0.32774-2.3775-2.0498-2.7053l-7.67-1.0573q-2.3775-0.32774-2.7053 2.0498l-0.75909 5.5067q-0.32774 2.3775 2.0498 2.7053l7.67 1.0573q2.3775 0.32774 2.7053-2.0498z" clip-path="url(#a)" fill="#fff" stroke="#fff"/>
<g clip-path="url(#a)">
<g transform="translate(208.19 486.79) rotate(-82.151) scale(.08 -.08)">
<use xlink:href="#ai"/>
</g>
</g>
<path d="m223.21 434.28 3.5121 12.772q0.63633 2.3141 2.9504 1.6778l7.7137-2.1211q2.3141-0.63633 1.6778-2.9504l-3.5121-12.772q-0.63633-2.3141-2.9504-1.6778l-7.7137 2.1211q-2.3141 0.63633-1.6778 2.9504z" clip-path="url(#a)" fill="#fff" stroke="#fff"/>
<g clip-path="url(#a)">
<g transform="translate(227.34 433.14) rotate(74.625) scale(.08 -.08)">
<use xlink:href="#ae"/>
<use x="63.476562" xlink:href="#ak"/>
<use x="97.167969" xlink:href="#n"/>
</g>
</g>
<path d="m187.74 600.76v33.808q0 2.4 2.4 2.4h7.7425q2.4 0 2.4-2.4v-33.808q0-2.4-2.4-2.4h-7.7425q-2.4 0-2.4 2.4z" clip-path="url(#a)" fill="#fff" stroke="#fff"/>
<g clip-path="url(#a)">
<g transform="translate(191.8 600.76) rotate(90) scale(.08 -.08)">
<use xlink:href="#l"/>
<use x="44.083984" xlink:href="#e"/>
<use x="105.607422" xlink:href="#h"/>
<use x="144.970703" xlink:href="#i"/>
<use x="242.382812" xlink:href="#g"/>
<use x="270.166016" xlink:href="#j"/>
<use x="333.544922" xlink:href="#f"/>
<use x="394.824219" xlink:href="#k"/>
</g>
</g>
<path d="m240.44 532.21 0.88575-4.5152q0.462-2.3551-1.8931-2.8171l-7.5977-1.4904q-2.3551-0.462-2.8171 1.8931l-0.88575 4.5152q-0.462 2.3551 1.8931 2.8171l7.5977 1.4904q2.3551 0.462 2.8171-1.8931z" clip-path="url(#a)" fill="#fff" stroke="#fff"/>
<g clip-path="url(#a)">
<g transform="translate(236.45 531.42) rotate(-78.901) scale(.08 -.08)">
<use xlink:href="#v"/>
</g>
</g>
<path d="m245.6 527.21 1.0754 5.4818q0.462 2.3551 2.8171 1.8931l7.5977-1.4904q2.3551-0.462 1.8931-2.8171l-1.0754-5.4818q-0.462-2.3551-2.8171-1.8931l-7.5977 1.4904q-2.3551 0.462-1.8931 2.8171z" clip-path="url(#a)" fill="#fff" stroke="#fff"/>
<g clip-path="url(#a)">
<g transform="translate(249.59 526.43) rotate(78.901) scale(.08 -.08)">
<use xlink:href="#w"/>
</g>
</g>
<path d="m219.67 600.76v33.808q0 2.4 2.4 2.4h7.7425q2.4 0 2.4-2.4v-33.808q0-2.4-2.4-2.4h-7.7425q-2.4 0-2.4 2.4z" clip-path="url(#a)" fill="#fff" stroke="#fff"/>
<g clip-path="url(#a)">
<g transform="translate(223.74 600.76) rotate(90) scale(.08 -.08)">
<use xlink:href="#l"/>
<use x="44.083984" xlink:href="#e"/>
<use x="105.607422" xlink:href="#h"/>
<use x="144.970703" xlink:href="#i"/>
<use x="242.382812" xlink:href="#g"/>
<use x="270.166016" xlink:href="#j"/>
<use x="333.544922" xlink:href="#f"/>
<use x="394.824219" xlink:href="#k"/>
</g>
</g>
<path d="m254.8 600.76v33.808q0 2.4 2.4 2.4h7.7425q2.4 0 2.4-2.4v-33.808q0-2.4-2.4-2.4h-7.7425q-2.4 0-2.4 2.4z" clip-path="url(#a)" fill="#fff" stroke="#fff"/>
<g clip-path="url(#a)">
<g transform="translate(258.86 600.76) rotate(90) scale(.08 -.08)">
<use xlink:href="#l"/>
<use x="44.083984" xlink:href="#e"/>
<use x="105.607422" xlink:href="#h"/>
<use x="144.970703" xlink:href="#i"/>
<use x="242.382812" xlink:href="#g"/>
<use x="270.166016" xlink:href="#j"/>
<use x="333.544922" xlink:href="#f"/>
<use x="394.824219" xlink:href="#k"/>
</g>
</g>
<path d="m133.45 600.76v33.808q0 2.4 2.4 2.4h7.7425q2.4 0 2.4-2.4v-33.808q0-2.4-2.4-2.4h-7.7425q-2.4 0-2.4 2.4z" clip-path="url(#a)" fill="#fff" stroke="#fff"/>
<g clip-path="url(#a)">
<g transform="translate(137.51 600.76) rotate(90) scale(.08 -.08)">
<use xlink:href="#l"/>
<use x="44.083984" xlink:href="#e"/>
<use x="105.607422" xlink:href="#h"/>
<use x="144.970703" xlink:href="#i"/>
<use x="242.382812" xlink:href="#g"/>
<use x="270.166016" xlink:href="#j"/>
<use x="333.544922" xlink:href="#f"/>
<use x="394.824219" xlink:href="#k"/>
</g>
</g>
<path d="m158.99 600.76v33.808q0 2.4 2.4 2.4h7.7425q2.4 0 2.4-2.4v-33.808q0-2.4-2.4-2.4h-7.7425q-2.4 0-2.4 2.4z" clip-path="url(#a)" fill="#fff" stroke="#fff"/>
<g clip-path="url(#a)">
<g transform="translate(163.06 600.76) rotate(90) scale(.08 -.08)">
<use xlink:href="#l"/>
<use x="44.083984" xlink:href="#e"/>
<use x="105.607422" xlink:href="#h"/>
<use x="144.970703" xlink:href="#i"/>
<use x="242.382812" xlink:href="#g"/>
<use x="270.166016" xlink:href="#j"/>
<use x="333.544922" xlink:href="#f"/>
<use x="394.824219" xlink:href="#k"/>
</g>
</g>
<path d="m293.12 600.76v33.808q0 2.4 2.4 2.4h7.7425q2.4 0 2.4-2.4v-33.808q0-2.4-2.4-2.4h-7.7425q-2.4 0-2.4 2.4z" clip-path="url(#a)" fill="#fff" stroke="#fff"/>
<g clip-path="url(#a)">
<g transform="translate(297.19 600.76) rotate(90) scale(.08 -.08)">
<use xlink:href="#l"/>
<use x="44.083984" xlink:href="#e"/>
<use x="105.607422" xlink:href="#h"/>
<use x="144.970703" xlink:href="#i"/>
<use x="242.382812" xlink:href="#g"/>
<use x="270.166016" xlink:href="#j"/>
<use x="333.544922" xlink:href="#f"/>
<use x="394.824219" xlink:href="#k"/>
</g>
</g>
<path d="m334.64 600.76v33.808q0 2.4 2.4 2.4h7.7425q2.4 0 2.4-2.4v-33.808q0-2.4-2.4-2.4h-7.7425q-2.4 0-2.4 2.4z" clip-path="url(#a)" fill="#fff" stroke="#fff"/>
<g clip-path="url(#a)">
<g transform="translate(338.7 600.76) rotate(90) scale(.08 -.08)">
<use xlink:href="#l"/>
<use x="44.083984" xlink:href="#e"/>
<use x="105.607422" xlink:href="#h"/>
<use x="144.970703" xlink:href="#i"/>
<use x="242.382812" xlink:href="#g"/>
<use x="270.166016" xlink:href="#j"/>
<use x="333.544922" xlink:href="#f"/>
<use x="394.824219" xlink:href="#k"/>
</g>
</g>
<path d="m590.12 600.76v33.808q0 2.4 2.4 2.4h7.7425q2.4 0 2.4-2.4v-33.808q0-2.4-2.4-2.4h-7.7425q-2.4 0-2.4 2.4z" clip-path="url(#a)" fill="#fff" stroke="#fff"/>
<g clip-path="url(#a)">
<g transform="translate(594.19 600.76) rotate(90) scale(.08 -.08)">
<use xlink:href="#l"/>
<use x="44.083984" xlink:href="#e"/>
<use x="105.607422" xlink:href="#h"/>
<use x="144.970703" xlink:href="#i"/>
<use x="242.382812" xlink:href="#g"/>
<use x="270.166016" xlink:href="#j"/>
<use x="333.544922" xlink:href="#f"/>
<use x="394.824219" xlink:href="#k"/>
</g>
</g>
<path d="m1251.2 600.76v33.808q0 2.4 2.4 2.4h7.7425q2.4 0 2.4-2.4v-33.808q0-2.4-2.4-2.4h-7.7425q-2.4 0-2.4 2.4z" clip-path="url(#a)" fill="#fff" stroke="#fff"/>
<g clip-path="url(#a)">
<g transform="translate(1255.2 600.76) rotate(90) scale(.08 -.08)">
<use xlink:href="#l"/>
<use x="44.083984" xlink:href="#e"/>
<use x="105.607422" xlink:href="#h"/>
<use x="144.970703" xlink:href="#i"/>
<use x="242.382812" xlink:href="#g"/>
<use x="270.166016" xlink:href="#j"/>
<use x="333.544922" xlink:href="#f"/>
<use x="394.824219" xlink:href="#k"/>
</g>
</g>
<defs>
<path id="b" d="m0 8.6603c2.2967 0 4.4997-0.9125 6.1237-2.5365 1.624-1.624 2.5365-3.827 2.5365-6.1237s-0.9125-4.4997-2.5365-6.1237c-1.624-1.624-3.827-2.5365-6.1237-2.5365s-4.4997 0.9125-6.1237 2.5365c-1.624 1.624-2.5365 3.827-2.5365 6.1237s0.9125 4.4997 2.5365 6.1237c1.624 1.624 3.827 2.5365 6.1237 2.5365z"/>
</defs>
<g clip-path="url(#a)" fill="#ffffff" stroke="#ffffff">
<use x="59.878788" y="661.818182" xlink:href="#b"/>
<use x="69.459394" y="661.818182" xlink:href="#b"/>
<use x="82.233535" y="661.818182" xlink:href="#b"/>
<use x="98.201212" y="661.818182" xlink:href="#b"/>
<use x="117.362424" y="661.818182" xlink:href="#b"/>
<use x="139.717172" y="661.818182" xlink:href="#b"/>
<use x="165.265455" y="661.818182" xlink:href="#b"/>
<use x="194.007273" y="661.818182" xlink:href="#b"/>
<use x="225.942626" y="661.818182" xlink:href="#b"/>
<use x="261.071515" y="661.818182" xlink:href="#b"/>
<use x="299.393939" y="661.818182" xlink:href="#b"/>
<use x="340.909899" y="661.818182" xlink:href="#b"/>
<use x="385.619394" y="661.818182" xlink:href="#b"/>
<use x="433.522424" y="661.818182" xlink:href="#b"/>
<use x="484.61899" y="661.818182" xlink:href="#b"/>
<use x="538.909091" y="661.818182" xlink:href="#b"/>
<use x="596.392727" y="661.818182" xlink:href="#b"/>
<use x="657.069899" y="661.818182" xlink:href="#b"/>
<use x="720.940606" y="661.818182" xlink:href="#b"/>
<use x="788.004848" y="661.818182" xlink:href="#b"/>
<use x="858.262626" y="661.818182" xlink:href="#b"/>
<use x="931.713939" y="661.818182" xlink:href="#b"/>
<use x="1008.358788" y="661.818182" xlink:href="#b"/>
<use x="1088.197172" y="661.818182" xlink:href="#b"/>
<use x="1171.229091" y="661.818182" xlink:href="#b"/>
<use x="1257.454545" y="661.818182" xlink:href="#b"/>
<use x="620.272166" y="31.515152" xlink:href="#b"/>
<use x="348.20624" y="213.114039" xlink:href="#b"/>
<use x="657.069899" y="573.510116" xlink:href="#b"/>
<use x="879.419798" y="122.390614" xlink:href="#b"/>
<use x="720.940606" y="573.510116" xlink:href="#b"/>
<use x="788.004848" y="573.510116" xlink:href="#b"/>
<use x="858.262626" y="573.510116" xlink:href="#b"/>
<use x="1150.471111" y="213.114039" xlink:href="#b"/>
<use x="1022.729697" y="303.654978" xlink:href="#b"/>
<use x="1171.229091" y="573.510116" xlink:href="#b"/>
<use x="931.713939" y="573.510116" xlink:href="#b"/>
<use x="1048.27798" y="393.967447" xlink:href="#b"/>
<use x="1088.197172" y="483.973587" xlink:href="#b"/>
<use x="1088.197172" y="573.510116" xlink:href="#b"/>
<use x="1008.358788" y="573.510116" xlink:href="#b"/>
<use x="118.027744" y="303.654978" xlink:href="#b"/>
<use x="385.619394" y="573.510116" xlink:href="#b"/>
<use x="433.522424" y="573.510116" xlink:href="#b"/>
<use x="511.76404" y="483.973587" xlink:href="#b"/>
<use x="484.61899" y="573.510116" xlink:href="#b"/>
<use x="538.909091" y="573.510116" xlink:href="#b"/>
<use x="59.878788" y="573.510116" xlink:href="#b"/>
<use x="69.459394" y="573.510116" xlink:href="#b"/>
<use x="90.217374" y="573.510116" xlink:href="#b"/>
<use x="117.362424" y="573.510116" xlink:href="#b"/>
<use x="152.491313" y="483.973587" xlink:href="#b"/>
<use x="218.757172" y="393.967447" xlink:href="#b"/>
<use x="194.007273" y="573.510116" xlink:href="#b"/>
<use x="243.507071" y="483.973587" xlink:href="#b"/>
<use x="225.942626" y="573.510116" xlink:href="#b"/>
<use x="261.071515" y="573.510116" xlink:href="#b"/>
<use x="139.717172" y="573.510116" xlink:href="#b"/>
<use x="165.265455" y="573.510116" xlink:href="#b"/>
<use x="299.393939" y="573.510116" xlink:href="#b"/>
<use x="340.909899" y="573.510116" xlink:href="#b"/>
<use x="596.392727" y="573.510116" xlink:href="#b"/>
<use x="1257.454545" y="573.510116" xlink:href="#b"/>
</g>
<g clip-path="url(#a)">
<g transform="translate(58.404 664.58) scale(.1 -.1)">
<defs>
<path id="aq" d="m9.8125 72.906h9.8594v-72.906h-9.8594z"/>
</defs>
<use xlink:href="#aq"/>
</g>
</g>
<g clip-path="url(#a)">
<g transform="translate(61.525 664.58) scale(.1 -.1)">
<use xlink:href="#f"/>
<use x="61.279297" xlink:href="#i"/>
</g>
</g>
<g clip-path="url(#a)">
<g transform="translate(67.807 664.58) scale(.1 -.1)">
<defs>
<path id="ao" d="m48.688 27.297q0 9.9062-4.0781 15.547t-11.203 5.6406q-7.1406 0-11.219-5.6406t-4.0781-15.547 4.0781-15.547 11.219-5.6406q7.125 0 11.203 5.6406t4.0781 15.547zm-30.578 19.094q2.8438 4.875 7.1562 7.2344 4.3281 2.375 10.328 2.375 9.9688 0 16.188-7.9062 6.2344-7.9062 6.2344-20.797t-6.2344-20.812q-6.2188-7.9062-16.188-7.9062-6 0-10.328 2.375-4.3125 2.375-7.1562 7.25v-8.2031h-9.0312v75.984h9.0312z"/>
<path id="r" d="m30.609 48.391q-7.2188 0-11.422-5.6406t-4.2031-15.453 4.1719-15.453q4.1875-5.6406 11.453-5.6406 7.1875 0 11.375 5.6562 4.2031 5.6719 4.2031 15.438 0 9.7188-4.2031 15.406-4.1875 5.6875-11.375 5.6875zm0 7.6094q11.719 0 18.406-7.625 6.7031-7.6094 6.7031-21.078 0-13.422-6.7031-21.078-6.6875-7.6406-18.406-7.6406-11.766 0-18.438 7.6406-6.6562 7.6562-6.6562 21.078 0 13.469 6.6562 21.078 6.6719 7.625 18.438 7.625z"/>
<path id="aw" d="m8.5 21.578v33.109h8.9844v-32.766q0-7.7656 3.0156-11.656 3.0312-3.875 9.0938-3.875 7.2656 0 11.484 4.6406 4.2344 4.6406 4.2344 12.656v31h8.9844v-54.688h-8.9844v8.4062q-3.2656-4.9844-7.5938-7.4062-4.3125-2.4219-10.031-2.4219-9.4219 0-14.312 5.8594-4.875 5.8594-4.875 17.141z"/>
<path id="p" d="m18.312 70.219v-15.531h18.5v-6.9844h-18.5v-29.688q0-6.6875 1.8281-8.5938t7.4531-1.9062h9.2188v-7.5156h-9.2188q-10.406 0-14.359 3.875-3.9531 3.8906-3.9531 14.141v29.688h-6.5938v6.9844h6.5938v15.531z"/>
</defs>
<use xlink:href="#f"/>
<use x="61.279297" xlink:href="#ao"/>
<use x="124.755859" xlink:href="#r"/>
<use x="185.9375" xlink:href="#aw"/>
<use x="249.316406" xlink:href="#p"/>
</g>
</g>
<g clip-path="url(#a)">
<g transform="translate(93.182 664.58) scale(.1 -.1)">
<use xlink:href="#p"/>
<use x="39.208984" xlink:href="#r"/>
</g>
</g>
<g clip-path="url(#a)">
<g transform="translate(99.092 664.58) scale(.1 -.1)">
<defs>
<path id="s" d="m48.781 52.594v-8.4062q-3.8125 2.1094-7.6406 3.1562t-7.7344 1.0469q-8.75 0-13.594-5.5469-4.8281-5.5312-4.8281-15.547t4.8281-15.562q4.8438-5.5312 13.594-5.5312 3.9062 0 7.7344 1.0469t7.6406 3.1562v-8.3125q-3.7656-1.75-7.7969-2.625-4.0156-0.89062-8.5625-0.89062-12.359 0-19.641 7.7656-7.2656 7.7656-7.2656 20.953 0 13.375 7.3438 21.031 7.3594 7.6719 20.156 7.6719 4.1406 0 8.0938-0.85938 3.9531-0.84375 7.6719-2.5469z"/>
<path id="am" d="m2.9844 54.688h9.5156l17.094-45.891 17.094 45.891h9.5156l-20.516-54.688h-12.203z"/>
</defs>
<use xlink:href="#h"/>
<use x="38.863281" xlink:href="#e"/>
<use x="100.386719" xlink:href="#s"/>
<use x="155.367188" xlink:href="#e"/>
<use x="216.890625" xlink:href="#g"/>
<use x="244.673828" xlink:href="#am"/>
<use x="303.853516" xlink:href="#e"/>
</g>
</g>
<g clip-path="url(#a)">
<g transform="translate(136.65 664.58) scale(.1 -.1)">
<use xlink:href="#f"/>
</g>
</g>
<g clip-path="url(#a)">
<g transform="translate(154.96 664.58) scale(.1 -.1)">
<defs>
<path id="ah" d="m44.281 53.078v-8.5q-3.7969 1.9531-7.9062 2.9219-4.0938 0.98438-8.5 0.98438-6.6875 0-10.031-2.0469t-3.3438-6.1562q0-3.125 2.3906-4.9062t9.625-3.3906l3.0781-0.6875q9.5625-2.0469 13.594-5.7812t4.0312-10.422q0-7.625-6.0312-12.078-6.0312-4.4375-16.578-4.4375-4.3906 0-9.1562 0.85938t-10.031 2.5625v9.2812q4.9844-2.5938 9.8125-3.8906 4.8281-1.2812 9.5781-1.2812 6.3438 0 9.75 2.1719 3.4219 2.1719 3.4219 6.125 0 3.6562-2.4688 5.6094-2.4531 1.9531-10.812 3.7656l-3.125 0.73438q-8.3438 1.75-12.062 5.3906-3.7031 3.6406-3.7031 9.9844 0 7.7188 5.4688 11.906 5.4688 4.2031 15.531 4.2031 4.9688 0 9.3594-0.73438 4.4062-0.71875 8.1094-2.1875z"/>
</defs>
<use xlink:href="#am"/>
<use x="59.179688" xlink:href="#g"/>
<use x="86.962891" xlink:href="#ah"/>
<use x="139.0625" xlink:href="#g"/>
<use x="166.845703" xlink:href="#p"/>
</g>
</g>
<g clip-path="url(#a)">
<g transform="translate(182.37 664.58) scale(.1 -.1)">
<defs>
<path id="ad" d="m37.109 75.984v-7.4844h-8.5938q-4.8281 0-6.7188-1.9531-1.875-1.9531-1.875-7.0312v-4.8281h14.797v-6.9844h-14.797v-47.703h-9.0312v47.703h-8.5938v6.9844h8.5938v3.8125q0 9.125 4.25 13.297 4.25 4.1875 13.469 4.1875z"/>
</defs>
<use xlink:href="#ad"/>
<use x="35.205078" xlink:href="#h"/>
<use x="74.068359" xlink:href="#r"/>
<use x="135.25" xlink:href="#i"/>
</g>
</g>
<g clip-path="url(#a)">
<g transform="translate(219.71 664.58) scale(.1 -.1)">
<use xlink:href="#f"/>
<use x="61.279297" xlink:href="#j"/>
</g>
</g>
<g clip-path="url(#a)">
<g transform="translate(241.5 664.58) scale(.1 -.1)">
<defs>
<path id="an" d="m45.406 46.391v29.594h8.9844v-75.984h-8.9844v8.2031q-2.8281-4.875-7.1562-7.25-4.3125-2.375-10.375-2.375-9.9062 0-16.141 7.9062-6.2188 7.9219-6.2188 20.812t6.2188 20.797q6.2344 7.9062 16.141 7.9062 6.0625 0 10.375-2.375 4.3281-2.3594 7.1562-7.2344zm-30.609-19.094q0-9.9062 4.0781-15.547t11.203-5.6406 11.219 5.6406q4.1094 5.6406 4.1094 15.547t-4.1094 15.547q-4.0938 5.6406-11.219 5.6406t-11.203-5.6406-4.0781-15.547z"/>
</defs>
<use xlink:href="#f"/>
<use x="61.279297" xlink:href="#an"/>
<use x="124.755859" xlink:href="#i"/>
<use x="222.167969" xlink:href="#g"/>
<use x="249.951172" xlink:href="#h"/>
<use x="288.814453" xlink:href="#e"/>
<use x="350.337891" xlink:href="#h"/>
</g>
</g>
<g clip-path="url(#a)">
<g transform="translate(297.39 664.58) scale(.1 -.1)">
<defs>
<path id="au" d="m15.094 12.406h9.9062v-12.406h-9.9062zm0 60.5h9.9062v-31.984l-0.96875-17.438h-7.9219l-1.0156 17.438z"/>
</defs>
<use xlink:href="#au"/>
</g>
</g>
<g clip-path="url(#a)">
<g transform="translate(338.61 664.58) scale(.1 -.1)">
<defs>
<path id="at" d="m17.922 72.906v-27.109h-8.2969v27.109zm18.453 0v-27.109h-8.2969v27.109z"/>
</defs>
<use xlink:href="#at"/>
</g>
</g>
<g clip-path="url(#a)">
<g transform="translate(379.37 664.58) scale(.1 -.1)">
<defs>
<path id="ac" d="m54.891 33.016v-33.016h-8.9844v32.719q0 7.7656-3.0312 11.609-3.0312 3.8594-9.0781 3.8594-7.2812 0-11.484-4.6406-4.2031-4.625-4.2031-12.641v-30.906h-9.0312v75.984h9.0312v-29.797q3.2344 4.9375 7.5938 7.375 4.375 2.4375 10.094 2.4375 9.4219 0 14.25-5.8281 4.8438-5.8281 4.8438-17.156z"/>
</defs>
<use xlink:href="#ac"/>
<use x="63.378906" xlink:href="#e"/>
</g>
</g>
<g clip-path="url(#a)">
<g transform="translate(407.95 664.58) scale(.1 -.1)">
<defs>
<path id="av" d="m54.891 54.688-19.781-26.609 20.797-28.078h-10.594l-15.922 21.484-15.906-21.484h-10.609l21.25 28.609-19.438 26.078h10.594l14.5-19.484 14.5 19.484z"/>
</defs>
<use xlink:href="#e"/>
<use x="59.773438" xlink:href="#av"/>
<use x="117.203125" xlink:href="#s"/>
<use x="172.183594" xlink:href="#k"/>
<use x="199.966797" xlink:href="#f"/>
<use x="261.246094" xlink:href="#g"/>
<use x="289.029297" xlink:href="#i"/>
<use x="386.441406" xlink:href="#e"/>
<use x="447.964844" xlink:href="#an"/>
</g>
</g>
<g clip-path="url(#a)">
<g transform="translate(472.99 664.58) scale(.1 -.1)">
<use xlink:href="#ad"/>
<use x="35.205078" xlink:href="#h"/>
<use x="74.068359" xlink:href="#r"/>
<use x="135.25" xlink:href="#i"/>
</g>
</g>
<g clip-path="url(#a)">
<g transform="translate(528.97 664.58) scale(.1 -.1)">
<use xlink:href="#f"/>
<use x="61.279297" xlink:href="#ad"/>
<use x="96.484375" xlink:href="#f"/>
<use x="157.763672" xlink:href="#h"/>
</g>
</g>
<g clip-path="url(#a)">
<g transform="translate(594.8 664.58) scale(.1 -.1)">
<defs>
<path id="as" d="m11.719 12.406h10.297v-8.4062l-8-15.625h-6.2969l4 15.625z"/>
</defs>
<use xlink:href="#as"/>
</g>
</g>
<g clip-path="url(#a)">
<g transform="translate(643.57 664.58) scale(.1 -.1)">
<defs>
<path id="al" d="m4.2031 54.688h8.9844l11.234-42.672 11.172 42.672h10.594l11.234-42.672 11.188 42.672h8.9844l-14.312-54.688h-10.594l-11.766 44.828-11.812-44.828h-10.609z"/>
</defs>
<use xlink:href="#al"/>
<use x="81.787109" xlink:href="#ac"/>
<use x="145.166016" xlink:href="#e"/>
<use x="206.689453" xlink:href="#j"/>
</g>
</g>
<g clip-path="url(#a)">
<g transform="translate(714.7 664.58) scale(.1 -.1)">
<use xlink:href="#ac"/>
<use x="63.378906" xlink:href="#e"/>
</g>
</g>
<g clip-path="url(#a)">
<g transform="translate(778.24 664.58) scale(.1 -.1)">
<use xlink:href="#ad"/>
<use x="35.205078" xlink:href="#g"/>
<use x="62.988281" xlink:href="#h"/>
<use x="104.101562" xlink:href="#ah"/>
<use x="156.201172" xlink:href="#p"/>
</g>
</g>
<g clip-path="url(#a)">
<g transform="translate(848.5 664.58) scale(.1 -.1)">
<use xlink:href="#ah"/>
<use x="52.099609" xlink:href="#f"/>
<use x="113.378906" xlink:href="#al"/>
</g>
</g>
<g clip-path="url(#a)">
<g transform="translate(923.51 664.58) scale(.1 -.1)">
<use xlink:href="#p"/>
<use x="39.208984" xlink:href="#ac"/>
<use x="102.587891" xlink:href="#e"/>
</g>
</g>
<g clip-path="url(#a)">
<g transform="translate(997.19 664.58) scale(.1 -.1)">
<use xlink:href="#k"/>
<use x="27.783203" xlink:href="#g"/>
<use x="55.566406" xlink:href="#p"/>
<use x="94.775391" xlink:href="#p"/>
<use x="133.984375" xlink:href="#k"/>
<use x="161.767578" xlink:href="#e"/>
</g>
</g>
<g clip-path="url(#a)">
<g transform="translate(1072.6 664.58) scale(.1 -.1)">
<defs>
<path id="ax" d="m18.109 8.2031v-29h-9.0312v75.484h9.0312v-8.2969q2.8438 4.875 7.1562 7.2344 4.3281 2.375 10.328 2.375 9.9688 0 16.188-7.9062 6.2344-7.9062 6.2344-20.797t-6.2344-20.812q-6.2188-7.9062-16.188-7.9062-6 0-10.328 2.375-4.3125 2.375-7.1562 7.25zm30.578 19.094q0 9.9062-4.0781 15.547t-11.203 5.6406q-7.1406 0-11.219-5.6406t-4.0781-15.547 4.0781-15.547 11.219-5.6406q7.125 0 11.203 5.6406t4.0781 15.547z"/>
</defs>
<use xlink:href="#ax"/>
<use x="63.476562" xlink:href="#h"/>
<use x="104.589844" xlink:href="#g"/>
<use x="132.373047" xlink:href="#j"/>
<use x="195.751953" xlink:href="#s"/>
<use x="250.732422" xlink:href="#e"/>
</g>
</g>
<g clip-path="url(#a)">
<g transform="translate(1152.8 664.58) scale(.1 -.1)">
<defs>
<path id="ay" d="m45.406 27.984q0 9.7656-4.0312 15.125-4.0156 5.375-11.297 5.375-7.2188 0-11.25-5.375-4.0312-5.3594-4.0312-15.125 0-9.7188 4.0312-15.094t11.25-5.375q7.2812 0 11.297 5.375 4.0312 5.375 4.0312 15.094zm8.9844-21.203q0-13.953-6.2031-20.766-6.1875-6.8125-18.984-6.8125-4.7344 0-8.9375 0.70312t-8.1562 2.1719v8.7344q3.9531-2.1406 7.8125-3.1562 3.8594-1.0312 7.8594-1.0312 8.8438 0 13.234 4.6094t4.3906 13.938v4.4531q-2.7812-4.8438-7.125-7.2344t-10.406-2.3906q-10.047 0-16.203 7.6562-6.1562 7.6719-6.1562 20.328 0 12.688 6.1562 20.344 6.1562 7.6719 16.203 7.6719 6.0625 0 10.406-2.3906t7.125-7.2188v8.2969h8.9844z"/>
</defs>
<use xlink:href="#s"/>
<use x="54.980469" xlink:href="#r"/>
<use x="116.162109" xlink:href="#i"/>
<use x="213.574219" xlink:href="#g"/>
<use x="241.357422" xlink:href="#j"/>
<use x="304.736328" xlink:href="#ay"/>
</g>
</g>
<g clip-path="url(#a)">
<g transform="translate(1255.9 664.58) scale(.1 -.1)">
<defs>
<path id="d" d="m10.688 12.406h10.312v-12.406h-10.312z"/>
</defs>
<use xlink:href="#d"/>
</g>
</g>
<g clip-path="url(#a)">
<g transform="translate(612.32 34.275) scale(.1 -.1)">
<defs>
<path id="c" d="m12.406 8.2969h16.109v55.625l-17.531-3.5156v8.9844l17.438 3.5156h9.8594v-64.609h16.109v-8.2969h-41.984z"/>
</defs>
<use xlink:href="#c"/>
<use x="63.623047" xlink:href="#d"/>
<use x="95.410156" xlink:href="#c"/>
</g>
</g>
<g clip-path="url(#a)">
<g transform="translate(340.25 215.87) scale(.1 -.1)">
<defs>
<path id="o" d="m19.188 8.2969h34.422v-8.2969h-46.281v8.2969q5.6094 5.8125 15.297 15.594 9.7031 9.7969 12.188 12.641 4.7344 5.3125 6.6094 9 1.8906 3.6875 1.8906 7.25 0 5.8125-4.0781 9.4688-4.0781 3.6719-10.625 3.6719-4.6406 0-9.7969-1.6094-5.1406-1.6094-11-4.8906v9.9688q5.9531 2.3906 11.125 3.6094 5.1875 1.2188 9.4844 1.2188 11.328 0 18.062-5.6719 6.7344-5.6562 6.7344-15.125 0-4.5-1.6875-8.5312-1.6719-4.0156-6.125-9.4844-1.2188-1.4219-7.7656-8.1875-6.5312-6.7656-18.453-18.922z"/>
</defs>
<use xlink:href="#c"/>
<use x="63.623047" xlink:href="#d"/>
<use x="95.410156" xlink:href="#o"/>
</g>
</g>
<g clip-path="url(#a)">
<g transform="translate(649.12 576.27) scale(.1 -.1)">
<defs>
<path id="m" d="m40.578 39.312q7.0781-1.5156 11.047-6.3125 3.9844-4.7812 3.9844-11.812 0-10.781-7.4219-16.703-7.4219-5.9062-21.094-5.9062-4.5781 0-9.4375 0.90625t-10.031 2.7188v9.5156q4.0938-2.3906 8.9688-3.6094 4.8906-1.2188 10.219-1.2188 9.2656 0 14.125 3.6562t4.8594 10.641q0 6.4531-4.5156 10.078-4.5156 3.6406-12.562 3.6406h-8.5v8.1094h8.8906q7.2656 0 11.125 2.9062t3.8594 8.375q0 5.6094-3.9844 8.6094-3.9688 3.0156-11.391 3.0156-4.0625 0-8.7031-0.89062-4.6406-0.875-10.203-2.7188v8.7812q5.625 1.5625 10.531 2.3438t9.25 0.78125q11.234 0 17.766-5.1094 6.5469-5.0938 6.5469-13.781 0-6.0625-3.4688-10.234t-9.8594-5.7812z"/>
</defs>
<use xlink:href="#c"/>
<use x="63.623047" xlink:href="#d"/>
<use x="95.410156" xlink:href="#m"/>
</g>
</g>
<g clip-path="url(#a)">
<g transform="translate(871.47 125.15) scale(.1 -.1)">
<defs>
<path id="q" d="m37.797 64.312-24.906-38.922h24.906zm-2.5938 8.5938h12.406v-47.516h10.406v-8.2031h-10.406v-17.188h-9.8125v17.188h-32.906v9.5156z"/>
</defs>
<use xlink:href="#c"/>
<use x="63.623047" xlink:href="#d"/>
<use x="95.410156" xlink:href="#q"/>
</g>
</g>
<g clip-path="url(#a)">
<g transform="translate(712.99 576.27) scale(.1 -.1)">
<defs>
<path id="aa" d="m33.016 40.375q-6.6406 0-10.531-4.5469-3.875-4.5312-3.875-12.438 0-7.8594 3.875-12.438 3.8906-4.5625 10.531-4.5625t10.516 4.5625q3.875 4.5781 3.875 12.438 0 7.9062-3.875 12.438-3.875 4.5469-10.516 4.5469zm19.578 30.922v-8.9844q-3.7188 1.75-7.5 2.6719-3.7812 0.9375-7.5 0.9375-9.7656 0-14.922-6.5938-5.1406-6.5938-5.875-19.922 2.875 4.25 7.2188 6.5156 4.3594 2.2656 9.5781 2.2656 10.984 0 17.359-6.6719 6.375-6.6562 6.375-18.125 0-11.234-6.6406-18.031-6.6406-6.7812-17.672-6.7812-12.656 0-19.344 9.6875-6.6875 9.7031-6.6875 28.109 0 17.281 8.2031 27.562t22.016 10.281q3.7188 0 7.5-0.73438t7.8906-2.1875z"/>
</defs>
<use xlink:href="#c"/>
<use x="63.623047" xlink:href="#d"/>
<use x="95.410156" xlink:href="#aa"/>
</g>
</g>
<g clip-path="url(#a)">
<g transform="translate(780.05 576.27) scale(.1 -.1)">
<defs>
<path id="z" d="m8.2031 72.906h46.875v-4.2031l-26.469-68.703h-10.297l24.906 64.594h-35.016z"/>
</defs>
<use xlink:href="#c"/>
<use x="63.623047" xlink:href="#d"/>
<use x="95.410156" xlink:href="#z"/>
</g>
</g>
<g clip-path="url(#a)">
<g transform="translate(850.31 576.27) scale(.1 -.1)">
<defs>
<path id="y" d="m31.781 34.625q-7.0312 0-11.062-3.7656-4.0156-3.7656-4.0156-10.344 0-6.5938 4.0156-10.359 4.0312-3.7656 11.062-3.7656t11.078 3.7812q4.0625 3.7969 4.0625 10.344 0 6.5781-4.0312 10.344-4.0156 3.7656-11.109 3.7656zm-9.8594 4.1875q-6.3438 1.5625-9.8906 5.9062-3.5312 4.3594-3.5312 10.609 0 8.7344 6.2188 13.812 6.2344 5.0781 17.062 5.0781 10.891 0 17.094-5.0781t6.2031-13.812q0-6.25-3.5469-10.609-3.5312-4.3438-9.8281-5.9062 7.125-1.6562 11.094-6.5 3.9844-4.8281 3.9844-11.797 0-10.609-6.4688-16.281-6.4688-5.6562-18.531-5.6562-12.047 0-18.531 5.6562-6.4688 5.6719-6.4688 16.281 0 6.9688 4 11.797 4.0156 4.8438 11.141 6.5zm-3.6094 15.578q0-5.6562 3.5312-8.8281 3.5469-3.1719 9.9375-3.1719 6.3594 0 9.9375 3.1719 3.5938 3.1719 3.5938 8.8281 0 5.6719-3.5938 8.8438-3.5781 3.1719-9.9375 3.1719-6.3906 0-9.9375-3.1719-3.5312-3.1719-3.5312-8.8438z"/>
</defs>
<use xlink:href="#c"/>
<use x="63.623047" xlink:href="#d"/>
<use x="95.410156" xlink:href="#y"/>
</g>
</g>
<g clip-path="url(#a)">
<g transform="translate(1142.5 215.87) scale(.1 -.1)">
<defs>
<path id="x" d="m10.984 1.5156v8.9844q3.7188-1.7656 7.5156-2.6875 3.8125-0.92188 7.4844-0.92188 9.7656 0 14.906 6.5625 5.1562 6.5625 5.8906 19.953-2.8281-4.2031-7.1875-6.4531-4.3438-2.25-9.6094-2.25-10.938 0-17.312 6.6094-6.375 6.625-6.375 18.109 0 11.219 6.6406 18 6.6406 6.7969 17.672 6.7969 12.656 0 19.312-9.7031 6.6719-9.6875 6.6719-28.141 0-17.234-8.1875-27.516-8.1719-10.281-21.984-10.281-3.7188 0-7.5312 0.73438-3.7969 0.73438-7.9062 2.2031zm19.625 30.906q6.6406 0 10.516 4.5312 3.8906 4.5469 3.8906 12.469 0 7.8594-3.8906 12.422-3.875 4.5625-10.516 4.5625t-10.516-4.5625-3.875-12.422q0-7.9219 3.875-12.469 3.875-4.5312 10.516-4.5312z"/>
</defs>
<use xlink:href="#c"/>
<use x="63.623047" xlink:href="#d"/>
<use x="95.410156" xlink:href="#x"/>
</g>
</g>
<g clip-path="url(#a)">
<g transform="translate(1011.6 306.41) scale(.1 -.1)">
<defs>
<path id="ab" d="m31.781 66.406q-7.6094 0-11.453-7.5-3.8281-7.4844-3.8281-22.531 0-14.984 3.8281-22.484 3.8438-7.5 11.453-7.5 7.6719 0 11.5 7.5 3.8438 7.5 3.8438 22.484 0 15.047-3.8438 22.531-3.8281 7.5-11.5 7.5zm0 7.8125q12.266 0 18.734-9.7031 6.4688-9.6875 6.4688-28.141 0-18.406-6.4688-28.109-6.4688-9.6875-18.734-9.6875-12.25 0-18.719 9.6875-6.4688 9.7031-6.4688 28.109 0 18.453 6.4688 28.141 6.4688 9.7031 18.719 9.7031z"/>
</defs>
<use xlink:href="#c"/>
<use x="63.623047" xlink:href="#d"/>
<use x="95.410156" xlink:href="#c"/>
<use x="159.033203" xlink:href="#ab"/>
</g>
</g>
<g clip-path="url(#a)">
<g transform="translate(1160.1 576.27) scale(.1 -.1)">
<use xlink:href="#c"/>
<use x="63.623047" xlink:href="#d"/>
<use x="95.410156" xlink:href="#c"/>
<use x="159.033203" xlink:href="#c"/>
</g>
</g>
<g clip-path="url(#a)">
<g transform="translate(920.58 576.27) scale(.1 -.1)">
<use xlink:href="#c"/>
<use x="63.623047" xlink:href="#d"/>
<use x="95.410156" xlink:href="#c"/>
<use x="159.033203" xlink:href="#m"/>
</g>
</g>
<g clip-path="url(#a)">
<g transform="translate(1037.1 396.73) scale(.1 -.1)">
<use xlink:href="#c"/>
<use x="63.623047" xlink:href="#d"/>
<use x="95.410156" xlink:href="#c"/>
<use x="159.033203" xlink:href="#q"/>
</g>
</g>
<g clip-path="url(#a)">
<g transform="translate(1077.1 486.73) scale(.1 -.1)">
<defs>
<path id="ag" d="m10.797 72.906h38.719v-8.3125h-29.688v-17.859q2.1406 0.73438 4.2812 1.0938 2.1562 0.35938 4.3125 0.35938 12.203 0 19.328-6.6875 7.1406-6.6875 7.1406-18.109 0-11.766-7.3281-18.297-7.3281-6.5156-20.656-6.5156-4.5938 0-9.3594 0.78125-4.75 0.78125-9.8281 2.3438v9.9219q4.3906-2.3906 9.0781-3.5625t9.9062-1.1719q8.4531 0 13.375 4.4375 4.9375 4.4375 4.9375 12.062 0 7.6094-4.9375 12.047-4.9219 4.4531-13.375 4.4531-3.9531 0-7.8906-0.875-3.9219-0.875-8.0156-2.7344z"/>
</defs>
<use xlink:href="#c"/>
<use x="63.623047" xlink:href="#d"/>
<use x="95.410156" xlink:href="#c"/>
<use x="159.033203" xlink:href="#ag"/>
</g>
</g>
<g clip-path="url(#a)">
<g transform="translate(1077.1 576.27) scale(.1 -.1)">
<use xlink:href="#c"/>
<use x="63.623047" xlink:href="#d"/>
<use x="95.410156" xlink:href="#c"/>
<use x="159.033203" xlink:href="#aa"/>
</g>
</g>
<g clip-path="url(#a)">
<g transform="translate(997.23 576.27) scale(.1 -.1)">
<use xlink:href="#c"/>
<use x="63.623047" xlink:href="#d"/>
<use x="95.410156" xlink:href="#c"/>
<use x="159.033203" xlink:href="#z"/>
</g>
</g>
<g clip-path="url(#a)">
<g transform="translate(106.89 306.41) scale(.1 -.1)">
<use xlink:href="#c"/>
<use x="63.623047" xlink:href="#d"/>
<use x="95.410156" xlink:href="#c"/>
<use x="159.033203" xlink:href="#y"/>
</g>
</g>
<g clip-path="url(#a)">
<g transform="translate(374.49 576.27) scale(.1 -.1)">
<use xlink:href="#c"/>
<use x="63.623047" xlink:href="#d"/>
<use x="95.410156" xlink:href="#c"/>
<use x="159.033203" xlink:href="#x"/>
</g>
</g>
<g clip-path="url(#a)">
<g transform="translate(422.39 576.27) scale(.1 -.1)">
<use xlink:href="#c"/>
<use x="63.623047" xlink:href="#d"/>
<use x="95.410156" xlink:href="#o"/>
<use x="159.033203" xlink:href="#ab"/>
</g>
</g>
<g clip-path="url(#a)">
<g transform="translate(500.63 486.73) scale(.1 -.1)">
<use xlink:href="#c"/>
<use x="63.623047" xlink:href="#d"/>
<use x="95.410156" xlink:href="#o"/>
<use x="159.033203" xlink:href="#c"/>
</g>
</g>
<g clip-path="url(#a)">
<g transform="translate(473.49 576.27) scale(.1 -.1)">
<use xlink:href="#c"/>
<use x="63.623047" xlink:href="#d"/>
<use x="95.410156" xlink:href="#o"/>
<use x="159.033203" xlink:href="#q"/>
</g>
</g>
<g clip-path="url(#a)">
<g transform="translate(527.78 576.27) scale(.1 -.1)">
<use xlink:href="#c"/>
<use x="63.623047" xlink:href="#d"/>
<use x="95.410156" xlink:href="#o"/>
<use x="159.033203" xlink:href="#ag"/>
</g>
</g>
<g clip-path="url(#a)">
<g transform="translate(48.746 576.27) scale(.1 -.1)">
<use xlink:href="#c"/>
<use x="63.623047" xlink:href="#d"/>
<use x="95.410156" xlink:href="#o"/>
<use x="159.033203" xlink:href="#aa"/>
</g>
</g>
<g clip-path="url(#a)">
<g transform="translate(58.327 576.27) scale(.1 -.1)">
<use xlink:href="#c"/>
<use x="63.623047" xlink:href="#d"/>
<use x="95.410156" xlink:href="#o"/>
<use x="159.033203" xlink:href="#z"/>
</g>
</g>
<g clip-path="url(#a)">
<g transform="translate(79.085 576.27) scale(.1 -.1)">
<use xlink:href="#c"/>
<use x="63.623047" xlink:href="#d"/>
<use x="95.410156" xlink:href="#o"/>
<use x="159.033203" xlink:href="#y"/>
</g>
</g>
<g clip-path="url(#a)">
<g transform="translate(106.23 576.27) scale(.1 -.1)">
<use xlink:href="#c"/>
<use x="63.623047" xlink:href="#d"/>
<use x="95.410156" xlink:href="#o"/>
<use x="159.033203" xlink:href="#x"/>
</g>
</g>
<g clip-path="url(#a)">
<g transform="translate(141.36 486.73) scale(.1 -.1)">
<use xlink:href="#c"/>
<use x="63.623047" xlink:href="#d"/>
<use x="95.410156" xlink:href="#m"/>
<use x="159.033203" xlink:href="#ab"/>
</g>
</g>
<g clip-path="url(#a)">
<g transform="translate(207.62 396.73) scale(.1 -.1)">
<use xlink:href="#c"/>
<use x="63.623047" xlink:href="#d"/>
<use x="95.410156" xlink:href="#m"/>
<use x="159.033203" xlink:href="#c"/>
</g>
</g>
<g clip-path="url(#a)">
<g transform="translate(182.87 576.27) scale(.1 -.1)">
<use xlink:href="#c"/>
<use x="63.623047" xlink:href="#d"/>
<use x="95.410156" xlink:href="#m"/>
<use x="159.033203" xlink:href="#o"/>
</g>
</g>
<g clip-path="url(#a)">
<g transform="translate(232.37 486.73) scale(.1 -.1)">
<use xlink:href="#c"/>
<use x="63.623047" xlink:href="#d"/>
<use x="95.410156" xlink:href="#m"/>
<use x="159.033203" xlink:href="#m"/>
</g>
</g>
<g clip-path="url(#a)">
<g transform="translate(214.81 576.27) scale(.1 -.1)">
<use xlink:href="#c"/>
<use x="63.623047" xlink:href="#d"/>
<use x="95.410156" xlink:href="#m"/>
<use x="159.033203" xlink:href="#q"/>
</g>
</g>
<g clip-path="url(#a)">
<g transform="translate(249.94 576.27) scale(.1 -.1)">
<use xlink:href="#c"/>
<use x="63.623047" xlink:href="#d"/>
<use x="95.410156" xlink:href="#m"/>
<use x="159.033203" xlink:href="#ag"/>
</g>
</g>
<g clip-path="url(#a)">
<g transform="translate(128.58 576.27) scale(.1 -.1)">
<use xlink:href="#c"/>
<use x="63.623047" xlink:href="#d"/>
<use x="95.410156" xlink:href="#m"/>
<use x="159.033203" xlink:href="#aa"/>
</g>
</g>
<g clip-path="url(#a)">
<g transform="translate(154.13 576.27) scale(.1 -.1)">
<use xlink:href="#c"/>
<use x="63.623047" xlink:href="#d"/>
<use x="95.410156" xlink:href="#m"/>
<use x="159.033203" xlink:href="#z"/>
</g>
</g>
<g clip-path="url(#a)">
<g transform="translate(288.26 576.27) scale(.1 -.1)">
<use xlink:href="#c"/>
<use x="63.623047" xlink:href="#d"/>
<use x="95.410156" xlink:href="#m"/>
<use x="159.033203" xlink:href="#y"/>
</g>
</g>
<g clip-path="url(#a)">
<g transform="translate(329.78 576.27) scale(.1 -.1)">
<use xlink:href="#c"/>
<use x="63.623047" xlink:href="#d"/>
<use x="95.410156" xlink:href="#m"/>
<use x="159.033203" xlink:href="#x"/>
</g>
</g>
<g clip-path="url(#a)">
<g transform="translate(585.26 576.27) scale(.1 -.1)">
<use xlink:href="#c"/>
<use x="63.623047" xlink:href="#d"/>
<use x="95.410156" xlink:href="#q"/>
<use x="159.033203" xlink:href="#ab"/>
</g>
</g>
<g clip-path="url(#a)">
<g transform="translate(1246.3 576.27) scale(.1 -.1)">
<use xlink:href="#c"/>
<use x="63.623047" xlink:href="#d"/>
<use x="95.410156" xlink:href="#q"/>
<use x="159.033203" xlink:href="#c"/>
</g>
</g>
<defs>
<clipPath id="a">
<rect width="1317.3" height="693.33"/>
</clipPath>
</defs>
</svg>
