<?xml version="1.0" encoding="UTF-8"?>
<!DOCTYPE svg  PUBLIC '-//W3C//DTD SVG 1.1//EN'  'http://www.w3.org/Graphics/SVG/1.1/DTD/svg11.dtd'>
<svg width="1165.3pt" height="613.33pt" version="1.1" viewBox="0 0 1165.3 613.33" xmlns="http://www.w3.org/2000/svg" xmlns:xlink="http://www.w3.org/1999/xlink">
<metadata>
<rdf:RDF xmlns:cc="http://creativecommons.org/ns#" xmlns:dc="http://purl.org/dc/elements/1.1/" xmlns:rdf="http://www.w3.org/1999/02/22-rdf-syntax-ns#">
<cc:Work>
<dc:type rdf:resource="http://purl.org/dc/dcmitype/StillImage"/>
<dc:date>2021-02-09T20:39:44.909531</dc:date>
<dc:format>image/svg+xml</dc:format>
<dc:creator>
<cc:Agent>
<dc:title>Matplotlib v3.3.3, https://matplotlib.org/</dc:title>
</cc:Agent>
</dc:creator>
</cc:Work>
</rdf:RDF>
</metadata>
<defs>
<style type="text/css">*{stroke-linecap:butt;stroke-linejoin:round;}</style>
</defs>
<path d="m0 613.33h1165.3v-613.33h-1165.3z" fill="#fff"/>
<g fill="none" stroke="#000">
<path d="m554.34 27.879-469.27 224.73" clip-path="url(#a)"/>
<path d="m554.34 27.879-351.56 447.84" clip-path="url(#a)"/>
<path d="m554.34 27.879-277.55 112.51" clip-path="url(#a)"/>
<path d="m554.34 27.879 226.89 224.73" clip-path="url(#a)"/>
<path d="m554.34 27.879 390.37 447.84" clip-path="url(#a)"/>
<path d="m554.34 27.879 447.44 336.58" clip-path="url(#a)"/>
<path d="m554.34 27.879 33.674 447.84" clip-path="url(#a)"/>
<path d="m85.073 252.61-32.103 223.11" clip-path="url(#a)"/>
<path d="m85.073 252.61-21.402 223.11" clip-path="url(#a)"/>
<path d="m85.073 252.61 1.7835 111.84" clip-path="url(#a)"/>
<path d="m85.073 252.61 51.721 111.84" clip-path="url(#a)"/>
<path d="m202.78 475.72v109.73" clip-path="url(#a)"/>
<path d="m276.8 140.39-38.345 335.33" clip-path="url(#a)"/>
<path d="m276.8 140.39 67.475 112.23" clip-path="url(#a)"/>
<path d="m276.8 140.39 194.7 224.07" clip-path="url(#a)"/>
<path d="m276.8 140.39-223.83 335.33" clip-path="url(#a)" stroke-dasharray="3.7,1.6"/>
<path d="m781.23 252.61-95.12 111.84" clip-path="url(#a)"/>
<path d="m781.23 252.61 10.106 223.11" clip-path="url(#a)"/>
<path d="m781.23 252.61 85.013 223.11" clip-path="url(#a)"/>
<path d="m944.72 475.72v109.73" clip-path="url(#a)"/>
<path d="m1001.8 364.46 24.969 111.26" clip-path="url(#a)"/>
<path d="m1001.8 364.46-135.55 111.26" clip-path="url(#a)" stroke-dasharray="3.7,1.6"/>
<path d="m1001.8 364.46 110.58 111.26" clip-path="url(#a)"/>
<path d="m1026.8 475.72v109.73" clip-path="url(#a)"/>
<path d="m686.11 364.46-33.886 111.26" clip-path="url(#a)"/>
<path d="m686.11 364.46 33.886 111.26" clip-path="url(#a)"/>
<path d="m791.34 475.72v109.73" clip-path="url(#a)"/>
<path d="m866.24 475.72v109.73" clip-path="url(#a)"/>
<path d="m652.22 475.72v109.73" clip-path="url(#a)"/>
<path d="m720 475.72v109.73" clip-path="url(#a)"/>
<path d="m238.45 475.72v109.73" clip-path="url(#a)"/>
<path d="m344.27 252.61-21.996 111.84" clip-path="url(#a)"/>
<path d="m344.27 252.61-0.5945 111.84" clip-path="url(#a)"/>
<path d="m344.27 252.61 22.591 223.11" clip-path="url(#a)"/>
<path d="m471.5 364.46-54.694 111.26" clip-path="url(#a)"/>
<path d="m471.5 364.46-1.189 111.26" clip-path="url(#a)"/>
<path d="m471.5 364.46 55.883 111.26" clip-path="url(#a)"/>
<path d="m416.8 475.72v109.73" clip-path="url(#a)"/>
<path d="m470.31 475.72v109.73" clip-path="url(#a)"/>
<path d="m527.38 475.72v109.73" clip-path="url(#a)"/>
<path d="m322.28 364.46 44.587 111.26" clip-path="url(#a)" stroke-dasharray="3.7,1.6"/>
<path d="m322.28 364.46-44.587 111.26" clip-path="url(#a)"/>
<path d="m343.68 364.46 23.185 111.26" clip-path="url(#a)" stroke-dasharray="3.7,1.6"/>
<path d="m343.68 364.46-23.185 111.26" clip-path="url(#a)"/>
<path d="m366.86 475.72v109.73" clip-path="url(#a)"/>
<path d="m320.49 475.72v109.73" clip-path="url(#a)"/>
<path d="m277.69 475.72v109.73" clip-path="url(#a)"/>
<path d="m52.97 475.72v109.73" clip-path="url(#a)"/>
<path d="m63.671 475.72v109.73" clip-path="url(#a)"/>
<path d="m86.856 364.46-8.9175 111.26" clip-path="url(#a)"/>
<path d="m86.856 364.46 8.9175 111.26" clip-path="url(#a)"/>
<path d="m136.79 364.46-19.618 111.26" clip-path="url(#a)"/>
<path d="m136.79 364.46 19.618 111.26" clip-path="url(#a)"/>
<path d="m117.18 475.72v109.73" clip-path="url(#a)"/>
<path d="m156.41 475.72-14.268 109.73" clip-path="url(#a)"/>
<path d="m156.41 475.72 14.268 109.73" clip-path="url(#a)"/>
<path d="m77.939 475.72v109.73" clip-path="url(#a)"/>
<path d="m95.773 475.72v109.73" clip-path="url(#a)"/>
<path d="m588.02 475.72v109.73" clip-path="url(#a)"/>
<path d="m1112.4 475.72v109.73" clip-path="url(#a)"/>
</g>
<path d="m319.7 147.2 5.4261-2.5986q2.1646-1.0366 1.128-3.2012l-3.3442-6.983q-1.0366-2.1646-3.2012-1.128l-5.4261 2.5986q-2.1646 1.0366-1.128 3.2012l3.3442 6.983q1.0366 2.1646 3.2012 1.128z" clip-path="url(#a)" fill="#fff" stroke="#fff"/>
<g clip-path="url(#a)">
<g transform="translate(317.95 143.54) rotate(-25.59) scale(.08 -.08)">
<defs>
<path id="w" d="m9.8125 72.906h9.8594v-29.891h35.844v29.891h9.8594v-72.906h-9.8594v34.719h-35.844v-34.719h-9.8594z"/>
</defs>
<use xlink:href="#w"/>
</g>
</g>
<path d="m382.12 257.42 2.7524-3.5062q1.482-1.8878-0.40586-3.3698l-6.0901-4.7808q-1.8878-1.482-3.3698 0.40586l-2.7524 3.5062q-1.482 1.8878 0.40586 3.3698l6.0902 4.7808q1.8878 1.482 3.3698-0.40586z" clip-path="url(#a)" fill="#fff" stroke="#fff"/>
<g clip-path="url(#a)">
<g transform="translate(378.92 254.92) rotate(-51.868) scale(.08 -.08)">
<defs>
<path id="af" d="m9.8125 72.906h9.8594v-64.609h35.5v-8.2969h-45.359z"/>
</defs>
<use xlink:href="#af"/>
</g>
</g>
<path d="m415.14 91.075 5.5756-2.2602q2.2242-0.90163 1.3226-3.1258l-2.9087-7.1754q-0.90163-2.2242-3.1258-1.3226l-5.5756 2.2602q-2.2242 0.90163-1.3226 3.1258l2.9087 7.1754q0.90163 2.2242 3.1258 1.3226z" clip-path="url(#a)" fill="#fff" stroke="#fff"/>
<g clip-path="url(#a)">
<g transform="translate(413.61 87.309) rotate(-22.066) scale(.08 -.08)">
<use xlink:href="#w"/>
</g>
</g>
<path d="m661.24 142.58 4.2743 4.2338q1.7051 1.689 3.3941-0.016163l5.4486-5.5008q1.689-1.7051-0.016164-3.3941l-4.2743-4.2338q-1.7051-1.689-3.3941 0.016163l-5.4486 5.5008q-1.689 1.7051 0.016163 3.3941z" clip-path="url(#a)" fill="#fff" stroke="#fff"/>
<g clip-path="url(#a)">
<g transform="translate(664.1 139.7) rotate(44.727) scale(.08 -.08)">
<use xlink:href="#w"/>
</g>
</g>
<path d="m743.34 254.24 2.929 3.3601q1.577 1.8092 3.3862 0.23216l5.8364-5.0875q1.8092-1.577 0.23216-3.3862l-2.929-3.3601q-1.577-1.8092-3.3862-0.23216l-5.8364 5.0875q-1.8092 1.577-0.23216 3.3862z" clip-path="url(#a)" fill="#fff" stroke="#fff"/>
<g clip-path="url(#a)">
<g transform="translate(746.4 251.57) rotate(48.922) scale(.08 -.08)">
<use xlink:href="#af"/>
</g>
</g>
<path d="m771.89 199.37 4.8079 3.6166q1.9179 1.4427 3.3607-0.47522l4.6543-6.1874q1.4427-1.9179-0.47522-3.3607l-4.8079-3.6166q-1.9179-1.4427-3.3607 0.47522l-4.6543 6.1874q-1.4427 1.9179 0.47522 3.3607z" clip-path="url(#a)" fill="#fff" stroke="#fff"/>
<g clip-path="url(#a)">
<g transform="translate(774.33 196.12) rotate(36.951) scale(.08 -.08)">
<use xlink:href="#w"/>
</g>
</g>
<path d="m564.71 249.35 0.43901 5.8385q0.17995 2.3932 2.5732 2.2133l7.7207-0.58053q2.3932-0.17995 2.2133-2.5732l-0.43901-5.8385q-0.17995-2.3932-2.5732-2.2133l-7.7207 0.58054q-2.3932 0.17995-2.2133 2.5732z" clip-path="url(#a)" fill="#fff" stroke="#fff"/>
<g clip-path="url(#a)">
<g transform="translate(568.76 249.05) rotate(85.7) scale(.08 -.08)">
<defs>
<path id="ad" d="m8.6875 72.906h9.9219v-44.297q0-11.719 4.2344-16.875 4.25-5.1406 13.781-5.1406 9.4688 0 13.719 5.1406 4.25 5.1562 4.25 16.875v44.297h9.9062v-45.516q0-14.25-7.0625-21.531-7.0469-7.2812-20.812-7.2812-13.828 0-20.891 7.2812-7.0469 7.2812-7.0469 21.531z"/>
</defs>
<use xlink:href="#ad"/>
</g>
</g>
<path d="m74.839 367.77 0.77941-5.4167q0.34182-2.3755-2.0337-2.7174l-7.6636-1.1027q-2.3755-0.34182-2.7174 2.0337l-0.77941 5.4167q-0.34182 2.3755 2.0337 2.7174l7.6636 1.1027q2.3755 0.34182 2.7174-2.0337z" clip-path="url(#a)" fill="#fff" stroke="#fff"/>
<g clip-path="url(#a)">
<g transform="translate(70.816 367.19) rotate(-81.812) scale(.08 -.08)">
<defs>
<path id="o" d="m34.188 63.188-13.391-36.281h26.812zm-5.5781 9.7188h11.188l27.781-72.906h-10.25l-6.6406 18.703h-32.859l-6.6406-18.703h-10.406z"/>
</defs>
<use xlink:href="#o"/>
</g>
</g>
<path d="m80.384 367.17 0.46061-4.8017q0.22917-2.389-2.1599-2.6182l-7.7071-0.73932q-2.389-0.22917-2.6182 2.1599l-0.46061 4.8017q-0.22917 2.389 2.1599 2.6182l7.7071 0.73932q2.389 0.22917 2.6182-2.1599z" clip-path="url(#a)" fill="#fff" stroke="#fff"/>
<g clip-path="url(#a)">
<g transform="translate(76.339 366.78) rotate(-84.521) scale(.08 -.08)">
<defs>
<path id="ae" d="m19.672 64.797v-27.391h12.406q6.8906 0 10.641 3.5625 3.7656 3.5625 3.7656 10.156 0 6.5469-3.7656 10.109-3.75 3.5625-10.641 3.5625zm-9.8594 8.1094h22.266q12.266 0 18.531-5.5469 6.2812-5.5469 6.2812-16.234 0-10.797-6.2812-16.312-6.2656-5.5156-18.531-5.5156h-12.406v-29.297h-9.8594z"/>
</defs>
<use xlink:href="#ae"/>
</g>
</g>
<path d="m79.65 305.9 0.087255 5.4718q0.038265 2.3997 2.438 2.3614l7.7415-0.12345q2.3997-0.038265 2.3614-2.438l-0.087254-5.4718q-0.038266-2.3997-2.438-2.3614l-7.7415 0.12345q-2.3997 0.038266-2.3614 2.438z" clip-path="url(#a)" fill="#fff" stroke="#fff"/>
<g clip-path="url(#a)">
<g transform="translate(83.713 305.84) rotate(89.086) scale(.08 -.08)">
<use xlink:href="#o"/>
</g>
</g>
<path d="m104.22 308.95 2.0509 4.435q1.0074 2.1784 3.1857 1.171l7.0275-3.2498q2.1784-1.0074 1.171-3.1857l-2.0509-4.435q-1.0074-2.1784-3.1857-1.171l-7.0275 3.2498q-2.1784 1.0074-1.171 3.1857z" clip-path="url(#a)" fill="#fff" stroke="#fff"/>
<g clip-path="url(#a)">
<g transform="translate(107.9 307.25) rotate(65.182) scale(.08 -.08)">
<defs>
<path id="l" d="m-0.29688 72.906h61.672v-8.3125h-25.875v-64.594h-9.9062v64.594h-25.891z"/>
</defs>
<use xlink:href="#l"/>
</g>
</g>
<path d="m196.51 513.68v33.808q0 2.4 2.4 2.4h7.7425q2.4 0 2.4-2.4v-33.808q0-2.4-2.4-2.4h-7.7425q-2.4 0-2.4 2.4z" clip-path="url(#a)" fill="#fff" stroke="#fff"/>
<g clip-path="url(#a)">
<g transform="translate(200.58 513.68) rotate(90) scale(.08 -.08)">
<defs>
<path id="f" d="m56.203 29.594v-4.3906h-41.312q0.59375-9.2812 5.5938-14.141t13.938-4.8594q5.1719 0 10.031 1.2656t9.6562 3.8125v-8.5q-4.8438-2.0469-9.9219-3.125t-10.297-1.0781q-13.094 0-20.734 7.6094-7.6406 7.625-7.6406 20.625 0 13.422 7.25 21.297 7.25 7.8906 19.562 7.8906 11.031 0 17.453-7.1094 6.4219-7.0938 6.4219-19.297zm-8.9844 2.6406q-0.09375 7.3594-4.125 11.75-4.0312 4.4062-10.672 4.4062-7.5156 0-12.031-4.25t-5.2031-11.969z"/>
<path id="k" d="m41.109 46.297q-1.5156 0.875-3.2969 1.2812-1.7812 0.42188-3.9219 0.42188-7.625 0-11.703-4.9531t-4.0781-14.234v-28.812h-9.0312v54.688h9.0312v-8.5q2.8438 4.9844 7.375 7.3906 4.5469 2.4219 11.047 2.4219 0.92188 0 2.0469-0.125 1.125-0.10938 2.4844-0.35938z"/>
<path id="h" d="m52 44.188q3.375 6.0625 8.0625 8.9375t11.031 2.875q8.5469 0 13.188-5.9844 4.6406-5.9688 4.6406-17v-33.016h-9.0312v32.719q0 7.8594-2.7969 11.656-2.7812 3.8125-8.4844 3.8125-6.9844 0-11.047-4.6406-4.0469-4.625-4.0469-12.641v-30.906h-9.0312v32.719q0 7.9062-2.7812 11.688t-8.5938 3.7812q-6.8906 0-10.953-4.6562-4.0469-4.6562-4.0469-12.625v-30.906h-9.0312v54.688h9.0312v-8.5q3.0781 5.0312 7.375 7.4219t10.203 2.3906q5.9688 0 10.141-3.0312 4.1719-3.0156 6.1719-8.7812z"/>
<path id="g" d="m9.4219 54.688h8.9844v-54.688h-8.9844zm0 21.297h8.9844v-11.391h-8.9844z"/>
<path id="i" d="m54.891 33.016v-33.016h-8.9844v32.719q0 7.7656-3.0312 11.609-3.0312 3.8594-9.0781 3.8594-7.2812 0-11.484-4.6406-4.2031-4.625-4.2031-12.641v-30.906h-9.0312v54.688h9.0312v-8.5q3.2344 4.9375 7.5938 7.375 4.375 2.4375 10.094 2.4375 9.4219 0 14.25-5.8281 4.8438-5.8281 4.8438-17.156z"/>
<path id="e" d="m34.281 27.484q-10.891 0-15.094-2.4844t-4.2031-8.5q0-4.7812 3.1562-7.5938 3.1562-2.7969 8.5625-2.7969 7.4844 0 12 5.2969t4.5156 14.078v2zm17.922 3.7188v-31.203h-8.9844v8.2969q-3.0781-4.9688-7.6719-7.3438t-11.234-2.375q-8.3906 0-13.359 4.7188-4.9531 4.7188-4.9531 12.625 0 9.2188 6.1719 13.906 6.1875 4.6875 18.438 4.6875h12.609v0.89062q0 6.2031-4.0781 9.5938t-11.453 3.3906q-4.6875 0-9.1406-1.125-4.4375-1.125-8.5312-3.375v8.3125q4.9219 1.9062 9.5625 2.8438 4.6406 0.95312 9.0312 0.95312 11.875 0 17.734-6.1562 5.8594-6.1406 5.8594-18.641z"/>
<path id="j" d="m9.4219 75.984h8.9844v-75.984h-8.9844z"/>
</defs>
<use xlink:href="#l"/>
<use x="44.083984" xlink:href="#f"/>
<use x="105.607422" xlink:href="#k"/>
<use x="144.970703" xlink:href="#h"/>
<use x="242.382812" xlink:href="#g"/>
<use x="270.166016" xlink:href="#i"/>
<use x="333.544922" xlink:href="#e"/>
<use x="394.824219" xlink:href="#j"/>
</g>
</g>
<path d="m263.58 311.16 0.54802-4.7925q0.27266-2.3845-2.1118-2.6571l-7.6924-0.87962q-2.3845-0.27266-2.6571 2.1118l-0.54802 4.7925q-0.27266 2.3845 2.1118 2.6571l7.6924 0.87962q2.3845 0.27266 2.6571-2.1118z" clip-path="url(#a)" fill="#fff" stroke="#fff"/>
<g clip-path="url(#a)">
<g transform="translate(259.54 310.7) rotate(-83.477) scale(.08 -.08)">
<use xlink:href="#ae"/>
</g>
</g>
<path d="m303.75 197.39 2.8199 4.69q1.2367 2.0568 3.2935 0.82017l6.6355-3.9896q2.0568-1.2367 0.82017-3.2935l-2.8199-4.69q-1.2367-2.0568-3.2935-0.82017l-6.6355 3.9896q-2.0568 1.2367-0.82017 3.2935z" clip-path="url(#a)" fill="#fff" stroke="#fff"/>
<g clip-path="url(#a)">
<g transform="translate(307.23 195.29) rotate(58.984) scale(.08 -.08)">
<use xlink:href="#o"/>
</g>
</g>
<path d="m367.62 254.47 3.5894 4.1309q1.5742 1.8116 3.3858 0.23748l5.8444-5.0783q1.8116-1.5742 0.23748-3.3858l-3.5894-4.1309q-1.5742-1.8116-3.3858-0.23748l-5.8444 5.0783q-1.8116 1.5742-0.23748 3.3858z" clip-path="url(#a)" fill="#fff" stroke="#fff"/>
<g clip-path="url(#a)">
<g transform="translate(370.69 251.81) rotate(49.012) scale(.08 -.08)">
<use xlink:href="#o"/>
</g>
</g>
<path d="m168.58 313.81 3.0382-4.5517q1.3324-1.9962-0.66376-3.3286l-6.4397-4.2984q-1.9962-1.3324-3.3286 0.66376l-3.0382 4.5517q-1.3324 1.9962 0.66376 3.3286l6.4397 4.2984q1.9962 1.3324 3.3286-0.66376z" clip-path="url(#a)" fill="#fff" stroke="#fff"/>
<g clip-path="url(#a)">
<g transform="translate(165.2 311.56) rotate(-56.278) scale(.08 -.08)">
<use xlink:href="#o"/>
</g>
</g>
<path d="m736.67 314.68 3.5454-4.1688q1.5548-1.8282-0.2734-3.3831l-5.898-5.016q-1.8282-1.5548-3.3831 0.2734l-3.5454 4.1688q-1.5548 1.8282 0.2734 3.3831l5.898 5.016q1.8282 1.5548 3.3831-0.2734z" clip-path="url(#a)" fill="#fff" stroke="#fff"/>
<g clip-path="url(#a)">
<g transform="translate(733.58 312.05) rotate(-49.62) scale(.08 -.08)">
<use xlink:href="#o"/>
</g>
</g>
<path d="m779.91 362.15 0.20822 4.5965q0.10861 2.3975 2.5061 2.2889l7.7346-0.35037q2.3975-0.1086 2.2889-2.5061l-0.20822-4.5965q-0.10861-2.3975-2.5061-2.2889l-7.7346 0.35037q-2.3975 0.10861-2.2889 2.5061z" clip-path="url(#a)" fill="#fff" stroke="#fff"/>
<g clip-path="url(#a)">
<g transform="translate(783.97 361.97) rotate(87.406) scale(.08 -.08)">
<defs>
<path id="ag" d="m9.8125 72.906h41.891v-8.3125h-32.031v-21.484h28.906v-8.2969h-28.906v-34.812h-9.8594z"/>
</defs>
<use xlink:href="#ag"/>
</g>
</g>
<path d="m816.97 364.03 1.8084 4.7459q0.85457 2.2427 3.0973 1.3881l7.2351-2.7569q2.2427-0.85457 1.3881-3.0973l-1.8084-4.7459q-0.85457-2.2427-3.0973-1.3881l-7.2351 2.7569q-2.2427 0.85457-1.3881 3.0973z" clip-path="url(#a)" fill="#fff" stroke="#fff"/>
<g clip-path="url(#a)">
<g transform="translate(820.77 362.58) rotate(69.141) scale(.08 -.08)">
<defs>
<path id="v" d="m53.516 70.516v-9.625q-5.6094 2.6875-10.594 4-4.9844 1.3281-9.625 1.3281-8.0469 0-12.422-3.125t-4.375-8.8906q0-4.8438 2.9062-7.3125 2.9062-2.4531 11.016-3.9688l5.9531-1.2188q11.031-2.1094 16.281-7.4062t5.25-14.172q0-10.609-7.1094-16.078-7.0938-5.4688-20.812-5.4688-5.1719 0-11.016 1.1719-5.8281 1.1719-12.078 3.4688v10.156q6-3.3594 11.766-5.0781 5.7656-1.7031 11.328-1.7031 8.4375 0 13.031 3.3125 4.5938 3.3281 4.5938 9.4844 0 5.3594-3.2969 8.3906t-10.812 4.5469l-6.0156 1.1719q-11.031 2.1875-15.969 6.875-4.9219 4.6875-4.9219 13.047 0 9.6719 6.8125 15.234t18.766 5.5625q5.1406 0 10.453-0.9375 5.3281-0.92188 10.891-2.7656z"/>
</defs>
<use xlink:href="#v"/>
</g>
</g>
<path d="m938.44 513.68v33.808q0 2.4 2.4 2.4h7.7425q2.4 0 2.4-2.4v-33.808q0-2.4-2.4-2.4h-7.7425q-2.4 0-2.4 2.4z" clip-path="url(#a)" fill="#fff" stroke="#fff"/>
<g clip-path="url(#a)">
<g transform="translate(942.51 513.68) rotate(90) scale(.08 -.08)">
<use xlink:href="#l"/>
<use x="44.083984" xlink:href="#f"/>
<use x="105.607422" xlink:href="#k"/>
<use x="144.970703" xlink:href="#h"/>
<use x="242.382812" xlink:href="#g"/>
<use x="270.166016" xlink:href="#i"/>
<use x="333.544922" xlink:href="#e"/>
<use x="394.824219" xlink:href="#j"/>
</g>
</g>
<path d="m1007.6 418.79 1.1983 5.3397q0.52553 2.3418 2.8673 1.8162l7.5546-1.6954q2.3418-0.52553 1.8162-2.8673l-1.1983-5.3397q-0.52553-2.3418-2.8673-1.8162l-7.5546 1.6954q-2.3418 0.52553-1.8162 2.8673z" clip-path="url(#a)" fill="#fff" stroke="#fff"/>
<g clip-path="url(#a)">
<g transform="translate(1011.5 417.9) rotate(77.351) scale(.08 -.08)">
<use xlink:href="#o"/>
</g>
</g>
<path d="m936.03 426.55 3.9256-3.2223q1.8551-1.5227 0.33235-3.3778l-4.9124-5.9846q-1.5227-1.8551-3.3778-0.33235l-3.9256 3.2223q-1.8551 1.5227-0.33235 3.3778l4.9124 5.9846q1.5227 1.8551 3.3778 0.33235z" clip-path="url(#a)" fill="#fff" stroke="#fff"/>
<g clip-path="url(#a)">
<g transform="translate(933.45 423.41) rotate(-39.381) scale(.08 -.08)">
<use xlink:href="#v"/>
</g>
</g>
<path d="m1050.6 422.43 4.1273 4.1529q1.6918 1.7023 3.3941 0.010477l5.4916-5.4578q1.7023-1.6918 0.010478-3.3941l-4.1273-4.1529q-1.6918-1.7023-3.3941-0.010477l-5.4916 5.4578q-1.7023 1.6918-0.010478 3.3941z" clip-path="url(#a)" fill="#fff" stroke="#fff"/>
<g clip-path="url(#a)">
<g transform="translate(1053.4 419.57) rotate(45.177) scale(.08 -.08)">
<use xlink:href="#ad"/>
</g>
</g>
<path d="m1020.5 513.68v33.808q0 2.4 2.4 2.4h7.7425q2.4 0 2.4-2.4v-33.808q0-2.4-2.4-2.4h-7.7425q-2.4 0-2.4 2.4z" clip-path="url(#a)" fill="#fff" stroke="#fff"/>
<g clip-path="url(#a)">
<g transform="translate(1024.5 513.68) rotate(90) scale(.08 -.08)">
<use xlink:href="#l"/>
<use x="44.083984" xlink:href="#f"/>
<use x="105.607422" xlink:href="#k"/>
<use x="144.970703" xlink:href="#h"/>
<use x="242.382812" xlink:href="#g"/>
<use x="270.166016" xlink:href="#i"/>
<use x="333.544922" xlink:href="#e"/>
<use x="394.824219" xlink:href="#j"/>
</g>
</g>
<path d="m674.43 424.33 1.4728-4.8357q0.69924-2.2959-1.5966-2.9951l-7.4066-2.2558q-2.2959-0.69924-2.9951 1.5966l-1.4728 4.8357q-0.69924 2.2959 1.5966 2.9951l7.4066 2.2558q2.2959 0.69925 2.9951-1.5966z" clip-path="url(#a)" fill="#fff" stroke="#fff"/>
<g clip-path="url(#a)">
<g transform="translate(670.54 423.15) rotate(-73.061) scale(.08 -.08)">
<defs>
<path id="r" d="m9.8125 72.906h46.094v-8.3125h-36.234v-21.578h34.719v-8.2969h-34.719v-26.422h37.109v-8.2969h-46.969z"/>
</defs>
<use xlink:href="#r"/>
</g>
</g>
<path d="m696.24 419.24 1.6276 5.3439q0.69924 2.2959 2.9951 1.5966l7.4066-2.2558q2.2959-0.69924 1.5966-2.9951l-1.6276-5.3439q-0.69924-2.2959-2.9951-1.5966l-7.4066 2.2558q-2.2959 0.69924-1.5966 2.9951z" clip-path="url(#a)" fill="#fff" stroke="#fff"/>
<g clip-path="url(#a)">
<g transform="translate(700.13 418.06) rotate(73.061) scale(.08 -.08)">
<defs>
<path id="s" d="m64.406 67.281v-10.391q-4.9844 4.6406-10.625 6.9219-5.6406 2.2969-11.984 2.2969-12.5 0-19.141-7.6406t-6.6406-22.094q0-14.406 6.6406-22.047t19.141-7.6406q6.3438 0 11.984 2.2969t10.625 6.9375v-10.312q-5.1719-3.5156-10.969-5.2812-5.7812-1.75-12.219-1.75-16.562 0-26.094 10.125-9.5156 10.141-9.5156 27.672 0 17.578 9.5156 27.703 9.5312 10.141 26.094 10.141 6.5312 0 12.312-1.7344 5.7969-1.7344 10.875-5.2031z"/>
</defs>
<use xlink:href="#s"/>
</g>
</g>
<path d="m785.06 513.68v33.808q0 2.4 2.4 2.4h7.7425q2.4 0 2.4-2.4v-33.808q0-2.4-2.4-2.4h-7.7425q-2.4 0-2.4 2.4z" clip-path="url(#a)" fill="#fff" stroke="#fff"/>
<g clip-path="url(#a)">
<g transform="translate(789.13 513.68) rotate(90) scale(.08 -.08)">
<use xlink:href="#l"/>
<use x="44.083984" xlink:href="#f"/>
<use x="105.607422" xlink:href="#k"/>
<use x="144.970703" xlink:href="#h"/>
<use x="242.382812" xlink:href="#g"/>
<use x="270.166016" xlink:href="#i"/>
<use x="333.544922" xlink:href="#e"/>
<use x="394.824219" xlink:href="#j"/>
</g>
</g>
<path d="m859.97 513.68v33.808q0 2.4 2.4 2.4h7.7425q2.4 0 2.4-2.4v-33.808q0-2.4-2.4-2.4h-7.7425q-2.4 0-2.4 2.4z" clip-path="url(#a)" fill="#fff" stroke="#fff"/>
<g clip-path="url(#a)">
<g transform="translate(864.03 513.68) rotate(90) scale(.08 -.08)">
<use xlink:href="#l"/>
<use x="44.083984" xlink:href="#f"/>
<use x="105.607422" xlink:href="#k"/>
<use x="144.970703" xlink:href="#h"/>
<use x="242.382812" xlink:href="#g"/>
<use x="270.166016" xlink:href="#i"/>
<use x="333.544922" xlink:href="#e"/>
<use x="394.824219" xlink:href="#j"/>
</g>
</g>
<path d="m645.95 513.68v33.808q0 2.4 2.4 2.4h7.7425q2.4 0 2.4-2.4v-33.808q0-2.4-2.4-2.4h-7.7425q-2.4 0-2.4 2.4z" clip-path="url(#a)" fill="#fff" stroke="#fff"/>
<g clip-path="url(#a)">
<g transform="translate(650.02 513.68) rotate(90) scale(.08 -.08)">
<use xlink:href="#l"/>
<use x="44.083984" xlink:href="#f"/>
<use x="105.607422" xlink:href="#k"/>
<use x="144.970703" xlink:href="#h"/>
<use x="242.382812" xlink:href="#g"/>
<use x="270.166016" xlink:href="#i"/>
<use x="333.544922" xlink:href="#e"/>
<use x="394.824219" xlink:href="#j"/>
</g>
</g>
<path d="m713.72 513.68v33.808q0 2.4 2.4 2.4h7.7425q2.4 0 2.4-2.4v-33.808q0-2.4-2.4-2.4h-7.7425q-2.4 0-2.4 2.4z" clip-path="url(#a)" fill="#fff" stroke="#fff"/>
<g clip-path="url(#a)">
<g transform="translate(717.79 513.68) rotate(90) scale(.08 -.08)">
<use xlink:href="#l"/>
<use x="44.083984" xlink:href="#f"/>
<use x="105.607422" xlink:href="#k"/>
<use x="144.970703" xlink:href="#h"/>
<use x="242.382812" xlink:href="#g"/>
<use x="270.166016" xlink:href="#i"/>
<use x="333.544922" xlink:href="#e"/>
<use x="394.824219" xlink:href="#j"/>
</g>
</g>
<path d="m232.18 513.68v33.808q0 2.4 2.4 2.4h7.7425q2.4 0 2.4-2.4v-33.808q0-2.4-2.4-2.4h-7.7425q-2.4 0-2.4 2.4z" clip-path="url(#a)" fill="#fff" stroke="#fff"/>
<g clip-path="url(#a)">
<g transform="translate(236.25 513.68) rotate(90) scale(.08 -.08)">
<use xlink:href="#l"/>
<use x="44.083984" xlink:href="#f"/>
<use x="105.607422" xlink:href="#k"/>
<use x="144.970703" xlink:href="#h"/>
<use x="242.382812" xlink:href="#g"/>
<use x="270.166016" xlink:href="#i"/>
<use x="333.544922" xlink:href="#e"/>
<use x="394.824219" xlink:href="#j"/>
</g>
</g>
<path d="m338.94 312.23 0.97548-4.96q0.46313-2.3549-1.8918-2.818l-7.597-1.4941q-2.3549-0.46313-2.818 1.8918l-0.97548 4.96q-0.46313 2.3549 1.8918 2.818l7.597 1.4941q2.3549 0.46313 2.818-1.8918z" clip-path="url(#a)" fill="#fff" stroke="#fff"/>
<g clip-path="url(#a)">
<g transform="translate(334.95 311.44) rotate(-78.874) scale(.08 -.08)">
<use xlink:href="#r"/>
</g>
</g>
<path d="m350.23 311.1 0.026869-5.0549q0.012756-2.4-2.3872-2.4127l-7.7424-0.041153q-2.4-0.012757-2.4127 2.3872l-0.026869 5.0549q-0.012757 2.4 2.3872 2.4127l7.7424 0.041154q2.4 0.012757 2.4127-2.3872z" clip-path="url(#a)" fill="#fff" stroke="#fff"/>
<g clip-path="url(#a)">
<g transform="translate(346.17 311.08) rotate(-89.695) scale(.08 -.08)">
<use xlink:href="#r"/>
</g>
</g>
<path d="m349.05 362.02 0.56276 5.5578q0.24178 2.3878 2.6296 2.146l7.7031-0.77999q2.3878-0.24178 2.146-2.6296l-0.56276-5.5578q-0.24178-2.3878-2.6296-2.146l-7.7031 0.77999q-2.3878 0.24178-2.146 2.6296z" clip-path="url(#a)" fill="#fff" stroke="#fff"/>
<g clip-path="url(#a)">
<g transform="translate(353.09 361.61) rotate(84.218) scale(.08 -.08)">
<use xlink:href="#s"/>
</g>
</g>
<path d="m448.55 425.35 2.4523-4.9886q1.0588-2.1538-1.0951-3.2126l-6.9483-3.4157q-2.1538-1.0588-3.2126 1.0951l-2.4523 4.9886q-1.0588 2.1538 1.0951 3.2126l6.9483 3.4157q2.1538 1.0588 3.2126-1.0951z" clip-path="url(#a)" fill="#fff" stroke="#fff"/>
<g clip-path="url(#a)">
<g transform="translate(444.9 423.56) rotate(-63.822) scale(.08 -.08)">
<defs>
<path id="al" d="m44.391 34.188q3.1719-1.0781 6.1719-4.5938t6.0312-9.6719l10.016-19.922h-10.609l-9.3125 18.703q-3.625 7.3281-7.0156 9.7188t-9.25 2.3906h-10.75v-30.812h-9.8594v72.906h22.266q12.5 0 18.656-5.2344 6.1562-5.2188 6.1562-15.766 0-6.8906-3.2031-11.438-3.2031-4.5312-9.2969-6.2812zm-24.719 30.609v-25.875h12.406q7.125 0 10.766 3.2969t3.6406 9.6875-3.6406 9.6406-10.766 3.25z"/>
</defs>
<use xlink:href="#al"/>
</g>
</g>
<path d="m477.15 422.68 0.054017-5.0547q0.025646-2.3999-2.3742-2.4255l-7.7421-0.082736q-2.3999-0.025646-2.4255 2.3742l-0.054017 5.0547q-0.025646 2.3999 2.3742 2.4255l7.7421 0.082735q2.3999 0.025646 2.4255-2.3742z" clip-path="url(#a)" fill="#fff" stroke="#fff"/>
<g clip-path="url(#a)">
<g transform="translate(473.08 422.64) rotate(-89.388) scale(.08 -.08)">
<use xlink:href="#r"/>
</g>
</g>
<path d="m492.58 420.41 2.5073 4.992q1.0772 2.1447 3.2219 1.0675l6.9188-3.4751q2.1447-1.0772 1.0675-3.2219l-2.5073-4.992q-1.0772-2.1447-3.2219-1.0675l-6.9188 3.4751q-2.1447 1.0772-1.0675 3.2219z" clip-path="url(#a)" fill="#fff" stroke="#fff"/>
<g clip-path="url(#a)">
<g transform="translate(496.21 418.58) rotate(63.331) scale(.08 -.08)">
<use xlink:href="#s"/>
</g>
</g>
<path d="m410.53 513.68v33.808q0 2.4 2.4 2.4h7.7425q2.4 0 2.4-2.4v-33.808q0-2.4-2.4-2.4h-7.7425q-2.4 0-2.4 2.4z" clip-path="url(#a)" fill="#fff" stroke="#fff"/>
<g clip-path="url(#a)">
<g transform="translate(414.59 513.68) rotate(90) scale(.08 -.08)">
<use xlink:href="#l"/>
<use x="44.083984" xlink:href="#f"/>
<use x="105.607422" xlink:href="#k"/>
<use x="144.970703" xlink:href="#h"/>
<use x="242.382812" xlink:href="#g"/>
<use x="270.166016" xlink:href="#i"/>
<use x="333.544922" xlink:href="#e"/>
<use x="394.824219" xlink:href="#j"/>
</g>
</g>
<path d="m464.04 513.68v33.808q0 2.4 2.4 2.4h7.7425q2.4 0 2.4-2.4v-33.808q0-2.4-2.4-2.4h-7.7425q-2.4 0-2.4 2.4z" clip-path="url(#a)" fill="#fff" stroke="#fff"/>
<g clip-path="url(#a)">
<g transform="translate(468.1 513.68) rotate(90) scale(.08 -.08)">
<use xlink:href="#l"/>
<use x="44.083984" xlink:href="#f"/>
<use x="105.607422" xlink:href="#k"/>
<use x="144.970703" xlink:href="#h"/>
<use x="242.382812" xlink:href="#g"/>
<use x="270.166016" xlink:href="#i"/>
<use x="333.544922" xlink:href="#e"/>
<use x="394.824219" xlink:href="#j"/>
</g>
</g>
<path d="m521.11 513.68v33.808q0 2.4 2.4 2.4h7.7425q2.4 0 2.4-2.4v-33.808q0-2.4-2.4-2.4h-7.7425q-2.4 0-2.4 2.4z" clip-path="url(#a)" fill="#fff" stroke="#fff"/>
<g clip-path="url(#a)">
<g transform="translate(525.17 513.68) rotate(90) scale(.08 -.08)">
<use xlink:href="#l"/>
<use x="44.083984" xlink:href="#f"/>
<use x="105.607422" xlink:href="#k"/>
<use x="144.970703" xlink:href="#h"/>
<use x="242.382812" xlink:href="#g"/>
<use x="270.166016" xlink:href="#i"/>
<use x="333.544922" xlink:href="#e"/>
<use x="394.824219" xlink:href="#j"/>
</g>
</g>
<path d="m337.73 419.88 2.0357 5.0798q0.89277 2.2278 3.1205 1.335l7.1869-2.8801q2.2278-0.89277 1.335-3.1205l-2.0357-5.0798q-0.89277-2.2278-3.1205-1.335l-7.1869 2.8801q-2.2278 0.89277-1.335 3.1205z" clip-path="url(#a)" fill="#fff" stroke="#fff"/>
<g clip-path="url(#a)">
<g transform="translate(341.5 418.37) rotate(68.162) scale(.08 -.08)">
<use xlink:href="#o"/>
</g>
</g>
<path d="m303.46 428.62 4.9274-12.296q0.89277-2.2278-1.335-3.1205l-7.4259-2.9759q-2.2278-0.89277-3.1205 1.335l-4.9274 12.296q-0.89277 2.2278 1.335 3.1205l7.4259 2.9759q2.2278 0.89277 3.1205-1.335z" clip-path="url(#a)" fill="#fff" stroke="#fff"/>
<g clip-path="url(#a)">
<g transform="translate(299.48 427.02) rotate(-68.162) scale(.08 -.08)">
<defs>
<path id="ao" d="m21 76.422v-100h-8.2969v100z"/>
</defs>
<use xlink:href="#v"/>
<use x="63.476562" xlink:href="#ao"/>
<use x="97.167969" xlink:href="#o"/>
</g>
</g>
<path d="m348.57 418.69 1.1164 5.3574q0.48961 2.3495 2.8391 1.8599l7.5797-1.5795q2.3495-0.48961 1.8599-2.8391l-1.1164-5.3574q-0.48961-2.3495-2.8391-1.8599l-7.5797 1.5795q-2.3495 0.48961-1.8599 2.8391z" clip-path="url(#a)" fill="#fff" stroke="#fff"/>
<g clip-path="url(#a)">
<g transform="translate(352.55 417.86) rotate(78.229) scale(.08 -.08)">
<use xlink:href="#o"/>
</g>
</g>
<path d="m337.71 423.85 1.0361-4.9719q0.48961-2.3495-1.8599-2.8391l-7.5797-1.5795q-2.3495-0.48961-2.8391 1.8599l-1.0361 4.9719q-0.48961 2.3495 1.8599 2.8391l7.5797 1.5795q2.3495 0.48961 2.8391-1.8599z" clip-path="url(#a)" fill="#fff" stroke="#fff"/>
<g clip-path="url(#a)">
<g transform="translate(333.73 423.03) rotate(-78.229) scale(.08 -.08)">
<use xlink:href="#v"/>
</g>
</g>
<path d="m360.59 513.68v33.808q0 2.4 2.4 2.4h7.7425q2.4 0 2.4-2.4v-33.808q0-2.4-2.4-2.4h-7.7425q-2.4 0-2.4 2.4z" clip-path="url(#a)" fill="#fff" stroke="#fff"/>
<g clip-path="url(#a)">
<g transform="translate(364.66 513.68) rotate(90) scale(.08 -.08)">
<use xlink:href="#l"/>
<use x="44.083984" xlink:href="#f"/>
<use x="105.607422" xlink:href="#k"/>
<use x="144.970703" xlink:href="#h"/>
<use x="242.382812" xlink:href="#g"/>
<use x="270.166016" xlink:href="#i"/>
<use x="333.544922" xlink:href="#e"/>
<use x="394.824219" xlink:href="#j"/>
</g>
</g>
<path d="m314.22 513.68v33.808q0 2.4 2.4 2.4h7.7425q2.4 0 2.4-2.4v-33.808q0-2.4-2.4-2.4h-7.7425q-2.4 0-2.4 2.4z" clip-path="url(#a)" fill="#fff" stroke="#fff"/>
<g clip-path="url(#a)">
<g transform="translate(318.29 513.68) rotate(90) scale(.08 -.08)">
<use xlink:href="#l"/>
<use x="44.083984" xlink:href="#f"/>
<use x="105.607422" xlink:href="#k"/>
<use x="144.970703" xlink:href="#h"/>
<use x="242.382812" xlink:href="#g"/>
<use x="270.166016" xlink:href="#i"/>
<use x="333.544922" xlink:href="#e"/>
<use x="394.824219" xlink:href="#j"/>
</g>
</g>
<path d="m271.42 513.68v33.808q0 2.4 2.4 2.4h7.7425q2.4 0 2.4-2.4v-33.808q0-2.4-2.4-2.4h-7.7425q-2.4 0-2.4 2.4z" clip-path="url(#a)" fill="#fff" stroke="#fff"/>
<g clip-path="url(#a)">
<g transform="translate(275.48 513.68) rotate(90) scale(.08 -.08)">
<use xlink:href="#l"/>
<use x="44.083984" xlink:href="#f"/>
<use x="105.607422" xlink:href="#k"/>
<use x="144.970703" xlink:href="#h"/>
<use x="242.382812" xlink:href="#g"/>
<use x="270.166016" xlink:href="#i"/>
<use x="333.544922" xlink:href="#e"/>
<use x="394.824219" xlink:href="#j"/>
</g>
</g>
<path d="m46.698 513.68v33.808q0 2.4 2.4 2.4h7.7425q2.4 0 2.4-2.4v-33.808q0-2.4-2.4-2.4h-7.7425q-2.4 0-2.4 2.4z" clip-path="url(#a)" fill="#fff" stroke="#fff"/>
<g clip-path="url(#a)">
<g transform="translate(50.762 513.68) rotate(90) scale(.08 -.08)">
<use xlink:href="#l"/>
<use x="44.083984" xlink:href="#f"/>
<use x="105.607422" xlink:href="#k"/>
<use x="144.970703" xlink:href="#h"/>
<use x="242.382812" xlink:href="#g"/>
<use x="270.166016" xlink:href="#i"/>
<use x="333.544922" xlink:href="#e"/>
<use x="394.824219" xlink:href="#j"/>
</g>
</g>
<path d="m57.399 513.68v33.808q0 2.4 2.4 2.4h7.7425q2.4 0 2.4-2.4v-33.808q0-2.4-2.4-2.4h-7.7425q-2.4 0-2.4 2.4z" clip-path="url(#a)" fill="#fff" stroke="#fff"/>
<g clip-path="url(#a)">
<g transform="translate(61.463 513.68) rotate(90) scale(.08 -.08)">
<use xlink:href="#l"/>
<use x="44.083984" xlink:href="#f"/>
<use x="105.607422" xlink:href="#k"/>
<use x="144.970703" xlink:href="#h"/>
<use x="242.382812" xlink:href="#g"/>
<use x="270.166016" xlink:href="#i"/>
<use x="333.544922" xlink:href="#e"/>
<use x="394.824219" xlink:href="#j"/>
</g>
</g>
<path d="m88.465 422.88 0.36761-4.5865q0.19174-2.3923-2.2006-2.5841l-7.7178-0.61857q-2.3923-0.19174-2.5841 2.2006l-0.3676 4.5865q-0.19174 2.3923 2.2006 2.5841l7.7178 0.61857q2.3923 0.19174 2.5841-2.2006z" clip-path="url(#a)" fill="#fff" stroke="#fff"/>
<g clip-path="url(#a)">
<g transform="translate(84.414 422.56) rotate(-85.418) scale(.08 -.08)">
<use xlink:href="#ag"/>
</g>
</g>
<path d="m84.84 417.81 0.4463 5.5684q0.19174 2.3923 2.5841 2.2006l7.7178-0.61857q2.3923-0.19174 2.2006-2.5841l-0.4463-5.5684q-0.19174-2.3923-2.5841-2.2006l-7.7178 0.61857q-2.3923 0.19174-2.2006 2.5841z" clip-path="url(#a)" fill="#fff" stroke="#fff"/>
<g clip-path="url(#a)">
<g transform="translate(88.891 417.48) rotate(85.418) scale(.08 -.08)">
<use xlink:href="#s"/>
</g>
</g>
<path d="m132.72 423.67 0.87779-4.9782q0.41676-2.3635-1.9468-2.7803l-7.6249-1.3445q-2.3635-0.41676-2.7803 1.9468l-0.87779 4.9782q-0.41676 2.3635 1.9468 2.7803l7.6249 1.3445q2.3635 0.41676 2.7803-1.9468z" clip-path="url(#a)" fill="#fff" stroke="#fff"/>
<g clip-path="url(#a)">
<g transform="translate(128.72 422.96) rotate(-80) scale(.08 -.08)">
<use xlink:href="#r"/>
</g>
</g>
<path d="m139.94 418.43 0.97004 5.5014q0.41676 2.3635 2.7803 1.9468l7.6249-1.3445q2.3635-0.41676 1.9468-2.7803l-0.97004-5.5014q-0.41676-2.3635-2.7803-1.9468l-7.6249 1.3445q-2.3635 0.41676-1.9468 2.7803z" clip-path="url(#a)" fill="#fff" stroke="#fff"/>
<g clip-path="url(#a)">
<g transform="translate(143.94 417.72) rotate(80) scale(.08 -.08)">
<use xlink:href="#s"/>
</g>
</g>
<path d="m110.9 513.68v33.808q0 2.4 2.4 2.4h7.7425q2.4 0 2.4-2.4v-33.808q0-2.4-2.4-2.4h-7.7425q-2.4 0-2.4 2.4z" clip-path="url(#a)" fill="#fff" stroke="#fff"/>
<g clip-path="url(#a)">
<g transform="translate(114.97 513.68) rotate(90) scale(.08 -.08)">
<use xlink:href="#l"/>
<use x="44.083984" xlink:href="#f"/>
<use x="105.607422" xlink:href="#k"/>
<use x="144.970703" xlink:href="#h"/>
<use x="242.382812" xlink:href="#g"/>
<use x="270.166016" xlink:href="#i"/>
<use x="333.544922" xlink:href="#e"/>
<use x="394.824219" xlink:href="#j"/>
</g>
</g>
<path d="m153.32 548.16 4.359-33.525q0.30945-2.38-2.0705-2.6894l-7.6779-0.99829q-2.38-0.30945-2.6894 2.0705l-4.359 33.525q-0.30945 2.38 2.0705 2.6894l7.6779 0.99829q2.38 0.30945 2.6894-2.0705z" clip-path="url(#a)" fill="#fff" stroke="#fff"/>
<g clip-path="url(#a)">
<g transform="translate(149.29 547.63) rotate(-82.592) scale(.08 -.08)">
<use xlink:href="#l"/>
<use x="44.083984" xlink:href="#f"/>
<use x="105.607422" xlink:href="#k"/>
<use x="144.970703" xlink:href="#h"/>
<use x="242.382812" xlink:href="#g"/>
<use x="270.166016" xlink:href="#i"/>
<use x="333.544922" xlink:href="#e"/>
<use x="394.824219" xlink:href="#j"/>
</g>
</g>
<path d="m155.15 514.63 4.359 33.525q0.30945 2.38 2.6894 2.0705l7.6779-0.99829q2.38-0.30945 2.0705-2.6894l-4.359-33.525q-0.30945-2.38-2.6894-2.0705l-7.6779 0.99829q-2.38 0.30945-2.0705 2.6894z" clip-path="url(#a)" fill="#fff" stroke="#fff"/>
<g clip-path="url(#a)">
<g transform="translate(159.18 514.11) rotate(82.592) scale(.08 -.08)">
<use xlink:href="#l"/>
<use x="44.083984" xlink:href="#f"/>
<use x="105.607422" xlink:href="#k"/>
<use x="144.970703" xlink:href="#h"/>
<use x="242.382812" xlink:href="#g"/>
<use x="270.166016" xlink:href="#i"/>
<use x="333.544922" xlink:href="#e"/>
<use x="394.824219" xlink:href="#j"/>
</g>
</g>
<path d="m71.667 513.68v33.808q0 2.4 2.4 2.4h7.7425q2.4 0 2.4-2.4v-33.808q0-2.4-2.4-2.4h-7.7425q-2.4 0-2.4 2.4z" clip-path="url(#a)" fill="#fff" stroke="#fff"/>
<g clip-path="url(#a)">
<g transform="translate(75.731 513.68) rotate(90) scale(.08 -.08)">
<use xlink:href="#l"/>
<use x="44.083984" xlink:href="#f"/>
<use x="105.607422" xlink:href="#k"/>
<use x="144.970703" xlink:href="#h"/>
<use x="242.382812" xlink:href="#g"/>
<use x="270.166016" xlink:href="#i"/>
<use x="333.544922" xlink:href="#e"/>
<use x="394.824219" xlink:href="#j"/>
</g>
</g>
<path d="m89.502 513.68v33.808q0 2.4 2.4 2.4h7.7425q2.4 0 2.4-2.4v-33.808q0-2.4-2.4-2.4h-7.7425q-2.4 0-2.4 2.4z" clip-path="url(#a)" fill="#fff" stroke="#fff"/>
<g clip-path="url(#a)">
<g transform="translate(93.566 513.68) rotate(90) scale(.08 -.08)">
<use xlink:href="#l"/>
<use x="44.083984" xlink:href="#f"/>
<use x="105.607422" xlink:href="#k"/>
<use x="144.970703" xlink:href="#h"/>
<use x="242.382812" xlink:href="#g"/>
<use x="270.166016" xlink:href="#i"/>
<use x="333.544922" xlink:href="#e"/>
<use x="394.824219" xlink:href="#j"/>
</g>
</g>
<path d="m581.75 513.68v33.808q0 2.4 2.4 2.4h7.7425q2.4 0 2.4-2.4v-33.808q0-2.4-2.4-2.4h-7.7425q-2.4 0-2.4 2.4z" clip-path="url(#a)" fill="#fff" stroke="#fff"/>
<g clip-path="url(#a)">
<g transform="translate(585.81 513.68) rotate(90) scale(.08 -.08)">
<use xlink:href="#l"/>
<use x="44.083984" xlink:href="#f"/>
<use x="105.607422" xlink:href="#k"/>
<use x="144.970703" xlink:href="#h"/>
<use x="242.382812" xlink:href="#g"/>
<use x="270.166016" xlink:href="#i"/>
<use x="333.544922" xlink:href="#e"/>
<use x="394.824219" xlink:href="#j"/>
</g>
</g>
<path d="m1106.1 513.68v33.808q0 2.4 2.4 2.4h7.7425q2.4 0 2.4-2.4v-33.808q0-2.4-2.4-2.4h-7.7425q-2.4 0-2.4 2.4z" clip-path="url(#a)" fill="#fff" stroke="#fff"/>
<g clip-path="url(#a)">
<g transform="translate(1110.2 513.68) rotate(90) scale(.08 -.08)">
<use xlink:href="#l"/>
<use x="44.083984" xlink:href="#f"/>
<use x="105.607422" xlink:href="#k"/>
<use x="144.970703" xlink:href="#h"/>
<use x="242.382812" xlink:href="#g"/>
<use x="270.166016" xlink:href="#i"/>
<use x="333.544922" xlink:href="#e"/>
<use x="394.824219" xlink:href="#j"/>
</g>
</g>
<defs>
<path id="b" d="m0 8.6603c2.2967 0 4.4997-0.9125 6.1237-2.5365 1.624-1.624 2.5365-3.827 2.5365-6.1237s-0.9125-4.4997-2.5365-6.1237c-1.624-1.624-3.827-2.5365-6.1237-2.5365s-4.4997 0.9125-6.1237 2.5365c-1.624 1.624-2.5365 3.827-2.5365 6.1237s0.9125 4.4997 2.5365 6.1237c1.624 1.624 3.827 2.5365 6.1237 2.5365z"/>
</defs>
<g clip-path="url(#a)" fill="#ffffff" stroke="#ffffff">
<use x="52.969697" y="585.454545" xlink:href="#b"/>
<use x="63.670646" y="585.454545" xlink:href="#b"/>
<use x="77.938578" y="585.454545" xlink:href="#b"/>
<use x="95.773493" y="585.454545" xlink:href="#b"/>
<use x="117.17539" y="585.454545" xlink:href="#b"/>
<use x="142.144271" y="585.454545" xlink:href="#b"/>
<use x="170.680135" y="585.454545" xlink:href="#b"/>
<use x="202.782981" y="585.454545" xlink:href="#b"/>
<use x="238.452811" y="585.454545" xlink:href="#b"/>
<use x="277.689624" y="585.454545" xlink:href="#b"/>
<use x="320.493419" y="585.454545" xlink:href="#b"/>
<use x="366.864198" y="585.454545" xlink:href="#b"/>
<use x="416.801959" y="585.454545" xlink:href="#b"/>
<use x="470.306703" y="585.454545" xlink:href="#b"/>
<use x="527.378431" y="585.454545" xlink:href="#b"/>
<use x="588.017141" y="585.454545" xlink:href="#b"/>
<use x="652.222834" y="585.454545" xlink:href="#b"/>
<use x="719.995511" y="585.454545" xlink:href="#b"/>
<use x="791.33517" y="585.454545" xlink:href="#b"/>
<use x="866.241812" y="585.454545" xlink:href="#b"/>
<use x="944.715437" y="585.454545" xlink:href="#b"/>
<use x="1026.756045" y="585.454545" xlink:href="#b"/>
<use x="1112.363636" y="585.454545" xlink:href="#b"/>
<use x="554.343123" y="27.878788" xlink:href="#b"/>
<use x="85.072544" y="252.613677" xlink:href="#b"/>
<use x="202.782981" y="475.719795" xlink:href="#b"/>
<use x="276.797878" y="140.388185" xlink:href="#b"/>
<use x="781.228718" y="252.613677" xlink:href="#b"/>
<use x="944.715437" y="475.719795" xlink:href="#b"/>
<use x="1001.787165" y="364.458514" xlink:href="#b"/>
<use x="1026.756045" y="475.719795" xlink:href="#b"/>
<use x="686.109173" y="364.458514" xlink:href="#b"/>
<use x="791.33517" y="475.719795" xlink:href="#b"/>
<use x="866.241812" y="475.719795" xlink:href="#b"/>
<use x="652.222834" y="475.719795" xlink:href="#b"/>
<use x="719.995511" y="475.719795" xlink:href="#b"/>
<use x="238.452811" y="475.719795" xlink:href="#b"/>
<use x="344.273305" y="252.613677" xlink:href="#b"/>
<use x="471.495698" y="364.458514" xlink:href="#b"/>
<use x="416.801959" y="475.719795" xlink:href="#b"/>
<use x="470.306703" y="475.719795" xlink:href="#b"/>
<use x="527.378431" y="475.719795" xlink:href="#b"/>
<use x="322.276911" y="364.458514" xlink:href="#b"/>
<use x="343.678808" y="364.458514" xlink:href="#b"/>
<use x="366.864198" y="475.719795" xlink:href="#b"/>
<use x="320.493419" y="475.719795" xlink:href="#b"/>
<use x="277.689624" y="475.719795" xlink:href="#b"/>
<use x="52.969697" y="475.719795" xlink:href="#b"/>
<use x="63.670646" y="475.719795" xlink:href="#b"/>
<use x="86.856035" y="364.458514" xlink:href="#b"/>
<use x="136.793797" y="364.458514" xlink:href="#b"/>
<use x="117.17539" y="475.719795" xlink:href="#b"/>
<use x="156.412203" y="475.719795" xlink:href="#b"/>
<use x="77.938578" y="475.719795" xlink:href="#b"/>
<use x="95.773493" y="475.719795" xlink:href="#b"/>
<use x="588.017141" y="475.719795" xlink:href="#b"/>
<use x="1112.363636" y="475.719795" xlink:href="#b"/>
</g>
<g clip-path="url(#a)">
<g transform="translate(51.495 588.21) scale(.1 -.1)">
<defs>
<path id="am" d="m9.8125 72.906h9.8594v-72.906h-9.8594z"/>
</defs>
<use xlink:href="#am"/>
</g>
</g>
<g clip-path="url(#a)">
<g transform="translate(43.418 588.21) scale(.1 -.1)">
<defs>
<path id="u" d="m48.781 52.594v-8.4062q-3.8125 2.1094-7.6406 3.1562t-7.7344 1.0469q-8.75 0-13.594-5.5469-4.8281-5.5312-4.8281-15.547t4.8281-15.562q4.8438-5.5312 13.594-5.5312 3.9062 0 7.7344 1.0469t7.6406 3.1562v-8.3125q-3.7656-1.75-7.7969-2.625-4.0156-0.89062-8.5625-0.89062-12.359 0-19.641 7.7656-7.2656 7.7656-7.2656 20.953 0 13.375 7.3438 21.031 7.3594 7.6719 20.156 7.6719 4.1406 0 8.0938-0.85938 3.9531-0.84375 7.6719-2.5469z"/>
<path id="t" d="m54.891 33.016v-33.016h-8.9844v32.719q0 7.7656-3.0312 11.609-3.0312 3.8594-9.0781 3.8594-7.2812 0-11.484-4.6406-4.2031-4.625-4.2031-12.641v-30.906h-9.0312v75.984h9.0312v-29.797q3.2344 4.9375 7.5938 7.375 4.375 2.4375 10.094 2.4375 9.4219 0 14.25-5.8281 4.8438-5.8281 4.8438-17.156z"/>
<path id="as" d="m45.406 46.391v29.594h8.9844v-75.984h-8.9844v8.2031q-2.8281-4.875-7.1562-7.25-4.3125-2.375-10.375-2.375-9.9062 0-16.141 7.9062-6.2188 7.9219-6.2188 20.812t6.2188 20.797q6.2344 7.9062 16.141 7.9062 6.0625 0 10.375-2.375 4.3281-2.3594 7.1562-7.2344zm-30.609-19.094q0-9.9062 4.0781-15.547t11.203-5.6406 11.219 5.6406q4.1094 5.6406 4.1094 15.547t-4.1094 15.547q-4.0938 5.6406-11.219 5.6406t-11.203-5.6406-4.0781-15.547z"/>
</defs>
<use xlink:href="#k"/>
<use x="38.863281" xlink:href="#f"/>
<use x="100.386719" xlink:href="#e"/>
<use x="161.666016" xlink:href="#u"/>
<use x="216.646484" xlink:href="#t"/>
<use x="280.025391" xlink:href="#f"/>
<use x="341.548828" xlink:href="#as"/>
</g>
</g>
<g clip-path="url(#a)">
<g transform="translate(69.733 588.21) scale(.1 -.1)">
<defs>
<path id="p" d="m18.312 70.219v-15.531h18.5v-6.9844h-18.5v-29.688q0-6.6875 1.8281-8.5938t7.4531-1.9062h9.2188v-7.5156h-9.2188q-10.406 0-14.359 3.875-3.9531 3.8906-3.9531 14.141v29.688h-6.5938v6.9844h6.5938v15.531z"/>
</defs>
<use xlink:href="#p"/>
<use x="39.208984" xlink:href="#t"/>
<use x="102.587891" xlink:href="#f"/>
</g>
</g>
<g clip-path="url(#a)">
<g transform="translate(85.842 588.21) scale(.1 -.1)">
<defs>
<path id="aa" d="m4.2031 54.688h8.9844l11.234-42.672 11.172 42.672h10.594l11.234-42.672 11.188 42.672h8.9844l-14.312-54.688h-10.594l-11.766 44.828-11.812-44.828h-10.609z"/>
</defs>
<use xlink:href="#aa"/>
<use x="81.787109" xlink:href="#e"/>
<use x="143.066406" xlink:href="#j"/>
<use x="170.849609" xlink:href="#j"/>
</g>
</g>
<g clip-path="url(#a)">
<g transform="translate(108.05 588.21) scale(.1 -.1)">
<defs>
<path id="aq" d="m9.4219 54.688h8.9844v-55.672q0-10.438-3.9844-15.125-3.9688-4.6875-12.812-4.6875h-3.4219v7.6094h2.4062q5.125 0 6.9688 2.375 1.8594 2.3594 1.8594 9.8281zm0 21.297h8.9844v-11.391h-8.9844z"/>
<path id="ap" d="m8.5 21.578v33.109h8.9844v-32.766q0-7.7656 3.0156-11.656 3.0312-3.875 9.0938-3.875 7.2656 0 11.484 4.6406 4.2344 4.6406 4.2344 12.656v31h8.9844v-54.688h-8.9844v8.4062q-3.2656-4.9844-7.5938-7.4062-4.3125-2.4219-10.031-2.4219-9.4219 0-14.312 5.8594-4.875 5.8594-4.875 17.141z"/>
<path id="q" d="m44.281 53.078v-8.5q-3.7969 1.9531-7.9062 2.9219-4.0938 0.98438-8.5 0.98438-6.6875 0-10.031-2.0469t-3.3438-6.1562q0-3.125 2.3906-4.9062t9.625-3.3906l3.0781-0.6875q9.5625-2.0469 13.594-5.7812t4.0312-10.422q0-7.625-6.0312-12.078-6.0312-4.4375-16.578-4.4375-4.3906 0-9.1562 0.85938t-10.031 2.5625v9.2812q4.9844-2.5938 9.8125-3.8906 4.8281-1.2812 9.5781-1.2812 6.3438 0 9.75 2.1719 3.4219 2.1719 3.4219 6.125 0 3.6562-2.4688 5.6094-2.4531 1.9531-10.812 3.7656l-3.125 0.73438q-8.3438 1.75-12.062 5.3906-3.7031 3.6406-3.7031 9.9844 0 7.7188 5.4688 11.906 5.4688 4.2031 15.531 4.2031 4.9688 0 9.3594-0.73438 4.4062-0.71875 8.1094-2.1875z"/>
</defs>
<use xlink:href="#aq"/>
<use x="27.783203" xlink:href="#ap"/>
<use x="91.162109" xlink:href="#q"/>
<use x="143.261719" xlink:href="#p"/>
</g>
</g>
<g clip-path="url(#a)">
<g transform="translate(137.59 588.21) scale(.1 -.1)">
<use xlink:href="#g"/>
<use x="27.783203" xlink:href="#i"/>
</g>
</g>
<g clip-path="url(#a)">
<g transform="translate(159.38 588.21) scale(.1 -.1)">
<use xlink:href="#p"/>
<use x="39.208984" xlink:href="#g"/>
<use x="66.992188" xlink:href="#h"/>
<use x="164.404297" xlink:href="#f"/>
</g>
</g>
<g clip-path="url(#a)">
<g transform="translate(197.76 588.21) scale(.1 -.1)">
<defs>
<path id="ak" d="m30.609 48.391q-7.2188 0-11.422-5.6406t-4.2031-15.453 4.1719-15.453q4.1875-5.6406 11.453-5.6406 7.1875 0 11.375 5.6562 4.2031 5.6719 4.2031 15.438 0 9.7188-4.2031 15.406-4.1875 5.6875-11.375 5.6875zm0 7.6094q11.719 0 18.406-7.625 6.7031-7.6094 6.7031-21.078 0-13.422-6.7031-21.078-6.6875-7.6406-18.406-7.6406-11.766 0-18.438 7.6406-6.6562 7.6562-6.6562 21.078 0 13.469 6.6562 21.078 6.6719 7.625 18.438 7.625z"/>
</defs>
<use xlink:href="#p"/>
<use x="39.208984" xlink:href="#ak"/>
</g>
</g>
<g clip-path="url(#a)">
<g transform="translate(224.76 588.21) scale(.1 -.1)">
<use xlink:href="#u"/>
<use x="54.980469" xlink:href="#e"/>
<use x="116.259766" xlink:href="#p"/>
<use x="155.46875" xlink:href="#u"/>
<use x="210.449219" xlink:href="#t"/>
</g>
</g>
<g clip-path="url(#a)">
<g transform="translate(269.86 588.21) scale(.1 -.1)">
<defs>
<path id="aj" d="m32.172-5.0781q-3.7969-9.7656-7.4219-12.734-3.6094-2.9844-9.6562-2.9844h-7.1875v7.5156h5.2812q3.7031 0 5.75 1.7656 2.0625 1.75 4.5469 8.2969l1.6094 4.0938-22.109 53.812h9.5156l17.094-42.766 17.094 42.766h9.5156z"/>
</defs>
<use xlink:href="#h"/>
<use x="97.412109" xlink:href="#aj"/>
</g>
</g>
<g clip-path="url(#a)">
<g transform="translate(309.33 588.21) scale(.1 -.1)">
<use xlink:href="#j"/>
<use x="27.783203" xlink:href="#g"/>
<use x="55.566406" xlink:href="#p"/>
<use x="94.775391" xlink:href="#p"/>
<use x="133.984375" xlink:href="#j"/>
<use x="161.767578" xlink:href="#f"/>
</g>
</g>
<g clip-path="url(#a)">
<g transform="translate(355.76 588.21) scale(.1 -.1)">
<use xlink:href="#h"/>
<use x="97.412109" xlink:href="#e"/>
<use x="158.691406" xlink:href="#i"/>
</g>
</g>
<g clip-path="url(#a)">
<g transform="translate(412.24 588.21) scale(.1 -.1)">
<use xlink:href="#g"/>
<use x="27.783203" xlink:href="#i"/>
</g>
</g>
<g clip-path="url(#a)">
<g transform="translate(462.48 588.21) scale(.1 -.1)">
<use xlink:href="#h"/>
<use x="97.412109" xlink:href="#aj"/>
</g>
</g>
<g clip-path="url(#a)">
<g transform="translate(514.87 588.21) scale(.1 -.1)">
<use xlink:href="#e"/>
<use x="61.279297" xlink:href="#k"/>
<use x="100.642578" xlink:href="#h"/>
<use x="198.054688" xlink:href="#q"/>
</g>
</g>
<g clip-path="url(#a)">
<g transform="translate(586.33 588.21) scale(.1 -.1)">
<defs>
<path id="an" d="m11.719 51.703h10.297v-12.391h-10.297zm0-39.297h10.297v-8.4062l-8-15.625h-6.2969l4 15.625z"/>
</defs>
<use xlink:href="#an"/>
</g>
</g>
<g clip-path="url(#a)">
<g transform="translate(645.06 588.21) scale(.1 -.1)">
<use xlink:href="#t"/>
<use x="63.378906" xlink:href="#g"/>
<use x="91.162109" xlink:href="#q"/>
</g>
</g>
<g clip-path="url(#a)">
<g transform="translate(709.35 588.21) scale(.1 -.1)">
<defs>
<path id="ar" d="m37.109 75.984v-7.4844h-8.5938q-4.8281 0-6.7188-1.9531-1.875-1.9531-1.875-7.0312v-4.8281h14.797v-6.9844h-14.797v-47.703h-9.0312v47.703h-8.5938v6.9844h8.5938v3.8125q0 9.125 4.25 13.297 4.25 4.1875 13.469 4.1875z"/>
</defs>
<use xlink:href="#ar"/>
<use x="35.205078" xlink:href="#e"/>
<use x="96.484375" xlink:href="#u"/>
<use x="151.464844" xlink:href="#f"/>
</g>
</g>
<g clip-path="url(#a)">
<g transform="translate(781.58 588.21) scale(.1 -.1)">
<use xlink:href="#aa"/>
<use x="81.787109" xlink:href="#e"/>
<use x="143.066406" xlink:href="#q"/>
</g>
</g>
<g clip-path="url(#a)">
<g transform="translate(852.56 588.21) scale(.1 -.1)">
<use xlink:href="#aa"/>
<use x="81.787109" xlink:href="#t"/>
<use x="145.166016" xlink:href="#g"/>
<use x="172.949219" xlink:href="#p"/>
<use x="212.158203" xlink:href="#f"/>
</g>
</g>
<g clip-path="url(#a)">
<g transform="translate(939.05 588.21) scale(.1 -.1)">
<use xlink:href="#e"/>
<use x="61.279297" xlink:href="#q"/>
</g>
</g>
<g clip-path="url(#a)">
<g transform="translate(1013.8 588.21) scale(.1 -.1)">
<use xlink:href="#q"/>
<use x="52.099609" xlink:href="#i"/>
<use x="115.478516" xlink:href="#ak"/>
<use x="176.660156" xlink:href="#aa"/>
</g>
</g>
<g clip-path="url(#a)">
<g transform="translate(1110.8 588.21) scale(.1 -.1)">
<defs>
<path id="d" d="m10.688 12.406h10.312v-12.406h-10.312z"/>
</defs>
<use xlink:href="#d"/>
</g>
</g>
<g clip-path="url(#a)">
<g transform="translate(546.39 30.638) scale(.1 -.1)">
<defs>
<path id="c" d="m12.406 8.2969h16.109v55.625l-17.531-3.5156v8.9844l17.438 3.5156h9.8594v-64.609h16.109v-8.2969h-41.984z"/>
</defs>
<use xlink:href="#c"/>
<use x="63.623047" xlink:href="#d"/>
<use x="95.410156" xlink:href="#c"/>
</g>
</g>
<g clip-path="url(#a)">
<g transform="translate(77.121 255.37) scale(.1 -.1)">
<defs>
<path id="m" d="m19.188 8.2969h34.422v-8.2969h-46.281v8.2969q5.6094 5.8125 15.297 15.594 9.7031 9.7969 12.188 12.641 4.7344 5.3125 6.6094 9 1.8906 3.6875 1.8906 7.25 0 5.8125-4.0781 9.4688-4.0781 3.6719-10.625 3.6719-4.6406 0-9.7969-1.6094-5.1406-1.6094-11-4.8906v9.9688q5.9531 2.3906 11.125 3.6094 5.1875 1.2188 9.4844 1.2188 11.328 0 18.062-5.6719 6.7344-5.6562 6.7344-15.125 0-4.5-1.6875-8.5312-1.6719-4.0156-6.125-9.4844-1.2188-1.4219-7.7656-8.1875-6.5312-6.7656-18.453-18.922z"/>
</defs>
<use xlink:href="#c"/>
<use x="63.623047" xlink:href="#d"/>
<use x="95.410156" xlink:href="#m"/>
</g>
</g>
<g clip-path="url(#a)">
<g transform="translate(194.83 478.48) scale(.1 -.1)">
<defs>
<path id="n" d="m40.578 39.312q7.0781-1.5156 11.047-6.3125 3.9844-4.7812 3.9844-11.812 0-10.781-7.4219-16.703-7.4219-5.9062-21.094-5.9062-4.5781 0-9.4375 0.90625t-10.031 2.7188v9.5156q4.0938-2.3906 8.9688-3.6094 4.8906-1.2188 10.219-1.2188 9.2656 0 14.125 3.6562t4.8594 10.641q0 6.4531-4.5156 10.078-4.5156 3.6406-12.562 3.6406h-8.5v8.1094h8.8906q7.2656 0 11.125 2.9062t3.8594 8.375q0 5.6094-3.9844 8.6094-3.9688 3.0156-11.391 3.0156-4.0625 0-8.7031-0.89062-4.6406-0.875-10.203-2.7188v8.7812q5.625 1.5625 10.531 2.3438t9.25 0.78125q11.234 0 17.766-5.1094 6.5469-5.0938 6.5469-13.781 0-6.0625-3.4688-10.234t-9.8594-5.7812z"/>
</defs>
<use xlink:href="#c"/>
<use x="63.623047" xlink:href="#d"/>
<use x="95.410156" xlink:href="#n"/>
</g>
</g>
<g clip-path="url(#a)">
<g transform="translate(268.85 143.15) scale(.1 -.1)">
<defs>
<path id="z" d="m37.797 64.312-24.906-38.922h24.906zm-2.5938 8.5938h12.406v-47.516h10.406v-8.2031h-10.406v-17.188h-9.8125v17.188h-32.906v9.5156z"/>
</defs>
<use xlink:href="#c"/>
<use x="63.623047" xlink:href="#d"/>
<use x="95.410156" xlink:href="#z"/>
</g>
</g>
<g clip-path="url(#a)">
<g transform="translate(773.28 255.37) scale(.1 -.1)">
<defs>
<path id="y" d="m10.797 72.906h38.719v-8.3125h-29.688v-17.859q2.1406 0.73438 4.2812 1.0938 2.1562 0.35938 4.3125 0.35938 12.203 0 19.328-6.6875 7.1406-6.6875 7.1406-18.109 0-11.766-7.3281-18.297-7.3281-6.5156-20.656-6.5156-4.5938 0-9.3594 0.78125-4.75 0.78125-9.8281 2.3438v9.9219q4.3906-2.3906 9.0781-3.5625t9.9062-1.1719q8.4531 0 13.375 4.4375 4.9375 4.4375 4.9375 12.062 0 7.6094-4.9375 12.047-4.9219 4.4531-13.375 4.4531-3.9531 0-7.8906-0.875-3.9219-0.875-8.0156-2.7344z"/>
</defs>
<use xlink:href="#c"/>
<use x="63.623047" xlink:href="#d"/>
<use x="95.410156" xlink:href="#y"/>
</g>
</g>
<g clip-path="url(#a)">
<g transform="translate(936.76 478.48) scale(.1 -.1)">
<defs>
<path id="x" d="m33.016 40.375q-6.6406 0-10.531-4.5469-3.875-4.5312-3.875-12.438 0-7.8594 3.875-12.438 3.8906-4.5625 10.531-4.5625t10.516 4.5625q3.875 4.5781 3.875 12.438 0 7.9062-3.875 12.438-3.875 4.5469-10.516 4.5469zm19.578 30.922v-8.9844q-3.7188 1.75-7.5 2.6719-3.7812 0.9375-7.5 0.9375-9.7656 0-14.922-6.5938-5.1406-6.5938-5.875-19.922 2.875 4.25 7.2188 6.5156 4.3594 2.2656 9.5781 2.2656 10.984 0 17.359-6.6719 6.375-6.6562 6.375-18.125 0-11.234-6.6406-18.031-6.6406-6.7812-17.672-6.7812-12.656 0-19.344 9.6875-6.6875 9.7031-6.6875 28.109 0 17.281 8.2031 27.562t22.016 10.281q3.7188 0 7.5-0.73438t7.8906-2.1875z"/>
</defs>
<use xlink:href="#c"/>
<use x="63.623047" xlink:href="#d"/>
<use x="95.410156" xlink:href="#x"/>
</g>
</g>
<g clip-path="url(#a)">
<g transform="translate(993.84 367.22) scale(.1 -.1)">
<defs>
<path id="ac" d="m8.2031 72.906h46.875v-4.2031l-26.469-68.703h-10.297l24.906 64.594h-35.016z"/>
</defs>
<use xlink:href="#c"/>
<use x="63.623047" xlink:href="#d"/>
<use x="95.410156" xlink:href="#ac"/>
</g>
</g>
<g clip-path="url(#a)">
<g transform="translate(1018.8 478.48) scale(.1 -.1)">
<defs>
<path id="ab" d="m10.984 1.5156v8.9844q3.7188-1.7656 7.5156-2.6875 3.8125-0.92188 7.4844-0.92188 9.7656 0 14.906 6.5625 5.1562 6.5625 5.8906 19.953-2.8281-4.2031-7.1875-6.4531-4.3438-2.25-9.6094-2.25-10.938 0-17.312 6.6094-6.375 6.625-6.375 18.109 0 11.219 6.6406 18 6.6406 6.7969 17.672 6.7969 12.656 0 19.312-9.7031 6.6719-9.6875 6.6719-28.141 0-17.234-8.1875-27.516-8.1719-10.281-21.984-10.281-3.7188 0-7.5312 0.73438-3.7969 0.73438-7.9062 2.2031zm19.625 30.906q6.6406 0 10.516 4.5312 3.8906 4.5469 3.8906 12.469 0 7.8594-3.8906 12.422-3.875 4.5625-10.516 4.5625t-10.516-4.5625-3.875-12.422q0-7.9219 3.875-12.469 3.875-4.5312 10.516-4.5312z"/>
</defs>
<use xlink:href="#c"/>
<use x="63.623047" xlink:href="#d"/>
<use x="95.410156" xlink:href="#ab"/>
</g>
</g>
<g clip-path="url(#a)">
<g transform="translate(674.98 367.22) scale(.1 -.1)">
<use xlink:href="#c"/>
<use x="63.623047" xlink:href="#d"/>
<use x="95.410156" xlink:href="#c"/>
<use x="159.033203" xlink:href="#c"/>
</g>
</g>
<g clip-path="url(#a)">
<g transform="translate(780.2 478.48) scale(.1 -.1)">
<use xlink:href="#c"/>
<use x="63.623047" xlink:href="#d"/>
<use x="95.410156" xlink:href="#c"/>
<use x="159.033203" xlink:href="#m"/>
</g>
</g>
<g clip-path="url(#a)">
<g transform="translate(855.11 478.48) scale(.1 -.1)">
<use xlink:href="#c"/>
<use x="63.623047" xlink:href="#d"/>
<use x="95.410156" xlink:href="#c"/>
<use x="159.033203" xlink:href="#n"/>
</g>
</g>
<g clip-path="url(#a)">
<g transform="translate(641.09 478.48) scale(.1 -.1)">
<use xlink:href="#c"/>
<use x="63.623047" xlink:href="#d"/>
<use x="95.410156" xlink:href="#c"/>
<use x="159.033203" xlink:href="#z"/>
</g>
</g>
<g clip-path="url(#a)">
<g transform="translate(708.86 478.48) scale(.1 -.1)">
<use xlink:href="#c"/>
<use x="63.623047" xlink:href="#d"/>
<use x="95.410156" xlink:href="#c"/>
<use x="159.033203" xlink:href="#y"/>
</g>
</g>
<g clip-path="url(#a)">
<g transform="translate(227.32 478.48) scale(.1 -.1)">
<use xlink:href="#c"/>
<use x="63.623047" xlink:href="#d"/>
<use x="95.410156" xlink:href="#c"/>
<use x="159.033203" xlink:href="#x"/>
</g>
</g>
<g clip-path="url(#a)">
<g transform="translate(333.14 255.37) scale(.1 -.1)">
<use xlink:href="#c"/>
<use x="63.623047" xlink:href="#d"/>
<use x="95.410156" xlink:href="#c"/>
<use x="159.033203" xlink:href="#ac"/>
</g>
</g>
<g clip-path="url(#a)">
<g transform="translate(460.36 367.22) scale(.1 -.1)">
<defs>
<path id="ah" d="m31.781 34.625q-7.0312 0-11.062-3.7656-4.0156-3.7656-4.0156-10.344 0-6.5938 4.0156-10.359 4.0312-3.7656 11.062-3.7656t11.078 3.7812q4.0625 3.7969 4.0625 10.344 0 6.5781-4.0312 10.344-4.0156 3.7656-11.109 3.7656zm-9.8594 4.1875q-6.3438 1.5625-9.8906 5.9062-3.5312 4.3594-3.5312 10.609 0 8.7344 6.2188 13.812 6.2344 5.0781 17.062 5.0781 10.891 0 17.094-5.0781t6.2031-13.812q0-6.25-3.5469-10.609-3.5312-4.3438-9.8281-5.9062 7.125-1.6562 11.094-6.5 3.9844-4.8281 3.9844-11.797 0-10.609-6.4688-16.281-6.4688-5.6562-18.531-5.6562-12.047 0-18.531 5.6562-6.4688 5.6719-6.4688 16.281 0 6.9688 4 11.797 4.0156 4.8438 11.141 6.5zm-3.6094 15.578q0-5.6562 3.5312-8.8281 3.5469-3.1719 9.9375-3.1719 6.3594 0 9.9375 3.1719 3.5938 3.1719 3.5938 8.8281 0 5.6719-3.5938 8.8438-3.5781 3.1719-9.9375 3.1719-6.3906 0-9.9375-3.1719-3.5312-3.1719-3.5312-8.8438z"/>
</defs>
<use xlink:href="#c"/>
<use x="63.623047" xlink:href="#d"/>
<use x="95.410156" xlink:href="#c"/>
<use x="159.033203" xlink:href="#ah"/>
</g>
</g>
<g clip-path="url(#a)">
<g transform="translate(405.67 478.48) scale(.1 -.1)">
<use xlink:href="#c"/>
<use x="63.623047" xlink:href="#d"/>
<use x="95.410156" xlink:href="#c"/>
<use x="159.033203" xlink:href="#ab"/>
</g>
</g>
<g clip-path="url(#a)">
<g transform="translate(459.17 478.48) scale(.1 -.1)">
<defs>
<path id="ai" d="m31.781 66.406q-7.6094 0-11.453-7.5-3.8281-7.4844-3.8281-22.531 0-14.984 3.8281-22.484 3.8438-7.5 11.453-7.5 7.6719 0 11.5 7.5 3.8438 7.5 3.8438 22.484 0 15.047-3.8438 22.531-3.8281 7.5-11.5 7.5zm0 7.8125q12.266 0 18.734-9.7031 6.4688-9.6875 6.4688-28.141 0-18.406-6.4688-28.109-6.4688-9.6875-18.734-9.6875-12.25 0-18.719 9.6875-6.4688 9.7031-6.4688 28.109 0 18.453 6.4688 28.141 6.4688 9.7031 18.719 9.7031z"/>
</defs>
<use xlink:href="#c"/>
<use x="63.623047" xlink:href="#d"/>
<use x="95.410156" xlink:href="#m"/>
<use x="159.033203" xlink:href="#ai"/>
</g>
</g>
<g clip-path="url(#a)">
<g transform="translate(516.25 478.48) scale(.1 -.1)">
<use xlink:href="#c"/>
<use x="63.623047" xlink:href="#d"/>
<use x="95.410156" xlink:href="#m"/>
<use x="159.033203" xlink:href="#c"/>
</g>
</g>
<g clip-path="url(#a)">
<g transform="translate(311.14 367.22) scale(.1 -.1)">
<use xlink:href="#c"/>
<use x="63.623047" xlink:href="#d"/>
<use x="95.410156" xlink:href="#m"/>
<use x="159.033203" xlink:href="#m"/>
</g>
</g>
<g clip-path="url(#a)">
<g transform="translate(332.55 367.22) scale(.1 -.1)">
<use xlink:href="#c"/>
<use x="63.623047" xlink:href="#d"/>
<use x="95.410156" xlink:href="#m"/>
<use x="159.033203" xlink:href="#n"/>
</g>
</g>
<g clip-path="url(#a)">
<g transform="translate(355.73 478.48) scale(.1 -.1)">
<use xlink:href="#c"/>
<use x="63.623047" xlink:href="#d"/>
<use x="95.410156" xlink:href="#m"/>
<use x="159.033203" xlink:href="#z"/>
</g>
</g>
<g clip-path="url(#a)">
<g transform="translate(309.36 478.48) scale(.1 -.1)">
<use xlink:href="#c"/>
<use x="63.623047" xlink:href="#d"/>
<use x="95.410156" xlink:href="#m"/>
<use x="159.033203" xlink:href="#y"/>
</g>
</g>
<g clip-path="url(#a)">
<g transform="translate(266.56 478.48) scale(.1 -.1)">
<use xlink:href="#c"/>
<use x="63.623047" xlink:href="#d"/>
<use x="95.410156" xlink:href="#m"/>
<use x="159.033203" xlink:href="#x"/>
</g>
</g>
<g clip-path="url(#a)">
<g transform="translate(41.837 478.48) scale(.1 -.1)">
<use xlink:href="#c"/>
<use x="63.623047" xlink:href="#d"/>
<use x="95.410156" xlink:href="#m"/>
<use x="159.033203" xlink:href="#ac"/>
</g>
</g>
<g clip-path="url(#a)">
<g transform="translate(52.538 478.48) scale(.1 -.1)">
<use xlink:href="#c"/>
<use x="63.623047" xlink:href="#d"/>
<use x="95.410156" xlink:href="#m"/>
<use x="159.033203" xlink:href="#ah"/>
</g>
</g>
<g clip-path="url(#a)">
<g transform="translate(75.723 367.22) scale(.1 -.1)">
<use xlink:href="#c"/>
<use x="63.623047" xlink:href="#d"/>
<use x="95.410156" xlink:href="#m"/>
<use x="159.033203" xlink:href="#ab"/>
</g>
</g>
<g clip-path="url(#a)">
<g transform="translate(125.66 367.22) scale(.1 -.1)">
<use xlink:href="#c"/>
<use x="63.623047" xlink:href="#d"/>
<use x="95.410156" xlink:href="#n"/>
<use x="159.033203" xlink:href="#ai"/>
</g>
</g>
<g clip-path="url(#a)">
<g transform="translate(106.04 478.48) scale(.1 -.1)">
<use xlink:href="#c"/>
<use x="63.623047" xlink:href="#d"/>
<use x="95.410156" xlink:href="#n"/>
<use x="159.033203" xlink:href="#c"/>
</g>
</g>
<g clip-path="url(#a)">
<g transform="translate(145.28 478.48) scale(.1 -.1)">
<use xlink:href="#c"/>
<use x="63.623047" xlink:href="#d"/>
<use x="95.410156" xlink:href="#n"/>
<use x="159.033203" xlink:href="#m"/>
</g>
</g>
<g clip-path="url(#a)">
<g transform="translate(66.806 478.48) scale(.1 -.1)">
<use xlink:href="#c"/>
<use x="63.623047" xlink:href="#d"/>
<use x="95.410156" xlink:href="#n"/>
<use x="159.033203" xlink:href="#n"/>
</g>
</g>
<g clip-path="url(#a)">
<g transform="translate(84.641 478.48) scale(.1 -.1)">
<use xlink:href="#c"/>
<use x="63.623047" xlink:href="#d"/>
<use x="95.410156" xlink:href="#n"/>
<use x="159.033203" xlink:href="#z"/>
</g>
</g>
<g clip-path="url(#a)">
<g transform="translate(576.88 478.48) scale(.1 -.1)">
<use xlink:href="#c"/>
<use x="63.623047" xlink:href="#d"/>
<use x="95.410156" xlink:href="#n"/>
<use x="159.033203" xlink:href="#y"/>
</g>
</g>
<g clip-path="url(#a)">
<g transform="translate(1101.2 478.48) scale(.1 -.1)">
<use xlink:href="#c"/>
<use x="63.623047" xlink:href="#d"/>
<use x="95.410156" xlink:href="#n"/>
<use x="159.033203" xlink:href="#x"/>
</g>
</g>
<defs>
<clipPath id="a">
<rect width="1165.3" height="613.33"/>
</clipPath>
</defs>
</svg>
