<?xml version="1.0" encoding="UTF-8"?>
<!DOCTYPE svg  PUBLIC '-//W3C//DTD SVG 1.1//EN'  'http://www.w3.org/Graphics/SVG/1.1/DTD/svg11.dtd'>
<svg width="1216pt" height="640pt" version="1.1" viewBox="0 0 1216 640" xmlns="http://www.w3.org/2000/svg" xmlns:xlink="http://www.w3.org/1999/xlink">
<metadata>
<rdf:RDF xmlns:cc="http://creativecommons.org/ns#" xmlns:dc="http://purl.org/dc/elements/1.1/" xmlns:rdf="http://www.w3.org/1999/02/22-rdf-syntax-ns#">
<cc:Work>
<dc:type rdf:resource="http://purl.org/dc/dcmitype/StillImage"/>
<dc:date>2021-02-11T07:45:53.263092</dc:date>
<dc:format>image/svg+xml</dc:format>
<dc:creator>
<cc:Agent>
<dc:title>Matplotlib v3.3.3, https://matplotlib.org/</dc:title>
</cc:Agent>
</dc:creator>
</cc:Work>
</rdf:RDF>
</metadata>
<defs>
<style type="text/css">*{stroke-linecap:butt;stroke-linejoin:round;}</style>
</defs>
<path d="m0 640h1216v-640h-1216z" fill="#fff"/>
<g fill="none" stroke="#000">
<path d="m395.15 29.091-339.88 438.37" clip-path="url(#a)"/>
<path d="m395.15 29.091-289.81 146.71" clip-path="url(#a)"/>
<path d="m395.15 29.091-216.28 146.71" clip-path="url(#a)"/>
<path d="m395.15 29.091 76.386 146.71" clip-path="url(#a)"/>
<path d="m395.15 29.091 236.88 438.37" clip-path="url(#a)"/>
<path d="m395.15 29.091 556.73 146.71" clip-path="url(#a)"/>
<path d="m395.15 29.091-161.36 438.37" clip-path="url(#a)"/>
<path d="m395.15 29.091-37.764 438.37" clip-path="url(#a)"/>
<path d="m395.15 29.091 175.09 438.37" clip-path="url(#a)"/>
<path d="m55.273 467.46v143.45" clip-path="url(#a)"/>
<path d="m105.34 175.8-39.767 291.66" clip-path="url(#a)"/>
<path d="m105.34 175.8-26.034 291.66" clip-path="url(#a)"/>
<path d="m105.34 175.8 1.4305 291.66" clip-path="url(#a)"/>
<path d="m105.34 175.8 64.37 146.21" clip-path="url(#a)"/>
<path d="m178.86 175.8 113.29 146.21" clip-path="url(#a)"/>
<path d="m178.86 175.8-113.29 291.66" clip-path="url(#a)" stroke-dasharray="3.7,1.6"/>
<path d="m471.53 175.8-40.339 146.21" clip-path="url(#a)"/>
<path d="m471.53 175.8 40.339 291.66" clip-path="url(#a)"/>
<path d="m632.03 467.46v143.45" clip-path="url(#a)"/>
<path d="m951.88 175.8-220.29 146.21" clip-path="url(#a)"/>
<path d="m951.88 175.8-113.86 291.66" clip-path="url(#a)"/>
<path d="m951.88 175.8-38.336 291.66" clip-path="url(#a)"/>
<path d="m951.88 175.8 40.625 291.66" clip-path="url(#a)"/>
<path d="m951.88 175.8 123.02 291.66" clip-path="url(#a)"/>
<path d="m951.88 175.8 208.85 291.66" clip-path="url(#a)"/>
<path d="m731.59 322.01-34.331 145.45" clip-path="url(#a)"/>
<path d="m731.59 322.01 34.331 145.45" clip-path="url(#a)"/>
<path d="m838.02 467.46v143.45" clip-path="url(#a)"/>
<path d="m913.54 467.46v143.45" clip-path="url(#a)"/>
<path d="m992.51 467.46v143.45" clip-path="url(#a)"/>
<path d="m1074.9 467.46v143.45" clip-path="url(#a)"/>
<path d="m697.26 467.46v143.45" clip-path="url(#a)"/>
<path d="m765.92 467.46v143.45" clip-path="url(#a)"/>
<path d="m431.2 322.01-25.748 145.45" clip-path="url(#a)"/>
<path d="m431.2 322.01 25.748 145.45" clip-path="url(#a)"/>
<path d="m511.87 467.46v143.45" clip-path="url(#a)"/>
<path d="m405.45 467.46v143.45" clip-path="url(#a)"/>
<path d="m456.94 467.46v143.45" clip-path="url(#a)"/>
<path d="m292.16 322.01-20.599 145.45" clip-path="url(#a)"/>
<path d="m292.16 322.01 20.599 145.45" clip-path="url(#a)"/>
<path d="m271.56 467.46v143.45" clip-path="url(#a)"/>
<path d="m312.75 467.46v143.45" clip-path="url(#a)"/>
<path d="m65.572 467.46v143.45" clip-path="url(#a)"/>
<path d="m79.304 467.46v143.45" clip-path="url(#a)"/>
<path d="m106.77 467.46-10.299 143.45" clip-path="url(#a)"/>
<path d="m106.77 467.46 10.299 143.45" clip-path="url(#a)"/>
<path d="m169.71 322.01-28.609 145.45" clip-path="url(#a)"/>
<path d="m169.71 322.01-1.1444 145.45" clip-path="url(#a)"/>
<path d="m169.71 322.01 29.753 145.45" clip-path="url(#a)"/>
<path d="m141.1 467.46v143.45" clip-path="url(#a)"/>
<path d="m168.56 467.46v143.45" clip-path="url(#a)"/>
<path d="m199.46 467.46v143.45" clip-path="url(#a)"/>
<path d="m233.79 467.46v143.45" clip-path="url(#a)"/>
<path d="m357.38 467.46v143.45" clip-path="url(#a)"/>
<path d="m570.24 467.46v143.45" clip-path="url(#a)"/>
<path d="m1160.7 467.46v143.45" clip-path="url(#a)"/>
</g>
<path d="m228.8 253.88 2.7313-3.5227q1.4706-1.8967-0.42614-3.3673l-6.1188-4.7441q-1.8967-1.4706-3.3673 0.42614l-2.7313 3.5227q-1.4706 1.8967 0.42614 3.3673l6.1188 4.7441q1.8967 1.4706 3.3673-0.42614z" clip-path="url(#a)" fill="#fff" stroke="#fff"/>
<g clip-path="url(#a)">
<g transform="translate(225.59 251.39) rotate(-52.213) scale(.08 -.08)">
<defs>
<path id="ak" d="m9.8125 72.906h9.8594v-64.609h35.5v-8.2969h-45.359z"/>
</defs>
<use xlink:href="#ak"/>
</g>
</g>
<path d="m250.39 109.4 5.3677-2.7172q2.1413-1.084 1.0573-3.2252l-3.4969-6.9078q-1.084-2.1413-3.2252-1.0573l-5.3677 2.7172q-2.1413 1.084-1.0573 3.2252l3.4969 6.9078q1.084 2.1413 3.2252 1.0573z" clip-path="url(#a)" fill="#fff" stroke="#fff"/>
<g clip-path="url(#a)">
<g transform="translate(248.56 105.77) rotate(-26.85) scale(.08 -.08)">
<defs>
<path id="u" d="m9.8125 72.906h9.8594v-29.891h35.844v29.891h9.8594v-72.906h-9.8594v34.719h-35.844v-34.719h-9.8594z"/>
</defs>
<use xlink:href="#u"/>
</g>
</g>
<path d="m288.04 109.32 4.9789-3.3772q1.9862-1.3472 0.63893-3.3334l-4.3463-6.4075q-1.3472-1.9862-3.3334-0.63893l-4.9789 3.3772q-1.9862 1.3472-0.63894 3.3334l4.3463 6.4075q1.3472 1.9862 3.3334 0.63893z" clip-path="url(#a)" fill="#fff" stroke="#fff"/>
<g clip-path="url(#a)">
<g transform="translate(285.76 105.96) rotate(-34.149) scale(.08 -.08)">
<use xlink:href="#u"/>
</g>
</g>
<path d="m426.39 102.67 2.7784 5.3363q1.1084 2.1287 3.2371 1.0204l6.8674-3.5756q2.1287-1.1084 1.0204-3.2371l-2.7784-5.3363q-1.1084-2.1287-3.2371-1.0204l-6.8674 3.5756q-2.1287 1.1084-1.0204 3.2371z" clip-path="url(#a)" fill="#fff" stroke="#fff"/>
<g clip-path="url(#a)">
<g transform="translate(429.99 100.8) rotate(62.495) scale(.08 -.08)">
<use xlink:href="#u"/>
</g>
</g>
<path d="m507.01 249.29 2.1191 3.9216q1.141 2.1114 3.2524 0.97047l6.8116-3.6808q2.1114-1.141 0.97046-3.2524l-2.1191-3.9216q-1.141-2.1114-3.2524-0.97046l-6.8116 3.6808q-2.1114 1.141-0.97047 3.2524z" clip-path="url(#a)" fill="#fff" stroke="#fff"/>
<g clip-path="url(#a)">
<g transform="translate(510.59 247.36) rotate(61.614) scale(.08 -.08)">
<use xlink:href="#ak"/>
</g>
</g>
<path d="m669.01 107.74 5.8176 1.533q2.3208 0.61156 2.9323-1.7092l1.9729-7.4869q0.61156-2.3208-1.7092-2.9323l-5.8176-1.533q-2.3208-0.61156-2.9323 1.7092l-1.9729 7.4869q-0.61156 2.3208 1.7092 2.9323z" clip-path="url(#a)" fill="#fff" stroke="#fff"/>
<g clip-path="url(#a)">
<g transform="translate(670.04 103.81) rotate(14.763) scale(.08 -.08)">
<use xlink:href="#u"/>
</g>
</g>
<path d="m319.34 253.19 2.0225-5.4946q0.82902-2.2523-1.4232-3.0813l-7.2659-2.6745q-2.2523-0.82902-3.0813 1.4232l-2.0225 5.4946q-0.82902 2.2523 1.4232 3.0813l7.2659 2.6745q2.2523 0.82902 3.0813-1.4232z" clip-path="url(#a)" fill="#fff" stroke="#fff"/>
<g clip-path="url(#a)">
<g transform="translate(315.53 251.78) rotate(-69.792) scale(.08 -.08)">
<defs>
<path id="t" d="m8.6875 72.906h9.9219v-44.297q0-11.719 4.2344-16.875 4.25-5.1406 13.781-5.1406 9.4688 0 13.719 5.1406 4.25 5.1562 4.25 16.875v44.297h9.9062v-45.516q0-14.25-7.0625-21.531-7.0469-7.2812-20.812-7.2812-13.828 0-20.891 7.2812-7.0469 7.2812-7.0469 21.531z"/>
</defs>
<use xlink:href="#t"/>
</g>
</g>
<path d="m382.26 251.73 0.50253-5.8334q0.20599-2.3911-2.1852-2.5971l-7.7139-0.66453q-2.3911-0.20599-2.5971 2.1852l-0.50253 5.8334q-0.20599 2.3911 2.1852 2.5971l7.7139 0.66453q2.3911 0.20599 2.5971-2.1852z" clip-path="url(#a)" fill="#fff" stroke="#fff"/>
<g clip-path="url(#a)">
<g transform="translate(378.21 251.38) rotate(-85.076) scale(.08 -.08)">
<use xlink:href="#t"/>
</g>
</g>
<path d="m475.78 247.88 2.1717 5.4373q0.8902 2.2288 3.119 1.3386l7.1902-2.8718q2.2288-0.8902 1.3386-3.119l-2.1717-5.4373q-0.8902-2.2288-3.119-1.3386l-7.1902 2.8718q-2.2288 0.8902-1.3386 3.119z" clip-path="url(#a)" fill="#fff" stroke="#fff"/>
<g clip-path="url(#a)">
<g transform="translate(479.56 246.37) rotate(68.228) scale(.08 -.08)">
<use xlink:href="#t"/>
</g>
</g>
<path d="m49.001 522.28v33.808q0 2.4 2.4 2.4h7.7425q2.4 0 2.4-2.4v-33.808q0-2.4-2.4-2.4h-7.7425q-2.4 0-2.4 2.4z" clip-path="url(#a)" fill="#fff" stroke="#fff"/>
<g clip-path="url(#a)">
<g transform="translate(53.065 522.28) rotate(90) scale(.08 -.08)">
<defs>
<path id="k" d="m-0.29688 72.906h61.672v-8.3125h-25.875v-64.594h-9.9062v64.594h-25.891z"/>
<path id="d" d="m56.203 29.594v-4.3906h-41.312q0.59375-9.2812 5.5938-14.141t13.938-4.8594q5.1719 0 10.031 1.2656t9.6562 3.8125v-8.5q-4.8438-2.0469-9.9219-3.125t-10.297-1.0781q-13.094 0-20.734 7.6094-7.6406 7.625-7.6406 20.625 0 13.422 7.25 21.297 7.25 7.8906 19.562 7.8906 11.031 0 17.453-7.1094 6.4219-7.0938 6.4219-19.297zm-8.9844 2.6406q-0.09375 7.3594-4.125 11.75-4.0312 4.4062-10.672 4.4062-7.5156 0-12.031-4.25t-5.2031-11.969z"/>
<path id="h" d="m41.109 46.297q-1.5156 0.875-3.2969 1.2812-1.7812 0.42188-3.9219 0.42188-7.625 0-11.703-4.9531t-4.0781-14.234v-28.812h-9.0312v54.688h9.0312v-8.5q2.8438 4.9844 7.375 7.3906 4.5469 2.4219 11.047 2.4219 0.92188 0 2.0469-0.125 1.125-0.10938 2.4844-0.35938z"/>
<path id="l" d="m52 44.188q3.375 6.0625 8.0625 8.9375t11.031 2.875q8.5469 0 13.188-5.9844 4.6406-5.9688 4.6406-17v-33.016h-9.0312v32.719q0 7.8594-2.7969 11.656-2.7812 3.8125-8.4844 3.8125-6.9844 0-11.047-4.6406-4.0469-4.625-4.0469-12.641v-30.906h-9.0312v32.719q0 7.9062-2.7812 11.688t-8.5938 3.7812q-6.8906 0-10.953-4.6562-4.0469-4.6562-4.0469-12.625v-30.906h-9.0312v54.688h9.0312v-8.5q3.0781 5.0312 7.375 7.4219t10.203 2.3906q5.9688 0 10.141-3.0312 4.1719-3.0156 6.1719-8.7812z"/>
<path id="j" d="m9.4219 54.688h8.9844v-54.688h-8.9844zm0 21.297h8.9844v-11.391h-8.9844z"/>
<path id="g" d="m54.891 33.016v-33.016h-8.9844v32.719q0 7.7656-3.0312 11.609-3.0312 3.8594-9.0781 3.8594-7.2812 0-11.484-4.6406-4.2031-4.625-4.2031-12.641v-30.906h-9.0312v54.688h9.0312v-8.5q3.2344 4.9375 7.5938 7.375 4.375 2.4375 10.094 2.4375 9.4219 0 14.25-5.8281 4.8438-5.8281 4.8438-17.156z"/>
<path id="f" d="m34.281 27.484q-10.891 0-15.094-2.4844t-4.2031-8.5q0-4.7812 3.1562-7.5938 3.1562-2.7969 8.5625-2.7969 7.4844 0 12 5.2969t4.5156 14.078v2zm17.922 3.7188v-31.203h-8.9844v8.2969q-3.0781-4.9688-7.6719-7.3438t-11.234-2.375q-8.3906 0-13.359 4.7188-4.9531 4.7188-4.9531 12.625 0 9.2188 6.1719 13.906 6.1875 4.6875 18.438 4.6875h12.609v0.89062q0 6.2031-4.0781 9.5938t-11.453 3.3906q-4.6875 0-9.1406-1.125-4.4375-1.125-8.5312-3.375v8.3125q4.9219 1.9062 9.5625 2.8438 4.6406 0.95312 9.0312 0.95312 11.875 0 17.734-6.1562 5.8594-6.1406 5.8594-18.641z"/>
<path id="i" d="m9.4219 75.984h8.9844v-75.984h-8.9844z"/>
</defs>
<use xlink:href="#k"/>
<use x="44.083984" xlink:href="#d"/>
<use x="105.607422" xlink:href="#h"/>
<use x="144.970703" xlink:href="#l"/>
<use x="242.382812" xlink:href="#j"/>
<use x="270.166016" xlink:href="#g"/>
<use x="333.544922" xlink:href="#f"/>
<use x="394.824219" xlink:href="#i"/>
</g>
</g>
<path d="m91.299 325.19 0.73932-5.4223q0.32423-2.378-2.0538-2.7022l-7.6715-1.046q-2.378-0.32423-2.7022 2.0538l-0.73932 5.4223q-0.32423 2.378 2.0538 2.7022l7.6715 1.046q2.378 0.32423 2.7022-2.0538z" clip-path="url(#a)" fill="#fff" stroke="#fff"/>
<g clip-path="url(#a)">
<g transform="translate(87.273 324.64) rotate(-82.236) scale(.08 -.08)">
<defs>
<path id="aa" d="m34.188 63.188-13.391-36.281h26.812zm-5.5781 9.7188h11.188l27.781-72.906h-10.25l-6.6406 18.703h-32.859l-6.6406-18.703h-10.406z"/>
</defs>
<use xlink:href="#aa"/>
</g>
</g>
<path d="m98.363 324.48 0.4091-4.583q0.21338-2.3905-2.1771-2.6039l-7.7118-0.68838q-2.3905-0.21338-2.6039 2.1771l-0.4091 4.583q-0.21338 2.3905 2.1771 2.6039l7.7118 0.68838q2.3905 0.21338 2.6039-2.1771z" clip-path="url(#a)" fill="#fff" stroke="#fff"/>
<g clip-path="url(#a)">
<g transform="translate(94.316 324.12) rotate(-84.899) scale(.08 -.08)">
<defs>
<path id="v" d="m9.8125 72.906h41.891v-8.3125h-32.031v-21.484h28.906v-8.2969h-28.906v-34.812h-9.8594z"/>
</defs>
<use xlink:href="#v"/>
</g>
</g>
<path d="m99.771 319.25 0.023658 4.8237q0.01177 2.4 2.4117 2.3882l7.7424-0.037974q2.4-0.01177 2.3882-2.4117l-0.023658-4.8237q-0.011771-2.4-2.4117-2.3882l-7.7424 0.037973q-2.4 0.011771-2.3882 2.4117z" clip-path="url(#a)" fill="#fff" stroke="#fff"/>
<g clip-path="url(#a)">
<g transform="translate(103.83 319.23) rotate(89.719) scale(.08 -.08)">
<defs>
<path id="aj" d="m19.672 64.797v-27.391h12.406q6.8906 0 10.641 3.5625 3.7656 3.5625 3.7656 10.156 0 6.5469-3.7656 10.109-3.75 3.5625-10.641 3.5625zm-9.8594 8.1094h22.266q12.266 0 18.531-5.5469 6.2812-5.5469 6.2812-16.234 0-10.797-6.2812-16.312-6.2656-5.5156-18.531-5.5156h-12.406v-29.297h-9.8594z"/>
</defs>
<use xlink:href="#aj"/>
</g>
</g>
<path d="m130.8 249.2 1.9689 4.472q0.96705 2.1965 3.1636 1.2295l7.0862-3.1197q2.1965-0.96705 1.2295-3.1636l-1.9688-4.472q-0.96705-2.1965-3.1636-1.2295l-7.0862 3.1197q-2.1965 0.96705-1.2295 3.1636z" clip-path="url(#a)" fill="#fff" stroke="#fff"/>
<g clip-path="url(#a)">
<g transform="translate(134.52 247.56) rotate(66.238) scale(.08 -.08)">
<use xlink:href="#k"/>
</g>
</g>
<path d="m229 250.74 3.1107 4.0146q1.47 1.8971 3.3671 0.42713l6.1202-4.7423q1.8971-1.47 0.42713-3.3671l-3.1107-4.0146q-1.47-1.8971-3.3671-0.42713l-6.1202 4.7423q-1.8971 1.47-0.42713 3.3671z" clip-path="url(#a)" fill="#fff" stroke="#fff"/>
<g clip-path="url(#a)">
<g transform="translate(232.21 248.25) rotate(52.23) scale(.08 -.08)">
<defs>
<path id="ah" d="m53.516 70.516v-9.625q-5.6094 2.6875-10.594 4-4.9844 1.3281-9.625 1.3281-8.0469 0-12.422-3.125t-4.375-8.8906q0-4.8438 2.9062-7.3125 2.9062-2.4531 11.016-3.9688l5.9531-1.2188q11.031-2.1094 16.281-7.4062t5.25-14.172q0-10.609-7.1094-16.078-7.0938-5.4688-20.812-5.4688-5.1719 0-11.016 1.1719-5.8281 1.1719-12.078 3.4688v10.156q6-3.3594 11.766-5.0781 5.7656-1.7031 11.328-1.7031 8.4375 0 13.031 3.3125 4.5938 3.3281 4.5938 9.4844 0 5.3594-3.2969 8.3906t-10.812 4.5469l-6.0156 1.1719q-11.031 2.1875-15.969 6.875-4.9219 4.6875-4.9219 13.047 0 9.6719 6.8125 15.234t18.766 5.5625q5.1406 0 10.453-0.9375 5.3281-0.92188 10.891-2.7656z"/>
</defs>
<use xlink:href="#ah"/>
</g>
</g>
<path d="m127.07 326.45 1.9815-5.1012q0.869-2.2371-1.3681-3.1062l-7.2171-2.8034q-2.2371-0.869-3.1062 1.3681l-1.9815 5.1012q-0.869 2.2372 1.3682 3.1062l7.2171 2.8034q2.2372 0.869 3.1062-1.3681z" clip-path="url(#a)" fill="#fff" stroke="#fff"/>
<g clip-path="url(#a)">
<g transform="translate(123.28 324.98) rotate(-68.772) scale(.08 -.08)">
<use xlink:href="#aa"/>
</g>
</g>
<path d="m456.74 253.02 1.3507-4.8958q0.6383-2.3136-1.6753-2.9519l-7.4636-2.0592q-2.3136-0.6383-2.9519 1.6753l-1.3507 4.8958q-0.6383 2.3136 1.6753 2.9519l7.4636 2.0592q2.3136 0.6383 2.9519-1.6753z" clip-path="url(#a)" fill="#fff" stroke="#fff"/>
<g clip-path="url(#a)">
<g transform="translate(452.82 251.94) rotate(-74.576) scale(.08 -.08)">
<use xlink:href="#ah"/>
</g>
</g>
<path d="m485.07 319.44 0.84395 6.1019q0.32881 2.3774 2.7062 2.0486l7.6695-1.0608q2.3774-0.32881 2.0486-2.7062l-0.84395-6.1019q-0.32881-2.3774-2.7062-2.0486l-7.6695 1.0608q-2.3774 0.32881-2.0486 2.7062z" clip-path="url(#a)" fill="#fff" stroke="#fff"/>
<g clip-path="url(#a)">
<g transform="translate(489.1 318.88) rotate(82.125) scale(.08 -.08)">
<defs>
<path id="z" d="m19.672 64.797v-56.688h11.922q15.094 0 22.094 6.8281 7 6.8438 7 21.594 0 14.641-7 21.453t-22.094 6.8125zm-9.8594 8.1094h20.266q21.188 0 31.094-8.8125 9.9219-8.8125 9.9219-27.562 0-18.859-9.9688-27.703-9.9531-8.8281-31.047-8.8281h-20.266z"/>
</defs>
<use xlink:href="#z"/>
</g>
</g>
<path d="m625.76 522.28v33.808q0 2.4 2.4 2.4h7.7425q2.4 0 2.4-2.4v-33.808q0-2.4-2.4-2.4h-7.7425q-2.4 0-2.4 2.4z" clip-path="url(#a)" fill="#fff" stroke="#fff"/>
<g clip-path="url(#a)">
<g transform="translate(629.82 522.28) rotate(90) scale(.08 -.08)">
<use xlink:href="#k"/>
<use x="44.083984" xlink:href="#d"/>
<use x="105.607422" xlink:href="#h"/>
<use x="144.970703" xlink:href="#l"/>
<use x="242.382812" xlink:href="#j"/>
<use x="270.166016" xlink:href="#g"/>
<use x="333.544922" xlink:href="#f"/>
<use x="394.824219" xlink:href="#i"/>
</g>
</g>
<path d="m842.92 255.64 4.5596-3.0263q1.9996-1.3272 0.67244-3.3268l-4.2816-6.4509q-1.3272-1.9996-3.3268-0.67244l-4.5596 3.0263q-1.9996 1.3272-0.67244 3.3268l4.2816 6.4509q1.3272 1.9996 3.3268 0.67244z" clip-path="url(#a)" fill="#fff" stroke="#fff"/>
<g clip-path="url(#a)">
<g transform="translate(840.68 252.26) rotate(-33.573) scale(.08 -.08)">
<use xlink:href="#aa"/>
</g>
</g>
<path d="m899.67 326.78 2.2402-5.7382q0.87281-2.2357-1.3629-3.1085l-7.2124-2.8157q-2.2357-0.87281-3.1085 1.3629l-2.2402 5.7382q-0.87281 2.2357 1.3629 3.1085l7.2124 2.8157q2.2357 0.87281 3.1085-1.3629z" clip-path="url(#a)" fill="#fff" stroke="#fff"/>
<g clip-path="url(#a)">
<g transform="translate(895.89 325.3) rotate(-68.674) scale(.08 -.08)">
<use xlink:href="#z"/>
</g>
</g>
<path d="m938.63 324.73 0.59964-4.562q0.31277-2.3795-2.0668-2.6923l-7.6765-1.009q-2.3795-0.31277-2.6923 2.0668l-0.59964 4.562q-0.31277 2.3795 2.0668 2.6923l7.6765 1.009q2.3795 0.31277 2.6923-2.0668z" clip-path="url(#a)" fill="#fff" stroke="#fff"/>
<g clip-path="url(#a)">
<g transform="translate(934.6 324.2) rotate(-82.512) scale(.08 -.08)">
<use xlink:href="#v"/>
</g>
</g>
<path d="m965.65 320.1 0.66547 4.7776q0.3311 2.3771 2.7082 2.046l7.6685-1.0681q2.3771-0.3311 2.046-2.7081l-0.66547-4.7776q-0.3311-2.3771-2.7082-2.046l-7.6685 1.0681q-2.3771 0.3311-2.046 2.7082z" clip-path="url(#a)" fill="#fff" stroke="#fff"/>
<g clip-path="url(#a)">
<g transform="translate(969.67 319.54) rotate(82.07) scale(.08 -.08)">
<use xlink:href="#aj"/>
</g>
</g>
<path d="m1006.4 321.23 2.394 5.6758q0.93272 2.2113 3.1441 1.2786l7.1339-3.009q2.2113-0.93273 1.2786-3.1441l-2.394-5.6758q-0.93272-2.2113-3.1441-1.2786l-7.1339 3.009q-2.2113 0.93272-1.2786 3.1441z" clip-path="url(#a)" fill="#fff" stroke="#fff"/>
<g clip-path="url(#a)">
<g transform="translate(1010.2 319.65) rotate(67.13) scale(.08 -.08)">
<use xlink:href="#z"/>
</g>
</g>
<path d="m1049.5 322.9 3.4088 4.7604q1.3973 1.9513 3.3486 0.55405l6.295-4.5077q1.9513-1.3973 0.55405-3.3486l-3.4088-4.7604q-1.3973-1.9513-3.3486-0.55405l-6.295 4.5077q-1.9513 1.3973-0.55405 3.3486z" clip-path="url(#a)" fill="#fff" stroke="#fff"/>
<g clip-path="url(#a)">
<g transform="translate(1052.8 320.53) rotate(54.395) scale(.08 -.08)">
<use xlink:href="#t"/>
</g>
</g>
<path d="m720 398.41 1.057-4.4782q0.55134-2.3358-1.7845-2.8872l-7.5354-1.7786q-2.3358-0.55134-2.8872 1.7845l-1.057 4.4782q-0.55134 2.3358 1.7845 2.8872l7.5354 1.7786q2.3358 0.55134 2.8872-1.7845z" clip-path="url(#a)" fill="#fff" stroke="#fff"/>
<g clip-path="url(#a)">
<g transform="translate(716.05 397.48) rotate(-76.719) scale(.08 -.08)">
<use xlink:href="#v"/>
</g>
</g>
<path d="m742.01 393.46 1.2833 5.4369q0.55134 2.3358 2.8872 1.7845l7.5354-1.7786q2.3358-0.55134 1.7845-2.8872l-1.2833-5.4369q-0.55134-2.3358-2.8872-1.7845l-7.5354 1.7786q-2.3358 0.55134-1.7845 2.8872z" clip-path="url(#a)" fill="#fff" stroke="#fff"/>
<g clip-path="url(#a)">
<g transform="translate(745.97 392.52) rotate(76.719) scale(.08 -.08)">
<defs>
<path id="w" d="m64.406 67.281v-10.391q-4.9844 4.6406-10.625 6.9219-5.6406 2.2969-11.984 2.2969-12.5 0-19.141-7.6406t-6.6406-22.094q0-14.406 6.6406-22.047t19.141-7.6406q6.3438 0 11.984 2.2969t10.625 6.9375v-10.312q-5.1719-3.5156-10.969-5.2812-5.7812-1.75-12.219-1.75-16.562 0-26.094 10.125-9.5156 10.141-9.5156 27.672 0 17.578 9.5156 27.703 9.5312 10.141 26.094 10.141 6.5312 0 12.312-1.7344 5.7969-1.7344 10.875-5.2031z"/>
</defs>
<use xlink:href="#w"/>
</g>
</g>
<path d="m831.75 522.28v33.808q0 2.4 2.4 2.4h7.7425q2.4 0 2.4-2.4v-33.808q0-2.4-2.4-2.4h-7.7425q-2.4 0-2.4 2.4z" clip-path="url(#a)" fill="#fff" stroke="#fff"/>
<g clip-path="url(#a)">
<g transform="translate(835.81 522.28) rotate(90) scale(.08 -.08)">
<use xlink:href="#k"/>
<use x="44.083984" xlink:href="#d"/>
<use x="105.607422" xlink:href="#h"/>
<use x="144.970703" xlink:href="#l"/>
<use x="242.382812" xlink:href="#j"/>
<use x="270.166016" xlink:href="#g"/>
<use x="333.544922" xlink:href="#f"/>
<use x="394.824219" xlink:href="#i"/>
</g>
</g>
<path d="m907.27 522.28v33.808q0 2.4 2.4 2.4h7.7425q2.4 0 2.4-2.4v-33.808q0-2.4-2.4-2.4h-7.7425q-2.4 0-2.4 2.4z" clip-path="url(#a)" fill="#fff" stroke="#fff"/>
<g clip-path="url(#a)">
<g transform="translate(911.34 522.28) rotate(90) scale(.08 -.08)">
<use xlink:href="#k"/>
<use x="44.083984" xlink:href="#d"/>
<use x="105.607422" xlink:href="#h"/>
<use x="144.970703" xlink:href="#l"/>
<use x="242.382812" xlink:href="#j"/>
<use x="270.166016" xlink:href="#g"/>
<use x="333.544922" xlink:href="#f"/>
<use x="394.824219" xlink:href="#i"/>
</g>
</g>
<path d="m986.23 522.28v33.808q0 2.4 2.4 2.4h7.7425q2.4 0 2.4-2.4v-33.808q0-2.4-2.4-2.4h-7.7425q-2.4 0-2.4 2.4z" clip-path="url(#a)" fill="#fff" stroke="#fff"/>
<g clip-path="url(#a)">
<g transform="translate(990.3 522.28) rotate(90) scale(.08 -.08)">
<use xlink:href="#k"/>
<use x="44.083984" xlink:href="#d"/>
<use x="105.607422" xlink:href="#h"/>
<use x="144.970703" xlink:href="#l"/>
<use x="242.382812" xlink:href="#j"/>
<use x="270.166016" xlink:href="#g"/>
<use x="333.544922" xlink:href="#f"/>
<use x="394.824219" xlink:href="#i"/>
</g>
</g>
<path d="m1068.6 522.28v33.808q0 2.4 2.4 2.4h7.7425q2.4 0 2.4-2.4v-33.808q0-2.4-2.4-2.4h-7.7425q-2.4 0-2.4 2.4z" clip-path="url(#a)" fill="#fff" stroke="#fff"/>
<g clip-path="url(#a)">
<g transform="translate(1072.7 522.28) rotate(90) scale(.08 -.08)">
<use xlink:href="#k"/>
<use x="44.083984" xlink:href="#d"/>
<use x="105.607422" xlink:href="#h"/>
<use x="144.970703" xlink:href="#l"/>
<use x="242.382812" xlink:href="#j"/>
<use x="270.166016" xlink:href="#g"/>
<use x="333.544922" xlink:href="#f"/>
<use x="394.824219" xlink:href="#i"/>
</g>
</g>
<path d="m690.99 522.28v33.808q0 2.4 2.4 2.4h7.7425q2.4 0 2.4-2.4v-33.808q0-2.4-2.4-2.4h-7.7425q-2.4 0-2.4 2.4z" clip-path="url(#a)" fill="#fff" stroke="#fff"/>
<g clip-path="url(#a)">
<g transform="translate(695.05 522.28) rotate(90) scale(.08 -.08)">
<use xlink:href="#k"/>
<use x="44.083984" xlink:href="#d"/>
<use x="105.607422" xlink:href="#h"/>
<use x="144.970703" xlink:href="#l"/>
<use x="242.382812" xlink:href="#j"/>
<use x="270.166016" xlink:href="#g"/>
<use x="333.544922" xlink:href="#f"/>
<use x="394.824219" xlink:href="#i"/>
</g>
</g>
<path d="m759.65 522.28v33.808q0 2.4 2.4 2.4h7.7425q2.4 0 2.4-2.4v-33.808q0-2.4-2.4-2.4h-7.7425q-2.4 0-2.4 2.4z" clip-path="url(#a)" fill="#fff" stroke="#fff"/>
<g clip-path="url(#a)">
<g transform="translate(763.71 522.28) rotate(90) scale(.08 -.08)">
<use xlink:href="#k"/>
<use x="44.083984" xlink:href="#d"/>
<use x="105.607422" xlink:href="#h"/>
<use x="144.970703" xlink:href="#l"/>
<use x="242.382812" xlink:href="#j"/>
<use x="270.166016" xlink:href="#g"/>
<use x="333.544922" xlink:href="#f"/>
<use x="394.824219" xlink:href="#i"/>
</g>
</g>
<path d="m424.1 398.09 0.80207-4.5308q0.41836-2.3633-1.9449-2.7816l-7.624-1.3496q-2.3633-0.41836-2.7816 1.9449l-0.80208 4.5308q-0.41836 2.3633 1.9449 2.7816l7.624 1.3496q2.3633 0.41836 2.7816-1.9449z" clip-path="url(#a)" fill="#fff" stroke="#fff"/>
<g clip-path="url(#a)">
<g transform="translate(420.09 397.38) rotate(-79.961) scale(.08 -.08)">
<use xlink:href="#v"/>
</g>
</g>
<path d="m437.41 393.08 0.97378 5.5007q0.41836 2.3633 2.7816 1.9449l7.624-1.3496q2.3633-0.41836 1.9449-2.7816l-0.97378-5.5007q-0.41836-2.3633-2.7816-1.9449l-7.624 1.3496q-2.3633 0.41836-1.9449 2.7816z" clip-path="url(#a)" fill="#fff" stroke="#fff"/>
<g clip-path="url(#a)">
<g transform="translate(441.41 392.37) rotate(79.961) scale(.08 -.08)">
<use xlink:href="#w"/>
</g>
</g>
<path d="m505.6 522.28v33.808q0 2.4 2.4 2.4h7.7425q2.4 0 2.4-2.4v-33.808q0-2.4-2.4-2.4h-7.7425q-2.4 0-2.4 2.4z" clip-path="url(#a)" fill="#fff" stroke="#fff"/>
<g clip-path="url(#a)">
<g transform="translate(509.67 522.28) rotate(90) scale(.08 -.08)">
<use xlink:href="#k"/>
<use x="44.083984" xlink:href="#d"/>
<use x="105.607422" xlink:href="#h"/>
<use x="144.970703" xlink:href="#l"/>
<use x="242.382812" xlink:href="#j"/>
<use x="270.166016" xlink:href="#g"/>
<use x="333.544922" xlink:href="#f"/>
<use x="394.824219" xlink:href="#i"/>
</g>
</g>
<path d="m399.18 522.28v33.808q0 2.4 2.4 2.4h7.7425q2.4 0 2.4-2.4v-33.808q0-2.4-2.4-2.4h-7.7425q-2.4 0-2.4 2.4z" clip-path="url(#a)" fill="#fff" stroke="#fff"/>
<g clip-path="url(#a)">
<g transform="translate(403.24 522.28) rotate(90) scale(.08 -.08)">
<use xlink:href="#k"/>
<use x="44.083984" xlink:href="#d"/>
<use x="105.607422" xlink:href="#h"/>
<use x="144.970703" xlink:href="#l"/>
<use x="242.382812" xlink:href="#j"/>
<use x="270.166016" xlink:href="#g"/>
<use x="333.544922" xlink:href="#f"/>
<use x="394.824219" xlink:href="#i"/>
</g>
</g>
<path d="m450.67 522.28v33.808q0 2.4 2.4 2.4h7.7425q2.4 0 2.4-2.4v-33.808q0-2.4-2.4-2.4h-7.7425q-2.4 0-2.4 2.4z" clip-path="url(#a)" fill="#fff" stroke="#fff"/>
<g clip-path="url(#a)">
<g transform="translate(454.74 522.28) rotate(90) scale(.08 -.08)">
<use xlink:href="#k"/>
<use x="44.083984" xlink:href="#d"/>
<use x="105.607422" xlink:href="#h"/>
<use x="144.970703" xlink:href="#l"/>
<use x="242.382812" xlink:href="#j"/>
<use x="270.166016" xlink:href="#g"/>
<use x="333.544922" xlink:href="#f"/>
<use x="394.824219" xlink:href="#i"/>
</g>
</g>
<path d="m287.68 398.36 0.77946-5.5038q0.33653-2.3763-2.0398-2.7128l-7.666-1.0857q-2.3763-0.33653-2.7128 2.0398l-0.77946 5.5038q-0.33653 2.3763 2.0398 2.7128l7.666 1.0857q2.3763 0.33653 2.7128-2.0398z" clip-path="url(#a)" fill="#fff" stroke="#fff"/>
<g clip-path="url(#a)">
<g transform="translate(283.65 397.79) rotate(-81.939) scale(.08 -.08)">
<defs>
<path id="ai" d="m44.391 34.188q3.1719-1.0781 6.1719-4.5938t6.0312-9.6719l10.016-19.922h-10.609l-9.3125 18.703q-3.625 7.3281-7.0156 9.7188t-9.25 2.3906h-10.75v-30.812h-9.8594v72.906h22.266q12.5 0 18.656-5.2344 6.1562-5.2188 6.1562-15.766 0-6.8906-3.2031-11.438-3.2031-4.5312-9.2969-6.2812zm-24.719 30.609v-25.875h12.406q7.125 0 10.766 3.2969t3.6406 9.6875-3.6406 9.6406-10.766 3.25z"/>
</defs>
<use xlink:href="#ai"/>
</g>
</g>
<path d="m295.85 392.85 0.78332 5.5311q0.33653 2.3763 2.7128 2.0398l7.666-1.0857q2.3763-0.33653 2.0398-2.7128l-0.78332-5.5311q-0.33653-2.3763-2.7128-2.0398l-7.666 1.0857q-2.3763 0.33653-2.0398 2.7128z" clip-path="url(#a)" fill="#fff" stroke="#fff"/>
<g clip-path="url(#a)">
<g transform="translate(299.88 392.28) rotate(81.939) scale(.08 -.08)">
<use xlink:href="#w"/>
</g>
</g>
<path d="m265.29 522.28v33.808q0 2.4 2.4 2.4h7.7425q2.4 0 2.4-2.4v-33.808q0-2.4-2.4-2.4h-7.7425q-2.4 0-2.4 2.4z" clip-path="url(#a)" fill="#fff" stroke="#fff"/>
<g clip-path="url(#a)">
<g transform="translate(269.35 522.28) rotate(90) scale(.08 -.08)">
<use xlink:href="#k"/>
<use x="44.083984" xlink:href="#d"/>
<use x="105.607422" xlink:href="#h"/>
<use x="144.970703" xlink:href="#l"/>
<use x="242.382812" xlink:href="#j"/>
<use x="270.166016" xlink:href="#g"/>
<use x="333.544922" xlink:href="#f"/>
<use x="394.824219" xlink:href="#i"/>
</g>
</g>
<path d="m306.48 522.28v33.808q0 2.4 2.4 2.4h7.7425q2.4 0 2.4-2.4v-33.808q0-2.4-2.4-2.4h-7.7425q-2.4 0-2.4 2.4z" clip-path="url(#a)" fill="#fff" stroke="#fff"/>
<g clip-path="url(#a)">
<g transform="translate(310.55 522.28) rotate(90) scale(.08 -.08)">
<use xlink:href="#k"/>
<use x="44.083984" xlink:href="#d"/>
<use x="105.607422" xlink:href="#h"/>
<use x="144.970703" xlink:href="#l"/>
<use x="242.382812" xlink:href="#j"/>
<use x="270.166016" xlink:href="#g"/>
<use x="333.544922" xlink:href="#f"/>
<use x="394.824219" xlink:href="#i"/>
</g>
</g>
<path d="m59.301 522.28v33.808q0 2.4 2.4 2.4h7.7425q2.4 0 2.4-2.4v-33.808q0-2.4-2.4-2.4h-7.7425q-2.4 0-2.4 2.4z" clip-path="url(#a)" fill="#fff" stroke="#fff"/>
<g clip-path="url(#a)">
<g transform="translate(63.364 522.28) rotate(90) scale(.08 -.08)">
<use xlink:href="#k"/>
<use x="44.083984" xlink:href="#d"/>
<use x="105.607422" xlink:href="#h"/>
<use x="144.970703" xlink:href="#l"/>
<use x="242.382812" xlink:href="#j"/>
<use x="270.166016" xlink:href="#g"/>
<use x="333.544922" xlink:href="#f"/>
<use x="394.824219" xlink:href="#i"/>
</g>
</g>
<path d="m73.033 522.28v33.808q0 2.4 2.4 2.4h7.7425q2.4 0 2.4-2.4v-33.808q0-2.4-2.4-2.4h-7.7425q-2.4 0-2.4 2.4z" clip-path="url(#a)" fill="#fff" stroke="#fff"/>
<g clip-path="url(#a)">
<g transform="translate(77.097 522.28) rotate(90) scale(.08 -.08)">
<use xlink:href="#k"/>
<use x="44.083984" xlink:href="#d"/>
<use x="105.607422" xlink:href="#h"/>
<use x="144.970703" xlink:href="#l"/>
<use x="242.382812" xlink:href="#j"/>
<use x="270.166016" xlink:href="#g"/>
<use x="333.544922" xlink:href="#f"/>
<use x="394.824219" xlink:href="#i"/>
</g>
</g>
<path d="m106.66 556.49 2.421-33.721q0.17187-2.3938-2.222-2.5657l-7.7226-0.55445q-2.3938-0.17187-2.5657 2.222l-2.421 33.721q-0.17187 2.3938 2.222 2.5657l7.7226 0.55445q2.3938 0.17187 2.5657-2.222z" clip-path="url(#a)" fill="#fff" stroke="#fff"/>
<g clip-path="url(#a)">
<g transform="translate(102.61 556.2) rotate(-85.893) scale(.08 -.08)">
<use xlink:href="#k"/>
<use x="44.083984" xlink:href="#d"/>
<use x="105.607422" xlink:href="#h"/>
<use x="144.970703" xlink:href="#l"/>
<use x="242.382812" xlink:href="#j"/>
<use x="270.166016" xlink:href="#g"/>
<use x="333.544922" xlink:href="#f"/>
<use x="394.824219" xlink:href="#i"/>
</g>
</g>
<path d="m104.45 522.77 2.421 33.721q0.17187 2.3938 2.5657 2.222l7.7226-0.55445q2.3938-0.17187 2.222-2.5657l-2.421-33.721q-0.17187-2.3938-2.5657-2.222l-7.7226 0.55445q-2.3938 0.17187-2.222 2.5657z" clip-path="url(#a)" fill="#fff" stroke="#fff"/>
<g clip-path="url(#a)">
<g transform="translate(108.51 522.48) rotate(85.893) scale(.08 -.08)">
<use xlink:href="#k"/>
<use x="44.083984" xlink:href="#d"/>
<use x="105.607422" xlink:href="#h"/>
<use x="144.970703" xlink:href="#l"/>
<use x="242.382812" xlink:href="#j"/>
<use x="270.166016" xlink:href="#g"/>
<use x="333.544922" xlink:href="#f"/>
<use x="394.824219" xlink:href="#i"/>
</g>
</g>
<path d="m161.02 398.67 1.0728-5.4542q0.4632-2.3549-1.8917-2.8181l-7.5969-1.4943q-2.3549-0.4632-2.8181 1.8917l-1.0728 5.4542q-0.4632 2.3549 1.8917 2.8181l7.5969 1.4943q2.3549 0.4632 2.8181-1.8917z" clip-path="url(#a)" fill="#fff" stroke="#fff"/>
<g clip-path="url(#a)">
<g transform="translate(157.03 397.89) rotate(-78.872) scale(.08 -.08)">
<use xlink:href="#ai"/>
</g>
</g>
<path d="m175.38 397.93 0.049546-6.2973q0.018883-2.3999-2.381-2.4188l-7.7423-0.060915q-2.3999-0.018883-2.4188 2.381l-0.049546 6.2973q-0.018882 2.3999 2.381 2.4188l7.7423 0.060915q2.3999 0.018883 2.4188-2.381z" clip-path="url(#a)" fill="#fff" stroke="#fff"/>
<g clip-path="url(#a)">
<g transform="translate(171.32 397.9) rotate(-89.549) scale(.08 -.08)">
<defs>
<path id="ar" d="m39.406 66.219q-10.75 0-17.078-8.0156-6.3125-8-6.3125-21.828 0-13.766 6.3125-21.781 6.3281-8 17.078-8 10.734 0 17.016 8 6.2812 8.0156 6.2812 21.781 0 13.828-6.2812 21.828-6.2812 8.0156-17.016 8.0156zm13.812-64.906 13-14.203h-11.922l-10.797 11.672q-1.6094-0.09375-2.4688-0.14062-0.84375-0.0625-1.625-0.0625-15.375 0-24.594 10.281-9.2031 10.281-9.2031 27.516 0 17.281 9.2031 27.562 9.2188 10.281 24.594 10.281 15.328 0 24.5-10.281 9.1875-10.281 9.1875-27.562 0-12.688-5.1094-21.734-5.0938-9.0312-14.766-13.328z"/>
</defs>
<use xlink:href="#ar"/>
</g>
</g>
<path d="m177.88 393.25 1.1196 5.4729q0.48099 2.3513 2.8323 1.8703l7.5854-1.5517q2.3513-0.48099 1.8703-2.8323l-1.1196-5.4729q-0.48099-2.3513-2.8323-1.8703l-7.5854 1.5517q-2.3513 0.481-1.8703 2.8323z" clip-path="url(#a)" fill="#fff" stroke="#fff"/>
<g clip-path="url(#a)">
<g transform="translate(181.86 392.44) rotate(78.439) scale(.08 -.08)">
<use xlink:href="#w"/>
</g>
</g>
<path d="m134.83 522.28v33.808q0 2.4 2.4 2.4h7.7425q2.4 0 2.4-2.4v-33.808q0-2.4-2.4-2.4h-7.7425q-2.4 0-2.4 2.4z" clip-path="url(#a)" fill="#fff" stroke="#fff"/>
<g clip-path="url(#a)">
<g transform="translate(138.89 522.28) rotate(90) scale(.08 -.08)">
<use xlink:href="#k"/>
<use x="44.083984" xlink:href="#d"/>
<use x="105.607422" xlink:href="#h"/>
<use x="144.970703" xlink:href="#l"/>
<use x="242.382812" xlink:href="#j"/>
<use x="270.166016" xlink:href="#g"/>
<use x="333.544922" xlink:href="#f"/>
<use x="394.824219" xlink:href="#i"/>
</g>
</g>
<path d="m162.29 522.28v33.808q0 2.4 2.4 2.4h7.7425q2.4 0 2.4-2.4v-33.808q0-2.4-2.4-2.4h-7.7425q-2.4 0-2.4 2.4z" clip-path="url(#a)" fill="#fff" stroke="#fff"/>
<g clip-path="url(#a)">
<g transform="translate(166.36 522.28) rotate(90) scale(.08 -.08)">
<use xlink:href="#k"/>
<use x="44.083984" xlink:href="#d"/>
<use x="105.607422" xlink:href="#h"/>
<use x="144.970703" xlink:href="#l"/>
<use x="242.382812" xlink:href="#j"/>
<use x="270.166016" xlink:href="#g"/>
<use x="333.544922" xlink:href="#f"/>
<use x="394.824219" xlink:href="#i"/>
</g>
</g>
<path d="m193.19 522.28v33.808q0 2.4 2.4 2.4h7.7425q2.4 0 2.4-2.4v-33.808q0-2.4-2.4-2.4h-7.7425q-2.4 0-2.4 2.4z" clip-path="url(#a)" fill="#fff" stroke="#fff"/>
<g clip-path="url(#a)">
<g transform="translate(197.25 522.28) rotate(90) scale(.08 -.08)">
<use xlink:href="#k"/>
<use x="44.083984" xlink:href="#d"/>
<use x="105.607422" xlink:href="#h"/>
<use x="144.970703" xlink:href="#l"/>
<use x="242.382812" xlink:href="#j"/>
<use x="270.166016" xlink:href="#g"/>
<use x="333.544922" xlink:href="#f"/>
<use x="394.824219" xlink:href="#i"/>
</g>
</g>
<path d="m227.52 522.28v33.808q0 2.4 2.4 2.4h7.7425q2.4 0 2.4-2.4v-33.808q0-2.4-2.4-2.4h-7.7425q-2.4 0-2.4 2.4z" clip-path="url(#a)" fill="#fff" stroke="#fff"/>
<g clip-path="url(#a)">
<g transform="translate(231.59 522.28) rotate(90) scale(.08 -.08)">
<use xlink:href="#k"/>
<use x="44.083984" xlink:href="#d"/>
<use x="105.607422" xlink:href="#h"/>
<use x="144.970703" xlink:href="#l"/>
<use x="242.382812" xlink:href="#j"/>
<use x="270.166016" xlink:href="#g"/>
<use x="333.544922" xlink:href="#f"/>
<use x="394.824219" xlink:href="#i"/>
</g>
</g>
<path d="m351.11 522.28v33.808q0 2.4 2.4 2.4h7.7425q2.4 0 2.4-2.4v-33.808q0-2.4-2.4-2.4h-7.7425q-2.4 0-2.4 2.4z" clip-path="url(#a)" fill="#fff" stroke="#fff"/>
<g clip-path="url(#a)">
<g transform="translate(355.18 522.28) rotate(90) scale(.08 -.08)">
<use xlink:href="#k"/>
<use x="44.083984" xlink:href="#d"/>
<use x="105.607422" xlink:href="#h"/>
<use x="144.970703" xlink:href="#l"/>
<use x="242.382812" xlink:href="#j"/>
<use x="270.166016" xlink:href="#g"/>
<use x="333.544922" xlink:href="#f"/>
<use x="394.824219" xlink:href="#i"/>
</g>
</g>
<path d="m563.96 522.28v33.808q0 2.4 2.4 2.4h7.7425q2.4 0 2.4-2.4v-33.808q0-2.4-2.4-2.4h-7.7425q-2.4 0-2.4 2.4z" clip-path="url(#a)" fill="#fff" stroke="#fff"/>
<g clip-path="url(#a)">
<g transform="translate(568.03 522.28) rotate(90) scale(.08 -.08)">
<use xlink:href="#k"/>
<use x="44.083984" xlink:href="#d"/>
<use x="105.607422" xlink:href="#h"/>
<use x="144.970703" xlink:href="#l"/>
<use x="242.382812" xlink:href="#j"/>
<use x="270.166016" xlink:href="#g"/>
<use x="333.544922" xlink:href="#f"/>
<use x="394.824219" xlink:href="#i"/>
</g>
</g>
<path d="m1154.5 522.28v33.808q0 2.4 2.4 2.4h7.7425q2.4 0 2.4-2.4v-33.808q0-2.4-2.4-2.4h-7.7425q-2.4 0-2.4 2.4z" clip-path="url(#a)" fill="#fff" stroke="#fff"/>
<g clip-path="url(#a)">
<g transform="translate(1158.5 522.28) rotate(90) scale(.08 -.08)">
<use xlink:href="#k"/>
<use x="44.083984" xlink:href="#d"/>
<use x="105.607422" xlink:href="#h"/>
<use x="144.970703" xlink:href="#l"/>
<use x="242.382812" xlink:href="#j"/>
<use x="270.166016" xlink:href="#g"/>
<use x="333.544922" xlink:href="#f"/>
<use x="394.824219" xlink:href="#i"/>
</g>
</g>
<defs>
<path id="b" d="m0 8.6603c2.2967 0 4.4997-0.9125 6.1237-2.5365 1.624-1.624 2.5365-3.827 2.5365-6.1237s-0.9125-4.4997-2.5365-6.1237c-1.624-1.624-3.827-2.5365-6.1237-2.5365s-4.4997 0.9125-6.1237 2.5365c-1.624 1.624-2.5365 3.827-2.5365 6.1237s0.9125 4.4997 2.5365 6.1237c1.624 1.624 3.827 2.5365 6.1237 2.5365z"/>
</defs>
<g clip-path="url(#a)" fill="#ffffff" stroke="#ffffff">
<use x="55.272727" y="610.909091" xlink:href="#b"/>
<use x="65.571993" y="610.909091" xlink:href="#b"/>
<use x="79.304348" y="610.909091" xlink:href="#b"/>
<use x="96.469791" y="610.909091" xlink:href="#b"/>
<use x="117.068323" y="610.909091" xlink:href="#b"/>
<use x="141.099944" y="610.909091" xlink:href="#b"/>
<use x="168.564653" y="610.909091" xlink:href="#b"/>
<use x="199.462451" y="610.909091" xlink:href="#b"/>
<use x="233.793337" y="610.909091" xlink:href="#b"/>
<use x="271.557312" y="610.909091" xlink:href="#b"/>
<use x="312.754376" y="610.909091" xlink:href="#b"/>
<use x="357.384529" y="610.909091" xlink:href="#b"/>
<use x="405.44777" y="610.909091" xlink:href="#b"/>
<use x="456.944099" y="610.909091" xlink:href="#b"/>
<use x="511.873518" y="610.909091" xlink:href="#b"/>
<use x="570.236025" y="610.909091" xlink:href="#b"/>
<use x="632.031621" y="610.909091" xlink:href="#b"/>
<use x="697.260305" y="610.909091" xlink:href="#b"/>
<use x="765.922078" y="610.909091" xlink:href="#b"/>
<use x="838.01694" y="610.909091" xlink:href="#b"/>
<use x="913.54489" y="610.909091" xlink:href="#b"/>
<use x="992.505929" y="610.909091" xlink:href="#b"/>
<use x="1074.900056" y="610.909091" xlink:href="#b"/>
<use x="1160.727273" y="610.909091" xlink:href="#b"/>
<use x="395.148504" y="29.090909" xlink:href="#b"/>
<use x="55.272727" y="467.457061" xlink:href="#b"/>
<use x="105.338603" y="175.798991" xlink:href="#b"/>
<use x="178.863919" y="175.798991" xlink:href="#b"/>
<use x="471.534726" y="175.798991" xlink:href="#b"/>
<use x="632.031621" y="467.457061" xlink:href="#b"/>
<use x="951.881046" y="175.798991" xlink:href="#b"/>
<use x="731.591191" y="322.009456" xlink:href="#b"/>
<use x="838.01694" y="467.457061" xlink:href="#b"/>
<use x="913.54489" y="467.457061" xlink:href="#b"/>
<use x="992.505929" y="467.457061" xlink:href="#b"/>
<use x="1074.900056" y="467.457061" xlink:href="#b"/>
<use x="697.260305" y="467.457061" xlink:href="#b"/>
<use x="765.922078" y="467.457061" xlink:href="#b"/>
<use x="431.195935" y="322.009456" xlink:href="#b"/>
<use x="511.873518" y="467.457061" xlink:href="#b"/>
<use x="405.44777" y="467.457061" xlink:href="#b"/>
<use x="456.944099" y="467.457061" xlink:href="#b"/>
<use x="292.155844" y="322.009456" xlink:href="#b"/>
<use x="271.557312" y="467.457061" xlink:href="#b"/>
<use x="312.754376" y="467.457061" xlink:href="#b"/>
<use x="65.571993" y="467.457061" xlink:href="#b"/>
<use x="79.304348" y="467.457061" xlink:href="#b"/>
<use x="106.769057" y="467.457061" xlink:href="#b"/>
<use x="169.709016" y="322.009456" xlink:href="#b"/>
<use x="141.099944" y="467.457061" xlink:href="#b"/>
<use x="168.564653" y="467.457061" xlink:href="#b"/>
<use x="199.462451" y="467.457061" xlink:href="#b"/>
<use x="233.793337" y="467.457061" xlink:href="#b"/>
<use x="357.384529" y="467.457061" xlink:href="#b"/>
<use x="570.236025" y="467.457061" xlink:href="#b"/>
<use x="1160.727273" y="467.457061" xlink:href="#b"/>
</g>
<g clip-path="url(#a)">
<g transform="translate(40.915 613.67) scale(.1 -.1)">
<defs>
<path id="aq" d="m3.3281 72.906h9.9531l15.328-61.625 15.281 61.625h11.094l15.328-61.625 15.281 61.625h10.016l-18.312-72.906h-12.406l-15.375 63.281-15.531-63.281h-12.406z"/>
<path id="r" d="m54.891 33.016v-33.016h-8.9844v32.719q0 7.7656-3.0312 11.609-3.0312 3.8594-9.0781 3.8594-7.2812 0-11.484-4.6406-4.2031-4.625-4.2031-12.641v-30.906h-9.0312v75.984h9.0312v-29.797q3.2344 4.9375 7.5938 7.375 4.375 2.4375 10.094 2.4375 9.4219 0 14.25-5.8281 4.8438-5.8281 4.8438-17.156z"/>
</defs>
<use xlink:href="#aq"/>
<use x="98.876953" xlink:href="#r"/>
<use x="162.255859" xlink:href="#d"/>
<use x="223.779297" xlink:href="#g"/>
</g>
</g>
<g clip-path="url(#a)">
<g transform="translate(58.406 613.67) scale(.1 -.1)">
<defs>
<path id="as" d="m4.2031 54.688h8.9844l11.234-42.672 11.172 42.672h10.594l11.234-42.672 11.188 42.672h8.9844l-14.312-54.688h-10.594l-11.766 44.828-11.812-44.828h-10.609z"/>
</defs>
<use xlink:href="#as"/>
<use x="81.787109" xlink:href="#d"/>
</g>
</g>
<g clip-path="url(#a)">
<g transform="translate(69.897 613.67) scale(.1 -.1)">
<defs>
<path id="s" d="m45.406 46.391v29.594h8.9844v-75.984h-8.9844v8.2031q-2.8281-4.875-7.1562-7.25-4.3125-2.375-10.375-2.375-9.9062 0-16.141 7.9062-6.2188 7.9219-6.2188 20.812t6.2188 20.797q6.2344 7.9062 16.141 7.9062 6.0625 0 10.375-2.375 4.3281-2.3594 7.1562-7.2344zm-30.609-19.094q0-9.9062 4.0781-15.547t11.203-5.6406 11.219 5.6406q4.1094 5.6406 4.1094 15.547t-4.1094 15.547q-4.0938 5.6406-11.219 5.6406t-11.203-5.6406-4.0781-15.547z"/>
</defs>
<use xlink:href="#r"/>
<use x="63.378906" xlink:href="#f"/>
<use x="124.658203" xlink:href="#s"/>
</g>
</g>
<g clip-path="url(#a)">
<g transform="translate(76.686 613.67) scale(.1 -.1)">
<defs>
<path id="p" d="m18.312 70.219v-15.531h18.5v-6.9844h-18.5v-29.688q0-6.6875 1.8281-8.5938t7.4531-1.9062h9.2188v-7.5156h-9.2188q-10.406 0-14.359 3.875-3.9531 3.8906-3.9531 14.141v29.688h-6.5938v6.9844h6.5938v15.531z"/>
<path id="ae" d="m8.5 21.578v33.109h8.9844v-32.766q0-7.7656 3.0156-11.656 3.0312-3.875 9.0938-3.875 7.2656 0 11.484 4.6406 4.2344 4.6406 4.2344 12.656v31h8.9844v-54.688h-8.9844v8.4062q-3.2656-4.9844-7.5938-7.4062-4.3125-2.4219-10.031-2.4219-9.4219 0-14.312 5.8594-4.875 5.8594-4.875 17.141z"/>
<path id="af" d="m45.406 27.984q0 9.7656-4.0312 15.125-4.0156 5.375-11.297 5.375-7.2188 0-11.25-5.375-4.0312-5.3594-4.0312-15.125 0-9.7188 4.0312-15.094t11.25-5.375q7.2812 0 11.297 5.375 4.0312 5.375 4.0312 15.094zm8.9844-21.203q0-13.953-6.2031-20.766-6.1875-6.8125-18.984-6.8125-4.7344 0-8.9375 0.70312t-8.1562 2.1719v8.7344q3.9531-2.1406 7.8125-3.1562 3.8594-1.0312 7.8594-1.0312 8.8438 0 13.234 4.6094t4.3906 13.938v4.4531q-2.7812-4.8438-7.125-7.2344t-10.406-2.3906q-10.047 0-16.203 7.6562-6.1562 7.6719-6.1562 20.328 0 12.688 6.1562 20.344 6.1562 7.6719 16.203 7.6719 6.0625 0 10.406-2.3906t7.125-7.2188v8.2969h8.9844z"/>
</defs>
<use xlink:href="#p"/>
<use x="39.208984" xlink:href="#h"/>
<use x="80.322266" xlink:href="#ae"/>
<use x="143.701172" xlink:href="#s"/>
<use x="207.177734" xlink:href="#af"/>
<use x="270.654297" xlink:href="#d"/>
<use x="332.177734" xlink:href="#s"/>
</g>
</g>
<g clip-path="url(#a)">
<g transform="translate(103.21 613.67) scale(.1 -.1)">
<defs>
<path id="q" d="m30.609 48.391q-7.2188 0-11.422-5.6406t-4.2031-15.453 4.1719-15.453q4.1875-5.6406 11.453-5.6406 7.1875 0 11.375 5.6562 4.2031 5.6719 4.2031 15.438 0 9.7188-4.2031 15.406-4.1875 5.6875-11.375 5.6875zm0 7.6094q11.719 0 18.406-7.625 6.7031-7.6094 6.7031-21.078 0-13.422-6.7031-21.078-6.6875-7.6406-18.406-7.6406-11.766 0-18.438 7.6406-6.6562 7.6562-6.6562 21.078 0 13.469 6.6562 21.078 6.6719 7.625 18.438 7.625z"/>
</defs>
<use xlink:href="#f"/>
<use x="61.279297" xlink:href="#i"/>
<use x="89.0625" xlink:href="#q"/>
<use x="150.244141" xlink:href="#g"/>
<use x="213.623047" xlink:href="#af"/>
</g>
</g>
<g clip-path="url(#a)">
<g transform="translate(134.22 613.67) scale(.1 -.1)">
<defs>
<path id="ao" d="m37.109 75.984v-7.4844h-8.5938q-4.8281 0-6.7188-1.9531-1.875-1.9531-1.875-7.0312v-4.8281h14.797v-6.9844h-14.797v-47.703h-9.0312v47.703h-8.5938v6.9844h8.5938v3.8125q0 9.125 4.25 13.297 4.25 4.1875 13.469 4.1875z"/>
</defs>
<use xlink:href="#ao"/>
<use x="35.205078" xlink:href="#q"/>
<use x="96.386719" xlink:href="#h"/>
</g>
</g>
<g clip-path="url(#a)">
<g transform="translate(150.34 613.67) scale(.1 -.1)">
<defs>
<path id="o" d="m44.281 53.078v-8.5q-3.7969 1.9531-7.9062 2.9219-4.0938 0.98438-8.5 0.98438-6.6875 0-10.031-2.0469t-3.3438-6.1562q0-3.125 2.3906-4.9062t9.625-3.3906l3.0781-0.6875q9.5625-2.0469 13.594-5.7812t4.0312-10.422q0-7.625-6.0312-12.078-6.0312-4.4375-16.578-4.4375-4.3906 0-9.1562 0.85938t-10.031 2.5625v9.2812q4.9844-2.5938 9.8125-3.8906 4.8281-1.2812 9.5781-1.2812 6.3438 0 9.75 2.1719 3.4219 2.1719 3.4219 6.125 0 3.6562-2.4688 5.6094-2.4531 1.9531-10.812 3.7656l-3.125 0.73438q-8.3438 1.75-12.062 5.3906-3.7031 3.6406-3.7031 9.9844 0 7.7188 5.4688 11.906 5.4688 4.2031 15.531 4.2031 4.9688 0 9.3594-0.73438 4.4062-0.71875 8.1094-2.1875z"/>
<path id="at" d="m2.9844 54.688h9.5156l17.094-45.891 17.094 45.891h9.5156l-20.516-54.688h-12.203z"/>
</defs>
<use xlink:href="#o"/>
<use x="52.099609" xlink:href="#d"/>
<use x="113.623047" xlink:href="#at"/>
<use x="172.802734" xlink:href="#d"/>
<use x="234.326172" xlink:href="#h"/>
<use x="275.439453" xlink:href="#f"/>
<use x="336.71875" xlink:href="#i"/>
</g>
</g>
<g clip-path="url(#a)">
<g transform="translate(185.41 613.67) scale(.1 -.1)">
<use xlink:href="#r"/>
<use x="63.378906" xlink:href="#q"/>
<use x="124.560547" xlink:href="#ae"/>
<use x="187.939453" xlink:href="#h"/>
<use x="229.052734" xlink:href="#o"/>
</g>
</g>
<g clip-path="url(#a)">
<g transform="translate(232.2 613.67) scale(.1 -.1)">
<defs>
<path id="ad" d="m11.719 12.406h10.297v-8.4062l-8-15.625h-6.2969l4 15.625z"/>
</defs>
<use xlink:href="#ad"/>
</g>
</g>
<g clip-path="url(#a)">
<g transform="translate(267 613.67) scale(.1 -.1)">
<use xlink:href="#j"/>
<use x="27.783203" xlink:href="#g"/>
</g>
</g>
<g clip-path="url(#a)">
<g transform="translate(295.3 613.67) scale(.1 -.1)">
<defs>
<path id="ag" d="m48.781 52.594v-8.4062q-3.8125 2.1094-7.6406 3.1562t-7.7344 1.0469q-8.75 0-13.594-5.5469-4.8281-5.5312-4.8281-15.547t4.8281-15.562q4.8438-5.5312 13.594-5.5312 3.9062 0 7.7344 1.0469t7.6406 3.1562v-8.3125q-3.7656-1.75-7.7969-2.625-4.0156-0.89062-8.5625-0.89062-12.359 0-19.641 7.7656-7.2656 7.7656-7.2656 20.953 0 13.375 7.3438 21.031 7.3594 7.6719 20.156 7.6719 4.1406 0 8.0938-0.85938 3.9531-0.84375 7.6719-2.5469z"/>
</defs>
<use xlink:href="#o"/>
<use x="52.099609" xlink:href="#j"/>
<use x="79.882812" xlink:href="#i"/>
<use x="107.666016" xlink:href="#d"/>
<use x="169.189453" xlink:href="#g"/>
<use x="232.568359" xlink:href="#ag"/>
<use x="287.548828" xlink:href="#d"/>
</g>
</g>
<g clip-path="url(#a)">
<g transform="translate(355.8 613.67) scale(.1 -.1)">
<use xlink:href="#ad"/>
</g>
</g>
<g clip-path="url(#a)">
<g transform="translate(397.24 613.67) scale(.1 -.1)">
<use xlink:href="#p"/>
<use x="39.208984" xlink:href="#r"/>
<use x="102.587891" xlink:href="#d"/>
</g>
</g>
<g clip-path="url(#a)">
<g transform="translate(434.3 613.67) scale(.1 -.1)">
<defs>
<path id="au" d="m9.0781 75.984h9.0312v-44.875l26.812 23.578h11.469l-29-25.578 30.234-29.109h-11.719l-27.797 26.703v-26.703h-9.0312z"/>
</defs>
<use xlink:href="#s"/>
<use x="63.476562" xlink:href="#f"/>
<use x="124.755859" xlink:href="#h"/>
<use x="165.869141" xlink:href="#au"/>
<use x="223.779297" xlink:href="#g"/>
<use x="287.158203" xlink:href="#d"/>
<use x="348.681641" xlink:href="#o"/>
<use x="400.78125" xlink:href="#o"/>
</g>
</g>
<g clip-path="url(#a)">
<g transform="translate(504.26 613.67) scale(.1 -.1)">
<use xlink:href="#ao"/>
<use x="35.205078" xlink:href="#d"/>
<use x="96.728516" xlink:href="#i"/>
<use x="124.511719" xlink:href="#i"/>
</g>
</g>
<g clip-path="url(#a)">
<g transform="translate(568.65 613.67) scale(.1 -.1)">
<use xlink:href="#ad"/>
</g>
</g>
<g clip-path="url(#a)">
<g transform="translate(622.62 613.67) scale(.1 -.1)">
<use xlink:href="#f"/>
<use x="61.279297" xlink:href="#g"/>
<use x="124.658203" xlink:href="#s"/>
</g>
</g>
<g clip-path="url(#a)">
<g transform="translate(689.05 613.67) scale(.1 -.1)">
<use xlink:href="#p"/>
<use x="39.208984" xlink:href="#r"/>
<use x="102.587891" xlink:href="#d"/>
</g>
</g>
<g clip-path="url(#a)">
<g transform="translate(753.63 613.67) scale(.1 -.1)">
<use xlink:href="#o"/>
<use x="52.099609" xlink:href="#p"/>
<use x="91.308594" xlink:href="#f"/>
<use x="152.587891" xlink:href="#h"/>
<use x="193.701172" xlink:href="#o"/>
</g>
</g>
<g clip-path="url(#a)">
<g transform="translate(822.36 613.67) scale(.1 -.1)">
<defs>
<path id="ap" d="m48.688 27.297q0 9.9062-4.0781 15.547t-11.203 5.6406q-7.1406 0-11.219-5.6406t-4.0781-15.547 4.0781-15.547 11.219-5.6406q7.125 0 11.203 5.6406t4.0781 15.547zm-30.578 19.094q2.8438 4.875 7.1562 7.2344 4.3281 2.375 10.328 2.375 9.9688 0 16.188-7.9062 6.2344-7.9062 6.2344-20.797t-6.2344-20.812q-6.2188-7.9062-16.188-7.9062-6 0-10.328 2.375-4.3125 2.375-7.1562 7.25v-8.2031h-9.0312v75.984h9.0312z"/>
</defs>
<use xlink:href="#ap"/>
<use x="63.476562" xlink:href="#d"/>
<use x="125" xlink:href="#af"/>
<use x="188.476562" xlink:href="#f"/>
<use x="249.755859" xlink:href="#g"/>
</g>
</g>
<g clip-path="url(#a)">
<g transform="translate(908.53 613.67) scale(.1 -.1)">
<use xlink:href="#p"/>
<use x="39.208984" xlink:href="#q"/>
</g>
</g>
<g clip-path="url(#a)">
<g transform="translate(978.75 613.67) scale(.1 -.1)">
<use xlink:href="#ag"/>
<use x="54.980469" xlink:href="#q"/>
<use x="116.162109" xlink:href="#l"/>
<use x="213.574219" xlink:href="#d"/>
</g>
</g>
<g clip-path="url(#a)">
<g transform="translate(1066.7 613.67) scale(.1 -.1)">
<use xlink:href="#q"/>
<use x="61.181641" xlink:href="#ae"/>
<use x="124.560547" xlink:href="#p"/>
</g>
</g>
<g clip-path="url(#a)">
<g transform="translate(1159.1 613.67) scale(.1 -.1)">
<defs>
<path id="e" d="m10.688 12.406h10.312v-12.406h-10.312z"/>
</defs>
<use xlink:href="#e"/>
</g>
</g>
<g clip-path="url(#a)">
<g transform="translate(387.2 31.85) scale(.1 -.1)">
<defs>
<path id="c" d="m12.406 8.2969h16.109v55.625l-17.531-3.5156v8.9844l17.438 3.5156h9.8594v-64.609h16.109v-8.2969h-41.984z"/>
</defs>
<use xlink:href="#c"/>
<use x="63.623047" xlink:href="#e"/>
<use x="95.410156" xlink:href="#c"/>
</g>
</g>
<g clip-path="url(#a)">
<g transform="translate(47.321 470.22) scale(.1 -.1)">
<defs>
<path id="m" d="m19.188 8.2969h34.422v-8.2969h-46.281v8.2969q5.6094 5.8125 15.297 15.594 9.7031 9.7969 12.188 12.641 4.7344 5.3125 6.6094 9 1.8906 3.6875 1.8906 7.25 0 5.8125-4.0781 9.4688-4.0781 3.6719-10.625 3.6719-4.6406 0-9.7969-1.6094-5.1406-1.6094-11-4.8906v9.9688q5.9531 2.3906 11.125 3.6094 5.1875 1.2188 9.4844 1.2188 11.328 0 18.062-5.6719 6.7344-5.6562 6.7344-15.125 0-4.5-1.6875-8.5312-1.6719-4.0156-6.125-9.4844-1.2188-1.4219-7.7656-8.1875-6.5312-6.7656-18.453-18.922z"/>
</defs>
<use xlink:href="#c"/>
<use x="63.623047" xlink:href="#e"/>
<use x="95.410156" xlink:href="#m"/>
</g>
</g>
<g clip-path="url(#a)">
<g transform="translate(97.387 178.56) scale(.1 -.1)">
<defs>
<path id="n" d="m40.578 39.312q7.0781-1.5156 11.047-6.3125 3.9844-4.7812 3.9844-11.812 0-10.781-7.4219-16.703-7.4219-5.9062-21.094-5.9062-4.5781 0-9.4375 0.90625t-10.031 2.7188v9.5156q4.0938-2.3906 8.9688-3.6094 4.8906-1.2188 10.219-1.2188 9.2656 0 14.125 3.6562t4.8594 10.641q0 6.4531-4.5156 10.078-4.5156 3.6406-12.562 3.6406h-8.5v8.1094h8.8906q7.2656 0 11.125 2.9062t3.8594 8.375q0 5.6094-3.9844 8.6094-3.9688 3.0156-11.391 3.0156-4.0625 0-8.7031-0.89062-4.6406-0.875-10.203-2.7188v8.7812q5.625 1.5625 10.531 2.3438t9.25 0.78125q11.234 0 17.766-5.1094 6.5469-5.0938 6.5469-13.781 0-6.0625-3.4688-10.234t-9.8594-5.7812z"/>
</defs>
<use xlink:href="#c"/>
<use x="63.623047" xlink:href="#e"/>
<use x="95.410156" xlink:href="#n"/>
</g>
</g>
<g clip-path="url(#a)">
<g transform="translate(170.91 178.56) scale(.1 -.1)">
<defs>
<path id="y" d="m37.797 64.312-24.906-38.922h24.906zm-2.5938 8.5938h12.406v-47.516h10.406v-8.2031h-10.406v-17.188h-9.8125v17.188h-32.906v9.5156z"/>
</defs>
<use xlink:href="#c"/>
<use x="63.623047" xlink:href="#e"/>
<use x="95.410156" xlink:href="#y"/>
</g>
</g>
<g clip-path="url(#a)">
<g transform="translate(463.58 178.56) scale(.1 -.1)">
<defs>
<path id="x" d="m10.797 72.906h38.719v-8.3125h-29.688v-17.859q2.1406 0.73438 4.2812 1.0938 2.1562 0.35938 4.3125 0.35938 12.203 0 19.328-6.6875 7.1406-6.6875 7.1406-18.109 0-11.766-7.3281-18.297-7.3281-6.5156-20.656-6.5156-4.5938 0-9.3594 0.78125-4.75 0.78125-9.8281 2.3438v9.9219q4.3906-2.3906 9.0781-3.5625t9.9062-1.1719q8.4531 0 13.375 4.4375 4.9375 4.4375 4.9375 12.062 0 7.6094-4.9375 12.047-4.9219 4.4531-13.375 4.4531-3.9531 0-7.8906-0.875-3.9219-0.875-8.0156-2.7344z"/>
</defs>
<use xlink:href="#c"/>
<use x="63.623047" xlink:href="#e"/>
<use x="95.410156" xlink:href="#x"/>
</g>
</g>
<g clip-path="url(#a)">
<g transform="translate(624.08 470.22) scale(.1 -.1)">
<defs>
<path id="ac" d="m33.016 40.375q-6.6406 0-10.531-4.5469-3.875-4.5312-3.875-12.438 0-7.8594 3.875-12.438 3.8906-4.5625 10.531-4.5625t10.516 4.5625q3.875 4.5781 3.875 12.438 0 7.9062-3.875 12.438-3.875 4.5469-10.516 4.5469zm19.578 30.922v-8.9844q-3.7188 1.75-7.5 2.6719-3.7812 0.9375-7.5 0.9375-9.7656 0-14.922-6.5938-5.1406-6.5938-5.875-19.922 2.875 4.25 7.2188 6.5156 4.3594 2.2656 9.5781 2.2656 10.984 0 17.359-6.6719 6.375-6.6562 6.375-18.125 0-11.234-6.6406-18.031-6.6406-6.7812-17.672-6.7812-12.656 0-19.344 9.6875-6.6875 9.7031-6.6875 28.109 0 17.281 8.2031 27.562t22.016 10.281q3.7188 0 7.5-0.73438t7.8906-2.1875z"/>
</defs>
<use xlink:href="#c"/>
<use x="63.623047" xlink:href="#e"/>
<use x="95.410156" xlink:href="#ac"/>
</g>
</g>
<g clip-path="url(#a)">
<g transform="translate(943.93 178.56) scale(.1 -.1)">
<defs>
<path id="ab" d="m8.2031 72.906h46.875v-4.2031l-26.469-68.703h-10.297l24.906 64.594h-35.016z"/>
</defs>
<use xlink:href="#c"/>
<use x="63.623047" xlink:href="#e"/>
<use x="95.410156" xlink:href="#ab"/>
</g>
</g>
<g clip-path="url(#a)">
<g transform="translate(720.46 324.77) scale(.1 -.1)">
<use xlink:href="#c"/>
<use x="63.623047" xlink:href="#e"/>
<use x="95.410156" xlink:href="#c"/>
<use x="159.033203" xlink:href="#c"/>
</g>
</g>
<g clip-path="url(#a)">
<g transform="translate(826.88 470.22) scale(.1 -.1)">
<use xlink:href="#c"/>
<use x="63.623047" xlink:href="#e"/>
<use x="95.410156" xlink:href="#c"/>
<use x="159.033203" xlink:href="#m"/>
</g>
</g>
<g clip-path="url(#a)">
<g transform="translate(902.41 470.22) scale(.1 -.1)">
<use xlink:href="#c"/>
<use x="63.623047" xlink:href="#e"/>
<use x="95.410156" xlink:href="#c"/>
<use x="159.033203" xlink:href="#n"/>
</g>
</g>
<g clip-path="url(#a)">
<g transform="translate(981.37 470.22) scale(.1 -.1)">
<use xlink:href="#c"/>
<use x="63.623047" xlink:href="#e"/>
<use x="95.410156" xlink:href="#c"/>
<use x="159.033203" xlink:href="#y"/>
</g>
</g>
<g clip-path="url(#a)">
<g transform="translate(1063.8 470.22) scale(.1 -.1)">
<use xlink:href="#c"/>
<use x="63.623047" xlink:href="#e"/>
<use x="95.410156" xlink:href="#c"/>
<use x="159.033203" xlink:href="#x"/>
</g>
</g>
<g clip-path="url(#a)">
<g transform="translate(686.13 470.22) scale(.1 -.1)">
<use xlink:href="#c"/>
<use x="63.623047" xlink:href="#e"/>
<use x="95.410156" xlink:href="#c"/>
<use x="159.033203" xlink:href="#ab"/>
</g>
</g>
<g clip-path="url(#a)">
<g transform="translate(754.79 470.22) scale(.1 -.1)">
<defs>
<path id="am" d="m31.781 34.625q-7.0312 0-11.062-3.7656-4.0156-3.7656-4.0156-10.344 0-6.5938 4.0156-10.359 4.0312-3.7656 11.062-3.7656t11.078 3.7812q4.0625 3.7969 4.0625 10.344 0 6.5781-4.0312 10.344-4.0156 3.7656-11.109 3.7656zm-9.8594 4.1875q-6.3438 1.5625-9.8906 5.9062-3.5312 4.3594-3.5312 10.609 0 8.7344 6.2188 13.812 6.2344 5.0781 17.062 5.0781 10.891 0 17.094-5.0781t6.2031-13.812q0-6.25-3.5469-10.609-3.5312-4.3438-9.8281-5.9062 7.125-1.6562 11.094-6.5 3.9844-4.8281 3.9844-11.797 0-10.609-6.4688-16.281-6.4688-5.6562-18.531-5.6562-12.047 0-18.531 5.6562-6.4688 5.6719-6.4688 16.281 0 6.9688 4 11.797 4.0156 4.8438 11.141 6.5zm-3.6094 15.578q0-5.6562 3.5312-8.8281 3.5469-3.1719 9.9375-3.1719 6.3594 0 9.9375 3.1719 3.5938 3.1719 3.5938 8.8281 0 5.6719-3.5938 8.8438-3.5781 3.1719-9.9375 3.1719-6.3906 0-9.9375-3.1719-3.5312-3.1719-3.5312-8.8438z"/>
</defs>
<use xlink:href="#c"/>
<use x="63.623047" xlink:href="#e"/>
<use x="95.410156" xlink:href="#c"/>
<use x="159.033203" xlink:href="#am"/>
</g>
</g>
<g clip-path="url(#a)">
<g transform="translate(420.06 324.77) scale(.1 -.1)">
<defs>
<path id="al" d="m10.984 1.5156v8.9844q3.7188-1.7656 7.5156-2.6875 3.8125-0.92188 7.4844-0.92188 9.7656 0 14.906 6.5625 5.1562 6.5625 5.8906 19.953-2.8281-4.2031-7.1875-6.4531-4.3438-2.25-9.6094-2.25-10.938 0-17.312 6.6094-6.375 6.625-6.375 18.109 0 11.219 6.6406 18 6.6406 6.7969 17.672 6.7969 12.656 0 19.312-9.7031 6.6719-9.6875 6.6719-28.141 0-17.234-8.1875-27.516-8.1719-10.281-21.984-10.281-3.7188 0-7.5312 0.73438-3.7969 0.73438-7.9062 2.2031zm19.625 30.906q6.6406 0 10.516 4.5312 3.8906 4.5469 3.8906 12.469 0 7.8594-3.8906 12.422-3.875 4.5625-10.516 4.5625t-10.516-4.5625-3.875-12.422q0-7.9219 3.875-12.469 3.875-4.5312 10.516-4.5312z"/>
</defs>
<use xlink:href="#c"/>
<use x="63.623047" xlink:href="#e"/>
<use x="95.410156" xlink:href="#c"/>
<use x="159.033203" xlink:href="#al"/>
</g>
</g>
<g clip-path="url(#a)">
<g transform="translate(500.74 470.22) scale(.1 -.1)">
<defs>
<path id="an" d="m31.781 66.406q-7.6094 0-11.453-7.5-3.8281-7.4844-3.8281-22.531 0-14.984 3.8281-22.484 3.8438-7.5 11.453-7.5 7.6719 0 11.5 7.5 3.8438 7.5 3.8438 22.484 0 15.047-3.8438 22.531-3.8281 7.5-11.5 7.5zm0 7.8125q12.266 0 18.734-9.7031 6.4688-9.6875 6.4688-28.141 0-18.406-6.4688-28.109-6.4688-9.6875-18.734-9.6875-12.25 0-18.719 9.6875-6.4688 9.7031-6.4688 28.109 0 18.453 6.4688 28.141 6.4688 9.7031 18.719 9.7031z"/>
</defs>
<use xlink:href="#c"/>
<use x="63.623047" xlink:href="#e"/>
<use x="95.410156" xlink:href="#m"/>
<use x="159.033203" xlink:href="#an"/>
</g>
</g>
<g clip-path="url(#a)">
<g transform="translate(394.31 470.22) scale(.1 -.1)">
<use xlink:href="#c"/>
<use x="63.623047" xlink:href="#e"/>
<use x="95.410156" xlink:href="#m"/>
<use x="159.033203" xlink:href="#c"/>
</g>
</g>
<g clip-path="url(#a)">
<g transform="translate(445.81 470.22) scale(.1 -.1)">
<use xlink:href="#c"/>
<use x="63.623047" xlink:href="#e"/>
<use x="95.410156" xlink:href="#m"/>
<use x="159.033203" xlink:href="#m"/>
</g>
</g>
<g clip-path="url(#a)">
<g transform="translate(281.02 324.77) scale(.1 -.1)">
<use xlink:href="#c"/>
<use x="63.623047" xlink:href="#e"/>
<use x="95.410156" xlink:href="#m"/>
<use x="159.033203" xlink:href="#n"/>
</g>
</g>
<g clip-path="url(#a)">
<g transform="translate(260.42 470.22) scale(.1 -.1)">
<use xlink:href="#c"/>
<use x="63.623047" xlink:href="#e"/>
<use x="95.410156" xlink:href="#m"/>
<use x="159.033203" xlink:href="#y"/>
</g>
</g>
<g clip-path="url(#a)">
<g transform="translate(301.62 470.22) scale(.1 -.1)">
<use xlink:href="#c"/>
<use x="63.623047" xlink:href="#e"/>
<use x="95.410156" xlink:href="#m"/>
<use x="159.033203" xlink:href="#x"/>
</g>
</g>
<g clip-path="url(#a)">
<g transform="translate(54.439 470.22) scale(.1 -.1)">
<use xlink:href="#c"/>
<use x="63.623047" xlink:href="#e"/>
<use x="95.410156" xlink:href="#m"/>
<use x="159.033203" xlink:href="#ac"/>
</g>
</g>
<g clip-path="url(#a)">
<g transform="translate(68.172 470.22) scale(.1 -.1)">
<use xlink:href="#c"/>
<use x="63.623047" xlink:href="#e"/>
<use x="95.410156" xlink:href="#m"/>
<use x="159.033203" xlink:href="#ab"/>
</g>
</g>
<g clip-path="url(#a)">
<g transform="translate(95.636 470.22) scale(.1 -.1)">
<use xlink:href="#c"/>
<use x="63.623047" xlink:href="#e"/>
<use x="95.410156" xlink:href="#m"/>
<use x="159.033203" xlink:href="#am"/>
</g>
</g>
<g clip-path="url(#a)">
<g transform="translate(158.58 324.77) scale(.1 -.1)">
<use xlink:href="#c"/>
<use x="63.623047" xlink:href="#e"/>
<use x="95.410156" xlink:href="#m"/>
<use x="159.033203" xlink:href="#al"/>
</g>
</g>
<g clip-path="url(#a)">
<g transform="translate(129.97 470.22) scale(.1 -.1)">
<use xlink:href="#c"/>
<use x="63.623047" xlink:href="#e"/>
<use x="95.410156" xlink:href="#n"/>
<use x="159.033203" xlink:href="#an"/>
</g>
</g>
<g clip-path="url(#a)">
<g transform="translate(157.43 470.22) scale(.1 -.1)">
<use xlink:href="#c"/>
<use x="63.623047" xlink:href="#e"/>
<use x="95.410156" xlink:href="#n"/>
<use x="159.033203" xlink:href="#c"/>
</g>
</g>
<g clip-path="url(#a)">
<g transform="translate(188.33 470.22) scale(.1 -.1)">
<use xlink:href="#c"/>
<use x="63.623047" xlink:href="#e"/>
<use x="95.410156" xlink:href="#n"/>
<use x="159.033203" xlink:href="#m"/>
</g>
</g>
<g clip-path="url(#a)">
<g transform="translate(222.66 470.22) scale(.1 -.1)">
<use xlink:href="#c"/>
<use x="63.623047" xlink:href="#e"/>
<use x="95.410156" xlink:href="#n"/>
<use x="159.033203" xlink:href="#n"/>
</g>
</g>
<g clip-path="url(#a)">
<g transform="translate(346.25 470.22) scale(.1 -.1)">
<use xlink:href="#c"/>
<use x="63.623047" xlink:href="#e"/>
<use x="95.410156" xlink:href="#n"/>
<use x="159.033203" xlink:href="#y"/>
</g>
</g>
<g clip-path="url(#a)">
<g transform="translate(559.1 470.22) scale(.1 -.1)">
<use xlink:href="#c"/>
<use x="63.623047" xlink:href="#e"/>
<use x="95.410156" xlink:href="#n"/>
<use x="159.033203" xlink:href="#x"/>
</g>
</g>
<g clip-path="url(#a)">
<g transform="translate(1149.6 470.22) scale(.1 -.1)">
<use xlink:href="#c"/>
<use x="63.623047" xlink:href="#e"/>
<use x="95.410156" xlink:href="#n"/>
<use x="159.033203" xlink:href="#ac"/>
</g>
</g>
<defs>
<clipPath id="a">
<rect width="1216" height="640"/>
</clipPath>
</defs>
</svg>
