<?xml version="1.0" encoding="UTF-8"?>
<!DOCTYPE svg  PUBLIC '-//W3C//DTD SVG 1.1//EN'  'http://www.w3.org/Graphics/SVG/1.1/DTD/svg11.dtd'>
<svg width="1013.3pt" height="533.33pt" version="1.1" viewBox="0 0 1013.3 533.33" xmlns="http://www.w3.org/2000/svg" xmlns:xlink="http://www.w3.org/1999/xlink">
<metadata>
<rdf:RDF xmlns:cc="http://creativecommons.org/ns#" xmlns:dc="http://purl.org/dc/elements/1.1/" xmlns:rdf="http://www.w3.org/1999/02/22-rdf-syntax-ns#">
<cc:Work>
<dc:type rdf:resource="http://purl.org/dc/dcmitype/StillImage"/>
<dc:date>2021-02-09T20:39:46.716273</dc:date>
<dc:format>image/svg+xml</dc:format>
<dc:creator>
<cc:Agent>
<dc:title>Matplotlib v3.3.3, https://matplotlib.org/</dc:title>
</cc:Agent>
</dc:creator>
</cc:Work>
</rdf:RDF>
</metadata>
<defs>
<style type="text/css">*{stroke-linecap:butt;stroke-linejoin:round;}</style>
</defs>
<path d="m0 533.33h1013.3v-533.33h-1013.3z" fill="#fff"/>
<g fill="none" stroke="#000">
<path d="m272.96 24.242-179.3 195.42" clip-path="url(#a)"/>
<path d="m272.96 24.242-57.946 389.43" clip-path="url(#a)"/>
<path d="m272.96 24.242-44.872 292.68" clip-path="url(#a)"/>
<path d="m272.96 24.242 434.21 97.834" clip-path="url(#a)"/>
<path d="m272.96 24.242-226.9 389.43" clip-path="url(#a)"/>
<path d="m272.96 24.242 74.805 389.43" clip-path="url(#a)"/>
<path d="m93.663 219.66-35.534 194.01" clip-path="url(#a)"/>
<path d="m93.663 219.66-19.443 194.01" clip-path="url(#a)"/>
<path d="m93.663 219.66 0.67046 194.01" clip-path="url(#a)"/>
<path d="m93.663 219.66 54.307 97.256" clip-path="url(#a)"/>
<path d="m215.02 413.67v95.422" clip-path="url(#a)"/>
<path d="m228.09 316.92 49.279 96.749" clip-path="url(#a)"/>
<path d="m228.09 316.92-49.279 96.749" clip-path="url(#a)" stroke-dasharray="3.7,1.6"/>
<path d="m707.18 122.08-192.97 97.587" clip-path="url(#a)"/>
<path d="m707.18 122.08-53.679 291.59" clip-path="url(#a)"/>
<path d="m707.18 122.08 151.48 194.84" clip-path="url(#a)"/>
<path d="m707.18 122.08 95.163 291.59" clip-path="url(#a)"/>
<path d="m514.21 219.66-114.15 194.01" clip-path="url(#a)"/>
<path d="m514.21 219.66 6.537 97.256" clip-path="url(#a)"/>
<path d="m514.21 219.66 36.708 97.256" clip-path="url(#a)"/>
<path d="m514.21 219.66 70.901 194.01" clip-path="url(#a)"/>
<path d="m653.5 413.67v95.422" clip-path="url(#a)"/>
<path d="m858.66 316.92-132.75 96.749" clip-path="url(#a)"/>
<path d="m858.66 316.92 24.137 96.749" clip-path="url(#a)"/>
<path d="m858.66 316.92 108.61 96.749" clip-path="url(#a)"/>
<path d="m802.34 413.67v95.422" clip-path="url(#a)"/>
<path d="m725.91 413.67v95.422" clip-path="url(#a)"/>
<path d="m882.79 413.67v95.422" clip-path="url(#a)"/>
<path d="m400.06 413.67v95.422" clip-path="url(#a)"/>
<path d="m520.75 316.92 64.364 96.749" clip-path="url(#a)" stroke-dasharray="3.7,1.6"/>
<path d="m520.75 316.92-64.364 96.749" clip-path="url(#a)"/>
<path d="m550.92 316.92 34.193 96.749" clip-path="url(#a)" stroke-dasharray="3.7,1.6"/>
<path d="m550.92 316.92-30.171 96.749" clip-path="url(#a)"/>
<path d="m550.92 316.92-34.193 96.749" clip-path="url(#a)"/>
<path d="m585.11 413.67v95.422" clip-path="url(#a)"/>
<path d="m516.72 413.67v95.422" clip-path="url(#a)"/>
<path d="m456.38 413.67v95.422" clip-path="url(#a)"/>
<path d="m277.37 413.67-22.125 95.422" clip-path="url(#a)"/>
<path d="m277.37 413.67 22.125 95.422" clip-path="url(#a)"/>
<path d="m58.129 413.67v95.422" clip-path="url(#a)"/>
<path d="m74.22 413.67v95.422" clip-path="url(#a)"/>
<path d="m94.334 413.67v95.422" clip-path="url(#a)"/>
<path d="m147.97 316.92-29.5 96.749" clip-path="url(#a)"/>
<path d="m147.97 316.92-1.3409 96.749" clip-path="url(#a)"/>
<path d="m147.97 316.92 30.841 96.749" clip-path="url(#a)"/>
<path d="m118.47 413.67v95.422" clip-path="url(#a)"/>
<path d="m146.63 413.67v95.422" clip-path="url(#a)"/>
<path d="m178.81 413.67v95.422" clip-path="url(#a)"/>
<path d="m46.061 413.67v95.422" clip-path="url(#a)"/>
<path d="m347.77 413.67v95.422" clip-path="url(#a)"/>
<path d="m967.27 413.67v95.422" clip-path="url(#a)"/>
</g>
<path d="m185.9 128.41 4.0673-4.4331q1.6225-1.7684-0.1459-3.391l-5.705-5.2344q-1.7684-1.6225-3.391 0.1459l-4.0673 4.4331q-1.6225 1.7684 0.1459 3.391l5.705 5.2344q1.7684 1.6225 3.391-0.1459z" clip-path="url(#a)" fill="#fff" stroke="#fff"/>
<g clip-path="url(#a)">
<g transform="translate(182.91 125.66) rotate(-47.464) scale(.08 -.08)">
<defs>
<path id="y" d="m9.8125 72.906h9.8594v-29.891h35.844v29.891h9.8594v-72.906h-9.8594v34.719h-35.844v-34.719h-9.8594z"/>
</defs>
<use xlink:href="#y"/>
</g>
</g>
<path d="m249.86 222.08 0.65604-4.409q0.35323-2.3739-2.0206-2.7271l-7.6582-1.1395q-2.3739-0.35323-2.7271 2.0206l-0.65604 4.409q-0.35323 2.3739 2.0206 2.7271l7.6582 1.1395q2.3739 0.35323 2.7271-2.0206z" clip-path="url(#a)" fill="#fff" stroke="#fff"/>
<g clip-path="url(#a)">
<g transform="translate(245.84 221.49) rotate(-81.537) scale(.08 -.08)">
<defs>
<path id="ag" d="m9.8125 72.906h9.8594v-64.609h35.5v-8.2969h-45.359z"/>
</defs>
<use xlink:href="#ag"/>
</g>
</g>
<path d="m256.27 174.51 0.91173-5.9468q0.36371-2.3723-2.0086-2.736l-7.6531-1.1733q-2.3723-0.36371-2.736 2.0086l-0.91173 5.9468q-0.36371 2.3723 2.0086 2.736l7.6531 1.1733q2.3723 0.36371 2.736-2.0086z" clip-path="url(#a)" fill="#fff" stroke="#fff"/>
<g clip-path="url(#a)">
<g transform="translate(252.25 173.89) rotate(-81.284) scale(.08 -.08)">
<use xlink:href="#y"/>
</g>
</g>
<path d="m485.76 78.616 5.8691 1.3224q2.3413 0.52753 2.8688-1.8138l1.7018-7.5532q0.52753-2.3413-1.8138-2.8688l-5.8691-1.3224q-2.3413-0.52753-2.8688 1.8138l-1.7018 7.5532q-0.52753 2.3413 1.8138 2.8688z" clip-path="url(#a)" fill="#fff" stroke="#fff"/>
<g clip-path="url(#a)">
<g transform="translate(486.65 74.652) rotate(12.697) scale(.08 -.08)">
<use xlink:href="#y"/>
</g>
</g>
<path d="m163.46 224.64 2.9476-5.0589q1.2082-2.0737-0.86544-3.2819l-6.6898-3.8978q-2.0737-1.2082-3.2819 0.86544l-2.9476 5.0589q-1.2082 2.0737 0.86544 3.2819l6.6898 3.8978q2.0737 1.2082 3.2819-0.86544z" clip-path="url(#a)" fill="#fff" stroke="#fff"/>
<g clip-path="url(#a)">
<g transform="translate(159.95 222.6) rotate(-59.773) scale(.08 -.08)">
<defs>
<path id="w" d="m8.6875 72.906h9.9219v-44.297q0-11.719 4.2344-16.875 4.25-5.1406 13.781-5.1406 9.4688 0 13.719 5.1406 4.25 5.1562 4.25 16.875v44.297h9.9062v-45.516q0-14.25-7.0625-21.531-7.0469-7.2812-20.812-7.2812-13.828 0-20.891 7.2812-7.0469 7.2812-7.0469 21.531z"/>
</defs>
<use xlink:href="#w"/>
</g>
</g>
<path d="m303.65 217.26 1.1045 5.7499q0.45274 2.3569 2.8096 1.9042l7.6035-1.4606q2.3569-0.45274 1.9042-2.8096l-1.1045-5.7499q-0.45274-2.3569-2.8096-1.9042l-7.6035 1.4606q-2.3569 0.45274-1.9042 2.8096z" clip-path="url(#a)" fill="#fff" stroke="#fff"/>
<g clip-path="url(#a)">
<g transform="translate(307.64 216.5) rotate(79.126) scale(.08 -.08)">
<use xlink:href="#w"/>
</g>
</g>
<path d="m81.572 320.49 0.98595-5.383q0.4324-2.3607-1.9283-2.7931l-7.6158-1.3949q-2.3607-0.4324-2.7931 1.9283l-0.98595 5.383q-0.4324 2.3607 1.9283 2.7931l7.6158 1.3949q2.3607 0.4324 2.7931-1.9283z" clip-path="url(#a)" fill="#fff" stroke="#fff"/>
<g clip-path="url(#a)">
<g transform="translate(77.574 319.76) rotate(-79.621) scale(.08 -.08)">
<defs>
<path id="o" d="m34.188 63.188-13.391-36.281h26.812zm-5.5781 9.7188h11.188l27.781-72.906h-10.25l-6.6406 18.703h-32.859l-6.6406-18.703h-10.406z"/>
</defs>
<use xlink:href="#o"/>
</g>
</g>
<path d="m89.928 319.82 0.50646-5.0534q0.23933-2.388-2.1487-2.6274l-7.7039-0.77209q-2.388-0.23933-2.6274 2.1487l-0.50646 5.0534q-0.23933 2.388 2.1487 2.6274l7.7039 0.77209q2.388 0.23933 2.6274-2.1487z" clip-path="url(#a)" fill="#fff" stroke="#fff"/>
<g clip-path="url(#a)">
<g transform="translate(85.885 319.41) rotate(-84.277) scale(.08 -.08)">
<defs>
<path id="q" d="m53.516 70.516v-9.625q-5.6094 2.6875-10.594 4-4.9844 1.3281-9.625 1.3281-8.0469 0-12.422-3.125t-4.375-8.8906q0-4.8438 2.9062-7.3125 2.9062-2.4531 11.016-3.9688l5.9531-1.2188q11.031-2.1094 16.281-7.4062t5.25-14.172q0-10.609-7.1094-16.078-7.0938-5.4688-20.812-5.4688-5.1719 0-11.016 1.1719-5.8281 1.1719-12.078 3.4688v10.156q6-3.3594 11.766-5.0781 5.7656-1.7031 11.328-1.7031 8.4375 0 13.031 3.3125 4.5938 3.3281 4.5938 9.4844 0 5.3594-3.2969 8.3906t-10.812 4.5469l-6.0156 1.1719q-11.031 2.1875-15.969 6.875-4.9219 4.6875-4.9219 13.047 0 9.6719 6.8125 15.234t18.766 5.5625q5.1406 0 10.453-0.9375 5.3281-0.92188 10.891-2.7656z"/>
</defs>
<use xlink:href="#q"/>
</g>
</g>
<path d="m87.719 314.39 0.015901 4.6012q0.008294 2.4 2.4083 2.3917l7.7425-0.026757q2.4-0.008294 2.3917-2.4083l-0.015901-4.6012q-0.008294-2.4-2.4083-2.3917l-7.7425 0.026757q-2.4 0.008294-2.3917 2.4083z" clip-path="url(#a)" fill="#fff" stroke="#fff"/>
<g clip-path="url(#a)">
<g transform="translate(91.783 314.37) rotate(89.802) scale(.08 -.08)">
<defs>
<path id="s" d="m9.8125 72.906h41.891v-8.3125h-32.031v-21.484h28.906v-8.2969h-28.906v-34.812h-9.8594z"/>
</defs>
<use xlink:href="#s"/>
</g>
</g>
<path d="m113.84 268.66 3.0032 5.3783q1.1701 2.0954 3.2655 0.92536l6.76-3.7747q2.0954-1.1701 0.92537-3.2655l-3.0032-5.3783q-1.1701-2.0954-3.2655-0.92536l-6.76 3.7747q-2.0954 1.1701-0.92536 3.2655z" clip-path="url(#a)" fill="#fff" stroke="#fff"/>
<g clip-path="url(#a)">
<g transform="translate(117.39 266.68) rotate(60.821) scale(.08 -.08)">
<defs>
<path id="ao" d="m19.672 64.797v-56.688h11.922q15.094 0 22.094 6.8281 7 6.8438 7 21.594 0 14.641-7 21.453t-22.094 6.8125zm-9.8594 8.1094h20.266q21.188 0 31.094-8.8125 9.9219-8.8125 9.9219-27.562 0-18.859-9.9688-27.703-9.9531-8.8281-31.047-8.8281h-20.266z"/>
</defs>
<use xlink:href="#ao"/>
</g>
</g>
<path d="m208.75 444.48v33.808q0 2.4 2.4 2.4h7.7425q2.4 0 2.4-2.4v-33.808q0-2.4-2.4-2.4h-7.7425q-2.4 0-2.4 2.4z" clip-path="url(#a)" fill="#fff" stroke="#fff"/>
<g clip-path="url(#a)">
<g transform="translate(212.81 444.48) rotate(90) scale(.08 -.08)">
<defs>
<path id="h" d="m-0.29688 72.906h61.672v-8.3125h-25.875v-64.594h-9.9062v64.594h-25.891z"/>
<path id="j" d="m56.203 29.594v-4.3906h-41.312q0.59375-9.2812 5.5938-14.141t13.938-4.8594q5.1719 0 10.031 1.2656t9.6562 3.8125v-8.5q-4.8438-2.0469-9.9219-3.125t-10.297-1.0781q-13.094 0-20.734 7.6094-7.6406 7.625-7.6406 20.625 0 13.422 7.25 21.297 7.25 7.8906 19.562 7.8906 11.031 0 17.453-7.1094 6.4219-7.0938 6.4219-19.297zm-8.9844 2.6406q-0.09375 7.3594-4.125 11.75-4.0312 4.4062-10.672 4.4062-7.5156 0-12.031-4.25t-5.2031-11.969z"/>
<path id="k" d="m41.109 46.297q-1.5156 0.875-3.2969 1.2812-1.7812 0.42188-3.9219 0.42188-7.625 0-11.703-4.9531t-4.0781-14.234v-28.812h-9.0312v54.688h9.0312v-8.5q2.8438 4.9844 7.375 7.3906 4.5469 2.4219 11.047 2.4219 0.92188 0 2.0469-0.125 1.125-0.10938 2.4844-0.35938z"/>
<path id="l" d="m52 44.188q3.375 6.0625 8.0625 8.9375t11.031 2.875q8.5469 0 13.188-5.9844 4.6406-5.9688 4.6406-17v-33.016h-9.0312v32.719q0 7.8594-2.7969 11.656-2.7812 3.8125-8.4844 3.8125-6.9844 0-11.047-4.6406-4.0469-4.625-4.0469-12.641v-30.906h-9.0312v32.719q0 7.9062-2.7812 11.688t-8.5938 3.7812q-6.8906 0-10.953-4.6562-4.0469-4.6562-4.0469-12.625v-30.906h-9.0312v54.688h9.0312v-8.5q3.0781 5.0312 7.375 7.4219t10.203 2.3906q5.9688 0 10.141-3.0312 4.1719-3.0156 6.1719-8.7812z"/>
<path id="g" d="m9.4219 54.688h8.9844v-54.688h-8.9844zm0 21.297h8.9844v-11.391h-8.9844z"/>
<path id="i" d="m54.891 33.016v-33.016h-8.9844v32.719q0 7.7656-3.0312 11.609-3.0312 3.8594-9.0781 3.8594-7.2812 0-11.484-4.6406-4.2031-4.625-4.2031-12.641v-30.906h-9.0312v54.688h9.0312v-8.5q3.2344 4.9375 7.5938 7.375 4.375 2.4375 10.094 2.4375 9.4219 0 14.25-5.8281 4.8438-5.8281 4.8438-17.156z"/>
<path id="f" d="m34.281 27.484q-10.891 0-15.094-2.4844t-4.2031-8.5q0-4.7812 3.1562-7.5938 3.1562-2.7969 8.5625-2.7969 7.4844 0 12 5.2969t4.5156 14.078v2zm17.922 3.7188v-31.203h-8.9844v8.2969q-3.0781-4.9688-7.6719-7.3438t-11.234-2.375q-8.3906 0-13.359 4.7188-4.9531 4.7188-4.9531 12.625 0 9.2188 6.1719 13.906 6.1875 4.6875 18.438 4.6875h12.609v0.89062q0 6.2031-4.0781 9.5938t-11.453 3.3906q-4.6875 0-9.1406-1.125-4.4375-1.125-8.5312-3.375v8.3125q4.9219 1.9062 9.5625 2.8438 4.6406 0.95312 9.0312 0.95312 11.875 0 17.734-6.1562 5.8594-6.1406 5.8594-18.641z"/>
<path id="e" d="m9.4219 75.984h8.9844v-75.984h-8.9844z"/>
</defs>
<use xlink:href="#h"/>
<use x="44.083984" xlink:href="#j"/>
<use x="105.607422" xlink:href="#k"/>
<use x="144.970703" xlink:href="#l"/>
<use x="242.382812" xlink:href="#g"/>
<use x="270.166016" xlink:href="#i"/>
<use x="333.544922" xlink:href="#f"/>
<use x="394.824219" xlink:href="#e"/>
</g>
</g>
<path d="m245.9 365.7 2.4838 4.8764q1.0893 2.1386 3.2278 1.0493l6.8991-3.514q2.1386-1.0893 1.0493-3.2278l-2.4838-4.8764q-1.0893-2.1386-3.2278-1.0493l-6.8991 3.514q-2.1386 1.0893-1.0493 3.2278z" clip-path="url(#a)" fill="#fff" stroke="#fff"/>
<g clip-path="url(#a)">
<g transform="translate(249.52 363.86) rotate(63.008) scale(.08 -.08)">
<use xlink:href="#o"/>
</g>
</g>
<path d="m207.89 370.4 2.3051-4.5255q1.0893-2.1386-1.0493-3.2278l-6.8991-3.514q-2.1386-1.0893-3.2278 1.0493l-2.3051 4.5255q-1.0893 2.1386 1.0493 3.2278l6.8991 3.514q2.1386 1.0893 3.2278-1.0493z" clip-path="url(#a)" fill="#fff" stroke="#fff"/>
<g clip-path="url(#a)">
<g transform="translate(204.27 368.56) rotate(-63.008) scale(.08 -.08)">
<use xlink:href="#q"/>
</g>
</g>
<path d="m611.08 177.7 4.8835-2.4697q2.1417-1.0831 1.0586-3.2248l-3.4941-6.9092q-1.0831-2.1417-3.2248-1.0586l-4.8835 2.4697q-2.1417 1.0831-1.0586 3.2248l3.4941 6.9092q1.0831 2.1417 3.2248 1.0586z" clip-path="url(#a)" fill="#fff" stroke="#fff"/>
<g clip-path="url(#a)">
<g transform="translate(609.25 174.08) rotate(-26.827) scale(.08 -.08)">
<use xlink:href="#o"/>
</g>
</g>
<path d="m686.09 271.27 0.83304-4.5252q0.43451-2.3603-1.9258-2.7948l-7.6146-1.4017q-2.3603-0.43451-2.7948 1.9258l-0.83304 4.5252q-0.43451 2.3603 1.9258 2.7948l7.6146 1.4017q2.3603 0.43451 2.7948-1.9258z" clip-path="url(#a)" fill="#fff" stroke="#fff"/>
<g clip-path="url(#a)">
<g transform="translate(682.09 270.54) rotate(-79.569) scale(.08 -.08)">
<use xlink:href="#s"/>
</g>
</g>
<path d="m776.41 221.34 3.1172 4.0096q1.4731 1.8947 3.3678 0.42167l6.1125-4.7522q1.8947-1.4731 0.42167-3.3678l-3.1172-4.0096q-1.4731-1.8947-3.3678-0.42167l-6.1125 4.7522q-1.8947 1.4731-0.42167 3.3678z" clip-path="url(#a)" fill="#fff" stroke="#fff"/>
<g clip-path="url(#a)">
<g transform="translate(779.62 218.85) rotate(52.137) scale(.08 -.08)">
<use xlink:href="#q"/>
</g>
</g>
<path d="m747.95 267.22 1.6979 5.2025q0.74461 2.2816 3.0262 1.537l7.3604-2.4021q2.2816-0.74461 1.537-3.0262l-1.6979-5.2025q-0.74461-2.2816-3.0262-1.537l-7.3604 2.4021q-2.2816 0.74461-1.537 3.0262z" clip-path="url(#a)" fill="#fff" stroke="#fff"/>
<g clip-path="url(#a)">
<g transform="translate(751.81 265.96) rotate(71.926) scale(.08 -.08)">
<use xlink:href="#o"/>
</g>
</g>
<path d="m461.37 321.83 2.3333-3.9658q1.217-2.0685-0.85148-3.2856l-6.6731-3.9262q-2.0685-1.217-3.2856 0.85148l-2.3333 3.9658q-1.217 2.0685 0.85148 3.2856l6.6731 3.9262q2.0685 1.217 3.2856-0.85148z" clip-path="url(#a)" fill="#fff" stroke="#fff"/>
<g clip-path="url(#a)">
<g transform="translate(457.87 319.77) rotate(-59.529) scale(.08 -.08)">
<use xlink:href="#s"/>
</g>
</g>
<path d="m511.05 266.19 0.339 5.0436q0.16095 2.3946 2.5555 2.2336l7.7251-0.51923q2.3946-0.16095 2.2336-2.5555l-0.339-5.0436q-0.16095-2.3946-2.5555-2.2336l-7.7251 0.51923q-2.3946 0.16095-2.2336 2.5555z" clip-path="url(#a)" fill="#fff" stroke="#fff"/>
<g clip-path="url(#a)">
<g transform="translate(515.11 265.92) rotate(86.155) scale(.08 -.08)">
<defs>
<path id="t" d="m9.8125 72.906h46.094v-8.3125h-36.234v-21.578h34.719v-8.2969h-34.719v-26.422h37.109v-8.2969h-46.969z"/>
</defs>
<use xlink:href="#t"/>
</g>
</g>
<path d="m525.8 268.14 1.785 4.7294q0.84748 2.2454 3.0929 1.3979l7.2437-2.734q2.2454-0.84748 1.3979-3.0929l-1.785-4.7294q-0.84748-2.2454-3.0929-1.3979l-7.2437 2.734q-2.2454 0.84748-1.3979 3.0929z" clip-path="url(#a)" fill="#fff" stroke="#fff"/>
<g clip-path="url(#a)">
<g transform="translate(529.61 266.71) rotate(69.322) scale(.08 -.08)">
<use xlink:href="#t"/>
</g>
</g>
<path d="m542.81 316.2 1.9175 5.2468q0.82381 2.2542 3.078 1.4304l7.2721-2.6577q2.2542-0.82381 1.4304-3.078l-1.9175-5.2468q-0.82381-2.2542-3.078-1.4304l-7.2721 2.6577q-2.2542 0.82381-1.4304 3.078z" clip-path="url(#a)" fill="#fff" stroke="#fff"/>
<g clip-path="url(#a)">
<g transform="translate(546.63 314.8) rotate(69.925) scale(.08 -.08)">
<defs>
<path id="u" d="m64.406 67.281v-10.391q-4.9844 4.6406-10.625 6.9219-5.6406 2.2969-11.984 2.2969-12.5 0-19.141-7.6406t-6.6406-22.094q0-14.406 6.6406-22.047t19.141-7.6406q6.3438 0 11.984 2.2969t10.625 6.9375v-10.312q-5.1719-3.5156-10.969-5.2812-5.7812-1.75-12.219-1.75-16.562 0-26.094 10.125-9.5156 10.141-9.5156 27.672 0 17.578 9.5156 27.703 9.5312 10.141 26.094 10.141 6.5312 0 12.312-1.7344 5.7969-1.7344 10.875-5.2031z"/>
</defs>
<use xlink:href="#u"/>
</g>
</g>
<path d="m647.23 444.48v33.808q0 2.4 2.4 2.4h7.7425q2.4 0 2.4-2.4v-33.808q0-2.4-2.4-2.4h-7.7425q-2.4 0-2.4 2.4z" clip-path="url(#a)" fill="#fff" stroke="#fff"/>
<g clip-path="url(#a)">
<g transform="translate(651.29 444.48) rotate(90) scale(.08 -.08)">
<use xlink:href="#h"/>
<use x="44.083984" xlink:href="#j"/>
<use x="105.607422" xlink:href="#k"/>
<use x="144.970703" xlink:href="#l"/>
<use x="242.382812" xlink:href="#g"/>
<use x="270.166016" xlink:href="#i"/>
<use x="333.544922" xlink:href="#f"/>
<use x="394.824219" xlink:href="#e"/>
</g>
</g>
<path d="m794.12 371.72 3.7185-2.71q1.9396-1.4135 0.52601-3.3531l-4.5602-6.2571q-1.4135-1.9396-3.3531-0.52601l-3.7185 2.71q-1.9396 1.4135-0.52601 3.3531l4.5602 6.2571q1.4135 1.9396 3.3531 0.52601z" clip-path="url(#a)" fill="#fff" stroke="#fff"/>
<g clip-path="url(#a)">
<g transform="translate(791.72 368.43) rotate(-36.085) scale(.08 -.08)">
<use xlink:href="#s"/>
</g>
</g>
<path d="m863.97 364.1 1.3522 5.4201q0.58094 2.3286 2.9096 1.7477l7.5123-1.8741q2.3286-0.58094 1.7477-2.9096l-1.3522-5.4201q-0.58094-2.3286-2.9096-1.7477l-7.5123 1.8741q-2.3286 0.58094-1.7477 2.9096z" clip-path="url(#a)" fill="#fff" stroke="#fff"/>
<g clip-path="url(#a)">
<g transform="translate(867.91 363.12) rotate(75.992) scale(.08 -.08)">
<use xlink:href="#u"/>
</g>
</g>
<path d="m906.61 368.03 4.372 3.8944q1.7921 1.5963 3.3885-0.19578l5.1499-5.7815q1.5963-1.7921-0.19578-3.3885l-4.372-3.8944q-1.7921-1.5963-3.3885 0.19578l-5.1499 5.7815q-1.5963 1.7921 0.19578 3.3885z" clip-path="url(#a)" fill="#fff" stroke="#fff"/>
<g clip-path="url(#a)">
<g transform="translate(909.31 365) rotate(41.693) scale(.08 -.08)">
<use xlink:href="#w"/>
</g>
</g>
<path d="m796.07 444.48v33.808q0 2.4 2.4 2.4h7.7425q2.4 0 2.4-2.4v-33.808q0-2.4-2.4-2.4h-7.7425q-2.4 0-2.4 2.4z" clip-path="url(#a)" fill="#fff" stroke="#fff"/>
<g clip-path="url(#a)">
<g transform="translate(800.13 444.48) rotate(90) scale(.08 -.08)">
<use xlink:href="#h"/>
<use x="44.083984" xlink:href="#j"/>
<use x="105.607422" xlink:href="#k"/>
<use x="144.970703" xlink:href="#l"/>
<use x="242.382812" xlink:href="#g"/>
<use x="270.166016" xlink:href="#i"/>
<use x="333.544922" xlink:href="#f"/>
<use x="394.824219" xlink:href="#e"/>
</g>
</g>
<path d="m719.64 444.48v33.808q0 2.4 2.4 2.4h7.7425q2.4 0 2.4-2.4v-33.808q0-2.4-2.4-2.4h-7.7425q-2.4 0-2.4 2.4z" clip-path="url(#a)" fill="#fff" stroke="#fff"/>
<g clip-path="url(#a)">
<g transform="translate(723.7 444.48) rotate(90) scale(.08 -.08)">
<use xlink:href="#h"/>
<use x="44.083984" xlink:href="#j"/>
<use x="105.607422" xlink:href="#k"/>
<use x="144.970703" xlink:href="#l"/>
<use x="242.382812" xlink:href="#g"/>
<use x="270.166016" xlink:href="#i"/>
<use x="333.544922" xlink:href="#f"/>
<use x="394.824219" xlink:href="#e"/>
</g>
</g>
<path d="m876.52 444.48v33.808q0 2.4 2.4 2.4h7.7425q2.4 0 2.4-2.4v-33.808q0-2.4-2.4-2.4h-7.7425q-2.4 0-2.4 2.4z" clip-path="url(#a)" fill="#fff" stroke="#fff"/>
<g clip-path="url(#a)">
<g transform="translate(880.59 444.48) rotate(90) scale(.08 -.08)">
<use xlink:href="#h"/>
<use x="44.083984" xlink:href="#j"/>
<use x="105.607422" xlink:href="#k"/>
<use x="144.970703" xlink:href="#l"/>
<use x="242.382812" xlink:href="#g"/>
<use x="270.166016" xlink:href="#i"/>
<use x="333.544922" xlink:href="#f"/>
<use x="394.824219" xlink:href="#e"/>
</g>
</g>
<path d="m393.79 444.48v33.808q0 2.4 2.4 2.4h7.7425q2.4 0 2.4-2.4v-33.808q0-2.4-2.4-2.4h-7.7425q-2.4 0-2.4 2.4z" clip-path="url(#a)" fill="#fff" stroke="#fff"/>
<g clip-path="url(#a)">
<g transform="translate(397.86 444.48) rotate(90) scale(.08 -.08)">
<use xlink:href="#h"/>
<use x="44.083984" xlink:href="#j"/>
<use x="105.607422" xlink:href="#k"/>
<use x="144.970703" xlink:href="#l"/>
<use x="242.382812" xlink:href="#g"/>
<use x="270.166016" xlink:href="#i"/>
<use x="333.544922" xlink:href="#f"/>
<use x="394.824219" xlink:href="#e"/>
</g>
</g>
<path d="m546.19 366.49 3.0312 4.5563q1.3293 1.9982 3.3276 0.66886l6.4463-4.2885q1.9982-1.3293 0.66886-3.3276l-3.0312-4.5563q-1.3293-1.9982-3.3276-0.66886l-6.4463 4.2885q-1.9982 1.3293-0.66886 3.3276z" clip-path="url(#a)" fill="#fff" stroke="#fff"/>
<g clip-path="url(#a)">
<g transform="translate(549.57 364.24) rotate(56.365) scale(.08 -.08)">
<use xlink:href="#o"/>
</g>
</g>
<path d="m492.38 370.88 2.8131-4.2285q1.3293-1.9982-0.66886-3.3276l-6.4463-4.2885q-1.9982-1.3293-3.3276 0.66886l-2.8131 4.2285q-1.3293 1.9982 0.66886 3.3276l6.4463 4.2885q1.9982 1.3293 3.3276-0.66886z" clip-path="url(#a)" fill="#fff" stroke="#fff"/>
<g clip-path="url(#a)">
<g transform="translate(489 368.63) rotate(-56.365) scale(.08 -.08)">
<use xlink:href="#q"/>
</g>
</g>
<path d="m561.19 364.8 1.8236 5.1597q0.79974 2.2628 3.0626 1.4631l7.3-2.58q2.2628-0.79974 1.4631-3.0626l-1.8236-5.1597q-0.79974-2.2628-3.0626-1.4631l-7.3 2.58q-2.2628 0.79974-1.4631 3.0626z" clip-path="url(#a)" fill="#fff" stroke="#fff"/>
<g clip-path="url(#a)">
<g transform="translate(565.02 363.45) rotate(70.535) scale(.08 -.08)">
<use xlink:href="#o"/>
</g>
</g>
<path d="m541.06 369.59 1.512-4.8485q0.71449-2.2912-1.5767-3.0057l-7.3914-2.305q-2.2912-0.71449-3.0057 1.5767l-1.512 4.8485q-0.71449 2.2912 1.5767 3.0057l7.3914 2.305q2.2912 0.71449 3.0057-1.5767z" clip-path="url(#a)" fill="#fff" stroke="#fff"/>
<g clip-path="url(#a)">
<g transform="translate(537.18 368.38) rotate(-72.68) scale(.08 -.08)">
<use xlink:href="#q"/>
</g>
</g>
<path d="m538.92 369.69 1.6282-4.607q0.79974-2.2628-1.4631-3.0626l-7.3-2.58q-2.2628-0.79974-3.0626 1.4631l-1.6282 4.607q-0.79974 2.2628 1.4631 3.0626l7.3 2.58q2.2628 0.79974 3.0626-1.4631z" clip-path="url(#a)" fill="#fff" stroke="#fff"/>
<g clip-path="url(#a)">
<g transform="translate(535.09 368.33) rotate(-70.535) scale(.08 -.08)">
<use xlink:href="#h"/>
</g>
</g>
<path d="m578.84 444.48v33.808q0 2.4 2.4 2.4h7.7425q2.4 0 2.4-2.4v-33.808q0-2.4-2.4-2.4h-7.7425q-2.4 0-2.4 2.4z" clip-path="url(#a)" fill="#fff" stroke="#fff"/>
<g clip-path="url(#a)">
<g transform="translate(582.9 444.48) rotate(90) scale(.08 -.08)">
<use xlink:href="#h"/>
<use x="44.083984" xlink:href="#j"/>
<use x="105.607422" xlink:href="#k"/>
<use x="144.970703" xlink:href="#l"/>
<use x="242.382812" xlink:href="#g"/>
<use x="270.166016" xlink:href="#i"/>
<use x="333.544922" xlink:href="#f"/>
<use x="394.824219" xlink:href="#e"/>
</g>
</g>
<path d="m510.45 444.48v33.808q0 2.4 2.4 2.4h7.7425q2.4 0 2.4-2.4v-33.808q0-2.4-2.4-2.4h-7.7425q-2.4 0-2.4 2.4z" clip-path="url(#a)" fill="#fff" stroke="#fff"/>
<g clip-path="url(#a)">
<g transform="translate(514.52 444.48) rotate(90) scale(.08 -.08)">
<use xlink:href="#h"/>
<use x="44.083984" xlink:href="#j"/>
<use x="105.607422" xlink:href="#k"/>
<use x="144.970703" xlink:href="#l"/>
<use x="242.382812" xlink:href="#g"/>
<use x="270.166016" xlink:href="#i"/>
<use x="333.544922" xlink:href="#f"/>
<use x="394.824219" xlink:href="#e"/>
</g>
</g>
<path d="m450.11 444.48v33.808q0 2.4 2.4 2.4h7.7425q2.4 0 2.4-2.4v-33.808q0-2.4-2.4-2.4h-7.7425q-2.4 0-2.4 2.4z" clip-path="url(#a)" fill="#fff" stroke="#fff"/>
<g clip-path="url(#a)">
<g transform="translate(454.17 444.48) rotate(90) scale(.08 -.08)">
<use xlink:href="#h"/>
<use x="44.083984" xlink:href="#j"/>
<use x="105.607422" xlink:href="#k"/>
<use x="144.970703" xlink:href="#l"/>
<use x="242.382812" xlink:href="#g"/>
<use x="270.166016" xlink:href="#i"/>
<use x="333.544922" xlink:href="#f"/>
<use x="394.824219" xlink:href="#e"/>
</g>
</g>
<path d="m268.6 479.26 7.6363-32.934q0.5421-2.338-1.7959-2.8801l-7.5424-1.7488q-2.338-0.5421-2.8801 1.7959l-7.6363 32.934q-0.5421 2.338 1.7959 2.8801l7.5424 1.7488q2.338 0.5421 2.8801-1.7959z" clip-path="url(#a)" fill="#fff" stroke="#fff"/>
<g clip-path="url(#a)">
<g transform="translate(264.64 478.35) rotate(-76.946) scale(.08 -.08)">
<use xlink:href="#h"/>
<use x="44.083984" xlink:href="#j"/>
<use x="105.607422" xlink:href="#k"/>
<use x="144.970703" xlink:href="#l"/>
<use x="242.382812" xlink:href="#g"/>
<use x="270.166016" xlink:href="#i"/>
<use x="333.544922" xlink:href="#f"/>
<use x="394.824219" xlink:href="#e"/>
</g>
</g>
<path d="m278.5 446.33 7.6363 32.934q0.5421 2.338 2.8801 1.7959l7.5424-1.7488q2.338-0.5421 1.7959-2.8801l-7.6363-32.934q-0.5421-2.338-2.8801-1.7959l-7.5424 1.7488q-2.338 0.5421-1.7959 2.8801z" clip-path="url(#a)" fill="#fff" stroke="#fff"/>
<g clip-path="url(#a)">
<g transform="translate(282.46 445.41) rotate(76.946) scale(.08 -.08)">
<use xlink:href="#h"/>
<use x="44.083984" xlink:href="#j"/>
<use x="105.607422" xlink:href="#k"/>
<use x="144.970703" xlink:href="#l"/>
<use x="242.382812" xlink:href="#g"/>
<use x="270.166016" xlink:href="#i"/>
<use x="333.544922" xlink:href="#f"/>
<use x="394.824219" xlink:href="#e"/>
</g>
</g>
<path d="m51.858 444.48v33.808q0 2.4 2.4 2.4h7.7425q2.4 0 2.4-2.4v-33.808q0-2.4-2.4-2.4h-7.7425q-2.4 0-2.4 2.4z" clip-path="url(#a)" fill="#fff" stroke="#fff"/>
<g clip-path="url(#a)">
<g transform="translate(55.921 444.48) rotate(90) scale(.08 -.08)">
<use xlink:href="#h"/>
<use x="44.083984" xlink:href="#j"/>
<use x="105.607422" xlink:href="#k"/>
<use x="144.970703" xlink:href="#l"/>
<use x="242.382812" xlink:href="#g"/>
<use x="270.166016" xlink:href="#i"/>
<use x="333.544922" xlink:href="#f"/>
<use x="394.824219" xlink:href="#e"/>
</g>
</g>
<path d="m67.949 444.48v33.808q0 2.4 2.4 2.4h7.7425q2.4 0 2.4-2.4v-33.808q0-2.4-2.4-2.4h-7.7425q-2.4 0-2.4 2.4z" clip-path="url(#a)" fill="#fff" stroke="#fff"/>
<g clip-path="url(#a)">
<g transform="translate(72.012 444.48) rotate(90) scale(.08 -.08)">
<use xlink:href="#h"/>
<use x="44.083984" xlink:href="#j"/>
<use x="105.607422" xlink:href="#k"/>
<use x="144.970703" xlink:href="#l"/>
<use x="242.382812" xlink:href="#g"/>
<use x="270.166016" xlink:href="#i"/>
<use x="333.544922" xlink:href="#f"/>
<use x="394.824219" xlink:href="#e"/>
</g>
</g>
<path d="m88.062 444.48v33.808q0 2.4 2.4 2.4h7.7425q2.4 0 2.4-2.4v-33.808q0-2.4-2.4-2.4h-7.7425q-2.4 0-2.4 2.4z" clip-path="url(#a)" fill="#fff" stroke="#fff"/>
<g clip-path="url(#a)">
<g transform="translate(92.126 444.48) rotate(90) scale(.08 -.08)">
<use xlink:href="#h"/>
<use x="44.083984" xlink:href="#j"/>
<use x="105.607422" xlink:href="#k"/>
<use x="144.970703" xlink:href="#l"/>
<use x="242.382812" xlink:href="#g"/>
<use x="270.166016" xlink:href="#i"/>
<use x="333.544922" xlink:href="#f"/>
<use x="394.824219" xlink:href="#e"/>
</g>
</g>
<path d="m138.48 369.54 1.4743-4.8352q0.69998-2.2957-1.5957-2.9956l-7.4059-2.2582q-2.2957-0.69998-2.9956 1.5957l-1.4743 4.8352q-0.69998 2.2957 1.5957 2.9956l7.4059 2.2582q2.2957 0.69998 2.9956-1.5957z" clip-path="url(#a)" fill="#fff" stroke="#fff"/>
<g clip-path="url(#a)">
<g transform="translate(134.59 368.36) rotate(-73.043) scale(.08 -.08)">
<use xlink:href="#t"/>
</g>
</g>
<path d="m153.54 367.91 0.070055-5.0545q0.03326-2.3998-2.3665-2.433l-7.7418-0.1073q-2.3998-0.03326-2.433 2.3665l-0.070054 5.0545q-0.03326 2.3998 2.3665 2.433l7.7418 0.1073q2.3998 0.03326 2.433-2.3665z" clip-path="url(#a)" fill="#fff" stroke="#fff"/>
<g clip-path="url(#a)">
<g transform="translate(149.47 367.85) rotate(-89.206) scale(.08 -.08)">
<use xlink:href="#t"/>
</g>
</g>
<path d="m156.57 364.54 1.6966 5.3224q0.72892 2.2866 3.0156 1.5577l7.3768-2.3515q2.2866-0.72892 1.5577-3.0156l-1.6966-5.3224q-0.72892-2.2866-3.0156-1.5577l-7.3768 2.3515q-2.2866 0.72892-1.5577 3.0156z" clip-path="url(#a)" fill="#fff" stroke="#fff"/>
<g clip-path="url(#a)">
<g transform="translate(160.44 363.3) rotate(72.319) scale(.08 -.08)">
<use xlink:href="#u"/>
</g>
</g>
<path d="m112.2 444.48v33.808q0 2.4 2.4 2.4h7.7425q2.4 0 2.4-2.4v-33.808q0-2.4-2.4-2.4h-7.7425q-2.4 0-2.4 2.4z" clip-path="url(#a)" fill="#fff" stroke="#fff"/>
<g clip-path="url(#a)">
<g transform="translate(116.26 444.48) rotate(90) scale(.08 -.08)">
<use xlink:href="#h"/>
<use x="44.083984" xlink:href="#j"/>
<use x="105.607422" xlink:href="#k"/>
<use x="144.970703" xlink:href="#l"/>
<use x="242.382812" xlink:href="#g"/>
<use x="270.166016" xlink:href="#i"/>
<use x="333.544922" xlink:href="#f"/>
<use x="394.824219" xlink:href="#e"/>
</g>
</g>
<path d="m140.36 444.48v33.808q0 2.4 2.4 2.4h7.7425q2.4 0 2.4-2.4v-33.808q0-2.4-2.4-2.4h-7.7425q-2.4 0-2.4 2.4z" clip-path="url(#a)" fill="#fff" stroke="#fff"/>
<g clip-path="url(#a)">
<g transform="translate(144.42 444.48) rotate(90) scale(.08 -.08)">
<use xlink:href="#h"/>
<use x="44.083984" xlink:href="#j"/>
<use x="105.607422" xlink:href="#k"/>
<use x="144.970703" xlink:href="#l"/>
<use x="242.382812" xlink:href="#g"/>
<use x="270.166016" xlink:href="#i"/>
<use x="333.544922" xlink:href="#f"/>
<use x="394.824219" xlink:href="#e"/>
</g>
</g>
<path d="m172.54 444.48v33.808q0 2.4 2.4 2.4h7.7425q2.4 0 2.4-2.4v-33.808q0-2.4-2.4-2.4h-7.7425q-2.4 0-2.4 2.4z" clip-path="url(#a)" fill="#fff" stroke="#fff"/>
<g clip-path="url(#a)">
<g transform="translate(176.6 444.48) rotate(90) scale(.08 -.08)">
<use xlink:href="#h"/>
<use x="44.083984" xlink:href="#j"/>
<use x="105.607422" xlink:href="#k"/>
<use x="144.970703" xlink:href="#l"/>
<use x="242.382812" xlink:href="#g"/>
<use x="270.166016" xlink:href="#i"/>
<use x="333.544922" xlink:href="#f"/>
<use x="394.824219" xlink:href="#e"/>
</g>
</g>
<path d="m39.789 444.48v33.808q0 2.4 2.4 2.4h7.7425q2.4 0 2.4-2.4v-33.808q0-2.4-2.4-2.4h-7.7425q-2.4 0-2.4 2.4z" clip-path="url(#a)" fill="#fff" stroke="#fff"/>
<g clip-path="url(#a)">
<g transform="translate(43.853 444.48) rotate(90) scale(.08 -.08)">
<use xlink:href="#h"/>
<use x="44.083984" xlink:href="#j"/>
<use x="105.607422" xlink:href="#k"/>
<use x="144.970703" xlink:href="#l"/>
<use x="242.382812" xlink:href="#g"/>
<use x="270.166016" xlink:href="#i"/>
<use x="333.544922" xlink:href="#f"/>
<use x="394.824219" xlink:href="#e"/>
</g>
</g>
<path d="m341.5 444.48v33.808q0 2.4 2.4 2.4h7.7425q2.4 0 2.4-2.4v-33.808q0-2.4-2.4-2.4h-7.7425q-2.4 0-2.4 2.4z" clip-path="url(#a)" fill="#fff" stroke="#fff"/>
<g clip-path="url(#a)">
<g transform="translate(345.56 444.48) rotate(90) scale(.08 -.08)">
<use xlink:href="#h"/>
<use x="44.083984" xlink:href="#j"/>
<use x="105.607422" xlink:href="#k"/>
<use x="144.970703" xlink:href="#l"/>
<use x="242.382812" xlink:href="#g"/>
<use x="270.166016" xlink:href="#i"/>
<use x="333.544922" xlink:href="#f"/>
<use x="394.824219" xlink:href="#e"/>
</g>
</g>
<path d="m961 444.48v33.808q0 2.4 2.4 2.4h7.7425q2.4 0 2.4-2.4v-33.808q0-2.4-2.4-2.4h-7.7425q-2.4 0-2.4 2.4z" clip-path="url(#a)" fill="#fff" stroke="#fff"/>
<g clip-path="url(#a)">
<g transform="translate(965.07 444.48) rotate(90) scale(.08 -.08)">
<use xlink:href="#h"/>
<use x="44.083984" xlink:href="#j"/>
<use x="105.607422" xlink:href="#k"/>
<use x="144.970703" xlink:href="#l"/>
<use x="242.382812" xlink:href="#g"/>
<use x="270.166016" xlink:href="#i"/>
<use x="333.544922" xlink:href="#f"/>
<use x="394.824219" xlink:href="#e"/>
</g>
</g>
<defs>
<path id="b" d="m0 8.6603c2.2967 0 4.4997-0.9125 6.1237-2.5365 1.624-1.624 2.5365-3.827 2.5365-6.1237s-0.9125-4.4997-2.5365-6.1237c-1.624-1.624-3.827-2.5365-6.1237-2.5365s-4.4997 0.9125-6.1237 2.5365c-1.624 1.624-2.5365 3.827-2.5365 6.1237s0.9125 4.4997 2.5365 6.1237c1.624 1.624 3.827 2.5365 6.1237 2.5365z"/>
</defs>
<g clip-path="url(#a)" fill="#ffffff" stroke="#ffffff">
<use x="46.060606" y="509.090909" xlink:href="#b"/>
<use x="58.128887" y="509.090909" xlink:href="#b"/>
<use x="74.219929" y="509.090909" xlink:href="#b"/>
<use x="94.33373" y="509.090909" xlink:href="#b"/>
<use x="118.470292" y="509.090909" xlink:href="#b"/>
<use x="146.629615" y="509.090909" xlink:href="#b"/>
<use x="178.811698" y="509.090909" xlink:href="#b"/>
<use x="215.016541" y="509.090909" xlink:href="#b"/>
<use x="255.244145" y="509.090909" xlink:href="#b"/>
<use x="299.494508" y="509.090909" xlink:href="#b"/>
<use x="347.767633" y="509.090909" xlink:href="#b"/>
<use x="400.063517" y="509.090909" xlink:href="#b"/>
<use x="456.382162" y="509.090909" xlink:href="#b"/>
<use x="516.723568" y="509.090909" xlink:href="#b"/>
<use x="585.110494" y="509.090909" xlink:href="#b"/>
<use x="653.49742" y="509.090909" xlink:href="#b"/>
<use x="725.907106" y="509.090909" xlink:href="#b"/>
<use x="802.339553" y="509.090909" xlink:href="#b"/>
<use x="882.79476" y="509.090909" xlink:href="#b"/>
<use x="967.272727" y="509.090909" xlink:href="#b"/>
<use x="520.746328" y="413.669387" xlink:href="#b"/>
<use x="272.962448" y="24.242424" xlink:href="#b"/>
<use x="93.66327" y="219.664067" xlink:href="#b"/>
<use x="215.016541" y="413.669387" xlink:href="#b"/>
<use x="228.090512" y="316.920447" xlink:href="#b"/>
<use x="707.176128" y="122.076683" xlink:href="#b"/>
<use x="514.209342" y="219.664067" xlink:href="#b"/>
<use x="653.49742" y="413.669387" xlink:href="#b"/>
<use x="858.658198" y="316.920447" xlink:href="#b"/>
<use x="802.339553" y="413.669387" xlink:href="#b"/>
<use x="725.907106" y="413.669387" xlink:href="#b"/>
<use x="882.79476" y="413.669387" xlink:href="#b"/>
<use x="400.063517" y="413.669387" xlink:href="#b"/>
<use x="520.746328" y="316.920447" xlink:href="#b"/>
<use x="550.917031" y="316.920447" xlink:href="#b"/>
<use x="585.110494" y="413.669387" xlink:href="#b"/>
<use x="516.723568" y="413.669387" xlink:href="#b"/>
<use x="456.382162" y="413.669387" xlink:href="#b"/>
<use x="277.369326" y="413.669387" xlink:href="#b"/>
<use x="58.128887" y="413.669387" xlink:href="#b"/>
<use x="74.219929" y="413.669387" xlink:href="#b"/>
<use x="94.33373" y="413.669387" xlink:href="#b"/>
<use x="147.970535" y="316.920447" xlink:href="#b"/>
<use x="118.470292" y="413.669387" xlink:href="#b"/>
<use x="146.629615" y="413.669387" xlink:href="#b"/>
<use x="178.811698" y="413.669387" xlink:href="#b"/>
<use x="46.060606" y="413.669387" xlink:href="#b"/>
<use x="347.767633" y="413.669387" xlink:href="#b"/>
<use x="967.272727" y="413.669387" xlink:href="#b"/>
</g>
<g clip-path="url(#a)">
<g transform="translate(43.761 511.85) scale(.1 -.1)">
<defs>
<path id="ap" d="m17.922 72.906v-27.109h-8.2969v27.109zm18.453 0v-27.109h-8.2969v27.109z"/>
</defs>
<use xlink:href="#ap"/>
</g>
</g>
<g clip-path="url(#a)">
<g transform="translate(50.855 511.85) scale(.1 -.1)">
<defs>
<path id="af" d="m9.8125 72.906h14.703l18.594-49.609 18.703 49.609h14.703v-72.906h-9.625v64.016l-18.797-50h-9.9062l-18.797 50v-64.016h-9.5781z"/>
<path id="aq" d="m32.172-5.0781q-3.7969-9.7656-7.4219-12.734-3.6094-2.9844-9.6562-2.9844h-7.1875v7.5156h5.2812q3.7031 0 5.75 1.7656 2.0625 1.75 4.5469 8.2969l1.6094 4.0938-22.109 53.812h9.5156l17.094-42.766 17.094 42.766h9.5156z"/>
</defs>
<use xlink:href="#af"/>
<use x="86.279297" xlink:href="#aq"/>
</g>
</g>
<g clip-path="url(#a)">
<g transform="translate(63.848 511.85) scale(.1 -.1)">
<defs>
<path id="ae" d="m48.781 52.594v-8.4062q-3.8125 2.1094-7.6406 3.1562t-7.7344 1.0469q-8.75 0-13.594-5.5469-4.8281-5.5312-4.8281-15.547t4.8281-15.562q4.8438-5.5312 13.594-5.5312 3.9062 0 7.7344 1.0469t7.6406 3.1562v-8.3125q-3.7656-1.75-7.7969-2.625-4.0156-0.89062-8.5625-0.89062-12.359 0-19.641 7.7656-7.2656 7.7656-7.2656 20.953 0 13.375 7.3438 21.031 7.3594 7.6719 20.156 7.6719 4.1406 0 8.0938-0.85938 3.9531-0.84375 7.6719-2.5469z"/>
<path id="n" d="m30.609 48.391q-7.2188 0-11.422-5.6406t-4.2031-15.453 4.1719-15.453q4.1875-5.6406 11.453-5.6406 7.1875 0 11.375 5.6562 4.2031 5.6719 4.2031 15.438 0 9.7188-4.2031 15.406-4.1875 5.6875-11.375 5.6875zm0 7.6094q11.719 0 18.406-7.625 6.7031-7.6094 6.7031-21.078 0-13.422-6.7031-21.078-6.6875-7.6406-18.406-7.6406-11.766 0-18.438 7.6406-6.6562 7.6562-6.6562 21.078 0 13.469 6.6562 21.078 6.6719 7.625 18.438 7.625z"/>
<path id="v" d="m45.406 46.391v29.594h8.9844v-75.984h-8.9844v8.2031q-2.8281-4.875-7.1562-7.25-4.3125-2.375-10.375-2.375-9.9062 0-16.141 7.9062-6.2188 7.9219-6.2188 20.812t6.2188 20.797q6.2344 7.9062 16.141 7.9062 6.0625 0 10.375-2.375 4.3281-2.3594 7.1562-7.2344zm-30.609-19.094q0-9.9062 4.0781-15.547t11.203-5.6406 11.219 5.6406q4.1094 5.6406 4.1094 15.547t-4.1094 15.547q-4.0938 5.6406-11.219 5.6406t-11.203-5.6406-4.0781-15.547z"/>
</defs>
<use xlink:href="#ae"/>
<use x="54.980469" xlink:href="#n"/>
<use x="116.162109" xlink:href="#e"/>
<use x="143.945312" xlink:href="#v"/>
</g>
</g>
<g clip-path="url(#a)">
<g transform="translate(90.34 511.85) scale(.1 -.1)">
<defs>
<path id="ac" d="m44.281 53.078v-8.5q-3.7969 1.9531-7.9062 2.9219-4.0938 0.98438-8.5 0.98438-6.6875 0-10.031-2.0469t-3.3438-6.1562q0-3.125 2.3906-4.9062t9.625-3.3906l3.0781-0.6875q9.5625-2.0469 13.594-5.7812t4.0312-10.422q0-7.625-6.0312-12.078-6.0312-4.4375-16.578-4.4375-4.3906 0-9.1562 0.85938t-10.031 2.5625v9.2812q4.9844-2.5938 9.8125-3.8906 4.8281-1.2812 9.5781-1.2812 6.3438 0 9.75 2.1719 3.4219 2.1719 3.4219 6.125 0 3.6562-2.4688 5.6094-2.4531 1.9531-10.812 3.7656l-3.125 0.73438q-8.3438 1.75-12.062 5.3906-3.7031 3.6406-3.7031 9.9844 0 7.7188 5.4688 11.906 5.4688 4.2031 15.531 4.2031 4.9688 0 9.3594-0.73438 4.4062-0.71875 8.1094-2.1875z"/>
</defs>
<use xlink:href="#g"/>
<use x="27.783203" xlink:href="#ac"/>
</g>
</g>
<g clip-path="url(#a)">
<g transform="translate(110.28 511.85) scale(.1 -.1)">
<defs>
<path id="r" d="m18.312 70.219v-15.531h18.5v-6.9844h-18.5v-29.688q0-6.6875 1.8281-8.5938t7.4531-1.9062h9.2188v-7.5156h-9.2188q-10.406 0-14.359 3.875-3.9531 3.8906-3.9531 14.141v29.688h-6.5938v6.9844h6.5938v15.531z"/>
</defs>
<use xlink:href="#i"/>
<use x="63.378906" xlink:href="#n"/>
<use x="124.560547" xlink:href="#r"/>
</g>
</g>
<g clip-path="url(#a)">
<g transform="translate(140.97 511.85) scale(.1 -.1)">
<use xlink:href="#ac"/>
<use x="52.099609" xlink:href="#n"/>
</g>
</g>
<g clip-path="url(#a)">
<g transform="translate(169.4 511.85) scale(.1 -.1)">
<defs>
<path id="am" d="m48.688 27.297q0 9.9062-4.0781 15.547t-11.203 5.6406q-7.1406 0-11.219-5.6406t-4.0781-15.547 4.0781-15.547 11.219-5.6406q7.125 0 11.203 5.6406t4.0781 15.547zm-30.578 19.094q2.8438 4.875 7.1562 7.2344 4.3281 2.375 10.328 2.375 9.9688 0 16.188-7.9062 6.2344-7.9062 6.2344-20.797t-6.2344-20.812q-6.2188-7.9062-16.188-7.9062-6 0-10.328 2.375-4.3125 2.375-7.1562 7.25v-8.2031h-9.0312v75.984h9.0312z"/>
</defs>
<use xlink:href="#am"/>
<use x="63.476562" xlink:href="#f"/>
<use x="124.755859" xlink:href="#v"/>
</g>
</g>
<g clip-path="url(#a)">
<g transform="translate(209.35 511.85) scale(.1 -.1)">
<use xlink:href="#f"/>
<use x="61.279297" xlink:href="#ac"/>
</g>
</g>
<g clip-path="url(#a)">
<g transform="translate(249.4 511.85) scale(.1 -.1)">
<use xlink:href="#f"/>
<use x="61.279297" xlink:href="#e"/>
<use x="89.0625" xlink:href="#e"/>
</g>
</g>
<g clip-path="url(#a)">
<g transform="translate(289.34 511.85) scale(.1 -.1)">
<defs>
<path id="ad" d="m54.891 33.016v-33.016h-8.9844v32.719q0 7.7656-3.0312 11.609-3.0312 3.8594-9.0781 3.8594-7.2812 0-11.484-4.6406-4.2031-4.625-4.2031-12.641v-30.906h-9.0312v75.984h9.0312v-29.797q3.2344 4.9375 7.5938 7.375 4.375 2.4375 10.094 2.4375 9.4219 0 14.25-5.8281 4.8438-5.8281 4.8438-17.156z"/>
</defs>
<use xlink:href="#r"/>
<use x="39.208984" xlink:href="#ad"/>
<use x="102.587891" xlink:href="#f"/>
<use x="163.867188" xlink:href="#r"/>
</g>
</g>
<g clip-path="url(#a)">
<g transform="translate(343 511.85) scale(.1 -.1)">
<defs>
<path id="d" d="m10.688 12.406h10.312v-12.406h-10.312z"/>
</defs>
<use xlink:href="#d"/>
<use x="31.787109" xlink:href="#d"/>
<use x="63.574219" xlink:href="#d"/>
</g>
</g>
<g clip-path="url(#a)">
<g transform="translate(391.86 511.85) scale(.1 -.1)">
<use xlink:href="#r"/>
<use x="39.208984" xlink:href="#ad"/>
<use x="102.587891" xlink:href="#j"/>
</g>
</g>
<g clip-path="url(#a)">
<g transform="translate(446.13 511.85) scale(.1 -.1)">
<use xlink:href="#ae"/>
<use x="54.980469" xlink:href="#n"/>
<use x="116.162109" xlink:href="#n"/>
<use x="177.34375" xlink:href="#e"/>
</g>
</g>
<g clip-path="url(#a)">
<g transform="translate(503.86 511.85) scale(.1 -.1)">
<defs>
<path id="al" d="m45.406 27.984q0 9.7656-4.0312 15.125-4.0156 5.375-11.297 5.375-7.2188 0-11.25-5.375-4.0312-5.3594-4.0312-15.125 0-9.7188 4.0312-15.094t11.25-5.375q7.2812 0 11.297 5.375 4.0312 5.375 4.0312 15.094zm8.9844-21.203q0-13.953-6.2031-20.766-6.1875-6.8125-18.984-6.8125-4.7344 0-8.9375 0.70312t-8.1562 2.1719v8.7344q3.9531-2.1406 7.8125-3.1562 3.8594-1.0312 7.8594-1.0312 8.8438 0 13.234 4.6094t4.3906 13.938v4.4531q-2.7812-4.8438-7.125-7.2344t-10.406-2.3906q-10.047 0-16.203 7.6562-6.1562 7.6719-6.1562 20.328 0 12.688 6.1562 20.344 6.1562 7.6719 16.203 7.6719 6.0625 0 10.406-2.3906t7.125-7.2188v8.2969h8.9844z"/>
</defs>
<use xlink:href="#i"/>
<use x="63.378906" xlink:href="#g"/>
<use x="91.162109" xlink:href="#al"/>
<use x="154.638672" xlink:href="#ad"/>
<use x="218.017578" xlink:href="#r"/>
</g>
</g>
<g clip-path="url(#a)">
<g transform="translate(578.6 511.85) scale(.1 -.1)">
<use xlink:href="#f"/>
<use x="61.279297" xlink:href="#g"/>
<use x="89.0625" xlink:href="#k"/>
</g>
</g>
<g clip-path="url(#a)">
<g transform="translate(645.24 511.85) scale(.1 -.1)">
<defs>
<path id="ar" d="m4.2031 54.688h8.9844l11.234-42.672 11.172 42.672h10.594l11.234-42.672 11.188 42.672h8.9844l-14.312-54.688h-10.594l-11.766 44.828-11.812-44.828h-10.609z"/>
</defs>
<use xlink:href="#ar"/>
<use x="81.787109" xlink:href="#g"/>
<use x="109.570312" xlink:href="#e"/>
<use x="137.353516" xlink:href="#e"/>
</g>
</g>
<g clip-path="url(#a)">
<g transform="translate(719.67 511.85) scale(.1 -.1)">
<use xlink:href="#v"/>
<use x="63.476562" xlink:href="#n"/>
</g>
</g>
<g clip-path="url(#a)">
<g transform="translate(794.39 511.85) scale(.1 -.1)">
<use xlink:href="#l"/>
<use x="97.412109" xlink:href="#j"/>
</g>
</g>
<g clip-path="url(#a)">
<g transform="translate(870.33 511.85) scale(.1 -.1)">
<use xlink:href="#al"/>
<use x="63.476562" xlink:href="#n"/>
<use x="124.658203" xlink:href="#n"/>
<use x="185.839844" xlink:href="#v"/>
</g>
</g>
<g clip-path="url(#a)">
<g transform="translate(965.68 511.85) scale(.1 -.1)">
<use xlink:href="#d"/>
</g>
</g>
<g clip-path="url(#a)">
<g transform="translate(499.66 416.43) scale(.1 -.1)">
<defs>
<path id="x" d="m9.8125 72.906h9.8594v-72.906h-9.8594z"/>
<path id="an" d="m19.672 64.797v-27.391h12.406q6.8906 0 10.641 3.5625 3.7656 3.5625 3.7656 10.156 0 6.5469-3.7656 10.109-3.75 3.5625-10.641 3.5625zm-9.8594 8.1094h22.266q12.266 0 18.531-5.5469 6.2812-5.5469 6.2812-16.234 0-10.797-6.2812-16.312-6.2656-5.5156-18.531-5.5156h-12.406v-29.297h-9.8594z"/>
</defs>
<use xlink:href="#x"/>
<use x="29.492188" xlink:href="#af"/>
<use x="115.771484" xlink:href="#an"/>
<use x="176.074219" xlink:href="#ag"/>
<use x="231.787109" xlink:href="#x"/>
<use x="261.279297" xlink:href="#u"/>
<use x="331.103516" xlink:href="#x"/>
<use x="360.595703" xlink:href="#h"/>
</g>
</g>
<g clip-path="url(#a)">
<g transform="translate(265.01 27.002) scale(.1 -.1)">
<defs>
<path id="c" d="m12.406 8.2969h16.109v55.625l-17.531-3.5156v8.9844l17.438 3.5156h9.8594v-64.609h16.109v-8.2969h-41.984z"/>
</defs>
<use xlink:href="#c"/>
<use x="63.623047" xlink:href="#d"/>
<use x="95.410156" xlink:href="#c"/>
</g>
</g>
<g clip-path="url(#a)">
<g transform="translate(85.712 222.42) scale(.1 -.1)">
<defs>
<path id="m" d="m19.188 8.2969h34.422v-8.2969h-46.281v8.2969q5.6094 5.8125 15.297 15.594 9.7031 9.7969 12.188 12.641 4.7344 5.3125 6.6094 9 1.8906 3.6875 1.8906 7.25 0 5.8125-4.0781 9.4688-4.0781 3.6719-10.625 3.6719-4.6406 0-9.7969-1.6094-5.1406-1.6094-11-4.8906v9.9688q5.9531 2.3906 11.125 3.6094 5.1875 1.2188 9.4844 1.2188 11.328 0 18.062-5.6719 6.7344-5.6562 6.7344-15.125 0-4.5-1.6875-8.5312-1.6719-4.0156-6.125-9.4844-1.2188-1.4219-7.7656-8.1875-6.5312-6.7656-18.453-18.922z"/>
</defs>
<use xlink:href="#c"/>
<use x="63.623047" xlink:href="#d"/>
<use x="95.410156" xlink:href="#m"/>
</g>
</g>
<g clip-path="url(#a)">
<g transform="translate(207.06 416.43) scale(.1 -.1)">
<defs>
<path id="p" d="m40.578 39.312q7.0781-1.5156 11.047-6.3125 3.9844-4.7812 3.9844-11.812 0-10.781-7.4219-16.703-7.4219-5.9062-21.094-5.9062-4.5781 0-9.4375 0.90625t-10.031 2.7188v9.5156q4.0938-2.3906 8.9688-3.6094 4.8906-1.2188 10.219-1.2188 9.2656 0 14.125 3.6562t4.8594 10.641q0 6.4531-4.5156 10.078-4.5156 3.6406-12.562 3.6406h-8.5v8.1094h8.8906q7.2656 0 11.125 2.9062t3.8594 8.375q0 5.6094-3.9844 8.6094-3.9688 3.0156-11.391 3.0156-4.0625 0-8.7031-0.89062-4.6406-0.875-10.203-2.7188v8.7812q5.625 1.5625 10.531 2.3438t9.25 0.78125q11.234 0 17.766-5.1094 6.5469-5.0938 6.5469-13.781 0-6.0625-3.4688-10.234t-9.8594-5.7812z"/>
</defs>
<use xlink:href="#c"/>
<use x="63.623047" xlink:href="#d"/>
<use x="95.410156" xlink:href="#p"/>
</g>
</g>
<g clip-path="url(#a)">
<g transform="translate(220.14 319.68) scale(.1 -.1)">
<defs>
<path id="ak" d="m37.797 64.312-24.906-38.922h24.906zm-2.5938 8.5938h12.406v-47.516h10.406v-8.2031h-10.406v-17.188h-9.8125v17.188h-32.906v9.5156z"/>
</defs>
<use xlink:href="#c"/>
<use x="63.623047" xlink:href="#d"/>
<use x="95.410156" xlink:href="#ak"/>
</g>
</g>
<g clip-path="url(#a)">
<g transform="translate(699.22 124.84) scale(.1 -.1)">
<defs>
<path id="aa" d="m10.797 72.906h38.719v-8.3125h-29.688v-17.859q2.1406 0.73438 4.2812 1.0938 2.1562 0.35938 4.3125 0.35938 12.203 0 19.328-6.6875 7.1406-6.6875 7.1406-18.109 0-11.766-7.3281-18.297-7.3281-6.5156-20.656-6.5156-4.5938 0-9.3594 0.78125-4.75 0.78125-9.8281 2.3438v9.9219q4.3906-2.3906 9.0781-3.5625t9.9062-1.1719q8.4531 0 13.375 4.4375 4.9375 4.4375 4.9375 12.062 0 7.6094-4.9375 12.047-4.9219 4.4531-13.375 4.4531-3.9531 0-7.8906-0.875-3.9219-0.875-8.0156-2.7344z"/>
</defs>
<use xlink:href="#c"/>
<use x="63.623047" xlink:href="#d"/>
<use x="95.410156" xlink:href="#aa"/>
</g>
</g>
<g clip-path="url(#a)">
<g transform="translate(506.26 222.42) scale(.1 -.1)">
<defs>
<path id="z" d="m31.781 34.625q-7.0312 0-11.062-3.7656-4.0156-3.7656-4.0156-10.344 0-6.5938 4.0156-10.359 4.0312-3.7656 11.062-3.7656t11.078 3.7812q4.0625 3.7969 4.0625 10.344 0 6.5781-4.0312 10.344-4.0156 3.7656-11.109 3.7656zm-9.8594 4.1875q-6.3438 1.5625-9.8906 5.9062-3.5312 4.3594-3.5312 10.609 0 8.7344 6.2188 13.812 6.2344 5.0781 17.062 5.0781 10.891 0 17.094-5.0781t6.2031-13.812q0-6.25-3.5469-10.609-3.5312-4.3438-9.8281-5.9062 7.125-1.6562 11.094-6.5 3.9844-4.8281 3.9844-11.797 0-10.609-6.4688-16.281-6.4688-5.6562-18.531-5.6562-12.047 0-18.531 5.6562-6.4688 5.6719-6.4688 16.281 0 6.9688 4 11.797 4.0156 4.8438 11.141 6.5zm-3.6094 15.578q0-5.6562 3.5312-8.8281 3.5469-3.1719 9.9375-3.1719 6.3594 0 9.9375 3.1719 3.5938 3.1719 3.5938 8.8281 0 5.6719-3.5938 8.8438-3.5781 3.1719-9.9375 3.1719-6.3906 0-9.9375-3.1719-3.5312-3.1719-3.5312-8.8438z"/>
</defs>
<use xlink:href="#c"/>
<use x="63.623047" xlink:href="#d"/>
<use x="95.410156" xlink:href="#z"/>
</g>
</g>
<g clip-path="url(#a)">
<g transform="translate(645.55 416.43) scale(.1 -.1)">
<defs>
<path id="ah" d="m10.984 1.5156v8.9844q3.7188-1.7656 7.5156-2.6875 3.8125-0.92188 7.4844-0.92188 9.7656 0 14.906 6.5625 5.1562 6.5625 5.8906 19.953-2.8281-4.2031-7.1875-6.4531-4.3438-2.25-9.6094-2.25-10.938 0-17.312 6.6094-6.375 6.625-6.375 18.109 0 11.219 6.6406 18 6.6406 6.7969 17.672 6.7969 12.656 0 19.312-9.7031 6.6719-9.6875 6.6719-28.141 0-17.234-8.1875-27.516-8.1719-10.281-21.984-10.281-3.7188 0-7.5312 0.73438-3.7969 0.73438-7.9062 2.2031zm19.625 30.906q6.6406 0 10.516 4.5312 3.8906 4.5469 3.8906 12.469 0 7.8594-3.8906 12.422-3.875 4.5625-10.516 4.5625t-10.516-4.5625-3.875-12.422q0-7.9219 3.875-12.469 3.875-4.5312 10.516-4.5312z"/>
</defs>
<use xlink:href="#c"/>
<use x="63.623047" xlink:href="#d"/>
<use x="95.410156" xlink:href="#ah"/>
</g>
</g>
<g clip-path="url(#a)">
<g transform="translate(847.53 319.68) scale(.1 -.1)">
<defs>
<path id="ab" d="m31.781 66.406q-7.6094 0-11.453-7.5-3.8281-7.4844-3.8281-22.531 0-14.984 3.8281-22.484 3.8438-7.5 11.453-7.5 7.6719 0 11.5 7.5 3.8438 7.5 3.8438 22.484 0 15.047-3.8438 22.531-3.8281 7.5-11.5 7.5zm0 7.8125q12.266 0 18.734-9.7031 6.4688-9.6875 6.4688-28.141 0-18.406-6.4688-28.109-6.4688-9.6875-18.734-9.6875-12.25 0-18.719 9.6875-6.4688 9.7031-6.4688 28.109 0 18.453 6.4688 28.141 6.4688 9.7031 18.719 9.7031z"/>
</defs>
<use xlink:href="#c"/>
<use x="63.623047" xlink:href="#d"/>
<use x="95.410156" xlink:href="#c"/>
<use x="159.033203" xlink:href="#ab"/>
</g>
</g>
<g clip-path="url(#a)">
<g transform="translate(791.21 416.43) scale(.1 -.1)">
<use xlink:href="#c"/>
<use x="63.623047" xlink:href="#d"/>
<use x="95.410156" xlink:href="#c"/>
<use x="159.033203" xlink:href="#c"/>
</g>
</g>
<g clip-path="url(#a)">
<g transform="translate(714.77 416.43) scale(.1 -.1)">
<use xlink:href="#c"/>
<use x="63.623047" xlink:href="#d"/>
<use x="95.410156" xlink:href="#c"/>
<use x="159.033203" xlink:href="#m"/>
</g>
</g>
<g clip-path="url(#a)">
<g transform="translate(871.66 416.43) scale(.1 -.1)">
<use xlink:href="#c"/>
<use x="63.623047" xlink:href="#d"/>
<use x="95.410156" xlink:href="#c"/>
<use x="159.033203" xlink:href="#p"/>
</g>
</g>
<g clip-path="url(#a)">
<g transform="translate(388.93 416.43) scale(.1 -.1)">
<use xlink:href="#c"/>
<use x="63.623047" xlink:href="#d"/>
<use x="95.410156" xlink:href="#c"/>
<use x="159.033203" xlink:href="#aa"/>
</g>
</g>
<g clip-path="url(#a)">
<g transform="translate(509.61 319.68) scale(.1 -.1)">
<defs>
<path id="aj" d="m33.016 40.375q-6.6406 0-10.531-4.5469-3.875-4.5312-3.875-12.438 0-7.8594 3.875-12.438 3.8906-4.5625 10.531-4.5625t10.516 4.5625q3.875 4.5781 3.875 12.438 0 7.9062-3.875 12.438-3.875 4.5469-10.516 4.5469zm19.578 30.922v-8.9844q-3.7188 1.75-7.5 2.6719-3.7812 0.9375-7.5 0.9375-9.7656 0-14.922-6.5938-5.1406-6.5938-5.875-19.922 2.875 4.25 7.2188 6.5156 4.3594 2.2656 9.5781 2.2656 10.984 0 17.359-6.6719 6.375-6.6562 6.375-18.125 0-11.234-6.6406-18.031-6.6406-6.7812-17.672-6.7812-12.656 0-19.344 9.6875-6.6875 9.7031-6.6875 28.109 0 17.281 8.2031 27.562t22.016 10.281q3.7188 0 7.5-0.73438t7.8906-2.1875z"/>
</defs>
<use xlink:href="#c"/>
<use x="63.623047" xlink:href="#d"/>
<use x="95.410156" xlink:href="#c"/>
<use x="159.033203" xlink:href="#aj"/>
</g>
</g>
<g clip-path="url(#a)">
<g transform="translate(539.78 319.68) scale(.1 -.1)">
<defs>
<path id="ai" d="m8.2031 72.906h46.875v-4.2031l-26.469-68.703h-10.297l24.906 64.594h-35.016z"/>
</defs>
<use xlink:href="#c"/>
<use x="63.623047" xlink:href="#d"/>
<use x="95.410156" xlink:href="#c"/>
<use x="159.033203" xlink:href="#ai"/>
</g>
</g>
<g clip-path="url(#a)">
<g transform="translate(573.98 416.43) scale(.1 -.1)">
<use xlink:href="#c"/>
<use x="63.623047" xlink:href="#d"/>
<use x="95.410156" xlink:href="#c"/>
<use x="159.033203" xlink:href="#z"/>
</g>
</g>
<g clip-path="url(#a)">
<g transform="translate(505.59 416.43) scale(.1 -.1)">
<use xlink:href="#c"/>
<use x="63.623047" xlink:href="#d"/>
<use x="95.410156" xlink:href="#m"/>
<use x="159.033203" xlink:href="#ab"/>
</g>
</g>
<g clip-path="url(#a)">
<g transform="translate(445.25 416.43) scale(.1 -.1)">
<use xlink:href="#c"/>
<use x="63.623047" xlink:href="#d"/>
<use x="95.410156" xlink:href="#m"/>
<use x="159.033203" xlink:href="#c"/>
</g>
</g>
<g clip-path="url(#a)">
<g transform="translate(266.24 416.43) scale(.1 -.1)">
<use xlink:href="#c"/>
<use x="63.623047" xlink:href="#d"/>
<use x="95.410156" xlink:href="#m"/>
<use x="159.033203" xlink:href="#m"/>
</g>
</g>
<g clip-path="url(#a)">
<g transform="translate(46.996 416.43) scale(.1 -.1)">
<use xlink:href="#c"/>
<use x="63.623047" xlink:href="#d"/>
<use x="95.410156" xlink:href="#m"/>
<use x="159.033203" xlink:href="#p"/>
</g>
</g>
<g clip-path="url(#a)">
<g transform="translate(63.087 416.43) scale(.1 -.1)">
<use xlink:href="#c"/>
<use x="63.623047" xlink:href="#d"/>
<use x="95.410156" xlink:href="#m"/>
<use x="159.033203" xlink:href="#ak"/>
</g>
</g>
<g clip-path="url(#a)">
<g transform="translate(83.201 416.43) scale(.1 -.1)">
<use xlink:href="#c"/>
<use x="63.623047" xlink:href="#d"/>
<use x="95.410156" xlink:href="#m"/>
<use x="159.033203" xlink:href="#aa"/>
</g>
</g>
<g clip-path="url(#a)">
<g transform="translate(136.84 319.68) scale(.1 -.1)">
<use xlink:href="#c"/>
<use x="63.623047" xlink:href="#d"/>
<use x="95.410156" xlink:href="#m"/>
<use x="159.033203" xlink:href="#aj"/>
</g>
</g>
<g clip-path="url(#a)">
<g transform="translate(107.34 416.43) scale(.1 -.1)">
<use xlink:href="#c"/>
<use x="63.623047" xlink:href="#d"/>
<use x="95.410156" xlink:href="#m"/>
<use x="159.033203" xlink:href="#ai"/>
</g>
</g>
<g clip-path="url(#a)">
<g transform="translate(135.5 416.43) scale(.1 -.1)">
<use xlink:href="#c"/>
<use x="63.623047" xlink:href="#d"/>
<use x="95.410156" xlink:href="#m"/>
<use x="159.033203" xlink:href="#z"/>
</g>
</g>
<g clip-path="url(#a)">
<g transform="translate(167.68 416.43) scale(.1 -.1)">
<use xlink:href="#c"/>
<use x="63.623047" xlink:href="#d"/>
<use x="95.410156" xlink:href="#m"/>
<use x="159.033203" xlink:href="#ah"/>
</g>
</g>
<g clip-path="url(#a)">
<g transform="translate(34.928 416.43) scale(.1 -.1)">
<use xlink:href="#c"/>
<use x="63.623047" xlink:href="#d"/>
<use x="95.410156" xlink:href="#p"/>
<use x="159.033203" xlink:href="#ab"/>
</g>
</g>
<g clip-path="url(#a)">
<g transform="translate(336.63 416.43) scale(.1 -.1)">
<use xlink:href="#c"/>
<use x="63.623047" xlink:href="#d"/>
<use x="95.410156" xlink:href="#p"/>
<use x="159.033203" xlink:href="#c"/>
</g>
</g>
<g clip-path="url(#a)">
<g transform="translate(956.14 416.43) scale(.1 -.1)">
<use xlink:href="#c"/>
<use x="63.623047" xlink:href="#d"/>
<use x="95.410156" xlink:href="#p"/>
<use x="159.033203" xlink:href="#m"/>
</g>
</g>
<defs>
<clipPath id="a">
<rect width="1013.3" height="533.33"/>
</clipPath>
</defs>
</svg>
