<?xml version="1.0" encoding="UTF-8"?>
<!DOCTYPE svg  PUBLIC '-//W3C//DTD SVG 1.1//EN'  'http://www.w3.org/Graphics/SVG/1.1/DTD/svg11.dtd'>
<svg width="1013.3pt" height="533.33pt" version="1.1" viewBox="0 0 1013.3 533.33" xmlns="http://www.w3.org/2000/svg" xmlns:xlink="http://www.w3.org/1999/xlink">
<metadata>
<rdf:RDF xmlns:cc="http://creativecommons.org/ns#" xmlns:dc="http://purl.org/dc/elements/1.1/" xmlns:rdf="http://www.w3.org/1999/02/22-rdf-syntax-ns#">
<cc:Work>
<dc:type rdf:resource="http://purl.org/dc/dcmitype/StillImage"/>
<dc:date>2021-02-09T20:39:48.337688</dc:date>
<dc:format>image/svg+xml</dc:format>
<dc:creator>
<cc:Agent>
<dc:title>Matplotlib v3.3.3, https://matplotlib.org/</dc:title>
</cc:Agent>
</dc:creator>
</cc:Work>
</rdf:RDF>
</metadata>
<defs>
<style type="text/css">*{stroke-linecap:butt;stroke-linejoin:round;}</style>
</defs>
<path d="m0 533.33h1013.3v-533.33h-1013.3z" fill="#fff"/>
<g fill="none" stroke="#000">
<path d="m597.1 24.242v54.379" clip-path="url(#a)"/>
<path d="m597.1 78.622-491.74 54.311" clip-path="url(#a)"/>
<path d="m597.1 78.622 204.51 377.77" clip-path="url(#a)"/>
<path d="m597.1 78.622 285.32 377.77" clip-path="url(#a)"/>
<path d="m597.1 78.622-551.04 377.77" clip-path="url(#a)"/>
<path d="m597.1 78.622 55.02 377.77" clip-path="url(#a)"/>
<path d="m597.1 78.622 127.75 377.77" clip-path="url(#a)"/>
<path d="m597.1 78.622 370.17 377.77" clip-path="url(#a)"/>
<path d="m105.37 132.93-47.184 323.46" clip-path="url(#a)"/>
<path d="m105.37 132.93-31.023 323.46" clip-path="url(#a)"/>
<path d="m105.37 132.93-10.821 323.46" clip-path="url(#a)"/>
<path d="m105.37 132.93 89.028 54.233" clip-path="url(#a)"/>
<path d="m801.62 456.39v52.701" clip-path="url(#a)"/>
<path d="m882.42 456.39v52.701" clip-path="url(#a)"/>
<path d="m58.182 456.39v52.701" clip-path="url(#a)"/>
<path d="m74.343 456.39v52.701" clip-path="url(#a)"/>
<path d="m94.545 456.39v52.701" clip-path="url(#a)"/>
<path d="m194.39 187.17-75.606 269.22" clip-path="url(#a)"/>
<path d="m194.39 187.17-47.323 269.22" clip-path="url(#a)"/>
<path d="m194.39 187.17-15 269.22" clip-path="url(#a)"/>
<path d="m194.39 187.17 21.364 269.22" clip-path="url(#a)"/>
<path d="m194.39 187.17 116.57 54.143" clip-path="url(#a)"/>
<path d="m118.79 456.39v52.701" clip-path="url(#a)"/>
<path d="m147.07 456.39v52.701" clip-path="url(#a)"/>
<path d="m179.39 456.39v52.701" clip-path="url(#a)"/>
<path d="m215.76 456.39v52.701" clip-path="url(#a)"/>
<path d="m310.96 241.31-54.798 215.08" clip-path="url(#a)"/>
<path d="m310.96 241.31 54.798 54.034" clip-path="url(#a)"/>
<path d="m256.16 456.39v52.701" clip-path="url(#a)"/>
<path d="m365.76 295.34-109.6 161.05" clip-path="url(#a)" stroke-dasharray="3.7,1.6"/>
<path d="m365.76 295.34-65.152 161.05" clip-path="url(#a)"/>
<path d="m365.76 295.34 9.596 107.61" clip-path="url(#a)"/>
<path d="m365.76 295.34 165.15 53.897" clip-path="url(#a)"/>
<path d="m300.61 456.39v52.701" clip-path="url(#a)"/>
<path d="m375.35 402.96-26.263 53.434" clip-path="url(#a)"/>
<path d="m375.35 402.96 26.263 53.434" clip-path="url(#a)"/>
<path d="m530.91 349.24-72.727 107.15" clip-path="url(#a)"/>
<path d="m530.91 349.24 20.202 53.715" clip-path="url(#a)"/>
<path d="m530.91 349.24 52.525 107.15" clip-path="url(#a)"/>
<path d="m458.18 456.39v52.701" clip-path="url(#a)"/>
<path d="m551.11 402.96 32.323 53.434" clip-path="url(#a)" stroke-dasharray="3.7,1.6"/>
<path d="m551.11 402.96-32.323 53.434" clip-path="url(#a)"/>
<path d="m583.43 456.39v52.701" clip-path="url(#a)"/>
<path d="m518.79 456.39v52.701" clip-path="url(#a)"/>
<path d="m349.09 456.39v52.701" clip-path="url(#a)"/>
<path d="m401.62 456.39v52.701" clip-path="url(#a)"/>
<path d="m46.061 456.39v52.701" clip-path="url(#a)"/>
<path d="m652.12 456.39v52.701" clip-path="url(#a)"/>
<path d="m724.85 456.39v52.701" clip-path="url(#a)"/>
<path d="m967.27 456.39v52.701" clip-path="url(#a)"/>
</g>
<path d="m590.83 48.424v6.0162q0 2.4 2.4 2.4h7.7425q2.4 0 2.4-2.4v-6.0162q0-2.4-2.4-2.4h-7.7425q-2.4 0-2.4 2.4z" clip-path="url(#a)" fill="#fff" stroke="#fff"/>
<g clip-path="url(#a)">
<g transform="translate(594.89 48.424) rotate(90) scale(.08 -.08)">
<defs>
<path id="ao" d="m9.8125 72.906h9.8594v-29.891h35.844v29.891h9.8594v-72.906h-9.8594v34.719h-35.844v-34.719h-9.8594z"/>
</defs>
<use xlink:href="#ao"/>
</g>
</g>
<path d="m349.2 112.31 5.4394-0.60078q2.3855-0.26347 2.122-2.649l-0.84998-7.6957q-0.26347-2.3855-2.649-2.122l-5.4394 0.60078q-2.3855 0.26347-2.122 2.649l0.84998 7.6957q0.26347 2.3855 2.649 2.122z" clip-path="url(#a)" fill="#fff" stroke="#fff"/>
<g clip-path="url(#a)">
<g transform="translate(348.76 108.27) rotate(-6.3027) scale(.08 -.08)">
<defs>
<path id="n" d="m34.188 63.188-13.391-36.281h26.812zm-5.5781 9.7188h11.188l27.781-72.906h-10.25l-6.6406 18.703h-32.859l-6.6406-18.703h-10.406z"/>
</defs>
<use xlink:href="#n"/>
</g>
</g>
<path d="m692.54 268.09 2.6054 4.8125q1.1426 2.1106 3.2532 0.96795l6.8087-3.6861q2.1106-1.1426 0.96795-3.2532l-2.6054-4.8125q-1.1426-2.1106-3.2532-0.96795l-6.8087 3.6861q-2.1106 1.1426-0.96795 3.2532z" clip-path="url(#a)" fill="#fff" stroke="#fff"/>
<g clip-path="url(#a)">
<g transform="translate(696.11 266.15) rotate(61.57) scale(.08 -.08)">
<use xlink:href="#n"/>
</g>
</g>
<path d="m733.3 269.36 2.9073 3.8492q1.4465 1.9151 3.3616 0.46866l6.1783-4.6664q1.9151-1.4465 0.46866-3.3616l-2.9073-3.8492q-1.4465-1.9151-3.3616-0.46866l-6.1783 4.6664q-1.9151 1.4465-0.46866 3.3616z" clip-path="url(#a)" fill="#fff" stroke="#fff"/>
<g clip-path="url(#a)">
<g transform="translate(736.55 266.91) rotate(52.937) scale(.08 -.08)">
<defs>
<path id="ad" d="m19.672 64.797v-27.391h12.406q6.8906 0 10.641 3.5625 3.7656 3.5625 3.7656 10.156 0 6.5469-3.7656 10.109-3.75 3.5625-10.641 3.5625zm-9.8594 8.1094h22.266q12.266 0 18.531-5.5469 6.2812-5.5469 6.2812-16.234 0-10.797-6.2812-16.312-6.2656-5.5156-18.531-5.5156h-12.406v-29.297h-9.8594z"/>
</defs>
<use xlink:href="#ad"/>
</g>
</g>
<path d="m322.71 274.33 4.8292-3.3106q1.9795-1.3571 0.62245-3.3365l-4.3779-6.3859q-1.3571-1.9795-3.3365-0.62245l-4.8292 3.3106q-1.9795 1.3571-0.62245 3.3365l4.3779 6.3859q1.3571 1.9795 3.3365 0.62245z" clip-path="url(#a)" fill="#fff" stroke="#fff"/>
<g clip-path="url(#a)">
<g transform="translate(320.41 270.98) rotate(-34.433) scale(.08 -.08)">
<defs>
<path id="r" d="m8.6875 72.906h9.9219v-44.297q0-11.719 4.2344-16.875 4.25-5.1406 13.781-5.1406 9.4688 0 13.719 5.1406 4.25 5.1562 4.25 16.875v44.297h9.9062v-45.516q0-14.25-7.0625-21.531-7.0469-7.2812-20.812-7.2812-13.828 0-20.891 7.2812-7.0469 7.2812-7.0469 21.531z"/>
</defs>
<use xlink:href="#r"/>
</g>
</g>
<path d="m617.98 265.51 0.84385 5.7939q0.3459 2.3749 2.7208 2.029l7.6617-1.1159q2.3749-0.3459 2.029-2.7208l-0.84385-5.7939q-0.3459-2.3749-2.7208-2.029l-7.6617 1.1159q-2.3749 0.3459-2.029 2.7208z" clip-path="url(#a)" fill="#fff" stroke="#fff"/>
<g clip-path="url(#a)">
<g transform="translate(622 264.93) rotate(81.713) scale(.08 -.08)">
<use xlink:href="#r"/>
</g>
</g>
<path d="m654.1 266.74 1.8756 5.5465q0.76882 2.2735 3.0423 1.5047l7.3345-2.4803q2.2735-0.76882 1.5047-3.0423l-1.8756-5.5465q-0.76882-2.2735-3.0423-1.5047l-7.3345 2.4803q-2.2735 0.76882-1.5047 3.0423z" clip-path="url(#a)" fill="#fff" stroke="#fff"/>
<g clip-path="url(#a)">
<g transform="translate(657.95 265.44) rotate(71.316) scale(.08 -.08)">
<use xlink:href="#r"/>
</g>
</g>
<path d="m775.66 269.8 4.0978 4.1819q1.6797 1.7142 3.3939 0.034471l5.5301-5.4189q1.7142-1.6797 0.034471-3.3939l-4.0978-4.1819q-1.6797-1.7142-3.3939-0.034471l-5.5301 5.4189q-1.7142 1.6797-0.034471 3.3939z" clip-path="url(#a)" fill="#fff" stroke="#fff"/>
<g clip-path="url(#a)">
<g transform="translate(778.56 266.96) rotate(45.582) scale(.08 -.08)">
<use xlink:href="#r"/>
</g>
</g>
<path d="m87.585 298.27 0.78994-5.4152q0.34643-2.3749-2.0284-2.7213l-7.6614-1.1176q-2.3749-0.34643-2.7213 2.0284l-0.78994 5.4152q-0.34643 2.3749 2.0284 2.7213l7.6614 1.1176q2.3749 0.34643 2.7213-2.0284z" clip-path="url(#a)" fill="#fff" stroke="#fff"/>
<g clip-path="url(#a)">
<g transform="translate(83.563 297.69) rotate(-81.7) scale(.08 -.08)">
<use xlink:href="#n"/>
</g>
</g>
<path d="m95.878 297.55 0.43929-4.5802q0.22913-2.389-2.1599-2.6182l-7.7071-0.73919q-2.389-0.22913-2.6182 2.1599l-0.43929 4.5802q-0.22913 2.389 2.1599 2.6182l7.7071 0.73919q2.389 0.22913 2.6182-2.1599z" clip-path="url(#a)" fill="#fff" stroke="#fff"/>
<g clip-path="url(#a)">
<g transform="translate(91.833 297.16) rotate(-84.522) scale(.08 -.08)">
<defs>
<path id="s" d="m9.8125 72.906h41.891v-8.3125h-32.031v-21.484h28.906v-8.2969h-28.906v-34.812h-9.8594z"/>
</defs>
<use xlink:href="#s"/>
</g>
</g>
<path d="m106.14 297.41 0.16981-5.0759q0.080243-2.3987-2.3184-2.4789l-7.7382-0.25887q-2.3987-0.080243-2.4789 2.3184l-0.16981 5.0759q-0.080243 2.3987 2.3184 2.4789l7.7382 0.25887q2.3987 0.080243 2.4789-2.3184z" clip-path="url(#a)" fill="#fff" stroke="#fff"/>
<g clip-path="url(#a)">
<g transform="translate(102.08 297.27) rotate(-88.084) scale(.08 -.08)">
<defs>
<path id="t" d="m53.516 70.516v-9.625q-5.6094 2.6875-10.594 4-4.9844 1.3281-9.625 1.3281-8.0469 0-12.422-3.125t-4.375-8.8906q0-4.8438 2.9062-7.3125 2.9062-2.4531 11.016-3.9688l5.9531-1.2188q11.031-2.1094 16.281-7.4062t5.25-14.172q0-10.609-7.1094-16.078-7.0938-5.4688-20.812-5.4688-5.1719 0-11.016 1.1719-5.8281 1.1719-12.078 3.4688v10.156q6-3.3594 11.766-5.0781 5.7656-1.7031 11.328-1.7031 8.4375 0 13.031 3.3125 4.5938 3.3281 4.5938 9.4844 0 5.3594-3.2969 8.3906t-10.812 4.5469l-6.0156 1.1719q-11.031 2.1875-15.969 6.875-4.9219 4.6875-4.9219 13.047 0 9.6719 6.8125 15.234t18.766 5.5625q5.1406 0 10.453-0.9375 5.3281-0.92188 10.891-2.7656z"/>
</defs>
<use xlink:href="#t"/>
</g>
</g>
<path d="m144.28 163.98 4.6736 2.847q2.0496 1.2486 3.2982-0.80105l4.028-6.6122q1.2486-2.0496-0.80105-3.2982l-4.6736-2.847q-2.0496-1.2486-3.2982 0.80105l-4.028 6.6122q-1.2486 2.0496 0.80105 3.2982z" clip-path="url(#a)" fill="#fff" stroke="#fff"/>
<g clip-path="url(#a)">
<g transform="translate(146.39 160.51) rotate(31.349) scale(.08 -.08)">
<use xlink:href="#n"/>
</g>
</g>
<path d="m795.34 465.84v33.808q0 2.4 2.4 2.4h7.7425q2.4 0 2.4-2.4v-33.808q0-2.4-2.4-2.4h-7.7425q-2.4 0-2.4 2.4z" clip-path="url(#a)" fill="#fff" stroke="#fff"/>
<g clip-path="url(#a)">
<g transform="translate(799.41 465.84) rotate(90) scale(.08 -.08)">
<defs>
<path id="l" d="m-0.29688 72.906h61.672v-8.3125h-25.875v-64.594h-9.9062v64.594h-25.891z"/>
<path id="f" d="m56.203 29.594v-4.3906h-41.312q0.59375-9.2812 5.5938-14.141t13.938-4.8594q5.1719 0 10.031 1.2656t9.6562 3.8125v-8.5q-4.8438-2.0469-9.9219-3.125t-10.297-1.0781q-13.094 0-20.734 7.6094-7.6406 7.625-7.6406 20.625 0 13.422 7.25 21.297 7.25 7.8906 19.562 7.8906 11.031 0 17.453-7.1094 6.4219-7.0938 6.4219-19.297zm-8.9844 2.6406q-0.09375 7.3594-4.125 11.75-4.0312 4.4062-10.672 4.4062-7.5156 0-12.031-4.25t-5.2031-11.969z"/>
<path id="i" d="m41.109 46.297q-1.5156 0.875-3.2969 1.2812-1.7812 0.42188-3.9219 0.42188-7.625 0-11.703-4.9531t-4.0781-14.234v-28.812h-9.0312v54.688h9.0312v-8.5q2.8438 4.9844 7.375 7.3906 4.5469 2.4219 11.047 2.4219 0.92188 0 2.0469-0.125 1.125-0.10938 2.4844-0.35938z"/>
<path id="j" d="m52 44.188q3.375 6.0625 8.0625 8.9375t11.031 2.875q8.5469 0 13.188-5.9844 4.6406-5.9688 4.6406-17v-33.016h-9.0312v32.719q0 7.8594-2.7969 11.656-2.7812 3.8125-8.4844 3.8125-6.9844 0-11.047-4.6406-4.0469-4.625-4.0469-12.641v-30.906h-9.0312v32.719q0 7.9062-2.7812 11.688t-8.5938 3.7812q-6.8906 0-10.953-4.6562-4.0469-4.6562-4.0469-12.625v-30.906h-9.0312v54.688h9.0312v-8.5q3.0781 5.0312 7.375 7.4219t10.203 2.3906q5.9688 0 10.141-3.0312 4.1719-3.0156 6.1719-8.7812z"/>
<path id="h" d="m9.4219 54.688h8.9844v-54.688h-8.9844zm0 21.297h8.9844v-11.391h-8.9844z"/>
<path id="g" d="m54.891 33.016v-33.016h-8.9844v32.719q0 7.7656-3.0312 11.609-3.0312 3.8594-9.0781 3.8594-7.2812 0-11.484-4.6406-4.2031-4.625-4.2031-12.641v-30.906h-9.0312v54.688h9.0312v-8.5q3.2344 4.9375 7.5938 7.375 4.375 2.4375 10.094 2.4375 9.4219 0 14.25-5.8281 4.8438-5.8281 4.8438-17.156z"/>
<path id="e" d="m34.281 27.484q-10.891 0-15.094-2.4844t-4.2031-8.5q0-4.7812 3.1562-7.5938 3.1562-2.7969 8.5625-2.7969 7.4844 0 12 5.2969t4.5156 14.078v2zm17.922 3.7188v-31.203h-8.9844v8.2969q-3.0781-4.9688-7.6719-7.3438t-11.234-2.375q-8.3906 0-13.359 4.7188-4.9531 4.7188-4.9531 12.625 0 9.2188 6.1719 13.906 6.1875 4.6875 18.438 4.6875h12.609v0.89062q0 6.2031-4.0781 9.5938t-11.453 3.3906q-4.6875 0-9.1406-1.125-4.4375-1.125-8.5312-3.375v8.3125q4.9219 1.9062 9.5625 2.8438 4.6406 0.95312 9.0312 0.95312 11.875 0 17.734-6.1562 5.8594-6.1406 5.8594-18.641z"/>
<path id="k" d="m9.4219 75.984h8.9844v-75.984h-8.9844z"/>
</defs>
<use xlink:href="#l"/>
<use x="44.083984" xlink:href="#f"/>
<use x="105.607422" xlink:href="#i"/>
<use x="144.970703" xlink:href="#j"/>
<use x="242.382812" xlink:href="#h"/>
<use x="270.166016" xlink:href="#g"/>
<use x="333.544922" xlink:href="#e"/>
<use x="394.824219" xlink:href="#k"/>
</g>
</g>
<path d="m876.15 465.84v33.808q0 2.4 2.4 2.4h7.7425q2.4 0 2.4-2.4v-33.808q0-2.4-2.4-2.4h-7.7425q-2.4 0-2.4 2.4z" clip-path="url(#a)" fill="#fff" stroke="#fff"/>
<g clip-path="url(#a)">
<g transform="translate(880.22 465.84) rotate(90) scale(.08 -.08)">
<use xlink:href="#l"/>
<use x="44.083984" xlink:href="#f"/>
<use x="105.607422" xlink:href="#i"/>
<use x="144.970703" xlink:href="#j"/>
<use x="242.382812" xlink:href="#h"/>
<use x="270.166016" xlink:href="#g"/>
<use x="333.544922" xlink:href="#e"/>
<use x="394.824219" xlink:href="#k"/>
</g>
</g>
<path d="m51.911 465.84v33.808q0 2.4 2.4 2.4h7.7425q2.4 0 2.4-2.4v-33.808q0-2.4-2.4-2.4h-7.7425q-2.4 0-2.4 2.4z" clip-path="url(#a)" fill="#fff" stroke="#fff"/>
<g clip-path="url(#a)">
<g transform="translate(55.974 465.84) rotate(90) scale(.08 -.08)">
<use xlink:href="#l"/>
<use x="44.083984" xlink:href="#f"/>
<use x="105.607422" xlink:href="#i"/>
<use x="144.970703" xlink:href="#j"/>
<use x="242.382812" xlink:href="#h"/>
<use x="270.166016" xlink:href="#g"/>
<use x="333.544922" xlink:href="#e"/>
<use x="394.824219" xlink:href="#k"/>
</g>
</g>
<path d="m68.072 465.84v33.808q0 2.4 2.4 2.4h7.7425q2.4 0 2.4-2.4v-33.808q0-2.4-2.4-2.4h-7.7425q-2.4 0-2.4 2.4z" clip-path="url(#a)" fill="#fff" stroke="#fff"/>
<g clip-path="url(#a)">
<g transform="translate(72.136 465.84) rotate(90) scale(.08 -.08)">
<use xlink:href="#l"/>
<use x="44.083984" xlink:href="#f"/>
<use x="105.607422" xlink:href="#i"/>
<use x="144.970703" xlink:href="#j"/>
<use x="242.382812" xlink:href="#h"/>
<use x="270.166016" xlink:href="#g"/>
<use x="333.544922" xlink:href="#e"/>
<use x="394.824219" xlink:href="#k"/>
</g>
</g>
<path d="m88.274 465.84v33.808q0 2.4 2.4 2.4h7.7425q2.4 0 2.4-2.4v-33.808q0-2.4-2.4-2.4h-7.7425q-2.4 0-2.4 2.4z" clip-path="url(#a)" fill="#fff" stroke="#fff"/>
<g clip-path="url(#a)">
<g transform="translate(92.338 465.84) rotate(90) scale(.08 -.08)">
<use xlink:href="#l"/>
<use x="44.083984" xlink:href="#f"/>
<use x="105.607422" xlink:href="#i"/>
<use x="144.970703" xlink:href="#j"/>
<use x="242.382812" xlink:href="#h"/>
<use x="270.166016" xlink:href="#g"/>
<use x="333.544922" xlink:href="#e"/>
<use x="394.824219" xlink:href="#k"/>
</g>
</g>
<path d="m161.88 326.15 1.5029-5.3517q0.64889-2.3106-1.6617-2.9595l-7.4541-2.0934q-2.3106-0.64889-2.9595 1.6617l-1.5029 5.3517q-0.64889 2.3106 1.6617 2.9595l7.4541 2.0934q2.3106 0.64889 2.9595-1.6617z" clip-path="url(#a)" fill="#fff" stroke="#fff"/>
<g clip-path="url(#a)">
<g transform="translate(157.96 325.05) rotate(-74.314) scale(.08 -.08)">
<defs>
<path id="ac" d="m44.391 34.188q3.1719-1.0781 6.1719-4.5938t6.0312-9.6719l10.016-19.922h-10.609l-9.3125 18.703q-3.625 7.3281-7.0156 9.7188t-9.25 2.3906h-10.75v-30.812h-9.8594v72.906h22.266q12.5 0 18.656-5.2344 6.1562-5.2188 6.1562-15.766 0-6.8906-3.2031-11.438-3.2031-4.5312-9.2969-6.2812zm-24.719 30.609v-25.875h12.406q7.125 0 10.766 3.2969t3.6406 9.6875-3.6406 9.6406-10.766 3.25z"/>
</defs>
<use xlink:href="#ac"/>
</g>
</g>
<path d="m176.44 325.56 0.94741-5.3899q0.4155-2.3638-1.9483-2.7793l-7.6256-1.3404q-2.3638-0.4155-2.7793 1.9483l-0.94742 5.3899q-0.41549 2.3638 1.9483 2.7793l7.6256 1.3404q2.3638 0.4155 2.7793-1.9483z" clip-path="url(#a)" fill="#fff" stroke="#fff"/>
<g clip-path="url(#a)">
<g transform="translate(172.43 324.86) rotate(-80.031) scale(.08 -.08)">
<use xlink:href="#n"/>
</g>
</g>
<path d="m193.03 324.42 0.25597-4.5941q0.13351-2.3963-2.2628-2.5298l-7.7305-0.43071q-2.3963-0.13351-2.5298 2.2628l-0.25596 4.5941q-0.13351 2.3963 2.2628 2.5298l7.7305 0.43071q2.3963 0.13351 2.5298-2.2628z" clip-path="url(#a)" fill="#fff" stroke="#fff"/>
<g clip-path="url(#a)">
<g transform="translate(188.97 324.2) rotate(-86.811) scale(.08 -.08)">
<use xlink:href="#s"/>
</g>
</g>
<path d="m198.63 319.87 0.38158 4.8086q0.18985 2.3925 2.5823 2.2026l7.7182-0.61246q2.3925-0.18985 2.2026-2.5823l-0.38158-4.8086q-0.18985-2.3925-2.5823-2.2026l-7.7182 0.61246q-2.3925 0.18985-2.2026 2.5823z" clip-path="url(#a)" fill="#fff" stroke="#fff"/>
<g clip-path="url(#a)">
<g transform="translate(202.68 319.55) rotate(85.463) scale(.08 -.08)">
<use xlink:href="#ad"/>
</g>
</g>
<path d="m247.55 218.77 4.9632 2.3053q2.1767 1.011 3.1877-1.1656l3.2616-7.022q1.011-2.1767-1.1656-3.1877l-4.9632-2.3053q-2.1767-1.011-3.1877 1.1656l-3.2616 7.022q-1.011 2.1767 1.1656 3.1877z" clip-path="url(#a)" fill="#fff" stroke="#fff"/>
<g clip-path="url(#a)">
<g transform="translate(249.27 215.09) rotate(24.914) scale(.08 -.08)">
<use xlink:href="#n"/>
</g>
</g>
<path d="m112.52 465.84v33.808q0 2.4 2.4 2.4h7.7425q2.4 0 2.4-2.4v-33.808q0-2.4-2.4-2.4h-7.7425q-2.4 0-2.4 2.4z" clip-path="url(#a)" fill="#fff" stroke="#fff"/>
<g clip-path="url(#a)">
<g transform="translate(116.58 465.84) rotate(90) scale(.08 -.08)">
<use xlink:href="#l"/>
<use x="44.083984" xlink:href="#f"/>
<use x="105.607422" xlink:href="#i"/>
<use x="144.970703" xlink:href="#j"/>
<use x="242.382812" xlink:href="#h"/>
<use x="270.166016" xlink:href="#g"/>
<use x="333.544922" xlink:href="#e"/>
<use x="394.824219" xlink:href="#k"/>
</g>
</g>
<path d="m140.8 465.84v33.808q0 2.4 2.4 2.4h7.7425q2.4 0 2.4-2.4v-33.808q0-2.4-2.4-2.4h-7.7425q-2.4 0-2.4 2.4z" clip-path="url(#a)" fill="#fff" stroke="#fff"/>
<g clip-path="url(#a)">
<g transform="translate(144.86 465.84) rotate(90) scale(.08 -.08)">
<use xlink:href="#l"/>
<use x="44.083984" xlink:href="#f"/>
<use x="105.607422" xlink:href="#i"/>
<use x="144.970703" xlink:href="#j"/>
<use x="242.382812" xlink:href="#h"/>
<use x="270.166016" xlink:href="#g"/>
<use x="333.544922" xlink:href="#e"/>
<use x="394.824219" xlink:href="#k"/>
</g>
</g>
<path d="m173.12 465.84v33.808q0 2.4 2.4 2.4h7.7425q2.4 0 2.4-2.4v-33.808q0-2.4-2.4-2.4h-7.7425q-2.4 0-2.4 2.4z" clip-path="url(#a)" fill="#fff" stroke="#fff"/>
<g clip-path="url(#a)">
<g transform="translate(177.19 465.84) rotate(90) scale(.08 -.08)">
<use xlink:href="#l"/>
<use x="44.083984" xlink:href="#f"/>
<use x="105.607422" xlink:href="#i"/>
<use x="144.970703" xlink:href="#j"/>
<use x="242.382812" xlink:href="#h"/>
<use x="270.166016" xlink:href="#g"/>
<use x="333.544922" xlink:href="#e"/>
<use x="394.824219" xlink:href="#k"/>
</g>
</g>
<path d="m209.49 465.84v33.808q0 2.4 2.4 2.4h7.7425q2.4 0 2.4-2.4v-33.808q0-2.4-2.4-2.4h-7.7425q-2.4 0-2.4 2.4z" clip-path="url(#a)" fill="#fff" stroke="#fff"/>
<g clip-path="url(#a)">
<g transform="translate(213.55 465.84) rotate(90) scale(.08 -.08)">
<use xlink:href="#l"/>
<use x="44.083984" xlink:href="#f"/>
<use x="105.607422" xlink:href="#i"/>
<use x="144.970703" xlink:href="#j"/>
<use x="242.382812" xlink:href="#h"/>
<use x="270.166016" xlink:href="#g"/>
<use x="333.544922" xlink:href="#e"/>
<use x="394.824219" xlink:href="#k"/>
</g>
</g>
<path d="m288.95 353.1 1.3792-5.4133q0.59254-2.3257-1.7332-2.9182l-7.5028-1.9116q-2.3257-0.59254-2.9182 1.7332l-1.3792 5.4133q-0.59254 2.3257 1.7332 2.9182l7.5028 1.9116q2.3257 0.59254 2.9182-1.7332z" clip-path="url(#a)" fill="#fff" stroke="#fff"/>
<g clip-path="url(#a)">
<g transform="translate(285.01 352.1) rotate(-75.706) scale(.08 -.08)">
<defs>
<path id="u" d="m64.406 67.281v-10.391q-4.9844 4.6406-10.625 6.9219-5.6406 2.2969-11.984 2.2969-12.5 0-19.141-7.6406t-6.6406-22.094q0-14.406 6.6406-22.047t19.141-7.6406q6.3438 0 11.984 2.2969t10.625 6.9375v-10.312q-5.1719-3.5156-10.969-5.2812-5.7812-1.75-12.219-1.75-16.562 0-26.094 10.125-9.5156 10.141-9.5156 27.672 0 17.578 9.5156 27.703 9.5312 10.141 26.094 10.141 6.5312 0 12.312-1.7344 5.7969-1.7344 10.875-5.2031z"/>
</defs>
<use xlink:href="#u"/>
</g>
</g>
<path d="m332.16 271.02 3.5994 3.5492q1.7089 1.6851 3.394-0.023831l5.4362-5.5131q1.6851-1.7089-0.023831-3.394l-3.5994-3.5492q-1.7089-1.6851-3.394 0.023831l-5.4362 5.5131q-1.6851 1.7089 0.023831 3.394z" clip-path="url(#a)" fill="#fff" stroke="#fff"/>
<g clip-path="url(#a)">
<g transform="translate(335.01 268.12) rotate(44.598) scale(.08 -.08)">
<defs>
<path id="ae" d="m9.8125 72.906h46.094v-8.3125h-36.234v-21.578h34.719v-8.2969h-34.719v-26.422h37.109v-8.2969h-46.969z"/>
</defs>
<use xlink:href="#ae"/>
</g>
</g>
<path d="m249.89 465.84v33.808q0 2.4 2.4 2.4h7.7425q2.4 0 2.4-2.4v-33.808q0-2.4-2.4-2.4h-7.7425q-2.4 0-2.4 2.4z" clip-path="url(#a)" fill="#fff" stroke="#fff"/>
<g clip-path="url(#a)">
<g transform="translate(253.95 465.84) rotate(90) scale(.08 -.08)">
<use xlink:href="#l"/>
<use x="44.083984" xlink:href="#f"/>
<use x="105.607422" xlink:href="#i"/>
<use x="144.970703" xlink:href="#j"/>
<use x="242.382812" xlink:href="#h"/>
<use x="270.166016" xlink:href="#g"/>
<use x="333.544922" xlink:href="#e"/>
<use x="394.824219" xlink:href="#k"/>
</g>
</g>
<path d="m314.6 381.66 3.0789-4.5243q1.3503-1.9841-0.63389-3.3344l-6.4009-4.356q-1.9841-1.3503-3.3344 0.63389l-3.0789 4.5243q-1.3503 1.9841 0.63389 3.3344l6.4009 4.356q1.9841 1.3503 3.3344-0.63389z" clip-path="url(#a)" fill="#fff" stroke="#fff"/>
<g clip-path="url(#a)">
<g transform="translate(311.25 379.37) rotate(-55.764) scale(.08 -.08)">
<use xlink:href="#n"/>
</g>
</g>
<path d="m338.13 380.35 1.7256-4.2654q0.90006-2.2248-1.3248-3.1249l-7.1774-2.9036q-2.2248-0.90006-3.1249 1.3248l-1.7256 4.2654q-0.90006 2.2248 1.3248 3.1249l7.1774 2.9036q2.2248 0.90006 3.1249-1.3248z" clip-path="url(#a)" fill="#fff" stroke="#fff"/>
<g clip-path="url(#a)">
<g transform="translate(334.37 378.83) rotate(-67.974) scale(.08 -.08)">
<use xlink:href="#s"/>
</g>
</g>
<path d="m364.08 347.18 0.45109 5.0587q0.21317 2.3905 2.6037 2.1773l7.7119-0.68768q2.3905-0.21317 2.1773-2.6037l-0.45109-5.0587q-0.21317-2.3905-2.6037-2.1773l-7.7119 0.68768q-2.3905 0.21317-2.1773 2.6037z" clip-path="url(#a)" fill="#fff" stroke="#fff"/>
<g clip-path="url(#a)">
<g transform="translate(368.13 346.82) rotate(84.904) scale(.08 -.08)">
<use xlink:href="#t"/>
</g>
</g>
<path d="m443.79 327.4 5.2025 1.6978q2.2816 0.7446 3.0262-1.537l2.4021-7.3605q0.7446-2.2816-1.537-3.0262l-5.2025-1.6978q-2.2816-0.7446-3.0262 1.537l-2.4021 7.3605q-0.7446 2.2816 1.537 3.0262z" clip-path="url(#a)" fill="#fff" stroke="#fff"/>
<g clip-path="url(#a)">
<g transform="translate(445.05 323.54) rotate(18.074) scale(.08 -.08)">
<use xlink:href="#n"/>
</g>
</g>
<path d="m294.33 465.84v33.808q0 2.4 2.4 2.4h7.7425q2.4 0 2.4-2.4v-33.808q0-2.4-2.4-2.4h-7.7425q-2.4 0-2.4 2.4z" clip-path="url(#a)" fill="#fff" stroke="#fff"/>
<g clip-path="url(#a)">
<g transform="translate(298.4 465.84) rotate(90) scale(.08 -.08)">
<use xlink:href="#l"/>
<use x="44.083984" xlink:href="#f"/>
<use x="105.607422" xlink:href="#i"/>
<use x="144.970703" xlink:href="#j"/>
<use x="242.382812" xlink:href="#h"/>
<use x="270.166016" xlink:href="#g"/>
<use x="333.544922" xlink:href="#e"/>
<use x="394.824219" xlink:href="#k"/>
</g>
</g>
<path d="m366.84 434.5 2.0296-4.1294q1.0586-2.1539-1.0953-3.2125l-6.9486-3.4152q-2.1539-1.0586-3.2125 1.0953l-2.0296 4.1294q-1.0586 2.1539 1.0953 3.2125l6.9486 3.4152q2.1539 1.0586 3.2125-1.0953z" clip-path="url(#a)" fill="#fff" stroke="#fff"/>
<g clip-path="url(#a)">
<g transform="translate(363.19 432.71) rotate(-63.826) scale(.08 -.08)">
<use xlink:href="#s"/>
</g>
</g>
<path d="m381.62 429.93 2.4641 5.0134q1.0586 2.1539 3.2125 1.0953l6.9486-3.4152q2.1539-1.0586 1.0953-3.2125l-2.4641-5.0134q-1.0586-2.1539-3.2125-1.0953l-6.9486 3.4152q-2.1539 1.0586-1.0953 3.2125z" clip-path="url(#a)" fill="#fff" stroke="#fff"/>
<g clip-path="url(#a)">
<g transform="translate(385.27 428.14) rotate(63.826) scale(.08 -.08)">
<use xlink:href="#u"/>
</g>
</g>
<path d="m498.17 408.64 3.1218-4.5994q1.3478-1.9858-0.63793-3.3336l-6.4062-4.3482q-1.9858-1.3478-3.3336 0.63793l-3.1218 4.5994q-1.3478 1.9858 0.63794 3.3336l6.4062 4.3482q1.9858 1.3478 3.3336-0.63793z" clip-path="url(#a)" fill="#fff" stroke="#fff"/>
<g clip-path="url(#a)">
<g transform="translate(494.81 406.35) rotate(-55.833) scale(.08 -.08)">
<use xlink:href="#ac"/>
</g>
</g>
<path d="m534.25 375.94 1.7795 4.7314q0.84486 2.2464 3.0912 1.4015l7.2469-2.7256q2.2464-0.84486 1.4015-3.0912l-1.7795-4.7314q-0.84486-2.2464-3.0912-1.4015l-7.2469 2.7256q-2.2464 0.84486-1.4015 3.0912z" clip-path="url(#a)" fill="#fff" stroke="#fff"/>
<g clip-path="url(#a)">
<g transform="translate(538.05 374.51) rotate(69.389) scale(.08 -.08)">
<use xlink:href="#ae"/>
</g>
</g>
<path d="m550.31 403.07 2.4589 5.016q1.0564 2.155 3.2114 1.0986l6.9521-3.408q2.155-1.0564 1.0986-3.2114l-2.4589-5.016q-1.0564-2.155-3.2114-1.0986l-6.9521 3.408q-2.155 1.0564-1.0986 3.2114z" clip-path="url(#a)" fill="#fff" stroke="#fff"/>
<g clip-path="url(#a)">
<g transform="translate(553.96 401.28) rotate(63.886) scale(.08 -.08)">
<use xlink:href="#u"/>
</g>
</g>
<path d="m451.91 465.84v33.808q0 2.4 2.4 2.4h7.7425q2.4 0 2.4-2.4v-33.808q0-2.4-2.4-2.4h-7.7425q-2.4 0-2.4 2.4z" clip-path="url(#a)" fill="#fff" stroke="#fff"/>
<g clip-path="url(#a)">
<g transform="translate(455.97 465.84) rotate(90) scale(.08 -.08)">
<use xlink:href="#l"/>
<use x="44.083984" xlink:href="#f"/>
<use x="105.607422" xlink:href="#i"/>
<use x="144.970703" xlink:href="#j"/>
<use x="242.382812" xlink:href="#h"/>
<use x="270.166016" xlink:href="#g"/>
<use x="333.544922" xlink:href="#e"/>
<use x="394.824219" xlink:href="#k"/>
</g>
</g>
<path d="m560.49 430.58 2.8325 4.6824q1.2422 2.0535 3.2957 0.81132l6.6247-4.0074q2.0535-1.2422 0.81132-3.2957l-2.8325-4.6824q-1.2422-2.0535-3.2957-0.81132l-6.6247 4.0074q-2.0535 1.2422-0.81132 3.2957z" clip-path="url(#a)" fill="#fff" stroke="#fff"/>
<g clip-path="url(#a)">
<g transform="translate(563.97 428.47) rotate(58.83) scale(.08 -.08)">
<use xlink:href="#n"/>
</g>
</g>
<path d="m537 438.65 6.856-11.334q1.2422-2.0535-0.81132-3.2957l-6.8451-4.1407q-2.0535-1.2422-3.2957 0.81132l-6.856 11.334q-1.2422 2.0535 0.81132 3.2957l6.8451 4.1407q2.0535 1.2422 3.2957-0.81132z" clip-path="url(#a)" fill="#fff" stroke="#fff"/>
<g clip-path="url(#a)">
<g transform="translate(533.33 436.43) rotate(-58.83) scale(.08 -.08)">
<defs>
<path id="aq" d="m21 76.422v-100h-8.2969v100z"/>
</defs>
<use xlink:href="#t"/>
<use x="63.476562" xlink:href="#aq"/>
<use x="97.167969" xlink:href="#n"/>
</g>
</g>
<path d="m577.16 465.84v33.808q0 2.4 2.4 2.4h7.7425q2.4 0 2.4-2.4v-33.808q0-2.4-2.4-2.4h-7.7425q-2.4 0-2.4 2.4z" clip-path="url(#a)" fill="#fff" stroke="#fff"/>
<g clip-path="url(#a)">
<g transform="translate(581.23 465.84) rotate(90) scale(.08 -.08)">
<use xlink:href="#l"/>
<use x="44.083984" xlink:href="#f"/>
<use x="105.607422" xlink:href="#i"/>
<use x="144.970703" xlink:href="#j"/>
<use x="242.382812" xlink:href="#h"/>
<use x="270.166016" xlink:href="#g"/>
<use x="333.544922" xlink:href="#e"/>
<use x="394.824219" xlink:href="#k"/>
</g>
</g>
<path d="m512.52 465.84v33.808q0 2.4 2.4 2.4h7.7425q2.4 0 2.4-2.4v-33.808q0-2.4-2.4-2.4h-7.7425q-2.4 0-2.4 2.4z" clip-path="url(#a)" fill="#fff" stroke="#fff"/>
<g clip-path="url(#a)">
<g transform="translate(516.58 465.84) rotate(90) scale(.08 -.08)">
<use xlink:href="#l"/>
<use x="44.083984" xlink:href="#f"/>
<use x="105.607422" xlink:href="#i"/>
<use x="144.970703" xlink:href="#j"/>
<use x="242.382812" xlink:href="#h"/>
<use x="270.166016" xlink:href="#g"/>
<use x="333.544922" xlink:href="#e"/>
<use x="394.824219" xlink:href="#k"/>
</g>
</g>
<path d="m342.82 465.84v33.808q0 2.4 2.4 2.4h7.7425q2.4 0 2.4-2.4v-33.808q0-2.4-2.4-2.4h-7.7425q-2.4 0-2.4 2.4z" clip-path="url(#a)" fill="#fff" stroke="#fff"/>
<g clip-path="url(#a)">
<g transform="translate(346.88 465.84) rotate(90) scale(.08 -.08)">
<use xlink:href="#l"/>
<use x="44.083984" xlink:href="#f"/>
<use x="105.607422" xlink:href="#i"/>
<use x="144.970703" xlink:href="#j"/>
<use x="242.382812" xlink:href="#h"/>
<use x="270.166016" xlink:href="#g"/>
<use x="333.544922" xlink:href="#e"/>
<use x="394.824219" xlink:href="#k"/>
</g>
</g>
<path d="m395.34 465.84v33.808q0 2.4 2.4 2.4h7.7425q2.4 0 2.4-2.4v-33.808q0-2.4-2.4-2.4h-7.7425q-2.4 0-2.4 2.4z" clip-path="url(#a)" fill="#fff" stroke="#fff"/>
<g clip-path="url(#a)">
<g transform="translate(399.41 465.84) rotate(90) scale(.08 -.08)">
<use xlink:href="#l"/>
<use x="44.083984" xlink:href="#f"/>
<use x="105.607422" xlink:href="#i"/>
<use x="144.970703" xlink:href="#j"/>
<use x="242.382812" xlink:href="#h"/>
<use x="270.166016" xlink:href="#g"/>
<use x="333.544922" xlink:href="#e"/>
<use x="394.824219" xlink:href="#k"/>
</g>
</g>
<path d="m39.789 465.84v33.808q0 2.4 2.4 2.4h7.7425q2.4 0 2.4-2.4v-33.808q0-2.4-2.4-2.4h-7.7425q-2.4 0-2.4 2.4z" clip-path="url(#a)" fill="#fff" stroke="#fff"/>
<g clip-path="url(#a)">
<g transform="translate(43.853 465.84) rotate(90) scale(.08 -.08)">
<use xlink:href="#l"/>
<use x="44.083984" xlink:href="#f"/>
<use x="105.607422" xlink:href="#i"/>
<use x="144.970703" xlink:href="#j"/>
<use x="242.382812" xlink:href="#h"/>
<use x="270.166016" xlink:href="#g"/>
<use x="333.544922" xlink:href="#e"/>
<use x="394.824219" xlink:href="#k"/>
</g>
</g>
<path d="m645.85 465.84v33.808q0 2.4 2.4 2.4h7.7425q2.4 0 2.4-2.4v-33.808q0-2.4-2.4-2.4h-7.7425q-2.4 0-2.4 2.4z" clip-path="url(#a)" fill="#fff" stroke="#fff"/>
<g clip-path="url(#a)">
<g transform="translate(649.91 465.84) rotate(90) scale(.08 -.08)">
<use xlink:href="#l"/>
<use x="44.083984" xlink:href="#f"/>
<use x="105.607422" xlink:href="#i"/>
<use x="144.970703" xlink:href="#j"/>
<use x="242.382812" xlink:href="#h"/>
<use x="270.166016" xlink:href="#g"/>
<use x="333.544922" xlink:href="#e"/>
<use x="394.824219" xlink:href="#k"/>
</g>
</g>
<path d="m718.58 465.84v33.808q0 2.4 2.4 2.4h7.7425q2.4 0 2.4-2.4v-33.808q0-2.4-2.4-2.4h-7.7425q-2.4 0-2.4 2.4z" clip-path="url(#a)" fill="#fff" stroke="#fff"/>
<g clip-path="url(#a)">
<g transform="translate(722.64 465.84) rotate(90) scale(.08 -.08)">
<use xlink:href="#l"/>
<use x="44.083984" xlink:href="#f"/>
<use x="105.607422" xlink:href="#i"/>
<use x="144.970703" xlink:href="#j"/>
<use x="242.382812" xlink:href="#h"/>
<use x="270.166016" xlink:href="#g"/>
<use x="333.544922" xlink:href="#e"/>
<use x="394.824219" xlink:href="#k"/>
</g>
</g>
<path d="m961 465.84v33.808q0 2.4 2.4 2.4h7.7425q2.4 0 2.4-2.4v-33.808q0-2.4-2.4-2.4h-7.7425q-2.4 0-2.4 2.4z" clip-path="url(#a)" fill="#fff" stroke="#fff"/>
<g clip-path="url(#a)">
<g transform="translate(965.07 465.84) rotate(90) scale(.08 -.08)">
<use xlink:href="#l"/>
<use x="44.083984" xlink:href="#f"/>
<use x="105.607422" xlink:href="#i"/>
<use x="144.970703" xlink:href="#j"/>
<use x="242.382812" xlink:href="#h"/>
<use x="270.166016" xlink:href="#g"/>
<use x="333.544922" xlink:href="#e"/>
<use x="394.824219" xlink:href="#k"/>
</g>
</g>
<defs>
<path id="b" d="m0 8.6603c2.2967 0 4.4997-0.9125 6.1237-2.5365 1.624-1.624 2.5365-3.827 2.5365-6.1237s-0.9125-4.4997-2.5365-6.1237c-1.624-1.624-3.827-2.5365-6.1237-2.5365s-4.4997 0.9125-6.1237 2.5365c-1.624 1.624-2.5365 3.827-2.5365 6.1237s0.9125 4.4997 2.5365 6.1237c1.624 1.624 3.827 2.5365 6.1237 2.5365z"/>
</defs>
<g clip-path="url(#a)" fill="#ffffff" stroke="#ffffff">
<use x="46.060606" y="509.090909" xlink:href="#b"/>
<use x="58.181818" y="509.090909" xlink:href="#b"/>
<use x="74.343434" y="509.090909" xlink:href="#b"/>
<use x="94.545455" y="509.090909" xlink:href="#b"/>
<use x="118.787879" y="509.090909" xlink:href="#b"/>
<use x="147.070707" y="509.090909" xlink:href="#b"/>
<use x="179.393939" y="509.090909" xlink:href="#b"/>
<use x="215.757576" y="509.090909" xlink:href="#b"/>
<use x="256.161616" y="509.090909" xlink:href="#b"/>
<use x="300.606061" y="509.090909" xlink:href="#b"/>
<use x="349.090909" y="509.090909" xlink:href="#b"/>
<use x="401.616162" y="509.090909" xlink:href="#b"/>
<use x="458.181818" y="509.090909" xlink:href="#b"/>
<use x="518.787879" y="509.090909" xlink:href="#b"/>
<use x="583.434343" y="509.090909" xlink:href="#b"/>
<use x="652.121212" y="509.090909" xlink:href="#b"/>
<use x="724.848485" y="509.090909" xlink:href="#b"/>
<use x="801.616162" y="509.090909" xlink:href="#b"/>
<use x="882.424242" y="509.090909" xlink:href="#b"/>
<use x="967.272727" y="509.090909" xlink:href="#b"/>
<use x="597.101371" y="24.242424" xlink:href="#b"/>
<use x="597.101371" y="78.621796" xlink:href="#b"/>
<use x="105.366162" y="132.93306" xlink:href="#b"/>
<use x="801.616162" y="456.389636" xlink:href="#b"/>
<use x="882.424242" y="456.389636" xlink:href="#b"/>
<use x="58.181818" y="456.389636" xlink:href="#b"/>
<use x="74.343434" y="456.389636" xlink:href="#b"/>
<use x="94.545455" y="456.389636" xlink:href="#b"/>
<use x="194.393939" y="187.166527" xlink:href="#b"/>
<use x="118.787879" y="456.389636" xlink:href="#b"/>
<use x="147.070707" y="456.389636" xlink:href="#b"/>
<use x="179.393939" y="456.389636" xlink:href="#b"/>
<use x="215.757576" y="456.389636" xlink:href="#b"/>
<use x="310.959596" y="241.309259" xlink:href="#b"/>
<use x="256.161616" y="456.389636" xlink:href="#b"/>
<use x="365.757576" y="295.343086" xlink:href="#b"/>
<use x="300.606061" y="456.389636" xlink:href="#b"/>
<use x="375.353535" y="402.95523" xlink:href="#b"/>
<use x="530.909091" y="349.240565" xlink:href="#b"/>
<use x="458.181818" y="456.389636" xlink:href="#b"/>
<use x="551.111111" y="402.95523" xlink:href="#b"/>
<use x="583.434343" y="456.389636" xlink:href="#b"/>
<use x="518.787879" y="456.389636" xlink:href="#b"/>
<use x="349.090909" y="456.389636" xlink:href="#b"/>
<use x="401.616162" y="456.389636" xlink:href="#b"/>
<use x="46.060606" y="456.389636" xlink:href="#b"/>
<use x="652.121212" y="456.389636" xlink:href="#b"/>
<use x="724.848485" y="456.389636" xlink:href="#b"/>
<use x="967.272727" y="456.389636" xlink:href="#b"/>
</g>
<g clip-path="url(#a)">
<g transform="translate(43.761 511.85) scale(.1 -.1)">
<defs>
<path id="aj" d="m17.922 72.906v-27.109h-8.2969v27.109zm18.453 0v-27.109h-8.2969v27.109z"/>
</defs>
<use xlink:href="#aj"/>
</g>
</g>
<g clip-path="url(#a)">
<g transform="translate(56.707 511.85) scale(.1 -.1)">
<defs>
<path id="an" d="m9.8125 72.906h9.8594v-72.906h-9.8594z"/>
</defs>
<use xlink:href="#an"/>
</g>
</g>
<g clip-path="url(#a)">
<g transform="translate(66.409 511.85) scale(.1 -.1)">
<use xlink:href="#e"/>
<use x="61.279297" xlink:href="#j"/>
</g>
</g>
<g clip-path="url(#a)">
<g transform="translate(83.744 511.85) scale(.1 -.1)">
<defs>
<path id="am" d="m45.406 27.984q0 9.7656-4.0312 15.125-4.0156 5.375-11.297 5.375-7.2188 0-11.25-5.375-4.0312-5.3594-4.0312-15.125 0-9.7188 4.0312-15.094t11.25-5.375q7.2812 0 11.297 5.375 4.0312 5.375 4.0312 15.094zm8.9844-21.203q0-13.953-6.2031-20.766-6.1875-6.8125-18.984-6.8125-4.7344 0-8.9375 0.70312t-8.1562 2.1719v8.7344q3.9531-2.1406 7.8125-3.1562 3.8594-1.0312 7.8594-1.0312 8.8438 0 13.234 4.6094t4.3906 13.938v4.4531q-2.7812-4.8438-7.125-7.2344t-10.406-2.3906q-10.047 0-16.203 7.6562-6.1562 7.6719-6.1562 20.328 0 12.688 6.1562 20.344 6.1562 7.6719 16.203 7.6719 6.0625 0 10.406-2.3906t7.125-7.2188v8.2969h8.9844z"/>
<path id="ab" d="m45.406 46.391v29.594h8.9844v-75.984h-8.9844v8.2031q-2.8281-4.875-7.1562-7.25-4.3125-2.375-10.375-2.375-9.9062 0-16.141 7.9062-6.2188 7.9219-6.2188 20.812t6.2188 20.797q6.2344 7.9062 16.141 7.9062 6.0625 0 10.375-2.375 4.3281-2.3594 7.1562-7.2344zm-30.609-19.094q0-9.9062 4.0781-15.547t11.203-5.6406 11.219 5.6406q4.1094 5.6406 4.1094 15.547t-4.1094 15.547q-4.0938 5.6406-11.219 5.6406t-11.203-5.6406-4.0781-15.547z"/>
</defs>
<use xlink:href="#am"/>
<use x="63.476562" xlink:href="#k"/>
<use x="91.259766" xlink:href="#e"/>
<use x="152.539062" xlink:href="#ab"/>
</g>
</g>
<g clip-path="url(#a)">
<g transform="translate(108.63 511.85) scale(.1 -.1)">
<defs>
<path id="p" d="m18.312 70.219v-15.531h18.5v-6.9844h-18.5v-29.688q0-6.6875 1.8281-8.5938t7.4531-1.9062h9.2188v-7.5156h-9.2188q-10.406 0-14.359 3.875-3.9531 3.8906-3.9531 14.141v29.688h-6.5938v6.9844h6.5938v15.531z"/>
<path id="q" d="m54.891 33.016v-33.016h-8.9844v32.719q0 7.7656-3.0312 11.609-3.0312 3.8594-9.0781 3.8594-7.2812 0-11.484-4.6406-4.2031-4.625-4.2031-12.641v-30.906h-9.0312v75.984h9.0312v-29.797q3.2344 4.9375 7.5938 7.375 4.375 2.4375 10.094 2.4375 9.4219 0 14.25-5.8281 4.8438-5.8281 4.8438-17.156z"/>
</defs>
<use xlink:href="#p"/>
<use x="39.208984" xlink:href="#q"/>
<use x="102.587891" xlink:href="#e"/>
<use x="163.867188" xlink:href="#p"/>
</g>
</g>
<g clip-path="url(#a)">
<g transform="translate(137.88 511.85) scale(.1 -.1)">
<defs>
<path id="ak" d="m32.172-5.0781q-3.7969-9.7656-7.4219-12.734-3.6094-2.9844-9.6562-2.9844h-7.1875v7.5156h5.2812q3.7031 0 5.75 1.7656 2.0625 1.75 4.5469 8.2969l1.6094 4.0938-22.109 53.812h9.5156l17.094-42.766 17.094 42.766h9.5156z"/>
<path id="aa" d="m30.609 48.391q-7.2188 0-11.422-5.6406t-4.2031-15.453 4.1719-15.453q4.1875-5.6406 11.453-5.6406 7.1875 0 11.375 5.6562 4.2031 5.6719 4.2031 15.438 0 9.7188-4.2031 15.406-4.1875 5.6875-11.375 5.6875zm0 7.6094q11.719 0 18.406-7.625 6.7031-7.6094 6.7031-21.078 0-13.422-6.7031-21.078-6.6875-7.6406-18.406-7.6406-11.766 0-18.438 7.6406-6.6562 7.6562-6.6562 21.078 0 13.469 6.6562 21.078 6.6719 7.625 18.438 7.625z"/>
<path id="z" d="m8.5 21.578v33.109h8.9844v-32.766q0-7.7656 3.0156-11.656 3.0312-3.875 9.0938-3.875 7.2656 0 11.484 4.6406 4.2344 4.6406 4.2344 12.656v31h8.9844v-54.688h-8.9844v8.4062q-3.2656-4.9844-7.5938-7.4062-4.3125-2.4219-10.031-2.4219-9.4219 0-14.312 5.8594-4.875 5.8594-4.875 17.141z"/>
</defs>
<use xlink:href="#ak"/>
<use x="59.179688" xlink:href="#aa"/>
<use x="120.361328" xlink:href="#z"/>
</g>
</g>
<g clip-path="url(#a)">
<g transform="translate(167.13 511.85) scale(.1 -.1)">
<defs>
<path id="ar" d="m2.9844 54.688h9.5156l17.094-45.891 17.094 45.891h9.5156l-20.516-54.688h-12.203z"/>
</defs>
<use xlink:href="#q"/>
<use x="63.378906" xlink:href="#e"/>
<use x="124.658203" xlink:href="#ar"/>
<use x="183.837891" xlink:href="#f"/>
</g>
</g>
<g clip-path="url(#a)">
<g transform="translate(201.43 511.85) scale(.1 -.1)">
<defs>
<path id="as" d="m37.109 75.984v-7.4844h-8.5938q-4.8281 0-6.7188-1.9531-1.875-1.9531-1.875-7.0312v-4.8281h14.797v-6.9844h-14.797v-47.703h-9.0312v47.703h-8.5938v6.9844h8.5938v3.8125q0 9.125 4.25 13.297 4.25 4.1875 13.469 4.1875z"/>
</defs>
<use xlink:href="#as"/>
<use x="35.205078" xlink:href="#aa"/>
<use x="96.386719" xlink:href="#z"/>
<use x="159.765625" xlink:href="#g"/>
<use x="223.144531" xlink:href="#ab"/>
</g>
</g>
<g clip-path="url(#a)">
<g transform="translate(243.88 511.85) scale(.1 -.1)">
<defs>
<path id="y" d="m4.2031 54.688h8.9844l11.234-42.672 11.172 42.672h10.594l11.234-42.672 11.188 42.672h8.9844l-14.312-54.688h-10.594l-11.766 44.828-11.812-44.828h-10.609z"/>
</defs>
<use xlink:href="#y"/>
<use x="81.787109" xlink:href="#q"/>
<use x="145.166016" xlink:href="#e"/>
<use x="206.445312" xlink:href="#p"/>
</g>
</g>
<g clip-path="url(#a)">
<g transform="translate(290.85 511.85) scale(.1 -.1)">
<defs>
<path id="al" d="m44.281 53.078v-8.5q-3.7969 1.9531-7.9062 2.9219-4.0938 0.98438-8.5 0.98438-6.6875 0-10.031-2.0469t-3.3438-6.1562q0-3.125 2.3906-4.9062t9.625-3.3906l3.0781-0.6875q9.5625-2.0469 13.594-5.7812t4.0312-10.422q0-7.625-6.0312-12.078-6.0312-4.4375-16.578-4.4375-4.3906 0-9.1562 0.85938t-10.031 2.5625v9.2812q4.9844-2.5938 9.8125-3.8906 4.8281-1.2812 9.5781-1.2812 6.3438 0 9.75 2.1719 3.4219 2.1719 3.4219 6.125 0 3.6562-2.4688 5.6094-2.4531 1.9531-10.812 3.7656l-3.125 0.73438q-8.3438 1.75-12.062 5.3906-3.7031 3.6406-3.7031 9.9844 0 7.7188 5.4688 11.906 5.4688 4.2031 15.531 4.2031 4.9688 0 9.3594-0.73438 4.4062-0.71875 8.1094-2.1875z"/>
</defs>
<use xlink:href="#y"/>
<use x="81.787109" xlink:href="#e"/>
<use x="143.066406" xlink:href="#al"/>
</g>
</g>
<g clip-path="url(#a)">
<g transform="translate(340.89 511.85) scale(.1 -.1)">
<use xlink:href="#p"/>
<use x="39.208984" xlink:href="#q"/>
<use x="102.587891" xlink:href="#f"/>
</g>
</g>
<g clip-path="url(#a)">
<g transform="translate(384.63 511.85) scale(.1 -.1)">
<use xlink:href="#j"/>
<use x="97.412109" xlink:href="#e"/>
<use x="158.691406" xlink:href="#p"/>
<use x="197.900391" xlink:href="#p"/>
<use x="237.109375" xlink:href="#f"/>
<use x="298.632812" xlink:href="#i"/>
</g>
</g>
<g clip-path="url(#a)">
<g transform="translate(447.57 511.85) scale(.1 -.1)">
<use xlink:href="#y"/>
<use x="81.787109" xlink:href="#h"/>
<use x="109.570312" xlink:href="#p"/>
<use x="148.779297" xlink:href="#q"/>
</g>
</g>
<g clip-path="url(#a)">
<g transform="translate(507.54 511.85) scale(.1 -.1)">
<use xlink:href="#ak"/>
<use x="59.179688" xlink:href="#aa"/>
<use x="120.361328" xlink:href="#z"/>
<use x="183.740234" xlink:href="#i"/>
</g>
</g>
<g clip-path="url(#a)">
<g transform="translate(566.38 511.85) scale(.1 -.1)">
<use xlink:href="#f"/>
<use x="61.523438" xlink:href="#g"/>
<use x="124.902344" xlink:href="#am"/>
<use x="188.378906" xlink:href="#h"/>
<use x="216.162109" xlink:href="#g"/>
<use x="279.541016" xlink:href="#f"/>
</g>
</g>
<g clip-path="url(#a)">
<g transform="translate(650.53 511.85) scale(.1 -.1)">
<defs>
<path id="ap" d="m11.719 12.406h10.297v-8.4062l-8-15.625h-6.2969l4 15.625z"/>
</defs>
<use xlink:href="#ap"/>
</g>
</g>
<g clip-path="url(#a)">
<g transform="translate(722.55 511.85) scale(.1 -.1)">
<use xlink:href="#aj"/>
</g>
</g>
<g clip-path="url(#a)">
<g transform="translate(795.37 511.85) scale(.1 -.1)">
<use xlink:href="#q"/>
<use x="63.378906" xlink:href="#f"/>
</g>
</g>
<g clip-path="url(#a)">
<g transform="translate(872.19 511.85) scale(.1 -.1)">
<use xlink:href="#al"/>
<use x="52.099609" xlink:href="#e"/>
<use x="113.378906" xlink:href="#h"/>
<use x="141.162109" xlink:href="#ab"/>
</g>
</g>
<g clip-path="url(#a)">
<g transform="translate(965.68 511.85) scale(.1 -.1)">
<defs>
<path id="d" d="m10.688 12.406h10.312v-12.406h-10.312z"/>
</defs>
<use xlink:href="#d"/>
</g>
</g>
<g clip-path="url(#a)">
<g transform="translate(589.15 27.002) scale(.1 -.1)">
<defs>
<path id="c" d="m12.406 8.2969h16.109v55.625l-17.531-3.5156v8.9844l17.438 3.5156h9.8594v-64.609h16.109v-8.2969h-41.984z"/>
</defs>
<use xlink:href="#c"/>
<use x="63.623047" xlink:href="#d"/>
<use x="95.410156" xlink:href="#c"/>
</g>
</g>
<g clip-path="url(#a)">
<g transform="translate(589.15 81.381) scale(.1 -.1)">
<defs>
<path id="m" d="m19.188 8.2969h34.422v-8.2969h-46.281v8.2969q5.6094 5.8125 15.297 15.594 9.7031 9.7969 12.188 12.641 4.7344 5.3125 6.6094 9 1.8906 3.6875 1.8906 7.25 0 5.8125-4.0781 9.4688-4.0781 3.6719-10.625 3.6719-4.6406 0-9.7969-1.6094-5.1406-1.6094-11-4.8906v9.9688q5.9531 2.3906 11.125 3.6094 5.1875 1.2188 9.4844 1.2188 11.328 0 18.062-5.6719 6.7344-5.6562 6.7344-15.125 0-4.5-1.6875-8.5312-1.6719-4.0156-6.125-9.4844-1.2188-1.4219-7.7656-8.1875-6.5312-6.7656-18.453-18.922z"/>
</defs>
<use xlink:href="#c"/>
<use x="63.623047" xlink:href="#d"/>
<use x="95.410156" xlink:href="#m"/>
</g>
</g>
<g clip-path="url(#a)">
<g transform="translate(97.415 135.69) scale(.1 -.1)">
<defs>
<path id="o" d="m40.578 39.312q7.0781-1.5156 11.047-6.3125 3.9844-4.7812 3.9844-11.812 0-10.781-7.4219-16.703-7.4219-5.9062-21.094-5.9062-4.5781 0-9.4375 0.90625t-10.031 2.7188v9.5156q4.0938-2.3906 8.9688-3.6094 4.8906-1.2188 10.219-1.2188 9.2656 0 14.125 3.6562t4.8594 10.641q0 6.4531-4.5156 10.078-4.5156 3.6406-12.562 3.6406h-8.5v8.1094h8.8906q7.2656 0 11.125 2.9062t3.8594 8.375q0 5.6094-3.9844 8.6094-3.9688 3.0156-11.391 3.0156-4.0625 0-8.7031-0.89062-4.6406-0.875-10.203-2.7188v8.7812q5.625 1.5625 10.531 2.3438t9.25 0.78125q11.234 0 17.766-5.1094 6.5469-5.0938 6.5469-13.781 0-6.0625-3.4688-10.234t-9.8594-5.7812z"/>
</defs>
<use xlink:href="#c"/>
<use x="63.623047" xlink:href="#d"/>
<use x="95.410156" xlink:href="#o"/>
</g>
</g>
<g clip-path="url(#a)">
<g transform="translate(793.66 459.15) scale(.1 -.1)">
<defs>
<path id="w" d="m37.797 64.312-24.906-38.922h24.906zm-2.5938 8.5938h12.406v-47.516h10.406v-8.2031h-10.406v-17.188h-9.8125v17.188h-32.906v9.5156z"/>
</defs>
<use xlink:href="#c"/>
<use x="63.623047" xlink:href="#d"/>
<use x="95.410156" xlink:href="#w"/>
</g>
</g>
<g clip-path="url(#a)">
<g transform="translate(874.47 459.15) scale(.1 -.1)">
<defs>
<path id="v" d="m10.797 72.906h38.719v-8.3125h-29.688v-17.859q2.1406 0.73438 4.2812 1.0938 2.1562 0.35938 4.3125 0.35938 12.203 0 19.328-6.6875 7.1406-6.6875 7.1406-18.109 0-11.766-7.3281-18.297-7.3281-6.5156-20.656-6.5156-4.5938 0-9.3594 0.78125-4.75 0.78125-9.8281 2.3438v9.9219q4.3906-2.3906 9.0781-3.5625t9.9062-1.1719q8.4531 0 13.375 4.4375 4.9375 4.4375 4.9375 12.062 0 7.6094-4.9375 12.047-4.9219 4.4531-13.375 4.4531-3.9531 0-7.8906-0.875-3.9219-0.875-8.0156-2.7344z"/>
</defs>
<use xlink:href="#c"/>
<use x="63.623047" xlink:href="#d"/>
<use x="95.410156" xlink:href="#v"/>
</g>
</g>
<g clip-path="url(#a)">
<g transform="translate(47.049 459.15) scale(.1 -.1)">
<defs>
<path id="x" d="m31.781 66.406q-7.6094 0-11.453-7.5-3.8281-7.4844-3.8281-22.531 0-14.984 3.8281-22.484 3.8438-7.5 11.453-7.5 7.6719 0 11.5 7.5 3.8438 7.5 3.8438 22.484 0 15.047-3.8438 22.531-3.8281 7.5-11.5 7.5zm0 7.8125q12.266 0 18.734-9.7031 6.4688-9.6875 6.4688-28.141 0-18.406-6.4688-28.109-6.4688-9.6875-18.734-9.6875-12.25 0-18.719 9.6875-6.4688 9.7031-6.4688 28.109 0 18.453 6.4688 28.141 6.4688 9.7031 18.719 9.7031z"/>
</defs>
<use xlink:href="#c"/>
<use x="63.623047" xlink:href="#d"/>
<use x="95.410156" xlink:href="#c"/>
<use x="159.033203" xlink:href="#x"/>
</g>
</g>
<g clip-path="url(#a)">
<g transform="translate(63.211 459.15) scale(.1 -.1)">
<use xlink:href="#c"/>
<use x="63.623047" xlink:href="#d"/>
<use x="95.410156" xlink:href="#c"/>
<use x="159.033203" xlink:href="#c"/>
</g>
</g>
<g clip-path="url(#a)">
<g transform="translate(83.413 459.15) scale(.1 -.1)">
<use xlink:href="#c"/>
<use x="63.623047" xlink:href="#d"/>
<use x="95.410156" xlink:href="#c"/>
<use x="159.033203" xlink:href="#m"/>
</g>
</g>
<g clip-path="url(#a)">
<g transform="translate(183.26 189.93) scale(.1 -.1)">
<use xlink:href="#c"/>
<use x="63.623047" xlink:href="#d"/>
<use x="95.410156" xlink:href="#c"/>
<use x="159.033203" xlink:href="#o"/>
</g>
</g>
<g clip-path="url(#a)">
<g transform="translate(107.66 459.15) scale(.1 -.1)">
<use xlink:href="#c"/>
<use x="63.623047" xlink:href="#d"/>
<use x="95.410156" xlink:href="#c"/>
<use x="159.033203" xlink:href="#w"/>
</g>
</g>
<g clip-path="url(#a)">
<g transform="translate(135.94 459.15) scale(.1 -.1)">
<use xlink:href="#c"/>
<use x="63.623047" xlink:href="#d"/>
<use x="95.410156" xlink:href="#c"/>
<use x="159.033203" xlink:href="#v"/>
</g>
</g>
<g clip-path="url(#a)">
<g transform="translate(168.26 459.15) scale(.1 -.1)">
<defs>
<path id="ai" d="m33.016 40.375q-6.6406 0-10.531-4.5469-3.875-4.5312-3.875-12.438 0-7.8594 3.875-12.438 3.8906-4.5625 10.531-4.5625t10.516 4.5625q3.875 4.5781 3.875 12.438 0 7.9062-3.875 12.438-3.875 4.5469-10.516 4.5469zm19.578 30.922v-8.9844q-3.7188 1.75-7.5 2.6719-3.7812 0.9375-7.5 0.9375-9.7656 0-14.922-6.5938-5.1406-6.5938-5.875-19.922 2.875 4.25 7.2188 6.5156 4.3594 2.2656 9.5781 2.2656 10.984 0 17.359-6.6719 6.375-6.6562 6.375-18.125 0-11.234-6.6406-18.031-6.6406-6.7812-17.672-6.7812-12.656 0-19.344 9.6875-6.6875 9.7031-6.6875 28.109 0 17.281 8.2031 27.562t22.016 10.281q3.7188 0 7.5-0.73438t7.8906-2.1875z"/>
</defs>
<use xlink:href="#c"/>
<use x="63.623047" xlink:href="#d"/>
<use x="95.410156" xlink:href="#c"/>
<use x="159.033203" xlink:href="#ai"/>
</g>
</g>
<g clip-path="url(#a)">
<g transform="translate(204.62 459.15) scale(.1 -.1)">
<defs>
<path id="ah" d="m8.2031 72.906h46.875v-4.2031l-26.469-68.703h-10.297l24.906 64.594h-35.016z"/>
</defs>
<use xlink:href="#c"/>
<use x="63.623047" xlink:href="#d"/>
<use x="95.410156" xlink:href="#c"/>
<use x="159.033203" xlink:href="#ah"/>
</g>
</g>
<g clip-path="url(#a)">
<g transform="translate(299.83 244.07) scale(.1 -.1)">
<defs>
<path id="ag" d="m31.781 34.625q-7.0312 0-11.062-3.7656-4.0156-3.7656-4.0156-10.344 0-6.5938 4.0156-10.359 4.0312-3.7656 11.062-3.7656t11.078 3.7812q4.0625 3.7969 4.0625 10.344 0 6.5781-4.0312 10.344-4.0156 3.7656-11.109 3.7656zm-9.8594 4.1875q-6.3438 1.5625-9.8906 5.9062-3.5312 4.3594-3.5312 10.609 0 8.7344 6.2188 13.812 6.2344 5.0781 17.062 5.0781 10.891 0 17.094-5.0781t6.2031-13.812q0-6.25-3.5469-10.609-3.5312-4.3438-9.8281-5.9062 7.125-1.6562 11.094-6.5 3.9844-4.8281 3.9844-11.797 0-10.609-6.4688-16.281-6.4688-5.6562-18.531-5.6562-12.047 0-18.531 5.6562-6.4688 5.6719-6.4688 16.281 0 6.9688 4 11.797 4.0156 4.8438 11.141 6.5zm-3.6094 15.578q0-5.6562 3.5312-8.8281 3.5469-3.1719 9.9375-3.1719 6.3594 0 9.9375 3.1719 3.5938 3.1719 3.5938 8.8281 0 5.6719-3.5938 8.8438-3.5781 3.1719-9.9375 3.1719-6.3906 0-9.9375-3.1719-3.5312-3.1719-3.5312-8.8438z"/>
</defs>
<use xlink:href="#c"/>
<use x="63.623047" xlink:href="#d"/>
<use x="95.410156" xlink:href="#c"/>
<use x="159.033203" xlink:href="#ag"/>
</g>
</g>
<g clip-path="url(#a)">
<g transform="translate(245.03 459.15) scale(.1 -.1)">
<defs>
<path id="af" d="m10.984 1.5156v8.9844q3.7188-1.7656 7.5156-2.6875 3.8125-0.92188 7.4844-0.92188 9.7656 0 14.906 6.5625 5.1562 6.5625 5.8906 19.953-2.8281-4.2031-7.1875-6.4531-4.3438-2.25-9.6094-2.25-10.938 0-17.312 6.6094-6.375 6.625-6.375 18.109 0 11.219 6.6406 18 6.6406 6.7969 17.672 6.7969 12.656 0 19.312-9.7031 6.6719-9.6875 6.6719-28.141 0-17.234-8.1875-27.516-8.1719-10.281-21.984-10.281-3.7188 0-7.5312 0.73438-3.7969 0.73438-7.9062 2.2031zm19.625 30.906q6.6406 0 10.516 4.5312 3.8906 4.5469 3.8906 12.469 0 7.8594-3.8906 12.422-3.875 4.5625-10.516 4.5625t-10.516-4.5625-3.875-12.422q0-7.9219 3.875-12.469 3.875-4.5312 10.516-4.5312z"/>
</defs>
<use xlink:href="#c"/>
<use x="63.623047" xlink:href="#d"/>
<use x="95.410156" xlink:href="#c"/>
<use x="159.033203" xlink:href="#af"/>
</g>
</g>
<g clip-path="url(#a)">
<g transform="translate(354.62 298.1) scale(.1 -.1)">
<use xlink:href="#c"/>
<use x="63.623047" xlink:href="#d"/>
<use x="95.410156" xlink:href="#m"/>
<use x="159.033203" xlink:href="#x"/>
</g>
</g>
<g clip-path="url(#a)">
<g transform="translate(289.47 459.15) scale(.1 -.1)">
<use xlink:href="#c"/>
<use x="63.623047" xlink:href="#d"/>
<use x="95.410156" xlink:href="#m"/>
<use x="159.033203" xlink:href="#c"/>
</g>
</g>
<g clip-path="url(#a)">
<g transform="translate(364.22 405.71) scale(.1 -.1)">
<use xlink:href="#c"/>
<use x="63.623047" xlink:href="#d"/>
<use x="95.410156" xlink:href="#m"/>
<use x="159.033203" xlink:href="#m"/>
</g>
</g>
<g clip-path="url(#a)">
<g transform="translate(519.78 352) scale(.1 -.1)">
<use xlink:href="#c"/>
<use x="63.623047" xlink:href="#d"/>
<use x="95.410156" xlink:href="#m"/>
<use x="159.033203" xlink:href="#o"/>
</g>
</g>
<g clip-path="url(#a)">
<g transform="translate(447.05 459.15) scale(.1 -.1)">
<use xlink:href="#c"/>
<use x="63.623047" xlink:href="#d"/>
<use x="95.410156" xlink:href="#m"/>
<use x="159.033203" xlink:href="#w"/>
</g>
</g>
<g clip-path="url(#a)">
<g transform="translate(539.98 405.71) scale(.1 -.1)">
<use xlink:href="#c"/>
<use x="63.623047" xlink:href="#d"/>
<use x="95.410156" xlink:href="#m"/>
<use x="159.033203" xlink:href="#v"/>
</g>
</g>
<g clip-path="url(#a)">
<g transform="translate(572.3 459.15) scale(.1 -.1)">
<use xlink:href="#c"/>
<use x="63.623047" xlink:href="#d"/>
<use x="95.410156" xlink:href="#m"/>
<use x="159.033203" xlink:href="#ai"/>
</g>
</g>
<g clip-path="url(#a)">
<g transform="translate(507.66 459.15) scale(.1 -.1)">
<use xlink:href="#c"/>
<use x="63.623047" xlink:href="#d"/>
<use x="95.410156" xlink:href="#m"/>
<use x="159.033203" xlink:href="#ah"/>
</g>
</g>
<g clip-path="url(#a)">
<g transform="translate(337.96 459.15) scale(.1 -.1)">
<use xlink:href="#c"/>
<use x="63.623047" xlink:href="#d"/>
<use x="95.410156" xlink:href="#m"/>
<use x="159.033203" xlink:href="#ag"/>
</g>
</g>
<g clip-path="url(#a)">
<g transform="translate(390.48 459.15) scale(.1 -.1)">
<use xlink:href="#c"/>
<use x="63.623047" xlink:href="#d"/>
<use x="95.410156" xlink:href="#m"/>
<use x="159.033203" xlink:href="#af"/>
</g>
</g>
<g clip-path="url(#a)">
<g transform="translate(34.928 459.15) scale(.1 -.1)">
<use xlink:href="#c"/>
<use x="63.623047" xlink:href="#d"/>
<use x="95.410156" xlink:href="#o"/>
<use x="159.033203" xlink:href="#x"/>
</g>
</g>
<g clip-path="url(#a)">
<g transform="translate(640.99 459.15) scale(.1 -.1)">
<use xlink:href="#c"/>
<use x="63.623047" xlink:href="#d"/>
<use x="95.410156" xlink:href="#o"/>
<use x="159.033203" xlink:href="#c"/>
</g>
</g>
<g clip-path="url(#a)">
<g transform="translate(713.72 459.15) scale(.1 -.1)">
<use xlink:href="#c"/>
<use x="63.623047" xlink:href="#d"/>
<use x="95.410156" xlink:href="#o"/>
<use x="159.033203" xlink:href="#m"/>
</g>
</g>
<g clip-path="url(#a)">
<g transform="translate(956.14 459.15) scale(.1 -.1)">
<use xlink:href="#c"/>
<use x="63.623047" xlink:href="#d"/>
<use x="95.410156" xlink:href="#o"/>
<use x="159.033203" xlink:href="#o"/>
</g>
</g>
<defs>
<clipPath id="a">
<rect width="1013.3" height="533.33"/>
</clipPath>
</defs>
</svg>
