<?xml version="1.0" encoding="UTF-8"?>
<!DOCTYPE svg  PUBLIC '-//W3C//DTD SVG 1.1//EN'  'http://www.w3.org/Graphics/SVG/1.1/DTD/svg11.dtd'>
<svg width="709.33pt" height="373.33pt" version="1.1" viewBox="0 0 709.33 373.33" xmlns="http://www.w3.org/2000/svg" xmlns:xlink="http://www.w3.org/1999/xlink">
<metadata>
<rdf:RDF xmlns:cc="http://creativecommons.org/ns#" xmlns:dc="http://purl.org/dc/elements/1.1/" xmlns:rdf="http://www.w3.org/1999/02/22-rdf-syntax-ns#">
<cc:Work>
<dc:type rdf:resource="http://purl.org/dc/dcmitype/StillImage"/>
<dc:date>2021-02-11T07:46:00.474421</dc:date>
<dc:format>image/svg+xml</dc:format>
<dc:creator>
<cc:Agent>
<dc:title>Matplotlib v3.3.3, https://matplotlib.org/</dc:title>
</cc:Agent>
</dc:creator>
</cc:Work>
</rdf:RDF>
</metadata>
<defs>
<style type="text/css">*{stroke-linecap:butt;stroke-linejoin:round;}</style>
</defs>
<path d="m0 373.33h709.33v-373.33h-709.33z" fill="#fff"/>
<g fill="none" stroke="#000">
<path d="m186.47 16.97-137.7 255.71" clip-path="url(#a)"/>
<path d="m186.47 16.97-50.89 85.58" clip-path="url(#a)"/>
<path d="m186.47 16.97 193 255.71" clip-path="url(#a)"/>
<path d="m186.47 16.97 149.82 85.58" clip-path="url(#a)"/>
<path d="m186.47 16.97-154.23 255.71" clip-path="url(#a)"/>
<path d="m48.777 272.68v83.68" clip-path="url(#a)"/>
<path d="m135.58 102.55-64.76 170.13" clip-path="url(#a)"/>
<path d="m135.58 102.55-37.203 170.13" clip-path="url(#a)"/>
<path d="m135.58 102.55-4.1336 170.13" clip-path="url(#a)"/>
<path d="m135.58 102.55 106.1 85.289" clip-path="url(#a)"/>
<path d="m379.47 272.68v83.68" clip-path="url(#a)"/>
<path d="m336.29 102.55 222.3 85.289" clip-path="url(#a)"/>
<path d="m336.29 102.55-204.85 170.13" clip-path="url(#a)" stroke-dasharray="3.7,1.6"/>
<path d="m336.29 102.55-17.453 170.13" clip-path="url(#a)" stroke-dasharray="3.7,1.6"/>
<path d="m558.59 187.84-112.99 84.844" clip-path="url(#a)"/>
<path d="m558.59 187.84-41.336 84.844" clip-path="url(#a)"/>
<path d="m558.59 187.84 35.825 84.844" clip-path="url(#a)"/>
<path d="m558.59 187.84 118.5 84.844" clip-path="url(#a)"/>
<path d="m445.61 272.68v83.68" clip-path="url(#a)"/>
<path d="m517.26 272.68v83.68" clip-path="url(#a)"/>
<path d="m70.823 272.68v83.68" clip-path="url(#a)"/>
<path d="m98.381 272.68v83.68" clip-path="url(#a)"/>
<path d="m131.45 272.68v83.68" clip-path="url(#a)"/>
<path d="m241.68 187.84-71.65 84.844" clip-path="url(#a)"/>
<path d="m241.68 187.84-27.558 84.844" clip-path="url(#a)"/>
<path d="m241.68 187.84 22.046 84.844" clip-path="url(#a)"/>
<path d="m241.68 187.84 77.161 84.844" clip-path="url(#a)"/>
<path d="m170.03 272.68v83.68" clip-path="url(#a)"/>
<path d="m214.12 272.68v83.68" clip-path="url(#a)"/>
<path d="m263.73 272.68v83.68" clip-path="url(#a)"/>
<path d="m318.84 272.68v83.68" clip-path="url(#a)"/>
<path d="m32.242 272.68v83.68" clip-path="url(#a)"/>
<path d="m594.42 272.68v83.68" clip-path="url(#a)"/>
<path d="m677.09 272.68v83.68" clip-path="url(#a)"/>
</g>
<path d="m122.09 149.76 2.1134-3.9247q1.1379-2.1131-0.97525-3.251l-6.817-3.6708q-2.1131-1.1379-3.251 0.97525l-2.1134 3.9247q-1.1379 2.1131 0.97525 3.251l6.817 3.6708q2.1131 1.1379 3.251-0.97525z" clip-path="url(#a)" fill="#fff" stroke="#fff"/>
<g clip-path="url(#a)">
<g transform="translate(118.51 147.84) rotate(-61.698) scale(.08 -.08)">
<defs>
<path id="t" d="m9.8125 72.906h9.8594v-64.609h35.5v-8.2969h-45.359z"/>
</defs>
<use xlink:href="#t"/>
</g>
</g>
<path d="m164.88 65.55 3.075-5.1711q1.2267-2.0628-0.83618-3.2895l-6.6548-3.9573q-2.0628-1.2267-3.2895 0.83618l-3.075 5.1711q-1.2267 2.0628 0.83618 3.2895l6.6548 3.9573q2.0628 1.2267 3.2895-0.83618z" clip-path="url(#a)" fill="#fff" stroke="#fff"/>
<g clip-path="url(#a)">
<g transform="translate(161.39 63.473) rotate(-59.262) scale(.08 -.08)">
<defs>
<path id="u" d="m9.8125 72.906h9.8594v-29.891h35.844v29.891h9.8594v-72.906h-9.8594v34.719h-35.844v-34.719h-9.8594z"/>
</defs>
<use xlink:href="#u"/>
</g>
</g>
<path d="m276.62 146.83 2.6853 3.5579q1.4458 1.9156 3.3614 0.46984l6.1799-4.6642q1.9156-1.4458 0.46984-3.3614l-2.6853-3.5579q-1.4458-1.9156-3.3614-0.46984l-6.1799 4.6642q-1.9156 1.4458-0.46984 3.3614z" clip-path="url(#a)" fill="#fff" stroke="#fff"/>
<g clip-path="url(#a)">
<g transform="translate(279.87 144.38) rotate(52.957) scale(.08 -.08)">
<use xlink:href="#t"/>
</g>
</g>
<path d="m255.66 63.713 5.2241 2.984q2.084 1.1904 3.2744-0.89359l3.8403-6.723q1.1904-2.084-0.89359-3.2744l-5.2241-2.984q-2.084-1.1904-3.2744 0.89359l-3.8403 6.723q-1.1904 2.084 0.89359 3.2744z" clip-path="url(#a)" fill="#fff" stroke="#fff"/>
<g clip-path="url(#a)">
<g transform="translate(257.68 60.184) rotate(29.735) scale(.08 -.08)">
<use xlink:href="#u"/>
</g>
</g>
<path d="m113.22 150.57 3.0239-5.0137q1.2395-2.0551-0.8156-3.2947l-6.6299-3.9988q-2.0551-1.2395-3.2947 0.8156l-3.0239 5.0137q-1.2395 2.0551 0.8156 3.2947l6.6299 3.9988q2.0551 1.2395 3.2947-0.8156z" clip-path="url(#a)" fill="#fff" stroke="#fff"/>
<g clip-path="url(#a)">
<g transform="translate(109.74 148.47) rotate(-58.904) scale(.08 -.08)">
<defs>
<path id="p" d="m8.6875 72.906h9.9219v-44.297q0-11.719 4.2344-16.875 4.25-5.1406 13.781-5.1406 9.4688 0 13.719 5.1406 4.25 5.1562 4.25 16.875v44.297h9.9062v-45.516q0-14.25-7.0625-21.531-7.0469-7.2812-20.812-7.2812-13.828 0-20.891 7.2812-7.0469 7.2812-7.0469 21.531z"/>
</defs>
<use xlink:href="#p"/>
</g>
</g>
<path d="m42.506 297.62v33.808q0 2.4 2.4 2.4h7.7425q2.4 0 2.4-2.4v-33.808q0-2.4-2.4-2.4h-7.7425q-2.4 0-2.4 2.4z" clip-path="url(#a)" fill="#fff" stroke="#fff"/>
<g clip-path="url(#a)">
<g transform="translate(46.57 297.62) rotate(90) scale(.08 -.08)">
<defs>
<path id="i" d="m-0.29688 72.906h61.672v-8.3125h-25.875v-64.594h-9.9062v64.594h-25.891z"/>
<path id="g" d="m56.203 29.594v-4.3906h-41.312q0.59375-9.2812 5.5938-14.141t13.938-4.8594q5.1719 0 10.031 1.2656t9.6562 3.8125v-8.5q-4.8438-2.0469-9.9219-3.125t-10.297-1.0781q-13.094 0-20.734 7.6094-7.6406 7.625-7.6406 20.625 0 13.422 7.25 21.297 7.25 7.8906 19.562 7.8906 11.031 0 17.453-7.1094 6.4219-7.0938 6.4219-19.297zm-8.9844 2.6406q-0.09375 7.3594-4.125 11.75-4.0312 4.4062-10.672 4.4062-7.5156 0-12.031-4.25t-5.2031-11.969z"/>
<path id="j" d="m41.109 46.297q-1.5156 0.875-3.2969 1.2812-1.7812 0.42188-3.9219 0.42188-7.625 0-11.703-4.9531t-4.0781-14.234v-28.812h-9.0312v54.688h9.0312v-8.5q2.8438 4.9844 7.375 7.3906 4.5469 2.4219 11.047 2.4219 0.92188 0 2.0469-0.125 1.125-0.10938 2.4844-0.35938z"/>
<path id="h" d="m52 44.188q3.375 6.0625 8.0625 8.9375t11.031 2.875q8.5469 0 13.188-5.9844 4.6406-5.9688 4.6406-17v-33.016h-9.0312v32.719q0 7.8594-2.7969 11.656-2.7812 3.8125-8.4844 3.8125-6.9844 0-11.047-4.6406-4.0469-4.625-4.0469-12.641v-30.906h-9.0312v32.719q0 7.9062-2.7812 11.688t-8.5938 3.7812q-6.8906 0-10.953-4.6562-4.0469-4.6562-4.0469-12.625v-30.906h-9.0312v54.688h9.0312v-8.5q3.0781 5.0312 7.375 7.4219t10.203 2.3906q5.9688 0 10.141-3.0312 4.1719-3.0156 6.1719-8.7812z"/>
<path id="l" d="m9.4219 54.688h8.9844v-54.688h-8.9844zm0 21.297h8.9844v-11.391h-8.9844z"/>
<path id="f" d="m54.891 33.016v-33.016h-8.9844v32.719q0 7.7656-3.0312 11.609-3.0312 3.8594-9.0781 3.8594-7.2812 0-11.484-4.6406-4.2031-4.625-4.2031-12.641v-30.906h-9.0312v54.688h9.0312v-8.5q3.2344 4.9375 7.5938 7.375 4.375 2.4375 10.094 2.4375 9.4219 0 14.25-5.8281 4.8438-5.8281 4.8438-17.156z"/>
<path id="e" d="m34.281 27.484q-10.891 0-15.094-2.4844t-4.2031-8.5q0-4.7812 3.1562-7.5938 3.1562-2.7969 8.5625-2.7969 7.4844 0 12 5.2969t4.5156 14.078v2zm17.922 3.7188v-31.203h-8.9844v8.2969q-3.0781-4.9688-7.6719-7.3438t-11.234-2.375q-8.3906 0-13.359 4.7188-4.9531 4.7188-4.9531 12.625 0 9.2188 6.1719 13.906 6.1875 4.6875 18.438 4.6875h12.609v0.89062q0 6.2031-4.0781 9.5938t-11.453 3.3906q-4.6875 0-9.1406-1.125-4.4375-1.125-8.5312-3.375v8.3125q4.9219 1.9062 9.5625 2.8438 4.6406 0.95312 9.0312 0.95312 11.875 0 17.734-6.1562 5.8594-6.1406 5.8594-18.641z"/>
<path id="k" d="m9.4219 75.984h8.9844v-75.984h-8.9844z"/>
</defs>
<use xlink:href="#i"/>
<use x="44.083984" xlink:href="#g"/>
<use x="105.607422" xlink:href="#j"/>
<use x="144.970703" xlink:href="#h"/>
<use x="242.382812" xlink:href="#l"/>
<use x="270.166016" xlink:href="#f"/>
<use x="333.544922" xlink:href="#e"/>
<use x="394.824219" xlink:href="#k"/>
</g>
</g>
<path d="m108.09 192.4 1.9468-5.1145q0.85378-2.243-1.3892-3.0968l-7.236-2.7543q-2.243-0.85378-3.0968 1.3892l-1.9468 5.1145q-0.85378 2.243 1.3892 3.0968l7.236 2.7543q2.243 0.85378 3.0968-1.3892z" clip-path="url(#a)" fill="#fff" stroke="#fff"/>
<g clip-path="url(#a)">
<g transform="translate(104.29 190.96) rotate(-69.161) scale(.08 -.08)">
<defs>
<path id="r" d="m34.188 63.188-13.391-36.281h26.812zm-5.5781 9.7188h11.188l27.781-72.906h-10.25l-6.6406 18.703h-32.859l-6.6406-18.703h-10.406z"/>
</defs>
<use xlink:href="#r"/>
</g>
</g>
<path d="m122.62 191.2 0.98292-4.495q0.51269-2.3446-1.8319-2.8573l-7.5638-1.654q-2.3446-0.51269-2.8573 1.8319l-0.98292 4.495q-0.51269 2.3446 1.8319 2.8573l7.5638 1.654q2.3446 0.51269 2.8573-1.8319z" clip-path="url(#a)" fill="#fff" stroke="#fff"/>
<g clip-path="url(#a)">
<g transform="translate(118.65 190.34) rotate(-77.665) scale(.08 -.08)">
<defs>
<path id="q" d="m9.8125 72.906h41.891v-8.3125h-32.031v-21.484h28.906v-8.2969h-28.906v-34.812h-9.8594z"/>
</defs>
<use xlink:href="#q"/>
</g>
</g>
<path d="m139.73 190.18 0.11716-4.8223q0.058294-2.3993-2.341-2.4576l-7.7402-0.18806q-2.3993-0.058294-2.4576 2.341l-0.11716 4.8223q-0.058294 2.3993 2.341 2.4576l7.7402 0.18806q2.3993 0.058294 2.4576-2.341z" clip-path="url(#a)" fill="#fff" stroke="#fff"/>
<g clip-path="url(#a)">
<g transform="translate(135.66 190.08) rotate(-88.608) scale(.08 -.08)">
<defs>
<path id="s" d="m19.672 64.797v-27.391h12.406q6.8906 0 10.641 3.5625 3.7656 3.5625 3.7656 10.156 0 6.5469-3.7656 10.109-3.75 3.5625-10.641 3.5625zm-9.8594 8.1094h22.266q12.266 0 18.531-5.5469 6.2812-5.5469 6.2812-16.234 0-10.797-6.2812-16.312-6.2656-5.5156-18.531-5.5156h-12.406v-29.297h-9.8594z"/>
</defs>
<use xlink:href="#s"/>
</g>
</g>
<path d="m182.8 148.55 3.8083 3.0614q1.8705 1.5037 3.3742-0.36684l4.851-6.0344q1.5037-1.8705-0.36684-3.3742l-3.8083-3.0614q-1.8705-1.5037-3.3742 0.36684l-4.851 6.0344q-1.5037 1.8705 0.36684 3.3742z" clip-path="url(#a)" fill="#fff" stroke="#fff"/>
<g clip-path="url(#a)">
<g transform="translate(185.34 145.38) rotate(38.795) scale(.08 -.08)">
<use xlink:href="#i"/>
</g>
</g>
<path d="m373.2 297.62v33.808q0 2.4 2.4 2.4h7.7425q2.4 0 2.4-2.4v-33.808q0-2.4-2.4-2.4h-7.7425q-2.4 0-2.4 2.4z" clip-path="url(#a)" fill="#fff" stroke="#fff"/>
<g clip-path="url(#a)">
<g transform="translate(377.26 297.62) rotate(90) scale(.08 -.08)">
<use xlink:href="#i"/>
<use x="44.083984" xlink:href="#g"/>
<use x="105.607422" xlink:href="#j"/>
<use x="144.970703" xlink:href="#h"/>
<use x="242.382812" xlink:href="#l"/>
<use x="270.166016" xlink:href="#f"/>
<use x="333.544922" xlink:href="#e"/>
<use x="394.824219" xlink:href="#k"/>
</g>
</g>
<path d="m442.64 150.07 5.1093 1.9603q2.2407 0.85971 3.1004-1.381l2.7734-7.2287q0.85971-2.2407-1.381-3.1004l-5.1093-1.9603q-2.2407-0.85971-3.1004 1.381l-2.7734 7.2287q-0.85971 2.2407 1.381 3.1004z" clip-path="url(#a)" fill="#fff" stroke="#fff"/>
<g clip-path="url(#a)">
<g transform="translate(444.1 146.27) rotate(20.99) scale(.08 -.08)">
<use xlink:href="#r"/>
</g>
</g>
<path d="m236.02 193.98 3.7108-3.082q1.8463-1.5334 0.31285-3.3797l-4.9468-5.9561q-1.5334-1.8463-3.3797-0.31285l-3.7108 3.082q-1.8463 1.5334-0.31285 3.3797l4.9468 5.9561q1.5334 1.8463 3.3797 0.31285z" clip-path="url(#a)" fill="#fff" stroke="#fff"/>
<g clip-path="url(#a)">
<g transform="translate(233.43 190.86) rotate(-39.711) scale(.08 -.08)">
<use xlink:href="#s"/>
</g>
</g>
<path d="m333.56 190.69 0.49864-4.8607q0.24492-2.3875-2.1426-2.6324l-7.7021-0.79012q-2.3875-0.24492-2.6324 2.1426l-0.49864 4.8607q-0.24492 2.3875 2.1426 2.6324l7.7021 0.79012q2.3875 0.24492 2.6324-2.1426z" clip-path="url(#a)" fill="#fff" stroke="#fff"/>
<g clip-path="url(#a)">
<g transform="translate(329.51 190.27) rotate(-84.143) scale(.08 -.08)">
<use xlink:href="#i"/>
</g>
</g>
<path d="m504.03 236.66 3.6794-2.7629q1.9191-1.4411 0.47801-3.3603l-4.6492-6.1912q-1.4411-1.9191-3.3603-0.47801l-3.6794 2.7629q-1.9191 1.4411-0.47801 3.3603l4.6492 6.1912q1.4411 1.9191 3.3603 0.47801z" clip-path="url(#a)" fill="#fff" stroke="#fff"/>
<g clip-path="url(#a)">
<g transform="translate(501.59 233.41) rotate(-36.904) scale(.08 -.08)">
<use xlink:href="#q"/>
</g>
</g>
<path d="m542.34 235.52 2.4467-5.0219q1.0512-2.1576-1.1064-3.2087l-6.9604-3.3911q-2.1576-1.0512-3.2087 1.1064l-2.4467 5.0219q-1.0512 2.1576 1.1064 3.2087l6.9604 3.3911q2.1576 1.0512 3.2087-1.1064z" clip-path="url(#a)" fill="#fff" stroke="#fff"/>
<g clip-path="url(#a)">
<g transform="translate(538.69 233.74) rotate(-64.025) scale(.08 -.08)">
<defs>
<path id="v" d="m64.406 67.281v-10.391q-4.9844 4.6406-10.625 6.9219-5.6406 2.2969-11.984 2.2969-12.5 0-19.141-7.6406t-6.6406-22.094q0-14.406 6.6406-22.047t19.141-7.6406q6.3438 0 11.984 2.2969t10.625 6.9375v-10.312q-5.1719-3.5156-10.969-5.2812-5.7812-1.75-12.219-1.75-16.562 0-26.094 10.125-9.5156 10.141-9.5156 27.672 0 17.578 9.5156 27.703 9.5312 10.141 26.094 10.141 6.5312 0 12.312-1.7344 5.7969-1.7344 10.875-5.2031z"/>
</defs>
<use xlink:href="#v"/>
</g>
</g>
<path d="m569.59 230 2.2775 5.3939q0.93357 2.211 3.1446 1.2774l7.1327-3.0117q2.211-0.93357 1.2774-3.1446l-2.2775-5.3939q-0.93357-2.211-3.1446-1.2774l-7.1327 3.0117q-2.211 0.93357-1.2774 3.1446z" clip-path="url(#a)" fill="#fff" stroke="#fff"/>
<g clip-path="url(#a)">
<g transform="translate(573.33 228.42) rotate(67.108) scale(.08 -.08)">
<use xlink:href="#p"/>
</g>
</g>
<path d="m611.81 233.66 4.7605 3.4086q1.9514 1.3972 3.3486-0.55419l4.5074-6.2952q1.3972-1.9514-0.55419-3.3486l-4.7605-3.4086q-1.9514-1.3972-3.3486 0.55419l-4.5074 6.2952q-1.3972 1.9514 0.55419 3.3486z" clip-path="url(#a)" fill="#fff" stroke="#fff"/>
<g clip-path="url(#a)">
<g transform="translate(614.18 230.35) rotate(35.603) scale(.08 -.08)">
<use xlink:href="#p"/>
</g>
</g>
<path d="m439.34 297.62v33.808q0 2.4 2.4 2.4h7.7425q2.4 0 2.4-2.4v-33.808q0-2.4-2.4-2.4h-7.7425q-2.4 0-2.4 2.4z" clip-path="url(#a)" fill="#fff" stroke="#fff"/>
<g clip-path="url(#a)">
<g transform="translate(443.4 297.62) rotate(90) scale(.08 -.08)">
<use xlink:href="#i"/>
<use x="44.083984" xlink:href="#g"/>
<use x="105.607422" xlink:href="#j"/>
<use x="144.970703" xlink:href="#h"/>
<use x="242.382812" xlink:href="#l"/>
<use x="270.166016" xlink:href="#f"/>
<use x="333.544922" xlink:href="#e"/>
<use x="394.824219" xlink:href="#k"/>
</g>
</g>
<path d="m510.99 297.62v33.808q0 2.4 2.4 2.4h7.7425q2.4 0 2.4-2.4v-33.808q0-2.4-2.4-2.4h-7.7425q-2.4 0-2.4 2.4z" clip-path="url(#a)" fill="#fff" stroke="#fff"/>
<g clip-path="url(#a)">
<g transform="translate(515.05 297.62) rotate(90) scale(.08 -.08)">
<use xlink:href="#i"/>
<use x="44.083984" xlink:href="#g"/>
<use x="105.607422" xlink:href="#j"/>
<use x="144.970703" xlink:href="#h"/>
<use x="242.382812" xlink:href="#l"/>
<use x="270.166016" xlink:href="#f"/>
<use x="333.544922" xlink:href="#e"/>
<use x="394.824219" xlink:href="#k"/>
</g>
</g>
<path d="m64.552 297.62v33.808q0 2.4 2.4 2.4h7.7425q2.4 0 2.4-2.4v-33.808q0-2.4-2.4-2.4h-7.7425q-2.4 0-2.4 2.4z" clip-path="url(#a)" fill="#fff" stroke="#fff"/>
<g clip-path="url(#a)">
<g transform="translate(68.616 297.62) rotate(90) scale(.08 -.08)">
<use xlink:href="#i"/>
<use x="44.083984" xlink:href="#g"/>
<use x="105.607422" xlink:href="#j"/>
<use x="144.970703" xlink:href="#h"/>
<use x="242.382812" xlink:href="#l"/>
<use x="270.166016" xlink:href="#f"/>
<use x="333.544922" xlink:href="#e"/>
<use x="394.824219" xlink:href="#k"/>
</g>
</g>
<path d="m92.109 297.62v33.808q0 2.4 2.4 2.4h7.7425q2.4 0 2.4-2.4v-33.808q0-2.4-2.4-2.4h-7.7425q-2.4 0-2.4 2.4z" clip-path="url(#a)" fill="#fff" stroke="#fff"/>
<g clip-path="url(#a)">
<g transform="translate(96.173 297.62) rotate(90) scale(.08 -.08)">
<use xlink:href="#i"/>
<use x="44.083984" xlink:href="#g"/>
<use x="105.607422" xlink:href="#j"/>
<use x="144.970703" xlink:href="#h"/>
<use x="242.382812" xlink:href="#l"/>
<use x="270.166016" xlink:href="#f"/>
<use x="333.544922" xlink:href="#e"/>
<use x="394.824219" xlink:href="#k"/>
</g>
</g>
<path d="m125.18 297.62v33.808q0 2.4 2.4 2.4h7.7425q2.4 0 2.4-2.4v-33.808q0-2.4-2.4-2.4h-7.7425q-2.4 0-2.4 2.4z" clip-path="url(#a)" fill="#fff" stroke="#fff"/>
<g clip-path="url(#a)">
<g transform="translate(129.24 297.62) rotate(90) scale(.08 -.08)">
<use xlink:href="#i"/>
<use x="44.083984" xlink:href="#g"/>
<use x="105.607422" xlink:href="#j"/>
<use x="144.970703" xlink:href="#h"/>
<use x="242.382812" xlink:href="#l"/>
<use x="270.166016" xlink:href="#f"/>
<use x="333.544922" xlink:href="#e"/>
<use x="394.824219" xlink:href="#k"/>
</g>
</g>
<path d="m208.85 236.43 3.5865-4.247q1.5485-1.8336-0.28516-3.3821l-5.9154-4.9955q-1.8336-1.5485-3.3821 0.28516l-3.5865 4.247q-1.5485 1.8336 0.28516 3.3821l5.9154 4.9955q1.8336 1.5485 3.3821-0.28516z" clip-path="url(#a)" fill="#fff" stroke="#fff"/>
<g clip-path="url(#a)">
<g transform="translate(205.75 233.81) rotate(-49.819) scale(.08 -.08)">
<defs>
<path id="ag" d="m44.391 34.188q3.1719-1.0781 6.1719-4.5938t6.0312-9.6719l10.016-19.922h-10.609l-9.3125 18.703q-3.625 7.3281-7.0156 9.7188t-9.25 2.3906h-10.75v-30.812h-9.8594v72.906h22.266q12.5 0 18.656-5.2344 6.1562-5.2188 6.1562-15.766 0-6.8906-3.2031-11.438-3.2031-4.5312-9.2969-6.2812zm-24.719 30.609v-25.875h12.406q7.125 0 10.766 3.2969t3.6406 9.6875-3.6406 9.6406-10.766 3.25z"/>
</defs>
<use xlink:href="#ag"/>
</g>
</g>
<path d="m233.16 234.39 1.4214-4.3762q0.7414-2.2826-1.5412-3.024l-7.3638-2.3918q-2.2826-0.7414-3.024 1.5412l-1.4214 4.3762q-0.7414 2.2826 1.5412 3.024l7.3638 2.3918q2.2826 0.7414 3.024-1.5412z" clip-path="url(#a)" fill="#fff" stroke="#fff"/>
<g clip-path="url(#a)">
<g transform="translate(229.29 233.13) rotate(-72.006) scale(.08 -.08)">
<use xlink:href="#q"/>
</g>
</g>
<path d="m246 229.39 1.2713 4.8925q0.60358 2.3229 2.9264 1.7193l7.4937-1.9472q2.3229-0.60358 1.7193-2.9264l-1.2713-4.8925q-0.60358-2.3229-2.9264-1.7193l-7.4937 1.9472q-2.3229 0.60358-1.7193 2.9264z" clip-path="url(#a)" fill="#fff" stroke="#fff"/>
<g clip-path="url(#a)">
<g transform="translate(249.93 228.37) rotate(75.434) scale(.08 -.08)">
<defs>
<path id="ai" d="m9.8125 72.906h46.094v-8.3125h-36.234v-21.578h34.719v-8.2969h-34.719v-26.422h37.109v-8.2969h-46.969z"/>
</defs>
<use xlink:href="#ai"/>
</g>
</g>
<path d="m273.74 232.41 3.7585 4.1328q1.6148 1.7755 3.3903 0.16078l5.728-5.2093q1.7755-1.6148 0.16078-3.3903l-3.7585-4.1328q-1.6148-1.7755-3.3903-0.16078l-5.728 5.2093q-1.7755 1.6148-0.16078 3.3903z" clip-path="url(#a)" fill="#fff" stroke="#fff"/>
<g clip-path="url(#a)">
<g transform="translate(276.75 229.68) rotate(47.715) scale(.08 -.08)">
<use xlink:href="#v"/>
</g>
</g>
<path d="m163.76 297.62v33.808q0 2.4 2.4 2.4h7.7425q2.4 0 2.4-2.4v-33.808q0-2.4-2.4-2.4h-7.7425q-2.4 0-2.4 2.4z" clip-path="url(#a)" fill="#fff" stroke="#fff"/>
<g clip-path="url(#a)">
<g transform="translate(167.82 297.62) rotate(90) scale(.08 -.08)">
<use xlink:href="#i"/>
<use x="44.083984" xlink:href="#g"/>
<use x="105.607422" xlink:href="#j"/>
<use x="144.970703" xlink:href="#h"/>
<use x="242.382812" xlink:href="#l"/>
<use x="270.166016" xlink:href="#f"/>
<use x="333.544922" xlink:href="#e"/>
<use x="394.824219" xlink:href="#k"/>
</g>
</g>
<path d="m207.85 297.62v33.808q0 2.4 2.4 2.4h7.7425q2.4 0 2.4-2.4v-33.808q0-2.4-2.4-2.4h-7.7425q-2.4 0-2.4 2.4z" clip-path="url(#a)" fill="#fff" stroke="#fff"/>
<g clip-path="url(#a)">
<g transform="translate(211.92 297.62) rotate(90) scale(.08 -.08)">
<use xlink:href="#i"/>
<use x="44.083984" xlink:href="#g"/>
<use x="105.607422" xlink:href="#j"/>
<use x="144.970703" xlink:href="#h"/>
<use x="242.382812" xlink:href="#l"/>
<use x="270.166016" xlink:href="#f"/>
<use x="333.544922" xlink:href="#e"/>
<use x="394.824219" xlink:href="#k"/>
</g>
</g>
<path d="m257.46 297.62v33.808q0 2.4 2.4 2.4h7.7425q2.4 0 2.4-2.4v-33.808q0-2.4-2.4-2.4h-7.7425q-2.4 0-2.4 2.4z" clip-path="url(#a)" fill="#fff" stroke="#fff"/>
<g clip-path="url(#a)">
<g transform="translate(261.52 297.62) rotate(90) scale(.08 -.08)">
<use xlink:href="#i"/>
<use x="44.083984" xlink:href="#g"/>
<use x="105.607422" xlink:href="#j"/>
<use x="144.970703" xlink:href="#h"/>
<use x="242.382812" xlink:href="#l"/>
<use x="270.166016" xlink:href="#f"/>
<use x="333.544922" xlink:href="#e"/>
<use x="394.824219" xlink:href="#k"/>
</g>
</g>
<path d="m312.57 297.62v33.808q0 2.4 2.4 2.4h7.7425q2.4 0 2.4-2.4v-33.808q0-2.4-2.4-2.4h-7.7425q-2.4 0-2.4 2.4z" clip-path="url(#a)" fill="#fff" stroke="#fff"/>
<g clip-path="url(#a)">
<g transform="translate(316.63 297.62) rotate(90) scale(.08 -.08)">
<use xlink:href="#i"/>
<use x="44.083984" xlink:href="#g"/>
<use x="105.607422" xlink:href="#j"/>
<use x="144.970703" xlink:href="#h"/>
<use x="242.382812" xlink:href="#l"/>
<use x="270.166016" xlink:href="#f"/>
<use x="333.544922" xlink:href="#e"/>
<use x="394.824219" xlink:href="#k"/>
</g>
</g>
<path d="m25.971 297.62v33.808q0 2.4 2.4 2.4h7.7425q2.4 0 2.4-2.4v-33.808q0-2.4-2.4-2.4h-7.7425q-2.4 0-2.4 2.4z" clip-path="url(#a)" fill="#fff" stroke="#fff"/>
<g clip-path="url(#a)">
<g transform="translate(30.035 297.62) rotate(90) scale(.08 -.08)">
<use xlink:href="#i"/>
<use x="44.083984" xlink:href="#g"/>
<use x="105.607422" xlink:href="#j"/>
<use x="144.970703" xlink:href="#h"/>
<use x="242.382812" xlink:href="#l"/>
<use x="270.166016" xlink:href="#f"/>
<use x="333.544922" xlink:href="#e"/>
<use x="394.824219" xlink:href="#k"/>
</g>
</g>
<path d="m588.15 297.62v33.808q0 2.4 2.4 2.4h7.7425q2.4 0 2.4-2.4v-33.808q0-2.4-2.4-2.4h-7.7425q-2.4 0-2.4 2.4z" clip-path="url(#a)" fill="#fff" stroke="#fff"/>
<g clip-path="url(#a)">
<g transform="translate(592.21 297.62) rotate(90) scale(.08 -.08)">
<use xlink:href="#i"/>
<use x="44.083984" xlink:href="#g"/>
<use x="105.607422" xlink:href="#j"/>
<use x="144.970703" xlink:href="#h"/>
<use x="242.382812" xlink:href="#l"/>
<use x="270.166016" xlink:href="#f"/>
<use x="333.544922" xlink:href="#e"/>
<use x="394.824219" xlink:href="#k"/>
</g>
</g>
<path d="m670.82 297.62v33.808q0 2.4 2.4 2.4h7.7425q2.4 0 2.4-2.4v-33.808q0-2.4-2.4-2.4h-7.7425q-2.4 0-2.4 2.4z" clip-path="url(#a)" fill="#fff" stroke="#fff"/>
<g clip-path="url(#a)">
<g transform="translate(674.88 297.62) rotate(90) scale(.08 -.08)">
<use xlink:href="#i"/>
<use x="44.083984" xlink:href="#g"/>
<use x="105.607422" xlink:href="#j"/>
<use x="144.970703" xlink:href="#h"/>
<use x="242.382812" xlink:href="#l"/>
<use x="270.166016" xlink:href="#f"/>
<use x="333.544922" xlink:href="#e"/>
<use x="394.824219" xlink:href="#k"/>
</g>
</g>
<defs>
<path id="b" d="m0 8.6603c2.2967 0 4.4997-0.9125 6.1237-2.5365 1.624-1.624 2.5365-3.827 2.5365-6.1237s-0.9125-4.4997-2.5365-6.1237c-1.624-1.624-3.827-2.5365-6.1237-2.5365s-4.4997 0.9125-6.1237 2.5365c-1.624 1.624-2.5365 3.827-2.5365 6.1237s0.9125 4.4997 2.5365 6.1237c1.624 1.624 3.827 2.5365 6.1237 2.5365z"/>
</defs>
<g clip-path="url(#a)" fill="#ffffff" stroke="#ffffff">
<use x="32.242424" y="356.363636" xlink:href="#b"/>
<use x="48.777001" y="356.363636" xlink:href="#b"/>
<use x="70.823103" y="356.363636" xlink:href="#b"/>
<use x="98.38073" y="356.363636" xlink:href="#b"/>
<use x="131.449883" y="356.363636" xlink:href="#b"/>
<use x="170.030562" y="356.363636" xlink:href="#b"/>
<use x="214.122766" y="356.363636" xlink:href="#b"/>
<use x="263.726496" y="356.363636" xlink:href="#b"/>
<use x="318.841751" y="356.363636" xlink:href="#b"/>
<use x="379.468531" y="356.363636" xlink:href="#b"/>
<use x="445.606838" y="356.363636" xlink:href="#b"/>
<use x="517.256669" y="356.363636" xlink:href="#b"/>
<use x="594.418026" y="356.363636" xlink:href="#b"/>
<use x="677.090909" y="356.363636" xlink:href="#b"/>
<use x="186.47328" y="16.969697" xlink:href="#b"/>
<use x="48.777001" y="272.683286" xlink:href="#b"/>
<use x="135.583528" y="102.549411" xlink:href="#b"/>
<use x="379.468531" y="272.683286" xlink:href="#b"/>
<use x="336.294915" y="102.549411" xlink:href="#b"/>
<use x="558.593111" y="187.838849" xlink:href="#b"/>
<use x="445.606838" y="272.683286" xlink:href="#b"/>
<use x="517.256669" y="272.683286" xlink:href="#b"/>
<use x="70.823103" y="272.683286" xlink:href="#b"/>
<use x="98.38073" y="272.683286" xlink:href="#b"/>
<use x="131.449883" y="272.683286" xlink:href="#b"/>
<use x="241.680394" y="187.838849" xlink:href="#b"/>
<use x="170.030562" y="272.683286" xlink:href="#b"/>
<use x="214.122766" y="272.683286" xlink:href="#b"/>
<use x="263.726496" y="272.683286" xlink:href="#b"/>
<use x="318.841751" y="272.683286" xlink:href="#b"/>
<use x="32.242424" y="272.683286" xlink:href="#b"/>
<use x="594.418026" y="272.683286" xlink:href="#b"/>
<use x="677.090909" y="272.683286" xlink:href="#b"/>
</g>
<g clip-path="url(#a)">
<g transform="translate(29.942 359.12) scale(.1 -.1)">
<defs>
<path id="ac" d="m17.922 72.906v-27.109h-8.2969v27.109zm18.453 0v-27.109h-8.2969v27.109z"/>
</defs>
<use xlink:href="#ac"/>
</g>
</g>
<g clip-path="url(#a)">
<g transform="translate(39.014 359.12) scale(.1 -.1)">
<defs>
<path id="an" d="m45.406 46.391v29.594h8.9844v-75.984h-8.9844v8.2031q-2.8281-4.875-7.1562-7.25-4.3125-2.375-10.375-2.375-9.9062 0-16.141 7.9062-6.2188 7.9219-6.2188 20.812t6.2188 20.797q6.2344 7.9062 16.141 7.9062 6.0625 0 10.375-2.375 4.3281-2.3594 7.1562-7.2344zm-30.609-19.094q0-9.9062 4.0781-15.547t11.203-5.6406 11.219 5.6406q4.1094 5.6406 4.1094 15.547t-4.1094 15.547q-4.0938 5.6406-11.219 5.6406t-11.203-5.6406-4.0781-15.547z"/>
</defs>
<use xlink:href="#r"/>
<use x="68.408203" xlink:href="#f"/>
<use x="131.787109" xlink:href="#an"/>
</g>
</g>
<g clip-path="url(#a)">
<g transform="translate(69.348 359.12) scale(.1 -.1)">
<defs>
<path id="ah" d="m9.8125 72.906h9.8594v-72.906h-9.8594z"/>
</defs>
<use xlink:href="#ah"/>
</g>
</g>
<g clip-path="url(#a)">
<g transform="translate(88.623 359.12) scale(.1 -.1)">
<defs>
<path id="al" d="m4.2031 54.688h8.9844l11.234-42.672 11.172 42.672h10.594l11.234-42.672 11.188 42.672h8.9844l-14.312-54.688h-10.594l-11.766 44.828-11.812-44.828h-10.609z"/>
<path id="o" d="m44.281 53.078v-8.5q-3.7969 1.9531-7.9062 2.9219-4.0938 0.98438-8.5 0.98438-6.6875 0-10.031-2.0469t-3.3438-6.1562q0-3.125 2.3906-4.9062t9.625-3.3906l3.0781-0.6875q9.5625-2.0469 13.594-5.7812t4.0312-10.422q0-7.625-6.0312-12.078-6.0312-4.4375-16.578-4.4375-4.3906 0-9.1562 0.85938t-10.031 2.5625v9.2812q4.9844-2.5938 9.8125-3.8906 4.8281-1.2812 9.5781-1.2812 6.3438 0 9.75 2.1719 3.4219 2.1719 3.4219 6.125 0 3.6562-2.4688 5.6094-2.4531 1.9531-10.812 3.7656l-3.125 0.73438q-8.3438 1.75-12.062 5.3906-3.7031 3.6406-3.7031 9.9844 0 7.7188 5.4688 11.906 5.4688 4.2031 15.531 4.2031 4.9688 0 9.3594-0.73438 4.4062-0.71875 8.1094-2.1875z"/>
</defs>
<use xlink:href="#al"/>
<use x="81.787109" xlink:href="#e"/>
<use x="143.066406" xlink:href="#o"/>
</g>
</g>
<g clip-path="url(#a)">
<g transform="translate(120.08 359.12) scale(.1 -.1)">
<defs>
<path id="af" d="m48.688 27.297q0 9.9062-4.0781 15.547t-11.203 5.6406q-7.1406 0-11.219-5.6406t-4.0781-15.547 4.0781-15.547 11.219-5.6406q7.125 0 11.203 5.6406t4.0781 15.547zm-30.578 19.094q2.8438 4.875 7.1562 7.2344 4.3281 2.375 10.328 2.375 9.9688 0 16.188-7.9062 6.2344-7.9062 6.2344-20.797t-6.2344-20.812q-6.2188-7.9062-16.188-7.9062-6 0-10.328 2.375-4.3125 2.375-7.1562 7.25v-8.2031h-9.0312v75.984h9.0312z"/>
<path id="ad" d="m30.609 48.391q-7.2188 0-11.422-5.6406t-4.2031-15.453 4.1719-15.453q4.1875-5.6406 11.453-5.6406 7.1875 0 11.375 5.6562 4.2031 5.6719 4.2031 15.438 0 9.7188-4.2031 15.406-4.1875 5.6875-11.375 5.6875zm0 7.6094q11.719 0 18.406-7.625 6.7031-7.6094 6.7031-21.078 0-13.422-6.7031-21.078-6.6875-7.6406-18.406-7.6406-11.766 0-18.438 7.6406-6.6562 7.6562-6.6562 21.078 0 13.469 6.6562 21.078 6.6719 7.625 18.438 7.625z"/>
</defs>
<use xlink:href="#af"/>
<use x="63.476562" xlink:href="#ad"/>
<use x="124.658203" xlink:href="#j"/>
<use x="164.021484" xlink:href="#f"/>
</g>
</g>
<g clip-path="url(#a)">
<g transform="translate(165.01 359.12) scale(.1 -.1)">
<defs>
<path id="n" d="m18.312 70.219v-15.531h18.5v-6.9844h-18.5v-29.688q0-6.6875 1.8281-8.5938t7.4531-1.9062h9.2188v-7.5156h-9.2188q-10.406 0-14.359 3.875-3.9531 3.8906-3.9531 14.141v29.688h-6.5938v6.9844h6.5938v15.531z"/>
</defs>
<use xlink:href="#e"/>
<use x="61.279297" xlink:href="#n"/>
</g>
</g>
<g clip-path="url(#a)">
<g transform="translate(205.92 359.12) scale(.1 -.1)">
<defs>
<path id="ae" d="m54.891 33.016v-33.016h-8.9844v32.719q0 7.7656-3.0312 11.609-3.0312 3.8594-9.0781 3.8594-7.2812 0-11.484-4.6406-4.2031-4.625-4.2031-12.641v-30.906h-9.0312v75.984h9.0312v-29.797q3.2344 4.9375 7.5938 7.375 4.375 2.4375 10.094 2.4375 9.4219 0 14.25-5.8281 4.8438-5.8281 4.8438-17.156z"/>
</defs>
<use xlink:href="#n"/>
<use x="39.208984" xlink:href="#ae"/>
<use x="102.587891" xlink:href="#g"/>
</g>
</g>
<g clip-path="url(#a)">
<g transform="translate(250.11 359.12) scale(.1 -.1)">
<use xlink:href="#o"/>
<use x="52.099609" xlink:href="#e"/>
<use x="113.378906" xlink:href="#h"/>
<use x="210.791016" xlink:href="#g"/>
</g>
</g>
<g clip-path="url(#a)">
<g transform="translate(297.84 359.12) scale(.1 -.1)">
<use xlink:href="#h"/>
<use x="97.412109" xlink:href="#ad"/>
<use x="158.59375" xlink:href="#h"/>
<use x="256.005859" xlink:href="#g"/>
<use x="317.529297" xlink:href="#f"/>
<use x="380.908203" xlink:href="#n"/>
</g>
</g>
<g clip-path="url(#a)">
<g transform="translate(373.8 359.12) scale(.1 -.1)">
<use xlink:href="#e"/>
<use x="61.279297" xlink:href="#o"/>
</g>
</g>
<g clip-path="url(#a)">
<g transform="translate(437.4 359.12) scale(.1 -.1)">
<use xlink:href="#n"/>
<use x="39.208984" xlink:href="#ae"/>
<use x="102.587891" xlink:href="#g"/>
</g>
</g>
<g clip-path="url(#a)">
<g transform="translate(508.31 359.12) scale(.1 -.1)">
<defs>
<path id="am" d="m8.5 21.578v33.109h8.9844v-32.766q0-7.7656 3.0156-11.656 3.0312-3.875 9.0938-3.875 7.2656 0 11.484 4.6406 4.2344 4.6406 4.2344 12.656v31h8.9844v-54.688h-8.9844v8.4062q-3.2656-4.9844-7.5938-7.4062-4.3125-2.4219-10.031-2.4219-9.4219 0-14.312 5.8594-4.875 5.8594-4.875 17.141z"/>
</defs>
<use xlink:href="#o"/>
<use x="52.099609" xlink:href="#am"/>
<use x="115.478516" xlink:href="#f"/>
</g>
</g>
<g clip-path="url(#a)">
<g transform="translate(589.65 359.12) scale(.1 -.1)">
<defs>
<path id="d" d="m10.688 12.406h10.312v-12.406h-10.312z"/>
</defs>
<use xlink:href="#d"/>
<use x="31.787109" xlink:href="#d"/>
<use x="63.574219" xlink:href="#d"/>
</g>
</g>
<g clip-path="url(#a)">
<g transform="translate(674.79 359.12) scale(.1 -.1)">
<use xlink:href="#ac"/>
</g>
</g>
<g clip-path="url(#a)">
<g transform="translate(178.52 19.729) scale(.1 -.1)">
<defs>
<path id="c" d="m12.406 8.2969h16.109v55.625l-17.531-3.5156v8.9844l17.438 3.5156h9.8594v-64.609h16.109v-8.2969h-41.984z"/>
</defs>
<use xlink:href="#c"/>
<use x="63.623047" xlink:href="#d"/>
<use x="95.410156" xlink:href="#c"/>
</g>
</g>
<g clip-path="url(#a)">
<g transform="translate(40.825 275.44) scale(.1 -.1)">
<defs>
<path id="m" d="m19.188 8.2969h34.422v-8.2969h-46.281v8.2969q5.6094 5.8125 15.297 15.594 9.7031 9.7969 12.188 12.641 4.7344 5.3125 6.6094 9 1.8906 3.6875 1.8906 7.25 0 5.8125-4.0781 9.4688-4.0781 3.6719-10.625 3.6719-4.6406 0-9.7969-1.6094-5.1406-1.6094-11-4.8906v9.9688q5.9531 2.3906 11.125 3.6094 5.1875 1.2188 9.4844 1.2188 11.328 0 18.062-5.6719 6.7344-5.6562 6.7344-15.125 0-4.5-1.6875-8.5312-1.6719-4.0156-6.125-9.4844-1.2188-1.4219-7.7656-8.1875-6.5312-6.7656-18.453-18.922z"/>
</defs>
<use xlink:href="#c"/>
<use x="63.623047" xlink:href="#d"/>
<use x="95.410156" xlink:href="#m"/>
</g>
</g>
<g clip-path="url(#a)">
<g transform="translate(127.63 105.31) scale(.1 -.1)">
<defs>
<path id="ab" d="m40.578 39.312q7.0781-1.5156 11.047-6.3125 3.9844-4.7812 3.9844-11.812 0-10.781-7.4219-16.703-7.4219-5.9062-21.094-5.9062-4.5781 0-9.4375 0.90625t-10.031 2.7188v9.5156q4.0938-2.3906 8.9688-3.6094 4.8906-1.2188 10.219-1.2188 9.2656 0 14.125 3.6562t4.8594 10.641q0 6.4531-4.5156 10.078-4.5156 3.6406-12.562 3.6406h-8.5v8.1094h8.8906q7.2656 0 11.125 2.9062t3.8594 8.375q0 5.6094-3.9844 8.6094-3.9688 3.0156-11.391 3.0156-4.0625 0-8.7031-0.89062-4.6406-0.875-10.203-2.7188v8.7812q5.625 1.5625 10.531 2.3438t9.25 0.78125q11.234 0 17.766-5.1094 6.5469-5.0938 6.5469-13.781 0-6.0625-3.4688-10.234t-9.8594-5.7812z"/>
</defs>
<use xlink:href="#c"/>
<use x="63.623047" xlink:href="#d"/>
<use x="95.410156" xlink:href="#ab"/>
</g>
</g>
<g clip-path="url(#a)">
<g transform="translate(371.52 275.44) scale(.1 -.1)">
<defs>
<path id="aa" d="m37.797 64.312-24.906-38.922h24.906zm-2.5938 8.5938h12.406v-47.516h10.406v-8.2031h-10.406v-17.188h-9.8125v17.188h-32.906v9.5156z"/>
</defs>
<use xlink:href="#c"/>
<use x="63.623047" xlink:href="#d"/>
<use x="95.410156" xlink:href="#aa"/>
</g>
</g>
<g clip-path="url(#a)">
<g transform="translate(328.34 105.31) scale(.1 -.1)">
<defs>
<path id="z" d="m10.797 72.906h38.719v-8.3125h-29.688v-17.859q2.1406 0.73438 4.2812 1.0938 2.1562 0.35938 4.3125 0.35938 12.203 0 19.328-6.6875 7.1406-6.6875 7.1406-18.109 0-11.766-7.3281-18.297-7.3281-6.5156-20.656-6.5156-4.5938 0-9.3594 0.78125-4.75 0.78125-9.8281 2.3438v9.9219q4.3906-2.3906 9.0781-3.5625t9.9062-1.1719q8.4531 0 13.375 4.4375 4.9375 4.4375 4.9375 12.062 0 7.6094-4.9375 12.047-4.9219 4.4531-13.375 4.4531-3.9531 0-7.8906-0.875-3.9219-0.875-8.0156-2.7344z"/>
</defs>
<use xlink:href="#c"/>
<use x="63.623047" xlink:href="#d"/>
<use x="95.410156" xlink:href="#z"/>
</g>
</g>
<g clip-path="url(#a)">
<g transform="translate(550.64 190.6) scale(.1 -.1)">
<defs>
<path id="y" d="m8.2031 72.906h46.875v-4.2031l-26.469-68.703h-10.297l24.906 64.594h-35.016z"/>
</defs>
<use xlink:href="#c"/>
<use x="63.623047" xlink:href="#d"/>
<use x="95.410156" xlink:href="#y"/>
</g>
</g>
<g clip-path="url(#a)">
<g transform="translate(437.66 275.44) scale(.1 -.1)">
<defs>
<path id="x" d="m31.781 34.625q-7.0312 0-11.062-3.7656-4.0156-3.7656-4.0156-10.344 0-6.5938 4.0156-10.359 4.0312-3.7656 11.062-3.7656t11.078 3.7812q4.0625 3.7969 4.0625 10.344 0 6.5781-4.0312 10.344-4.0156 3.7656-11.109 3.7656zm-9.8594 4.1875q-6.3438 1.5625-9.8906 5.9062-3.5312 4.3594-3.5312 10.609 0 8.7344 6.2188 13.812 6.2344 5.0781 17.062 5.0781 10.891 0 17.094-5.0781t6.2031-13.812q0-6.25-3.5469-10.609-3.5312-4.3438-9.8281-5.9062 7.125-1.6562 11.094-6.5 3.9844-4.8281 3.9844-11.797 0-10.609-6.4688-16.281-6.4688-5.6562-18.531-5.6562-12.047 0-18.531 5.6562-6.4688 5.6719-6.4688 16.281 0 6.9688 4 11.797 4.0156 4.8438 11.141 6.5zm-3.6094 15.578q0-5.6562 3.5312-8.8281 3.5469-3.1719 9.9375-3.1719 6.3594 0 9.9375 3.1719 3.5938 3.1719 3.5938 8.8281 0 5.6719-3.5938 8.8438-3.5781 3.1719-9.9375 3.1719-6.3906 0-9.9375-3.1719-3.5312-3.1719-3.5312-8.8438z"/>
</defs>
<use xlink:href="#c"/>
<use x="63.623047" xlink:href="#d"/>
<use x="95.410156" xlink:href="#x"/>
</g>
</g>
<g clip-path="url(#a)">
<g transform="translate(509.31 275.44) scale(.1 -.1)">
<defs>
<path id="w" d="m10.984 1.5156v8.9844q3.7188-1.7656 7.5156-2.6875 3.8125-0.92188 7.4844-0.92188 9.7656 0 14.906 6.5625 5.1562 6.5625 5.8906 19.953-2.8281-4.2031-7.1875-6.4531-4.3438-2.25-9.6094-2.25-10.938 0-17.312 6.6094-6.375 6.625-6.375 18.109 0 11.219 6.6406 18 6.6406 6.7969 17.672 6.7969 12.656 0 19.312-9.7031 6.6719-9.6875 6.6719-28.141 0-17.234-8.1875-27.516-8.1719-10.281-21.984-10.281-3.7188 0-7.5312 0.73438-3.7969 0.73438-7.9062 2.2031zm19.625 30.906q6.6406 0 10.516 4.5312 3.8906 4.5469 3.8906 12.469 0 7.8594-3.8906 12.422-3.875 4.5625-10.516 4.5625t-10.516-4.5625-3.875-12.422q0-7.9219 3.875-12.469 3.875-4.5312 10.516-4.5312z"/>
</defs>
<use xlink:href="#c"/>
<use x="63.623047" xlink:href="#d"/>
<use x="95.410156" xlink:href="#w"/>
</g>
</g>
<g clip-path="url(#a)">
<g transform="translate(59.69 275.44) scale(.1 -.1)">
<use xlink:href="#c"/>
<use x="63.623047" xlink:href="#d"/>
<use x="95.410156" xlink:href="#c"/>
<use x="159.033203" xlink:href="#m"/>
</g>
</g>
<g clip-path="url(#a)">
<g transform="translate(87.248 275.44) scale(.1 -.1)">
<use xlink:href="#c"/>
<use x="63.623047" xlink:href="#d"/>
<use x="95.410156" xlink:href="#c"/>
<use x="159.033203" xlink:href="#ab"/>
</g>
</g>
<g clip-path="url(#a)">
<g transform="translate(120.32 275.44) scale(.1 -.1)">
<use xlink:href="#c"/>
<use x="63.623047" xlink:href="#d"/>
<use x="95.410156" xlink:href="#c"/>
<use x="159.033203" xlink:href="#aa"/>
</g>
</g>
<g clip-path="url(#a)">
<g transform="translate(230.55 190.6) scale(.1 -.1)">
<use xlink:href="#c"/>
<use x="63.623047" xlink:href="#d"/>
<use x="95.410156" xlink:href="#c"/>
<use x="159.033203" xlink:href="#z"/>
</g>
</g>
<g clip-path="url(#a)">
<g transform="translate(158.9 275.44) scale(.1 -.1)">
<defs>
<path id="aj" d="m33.016 40.375q-6.6406 0-10.531-4.5469-3.875-4.5312-3.875-12.438 0-7.8594 3.875-12.438 3.8906-4.5625 10.531-4.5625t10.516 4.5625q3.875 4.5781 3.875 12.438 0 7.9062-3.875 12.438-3.875 4.5469-10.516 4.5469zm19.578 30.922v-8.9844q-3.7188 1.75-7.5 2.6719-3.7812 0.9375-7.5 0.9375-9.7656 0-14.922-6.5938-5.1406-6.5938-5.875-19.922 2.875 4.25 7.2188 6.5156 4.3594 2.2656 9.5781 2.2656 10.984 0 17.359-6.6719 6.375-6.6562 6.375-18.125 0-11.234-6.6406-18.031-6.6406-6.7812-17.672-6.7812-12.656 0-19.344 9.6875-6.6875 9.7031-6.6875 28.109 0 17.281 8.2031 27.562t22.016 10.281q3.7188 0 7.5-0.73438t7.8906-2.1875z"/>
</defs>
<use xlink:href="#c"/>
<use x="63.623047" xlink:href="#d"/>
<use x="95.410156" xlink:href="#c"/>
<use x="159.033203" xlink:href="#aj"/>
</g>
</g>
<g clip-path="url(#a)">
<g transform="translate(202.99 275.44) scale(.1 -.1)">
<use xlink:href="#c"/>
<use x="63.623047" xlink:href="#d"/>
<use x="95.410156" xlink:href="#c"/>
<use x="159.033203" xlink:href="#y"/>
</g>
</g>
<g clip-path="url(#a)">
<g transform="translate(252.59 275.44) scale(.1 -.1)">
<use xlink:href="#c"/>
<use x="63.623047" xlink:href="#d"/>
<use x="95.410156" xlink:href="#c"/>
<use x="159.033203" xlink:href="#x"/>
</g>
</g>
<g clip-path="url(#a)">
<g transform="translate(307.71 275.44) scale(.1 -.1)">
<use xlink:href="#c"/>
<use x="63.623047" xlink:href="#d"/>
<use x="95.410156" xlink:href="#c"/>
<use x="159.033203" xlink:href="#w"/>
</g>
</g>
<g clip-path="url(#a)">
<g transform="translate(21.11 275.44) scale(.1 -.1)">
<defs>
<path id="ak" d="m31.781 66.406q-7.6094 0-11.453-7.5-3.8281-7.4844-3.8281-22.531 0-14.984 3.8281-22.484 3.8438-7.5 11.453-7.5 7.6719 0 11.5 7.5 3.8438 7.5 3.8438 22.484 0 15.047-3.8438 22.531-3.8281 7.5-11.5 7.5zm0 7.8125q12.266 0 18.734-9.7031 6.4688-9.6875 6.4688-28.141 0-18.406-6.4688-28.109-6.4688-9.6875-18.734-9.6875-12.25 0-18.719 9.6875-6.4688 9.7031-6.4688 28.109 0 18.453 6.4688 28.141 6.4688 9.7031 18.719 9.7031z"/>
</defs>
<use xlink:href="#c"/>
<use x="63.623047" xlink:href="#d"/>
<use x="95.410156" xlink:href="#m"/>
<use x="159.033203" xlink:href="#ak"/>
</g>
</g>
<g clip-path="url(#a)">
<g transform="translate(583.29 275.44) scale(.1 -.1)">
<use xlink:href="#c"/>
<use x="63.623047" xlink:href="#d"/>
<use x="95.410156" xlink:href="#m"/>
<use x="159.033203" xlink:href="#c"/>
</g>
</g>
<g clip-path="url(#a)">
<g transform="translate(665.96 275.44) scale(.1 -.1)">
<use xlink:href="#c"/>
<use x="63.623047" xlink:href="#d"/>
<use x="95.410156" xlink:href="#m"/>
<use x="159.033203" xlink:href="#m"/>
</g>
</g>
<defs>
<clipPath id="a">
<rect width="709.33" height="373.33"/>
</clipPath>
</defs>
</svg>
