<?xml version="1.0" encoding="UTF-8"?>
<!DOCTYPE svg  PUBLIC '-//W3C//DTD SVG 1.1//EN'  'http://www.w3.org/Graphics/SVG/1.1/DTD/svg11.dtd'>
<svg width="709.33pt" height="373.33pt" version="1.1" viewBox="0 0 709.33 373.33" xmlns="http://www.w3.org/2000/svg" xmlns:xlink="http://www.w3.org/1999/xlink">
<metadata>
<rdf:RDF xmlns:cc="http://creativecommons.org/ns#" xmlns:dc="http://purl.org/dc/elements/1.1/" xmlns:rdf="http://www.w3.org/1999/02/22-rdf-syntax-ns#">
<cc:Work>
<dc:type rdf:resource="http://purl.org/dc/dcmitype/StillImage"/>
<dc:date>2021-02-11T07:46:02.333849</dc:date>
<dc:format>image/svg+xml</dc:format>
<dc:creator>
<cc:Agent>
<dc:title>Matplotlib v3.3.3, https://matplotlib.org/</dc:title>
</cc:Agent>
</dc:creator>
</cc:Work>
</rdf:RDF>
</metadata>
<defs>
<style type="text/css">*{stroke-linecap:butt;stroke-linejoin:round;}</style>
</defs>
<path d="m0 373.33h709.33v-373.33h-709.33z" fill="#fff"/>
<g fill="none" stroke="#000">
<path d="m199.62 16.97-167.38 272.6" clip-path="url(#a)"/>
<path d="m199.62 16.97-14.207 68.484" clip-path="url(#a)"/>
<path d="m199.62 16.97 268.33 68.484" clip-path="url(#a)"/>
<path d="m199.62 16.97-150.85 272.6" clip-path="url(#a)"/>
<path d="m199.62 16.97 64.102 272.6" clip-path="url(#a)"/>
<path d="m32.242 289.57v66.795" clip-path="url(#a)"/>
<path d="m185.42 85.454 194.05 204.11" clip-path="url(#a)" stroke-dasharray="3.7,1.6"/>
<path d="m185.42 85.454-114.59 204.11" clip-path="url(#a)"/>
<path d="m185.42 85.454-87.036 204.11" clip-path="url(#a)"/>
<path d="m185.42 85.454 7.5783 68.311" clip-path="url(#a)"/>
<path d="m467.96 85.454-118.8 68.311" clip-path="url(#a)"/>
<path d="m467.96 85.454-22.352 204.11" clip-path="url(#a)"/>
<path d="m467.96 85.454 141.16 68.311" clip-path="url(#a)"/>
<path d="m349.16 153.76v68.079" clip-path="url(#a)"/>
<path d="m445.61 289.57v66.795" clip-path="url(#a)"/>
<path d="m609.12 153.76-53.278 68.079" clip-path="url(#a)"/>
<path d="m609.12 153.76-14.697 135.8" clip-path="url(#a)"/>
<path d="m609.12 153.76 67.975 135.8" clip-path="url(#a)"/>
<path d="m555.84 221.84 38.581 67.724" clip-path="url(#a)" stroke-dasharray="3.7,1.6"/>
<path d="m555.84 221.84-38.581 67.724" clip-path="url(#a)"/>
<path d="m594.42 289.57v66.795" clip-path="url(#a)"/>
<path d="m517.26 289.57v66.795" clip-path="url(#a)"/>
<path d="m349.16 221.84-30.313 67.724" clip-path="url(#a)"/>
<path d="m349.16 221.84 30.313 67.724" clip-path="url(#a)"/>
<path d="m318.84 289.57v66.795" clip-path="url(#a)"/>
<path d="m379.47 289.57v66.795" clip-path="url(#a)"/>
<path d="m70.823 289.57v66.795" clip-path="url(#a)"/>
<path d="m98.381 289.57v66.795" clip-path="url(#a)"/>
<path d="m193 153.76-20.209 68.079" clip-path="url(#a)"/>
<path d="m193 153.76-0.91859 68.079" clip-path="url(#a)"/>
<path d="m193 153.76 21.128 135.8" clip-path="url(#a)"/>
<path d="m172.79 221.84 41.336 67.724" clip-path="url(#a)" stroke-dasharray="3.7,1.6"/>
<path d="m172.79 221.84-41.336 67.724" clip-path="url(#a)"/>
<path d="m192.08 221.84 22.046 67.724" clip-path="url(#a)" stroke-dasharray="3.7,1.6"/>
<path d="m192.08 221.84-22.046 67.724" clip-path="url(#a)"/>
<path d="m214.12 289.57v66.795" clip-path="url(#a)"/>
<path d="m170.03 289.57v66.795" clip-path="url(#a)"/>
<path d="m131.45 289.57v66.795" clip-path="url(#a)"/>
<path d="m48.777 289.57v66.795" clip-path="url(#a)"/>
<path d="m263.73 289.57v66.795" clip-path="url(#a)"/>
<path d="m677.09 289.57v66.795" clip-path="url(#a)"/>
</g>
<path d="m120.11 158.45 2.3324-3.7986q1.2558-2.0452-0.78941-3.301l-6.598-4.0513q-2.0452-1.2558-3.301 0.78941l-2.3324 3.7986q-1.2558 2.0452 0.78941 3.301l6.598 4.0513q2.0452 1.2558 3.301-0.78941z" clip-path="url(#a)" fill="#fff" stroke="#fff"/>
<g clip-path="url(#a)">
<g transform="translate(116.65 156.32) rotate(-58.449) scale(.08 -.08)">
<defs>
<path id="ao" d="m9.8125 72.906h9.8594v-64.609h35.5v-8.2969h-45.359z"/>
</defs>
<use xlink:href="#ao"/>
</g>
</g>
<path d="m198.05 55.431 1.2221-5.8908q0.48752-2.35-1.8624-2.8375l-7.5811-1.5727q-2.35-0.48752-2.8375 1.8624l-1.2221 5.8908q-0.48752 2.35 1.8624 2.8375l7.5811 1.5727q2.35 0.48752 2.8375-1.8624z" clip-path="url(#a)" fill="#fff" stroke="#fff"/>
<g clip-path="url(#a)">
<g transform="translate(194.07 54.606) rotate(-78.28) scale(.08 -.08)">
<defs>
<path id="ac" d="m9.8125 72.906h9.8594v-29.891h35.844v29.891h9.8594v-72.906h-9.8594v34.719h-35.844v-34.719h-9.8594z"/>
</defs>
<use xlink:href="#ac"/>
</g>
</g>
<path d="m329.33 56.544 5.8294 1.4878q2.3255 0.5935 2.919-1.732l1.9147-7.502q0.5935-2.3255-1.732-2.919l-5.8294-1.4878q-2.3255-0.5935-2.919 1.732l-1.9147 7.502q-0.5935 2.3255 1.732 2.919z" clip-path="url(#a)" fill="#fff" stroke="#fff"/>
<g clip-path="url(#a)">
<g transform="translate(330.33 52.607) rotate(14.317) scale(.08 -.08)">
<use xlink:href="#ac"/>
</g>
</g>
<path d="m128.27 158.87 2.8349-5.1229q1.162-2.0999-0.93789-3.262l-6.7744-3.7488q-2.0999-1.162-3.262 0.93789l-2.8349 5.1229q-1.162 2.0999 0.9379 3.262l6.7744 3.7488q2.0999 1.162 3.262-0.9379z" clip-path="url(#a)" fill="#fff" stroke="#fff"/>
<g clip-path="url(#a)">
<g transform="translate(124.71 156.9) rotate(-61.041) scale(.08 -.08)">
<defs>
<path id="s" d="m8.6875 72.906h9.9219v-44.297q0-11.719 4.2344-16.875 4.25-5.1406 13.781-5.1406 9.4688 0 13.719 5.1406 4.25 5.1562 4.25 16.875v44.297h9.9062v-45.516q0-14.25-7.0625-21.531-7.0469-7.2812-20.812-7.2812-13.828 0-20.891 7.2812-7.0469 7.2812-7.0469 21.531z"/>
</defs>
<use xlink:href="#s"/>
</g>
</g>
<path d="m224.9 151.85 1.3403 5.6995q0.54938 2.3363 2.8857 1.7869l7.5369-1.7723q2.3363-0.54938 1.7869-2.8857l-1.3403-5.6995q-0.54938-2.3363-2.8857-1.7869l-7.5369 1.7723q-2.3363 0.54938-1.7869 2.8857z" clip-path="url(#a)" fill="#fff" stroke="#fff"/>
<g clip-path="url(#a)">
<g transform="translate(228.86 150.92) rotate(76.767) scale(.08 -.08)">
<use xlink:href="#s"/>
</g>
</g>
<path d="m25.971 306.06v33.808q0 2.4 2.4 2.4h7.7425q2.4 0 2.4-2.4v-33.808q0-2.4-2.4-2.4h-7.7425q-2.4 0-2.4 2.4z" clip-path="url(#a)" fill="#fff" stroke="#fff"/>
<g clip-path="url(#a)">
<g transform="translate(30.035 306.06) rotate(90) scale(.08 -.08)">
<defs>
<path id="k" d="m-0.29688 72.906h61.672v-8.3125h-25.875v-64.594h-9.9062v64.594h-25.891z"/>
<path id="e" d="m56.203 29.594v-4.3906h-41.312q0.59375-9.2812 5.5938-14.141t13.938-4.8594q5.1719 0 10.031 1.2656t9.6562 3.8125v-8.5q-4.8438-2.0469-9.9219-3.125t-10.297-1.0781q-13.094 0-20.734 7.6094-7.6406 7.625-7.6406 20.625 0 13.422 7.25 21.297 7.25 7.8906 19.562 7.8906 11.031 0 17.453-7.1094 6.4219-7.0938 6.4219-19.297zm-8.9844 2.6406q-0.09375 7.3594-4.125 11.75-4.0312 4.4062-10.672 4.4062-7.5156 0-12.031-4.25t-5.2031-11.969z"/>
<path id="g" d="m41.109 46.297q-1.5156 0.875-3.2969 1.2812-1.7812 0.42188-3.9219 0.42188-7.625 0-11.703-4.9531t-4.0781-14.234v-28.812h-9.0312v54.688h9.0312v-8.5q2.8438 4.9844 7.375 7.3906 4.5469 2.4219 11.047 2.4219 0.92188 0 2.0469-0.125 1.125-0.10938 2.4844-0.35938z"/>
<path id="l" d="m52 44.188q3.375 6.0625 8.0625 8.9375t11.031 2.875q8.5469 0 13.188-5.9844 4.6406-5.9688 4.6406-17v-33.016h-9.0312v32.719q0 7.8594-2.7969 11.656-2.7812 3.8125-8.4844 3.8125-6.9844 0-11.047-4.6406-4.0469-4.625-4.0469-12.641v-30.906h-9.0312v32.719q0 7.9062-2.7812 11.688t-8.5938 3.7812q-6.8906 0-10.953-4.6562-4.0469-4.6562-4.0469-12.625v-30.906h-9.0312v54.688h9.0312v-8.5q3.0781 5.0312 7.375 7.4219t10.203 2.3906q5.9688 0 10.141-3.0312 4.1719-3.0156 6.1719-8.7812z"/>
<path id="f" d="m9.4219 54.688h8.9844v-54.688h-8.9844zm0 21.297h8.9844v-11.391h-8.9844z"/>
<path id="h" d="m54.891 33.016v-33.016h-8.9844v32.719q0 7.7656-3.0312 11.609-3.0312 3.8594-9.0781 3.8594-7.2812 0-11.484-4.6406-4.2031-4.625-4.2031-12.641v-30.906h-9.0312v54.688h9.0312v-8.5q3.2344 4.9375 7.5938 7.375 4.375 2.4375 10.094 2.4375 9.4219 0 14.25-5.8281 4.8438-5.8281 4.8438-17.156z"/>
<path id="i" d="m34.281 27.484q-10.891 0-15.094-2.4844t-4.2031-8.5q0-4.7812 3.1562-7.5938 3.1562-2.7969 8.5625-2.7969 7.4844 0 12 5.2969t4.5156 14.078v2zm17.922 3.7188v-31.203h-8.9844v8.2969q-3.0781-4.9688-7.6719-7.3438t-11.234-2.375q-8.3906 0-13.359 4.7188-4.9531 4.7188-4.9531 12.625 0 9.2188 6.1719 13.906 6.1875 4.6875 18.438 4.6875h12.609v0.89062q0 6.2031-4.0781 9.5938t-11.453 3.3906q-4.6875 0-9.1406-1.125-4.4375-1.125-8.5312-3.375v8.3125q4.9219 1.9062 9.5625 2.8438 4.6406 0.95312 9.0312 0.95312 11.875 0 17.734-6.1562 5.8594-6.1406 5.8594-18.641z"/>
<path id="j" d="m9.4219 75.984h8.9844v-75.984h-8.9844z"/>
</defs>
<use xlink:href="#k"/>
<use x="44.083984" xlink:href="#e"/>
<use x="105.607422" xlink:href="#g"/>
<use x="144.970703" xlink:href="#l"/>
<use x="242.382812" xlink:href="#f"/>
<use x="270.166016" xlink:href="#h"/>
<use x="333.544922" xlink:href="#i"/>
<use x="394.824219" xlink:href="#j"/>
</g>
</g>
<path d="m276.01 189.85 3.7706 3.9662q1.6536 1.7394 3.393 0.085756l5.6114-5.3347q1.7394-1.6536 0.085755-3.393l-3.7706-3.9662q-1.6536-1.7394-3.393-0.085756l-5.6114 5.3347q-1.7394 1.6536-0.085756 3.393z" clip-path="url(#a)" fill="#fff" stroke="#fff"/>
<g clip-path="url(#a)">
<g transform="translate(278.96 187.05) rotate(46.448) scale(.08 -.08)">
<defs>
<path id="m" d="m34.188 63.188-13.391-36.281h26.812zm-5.5781 9.7188h11.188l27.781-72.906h-10.25l-6.6406 18.703h-32.859l-6.6406-18.703h-10.406z"/>
</defs>
<use xlink:href="#m"/>
</g>
</g>
<path d="m132.46 192.59 2.2525-4.0122q1.1749-2.0927-0.91784-3.2677l-6.7513-3.7903q-2.0927-1.1749-3.2677 0.91784l-2.2525 4.0122q-1.1749 2.0927 0.91784 3.2677l6.7513 3.7903q2.0927 1.1749 3.2677-0.91784z" clip-path="url(#a)" fill="#fff" stroke="#fff"/>
<g clip-path="url(#a)">
<g transform="translate(128.92 190.6) rotate(-60.689) scale(.08 -.08)">
<defs>
<path id="ad" d="m9.8125 72.906h41.891v-8.3125h-32.031v-21.484h28.906v-8.2969h-28.906v-34.812h-9.8594z"/>
</defs>
<use xlink:href="#ad"/>
</g>
</g>
<path d="m146.72 192.19 1.8921-4.4372q0.94137-2.2077-1.2663-3.149l-7.122-3.0369q-2.2077-0.94137-3.149 1.2663l-1.8921 4.4372q-0.94137 2.2077 1.2663 3.149l7.122 3.0369q2.2077 0.94137 3.149-1.2663z" clip-path="url(#a)" fill="#fff" stroke="#fff"/>
<g clip-path="url(#a)">
<g transform="translate(142.98 190.6) rotate(-66.906) scale(.08 -.08)">
<defs>
<path id="u" d="m19.672 64.797v-27.391h12.406q6.8906 0 10.641 3.5625 3.7656 3.5625 3.7656 10.156 0 6.5469-3.7656 10.109-3.75 3.5625-10.641 3.5625zm-9.8594 8.1094h22.266q12.266 0 18.531-5.5469 6.2812-5.5469 6.2812-16.234 0-10.797-6.2812-16.312-6.2656-5.5156-18.531-5.5156h-12.406v-29.297h-9.8594z"/>
</defs>
<use xlink:href="#u"/>
</g>
</g>
<path d="m182.67 117.58 0.60341 5.4391q0.26463 2.3854 2.65 2.1207l7.6953-0.8537q2.3854-0.26463 2.1207-2.65l-0.60341-5.4391q-0.26463-2.3854-2.65-2.1207l-7.6953 0.8537q-2.3854 0.26463-2.1207 2.65z" clip-path="url(#a)" fill="#fff" stroke="#fff"/>
<g clip-path="url(#a)">
<g transform="translate(186.71 117.13) rotate(83.67) scale(.08 -.08)">
<use xlink:href="#m"/>
</g>
</g>
<path d="m409.31 126.41 4.7442-2.7278q2.0806-1.1963 0.88427-3.2769l-3.8594-6.712q-1.1963-2.0806-3.2769-0.88427l-4.7442 2.7278q-2.0806 1.1963-0.88427 3.2769l3.8594 6.712q1.1963 2.0806 3.2769 0.88427z" clip-path="url(#a)" fill="#fff" stroke="#fff"/>
<g clip-path="url(#a)">
<g transform="translate(407.29 122.89) rotate(-29.898) scale(.08 -.08)">
<use xlink:href="#m"/>
</g>
</g>
<path d="m462.75 190.59 0.5251-4.7951q0.26126-2.3857-2.1245-2.647l-7.6965-0.84283q-2.3857-0.26126-2.647 2.1245l-0.5251 4.7951q-0.26126 2.3857 2.1245 2.647l7.6965 0.84283q2.3857 0.26126 2.647-2.1245z" clip-path="url(#a)" fill="#fff" stroke="#fff"/>
<g clip-path="url(#a)">
<g transform="translate(458.71 190.15) rotate(-83.751) scale(.08 -.08)">
<use xlink:href="#u"/>
</g>
</g>
<path d="m533.34 124.06 4.926 2.3839q2.1603 1.0455 3.2058-1.1149l3.3727-6.9693q1.0455-2.1603-1.1149-3.2058l-4.926-2.3839q-2.1603-1.0455-3.2058 1.1149l-3.3727 6.9693q-1.0455 2.1603 1.1149 3.2058z" clip-path="url(#a)" fill="#fff" stroke="#fff"/>
<g clip-path="url(#a)">
<g transform="translate(535.11 120.4) rotate(25.824) scale(.08 -.08)">
<use xlink:href="#m"/>
</g>
</g>
<path d="m342.76 181.31v12.991q0 2.4 2.4 2.4h8q2.4 0 2.4-2.4v-12.991q0-2.4-2.4-2.4h-8q-2.4 0-2.4 2.4z" clip-path="url(#a)" fill="#fff" stroke="#fff"/>
<g clip-path="url(#a)">
<g transform="translate(347.04 181.31) rotate(90) scale(.08 -.08)">
<defs>
<path id="aa" d="m21 76.422v-100h-8.2969v100z"/>
</defs>
<use xlink:href="#u"/>
<use x="60.302734" xlink:href="#aa"/>
<use x="93.994141" xlink:href="#m"/>
</g>
</g>
<path d="m439.34 306.06v33.808q0 2.4 2.4 2.4h7.7425q2.4 0 2.4-2.4v-33.808q0-2.4-2.4-2.4h-7.7425q-2.4 0-2.4 2.4z" clip-path="url(#a)" fill="#fff" stroke="#fff"/>
<g clip-path="url(#a)">
<g transform="translate(443.4 306.06) rotate(90) scale(.08 -.08)">
<use xlink:href="#k"/>
<use x="44.083984" xlink:href="#e"/>
<use x="105.607422" xlink:href="#g"/>
<use x="144.970703" xlink:href="#l"/>
<use x="242.382812" xlink:href="#f"/>
<use x="270.166016" xlink:href="#h"/>
<use x="333.544922" xlink:href="#i"/>
<use x="394.824219" xlink:href="#j"/>
</g>
</g>
<path d="m585.86 193.66 3.1154-3.9809q1.4791-1.89-0.41092-3.3691l-6.0973-4.7717q-1.89-1.4791-3.3691 0.41092l-3.1154 3.9809q-1.4791 1.89 0.41092 3.3691l6.0973 4.7717q1.89 1.4791 3.3691-0.41092z" clip-path="url(#a)" fill="#fff" stroke="#fff"/>
<g clip-path="url(#a)">
<g transform="translate(582.66 191.16) rotate(-51.954) scale(.08 -.08)">
<defs>
<path id="v" d="m9.8125 72.906h46.094v-8.3125h-36.234v-21.578h34.719v-8.2969h-34.719v-26.422h37.109v-8.2969h-46.969z"/>
</defs>
<use xlink:href="#v"/>
</g>
</g>
<path d="m607.7 225.12 0.60106-5.5538q0.25823-2.3861-2.1278-2.6443l-7.6976-0.83307q-2.3861-0.25823-2.6443 2.1278l-0.60106 5.5538q-0.25823 2.3861 2.1278 2.6443l7.6976 0.83307q2.3861 0.25823 2.6443-2.1278z" clip-path="url(#a)" fill="#fff" stroke="#fff"/>
<g clip-path="url(#a)">
<g transform="translate(603.66 224.68) rotate(-83.823) scale(.08 -.08)">
<defs>
<path id="w" d="m64.406 67.281v-10.391q-4.9844 4.6406-10.625 6.9219-5.6406 2.2969-11.984 2.2969-12.5 0-19.141-7.6406t-6.6406-22.094q0-14.406 6.6406-22.047t19.141-7.6406q6.3438 0 11.984 2.2969t10.625 6.9375v-10.312q-5.1719-3.5156-10.969-5.2812-5.7812-1.75-12.219-1.75-16.562 0-26.094 10.125-9.5156 10.141-9.5156 27.672 0 17.578 9.5156 27.703 9.5312 10.141 26.094 10.141 6.5312 0 12.312-1.7344 5.7969-1.7344 10.875-5.2031z"/>
</defs>
<use xlink:href="#w"/>
</g>
</g>
<path d="m636.18 221.86 2.6207 5.2357q1.0742 2.1462 3.2204 1.0719l6.9236-3.4656q2.1462-1.0742 1.0719-3.2204l-2.6207-5.2357q-1.0742-2.1462-3.2204-1.0719l-6.9236 3.4656q-2.1462 1.0742-1.0719 3.2204z" clip-path="url(#a)" fill="#fff" stroke="#fff"/>
<g clip-path="url(#a)">
<g transform="translate(639.82 220.04) rotate(63.41) scale(.08 -.08)">
<use xlink:href="#s"/>
</g>
</g>
<path d="m568.32 256.43 2.7088 4.7551q1.188 2.0854 3.2733 0.89739l6.7275-3.8324q2.0854-1.188 0.89739-3.2733l-2.7088-4.7551q-1.188-2.0854-3.2733-0.89739l-6.7275 3.8324q-2.0854 1.188-0.89739 3.2733z" clip-path="url(#a)" fill="#fff" stroke="#fff"/>
<g clip-path="url(#a)">
<g transform="translate(571.86 254.42) rotate(60.331) scale(.08 -.08)">
<use xlink:href="#m"/>
</g>
</g>
<path d="m538.83 264.63 6.5567-11.51q1.188-2.0854-0.89739-3.2733l-6.9512-3.9599q-2.0854-1.188-3.2733 0.89739l-6.5567 11.51q-1.188 2.0854 0.89739 3.2733l6.9512 3.9599q2.0854 1.188 3.2733-0.89739z" clip-path="url(#a)" fill="#fff" stroke="#fff"/>
<g clip-path="url(#a)">
<g transform="translate(535.11 262.51) rotate(-60.331) scale(.08 -.08)">
<defs>
<path id="t" d="m53.516 70.516v-9.625q-5.6094 2.6875-10.594 4-4.9844 1.3281-9.625 1.3281-8.0469 0-12.422-3.125t-4.375-8.8906q0-4.8438 2.9062-7.3125 2.9062-2.4531 11.016-3.9688l5.9531-1.2188q11.031-2.1094 16.281-7.4062t5.25-14.172q0-10.609-7.1094-16.078-7.0938-5.4688-20.812-5.4688-5.1719 0-11.016 1.1719-5.8281 1.1719-12.078 3.4688v10.156q6-3.3594 11.766-5.0781 5.7656-1.7031 11.328-1.7031 8.4375 0 13.031 3.3125 4.5938 3.3281 4.5938 9.4844 0 5.3594-3.2969 8.3906t-10.812 4.5469l-6.0156 1.1719q-11.031 2.1875-15.969 6.875-4.9219 4.6875-4.9219 13.047 0 9.6719 6.8125 15.234t18.766 5.5625q5.1406 0 10.453-0.9375 5.3281-0.92188 10.891-2.7656z"/>
</defs>
<use xlink:href="#t"/>
<use x="63.476562" xlink:href="#aa"/>
<use x="97.167969" xlink:href="#m"/>
</g>
</g>
<path d="m588.15 306.06v33.808q0 2.4 2.4 2.4h7.7425q2.4 0 2.4-2.4v-33.808q0-2.4-2.4-2.4h-7.7425q-2.4 0-2.4 2.4z" clip-path="url(#a)" fill="#fff" stroke="#fff"/>
<g clip-path="url(#a)">
<g transform="translate(592.21 306.06) rotate(90) scale(.08 -.08)">
<use xlink:href="#k"/>
<use x="44.083984" xlink:href="#e"/>
<use x="105.607422" xlink:href="#g"/>
<use x="144.970703" xlink:href="#l"/>
<use x="242.382812" xlink:href="#f"/>
<use x="270.166016" xlink:href="#h"/>
<use x="333.544922" xlink:href="#i"/>
<use x="394.824219" xlink:href="#j"/>
</g>
</g>
<path d="m510.99 306.06v33.808q0 2.4 2.4 2.4h7.7425q2.4 0 2.4-2.4v-33.808q0-2.4-2.4-2.4h-7.7425q-2.4 0-2.4 2.4z" clip-path="url(#a)" fill="#fff" stroke="#fff"/>
<g clip-path="url(#a)">
<g transform="translate(515.05 306.06) rotate(90) scale(.08 -.08)">
<use xlink:href="#k"/>
<use x="44.083984" xlink:href="#e"/>
<use x="105.607422" xlink:href="#g"/>
<use x="144.970703" xlink:href="#l"/>
<use x="242.382812" xlink:href="#f"/>
<use x="270.166016" xlink:href="#h"/>
<use x="333.544922" xlink:href="#i"/>
<use x="394.824219" xlink:href="#j"/>
</g>
</g>
<path d="m338.78 260.37 1.8798-4.1997q0.9805-2.1906-1.2101-3.1711l-7.0669-3.1631q-2.1906-0.9805-3.1711 1.2101l-1.8798 4.1997q-0.9805 2.1906 1.2101 3.1711l7.0669 3.1631q2.1906 0.9805 3.1711-1.2101z" clip-path="url(#a)" fill="#fff" stroke="#fff"/>
<g clip-path="url(#a)">
<g transform="translate(335.07 258.71) rotate(-65.887) scale(.08 -.08)">
<use xlink:href="#ad"/>
</g>
</g>
<path d="m357.45 255.72 2.2822 5.0988q0.9805 2.1906 3.1711 1.2101l7.0669-3.1631q2.1906-0.9805 1.2101-3.1711l-2.2822-5.0988q-0.9805-2.1906-3.1711-1.2101l-7.0669 3.1631q-2.1906 0.9805-1.2101 3.1711z" clip-path="url(#a)" fill="#fff" stroke="#fff"/>
<g clip-path="url(#a)">
<g transform="translate(361.16 254.06) rotate(65.887) scale(.08 -.08)">
<use xlink:href="#w"/>
</g>
</g>
<path d="m312.57 306.06v33.808q0 2.4 2.4 2.4h7.7425q2.4 0 2.4-2.4v-33.808q0-2.4-2.4-2.4h-7.7425q-2.4 0-2.4 2.4z" clip-path="url(#a)" fill="#fff" stroke="#fff"/>
<g clip-path="url(#a)">
<g transform="translate(316.63 306.06) rotate(90) scale(.08 -.08)">
<use xlink:href="#k"/>
<use x="44.083984" xlink:href="#e"/>
<use x="105.607422" xlink:href="#g"/>
<use x="144.970703" xlink:href="#l"/>
<use x="242.382812" xlink:href="#f"/>
<use x="270.166016" xlink:href="#h"/>
<use x="333.544922" xlink:href="#i"/>
<use x="394.824219" xlink:href="#j"/>
</g>
</g>
<path d="m373.2 306.06v33.808q0 2.4 2.4 2.4h7.7425q2.4 0 2.4-2.4v-33.808q0-2.4-2.4-2.4h-7.7425q-2.4 0-2.4 2.4z" clip-path="url(#a)" fill="#fff" stroke="#fff"/>
<g clip-path="url(#a)">
<g transform="translate(377.26 306.06) rotate(90) scale(.08 -.08)">
<use xlink:href="#k"/>
<use x="44.083984" xlink:href="#e"/>
<use x="105.607422" xlink:href="#g"/>
<use x="144.970703" xlink:href="#l"/>
<use x="242.382812" xlink:href="#f"/>
<use x="270.166016" xlink:href="#h"/>
<use x="333.544922" xlink:href="#i"/>
<use x="394.824219" xlink:href="#j"/>
</g>
</g>
<path d="m64.552 306.06v33.808q0 2.4 2.4 2.4h7.7425q2.4 0 2.4-2.4v-33.808q0-2.4-2.4-2.4h-7.7425q-2.4 0-2.4 2.4z" clip-path="url(#a)" fill="#fff" stroke="#fff"/>
<g clip-path="url(#a)">
<g transform="translate(68.616 306.06) rotate(90) scale(.08 -.08)">
<use xlink:href="#k"/>
<use x="44.083984" xlink:href="#e"/>
<use x="105.607422" xlink:href="#g"/>
<use x="144.970703" xlink:href="#l"/>
<use x="242.382812" xlink:href="#f"/>
<use x="270.166016" xlink:href="#h"/>
<use x="333.544922" xlink:href="#i"/>
<use x="394.824219" xlink:href="#j"/>
</g>
</g>
<path d="m92.109 306.06v33.808q0 2.4 2.4 2.4h7.7425q2.4 0 2.4-2.4v-33.808q0-2.4-2.4-2.4h-7.7425q-2.4 0-2.4 2.4z" clip-path="url(#a)" fill="#fff" stroke="#fff"/>
<g clip-path="url(#a)">
<g transform="translate(96.173 306.06) rotate(90) scale(.08 -.08)">
<use xlink:href="#k"/>
<use x="44.083984" xlink:href="#e"/>
<use x="105.607422" xlink:href="#g"/>
<use x="144.970703" xlink:href="#l"/>
<use x="242.382812" xlink:href="#f"/>
<use x="270.166016" xlink:href="#h"/>
<use x="333.544922" xlink:href="#i"/>
<use x="394.824219" xlink:href="#j"/>
</g>
</g>
<path d="m188.18 192.01 1.4385-4.846q0.68297-2.3008-1.6178-2.9837l-7.4224-2.2033q-2.3008-0.68297-2.9837 1.6178l-1.4385 4.846q-0.68297 2.3008 1.6178 2.9837l7.4224 2.2033q2.3008 0.68297 2.9837-1.6178z" clip-path="url(#a)" fill="#fff" stroke="#fff"/>
<g clip-path="url(#a)">
<g transform="translate(184.29 190.86) rotate(-73.467) scale(.08 -.08)">
<use xlink:href="#v"/>
</g>
</g>
<path d="m198.77 190.42 0.0682-5.0545q0.03238-2.3998-2.3674-2.4322l-7.7418-0.10446q-2.3998-0.03238-2.4322 2.3674l-0.0682 5.0545q-0.03238 2.3998 2.3674 2.4322l7.7418 0.10446q2.3998 0.03238 2.4322-2.3674z" clip-path="url(#a)" fill="#fff" stroke="#fff"/>
<g clip-path="url(#a)">
<g transform="translate(194.71 190.36) rotate(-89.227) scale(.08 -.08)">
<use xlink:href="#v"/>
</g>
</g>
<path d="m196.93 219.87 0.85874 5.5198q0.36894 2.3715 2.7404 2.0025l7.6505-1.1902q2.3715-0.36894 2.0025-2.7404l-0.85874-5.5198q-0.36894-2.3715-2.7404-2.0025l-7.6505 1.1902q-2.3715 0.36894-2.0025 2.7404z" clip-path="url(#a)" fill="#fff" stroke="#fff"/>
<g clip-path="url(#a)">
<g transform="translate(200.95 219.25) rotate(81.157) scale(.08 -.08)">
<use xlink:href="#w"/>
</g>
</g>
<path d="m186.68 256.64 2.8511 4.6711q1.2504 2.0486 3.2989 0.79819l6.6087-4.0337q2.0486-1.2504 0.79819-3.2989l-2.8511-4.6711q-1.2504-2.0486-3.2989-0.79819l-6.6087 4.0337q-2.0486 1.2504-0.79819 3.2989z" clip-path="url(#a)" fill="#fff" stroke="#fff"/>
<g clip-path="url(#a)">
<g transform="translate(190.14 254.52) rotate(58.602) scale(.08 -.08)">
<use xlink:href="#m"/>
</g>
</g>
<path d="m154.13 264.69 6.9011-11.307q1.2504-2.0486-0.79819-3.2989l-6.8285-4.1679q-2.0486-1.2504-3.2989 0.79819l-6.9011 11.307q-1.2504 2.0486 0.79819 3.2989l6.8285 4.1679q2.0486 1.2504 3.2989-0.79819z" clip-path="url(#a)" fill="#fff" stroke="#fff"/>
<g clip-path="url(#a)">
<g transform="translate(150.47 262.46) rotate(-58.602) scale(.08 -.08)">
<use xlink:href="#t"/>
<use x="63.476562" xlink:href="#aa"/>
<use x="97.167969" xlink:href="#m"/>
</g>
</g>
<path d="m196.29 255.05 1.694 5.2037q0.7429 2.2821 3.025 1.5392l7.3622-2.3966q2.2821-0.7429 1.5392-3.025l-1.694-5.2037q-0.7429-2.2821-3.025-1.5392l-7.3622 2.3966q-2.2821 0.7429-1.5392 3.025z" clip-path="url(#a)" fill="#fff" stroke="#fff"/>
<g clip-path="url(#a)">
<g transform="translate(200.15 253.79) rotate(71.969) scale(.08 -.08)">
<use xlink:href="#m"/>
</g>
</g>
<path d="m186.23 260.06 1.5721-4.8293q0.7429-2.2821-1.5392-3.025l-7.3622-2.3966q-2.2821-0.7429-3.025 1.5392l-1.5721 4.8293q-0.7429 2.2821 1.5392 3.025l7.3622 2.3966q2.2821 0.7429 3.025-1.5392z" clip-path="url(#a)" fill="#fff" stroke="#fff"/>
<g clip-path="url(#a)">
<g transform="translate(182.37 258.8) rotate(-71.969) scale(.08 -.08)">
<use xlink:href="#t"/>
</g>
</g>
<path d="m207.85 306.06v33.808q0 2.4 2.4 2.4h7.7425q2.4 0 2.4-2.4v-33.808q0-2.4-2.4-2.4h-7.7425q-2.4 0-2.4 2.4z" clip-path="url(#a)" fill="#fff" stroke="#fff"/>
<g clip-path="url(#a)">
<g transform="translate(211.92 306.06) rotate(90) scale(.08 -.08)">
<use xlink:href="#k"/>
<use x="44.083984" xlink:href="#e"/>
<use x="105.607422" xlink:href="#g"/>
<use x="144.970703" xlink:href="#l"/>
<use x="242.382812" xlink:href="#f"/>
<use x="270.166016" xlink:href="#h"/>
<use x="333.544922" xlink:href="#i"/>
<use x="394.824219" xlink:href="#j"/>
</g>
</g>
<path d="m163.76 306.06v33.808q0 2.4 2.4 2.4h7.7425q2.4 0 2.4-2.4v-33.808q0-2.4-2.4-2.4h-7.7425q-2.4 0-2.4 2.4z" clip-path="url(#a)" fill="#fff" stroke="#fff"/>
<g clip-path="url(#a)">
<g transform="translate(167.82 306.06) rotate(90) scale(.08 -.08)">
<use xlink:href="#k"/>
<use x="44.083984" xlink:href="#e"/>
<use x="105.607422" xlink:href="#g"/>
<use x="144.970703" xlink:href="#l"/>
<use x="242.382812" xlink:href="#f"/>
<use x="270.166016" xlink:href="#h"/>
<use x="333.544922" xlink:href="#i"/>
<use x="394.824219" xlink:href="#j"/>
</g>
</g>
<path d="m125.18 306.06v33.808q0 2.4 2.4 2.4h7.7425q2.4 0 2.4-2.4v-33.808q0-2.4-2.4-2.4h-7.7425q-2.4 0-2.4 2.4z" clip-path="url(#a)" fill="#fff" stroke="#fff"/>
<g clip-path="url(#a)">
<g transform="translate(129.24 306.06) rotate(90) scale(.08 -.08)">
<use xlink:href="#k"/>
<use x="44.083984" xlink:href="#e"/>
<use x="105.607422" xlink:href="#g"/>
<use x="144.970703" xlink:href="#l"/>
<use x="242.382812" xlink:href="#f"/>
<use x="270.166016" xlink:href="#h"/>
<use x="333.544922" xlink:href="#i"/>
<use x="394.824219" xlink:href="#j"/>
</g>
</g>
<path d="m42.506 306.06v33.808q0 2.4 2.4 2.4h7.7425q2.4 0 2.4-2.4v-33.808q0-2.4-2.4-2.4h-7.7425q-2.4 0-2.4 2.4z" clip-path="url(#a)" fill="#fff" stroke="#fff"/>
<g clip-path="url(#a)">
<g transform="translate(46.57 306.06) rotate(90) scale(.08 -.08)">
<use xlink:href="#k"/>
<use x="44.083984" xlink:href="#e"/>
<use x="105.607422" xlink:href="#g"/>
<use x="144.970703" xlink:href="#l"/>
<use x="242.382812" xlink:href="#f"/>
<use x="270.166016" xlink:href="#h"/>
<use x="333.544922" xlink:href="#i"/>
<use x="394.824219" xlink:href="#j"/>
</g>
</g>
<path d="m257.46 306.06v33.808q0 2.4 2.4 2.4h7.7425q2.4 0 2.4-2.4v-33.808q0-2.4-2.4-2.4h-7.7425q-2.4 0-2.4 2.4z" clip-path="url(#a)" fill="#fff" stroke="#fff"/>
<g clip-path="url(#a)">
<g transform="translate(261.52 306.06) rotate(90) scale(.08 -.08)">
<use xlink:href="#k"/>
<use x="44.083984" xlink:href="#e"/>
<use x="105.607422" xlink:href="#g"/>
<use x="144.970703" xlink:href="#l"/>
<use x="242.382812" xlink:href="#f"/>
<use x="270.166016" xlink:href="#h"/>
<use x="333.544922" xlink:href="#i"/>
<use x="394.824219" xlink:href="#j"/>
</g>
</g>
<path d="m670.82 306.06v33.808q0 2.4 2.4 2.4h7.7425q2.4 0 2.4-2.4v-33.808q0-2.4-2.4-2.4h-7.7425q-2.4 0-2.4 2.4z" clip-path="url(#a)" fill="#fff" stroke="#fff"/>
<g clip-path="url(#a)">
<g transform="translate(674.88 306.06) rotate(90) scale(.08 -.08)">
<use xlink:href="#k"/>
<use x="44.083984" xlink:href="#e"/>
<use x="105.607422" xlink:href="#g"/>
<use x="144.970703" xlink:href="#l"/>
<use x="242.382812" xlink:href="#f"/>
<use x="270.166016" xlink:href="#h"/>
<use x="333.544922" xlink:href="#i"/>
<use x="394.824219" xlink:href="#j"/>
</g>
</g>
<defs>
<path id="b" d="m0 8.6603c2.2967 0 4.4997-0.9125 6.1237-2.5365 1.624-1.624 2.5365-3.827 2.5365-6.1237s-0.9125-4.4997-2.5365-6.1237c-1.624-1.624-3.827-2.5365-6.1237-2.5365s-4.4997 0.9125-6.1237 2.5365c-1.624 1.624-2.5365 3.827-2.5365 6.1237s0.9125 4.4997 2.5365 6.1237c1.624 1.624 3.827 2.5365 6.1237 2.5365z"/>
</defs>
<g clip-path="url(#a)" fill="#ffffff" stroke="#ffffff">
<use x="32.242424" y="356.363636" xlink:href="#b"/>
<use x="48.777001" y="356.363636" xlink:href="#b"/>
<use x="70.823103" y="356.363636" xlink:href="#b"/>
<use x="98.38073" y="356.363636" xlink:href="#b"/>
<use x="131.449883" y="356.363636" xlink:href="#b"/>
<use x="170.030562" y="356.363636" xlink:href="#b"/>
<use x="214.122766" y="356.363636" xlink:href="#b"/>
<use x="263.726496" y="356.363636" xlink:href="#b"/>
<use x="318.841751" y="356.363636" xlink:href="#b"/>
<use x="379.468531" y="356.363636" xlink:href="#b"/>
<use x="445.606838" y="356.363636" xlink:href="#b"/>
<use x="517.256669" y="356.363636" xlink:href="#b"/>
<use x="594.418026" y="356.363636" xlink:href="#b"/>
<use x="677.090909" y="356.363636" xlink:href="#b"/>
<use x="199.624392" y="16.969697" xlink:href="#b"/>
<use x="32.242424" y="289.568571" xlink:href="#b"/>
<use x="185.416904" y="85.453678" xlink:href="#b"/>
<use x="467.959136" y="85.453678" xlink:href="#b"/>
<use x="349.155141" y="153.764847" xlink:href="#b"/>
<use x="445.606838" y="289.568571" xlink:href="#b"/>
<use x="609.115428" y="153.764847" xlink:href="#b"/>
<use x="555.837348" y="221.844313" xlink:href="#b"/>
<use x="594.418026" y="289.568571" xlink:href="#b"/>
<use x="517.256669" y="289.568571" xlink:href="#b"/>
<use x="349.155141" y="221.844313" xlink:href="#b"/>
<use x="318.841751" y="289.568571" xlink:href="#b"/>
<use x="379.468531" y="289.568571" xlink:href="#b"/>
<use x="70.823103" y="289.568571" xlink:href="#b"/>
<use x="98.38073" y="289.568571" xlink:href="#b"/>
<use x="192.995252" y="153.764847" xlink:href="#b"/>
<use x="172.786325" y="221.844313" xlink:href="#b"/>
<use x="192.076664" y="221.844313" xlink:href="#b"/>
<use x="214.122766" y="289.568571" xlink:href="#b"/>
<use x="170.030562" y="289.568571" xlink:href="#b"/>
<use x="131.449883" y="289.568571" xlink:href="#b"/>
<use x="48.777001" y="289.568571" xlink:href="#b"/>
<use x="263.726496" y="289.568571" xlink:href="#b"/>
<use x="677.090909" y="289.568571" xlink:href="#b"/>
</g>
<g clip-path="url(#a)">
<g transform="translate(22.479 359.12) scale(.1 -.1)">
<defs>
<path id="ab" d="m45.406 46.391v29.594h8.9844v-75.984h-8.9844v8.2031q-2.8281-4.875-7.1562-7.25-4.3125-2.375-10.375-2.375-9.9062 0-16.141 7.9062-6.2188 7.9219-6.2188 20.812t6.2188 20.797q6.2344 7.9062 16.141 7.9062 6.0625 0 10.375-2.375 4.3281-2.3594 7.1562-7.2344zm-30.609-19.094q0-9.9062 4.0781-15.547t11.203-5.6406 11.219 5.6406q4.1094 5.6406 4.1094 15.547t-4.1094 15.547q-4.0938 5.6406-11.219 5.6406t-11.203-5.6406-4.0781-15.547z"/>
</defs>
<use xlink:href="#m"/>
<use x="68.408203" xlink:href="#h"/>
<use x="131.787109" xlink:href="#ab"/>
</g>
</g>
<g clip-path="url(#a)">
<g transform="translate(47.188 359.12) scale(.1 -.1)">
<defs>
<path id="aj" d="m11.719 12.406h10.297v-8.4062l-8-15.625h-6.2969l4 15.625z"/>
</defs>
<use xlink:href="#aj"/>
</g>
</g>
<g clip-path="url(#a)">
<g transform="translate(53.899 359.12) scale(.1 -.1)">
<defs>
<path id="o" d="m54.891 33.016v-33.016h-8.9844v32.719q0 7.7656-3.0312 11.609-3.0312 3.8594-9.0781 3.8594-7.2812 0-11.484-4.6406-4.2031-4.625-4.2031-12.641v-30.906h-9.0312v75.984h9.0312v-29.797q3.2344 4.9375 7.5938 7.375 4.375 2.4375 10.094 2.4375 9.4219 0 14.25-5.8281 4.8438-5.8281 4.8438-17.156z"/>
<path id="ap" d="m2.9844 54.688h9.5156l17.094-45.891 17.094 45.891h9.5156l-20.516-54.688h-12.203z"/>
<path id="p" d="m45.406 27.984q0 9.7656-4.0312 15.125-4.0156 5.375-11.297 5.375-7.2188 0-11.25-5.375-4.0312-5.3594-4.0312-15.125 0-9.7188 4.0312-15.094t11.25-5.375q7.2812 0 11.297 5.375 4.0312 5.375 4.0312 15.094zm8.9844-21.203q0-13.953-6.2031-20.766-6.1875-6.8125-18.984-6.8125-4.7344 0-8.9375 0.70312t-8.1562 2.1719v8.7344q3.9531-2.1406 7.8125-3.1562 3.8594-1.0312 7.8594-1.0312 8.8438 0 13.234 4.6094t4.3906 13.938v4.4531q-2.7812-4.8438-7.125-7.2344t-10.406-2.3906q-10.047 0-16.203 7.6562-6.1562 7.6719-6.1562 20.328 0 12.688 6.1562 20.344 6.1562 7.6719 16.203 7.6719 6.0625 0 10.406-2.3906t7.125-7.2188v8.2969h8.9844z"/>
</defs>
<use xlink:href="#o"/>
<use x="63.378906" xlink:href="#i"/>
<use x="124.658203" xlink:href="#ap"/>
<use x="183.837891" xlink:href="#f"/>
<use x="211.621094" xlink:href="#h"/>
<use x="275" xlink:href="#p"/>
</g>
</g>
<g clip-path="url(#a)">
<g transform="translate(79.651 359.12) scale(.1 -.1)">
<defs>
<path id="al" d="m30.609 48.391q-7.2188 0-11.422-5.6406t-4.2031-15.453 4.1719-15.453q4.1875-5.6406 11.453-5.6406 7.1875 0 11.375 5.6562 4.2031 5.6719 4.2031 15.438 0 9.7188-4.2031 15.406-4.1875 5.6875-11.375 5.6875zm0 7.6094q11.719 0 18.406-7.625 6.7031-7.6094 6.7031-21.078 0-13.422-6.7031-21.078-6.6875-7.6406-18.406-7.6406-11.766 0-18.438 7.6406-6.6562 7.6562-6.6562 21.078 0 13.469 6.6562 21.078 6.6719 7.625 18.438 7.625z"/>
<path id="r" d="m18.109 8.2031v-29h-9.0312v75.484h9.0312v-8.2969q2.8438 4.875 7.1562 7.2344 4.3281 2.375 10.328 2.375 9.9688 0 16.188-7.9062 6.2344-7.9062 6.2344-20.797t-6.2344-20.812q-6.2188-7.9062-16.188-7.9062-6 0-10.328 2.375-4.3125 2.375-7.1562 7.25zm30.578 19.094q0 9.9062-4.0781 15.547t-11.203 5.6406q-7.1406 0-11.219-5.6406t-4.0781-15.547 4.0781-15.547 11.219-5.6406q7.125 0 11.203 5.6406t4.0781 15.547z"/>
</defs>
<use xlink:href="#al"/>
<use x="61.181641" xlink:href="#r"/>
<use x="124.658203" xlink:href="#e"/>
<use x="186.181641" xlink:href="#h"/>
<use x="249.560547" xlink:href="#e"/>
<use x="311.083984" xlink:href="#ab"/>
</g>
</g>
<g clip-path="url(#a)">
<g transform="translate(124.29 359.12) scale(.1 -.1)">
<defs>
<path id="q" d="m44.281 53.078v-8.5q-3.7969 1.9531-7.9062 2.9219-4.0938 0.98438-8.5 0.98438-6.6875 0-10.031-2.0469t-3.3438-6.1562q0-3.125 2.3906-4.9062t9.625-3.3906l3.0781-0.6875q9.5625-2.0469 13.594-5.7812t4.0312-10.422q0-7.625-6.0312-12.078-6.0312-4.4375-16.578-4.4375-4.3906 0-9.1562 0.85938t-10.031 2.5625v9.2812q4.9844-2.5938 9.8125-3.8906 4.8281-1.2812 9.5781-1.2812 6.3438 0 9.75 2.1719 3.4219 2.1719 3.4219 6.125 0 3.6562-2.4688 5.6094-2.4531 1.9531-10.812 3.7656l-3.125 0.73438q-8.3438 1.75-12.062 5.3906-3.7031 3.6406-3.7031 9.9844 0 7.7188 5.4688 11.906 5.4688 4.2031 15.531 4.2031 4.9688 0 9.3594-0.73438 4.4062-0.71875 8.1094-2.1875z"/>
</defs>
<use xlink:href="#o"/>
<use x="63.378906" xlink:href="#f"/>
<use x="91.162109" xlink:href="#q"/>
</g>
</g>
<g clip-path="url(#a)">
<g transform="translate(162.29 359.12) scale(.1 -.1)">
<defs>
<path id="an" d="m48.688 27.297q0 9.9062-4.0781 15.547t-11.203 5.6406q-7.1406 0-11.219-5.6406t-4.0781-15.547 4.0781-15.547 11.219-5.6406q7.125 0 11.203 5.6406t4.0781 15.547zm-30.578 19.094q2.8438 4.875 7.1562 7.2344 4.3281 2.375 10.328 2.375 9.9688 0 16.188-7.9062 6.2344-7.9062 6.2344-20.797t-6.2344-20.812q-6.2188-7.9062-16.188-7.9062-6 0-10.328 2.375-4.3125 2.375-7.1562 7.25v-8.2031h-9.0312v75.984h9.0312z"/>
</defs>
<use xlink:href="#an"/>
<use x="63.476562" xlink:href="#f"/>
<use x="91.259766" xlink:href="#p"/>
</g>
</g>
<g clip-path="url(#a)">
<g transform="translate(194.84 359.12) scale(.1 -.1)">
<defs>
<path id="ak" d="m18.312 70.219v-15.531h18.5v-6.9844h-18.5v-29.688q0-6.6875 1.8281-8.5938t7.4531-1.9062h9.2188v-7.5156h-9.2188q-10.406 0-14.359 3.875-3.9531 3.8906-3.9531 14.141v29.688h-6.5938v6.9844h6.5938v15.531z"/>
</defs>
<use xlink:href="#g"/>
<use x="38.863281" xlink:href="#e"/>
<use x="100.386719" xlink:href="#p"/>
<use x="163.863281" xlink:href="#f"/>
<use x="191.646484" xlink:href="#q"/>
<use x="243.746094" xlink:href="#ak"/>
<use x="282.955078" xlink:href="#e"/>
<use x="344.478516" xlink:href="#g"/>
</g>
</g>
<g clip-path="url(#a)">
<g transform="translate(262.14 359.12) scale(.1 -.1)">
<use xlink:href="#aj"/>
</g>
</g>
<g clip-path="url(#a)">
<g transform="translate(310.64 359.12) scale(.1 -.1)">
<use xlink:href="#ak"/>
<use x="39.208984" xlink:href="#o"/>
<use x="102.587891" xlink:href="#e"/>
</g>
</g>
<g clip-path="url(#a)">
<g transform="translate(350.39 359.12) scale(.1 -.1)">
<use xlink:href="#p"/>
<use x="63.476562" xlink:href="#e"/>
<use x="125" xlink:href="#al"/>
<use x="186.181641" xlink:href="#p"/>
<use x="249.658203" xlink:href="#g"/>
<use x="290.771484" xlink:href="#i"/>
<use x="352.050781" xlink:href="#r"/>
<use x="415.527344" xlink:href="#o"/>
<use x="478.90625" xlink:href="#e"/>
<use x="540.429688" xlink:href="#g"/>
</g>
</g>
<g clip-path="url(#a)">
<g transform="translate(419.04 359.12) scale(.1 -.1)">
<use xlink:href="#q"/>
<use x="52.099609" xlink:href="#o"/>
<use x="115.478516" xlink:href="#i"/>
<use x="176.757812" xlink:href="#g"/>
<use x="217.871094" xlink:href="#r"/>
<use x="281.347656" xlink:href="#e"/>
<use x="342.871094" xlink:href="#h"/>
<use x="406.25" xlink:href="#e"/>
<use x="467.773438" xlink:href="#ab"/>
</g>
</g>
<g clip-path="url(#a)">
<g transform="translate(510.09 359.12) scale(.1 -.1)">
<use xlink:href="#o"/>
<use x="63.378906" xlink:href="#f"/>
<use x="91.162109" xlink:href="#q"/>
</g>
</g>
<g clip-path="url(#a)">
<g transform="translate(579.47 359.12) scale(.1 -.1)">
<defs>
<path id="am" d="m48.781 52.594v-8.4062q-3.8125 2.1094-7.6406 3.1562t-7.7344 1.0469q-8.75 0-13.594-5.5469-4.8281-5.5312-4.8281-15.547t4.8281-15.562q4.8438-5.5312 13.594-5.5312 3.9062 0 7.7344 1.0469t7.6406 3.1562v-8.3125q-3.7656-1.75-7.7969-2.625-4.0156-0.89062-8.5625-0.89062-12.359 0-19.641 7.7656-7.2656 7.7656-7.2656 20.953 0 13.375 7.3438 21.031 7.3594 7.6719 20.156 7.6719 4.1406 0 8.0938-0.85938 3.9531-0.84375 7.6719-2.5469z"/>
</defs>
<use xlink:href="#r"/>
<use x="63.476562" xlink:href="#e"/>
<use x="125" xlink:href="#h"/>
<use x="188.378906" xlink:href="#am"/>
<use x="243.359375" xlink:href="#f"/>
<use x="271.142578" xlink:href="#j"/>
</g>
</g>
<g clip-path="url(#a)">
<g transform="translate(675.5 359.12) scale(.1 -.1)">
<defs>
<path id="d" d="m10.688 12.406h10.312v-12.406h-10.312z"/>
</defs>
<use xlink:href="#d"/>
</g>
</g>
<g clip-path="url(#a)">
<g transform="translate(191.67 19.729) scale(.1 -.1)">
<defs>
<path id="c" d="m12.406 8.2969h16.109v55.625l-17.531-3.5156v8.9844l17.438 3.5156h9.8594v-64.609h16.109v-8.2969h-41.984z"/>
</defs>
<use xlink:href="#c"/>
<use x="63.623047" xlink:href="#d"/>
<use x="95.410156" xlink:href="#c"/>
</g>
</g>
<g clip-path="url(#a)">
<g transform="translate(24.291 292.33) scale(.1 -.1)">
<defs>
<path id="n" d="m19.188 8.2969h34.422v-8.2969h-46.281v8.2969q5.6094 5.8125 15.297 15.594 9.7031 9.7969 12.188 12.641 4.7344 5.3125 6.6094 9 1.8906 3.6875 1.8906 7.25 0 5.8125-4.0781 9.4688-4.0781 3.6719-10.625 3.6719-4.6406 0-9.7969-1.6094-5.1406-1.6094-11-4.8906v9.9688q5.9531 2.3906 11.125 3.6094 5.1875 1.2188 9.4844 1.2188 11.328 0 18.062-5.6719 6.7344-5.6562 6.7344-15.125 0-4.5-1.6875-8.5312-1.6719-4.0156-6.125-9.4844-1.2188-1.4219-7.7656-8.1875-6.5312-6.7656-18.453-18.922z"/>
</defs>
<use xlink:href="#c"/>
<use x="63.623047" xlink:href="#d"/>
<use x="95.410156" xlink:href="#n"/>
</g>
</g>
<g clip-path="url(#a)">
<g transform="translate(177.47 88.213) scale(.1 -.1)">
<defs>
<path id="z" d="m40.578 39.312q7.0781-1.5156 11.047-6.3125 3.9844-4.7812 3.9844-11.812 0-10.781-7.4219-16.703-7.4219-5.9062-21.094-5.9062-4.5781 0-9.4375 0.90625t-10.031 2.7188v9.5156q4.0938-2.3906 8.9688-3.6094 4.8906-1.2188 10.219-1.2188 9.2656 0 14.125 3.6562t4.8594 10.641q0 6.4531-4.5156 10.078-4.5156 3.6406-12.562 3.6406h-8.5v8.1094h8.8906q7.2656 0 11.125 2.9062t3.8594 8.375q0 5.6094-3.9844 8.6094-3.9688 3.0156-11.391 3.0156-4.0625 0-8.7031-0.89062-4.6406-0.875-10.203-2.7188v8.7812q5.625 1.5625 10.531 2.3438t9.25 0.78125q11.234 0 17.766-5.1094 6.5469-5.0938 6.5469-13.781 0-6.0625-3.4688-10.234t-9.8594-5.7812z"/>
</defs>
<use xlink:href="#c"/>
<use x="63.623047" xlink:href="#d"/>
<use x="95.410156" xlink:href="#z"/>
</g>
</g>
<g clip-path="url(#a)">
<g transform="translate(460.01 88.213) scale(.1 -.1)">
<defs>
<path id="y" d="m37.797 64.312-24.906-38.922h24.906zm-2.5938 8.5938h12.406v-47.516h10.406v-8.2031h-10.406v-17.188h-9.8125v17.188h-32.906v9.5156z"/>
</defs>
<use xlink:href="#c"/>
<use x="63.623047" xlink:href="#d"/>
<use x="95.410156" xlink:href="#y"/>
</g>
</g>
<g clip-path="url(#a)">
<g transform="translate(341.2 156.52) scale(.1 -.1)">
<defs>
<path id="x" d="m8.2031 72.906h46.875v-4.2031l-26.469-68.703h-10.297l24.906 64.594h-35.016z"/>
</defs>
<use xlink:href="#c"/>
<use x="63.623047" xlink:href="#d"/>
<use x="95.410156" xlink:href="#x"/>
</g>
</g>
<g clip-path="url(#a)">
<g transform="translate(437.66 292.33) scale(.1 -.1)">
<defs>
<path id="af" d="m31.781 34.625q-7.0312 0-11.062-3.7656-4.0156-3.7656-4.0156-10.344 0-6.5938 4.0156-10.359 4.0312-3.7656 11.062-3.7656t11.078 3.7812q4.0625 3.7969 4.0625 10.344 0 6.5781-4.0312 10.344-4.0156 3.7656-11.109 3.7656zm-9.8594 4.1875q-6.3438 1.5625-9.8906 5.9062-3.5312 4.3594-3.5312 10.609 0 8.7344 6.2188 13.812 6.2344 5.0781 17.062 5.0781 10.891 0 17.094-5.0781t6.2031-13.812q0-6.25-3.5469-10.609-3.5312-4.3438-9.8281-5.9062 7.125-1.6562 11.094-6.5 3.9844-4.8281 3.9844-11.797 0-10.609-6.4688-16.281-6.4688-5.6562-18.531-5.6562-12.047 0-18.531 5.6562-6.4688 5.6719-6.4688 16.281 0 6.9688 4 11.797 4.0156 4.8438 11.141 6.5zm-3.6094 15.578q0-5.6562 3.5312-8.8281 3.5469-3.1719 9.9375-3.1719 6.3594 0 9.9375 3.1719 3.5938 3.1719 3.5938 8.8281 0 5.6719-3.5938 8.8438-3.5781 3.1719-9.9375 3.1719-6.3906 0-9.9375-3.1719-3.5312-3.1719-3.5312-8.8438z"/>
</defs>
<use xlink:href="#c"/>
<use x="63.623047" xlink:href="#d"/>
<use x="95.410156" xlink:href="#af"/>
</g>
</g>
<g clip-path="url(#a)">
<g transform="translate(601.16 156.52) scale(.1 -.1)">
<defs>
<path id="ae" d="m10.984 1.5156v8.9844q3.7188-1.7656 7.5156-2.6875 3.8125-0.92188 7.4844-0.92188 9.7656 0 14.906 6.5625 5.1562 6.5625 5.8906 19.953-2.8281-4.2031-7.1875-6.4531-4.3438-2.25-9.6094-2.25-10.938 0-17.312 6.6094-6.375 6.625-6.375 18.109 0 11.219 6.6406 18 6.6406 6.7969 17.672 6.7969 12.656 0 19.312-9.7031 6.6719-9.6875 6.6719-28.141 0-17.234-8.1875-27.516-8.1719-10.281-21.984-10.281-3.7188 0-7.5312 0.73438-3.7969 0.73438-7.9062 2.2031zm19.625 30.906q6.6406 0 10.516 4.5312 3.8906 4.5469 3.8906 12.469 0 7.8594-3.8906 12.422-3.875 4.5625-10.516 4.5625t-10.516-4.5625-3.875-12.422q0-7.9219 3.875-12.469 3.875-4.5312 10.516-4.5312z"/>
</defs>
<use xlink:href="#c"/>
<use x="63.623047" xlink:href="#d"/>
<use x="95.410156" xlink:href="#ae"/>
</g>
</g>
<g clip-path="url(#a)">
<g transform="translate(544.7 224.6) scale(.1 -.1)">
<defs>
<path id="ai" d="m31.781 66.406q-7.6094 0-11.453-7.5-3.8281-7.4844-3.8281-22.531 0-14.984 3.8281-22.484 3.8438-7.5 11.453-7.5 7.6719 0 11.5 7.5 3.8438 7.5 3.8438 22.484 0 15.047-3.8438 22.531-3.8281 7.5-11.5 7.5zm0 7.8125q12.266 0 18.734-9.7031 6.4688-9.6875 6.4688-28.141 0-18.406-6.4688-28.109-6.4688-9.6875-18.734-9.6875-12.25 0-18.719 9.6875-6.4688 9.7031-6.4688 28.109 0 18.453 6.4688 28.141 6.4688 9.7031 18.719 9.7031z"/>
</defs>
<use xlink:href="#c"/>
<use x="63.623047" xlink:href="#d"/>
<use x="95.410156" xlink:href="#c"/>
<use x="159.033203" xlink:href="#ai"/>
</g>
</g>
<g clip-path="url(#a)">
<g transform="translate(583.29 292.33) scale(.1 -.1)">
<use xlink:href="#c"/>
<use x="63.623047" xlink:href="#d"/>
<use x="95.410156" xlink:href="#c"/>
<use x="159.033203" xlink:href="#c"/>
</g>
</g>
<g clip-path="url(#a)">
<g transform="translate(506.12 292.33) scale(.1 -.1)">
<use xlink:href="#c"/>
<use x="63.623047" xlink:href="#d"/>
<use x="95.410156" xlink:href="#c"/>
<use x="159.033203" xlink:href="#z"/>
</g>
</g>
<g clip-path="url(#a)">
<g transform="translate(338.02 224.6) scale(.1 -.1)">
<use xlink:href="#c"/>
<use x="63.623047" xlink:href="#d"/>
<use x="95.410156" xlink:href="#c"/>
<use x="159.033203" xlink:href="#y"/>
</g>
</g>
<g clip-path="url(#a)">
<g transform="translate(307.71 292.33) scale(.1 -.1)">
<defs>
<path id="ah" d="m10.797 72.906h38.719v-8.3125h-29.688v-17.859q2.1406 0.73438 4.2812 1.0938 2.1562 0.35938 4.3125 0.35938 12.203 0 19.328-6.6875 7.1406-6.6875 7.1406-18.109 0-11.766-7.3281-18.297-7.3281-6.5156-20.656-6.5156-4.5938 0-9.3594 0.78125-4.75 0.78125-9.8281 2.3438v9.9219q4.3906-2.3906 9.0781-3.5625t9.9062-1.1719q8.4531 0 13.375 4.4375 4.9375 4.4375 4.9375 12.062 0 7.6094-4.9375 12.047-4.9219 4.4531-13.375 4.4531-3.9531 0-7.8906-0.875-3.9219-0.875-8.0156-2.7344z"/>
</defs>
<use xlink:href="#c"/>
<use x="63.623047" xlink:href="#d"/>
<use x="95.410156" xlink:href="#c"/>
<use x="159.033203" xlink:href="#ah"/>
</g>
</g>
<g clip-path="url(#a)">
<g transform="translate(368.34 292.33) scale(.1 -.1)">
<defs>
<path id="ag" d="m33.016 40.375q-6.6406 0-10.531-4.5469-3.875-4.5312-3.875-12.438 0-7.8594 3.875-12.438 3.8906-4.5625 10.531-4.5625t10.516 4.5625q3.875 4.5781 3.875 12.438 0 7.9062-3.875 12.438-3.875 4.5469-10.516 4.5469zm19.578 30.922v-8.9844q-3.7188 1.75-7.5 2.6719-3.7812 0.9375-7.5 0.9375-9.7656 0-14.922-6.5938-5.1406-6.5938-5.875-19.922 2.875 4.25 7.2188 6.5156 4.3594 2.2656 9.5781 2.2656 10.984 0 17.359-6.6719 6.375-6.6562 6.375-18.125 0-11.234-6.6406-18.031-6.6406-6.7812-17.672-6.7812-12.656 0-19.344 9.6875-6.6875 9.7031-6.6875 28.109 0 17.281 8.2031 27.562t22.016 10.281q3.7188 0 7.5-0.73438t7.8906-2.1875z"/>
</defs>
<use xlink:href="#c"/>
<use x="63.623047" xlink:href="#d"/>
<use x="95.410156" xlink:href="#c"/>
<use x="159.033203" xlink:href="#ag"/>
</g>
</g>
<g clip-path="url(#a)">
<g transform="translate(59.69 292.33) scale(.1 -.1)">
<use xlink:href="#c"/>
<use x="63.623047" xlink:href="#d"/>
<use x="95.410156" xlink:href="#c"/>
<use x="159.033203" xlink:href="#x"/>
</g>
</g>
<g clip-path="url(#a)">
<g transform="translate(87.248 292.33) scale(.1 -.1)">
<use xlink:href="#c"/>
<use x="63.623047" xlink:href="#d"/>
<use x="95.410156" xlink:href="#c"/>
<use x="159.033203" xlink:href="#af"/>
</g>
</g>
<g clip-path="url(#a)">
<g transform="translate(181.86 156.52) scale(.1 -.1)">
<use xlink:href="#c"/>
<use x="63.623047" xlink:href="#d"/>
<use x="95.410156" xlink:href="#c"/>
<use x="159.033203" xlink:href="#ae"/>
</g>
</g>
<g clip-path="url(#a)">
<g transform="translate(161.65 224.6) scale(.1 -.1)">
<use xlink:href="#c"/>
<use x="63.623047" xlink:href="#d"/>
<use x="95.410156" xlink:href="#n"/>
<use x="159.033203" xlink:href="#ai"/>
</g>
</g>
<g clip-path="url(#a)">
<g transform="translate(180.94 224.6) scale(.1 -.1)">
<use xlink:href="#c"/>
<use x="63.623047" xlink:href="#d"/>
<use x="95.410156" xlink:href="#n"/>
<use x="159.033203" xlink:href="#c"/>
</g>
</g>
<g clip-path="url(#a)">
<g transform="translate(202.99 292.33) scale(.1 -.1)">
<use xlink:href="#c"/>
<use x="63.623047" xlink:href="#d"/>
<use x="95.410156" xlink:href="#n"/>
<use x="159.033203" xlink:href="#n"/>
</g>
</g>
<g clip-path="url(#a)">
<g transform="translate(158.9 292.33) scale(.1 -.1)">
<use xlink:href="#c"/>
<use x="63.623047" xlink:href="#d"/>
<use x="95.410156" xlink:href="#n"/>
<use x="159.033203" xlink:href="#z"/>
</g>
</g>
<g clip-path="url(#a)">
<g transform="translate(120.32 292.33) scale(.1 -.1)">
<use xlink:href="#c"/>
<use x="63.623047" xlink:href="#d"/>
<use x="95.410156" xlink:href="#n"/>
<use x="159.033203" xlink:href="#y"/>
</g>
</g>
<g clip-path="url(#a)">
<g transform="translate(37.644 292.33) scale(.1 -.1)">
<use xlink:href="#c"/>
<use x="63.623047" xlink:href="#d"/>
<use x="95.410156" xlink:href="#n"/>
<use x="159.033203" xlink:href="#ah"/>
</g>
</g>
<g clip-path="url(#a)">
<g transform="translate(252.59 292.33) scale(.1 -.1)">
<use xlink:href="#c"/>
<use x="63.623047" xlink:href="#d"/>
<use x="95.410156" xlink:href="#n"/>
<use x="159.033203" xlink:href="#ag"/>
</g>
</g>
<g clip-path="url(#a)">
<g transform="translate(665.96 292.33) scale(.1 -.1)">
<use xlink:href="#c"/>
<use x="63.623047" xlink:href="#d"/>
<use x="95.410156" xlink:href="#n"/>
<use x="159.033203" xlink:href="#x"/>
</g>
</g>
<defs>
<clipPath id="a">
<rect width="709.33" height="373.33"/>
</clipPath>
</defs>
</svg>
